%TF.GenerationSoftware,KiCad,Pcbnew,10.0.5*%
%TF.CreationDate,2026-08-17T02:05:16-04:00*%
%TF.ProjectId,hr30-carrier-a-p0.1,68723330-2d63-4617-9272-6965722d612d,rev?*%
%TF.SameCoordinates,Original*%
%TF.FileFunction,Legend,Bot*%
%TF.FilePolarity,Positive*%
%FSLAX46Y46*%
G04 Gerber Fmt 4.6, Leading zero omitted, Abs format (unit mm)*
G04 Created by KiCad (PCBNEW 10.0.5) date 2026-08-17 02:05:16*
%MOMM*%
%LPD*%
G01*
G04 APERTURE LIST*
%ADD10C,0.150000*%
%ADD11C,0.120000*%
G04 APERTURE END LIST*
D10*
X32476189Y-35362295D02*
X32476189Y-34562295D01*
X32476189Y-34562295D02*
X32171427Y-34562295D01*
X32171427Y-34562295D02*
X32095237Y-34600390D01*
X32095237Y-34600390D02*
X32057142Y-34638485D01*
X32057142Y-34638485D02*
X32019046Y-34714676D01*
X32019046Y-34714676D02*
X32019046Y-34828961D01*
X32019046Y-34828961D02*
X32057142Y-34905152D01*
X32057142Y-34905152D02*
X32095237Y-34943247D01*
X32095237Y-34943247D02*
X32171427Y-34981342D01*
X32171427Y-34981342D02*
X32476189Y-34981342D01*
X31219046Y-35362295D02*
X31485713Y-34981342D01*
X31676189Y-35362295D02*
X31676189Y-34562295D01*
X31676189Y-34562295D02*
X31371427Y-34562295D01*
X31371427Y-34562295D02*
X31295237Y-34600390D01*
X31295237Y-34600390D02*
X31257142Y-34638485D01*
X31257142Y-34638485D02*
X31219046Y-34714676D01*
X31219046Y-34714676D02*
X31219046Y-34828961D01*
X31219046Y-34828961D02*
X31257142Y-34905152D01*
X31257142Y-34905152D02*
X31295237Y-34943247D01*
X31295237Y-34943247D02*
X31371427Y-34981342D01*
X31371427Y-34981342D02*
X31676189Y-34981342D01*
X30876189Y-34943247D02*
X30609523Y-34943247D01*
X30495237Y-35362295D02*
X30876189Y-35362295D01*
X30876189Y-35362295D02*
X30876189Y-34562295D01*
X30876189Y-34562295D02*
X30495237Y-34562295D01*
X29771427Y-35362295D02*
X30152379Y-35362295D01*
X30152379Y-35362295D02*
X30152379Y-34562295D01*
X29504760Y-35362295D02*
X29504760Y-34562295D01*
X29123808Y-35362295D02*
X29123808Y-34562295D01*
X29123808Y-34562295D02*
X28857142Y-35133723D01*
X28857142Y-35133723D02*
X28590475Y-34562295D01*
X28590475Y-34562295D02*
X28590475Y-35362295D01*
X28209522Y-35362295D02*
X28209522Y-34562295D01*
X27828570Y-35362295D02*
X27828570Y-34562295D01*
X27828570Y-34562295D02*
X27371427Y-35362295D01*
X27371427Y-35362295D02*
X27371427Y-34562295D01*
X27028571Y-35133723D02*
X26647618Y-35133723D01*
X27104761Y-35362295D02*
X26838094Y-34562295D01*
X26838094Y-34562295D02*
X26571428Y-35362295D01*
X25847618Y-35362295D02*
X26114285Y-34981342D01*
X26304761Y-35362295D02*
X26304761Y-34562295D01*
X26304761Y-34562295D02*
X25999999Y-34562295D01*
X25999999Y-34562295D02*
X25923809Y-34600390D01*
X25923809Y-34600390D02*
X25885714Y-34638485D01*
X25885714Y-34638485D02*
X25847618Y-34714676D01*
X25847618Y-34714676D02*
X25847618Y-34828961D01*
X25847618Y-34828961D02*
X25885714Y-34905152D01*
X25885714Y-34905152D02*
X25923809Y-34943247D01*
X25923809Y-34943247D02*
X25999999Y-34981342D01*
X25999999Y-34981342D02*
X26304761Y-34981342D01*
X25352380Y-34981342D02*
X25352380Y-35362295D01*
X25619047Y-34562295D02*
X25352380Y-34981342D01*
X25352380Y-34981342D02*
X25085714Y-34562295D01*
X23638095Y-34524200D02*
X24323809Y-35552771D01*
X22761904Y-35362295D02*
X22761904Y-34562295D01*
X22761904Y-34562295D02*
X22571428Y-34562295D01*
X22571428Y-34562295D02*
X22457142Y-34600390D01*
X22457142Y-34600390D02*
X22380952Y-34676580D01*
X22380952Y-34676580D02*
X22342857Y-34752771D01*
X22342857Y-34752771D02*
X22304761Y-34905152D01*
X22304761Y-34905152D02*
X22304761Y-35019438D01*
X22304761Y-35019438D02*
X22342857Y-35171819D01*
X22342857Y-35171819D02*
X22380952Y-35248009D01*
X22380952Y-35248009D02*
X22457142Y-35324200D01*
X22457142Y-35324200D02*
X22571428Y-35362295D01*
X22571428Y-35362295D02*
X22761904Y-35362295D01*
X21809523Y-34562295D02*
X21657142Y-34562295D01*
X21657142Y-34562295D02*
X21580952Y-34600390D01*
X21580952Y-34600390D02*
X21504761Y-34676580D01*
X21504761Y-34676580D02*
X21466666Y-34828961D01*
X21466666Y-34828961D02*
X21466666Y-35095628D01*
X21466666Y-35095628D02*
X21504761Y-35248009D01*
X21504761Y-35248009D02*
X21580952Y-35324200D01*
X21580952Y-35324200D02*
X21657142Y-35362295D01*
X21657142Y-35362295D02*
X21809523Y-35362295D01*
X21809523Y-35362295D02*
X21885714Y-35324200D01*
X21885714Y-35324200D02*
X21961904Y-35248009D01*
X21961904Y-35248009D02*
X22000000Y-35095628D01*
X22000000Y-35095628D02*
X22000000Y-34828961D01*
X22000000Y-34828961D02*
X21961904Y-34676580D01*
X21961904Y-34676580D02*
X21885714Y-34600390D01*
X21885714Y-34600390D02*
X21809523Y-34562295D01*
X20514285Y-35362295D02*
X20514285Y-34562295D01*
X20514285Y-34562295D02*
X20057142Y-35362295D01*
X20057142Y-35362295D02*
X20057142Y-34562295D01*
X19523809Y-34562295D02*
X19371428Y-34562295D01*
X19371428Y-34562295D02*
X19295238Y-34600390D01*
X19295238Y-34600390D02*
X19219047Y-34676580D01*
X19219047Y-34676580D02*
X19180952Y-34828961D01*
X19180952Y-34828961D02*
X19180952Y-35095628D01*
X19180952Y-35095628D02*
X19219047Y-35248009D01*
X19219047Y-35248009D02*
X19295238Y-35324200D01*
X19295238Y-35324200D02*
X19371428Y-35362295D01*
X19371428Y-35362295D02*
X19523809Y-35362295D01*
X19523809Y-35362295D02*
X19600000Y-35324200D01*
X19600000Y-35324200D02*
X19676190Y-35248009D01*
X19676190Y-35248009D02*
X19714286Y-35095628D01*
X19714286Y-35095628D02*
X19714286Y-34828961D01*
X19714286Y-34828961D02*
X19676190Y-34676580D01*
X19676190Y-34676580D02*
X19600000Y-34600390D01*
X19600000Y-34600390D02*
X19523809Y-34562295D01*
X18952381Y-34562295D02*
X18495238Y-34562295D01*
X18723810Y-35362295D02*
X18723810Y-34562295D01*
X17352381Y-34943247D02*
X17619047Y-34943247D01*
X17619047Y-35362295D02*
X17619047Y-34562295D01*
X17619047Y-34562295D02*
X17238095Y-34562295D01*
X16971429Y-35133723D02*
X16590476Y-35133723D01*
X17047619Y-35362295D02*
X16780952Y-34562295D01*
X16780952Y-34562295D02*
X16514286Y-35362295D01*
X15980953Y-34943247D02*
X15866667Y-34981342D01*
X15866667Y-34981342D02*
X15828572Y-35019438D01*
X15828572Y-35019438D02*
X15790476Y-35095628D01*
X15790476Y-35095628D02*
X15790476Y-35209914D01*
X15790476Y-35209914D02*
X15828572Y-35286104D01*
X15828572Y-35286104D02*
X15866667Y-35324200D01*
X15866667Y-35324200D02*
X15942857Y-35362295D01*
X15942857Y-35362295D02*
X16247619Y-35362295D01*
X16247619Y-35362295D02*
X16247619Y-34562295D01*
X16247619Y-34562295D02*
X15980953Y-34562295D01*
X15980953Y-34562295D02*
X15904762Y-34600390D01*
X15904762Y-34600390D02*
X15866667Y-34638485D01*
X15866667Y-34638485D02*
X15828572Y-34714676D01*
X15828572Y-34714676D02*
X15828572Y-34790866D01*
X15828572Y-34790866D02*
X15866667Y-34867057D01*
X15866667Y-34867057D02*
X15904762Y-34905152D01*
X15904762Y-34905152D02*
X15980953Y-34943247D01*
X15980953Y-34943247D02*
X16247619Y-34943247D01*
X14990476Y-35362295D02*
X15257143Y-34981342D01*
X15447619Y-35362295D02*
X15447619Y-34562295D01*
X15447619Y-34562295D02*
X15142857Y-34562295D01*
X15142857Y-34562295D02*
X15066667Y-34600390D01*
X15066667Y-34600390D02*
X15028572Y-34638485D01*
X15028572Y-34638485D02*
X14990476Y-34714676D01*
X14990476Y-34714676D02*
X14990476Y-34828961D01*
X14990476Y-34828961D02*
X15028572Y-34905152D01*
X15028572Y-34905152D02*
X15066667Y-34943247D01*
X15066667Y-34943247D02*
X15142857Y-34981342D01*
X15142857Y-34981342D02*
X15447619Y-34981342D01*
X14647619Y-35362295D02*
X14647619Y-34562295D01*
X13809524Y-35286104D02*
X13847620Y-35324200D01*
X13847620Y-35324200D02*
X13961905Y-35362295D01*
X13961905Y-35362295D02*
X14038096Y-35362295D01*
X14038096Y-35362295D02*
X14152382Y-35324200D01*
X14152382Y-35324200D02*
X14228572Y-35248009D01*
X14228572Y-35248009D02*
X14266667Y-35171819D01*
X14266667Y-35171819D02*
X14304763Y-35019438D01*
X14304763Y-35019438D02*
X14304763Y-34905152D01*
X14304763Y-34905152D02*
X14266667Y-34752771D01*
X14266667Y-34752771D02*
X14228572Y-34676580D01*
X14228572Y-34676580D02*
X14152382Y-34600390D01*
X14152382Y-34600390D02*
X14038096Y-34562295D01*
X14038096Y-34562295D02*
X13961905Y-34562295D01*
X13961905Y-34562295D02*
X13847620Y-34600390D01*
X13847620Y-34600390D02*
X13809524Y-34638485D01*
X13504763Y-35133723D02*
X13123810Y-35133723D01*
X13580953Y-35362295D02*
X13314286Y-34562295D01*
X13314286Y-34562295D02*
X13047620Y-35362295D01*
X12895239Y-34562295D02*
X12438096Y-34562295D01*
X12666668Y-35362295D02*
X12666668Y-34562295D01*
X12171429Y-34943247D02*
X11904763Y-34943247D01*
X11790477Y-35362295D02*
X12171429Y-35362295D01*
X12171429Y-35362295D02*
X12171429Y-34562295D01*
X12171429Y-34562295D02*
X11790477Y-34562295D01*
X10685714Y-34562295D02*
X10533333Y-34562295D01*
X10533333Y-34562295D02*
X10457143Y-34600390D01*
X10457143Y-34600390D02*
X10380952Y-34676580D01*
X10380952Y-34676580D02*
X10342857Y-34828961D01*
X10342857Y-34828961D02*
X10342857Y-35095628D01*
X10342857Y-35095628D02*
X10380952Y-35248009D01*
X10380952Y-35248009D02*
X10457143Y-35324200D01*
X10457143Y-35324200D02*
X10533333Y-35362295D01*
X10533333Y-35362295D02*
X10685714Y-35362295D01*
X10685714Y-35362295D02*
X10761905Y-35324200D01*
X10761905Y-35324200D02*
X10838095Y-35248009D01*
X10838095Y-35248009D02*
X10876191Y-35095628D01*
X10876191Y-35095628D02*
X10876191Y-34828961D01*
X10876191Y-34828961D02*
X10838095Y-34676580D01*
X10838095Y-34676580D02*
X10761905Y-34600390D01*
X10761905Y-34600390D02*
X10685714Y-34562295D01*
X9542857Y-35362295D02*
X9809524Y-34981342D01*
X10000000Y-35362295D02*
X10000000Y-34562295D01*
X10000000Y-34562295D02*
X9695238Y-34562295D01*
X9695238Y-34562295D02*
X9619048Y-34600390D01*
X9619048Y-34600390D02*
X9580953Y-34638485D01*
X9580953Y-34638485D02*
X9542857Y-34714676D01*
X9542857Y-34714676D02*
X9542857Y-34828961D01*
X9542857Y-34828961D02*
X9580953Y-34905152D01*
X9580953Y-34905152D02*
X9619048Y-34943247D01*
X9619048Y-34943247D02*
X9695238Y-34981342D01*
X9695238Y-34981342D02*
X10000000Y-34981342D01*
X8133333Y-35286104D02*
X8171429Y-35324200D01*
X8171429Y-35324200D02*
X8285714Y-35362295D01*
X8285714Y-35362295D02*
X8361905Y-35362295D01*
X8361905Y-35362295D02*
X8476191Y-35324200D01*
X8476191Y-35324200D02*
X8552381Y-35248009D01*
X8552381Y-35248009D02*
X8590476Y-35171819D01*
X8590476Y-35171819D02*
X8628572Y-35019438D01*
X8628572Y-35019438D02*
X8628572Y-34905152D01*
X8628572Y-34905152D02*
X8590476Y-34752771D01*
X8590476Y-34752771D02*
X8552381Y-34676580D01*
X8552381Y-34676580D02*
X8476191Y-34600390D01*
X8476191Y-34600390D02*
X8361905Y-34562295D01*
X8361905Y-34562295D02*
X8285714Y-34562295D01*
X8285714Y-34562295D02*
X8171429Y-34600390D01*
X8171429Y-34600390D02*
X8133333Y-34638485D01*
X7638095Y-34562295D02*
X7485714Y-34562295D01*
X7485714Y-34562295D02*
X7409524Y-34600390D01*
X7409524Y-34600390D02*
X7333333Y-34676580D01*
X7333333Y-34676580D02*
X7295238Y-34828961D01*
X7295238Y-34828961D02*
X7295238Y-35095628D01*
X7295238Y-35095628D02*
X7333333Y-35248009D01*
X7333333Y-35248009D02*
X7409524Y-35324200D01*
X7409524Y-35324200D02*
X7485714Y-35362295D01*
X7485714Y-35362295D02*
X7638095Y-35362295D01*
X7638095Y-35362295D02*
X7714286Y-35324200D01*
X7714286Y-35324200D02*
X7790476Y-35248009D01*
X7790476Y-35248009D02*
X7828572Y-35095628D01*
X7828572Y-35095628D02*
X7828572Y-34828961D01*
X7828572Y-34828961D02*
X7790476Y-34676580D01*
X7790476Y-34676580D02*
X7714286Y-34600390D01*
X7714286Y-34600390D02*
X7638095Y-34562295D01*
X6952381Y-35362295D02*
X6952381Y-34562295D01*
X6952381Y-34562295D02*
X6495238Y-35362295D01*
X6495238Y-35362295D02*
X6495238Y-34562295D01*
X6114286Y-35362295D02*
X6114286Y-34562295D01*
X6114286Y-34562295D02*
X5657143Y-35362295D01*
X5657143Y-35362295D02*
X5657143Y-34562295D01*
X5276191Y-34943247D02*
X5009525Y-34943247D01*
X4895239Y-35362295D02*
X5276191Y-35362295D01*
X5276191Y-35362295D02*
X5276191Y-34562295D01*
X5276191Y-34562295D02*
X4895239Y-34562295D01*
X4095238Y-35286104D02*
X4133334Y-35324200D01*
X4133334Y-35324200D02*
X4247619Y-35362295D01*
X4247619Y-35362295D02*
X4323810Y-35362295D01*
X4323810Y-35362295D02*
X4438096Y-35324200D01*
X4438096Y-35324200D02*
X4514286Y-35248009D01*
X4514286Y-35248009D02*
X4552381Y-35171819D01*
X4552381Y-35171819D02*
X4590477Y-35019438D01*
X4590477Y-35019438D02*
X4590477Y-34905152D01*
X4590477Y-34905152D02*
X4552381Y-34752771D01*
X4552381Y-34752771D02*
X4514286Y-34676580D01*
X4514286Y-34676580D02*
X4438096Y-34600390D01*
X4438096Y-34600390D02*
X4323810Y-34562295D01*
X4323810Y-34562295D02*
X4247619Y-34562295D01*
X4247619Y-34562295D02*
X4133334Y-34600390D01*
X4133334Y-34600390D02*
X4095238Y-34638485D01*
X3866667Y-34562295D02*
X3409524Y-34562295D01*
X3638096Y-35362295D02*
X3638096Y-34562295D01*
X34638093Y-40362295D02*
X34638093Y-39562295D01*
X34638093Y-39562295D02*
X34447617Y-39562295D01*
X34447617Y-39562295D02*
X34333331Y-39600390D01*
X34333331Y-39600390D02*
X34257141Y-39676580D01*
X34257141Y-39676580D02*
X34219046Y-39752771D01*
X34219046Y-39752771D02*
X34180950Y-39905152D01*
X34180950Y-39905152D02*
X34180950Y-40019438D01*
X34180950Y-40019438D02*
X34219046Y-40171819D01*
X34219046Y-40171819D02*
X34257141Y-40248009D01*
X34257141Y-40248009D02*
X34333331Y-40324200D01*
X34333331Y-40324200D02*
X34447617Y-40362295D01*
X34447617Y-40362295D02*
X34638093Y-40362295D01*
X33876189Y-40133723D02*
X33495236Y-40133723D01*
X33952379Y-40362295D02*
X33685712Y-39562295D01*
X33685712Y-39562295D02*
X33419046Y-40362295D01*
X33266665Y-39562295D02*
X32809522Y-39562295D01*
X33038094Y-40362295D02*
X33038094Y-39562295D01*
X32580951Y-40133723D02*
X32199998Y-40133723D01*
X32657141Y-40362295D02*
X32390474Y-39562295D01*
X32390474Y-39562295D02*
X32123808Y-40362295D01*
X31095236Y-39562295D02*
X30942855Y-39562295D01*
X30942855Y-39562295D02*
X30866665Y-39600390D01*
X30866665Y-39600390D02*
X30790474Y-39676580D01*
X30790474Y-39676580D02*
X30752379Y-39828961D01*
X30752379Y-39828961D02*
X30752379Y-40095628D01*
X30752379Y-40095628D02*
X30790474Y-40248009D01*
X30790474Y-40248009D02*
X30866665Y-40324200D01*
X30866665Y-40324200D02*
X30942855Y-40362295D01*
X30942855Y-40362295D02*
X31095236Y-40362295D01*
X31095236Y-40362295D02*
X31171427Y-40324200D01*
X31171427Y-40324200D02*
X31247617Y-40248009D01*
X31247617Y-40248009D02*
X31285713Y-40095628D01*
X31285713Y-40095628D02*
X31285713Y-39828961D01*
X31285713Y-39828961D02*
X31247617Y-39676580D01*
X31247617Y-39676580D02*
X31171427Y-39600390D01*
X31171427Y-39600390D02*
X31095236Y-39562295D01*
X30409522Y-40362295D02*
X30409522Y-39562295D01*
X30409522Y-39562295D02*
X29952379Y-40362295D01*
X29952379Y-40362295D02*
X29952379Y-39562295D01*
X29190475Y-40362295D02*
X29571427Y-40362295D01*
X29571427Y-40362295D02*
X29571427Y-39562295D01*
X28771427Y-39981342D02*
X28771427Y-40362295D01*
X29038094Y-39562295D02*
X28771427Y-39981342D01*
X28771427Y-39981342D02*
X28504761Y-39562295D01*
X27628570Y-40057533D02*
X27019047Y-40057533D01*
X26028570Y-40362295D02*
X26028570Y-39562295D01*
X26028570Y-39562295D02*
X25571427Y-40362295D01*
X25571427Y-40362295D02*
X25571427Y-39562295D01*
X25038094Y-39562295D02*
X24885713Y-39562295D01*
X24885713Y-39562295D02*
X24809523Y-39600390D01*
X24809523Y-39600390D02*
X24733332Y-39676580D01*
X24733332Y-39676580D02*
X24695237Y-39828961D01*
X24695237Y-39828961D02*
X24695237Y-40095628D01*
X24695237Y-40095628D02*
X24733332Y-40248009D01*
X24733332Y-40248009D02*
X24809523Y-40324200D01*
X24809523Y-40324200D02*
X24885713Y-40362295D01*
X24885713Y-40362295D02*
X25038094Y-40362295D01*
X25038094Y-40362295D02*
X25114285Y-40324200D01*
X25114285Y-40324200D02*
X25190475Y-40248009D01*
X25190475Y-40248009D02*
X25228571Y-40095628D01*
X25228571Y-40095628D02*
X25228571Y-39828961D01*
X25228571Y-39828961D02*
X25190475Y-39676580D01*
X25190475Y-39676580D02*
X25114285Y-39600390D01*
X25114285Y-39600390D02*
X25038094Y-39562295D01*
X23780952Y-40133723D02*
X23399999Y-40133723D01*
X23857142Y-40362295D02*
X23590475Y-39562295D01*
X23590475Y-39562295D02*
X23323809Y-40362295D01*
X22599999Y-40286104D02*
X22638095Y-40324200D01*
X22638095Y-40324200D02*
X22752380Y-40362295D01*
X22752380Y-40362295D02*
X22828571Y-40362295D01*
X22828571Y-40362295D02*
X22942857Y-40324200D01*
X22942857Y-40324200D02*
X23019047Y-40248009D01*
X23019047Y-40248009D02*
X23057142Y-40171819D01*
X23057142Y-40171819D02*
X23095238Y-40019438D01*
X23095238Y-40019438D02*
X23095238Y-39905152D01*
X23095238Y-39905152D02*
X23057142Y-39752771D01*
X23057142Y-39752771D02*
X23019047Y-39676580D01*
X23019047Y-39676580D02*
X22942857Y-39600390D01*
X22942857Y-39600390D02*
X22828571Y-39562295D01*
X22828571Y-39562295D02*
X22752380Y-39562295D01*
X22752380Y-39562295D02*
X22638095Y-39600390D01*
X22638095Y-39600390D02*
X22599999Y-39638485D01*
X22371428Y-39562295D02*
X21914285Y-39562295D01*
X22142857Y-40362295D02*
X22142857Y-39562295D01*
X21647618Y-39562295D02*
X21647618Y-40209914D01*
X21647618Y-40209914D02*
X21609523Y-40286104D01*
X21609523Y-40286104D02*
X21571428Y-40324200D01*
X21571428Y-40324200D02*
X21495237Y-40362295D01*
X21495237Y-40362295D02*
X21342856Y-40362295D01*
X21342856Y-40362295D02*
X21266666Y-40324200D01*
X21266666Y-40324200D02*
X21228571Y-40286104D01*
X21228571Y-40286104D02*
X21190475Y-40209914D01*
X21190475Y-40209914D02*
X21190475Y-39562295D01*
X20847619Y-40133723D02*
X20466666Y-40133723D01*
X20923809Y-40362295D02*
X20657142Y-39562295D01*
X20657142Y-39562295D02*
X20390476Y-40362295D01*
X20238095Y-39562295D02*
X19780952Y-39562295D01*
X20009524Y-40362295D02*
X20009524Y-39562295D01*
X19361904Y-39562295D02*
X19209523Y-39562295D01*
X19209523Y-39562295D02*
X19133333Y-39600390D01*
X19133333Y-39600390D02*
X19057142Y-39676580D01*
X19057142Y-39676580D02*
X19019047Y-39828961D01*
X19019047Y-39828961D02*
X19019047Y-40095628D01*
X19019047Y-40095628D02*
X19057142Y-40248009D01*
X19057142Y-40248009D02*
X19133333Y-40324200D01*
X19133333Y-40324200D02*
X19209523Y-40362295D01*
X19209523Y-40362295D02*
X19361904Y-40362295D01*
X19361904Y-40362295D02*
X19438095Y-40324200D01*
X19438095Y-40324200D02*
X19514285Y-40248009D01*
X19514285Y-40248009D02*
X19552381Y-40095628D01*
X19552381Y-40095628D02*
X19552381Y-39828961D01*
X19552381Y-39828961D02*
X19514285Y-39676580D01*
X19514285Y-39676580D02*
X19438095Y-39600390D01*
X19438095Y-39600390D02*
X19361904Y-39562295D01*
X18219047Y-40362295D02*
X18485714Y-39981342D01*
X18676190Y-40362295D02*
X18676190Y-39562295D01*
X18676190Y-39562295D02*
X18371428Y-39562295D01*
X18371428Y-39562295D02*
X18295238Y-39600390D01*
X18295238Y-39600390D02*
X18257143Y-39638485D01*
X18257143Y-39638485D02*
X18219047Y-39714676D01*
X18219047Y-39714676D02*
X18219047Y-39828961D01*
X18219047Y-39828961D02*
X18257143Y-39905152D01*
X18257143Y-39905152D02*
X18295238Y-39943247D01*
X18295238Y-39943247D02*
X18371428Y-39981342D01*
X18371428Y-39981342D02*
X18676190Y-39981342D01*
X17380952Y-39562295D02*
X17114285Y-40362295D01*
X17114285Y-40362295D02*
X16847619Y-39562295D01*
X16580952Y-40362295D02*
X16580952Y-39562295D01*
X16580952Y-39562295D02*
X16390476Y-39562295D01*
X16390476Y-39562295D02*
X16276190Y-39600390D01*
X16276190Y-39600390D02*
X16200000Y-39676580D01*
X16200000Y-39676580D02*
X16161905Y-39752771D01*
X16161905Y-39752771D02*
X16123809Y-39905152D01*
X16123809Y-39905152D02*
X16123809Y-40019438D01*
X16123809Y-40019438D02*
X16161905Y-40171819D01*
X16161905Y-40171819D02*
X16200000Y-40248009D01*
X16200000Y-40248009D02*
X16276190Y-40324200D01*
X16276190Y-40324200D02*
X16390476Y-40362295D01*
X16390476Y-40362295D02*
X16580952Y-40362295D01*
X15780952Y-40362295D02*
X15780952Y-39562295D01*
X15780952Y-39562295D02*
X15590476Y-39562295D01*
X15590476Y-39562295D02*
X15476190Y-39600390D01*
X15476190Y-39600390D02*
X15400000Y-39676580D01*
X15400000Y-39676580D02*
X15361905Y-39752771D01*
X15361905Y-39752771D02*
X15323809Y-39905152D01*
X15323809Y-39905152D02*
X15323809Y-40019438D01*
X15323809Y-40019438D02*
X15361905Y-40171819D01*
X15361905Y-40171819D02*
X15400000Y-40248009D01*
X15400000Y-40248009D02*
X15476190Y-40324200D01*
X15476190Y-40324200D02*
X15590476Y-40362295D01*
X15590476Y-40362295D02*
X15780952Y-40362295D01*
X33864285Y-2208557D02*
X33864285Y-1308557D01*
X33864285Y-1737128D02*
X33349999Y-1737128D01*
X33349999Y-2208557D02*
X33349999Y-1308557D01*
X32407142Y-2208557D02*
X32707142Y-1779985D01*
X32921428Y-2208557D02*
X32921428Y-1308557D01*
X32921428Y-1308557D02*
X32578571Y-1308557D01*
X32578571Y-1308557D02*
X32492856Y-1351414D01*
X32492856Y-1351414D02*
X32449999Y-1394271D01*
X32449999Y-1394271D02*
X32407142Y-1479985D01*
X32407142Y-1479985D02*
X32407142Y-1608557D01*
X32407142Y-1608557D02*
X32449999Y-1694271D01*
X32449999Y-1694271D02*
X32492856Y-1737128D01*
X32492856Y-1737128D02*
X32578571Y-1779985D01*
X32578571Y-1779985D02*
X32921428Y-1779985D01*
X32021428Y-1865700D02*
X31335714Y-1865700D01*
X30992856Y-1308557D02*
X30435713Y-1308557D01*
X30435713Y-1308557D02*
X30735713Y-1651414D01*
X30735713Y-1651414D02*
X30607142Y-1651414D01*
X30607142Y-1651414D02*
X30521428Y-1694271D01*
X30521428Y-1694271D02*
X30478570Y-1737128D01*
X30478570Y-1737128D02*
X30435713Y-1822842D01*
X30435713Y-1822842D02*
X30435713Y-2037128D01*
X30435713Y-2037128D02*
X30478570Y-2122842D01*
X30478570Y-2122842D02*
X30521428Y-2165700D01*
X30521428Y-2165700D02*
X30607142Y-2208557D01*
X30607142Y-2208557D02*
X30864285Y-2208557D01*
X30864285Y-2208557D02*
X30949999Y-2165700D01*
X30949999Y-2165700D02*
X30992856Y-2122842D01*
X29878570Y-1308557D02*
X29792856Y-1308557D01*
X29792856Y-1308557D02*
X29707142Y-1351414D01*
X29707142Y-1351414D02*
X29664285Y-1394271D01*
X29664285Y-1394271D02*
X29621427Y-1479985D01*
X29621427Y-1479985D02*
X29578570Y-1651414D01*
X29578570Y-1651414D02*
X29578570Y-1865700D01*
X29578570Y-1865700D02*
X29621427Y-2037128D01*
X29621427Y-2037128D02*
X29664285Y-2122842D01*
X29664285Y-2122842D02*
X29707142Y-2165700D01*
X29707142Y-2165700D02*
X29792856Y-2208557D01*
X29792856Y-2208557D02*
X29878570Y-2208557D01*
X29878570Y-2208557D02*
X29964285Y-2165700D01*
X29964285Y-2165700D02*
X30007142Y-2122842D01*
X30007142Y-2122842D02*
X30049999Y-2037128D01*
X30049999Y-2037128D02*
X30092856Y-1865700D01*
X30092856Y-1865700D02*
X30092856Y-1651414D01*
X30092856Y-1651414D02*
X30049999Y-1479985D01*
X30049999Y-1479985D02*
X30007142Y-1394271D01*
X30007142Y-1394271D02*
X29964285Y-1351414D01*
X29964285Y-1351414D02*
X29878570Y-1308557D01*
X27992856Y-2122842D02*
X28035713Y-2165700D01*
X28035713Y-2165700D02*
X28164285Y-2208557D01*
X28164285Y-2208557D02*
X28249999Y-2208557D01*
X28249999Y-2208557D02*
X28378570Y-2165700D01*
X28378570Y-2165700D02*
X28464285Y-2079985D01*
X28464285Y-2079985D02*
X28507142Y-1994271D01*
X28507142Y-1994271D02*
X28549999Y-1822842D01*
X28549999Y-1822842D02*
X28549999Y-1694271D01*
X28549999Y-1694271D02*
X28507142Y-1522842D01*
X28507142Y-1522842D02*
X28464285Y-1437128D01*
X28464285Y-1437128D02*
X28378570Y-1351414D01*
X28378570Y-1351414D02*
X28249999Y-1308557D01*
X28249999Y-1308557D02*
X28164285Y-1308557D01*
X28164285Y-1308557D02*
X28035713Y-1351414D01*
X28035713Y-1351414D02*
X27992856Y-1394271D01*
X27649999Y-1951414D02*
X27221428Y-1951414D01*
X27735713Y-2208557D02*
X27435713Y-1308557D01*
X27435713Y-1308557D02*
X27135713Y-2208557D01*
X26321427Y-2208557D02*
X26621427Y-1779985D01*
X26835713Y-2208557D02*
X26835713Y-1308557D01*
X26835713Y-1308557D02*
X26492856Y-1308557D01*
X26492856Y-1308557D02*
X26407141Y-1351414D01*
X26407141Y-1351414D02*
X26364284Y-1394271D01*
X26364284Y-1394271D02*
X26321427Y-1479985D01*
X26321427Y-1479985D02*
X26321427Y-1608557D01*
X26321427Y-1608557D02*
X26364284Y-1694271D01*
X26364284Y-1694271D02*
X26407141Y-1737128D01*
X26407141Y-1737128D02*
X26492856Y-1779985D01*
X26492856Y-1779985D02*
X26835713Y-1779985D01*
X25421427Y-2208557D02*
X25721427Y-1779985D01*
X25935713Y-2208557D02*
X25935713Y-1308557D01*
X25935713Y-1308557D02*
X25592856Y-1308557D01*
X25592856Y-1308557D02*
X25507141Y-1351414D01*
X25507141Y-1351414D02*
X25464284Y-1394271D01*
X25464284Y-1394271D02*
X25421427Y-1479985D01*
X25421427Y-1479985D02*
X25421427Y-1608557D01*
X25421427Y-1608557D02*
X25464284Y-1694271D01*
X25464284Y-1694271D02*
X25507141Y-1737128D01*
X25507141Y-1737128D02*
X25592856Y-1779985D01*
X25592856Y-1779985D02*
X25935713Y-1779985D01*
X25035713Y-2208557D02*
X25035713Y-1308557D01*
X24607142Y-1737128D02*
X24307142Y-1737128D01*
X24178570Y-2208557D02*
X24607142Y-2208557D01*
X24607142Y-2208557D02*
X24607142Y-1308557D01*
X24607142Y-1308557D02*
X24178570Y-1308557D01*
X23278570Y-2208557D02*
X23578570Y-1779985D01*
X23792856Y-2208557D02*
X23792856Y-1308557D01*
X23792856Y-1308557D02*
X23449999Y-1308557D01*
X23449999Y-1308557D02*
X23364284Y-1351414D01*
X23364284Y-1351414D02*
X23321427Y-1394271D01*
X23321427Y-1394271D02*
X23278570Y-1479985D01*
X23278570Y-1479985D02*
X23278570Y-1608557D01*
X23278570Y-1608557D02*
X23321427Y-1694271D01*
X23321427Y-1694271D02*
X23364284Y-1737128D01*
X23364284Y-1737128D02*
X23449999Y-1779985D01*
X23449999Y-1779985D02*
X23792856Y-1779985D01*
X22249999Y-1951414D02*
X21821428Y-1951414D01*
X22335713Y-2208557D02*
X22035713Y-1308557D01*
X22035713Y-1308557D02*
X21735713Y-2208557D01*
X20749999Y-2208557D02*
X20749999Y-1308557D01*
X20749999Y-1308557D02*
X20407142Y-1308557D01*
X20407142Y-1308557D02*
X20321427Y-1351414D01*
X20321427Y-1351414D02*
X20278570Y-1394271D01*
X20278570Y-1394271D02*
X20235713Y-1479985D01*
X20235713Y-1479985D02*
X20235713Y-1608557D01*
X20235713Y-1608557D02*
X20278570Y-1694271D01*
X20278570Y-1694271D02*
X20321427Y-1737128D01*
X20321427Y-1737128D02*
X20407142Y-1779985D01*
X20407142Y-1779985D02*
X20749999Y-1779985D01*
X19678570Y-1308557D02*
X19592856Y-1308557D01*
X19592856Y-1308557D02*
X19507142Y-1351414D01*
X19507142Y-1351414D02*
X19464285Y-1394271D01*
X19464285Y-1394271D02*
X19421427Y-1479985D01*
X19421427Y-1479985D02*
X19378570Y-1651414D01*
X19378570Y-1651414D02*
X19378570Y-1865700D01*
X19378570Y-1865700D02*
X19421427Y-2037128D01*
X19421427Y-2037128D02*
X19464285Y-2122842D01*
X19464285Y-2122842D02*
X19507142Y-2165700D01*
X19507142Y-2165700D02*
X19592856Y-2208557D01*
X19592856Y-2208557D02*
X19678570Y-2208557D01*
X19678570Y-2208557D02*
X19764285Y-2165700D01*
X19764285Y-2165700D02*
X19807142Y-2122842D01*
X19807142Y-2122842D02*
X19849999Y-2037128D01*
X19849999Y-2037128D02*
X19892856Y-1865700D01*
X19892856Y-1865700D02*
X19892856Y-1651414D01*
X19892856Y-1651414D02*
X19849999Y-1479985D01*
X19849999Y-1479985D02*
X19807142Y-1394271D01*
X19807142Y-1394271D02*
X19764285Y-1351414D01*
X19764285Y-1351414D02*
X19678570Y-1308557D01*
X18992856Y-2122842D02*
X18949999Y-2165700D01*
X18949999Y-2165700D02*
X18992856Y-2208557D01*
X18992856Y-2208557D02*
X19035713Y-2165700D01*
X19035713Y-2165700D02*
X18992856Y-2122842D01*
X18992856Y-2122842D02*
X18992856Y-2208557D01*
X18092856Y-2208557D02*
X18607142Y-2208557D01*
X18349999Y-2208557D02*
X18349999Y-1308557D01*
X18349999Y-1308557D02*
X18435713Y-1437128D01*
X18435713Y-1437128D02*
X18521428Y-1522842D01*
X18521428Y-1522842D02*
X18607142Y-1565700D01*
%TO.C,D1RS*%
D11*
X15040000Y-5940000D02*
X15040000Y-6940000D01*
X15040000Y-8060000D02*
X15040000Y-9060000D01*
X15040000Y-9060000D02*
X16560000Y-9060000D01*
X16560000Y-5940000D02*
X15040000Y-5940000D01*
X16560000Y-5990000D02*
X16560000Y-5940000D01*
X16560000Y-7890000D02*
X16560000Y-7110000D01*
X16560000Y-9060000D02*
X16560000Y-9010000D01*
X17100000Y-7120000D02*
X16860000Y-7450000D01*
X17340000Y-7450000D01*
X17100000Y-7120000D01*
G36*
X17340000Y-7450000D02*
G01*
X16860000Y-7450000D01*
X17100000Y-7120000D01*
X17340000Y-7450000D01*
G37*
%TO.C,RT1*%
X6037258Y-6977500D02*
X5562742Y-6977500D01*
X6037258Y-8022500D02*
X5562742Y-8022500D01*
%TO.C,SJ4*%
X68000000Y-6500000D02*
X68000000Y-8500000D01*
X68000000Y-8500000D02*
X70800000Y-8500000D01*
X70800000Y-6500000D02*
X68000000Y-6500000D01*
X70800000Y-8500000D02*
X70800000Y-6500000D01*
%TO.C,C1A*%
X16340580Y-28690000D02*
X16059420Y-28690000D01*
X16340580Y-29710000D02*
X16059420Y-29710000D01*
%TO.C,C1D*%
X16140580Y-10490000D02*
X15859420Y-10490000D01*
X16140580Y-11510000D02*
X15859420Y-11510000D01*
%TO.C,C4C*%
X65940580Y-28690000D02*
X65659420Y-28690000D01*
X65940580Y-29710000D02*
X65659420Y-29710000D01*
%TO.C,C3B*%
X51140580Y-28690000D02*
X50859420Y-28690000D01*
X51140580Y-29710000D02*
X50859420Y-29710000D01*
%TO.C,C4D*%
X76140580Y-10490000D02*
X75859420Y-10490000D01*
X76140580Y-11510000D02*
X75859420Y-11510000D01*
%TO.C,D3RS*%
X55040000Y-5940000D02*
X55040000Y-6940000D01*
X55040000Y-8060000D02*
X55040000Y-9060000D01*
X55040000Y-9060000D02*
X56560000Y-9060000D01*
X56560000Y-5940000D02*
X55040000Y-5940000D01*
X56560000Y-5990000D02*
X56560000Y-5940000D01*
X56560000Y-7890000D02*
X56560000Y-7110000D01*
X56560000Y-9060000D02*
X56560000Y-9010000D01*
X57100000Y-7120000D02*
X56860000Y-7450000D01*
X57340000Y-7450000D01*
X57100000Y-7120000D01*
G36*
X57340000Y-7450000D02*
G01*
X56860000Y-7450000D01*
X57100000Y-7120000D01*
X57340000Y-7450000D01*
G37*
%TO.C,C3C*%
X45940580Y-28690000D02*
X45659420Y-28690000D01*
X45940580Y-29710000D02*
X45659420Y-29710000D01*
%TO.C,C2E*%
X31140580Y-10490000D02*
X30859420Y-10490000D01*
X31140580Y-11510000D02*
X30859420Y-11510000D01*
%TO.C,C3E*%
X51140580Y-10490000D02*
X50859420Y-10490000D01*
X51140580Y-11510000D02*
X50859420Y-11510000D01*
%TO.C,D2RS*%
X35040000Y-5940000D02*
X35040000Y-6940000D01*
X35040000Y-8060000D02*
X35040000Y-9060000D01*
X35040000Y-9060000D02*
X36560000Y-9060000D01*
X36560000Y-5940000D02*
X35040000Y-5940000D01*
X36560000Y-5990000D02*
X36560000Y-5940000D01*
X36560000Y-7890000D02*
X36560000Y-7110000D01*
X36560000Y-9060000D02*
X36560000Y-9010000D01*
X37100000Y-7120000D02*
X36860000Y-7450000D01*
X37340000Y-7450000D01*
X37100000Y-7120000D01*
G36*
X37340000Y-7450000D02*
G01*
X36860000Y-7450000D01*
X37100000Y-7120000D01*
X37340000Y-7450000D01*
G37*
%TO.C,C2D*%
X36140580Y-10490000D02*
X35859420Y-10490000D01*
X36140580Y-11510000D02*
X35859420Y-11510000D01*
%TO.C,C4E*%
X71140580Y-10490000D02*
X70859420Y-10490000D01*
X71140580Y-11510000D02*
X70859420Y-11510000D01*
%TO.C,C4A*%
X76340580Y-28690000D02*
X76059420Y-28690000D01*
X76340580Y-29710000D02*
X76059420Y-29710000D01*
%TO.C,RT2*%
X26037258Y-6977500D02*
X25562742Y-6977500D01*
X26037258Y-8022500D02*
X25562742Y-8022500D01*
%TO.C,SJ1*%
X8000000Y-6500000D02*
X8000000Y-8500000D01*
X8000000Y-8500000D02*
X10800000Y-8500000D01*
X10800000Y-6500000D02*
X8000000Y-6500000D01*
X10800000Y-8500000D02*
X10800000Y-6500000D01*
%TO.C,RT3*%
X46037258Y-6977500D02*
X45562742Y-6977500D01*
X46037258Y-8022500D02*
X45562742Y-8022500D01*
%TO.C,C4B*%
X71140580Y-28690000D02*
X70859420Y-28690000D01*
X71140580Y-29710000D02*
X70859420Y-29710000D01*
%TO.C,C2C*%
X25940580Y-28690000D02*
X25659420Y-28690000D01*
X25940580Y-29710000D02*
X25659420Y-29710000D01*
%TO.C,SJ3*%
X48000000Y-6500000D02*
X48000000Y-8500000D01*
X48000000Y-8500000D02*
X50800000Y-8500000D01*
X50800000Y-6500000D02*
X48000000Y-6500000D01*
X50800000Y-8500000D02*
X50800000Y-6500000D01*
%TO.C,C3D*%
X56140580Y-10490000D02*
X55859420Y-10490000D01*
X56140580Y-11510000D02*
X55859420Y-11510000D01*
%TO.C,SJ2*%
X28000000Y-6500000D02*
X28000000Y-8500000D01*
X28000000Y-8500000D02*
X30800000Y-8500000D01*
X30800000Y-6500000D02*
X28000000Y-6500000D01*
X30800000Y-8500000D02*
X30800000Y-6500000D01*
%TO.C,C1C*%
X5940580Y-28690000D02*
X5659420Y-28690000D01*
X5940580Y-29710000D02*
X5659420Y-29710000D01*
%TO.C,D4RS*%
X75040000Y-5940000D02*
X75040000Y-6940000D01*
X75040000Y-8060000D02*
X75040000Y-9060000D01*
X75040000Y-9060000D02*
X76560000Y-9060000D01*
X76560000Y-5940000D02*
X75040000Y-5940000D01*
X76560000Y-5990000D02*
X76560000Y-5940000D01*
X76560000Y-7890000D02*
X76560000Y-7110000D01*
X76560000Y-9060000D02*
X76560000Y-9010000D01*
X77100000Y-7120000D02*
X76860000Y-7450000D01*
X77340000Y-7450000D01*
X77100000Y-7120000D01*
G36*
X77340000Y-7450000D02*
G01*
X76860000Y-7450000D01*
X77100000Y-7120000D01*
X77340000Y-7450000D01*
G37*
%TO.C,C3A*%
X56340580Y-28690000D02*
X56059420Y-28690000D01*
X56340580Y-29710000D02*
X56059420Y-29710000D01*
%TO.C,C1E*%
X11140580Y-10490000D02*
X10859420Y-10490000D01*
X11140580Y-11510000D02*
X10859420Y-11510000D01*
%TO.C,C2B*%
X31140580Y-28690000D02*
X30859420Y-28690000D01*
X31140580Y-29710000D02*
X30859420Y-29710000D01*
%TO.C,C1B*%
X11140580Y-28690000D02*
X10859420Y-28690000D01*
X11140580Y-29710000D02*
X10859420Y-29710000D01*
%TO.C,C2A*%
X36340580Y-28690000D02*
X36059420Y-28690000D01*
X36340580Y-29710000D02*
X36059420Y-29710000D01*
%TO.C,RT4*%
X66037258Y-6977500D02*
X65562742Y-6977500D01*
X66037258Y-8022500D02*
X65562742Y-8022500D01*
%TD*%
M02*
