%TF.GenerationSoftware,KiCad,Pcbnew,10.0.5*%
%TF.CreationDate,2026-08-17T00:23:55-04:00*%
%TF.ProjectId,hr30-carrier-a-p0.1,68723330-2d63-4617-9272-6965722d612d,rev?*%
%TF.SameCoordinates,Original*%
%TF.FileFunction,Copper,L1,Top*%
%TF.FilePolarity,Positive*%
%FSLAX46Y46*%
G04 Gerber Fmt 4.6, Leading zero omitted, Abs format (unit mm)*
G04 Created by KiCad (PCBNEW 10.0.5) date 2026-08-17 00:23:55*
%MOMM*%
%LPD*%
G01*
G04 APERTURE LIST*
G04 Aperture macros list*
%AMRoundRect*
0 Rectangle with rounded corners*
0 $1 Rounding radius*
0 $2 $3 $4 $5 $6 $7 $8 $9 X,Y pos of 4 corners*
0 Add a 4 corners polygon primitive as box body*
4,1,4,$2,$3,$4,$5,$6,$7,$8,$9,$2,$3,0*
0 Add four circle primitives for the rounded corners*
1,1,$1+$1,$2,$3*
1,1,$1+$1,$4,$5*
1,1,$1+$1,$6,$7*
1,1,$1+$1,$8,$9*
0 Add four rect primitives between the rounded corners*
20,1,$1+$1,$2,$3,$4,$5,0*
20,1,$1+$1,$4,$5,$6,$7,0*
20,1,$1+$1,$6,$7,$8,$9,0*
20,1,$1+$1,$8,$9,$2,$3,0*%
G04 Aperture macros list end*
%TA.AperFunction,SMDPad,CuDef*%
%ADD10RoundRect,0.150000X0.150000X-0.875000X0.150000X0.875000X-0.150000X0.875000X-0.150000X-0.875000X0*%
%TD*%
%TA.AperFunction,SMDPad,CuDef*%
%ADD11RoundRect,0.150000X-0.150000X-0.700000X0.150000X-0.700000X0.150000X0.700000X-0.150000X0.700000X0*%
%TD*%
%TA.AperFunction,SMDPad,CuDef*%
%ADD12RoundRect,0.250000X-0.250000X-1.150000X0.250000X-1.150000X0.250000X1.150000X-0.250000X1.150000X0*%
%TD*%
%TA.AperFunction,ViaPad*%
%ADD13C,0.350000*%
%TD*%
%TA.AperFunction,Conductor*%
%ADD14C,0.200000*%
%TD*%
%TA.AperFunction,Conductor*%
%ADD15C,0.150000*%
%TD*%
G04 APERTURE END LIST*
D10*
%TO.P,U102,1*%
%TO.N,CTRL_3V3*%
X25285000Y-24650000D03*
%TO.P,U102,2*%
%TO.N,UART_RS-RLEG_TX*%
X26555000Y-24650000D03*
%TO.P,U102,3*%
%TO.N,UART_RS-RLEG_DIR*%
X27825000Y-24650000D03*
%TO.P,U102,4*%
%TO.N,UART_RS-RLEG_RX*%
X29095000Y-24650000D03*
%TO.P,U102,5*%
%TO.N,UART_RS-RLEG_DIR*%
X30365000Y-24650000D03*
%TO.P,U102,6*%
%TO.N,CTRL_GND*%
X31635000Y-24650000D03*
%TO.P,U102,7*%
%TO.N,N/C*%
X32905000Y-24650000D03*
%TO.P,U102,8*%
X34175000Y-24650000D03*
%TO.P,U102,9*%
%TO.N,CTRL_5V*%
X35445000Y-24650000D03*
%TO.P,U102,10*%
%TO.N,CTRL_GND*%
X36715000Y-24650000D03*
%TO.P,U102,11*%
%TO.N,RS-RLEG_GND2*%
X36715000Y-15350000D03*
%TO.P,U102,12*%
%TO.N,RS-RLEG_VISOOUT*%
X35445000Y-15350000D03*
%TO.P,U102,13*%
%TO.N,RS-RLEG_GND2*%
X34175000Y-15350000D03*
%TO.P,U102,14*%
%TO.N,RS-RLEG_RET*%
X32905000Y-15350000D03*
%TO.P,U102,15*%
X31635000Y-15350000D03*
%TO.P,U102,16*%
%TO.N,RS-RLEG_VISOIN*%
X30365000Y-15350000D03*
%TO.P,U102,17*%
%TO.N,RS-RLEG_DP*%
X29095000Y-15350000D03*
%TO.P,U102,18*%
%TO.N,RS-RLEG_DN*%
X27825000Y-15350000D03*
%TO.P,U102,19*%
X26555000Y-15350000D03*
%TO.P,U102,20*%
%TO.N,RS-RLEG_DP*%
X25285000Y-15350000D03*
%TD*%
D11*
%TO.P,J104,1*%
%TO.N,RS-RARM_RET*%
X69750000Y-5950000D03*
%TO.P,J104,2*%
%TO.N,RS-RARM_DP*%
X71000000Y-5950000D03*
%TO.P,J104,3*%
%TO.N,RS-RARM_DN*%
X72250000Y-5950000D03*
D12*
%TO.P,J104,MP*%
%TO.N,N/C*%
X67900000Y-2600000D03*
X74100000Y-2600000D03*
%TD*%
D11*
%TO.P,J102,1*%
%TO.N,RS-RLEG_RET*%
X29750000Y-5950000D03*
%TO.P,J102,2*%
%TO.N,RS-RLEG_DP*%
X31000000Y-5950000D03*
%TO.P,J102,3*%
%TO.N,RS-RLEG_DN*%
X32250000Y-5950000D03*
D12*
%TO.P,J102,MP*%
%TO.N,N/C*%
X27900000Y-2600000D03*
X34100000Y-2600000D03*
%TD*%
D10*
%TO.P,U104,1*%
%TO.N,CTRL_3V3*%
X65285000Y-24650000D03*
%TO.P,U104,2*%
%TO.N,UART_RS-RARM_TX*%
X66555000Y-24650000D03*
%TO.P,U104,3*%
%TO.N,UART_RS-RARM_DIR*%
X67825000Y-24650000D03*
%TO.P,U104,4*%
%TO.N,UART_RS-RARM_RX*%
X69095000Y-24650000D03*
%TO.P,U104,5*%
%TO.N,UART_RS-RARM_DIR*%
X70365000Y-24650000D03*
%TO.P,U104,6*%
%TO.N,CTRL_GND*%
X71635000Y-24650000D03*
%TO.P,U104,7*%
%TO.N,N/C*%
X72905000Y-24650000D03*
%TO.P,U104,8*%
X74175000Y-24650000D03*
%TO.P,U104,9*%
%TO.N,CTRL_5V*%
X75445000Y-24650000D03*
%TO.P,U104,10*%
%TO.N,CTRL_GND*%
X76715000Y-24650000D03*
%TO.P,U104,11*%
%TO.N,RS-RARM_GND2*%
X76715000Y-15350000D03*
%TO.P,U104,12*%
%TO.N,RS-RARM_VISOOUT*%
X75445000Y-15350000D03*
%TO.P,U104,13*%
%TO.N,RS-RARM_GND2*%
X74175000Y-15350000D03*
%TO.P,U104,14*%
%TO.N,RS-RARM_RET*%
X72905000Y-15350000D03*
%TO.P,U104,15*%
X71635000Y-15350000D03*
%TO.P,U104,16*%
%TO.N,RS-RARM_VISOIN*%
X70365000Y-15350000D03*
%TO.P,U104,17*%
%TO.N,RS-RARM_DP*%
X69095000Y-15350000D03*
%TO.P,U104,18*%
%TO.N,RS-RARM_DN*%
X67825000Y-15350000D03*
%TO.P,U104,19*%
X66555000Y-15350000D03*
%TO.P,U104,20*%
%TO.N,RS-RARM_DP*%
X65285000Y-15350000D03*
%TD*%
D11*
%TO.P,J103,1*%
%TO.N,RS-LARM_RET*%
X49750000Y-5950000D03*
%TO.P,J103,2*%
%TO.N,RS-LARM_DP*%
X51000000Y-5950000D03*
%TO.P,J103,3*%
%TO.N,RS-LARM_DN*%
X52250000Y-5950000D03*
D12*
%TO.P,J103,MP*%
%TO.N,N/C*%
X47900000Y-2600000D03*
X54100000Y-2600000D03*
%TD*%
D10*
%TO.P,U101,1*%
%TO.N,CTRL_3V3*%
X5285000Y-24650000D03*
%TO.P,U101,2*%
%TO.N,UART_RS-LLEG_TX*%
X6555000Y-24650000D03*
%TO.P,U101,3*%
%TO.N,UART_RS-LLEG_DIR*%
X7825000Y-24650000D03*
%TO.P,U101,4*%
%TO.N,UART_RS-LLEG_RX*%
X9095000Y-24650000D03*
%TO.P,U101,5*%
%TO.N,UART_RS-LLEG_DIR*%
X10365000Y-24650000D03*
%TO.P,U101,6*%
%TO.N,CTRL_GND*%
X11635000Y-24650000D03*
%TO.P,U101,7*%
%TO.N,N/C*%
X12905000Y-24650000D03*
%TO.P,U101,8*%
X14175000Y-24650000D03*
%TO.P,U101,9*%
%TO.N,CTRL_5V*%
X15445000Y-24650000D03*
%TO.P,U101,10*%
%TO.N,CTRL_GND*%
X16715000Y-24650000D03*
%TO.P,U101,11*%
%TO.N,RS-LLEG_GND2*%
X16715000Y-15350000D03*
%TO.P,U101,12*%
%TO.N,RS-LLEG_VISOOUT*%
X15445000Y-15350000D03*
%TO.P,U101,13*%
%TO.N,RS-LLEG_GND2*%
X14175000Y-15350000D03*
%TO.P,U101,14*%
%TO.N,RS-LLEG_RET*%
X12905000Y-15350000D03*
%TO.P,U101,15*%
X11635000Y-15350000D03*
%TO.P,U101,16*%
%TO.N,RS-LLEG_VISOIN*%
X10365000Y-15350000D03*
%TO.P,U101,17*%
%TO.N,RS-LLEG_DP*%
X9095000Y-15350000D03*
%TO.P,U101,18*%
%TO.N,RS-LLEG_DN*%
X7825000Y-15350000D03*
%TO.P,U101,19*%
X6555000Y-15350000D03*
%TO.P,U101,20*%
%TO.N,RS-LLEG_DP*%
X5285000Y-15350000D03*
%TD*%
D11*
%TO.P,JCA1,1*%
%TO.N,CTRL_GND*%
X32250000Y-39950000D03*
%TO.P,JCA1,2*%
%TO.N,CTRL_5V*%
X33500000Y-39950000D03*
%TO.P,JCA1,3*%
%TO.N,CTRL_3V3*%
X34750000Y-39950000D03*
%TO.P,JCA1,4*%
%TO.N,UART_RS-LLEG_TX*%
X36000000Y-39950000D03*
%TO.P,JCA1,5*%
%TO.N,UART_RS-LLEG_RX*%
X37250000Y-39950000D03*
%TO.P,JCA1,6*%
%TO.N,UART_RS-LLEG_DIR*%
X38500000Y-39950000D03*
%TO.P,JCA1,7*%
%TO.N,UART_RS-RLEG_TX*%
X39750000Y-39950000D03*
%TO.P,JCA1,8*%
%TO.N,UART_RS-RLEG_RX*%
X41000000Y-39950000D03*
%TO.P,JCA1,9*%
%TO.N,UART_RS-RLEG_DIR*%
X42250000Y-39950000D03*
%TO.P,JCA1,10*%
%TO.N,UART_RS-LARM_TX*%
X43500000Y-39950000D03*
%TO.P,JCA1,11*%
%TO.N,UART_RS-LARM_RX*%
X44750000Y-39950000D03*
%TO.P,JCA1,12*%
%TO.N,UART_RS-LARM_DIR*%
X46000000Y-39950000D03*
%TO.P,JCA1,13*%
%TO.N,UART_RS-RARM_TX*%
X47250000Y-39950000D03*
%TO.P,JCA1,14*%
%TO.N,UART_RS-RARM_RX*%
X48500000Y-39950000D03*
%TO.P,JCA1,15*%
%TO.N,UART_RS-RARM_DIR*%
X49750000Y-39950000D03*
D12*
%TO.P,JCA1,MP*%
%TO.N,N/C*%
X30400000Y-36600000D03*
X51600000Y-36600000D03*
%TD*%
D10*
%TO.P,U103,1*%
%TO.N,CTRL_3V3*%
X45285000Y-24650000D03*
%TO.P,U103,2*%
%TO.N,UART_RS-LARM_TX*%
X46555000Y-24650000D03*
%TO.P,U103,3*%
%TO.N,UART_RS-LARM_DIR*%
X47825000Y-24650000D03*
%TO.P,U103,4*%
%TO.N,UART_RS-LARM_RX*%
X49095000Y-24650000D03*
%TO.P,U103,5*%
%TO.N,UART_RS-LARM_DIR*%
X50365000Y-24650000D03*
%TO.P,U103,6*%
%TO.N,CTRL_GND*%
X51635000Y-24650000D03*
%TO.P,U103,7*%
%TO.N,N/C*%
X52905000Y-24650000D03*
%TO.P,U103,8*%
X54175000Y-24650000D03*
%TO.P,U103,9*%
%TO.N,CTRL_5V*%
X55445000Y-24650000D03*
%TO.P,U103,10*%
%TO.N,CTRL_GND*%
X56715000Y-24650000D03*
%TO.P,U103,11*%
%TO.N,RS-LARM_GND2*%
X56715000Y-15350000D03*
%TO.P,U103,12*%
%TO.N,RS-LARM_VISOOUT*%
X55445000Y-15350000D03*
%TO.P,U103,13*%
%TO.N,RS-LARM_GND2*%
X54175000Y-15350000D03*
%TO.P,U103,14*%
%TO.N,RS-LARM_RET*%
X52905000Y-15350000D03*
%TO.P,U103,15*%
X51635000Y-15350000D03*
%TO.P,U103,16*%
%TO.N,RS-LARM_VISOIN*%
X50365000Y-15350000D03*
%TO.P,U103,17*%
%TO.N,RS-LARM_DP*%
X49095000Y-15350000D03*
%TO.P,U103,18*%
%TO.N,RS-LARM_DN*%
X47825000Y-15350000D03*
%TO.P,U103,19*%
X46555000Y-15350000D03*
%TO.P,U103,20*%
%TO.N,RS-LARM_DP*%
X45285000Y-15350000D03*
%TD*%
D11*
%TO.P,J101,1*%
%TO.N,RS-LLEG_RET*%
X9750000Y-5950000D03*
%TO.P,J101,2*%
%TO.N,RS-LLEG_DP*%
X11000000Y-5950000D03*
%TO.P,J101,3*%
%TO.N,RS-LLEG_DN*%
X12250000Y-5950000D03*
D12*
%TO.P,J101,MP*%
%TO.N,N/C*%
X7900000Y-2600000D03*
X14100000Y-2600000D03*
%TD*%
D13*
%TO.N,CTRL_3V3*%
X66575000Y-30035000D03*
X66500000Y-29500000D03*
X26575000Y-30035000D03*
X6575000Y-30154999D03*
X46575000Y-30154999D03*
X44625000Y-24650000D03*
X34750000Y-39150000D03*
X24625000Y-24650000D03*
X64625000Y-24650000D03*
X4625000Y-24650000D03*
%TO.N,CTRL_5V*%
X56975000Y-30154999D03*
X57500000Y-30000000D03*
X31775000Y-30154999D03*
X76975000Y-30035000D03*
X33500000Y-39150000D03*
X16975000Y-30154999D03*
X55445000Y-26034999D03*
X71775000Y-30154999D03*
X15445000Y-26034999D03*
X35445000Y-26034999D03*
X36975000Y-30035000D03*
X11775000Y-30035000D03*
X75445000Y-26034999D03*
X51775000Y-30035000D03*
%TO.N,CTRL_GND*%
X15425000Y-30154999D03*
X31635000Y-26034999D03*
X75425000Y-30035000D03*
X45025000Y-30154999D03*
X17375000Y-24650000D03*
X51635000Y-26034999D03*
X55425000Y-30154999D03*
X77375000Y-24650000D03*
X5025000Y-30154999D03*
X70225000Y-30154999D03*
X10225000Y-30035000D03*
X50225000Y-30035000D03*
X65025000Y-30035000D03*
X30225000Y-30154999D03*
X57375000Y-24650000D03*
X71635000Y-26034999D03*
X35425000Y-30035000D03*
X25025000Y-30035000D03*
X37375000Y-24650000D03*
X32250000Y-39150000D03*
X11635000Y-26034999D03*
%TO.N,RS-LARM_DN*%
X47825000Y-13965000D03*
X52250000Y-6750000D03*
X48750000Y-8610000D03*
X56737500Y-9110000D03*
X46555000Y-13965000D03*
%TO.N,RS-LARM_DP*%
X46625000Y-8455000D03*
X49095000Y-13965000D03*
X44625000Y-15350000D03*
X56737500Y-7210000D03*
X51000000Y-6750000D03*
%TO.N,RS-LARM_GND2*%
X55225000Y-10165000D03*
X54175000Y-13965000D03*
X55885000Y-13200000D03*
X57375000Y-15350000D03*
%TO.N,RS-LARM_RET*%
X54862500Y-8160000D03*
X51635000Y-13965000D03*
X50225000Y-10045000D03*
X51550000Y-9550000D03*
X52905000Y-12865000D03*
X54915000Y-13200000D03*
%TO.N,RS-LARM_TERM*%
X44975000Y-8455000D03*
X50000000Y-8000000D03*
X50050000Y-8610000D03*
%TO.N,RS-LARM_VISOIN*%
X52515000Y-13200000D03*
X50365000Y-13965000D03*
X51775000Y-10045000D03*
%TO.N,RS-LARM_VISOOUT*%
X55445000Y-12865000D03*
X57000000Y-11000000D03*
X53485000Y-13200000D03*
X56775000Y-10165000D03*
%TO.N,RS-LLEG_DN*%
X12250000Y-6750000D03*
X7825000Y-13965000D03*
X6555000Y-13965000D03*
X8750000Y-8610000D03*
X16737500Y-9110000D03*
%TO.N,RS-LLEG_DP*%
X9095000Y-13965000D03*
X4625000Y-15350000D03*
X11000000Y-6750000D03*
X16737500Y-7210000D03*
X6625000Y-8455000D03*
%TO.N,RS-LLEG_GND2*%
X14175000Y-13965000D03*
X15225000Y-10165000D03*
X15885000Y-13200000D03*
X17375000Y-15350000D03*
%TO.N,RS-LLEG_RET*%
X12905000Y-12865000D03*
X14862500Y-8160000D03*
X11635000Y-13965000D03*
X14915000Y-13200000D03*
X10225000Y-10045000D03*
X11550000Y-9550000D03*
%TO.N,RS-LLEG_TERM*%
X4975000Y-8455000D03*
X10000000Y-8000000D03*
X10050000Y-8610000D03*
%TO.N,RS-LLEG_VISOIN*%
X11775000Y-10045000D03*
X12515000Y-12540000D03*
X10365000Y-13965000D03*
%TO.N,RS-LLEG_VISOOUT*%
X15445000Y-12865000D03*
X17000000Y-11000000D03*
X16774999Y-10165000D03*
X13485000Y-13200000D03*
%TO.N,RS-RARM_DN*%
X66555000Y-13965000D03*
X67825000Y-13965000D03*
X76737500Y-9229999D03*
X68750000Y-8730000D03*
X72250000Y-6750000D03*
%TO.N,RS-RARM_DP*%
X64625000Y-15350000D03*
X71000000Y-6750000D03*
X66625000Y-8335000D03*
X69095000Y-13965000D03*
X76737500Y-7330000D03*
%TO.N,RS-RARM_GND2*%
X75885000Y-13320000D03*
X77375000Y-15350000D03*
X74175000Y-13965000D03*
X75225000Y-10045000D03*
%TO.N,RS-RARM_RET*%
X71635000Y-13965000D03*
X74862500Y-8279999D03*
X70225000Y-10165000D03*
X74915000Y-13320000D03*
X72905000Y-12865000D03*
X71550000Y-9550000D03*
%TO.N,RS-RARM_TERM*%
X70000000Y-8000000D03*
X70050000Y-8730000D03*
X64974999Y-8335000D03*
%TO.N,RS-RARM_VISOIN*%
X72515000Y-13320000D03*
X70365000Y-13965000D03*
X71775000Y-10165000D03*
%TO.N,RS-RARM_VISOOUT*%
X73485000Y-13320000D03*
X77000000Y-10500000D03*
X75445000Y-13085000D03*
X76775000Y-10045000D03*
%TO.N,RS-RLEG_DN*%
X27825000Y-13965000D03*
X26555000Y-13965000D03*
X28750000Y-8730000D03*
X36737500Y-9229999D03*
X32250000Y-6750000D03*
%TO.N,RS-RLEG_DP*%
X24625000Y-15350000D03*
X31000000Y-6750000D03*
X36737500Y-7330000D03*
X26625000Y-8335000D03*
X29095000Y-13965000D03*
%TO.N,RS-RLEG_GND2*%
X35225000Y-10045000D03*
X37375000Y-15350000D03*
X35885000Y-13320000D03*
X34175000Y-13965000D03*
%TO.N,RS-RLEG_RET*%
X34915000Y-13320000D03*
X31550000Y-9550000D03*
X30225000Y-10165000D03*
X34862500Y-8279999D03*
X32905000Y-12865000D03*
X31635000Y-13965000D03*
%TO.N,RS-RLEG_TERM*%
X30050000Y-8730000D03*
X24975000Y-8335000D03*
X30000000Y-8000000D03*
%TO.N,RS-RLEG_VISOIN*%
X31775000Y-10165000D03*
X30365000Y-13965000D03*
X32515000Y-13320000D03*
%TO.N,RS-RLEG_VISOOUT*%
X35445000Y-13085000D03*
X33485000Y-13320000D03*
X36775000Y-10045000D03*
X37000000Y-10500000D03*
%TO.N,UART_RS-LARM_DIR*%
X50365000Y-26034999D03*
X48000000Y-26500000D03*
X46000000Y-39150000D03*
X47825000Y-26034999D03*
%TO.N,UART_RS-LARM_RX*%
X44750000Y-39150000D03*
X49095000Y-26034999D03*
X49000000Y-25500000D03*
%TO.N,UART_RS-LARM_TX*%
X45500000Y-26000000D03*
X43500000Y-39150000D03*
X46555000Y-26034999D03*
%TO.N,UART_RS-LLEG_DIR*%
X10500000Y-26500000D03*
X7825000Y-26034999D03*
X10365000Y-26034999D03*
X38500000Y-39150000D03*
%TO.N,UART_RS-LLEG_RX*%
X8500000Y-26000000D03*
X9095000Y-26034999D03*
X37250000Y-39150000D03*
%TO.N,UART_RS-LLEG_TX*%
X6555000Y-26034999D03*
X7000000Y-26500000D03*
X36000000Y-39150000D03*
%TO.N,UART_RS-RARM_DIR*%
X67825000Y-26034999D03*
X70365000Y-26034999D03*
X49750000Y-39150000D03*
X68000000Y-26500000D03*
%TO.N,UART_RS-RARM_RX*%
X69095000Y-26034999D03*
X68500000Y-26000000D03*
X48500000Y-39150000D03*
%TO.N,UART_RS-RARM_TX*%
X47250000Y-39150000D03*
X66500000Y-25500000D03*
X66555000Y-26034999D03*
%TO.N,UART_RS-RLEG_DIR*%
X27825000Y-26034999D03*
X42250000Y-39150000D03*
X30500000Y-26500000D03*
X30365000Y-26034999D03*
%TO.N,UART_RS-RLEG_RX*%
X29095000Y-26034999D03*
X41000000Y-39150000D03*
X29000000Y-25500000D03*
X32500000Y-31000000D03*
%TO.N,UART_RS-RLEG_TX*%
X34000000Y-30500000D03*
X39750000Y-39150000D03*
X26555000Y-26034999D03*
X26500000Y-25500000D03*
%TD*%
%TO.N,CTRL_3V3*%
D14*
X5285000Y-24650000D02*
X4625000Y-24650000D01*
X65285000Y-24650000D02*
X64625000Y-24650000D01*
X34750000Y-39950000D02*
X34750000Y-39150000D01*
X45285000Y-24650000D02*
X44625000Y-24650000D01*
X25285000Y-24650000D02*
X24625000Y-24650000D01*
%TO.N,CTRL_5V*%
X33500000Y-39950000D02*
X33500000Y-39150000D01*
X15445000Y-24650000D02*
X15445000Y-26034999D01*
X35445000Y-24650000D02*
X35445000Y-26034999D01*
X55445000Y-24650000D02*
X55445000Y-26034999D01*
X75445000Y-24650000D02*
X75445000Y-26034999D01*
%TO.N,CTRL_GND*%
X36715000Y-24650000D02*
X37375000Y-24650000D01*
X71635000Y-24650000D02*
X71635000Y-26034999D01*
X11635000Y-24650000D02*
X11635000Y-26034999D01*
X16715000Y-24650000D02*
X17375000Y-24650000D01*
X51635000Y-24650000D02*
X51635000Y-26034999D01*
X76715000Y-24650000D02*
X77375000Y-24650000D01*
X56715000Y-24650000D02*
X57375000Y-24650000D01*
X32250000Y-39950000D02*
X32250000Y-39150000D01*
X31635000Y-24650000D02*
X31635000Y-26034999D01*
%TO.N,RS-LARM_DN*%
D15*
X46555000Y-15350000D02*
X46555000Y-13965000D01*
X47825000Y-15350000D02*
X47825000Y-13965000D01*
X52250000Y-5950000D02*
X52250000Y-6750000D01*
%TO.N,RS-LARM_DP*%
X51000000Y-5950000D02*
X51000000Y-6750000D01*
X45285000Y-15350000D02*
X44625000Y-15350000D01*
X49095000Y-15350000D02*
X49095000Y-13965000D01*
%TO.N,RS-LARM_GND2*%
D14*
X54175000Y-15350000D02*
X54175000Y-13965000D01*
X56715000Y-15350000D02*
X57375000Y-15350000D01*
%TO.N,RS-LARM_RET*%
X52905000Y-15350000D02*
X52905000Y-12865000D01*
X49750000Y-5950000D02*
X51550000Y-9550000D01*
X51635000Y-15350000D02*
X51635000Y-13965000D01*
%TO.N,RS-LARM_VISOIN*%
X50365000Y-15350000D02*
X50365000Y-13965000D01*
%TO.N,RS-LARM_VISOOUT*%
X55445000Y-15350000D02*
X55445000Y-12865000D01*
%TO.N,RS-LLEG_DN*%
D15*
X7825000Y-15350000D02*
X7825000Y-13965000D01*
X12250000Y-5950000D02*
X12250000Y-6750000D01*
X6555000Y-15350000D02*
X6555000Y-13965000D01*
%TO.N,RS-LLEG_DP*%
X11000000Y-5950000D02*
X11000000Y-6750000D01*
X9095000Y-15350000D02*
X9095000Y-13965000D01*
X5285000Y-15350000D02*
X4625000Y-15350000D01*
%TO.N,RS-LLEG_GND2*%
D14*
X16715000Y-15350000D02*
X17375000Y-15350000D01*
X14175000Y-15350000D02*
X14175000Y-13965000D01*
%TO.N,RS-LLEG_RET*%
X11635000Y-15350000D02*
X11635000Y-13965000D01*
X9750000Y-5950000D02*
X11550000Y-9550000D01*
X12905000Y-15350000D02*
X12905000Y-12865000D01*
%TO.N,RS-LLEG_VISOIN*%
X10365000Y-15350000D02*
X10365000Y-13965000D01*
%TO.N,RS-LLEG_VISOOUT*%
X15445000Y-15350000D02*
X15445000Y-12865000D01*
%TO.N,RS-RARM_DN*%
D15*
X67825000Y-15350000D02*
X67825000Y-13965000D01*
X66555000Y-15350000D02*
X66555000Y-13965000D01*
X72250000Y-5950000D02*
X72250000Y-6750000D01*
%TO.N,RS-RARM_DP*%
X65285000Y-15350000D02*
X64625000Y-15350000D01*
X69095000Y-15350000D02*
X69095000Y-13965000D01*
X71000000Y-5950000D02*
X71000000Y-6750000D01*
%TO.N,RS-RARM_GND2*%
D14*
X74175000Y-15350000D02*
X74175000Y-13965000D01*
X76715000Y-15350000D02*
X77375000Y-15350000D01*
%TO.N,RS-RARM_RET*%
X72905000Y-15350000D02*
X72905000Y-12865000D01*
X69750000Y-5950000D02*
X71550000Y-9550000D01*
X71635000Y-15350000D02*
X71635000Y-13965000D01*
%TO.N,RS-RARM_VISOIN*%
X70365000Y-15350000D02*
X70365000Y-13965000D01*
%TO.N,RS-RARM_VISOOUT*%
X75445000Y-15350000D02*
X75445000Y-13085000D01*
%TO.N,RS-RLEG_DN*%
D15*
X32250000Y-5950000D02*
X32250000Y-6750000D01*
X27825000Y-15350000D02*
X27825000Y-13965000D01*
X26555000Y-15350000D02*
X26555000Y-13965000D01*
%TO.N,RS-RLEG_DP*%
X29095000Y-15350000D02*
X29095000Y-13965000D01*
X25285000Y-15350000D02*
X24625000Y-15350000D01*
X31000000Y-5950000D02*
X31000000Y-6750000D01*
%TO.N,RS-RLEG_GND2*%
D14*
X34175000Y-15350000D02*
X34175000Y-13965000D01*
X36715000Y-15350000D02*
X37375000Y-15350000D01*
%TO.N,RS-RLEG_RET*%
X29750000Y-5950000D02*
X31550000Y-9550000D01*
X32905000Y-15350000D02*
X32905000Y-12865000D01*
X31635000Y-15350000D02*
X31635000Y-13965000D01*
%TO.N,RS-RLEG_VISOIN*%
X30365000Y-15350000D02*
X30365000Y-13965000D01*
%TO.N,RS-RLEG_VISOOUT*%
X35445000Y-15350000D02*
X35445000Y-13085000D01*
%TO.N,UART_RS-LARM_DIR*%
D15*
X46000000Y-39950000D02*
X46000000Y-39150000D01*
X47825000Y-24650000D02*
X47825000Y-26034999D01*
X50365000Y-24650000D02*
X50365000Y-26034999D01*
%TO.N,UART_RS-LARM_RX*%
X49095000Y-24650000D02*
X49095000Y-26034999D01*
X44750000Y-39950000D02*
X44750000Y-39150000D01*
%TO.N,UART_RS-LARM_TX*%
X43500000Y-39950000D02*
X43500000Y-39150000D01*
X46555000Y-24650000D02*
X46555000Y-26034999D01*
%TO.N,UART_RS-LLEG_DIR*%
X38500000Y-39950000D02*
X38500000Y-39150000D01*
X7825000Y-24650000D02*
X7825000Y-26034999D01*
X10365000Y-24650000D02*
X10365000Y-26034999D01*
%TO.N,UART_RS-LLEG_RX*%
X37250000Y-39950000D02*
X37250000Y-39150000D01*
X9095000Y-24650000D02*
X9095000Y-26034999D01*
%TO.N,UART_RS-LLEG_TX*%
X6555000Y-24650000D02*
X6555000Y-26034999D01*
X36000000Y-39950000D02*
X36000000Y-39150000D01*
%TO.N,UART_RS-RARM_DIR*%
X70365000Y-24650000D02*
X70365000Y-26034999D01*
X49750000Y-39950000D02*
X49750000Y-39150000D01*
X67825000Y-24650000D02*
X67825000Y-26034999D01*
%TO.N,UART_RS-RARM_RX*%
X48500000Y-39950000D02*
X48500000Y-39150000D01*
X69095000Y-24650000D02*
X69095000Y-26034999D01*
%TO.N,UART_RS-RARM_TX*%
X47250000Y-39950000D02*
X47250000Y-39150000D01*
X66555000Y-24650000D02*
X66555000Y-26034999D01*
%TO.N,UART_RS-RLEG_DIR*%
X30365000Y-24650000D02*
X30365000Y-26034999D01*
X27825000Y-24650000D02*
X27825000Y-26034999D01*
X42250000Y-39950000D02*
X42250000Y-39150000D01*
%TO.N,UART_RS-RLEG_RX*%
X29095000Y-24650000D02*
X29095000Y-26034999D01*
X41000000Y-39950000D02*
X41000000Y-39150000D01*
%TO.N,UART_RS-RLEG_TX*%
X39750000Y-39950000D02*
X39750000Y-39150000D01*
X26555000Y-24650000D02*
X26555000Y-26034999D01*
%TD*%
M02*
