%TF.GenerationSoftware,KiCad,Pcbnew,10.0.5*%
%TF.CreationDate,2026-08-15T20:59:52-04:00*%
%TF.ProjectId,hr30-carrier-a-p0.1,68723330-2d63-4617-9272-6965722d612d,rev?*%
%TF.SameCoordinates,Original*%
%TF.FileFunction,Legend,Top*%
%TF.FilePolarity,Positive*%
%FSLAX46Y46*%
G04 Gerber Fmt 4.6, Leading zero omitted, Abs format (unit mm)*
G04 Created by KiCad (PCBNEW 10.0.5) date 2026-08-15 20:59:52*
%MOMM*%
%LPD*%
G01*
G04 APERTURE LIST*
%ADD10C,0.120000*%
G04 APERTURE END LIST*
%TO.C,J102*%
D10*
X27390000Y-4260000D02*
X27390000Y-5860000D01*
X27390000Y-5860000D02*
X29190000Y-5860000D01*
X28660000Y-1390000D02*
X33340000Y-1390000D01*
X29190000Y-5860000D02*
X29190000Y-6800000D01*
X34610000Y-4260000D02*
X34610000Y-5860000D01*
X34610000Y-5860000D02*
X32810000Y-5860000D01*
%TO.C,JCA1*%
X29890000Y-38260000D02*
X29890000Y-39860000D01*
X29890000Y-39860000D02*
X31690000Y-39860000D01*
X31160000Y-35390000D02*
X50840000Y-35390000D01*
X31690000Y-39860000D02*
X31690000Y-40800000D01*
X52110000Y-38260000D02*
X52110000Y-39860000D01*
X52110000Y-39860000D02*
X50310000Y-39860000D01*
%TO.C,J104*%
X67390000Y-4260000D02*
X67390000Y-5860000D01*
X67390000Y-5860000D02*
X69190000Y-5860000D01*
X68660000Y-1390000D02*
X73340000Y-1390000D01*
X69190000Y-5860000D02*
X69190000Y-6800000D01*
X74610000Y-4260000D02*
X74610000Y-5860000D01*
X74610000Y-5860000D02*
X72810000Y-5860000D01*
%TO.C,U102*%
X24490000Y-16140000D02*
X24725000Y-16140000D01*
X24490000Y-23860000D02*
X24490000Y-16140000D01*
X24725000Y-23860000D02*
X24490000Y-23860000D01*
X37275000Y-16140000D02*
X37510000Y-16140000D01*
X37510000Y-16140000D02*
X37510000Y-23860000D01*
X37510000Y-23860000D02*
X37275000Y-23860000D01*
X24720000Y-24650000D02*
X24250000Y-24990000D01*
X24250000Y-24310000D01*
X24720000Y-24650000D01*
G36*
X24720000Y-24650000D02*
G01*
X24250000Y-24990000D01*
X24250000Y-24310000D01*
X24720000Y-24650000D01*
G37*
%TO.C,U101*%
X4490000Y-16140000D02*
X4725000Y-16140000D01*
X4490000Y-23860000D02*
X4490000Y-16140000D01*
X4725000Y-23860000D02*
X4490000Y-23860000D01*
X17275000Y-16140000D02*
X17510000Y-16140000D01*
X17510000Y-16140000D02*
X17510000Y-23860000D01*
X17510000Y-23860000D02*
X17275000Y-23860000D01*
X4720000Y-24650000D02*
X4250000Y-24990000D01*
X4250000Y-24310000D01*
X4720000Y-24650000D01*
G36*
X4720000Y-24650000D02*
G01*
X4250000Y-24990000D01*
X4250000Y-24310000D01*
X4720000Y-24650000D01*
G37*
%TO.C,U103*%
X44490000Y-16140000D02*
X44725000Y-16140000D01*
X44490000Y-23860000D02*
X44490000Y-16140000D01*
X44725000Y-23860000D02*
X44490000Y-23860000D01*
X57275000Y-16140000D02*
X57510000Y-16140000D01*
X57510000Y-16140000D02*
X57510000Y-23860000D01*
X57510000Y-23860000D02*
X57275000Y-23860000D01*
X44720000Y-24650000D02*
X44250000Y-24990000D01*
X44250000Y-24310000D01*
X44720000Y-24650000D01*
G36*
X44720000Y-24650000D02*
G01*
X44250000Y-24990000D01*
X44250000Y-24310000D01*
X44720000Y-24650000D01*
G37*
%TO.C,J101*%
X7390000Y-4260000D02*
X7390000Y-5860000D01*
X7390000Y-5860000D02*
X9190000Y-5860000D01*
X8660000Y-1390000D02*
X13340000Y-1390000D01*
X9190000Y-5860000D02*
X9190000Y-6800000D01*
X14610000Y-4260000D02*
X14610000Y-5860000D01*
X14610000Y-5860000D02*
X12810000Y-5860000D01*
%TO.C,U104*%
X64490000Y-16140000D02*
X64725000Y-16140000D01*
X64490000Y-23860000D02*
X64490000Y-16140000D01*
X64725000Y-23860000D02*
X64490000Y-23860000D01*
X77275000Y-16140000D02*
X77510000Y-16140000D01*
X77510000Y-16140000D02*
X77510000Y-23860000D01*
X77510000Y-23860000D02*
X77275000Y-23860000D01*
X64720000Y-24650000D02*
X64250000Y-24990000D01*
X64250000Y-24310000D01*
X64720000Y-24650000D01*
G36*
X64720000Y-24650000D02*
G01*
X64250000Y-24990000D01*
X64250000Y-24310000D01*
X64720000Y-24650000D01*
G37*
%TO.C,J103*%
X47390000Y-4260000D02*
X47390000Y-5860000D01*
X47390000Y-5860000D02*
X49190000Y-5860000D01*
X48660000Y-1390000D02*
X53340000Y-1390000D01*
X49190000Y-5860000D02*
X49190000Y-6800000D01*
X54610000Y-4260000D02*
X54610000Y-5860000D01*
X54610000Y-5860000D02*
X52810000Y-5860000D01*
%TD*%
M02*
