%TF.GenerationSoftware,KiCad,Pcbnew,10.0.5*%
%TF.CreationDate,2026-08-18T10:38:18-04:00*%
%TF.ProjectId,hr30-carrier-a-p0.1,68723330-2d63-4617-9272-6965722d612d,rev?*%
%TF.SameCoordinates,Original*%
%TF.FileFunction,Soldermask,Bot*%
%TF.FilePolarity,Negative*%
%FSLAX46Y46*%
G04 Gerber Fmt 4.6, Leading zero omitted, Abs format (unit mm)*
G04 Created by KiCad (PCBNEW 10.0.5) date 2026-08-18 10:38:18*
%MOMM*%
%LPD*%
G01*
G04 APERTURE LIST*
G04 APERTURE END LIST*
G36*
X5336104Y-28742127D02*
G01*
X5409099Y-28790901D01*
X5457873Y-28863896D01*
X5475000Y-28950000D01*
X5475000Y-29450000D01*
X5457873Y-29536104D01*
X5409099Y-29609099D01*
X5336104Y-29657873D01*
X5250000Y-29675000D01*
X4800000Y-29675000D01*
X4713896Y-29657873D01*
X4640901Y-29609099D01*
X4592127Y-29536104D01*
X4575000Y-29450000D01*
X4575000Y-28950000D01*
X4592127Y-28863896D01*
X4640901Y-28790901D01*
X4713896Y-28742127D01*
X4800000Y-28725000D01*
X5250000Y-28725000D01*
X5336104Y-28742127D01*
G37*
G36*
X6886104Y-28742127D02*
G01*
X6959099Y-28790901D01*
X7007873Y-28863896D01*
X7025000Y-28950000D01*
X7025000Y-29450000D01*
X7007873Y-29536104D01*
X6959099Y-29609099D01*
X6886104Y-29657873D01*
X6800000Y-29675000D01*
X6350000Y-29675000D01*
X6263896Y-29657873D01*
X6190901Y-29609099D01*
X6142127Y-29536104D01*
X6125000Y-29450000D01*
X6125000Y-28950000D01*
X6142127Y-28863896D01*
X6190901Y-28790901D01*
X6263896Y-28742127D01*
X6350000Y-28725000D01*
X6800000Y-28725000D01*
X6886104Y-28742127D01*
G37*
G36*
X10536104Y-28742127D02*
G01*
X10609099Y-28790901D01*
X10657873Y-28863896D01*
X10675000Y-28950000D01*
X10675000Y-29450000D01*
X10657873Y-29536104D01*
X10609099Y-29609099D01*
X10536104Y-29657873D01*
X10450000Y-29675000D01*
X10000000Y-29675000D01*
X9913896Y-29657873D01*
X9840901Y-29609099D01*
X9792127Y-29536104D01*
X9775000Y-29450000D01*
X9775000Y-28950000D01*
X9792127Y-28863896D01*
X9840901Y-28790901D01*
X9913896Y-28742127D01*
X10000000Y-28725000D01*
X10450000Y-28725000D01*
X10536104Y-28742127D01*
G37*
G36*
X12086104Y-28742127D02*
G01*
X12159099Y-28790901D01*
X12207873Y-28863896D01*
X12225000Y-28950000D01*
X12225000Y-29450000D01*
X12207873Y-29536104D01*
X12159099Y-29609099D01*
X12086104Y-29657873D01*
X12000000Y-29675000D01*
X11550000Y-29675000D01*
X11463896Y-29657873D01*
X11390901Y-29609099D01*
X11342127Y-29536104D01*
X11325000Y-29450000D01*
X11325000Y-28950000D01*
X11342127Y-28863896D01*
X11390901Y-28790901D01*
X11463896Y-28742127D01*
X11550000Y-28725000D01*
X12000000Y-28725000D01*
X12086104Y-28742127D01*
G37*
G36*
X15736104Y-28742127D02*
G01*
X15809099Y-28790901D01*
X15857873Y-28863896D01*
X15875000Y-28950000D01*
X15875000Y-29450000D01*
X15857873Y-29536104D01*
X15809099Y-29609099D01*
X15736104Y-29657873D01*
X15650000Y-29675000D01*
X15200000Y-29675000D01*
X15113896Y-29657873D01*
X15040901Y-29609099D01*
X14992127Y-29536104D01*
X14975000Y-29450000D01*
X14975000Y-28950000D01*
X14992127Y-28863896D01*
X15040901Y-28790901D01*
X15113896Y-28742127D01*
X15200000Y-28725000D01*
X15650000Y-28725000D01*
X15736104Y-28742127D01*
G37*
G36*
X17286104Y-28742127D02*
G01*
X17359099Y-28790901D01*
X17407873Y-28863896D01*
X17425000Y-28950000D01*
X17425000Y-29450000D01*
X17407873Y-29536104D01*
X17359099Y-29609099D01*
X17286104Y-29657873D01*
X17200000Y-29675000D01*
X16750000Y-29675000D01*
X16663896Y-29657873D01*
X16590901Y-29609099D01*
X16542127Y-29536104D01*
X16525000Y-29450000D01*
X16525000Y-28950000D01*
X16542127Y-28863896D01*
X16590901Y-28790901D01*
X16663896Y-28742127D01*
X16750000Y-28725000D01*
X17200000Y-28725000D01*
X17286104Y-28742127D01*
G37*
G36*
X25336104Y-28742127D02*
G01*
X25409099Y-28790901D01*
X25457873Y-28863896D01*
X25475000Y-28950000D01*
X25475000Y-29450000D01*
X25457873Y-29536104D01*
X25409099Y-29609099D01*
X25336104Y-29657873D01*
X25250000Y-29675000D01*
X24800000Y-29675000D01*
X24713896Y-29657873D01*
X24640901Y-29609099D01*
X24592127Y-29536104D01*
X24575000Y-29450000D01*
X24575000Y-28950000D01*
X24592127Y-28863896D01*
X24640901Y-28790901D01*
X24713896Y-28742127D01*
X24800000Y-28725000D01*
X25250000Y-28725000D01*
X25336104Y-28742127D01*
G37*
G36*
X26886104Y-28742127D02*
G01*
X26959099Y-28790901D01*
X27007873Y-28863896D01*
X27025000Y-28950000D01*
X27025000Y-29450000D01*
X27007873Y-29536104D01*
X26959099Y-29609099D01*
X26886104Y-29657873D01*
X26800000Y-29675000D01*
X26350000Y-29675000D01*
X26263896Y-29657873D01*
X26190901Y-29609099D01*
X26142127Y-29536104D01*
X26125000Y-29450000D01*
X26125000Y-28950000D01*
X26142127Y-28863896D01*
X26190901Y-28790901D01*
X26263896Y-28742127D01*
X26350000Y-28725000D01*
X26800000Y-28725000D01*
X26886104Y-28742127D01*
G37*
G36*
X30536104Y-28742127D02*
G01*
X30609099Y-28790901D01*
X30657873Y-28863896D01*
X30675000Y-28950000D01*
X30675000Y-29450000D01*
X30657873Y-29536104D01*
X30609099Y-29609099D01*
X30536104Y-29657873D01*
X30450000Y-29675000D01*
X30000000Y-29675000D01*
X29913896Y-29657873D01*
X29840901Y-29609099D01*
X29792127Y-29536104D01*
X29775000Y-29450000D01*
X29775000Y-28950000D01*
X29792127Y-28863896D01*
X29840901Y-28790901D01*
X29913896Y-28742127D01*
X30000000Y-28725000D01*
X30450000Y-28725000D01*
X30536104Y-28742127D01*
G37*
G36*
X32086104Y-28742127D02*
G01*
X32159099Y-28790901D01*
X32207873Y-28863896D01*
X32225000Y-28950000D01*
X32225000Y-29450000D01*
X32207873Y-29536104D01*
X32159099Y-29609099D01*
X32086104Y-29657873D01*
X32000000Y-29675000D01*
X31550000Y-29675000D01*
X31463896Y-29657873D01*
X31390901Y-29609099D01*
X31342127Y-29536104D01*
X31325000Y-29450000D01*
X31325000Y-28950000D01*
X31342127Y-28863896D01*
X31390901Y-28790901D01*
X31463896Y-28742127D01*
X31550000Y-28725000D01*
X32000000Y-28725000D01*
X32086104Y-28742127D01*
G37*
G36*
X35736104Y-28742127D02*
G01*
X35809099Y-28790901D01*
X35857873Y-28863896D01*
X35875000Y-28950000D01*
X35875000Y-29450000D01*
X35857873Y-29536104D01*
X35809099Y-29609099D01*
X35736104Y-29657873D01*
X35650000Y-29675000D01*
X35200000Y-29675000D01*
X35113896Y-29657873D01*
X35040901Y-29609099D01*
X34992127Y-29536104D01*
X34975000Y-29450000D01*
X34975000Y-28950000D01*
X34992127Y-28863896D01*
X35040901Y-28790901D01*
X35113896Y-28742127D01*
X35200000Y-28725000D01*
X35650000Y-28725000D01*
X35736104Y-28742127D01*
G37*
G36*
X37286104Y-28742127D02*
G01*
X37359099Y-28790901D01*
X37407873Y-28863896D01*
X37425000Y-28950000D01*
X37425000Y-29450000D01*
X37407873Y-29536104D01*
X37359099Y-29609099D01*
X37286104Y-29657873D01*
X37200000Y-29675000D01*
X36750000Y-29675000D01*
X36663896Y-29657873D01*
X36590901Y-29609099D01*
X36542127Y-29536104D01*
X36525000Y-29450000D01*
X36525000Y-28950000D01*
X36542127Y-28863896D01*
X36590901Y-28790901D01*
X36663896Y-28742127D01*
X36750000Y-28725000D01*
X37200000Y-28725000D01*
X37286104Y-28742127D01*
G37*
G36*
X45336104Y-28742127D02*
G01*
X45409099Y-28790901D01*
X45457873Y-28863896D01*
X45475000Y-28950000D01*
X45475000Y-29450000D01*
X45457873Y-29536104D01*
X45409099Y-29609099D01*
X45336104Y-29657873D01*
X45250000Y-29675000D01*
X44800000Y-29675000D01*
X44713896Y-29657873D01*
X44640901Y-29609099D01*
X44592127Y-29536104D01*
X44575000Y-29450000D01*
X44575000Y-28950000D01*
X44592127Y-28863896D01*
X44640901Y-28790901D01*
X44713896Y-28742127D01*
X44800000Y-28725000D01*
X45250000Y-28725000D01*
X45336104Y-28742127D01*
G37*
G36*
X46886104Y-28742127D02*
G01*
X46959099Y-28790901D01*
X47007873Y-28863896D01*
X47025000Y-28950000D01*
X47025000Y-29450000D01*
X47007873Y-29536104D01*
X46959099Y-29609099D01*
X46886104Y-29657873D01*
X46800000Y-29675000D01*
X46350000Y-29675000D01*
X46263896Y-29657873D01*
X46190901Y-29609099D01*
X46142127Y-29536104D01*
X46125000Y-29450000D01*
X46125000Y-28950000D01*
X46142127Y-28863896D01*
X46190901Y-28790901D01*
X46263896Y-28742127D01*
X46350000Y-28725000D01*
X46800000Y-28725000D01*
X46886104Y-28742127D01*
G37*
G36*
X50536104Y-28742127D02*
G01*
X50609099Y-28790901D01*
X50657873Y-28863896D01*
X50675000Y-28950000D01*
X50675000Y-29450000D01*
X50657873Y-29536104D01*
X50609099Y-29609099D01*
X50536104Y-29657873D01*
X50450000Y-29675000D01*
X50000000Y-29675000D01*
X49913896Y-29657873D01*
X49840901Y-29609099D01*
X49792127Y-29536104D01*
X49775000Y-29450000D01*
X49775000Y-28950000D01*
X49792127Y-28863896D01*
X49840901Y-28790901D01*
X49913896Y-28742127D01*
X50000000Y-28725000D01*
X50450000Y-28725000D01*
X50536104Y-28742127D01*
G37*
G36*
X52086104Y-28742127D02*
G01*
X52159099Y-28790901D01*
X52207873Y-28863896D01*
X52225000Y-28950000D01*
X52225000Y-29450000D01*
X52207873Y-29536104D01*
X52159099Y-29609099D01*
X52086104Y-29657873D01*
X52000000Y-29675000D01*
X51550000Y-29675000D01*
X51463896Y-29657873D01*
X51390901Y-29609099D01*
X51342127Y-29536104D01*
X51325000Y-29450000D01*
X51325000Y-28950000D01*
X51342127Y-28863896D01*
X51390901Y-28790901D01*
X51463896Y-28742127D01*
X51550000Y-28725000D01*
X52000000Y-28725000D01*
X52086104Y-28742127D01*
G37*
G36*
X55736104Y-28742127D02*
G01*
X55809099Y-28790901D01*
X55857873Y-28863896D01*
X55875000Y-28950000D01*
X55875000Y-29450000D01*
X55857873Y-29536104D01*
X55809099Y-29609099D01*
X55736104Y-29657873D01*
X55650000Y-29675000D01*
X55200000Y-29675000D01*
X55113896Y-29657873D01*
X55040901Y-29609099D01*
X54992127Y-29536104D01*
X54975000Y-29450000D01*
X54975000Y-28950000D01*
X54992127Y-28863896D01*
X55040901Y-28790901D01*
X55113896Y-28742127D01*
X55200000Y-28725000D01*
X55650000Y-28725000D01*
X55736104Y-28742127D01*
G37*
G36*
X57286104Y-28742127D02*
G01*
X57359099Y-28790901D01*
X57407873Y-28863896D01*
X57425000Y-28950000D01*
X57425000Y-29450000D01*
X57407873Y-29536104D01*
X57359099Y-29609099D01*
X57286104Y-29657873D01*
X57200000Y-29675000D01*
X56750000Y-29675000D01*
X56663896Y-29657873D01*
X56590901Y-29609099D01*
X56542127Y-29536104D01*
X56525000Y-29450000D01*
X56525000Y-28950000D01*
X56542127Y-28863896D01*
X56590901Y-28790901D01*
X56663896Y-28742127D01*
X56750000Y-28725000D01*
X57200000Y-28725000D01*
X57286104Y-28742127D01*
G37*
G36*
X65336104Y-28742127D02*
G01*
X65409099Y-28790901D01*
X65457873Y-28863896D01*
X65475000Y-28950000D01*
X65475000Y-29450000D01*
X65457873Y-29536104D01*
X65409099Y-29609099D01*
X65336104Y-29657873D01*
X65250000Y-29675000D01*
X64800000Y-29675000D01*
X64713896Y-29657873D01*
X64640901Y-29609099D01*
X64592127Y-29536104D01*
X64575000Y-29450000D01*
X64575000Y-28950000D01*
X64592127Y-28863896D01*
X64640901Y-28790901D01*
X64713896Y-28742127D01*
X64800000Y-28725000D01*
X65250000Y-28725000D01*
X65336104Y-28742127D01*
G37*
G36*
X66886104Y-28742127D02*
G01*
X66959099Y-28790901D01*
X67007873Y-28863896D01*
X67025000Y-28950000D01*
X67025000Y-29450000D01*
X67007873Y-29536104D01*
X66959099Y-29609099D01*
X66886104Y-29657873D01*
X66800000Y-29675000D01*
X66350000Y-29675000D01*
X66263896Y-29657873D01*
X66190901Y-29609099D01*
X66142127Y-29536104D01*
X66125000Y-29450000D01*
X66125000Y-28950000D01*
X66142127Y-28863896D01*
X66190901Y-28790901D01*
X66263896Y-28742127D01*
X66350000Y-28725000D01*
X66800000Y-28725000D01*
X66886104Y-28742127D01*
G37*
G36*
X70536104Y-28742127D02*
G01*
X70609099Y-28790901D01*
X70657873Y-28863896D01*
X70675000Y-28950000D01*
X70675000Y-29450000D01*
X70657873Y-29536104D01*
X70609099Y-29609099D01*
X70536104Y-29657873D01*
X70450000Y-29675000D01*
X70000000Y-29675000D01*
X69913896Y-29657873D01*
X69840901Y-29609099D01*
X69792127Y-29536104D01*
X69775000Y-29450000D01*
X69775000Y-28950000D01*
X69792127Y-28863896D01*
X69840901Y-28790901D01*
X69913896Y-28742127D01*
X70000000Y-28725000D01*
X70450000Y-28725000D01*
X70536104Y-28742127D01*
G37*
G36*
X72086104Y-28742127D02*
G01*
X72159099Y-28790901D01*
X72207873Y-28863896D01*
X72225000Y-28950000D01*
X72225000Y-29450000D01*
X72207873Y-29536104D01*
X72159099Y-29609099D01*
X72086104Y-29657873D01*
X72000000Y-29675000D01*
X71550000Y-29675000D01*
X71463896Y-29657873D01*
X71390901Y-29609099D01*
X71342127Y-29536104D01*
X71325000Y-29450000D01*
X71325000Y-28950000D01*
X71342127Y-28863896D01*
X71390901Y-28790901D01*
X71463896Y-28742127D01*
X71550000Y-28725000D01*
X72000000Y-28725000D01*
X72086104Y-28742127D01*
G37*
G36*
X75736104Y-28742127D02*
G01*
X75809099Y-28790901D01*
X75857873Y-28863896D01*
X75875000Y-28950000D01*
X75875000Y-29450000D01*
X75857873Y-29536104D01*
X75809099Y-29609099D01*
X75736104Y-29657873D01*
X75650000Y-29675000D01*
X75200000Y-29675000D01*
X75113896Y-29657873D01*
X75040901Y-29609099D01*
X74992127Y-29536104D01*
X74975000Y-29450000D01*
X74975000Y-28950000D01*
X74992127Y-28863896D01*
X75040901Y-28790901D01*
X75113896Y-28742127D01*
X75200000Y-28725000D01*
X75650000Y-28725000D01*
X75736104Y-28742127D01*
G37*
G36*
X77286104Y-28742127D02*
G01*
X77359099Y-28790901D01*
X77407873Y-28863896D01*
X77425000Y-28950000D01*
X77425000Y-29450000D01*
X77407873Y-29536104D01*
X77359099Y-29609099D01*
X77286104Y-29657873D01*
X77200000Y-29675000D01*
X76750000Y-29675000D01*
X76663896Y-29657873D01*
X76590901Y-29609099D01*
X76542127Y-29536104D01*
X76525000Y-29450000D01*
X76525000Y-28950000D01*
X76542127Y-28863896D01*
X76590901Y-28790901D01*
X76663896Y-28742127D01*
X76750000Y-28725000D01*
X77200000Y-28725000D01*
X77286104Y-28742127D01*
G37*
G36*
X12718946Y-13691228D02*
G01*
X12766798Y-13723202D01*
X12798772Y-13771054D01*
X12810000Y-13827500D01*
X12810000Y-14172500D01*
X12798772Y-14228946D01*
X12766798Y-14276798D01*
X12718946Y-14308772D01*
X12662500Y-14320000D01*
X12367500Y-14320000D01*
X12311054Y-14308772D01*
X12263202Y-14276798D01*
X12231228Y-14228946D01*
X12220000Y-14172500D01*
X12220000Y-13827500D01*
X12231228Y-13771054D01*
X12263202Y-13723202D01*
X12311054Y-13691228D01*
X12367500Y-13680000D01*
X12662500Y-13680000D01*
X12718946Y-13691228D01*
G37*
G36*
X13688946Y-13691228D02*
G01*
X13736798Y-13723202D01*
X13768772Y-13771054D01*
X13780000Y-13827500D01*
X13780000Y-14172500D01*
X13768772Y-14228946D01*
X13736798Y-14276798D01*
X13688946Y-14308772D01*
X13632500Y-14320000D01*
X13337500Y-14320000D01*
X13281054Y-14308772D01*
X13233202Y-14276798D01*
X13201228Y-14228946D01*
X13190000Y-14172500D01*
X13190000Y-13827500D01*
X13201228Y-13771054D01*
X13233202Y-13723202D01*
X13281054Y-13691228D01*
X13337500Y-13680000D01*
X13632500Y-13680000D01*
X13688946Y-13691228D01*
G37*
G36*
X15118946Y-13691228D02*
G01*
X15166798Y-13723202D01*
X15198772Y-13771054D01*
X15210000Y-13827500D01*
X15210000Y-14172500D01*
X15198772Y-14228946D01*
X15166798Y-14276798D01*
X15118946Y-14308772D01*
X15062500Y-14320000D01*
X14767500Y-14320000D01*
X14711054Y-14308772D01*
X14663202Y-14276798D01*
X14631228Y-14228946D01*
X14620000Y-14172500D01*
X14620000Y-13827500D01*
X14631228Y-13771054D01*
X14663202Y-13723202D01*
X14711054Y-13691228D01*
X14767500Y-13680000D01*
X15062500Y-13680000D01*
X15118946Y-13691228D01*
G37*
G36*
X16088946Y-13691228D02*
G01*
X16136798Y-13723202D01*
X16168772Y-13771054D01*
X16180000Y-13827500D01*
X16180000Y-14172500D01*
X16168772Y-14228946D01*
X16136798Y-14276798D01*
X16088946Y-14308772D01*
X16032500Y-14320000D01*
X15737500Y-14320000D01*
X15681054Y-14308772D01*
X15633202Y-14276798D01*
X15601228Y-14228946D01*
X15590000Y-14172500D01*
X15590000Y-13827500D01*
X15601228Y-13771054D01*
X15633202Y-13723202D01*
X15681054Y-13691228D01*
X15737500Y-13680000D01*
X16032500Y-13680000D01*
X16088946Y-13691228D01*
G37*
G36*
X32718946Y-13691228D02*
G01*
X32766798Y-13723202D01*
X32798772Y-13771054D01*
X32810000Y-13827500D01*
X32810000Y-14172500D01*
X32798772Y-14228946D01*
X32766798Y-14276798D01*
X32718946Y-14308772D01*
X32662500Y-14320000D01*
X32367500Y-14320000D01*
X32311054Y-14308772D01*
X32263202Y-14276798D01*
X32231228Y-14228946D01*
X32220000Y-14172500D01*
X32220000Y-13827500D01*
X32231228Y-13771054D01*
X32263202Y-13723202D01*
X32311054Y-13691228D01*
X32367500Y-13680000D01*
X32662500Y-13680000D01*
X32718946Y-13691228D01*
G37*
G36*
X33688946Y-13691228D02*
G01*
X33736798Y-13723202D01*
X33768772Y-13771054D01*
X33780000Y-13827500D01*
X33780000Y-14172500D01*
X33768772Y-14228946D01*
X33736798Y-14276798D01*
X33688946Y-14308772D01*
X33632500Y-14320000D01*
X33337500Y-14320000D01*
X33281054Y-14308772D01*
X33233202Y-14276798D01*
X33201228Y-14228946D01*
X33190000Y-14172500D01*
X33190000Y-13827500D01*
X33201228Y-13771054D01*
X33233202Y-13723202D01*
X33281054Y-13691228D01*
X33337500Y-13680000D01*
X33632500Y-13680000D01*
X33688946Y-13691228D01*
G37*
G36*
X35118946Y-13691228D02*
G01*
X35166798Y-13723202D01*
X35198772Y-13771054D01*
X35210000Y-13827500D01*
X35210000Y-14172500D01*
X35198772Y-14228946D01*
X35166798Y-14276798D01*
X35118946Y-14308772D01*
X35062500Y-14320000D01*
X34767500Y-14320000D01*
X34711054Y-14308772D01*
X34663202Y-14276798D01*
X34631228Y-14228946D01*
X34620000Y-14172500D01*
X34620000Y-13827500D01*
X34631228Y-13771054D01*
X34663202Y-13723202D01*
X34711054Y-13691228D01*
X34767500Y-13680000D01*
X35062500Y-13680000D01*
X35118946Y-13691228D01*
G37*
G36*
X36088946Y-13691228D02*
G01*
X36136798Y-13723202D01*
X36168772Y-13771054D01*
X36180000Y-13827500D01*
X36180000Y-14172500D01*
X36168772Y-14228946D01*
X36136798Y-14276798D01*
X36088946Y-14308772D01*
X36032500Y-14320000D01*
X35737500Y-14320000D01*
X35681054Y-14308772D01*
X35633202Y-14276798D01*
X35601228Y-14228946D01*
X35590000Y-14172500D01*
X35590000Y-13827500D01*
X35601228Y-13771054D01*
X35633202Y-13723202D01*
X35681054Y-13691228D01*
X35737500Y-13680000D01*
X36032500Y-13680000D01*
X36088946Y-13691228D01*
G37*
G36*
X52718946Y-13691228D02*
G01*
X52766798Y-13723202D01*
X52798772Y-13771054D01*
X52810000Y-13827500D01*
X52810000Y-14172500D01*
X52798772Y-14228946D01*
X52766798Y-14276798D01*
X52718946Y-14308772D01*
X52662500Y-14320000D01*
X52367500Y-14320000D01*
X52311054Y-14308772D01*
X52263202Y-14276798D01*
X52231228Y-14228946D01*
X52220000Y-14172500D01*
X52220000Y-13827500D01*
X52231228Y-13771054D01*
X52263202Y-13723202D01*
X52311054Y-13691228D01*
X52367500Y-13680000D01*
X52662500Y-13680000D01*
X52718946Y-13691228D01*
G37*
G36*
X53688946Y-13691228D02*
G01*
X53736798Y-13723202D01*
X53768772Y-13771054D01*
X53780000Y-13827500D01*
X53780000Y-14172500D01*
X53768772Y-14228946D01*
X53736798Y-14276798D01*
X53688946Y-14308772D01*
X53632500Y-14320000D01*
X53337500Y-14320000D01*
X53281054Y-14308772D01*
X53233202Y-14276798D01*
X53201228Y-14228946D01*
X53190000Y-14172500D01*
X53190000Y-13827500D01*
X53201228Y-13771054D01*
X53233202Y-13723202D01*
X53281054Y-13691228D01*
X53337500Y-13680000D01*
X53632500Y-13680000D01*
X53688946Y-13691228D01*
G37*
G36*
X55118946Y-13691228D02*
G01*
X55166798Y-13723202D01*
X55198772Y-13771054D01*
X55210000Y-13827500D01*
X55210000Y-14172500D01*
X55198772Y-14228946D01*
X55166798Y-14276798D01*
X55118946Y-14308772D01*
X55062500Y-14320000D01*
X54767500Y-14320000D01*
X54711054Y-14308772D01*
X54663202Y-14276798D01*
X54631228Y-14228946D01*
X54620000Y-14172500D01*
X54620000Y-13827500D01*
X54631228Y-13771054D01*
X54663202Y-13723202D01*
X54711054Y-13691228D01*
X54767500Y-13680000D01*
X55062500Y-13680000D01*
X55118946Y-13691228D01*
G37*
G36*
X56088946Y-13691228D02*
G01*
X56136798Y-13723202D01*
X56168772Y-13771054D01*
X56180000Y-13827500D01*
X56180000Y-14172500D01*
X56168772Y-14228946D01*
X56136798Y-14276798D01*
X56088946Y-14308772D01*
X56032500Y-14320000D01*
X55737500Y-14320000D01*
X55681054Y-14308772D01*
X55633202Y-14276798D01*
X55601228Y-14228946D01*
X55590000Y-14172500D01*
X55590000Y-13827500D01*
X55601228Y-13771054D01*
X55633202Y-13723202D01*
X55681054Y-13691228D01*
X55737500Y-13680000D01*
X56032500Y-13680000D01*
X56088946Y-13691228D01*
G37*
G36*
X72718946Y-13691228D02*
G01*
X72766798Y-13723202D01*
X72798772Y-13771054D01*
X72810000Y-13827500D01*
X72810000Y-14172500D01*
X72798772Y-14228946D01*
X72766798Y-14276798D01*
X72718946Y-14308772D01*
X72662500Y-14320000D01*
X72367500Y-14320000D01*
X72311054Y-14308772D01*
X72263202Y-14276798D01*
X72231228Y-14228946D01*
X72220000Y-14172500D01*
X72220000Y-13827500D01*
X72231228Y-13771054D01*
X72263202Y-13723202D01*
X72311054Y-13691228D01*
X72367500Y-13680000D01*
X72662500Y-13680000D01*
X72718946Y-13691228D01*
G37*
G36*
X73688946Y-13691228D02*
G01*
X73736798Y-13723202D01*
X73768772Y-13771054D01*
X73780000Y-13827500D01*
X73780000Y-14172500D01*
X73768772Y-14228946D01*
X73736798Y-14276798D01*
X73688946Y-14308772D01*
X73632500Y-14320000D01*
X73337500Y-14320000D01*
X73281054Y-14308772D01*
X73233202Y-14276798D01*
X73201228Y-14228946D01*
X73190000Y-14172500D01*
X73190000Y-13827500D01*
X73201228Y-13771054D01*
X73233202Y-13723202D01*
X73281054Y-13691228D01*
X73337500Y-13680000D01*
X73632500Y-13680000D01*
X73688946Y-13691228D01*
G37*
G36*
X75118946Y-13691228D02*
G01*
X75166798Y-13723202D01*
X75198772Y-13771054D01*
X75210000Y-13827500D01*
X75210000Y-14172500D01*
X75198772Y-14228946D01*
X75166798Y-14276798D01*
X75118946Y-14308772D01*
X75062500Y-14320000D01*
X74767500Y-14320000D01*
X74711054Y-14308772D01*
X74663202Y-14276798D01*
X74631228Y-14228946D01*
X74620000Y-14172500D01*
X74620000Y-13827500D01*
X74631228Y-13771054D01*
X74663202Y-13723202D01*
X74711054Y-13691228D01*
X74767500Y-13680000D01*
X75062500Y-13680000D01*
X75118946Y-13691228D01*
G37*
G36*
X76088946Y-13691228D02*
G01*
X76136798Y-13723202D01*
X76168772Y-13771054D01*
X76180000Y-13827500D01*
X76180000Y-14172500D01*
X76168772Y-14228946D01*
X76136798Y-14276798D01*
X76088946Y-14308772D01*
X76032500Y-14320000D01*
X75737500Y-14320000D01*
X75681054Y-14308772D01*
X75633202Y-14276798D01*
X75601228Y-14228946D01*
X75590000Y-14172500D01*
X75590000Y-13827500D01*
X75601228Y-13771054D01*
X75633202Y-13723202D01*
X75681054Y-13691228D01*
X75737500Y-13680000D01*
X76032500Y-13680000D01*
X76088946Y-13691228D01*
G37*
G36*
X10536104Y-10542127D02*
G01*
X10609099Y-10590901D01*
X10657873Y-10663896D01*
X10675000Y-10750000D01*
X10675000Y-11250000D01*
X10657873Y-11336104D01*
X10609099Y-11409099D01*
X10536104Y-11457873D01*
X10450000Y-11475000D01*
X10000000Y-11475000D01*
X9913896Y-11457873D01*
X9840901Y-11409099D01*
X9792127Y-11336104D01*
X9775000Y-11250000D01*
X9775000Y-10750000D01*
X9792127Y-10663896D01*
X9840901Y-10590901D01*
X9913896Y-10542127D01*
X10000000Y-10525000D01*
X10450000Y-10525000D01*
X10536104Y-10542127D01*
G37*
G36*
X12086104Y-10542127D02*
G01*
X12159099Y-10590901D01*
X12207873Y-10663896D01*
X12225000Y-10750000D01*
X12225000Y-11250000D01*
X12207873Y-11336104D01*
X12159099Y-11409099D01*
X12086104Y-11457873D01*
X12000000Y-11475000D01*
X11550000Y-11475000D01*
X11463896Y-11457873D01*
X11390901Y-11409099D01*
X11342127Y-11336104D01*
X11325000Y-11250000D01*
X11325000Y-10750000D01*
X11342127Y-10663896D01*
X11390901Y-10590901D01*
X11463896Y-10542127D01*
X11550000Y-10525000D01*
X12000000Y-10525000D01*
X12086104Y-10542127D01*
G37*
G36*
X15536104Y-10542127D02*
G01*
X15609099Y-10590901D01*
X15657873Y-10663896D01*
X15675000Y-10750000D01*
X15675000Y-11250000D01*
X15657873Y-11336104D01*
X15609099Y-11409099D01*
X15536104Y-11457873D01*
X15450000Y-11475000D01*
X15000000Y-11475000D01*
X14913896Y-11457873D01*
X14840901Y-11409099D01*
X14792127Y-11336104D01*
X14775000Y-11250000D01*
X14775000Y-10750000D01*
X14792127Y-10663896D01*
X14840901Y-10590901D01*
X14913896Y-10542127D01*
X15000000Y-10525000D01*
X15450000Y-10525000D01*
X15536104Y-10542127D01*
G37*
G36*
X17086104Y-10542127D02*
G01*
X17159099Y-10590901D01*
X17207873Y-10663896D01*
X17225000Y-10750000D01*
X17225000Y-11250000D01*
X17207873Y-11336104D01*
X17159099Y-11409099D01*
X17086104Y-11457873D01*
X17000000Y-11475000D01*
X16550000Y-11475000D01*
X16463896Y-11457873D01*
X16390901Y-11409099D01*
X16342127Y-11336104D01*
X16325000Y-11250000D01*
X16325000Y-10750000D01*
X16342127Y-10663896D01*
X16390901Y-10590901D01*
X16463896Y-10542127D01*
X16550000Y-10525000D01*
X17000000Y-10525000D01*
X17086104Y-10542127D01*
G37*
G36*
X30536104Y-10542127D02*
G01*
X30609099Y-10590901D01*
X30657873Y-10663896D01*
X30675000Y-10750000D01*
X30675000Y-11250000D01*
X30657873Y-11336104D01*
X30609099Y-11409099D01*
X30536104Y-11457873D01*
X30450000Y-11475000D01*
X30000000Y-11475000D01*
X29913896Y-11457873D01*
X29840901Y-11409099D01*
X29792127Y-11336104D01*
X29775000Y-11250000D01*
X29775000Y-10750000D01*
X29792127Y-10663896D01*
X29840901Y-10590901D01*
X29913896Y-10542127D01*
X30000000Y-10525000D01*
X30450000Y-10525000D01*
X30536104Y-10542127D01*
G37*
G36*
X32086104Y-10542127D02*
G01*
X32159099Y-10590901D01*
X32207873Y-10663896D01*
X32225000Y-10750000D01*
X32225000Y-11250000D01*
X32207873Y-11336104D01*
X32159099Y-11409099D01*
X32086104Y-11457873D01*
X32000000Y-11475000D01*
X31550000Y-11475000D01*
X31463896Y-11457873D01*
X31390901Y-11409099D01*
X31342127Y-11336104D01*
X31325000Y-11250000D01*
X31325000Y-10750000D01*
X31342127Y-10663896D01*
X31390901Y-10590901D01*
X31463896Y-10542127D01*
X31550000Y-10525000D01*
X32000000Y-10525000D01*
X32086104Y-10542127D01*
G37*
G36*
X35536104Y-10542127D02*
G01*
X35609099Y-10590901D01*
X35657873Y-10663896D01*
X35675000Y-10750000D01*
X35675000Y-11250000D01*
X35657873Y-11336104D01*
X35609099Y-11409099D01*
X35536104Y-11457873D01*
X35450000Y-11475000D01*
X35000000Y-11475000D01*
X34913896Y-11457873D01*
X34840901Y-11409099D01*
X34792127Y-11336104D01*
X34775000Y-11250000D01*
X34775000Y-10750000D01*
X34792127Y-10663896D01*
X34840901Y-10590901D01*
X34913896Y-10542127D01*
X35000000Y-10525000D01*
X35450000Y-10525000D01*
X35536104Y-10542127D01*
G37*
G36*
X37086104Y-10542127D02*
G01*
X37159099Y-10590901D01*
X37207873Y-10663896D01*
X37225000Y-10750000D01*
X37225000Y-11250000D01*
X37207873Y-11336104D01*
X37159099Y-11409099D01*
X37086104Y-11457873D01*
X37000000Y-11475000D01*
X36550000Y-11475000D01*
X36463896Y-11457873D01*
X36390901Y-11409099D01*
X36342127Y-11336104D01*
X36325000Y-11250000D01*
X36325000Y-10750000D01*
X36342127Y-10663896D01*
X36390901Y-10590901D01*
X36463896Y-10542127D01*
X36550000Y-10525000D01*
X37000000Y-10525000D01*
X37086104Y-10542127D01*
G37*
G36*
X50536104Y-10542127D02*
G01*
X50609099Y-10590901D01*
X50657873Y-10663896D01*
X50675000Y-10750000D01*
X50675000Y-11250000D01*
X50657873Y-11336104D01*
X50609099Y-11409099D01*
X50536104Y-11457873D01*
X50450000Y-11475000D01*
X50000000Y-11475000D01*
X49913896Y-11457873D01*
X49840901Y-11409099D01*
X49792127Y-11336104D01*
X49775000Y-11250000D01*
X49775000Y-10750000D01*
X49792127Y-10663896D01*
X49840901Y-10590901D01*
X49913896Y-10542127D01*
X50000000Y-10525000D01*
X50450000Y-10525000D01*
X50536104Y-10542127D01*
G37*
G36*
X52086104Y-10542127D02*
G01*
X52159099Y-10590901D01*
X52207873Y-10663896D01*
X52225000Y-10750000D01*
X52225000Y-11250000D01*
X52207873Y-11336104D01*
X52159099Y-11409099D01*
X52086104Y-11457873D01*
X52000000Y-11475000D01*
X51550000Y-11475000D01*
X51463896Y-11457873D01*
X51390901Y-11409099D01*
X51342127Y-11336104D01*
X51325000Y-11250000D01*
X51325000Y-10750000D01*
X51342127Y-10663896D01*
X51390901Y-10590901D01*
X51463896Y-10542127D01*
X51550000Y-10525000D01*
X52000000Y-10525000D01*
X52086104Y-10542127D01*
G37*
G36*
X55536104Y-10542127D02*
G01*
X55609099Y-10590901D01*
X55657873Y-10663896D01*
X55675000Y-10750000D01*
X55675000Y-11250000D01*
X55657873Y-11336104D01*
X55609099Y-11409099D01*
X55536104Y-11457873D01*
X55450000Y-11475000D01*
X55000000Y-11475000D01*
X54913896Y-11457873D01*
X54840901Y-11409099D01*
X54792127Y-11336104D01*
X54775000Y-11250000D01*
X54775000Y-10750000D01*
X54792127Y-10663896D01*
X54840901Y-10590901D01*
X54913896Y-10542127D01*
X55000000Y-10525000D01*
X55450000Y-10525000D01*
X55536104Y-10542127D01*
G37*
G36*
X57086104Y-10542127D02*
G01*
X57159099Y-10590901D01*
X57207873Y-10663896D01*
X57225000Y-10750000D01*
X57225000Y-11250000D01*
X57207873Y-11336104D01*
X57159099Y-11409099D01*
X57086104Y-11457873D01*
X57000000Y-11475000D01*
X56550000Y-11475000D01*
X56463896Y-11457873D01*
X56390901Y-11409099D01*
X56342127Y-11336104D01*
X56325000Y-11250000D01*
X56325000Y-10750000D01*
X56342127Y-10663896D01*
X56390901Y-10590901D01*
X56463896Y-10542127D01*
X56550000Y-10525000D01*
X57000000Y-10525000D01*
X57086104Y-10542127D01*
G37*
G36*
X70536104Y-10542127D02*
G01*
X70609099Y-10590901D01*
X70657873Y-10663896D01*
X70675000Y-10750000D01*
X70675000Y-11250000D01*
X70657873Y-11336104D01*
X70609099Y-11409099D01*
X70536104Y-11457873D01*
X70450000Y-11475000D01*
X70000000Y-11475000D01*
X69913896Y-11457873D01*
X69840901Y-11409099D01*
X69792127Y-11336104D01*
X69775000Y-11250000D01*
X69775000Y-10750000D01*
X69792127Y-10663896D01*
X69840901Y-10590901D01*
X69913896Y-10542127D01*
X70000000Y-10525000D01*
X70450000Y-10525000D01*
X70536104Y-10542127D01*
G37*
G36*
X72086104Y-10542127D02*
G01*
X72159099Y-10590901D01*
X72207873Y-10663896D01*
X72225000Y-10750000D01*
X72225000Y-11250000D01*
X72207873Y-11336104D01*
X72159099Y-11409099D01*
X72086104Y-11457873D01*
X72000000Y-11475000D01*
X71550000Y-11475000D01*
X71463896Y-11457873D01*
X71390901Y-11409099D01*
X71342127Y-11336104D01*
X71325000Y-11250000D01*
X71325000Y-10750000D01*
X71342127Y-10663896D01*
X71390901Y-10590901D01*
X71463896Y-10542127D01*
X71550000Y-10525000D01*
X72000000Y-10525000D01*
X72086104Y-10542127D01*
G37*
G36*
X75536104Y-10542127D02*
G01*
X75609099Y-10590901D01*
X75657873Y-10663896D01*
X75675000Y-10750000D01*
X75675000Y-11250000D01*
X75657873Y-11336104D01*
X75609099Y-11409099D01*
X75536104Y-11457873D01*
X75450000Y-11475000D01*
X75000000Y-11475000D01*
X74913896Y-11457873D01*
X74840901Y-11409099D01*
X74792127Y-11336104D01*
X74775000Y-11250000D01*
X74775000Y-10750000D01*
X74792127Y-10663896D01*
X74840901Y-10590901D01*
X74913896Y-10542127D01*
X75000000Y-10525000D01*
X75450000Y-10525000D01*
X75536104Y-10542127D01*
G37*
G36*
X77086104Y-10542127D02*
G01*
X77159099Y-10590901D01*
X77207873Y-10663896D01*
X77225000Y-10750000D01*
X77225000Y-11250000D01*
X77207873Y-11336104D01*
X77159099Y-11409099D01*
X77086104Y-11457873D01*
X77000000Y-11475000D01*
X76550000Y-11475000D01*
X76463896Y-11457873D01*
X76390901Y-11409099D01*
X76342127Y-11336104D01*
X76325000Y-11250000D01*
X76325000Y-10750000D01*
X76342127Y-10663896D01*
X76390901Y-10590901D01*
X76463896Y-10542127D01*
X76550000Y-10525000D01*
X77000000Y-10525000D01*
X77086104Y-10542127D01*
G37*
G36*
X17382403Y-8161418D02*
G01*
X17431066Y-8193934D01*
X17463582Y-8242597D01*
X17475000Y-8300000D01*
X17475000Y-8600000D01*
X17463582Y-8657403D01*
X17431066Y-8706066D01*
X17382403Y-8738582D01*
X17325000Y-8750000D01*
X16150000Y-8750000D01*
X16092597Y-8738582D01*
X16043934Y-8706066D01*
X16011418Y-8657403D01*
X16000000Y-8600000D01*
X16000000Y-8300000D01*
X16011418Y-8242597D01*
X16043934Y-8193934D01*
X16092597Y-8161418D01*
X16150000Y-8150000D01*
X17325000Y-8150000D01*
X17382403Y-8161418D01*
G37*
G36*
X37382403Y-8161418D02*
G01*
X37431066Y-8193934D01*
X37463582Y-8242597D01*
X37475000Y-8300000D01*
X37475000Y-8600000D01*
X37463582Y-8657403D01*
X37431066Y-8706066D01*
X37382403Y-8738582D01*
X37325000Y-8750000D01*
X36150000Y-8750000D01*
X36092597Y-8738582D01*
X36043934Y-8706066D01*
X36011418Y-8657403D01*
X36000000Y-8600000D01*
X36000000Y-8300000D01*
X36011418Y-8242597D01*
X36043934Y-8193934D01*
X36092597Y-8161418D01*
X36150000Y-8150000D01*
X37325000Y-8150000D01*
X37382403Y-8161418D01*
G37*
G36*
X57382403Y-8161418D02*
G01*
X57431066Y-8193934D01*
X57463582Y-8242597D01*
X57475000Y-8300000D01*
X57475000Y-8600000D01*
X57463582Y-8657403D01*
X57431066Y-8706066D01*
X57382403Y-8738582D01*
X57325000Y-8750000D01*
X56150000Y-8750000D01*
X56092597Y-8738582D01*
X56043934Y-8706066D01*
X56011418Y-8657403D01*
X56000000Y-8600000D01*
X56000000Y-8300000D01*
X56011418Y-8242597D01*
X56043934Y-8193934D01*
X56092597Y-8161418D01*
X56150000Y-8150000D01*
X57325000Y-8150000D01*
X57382403Y-8161418D01*
G37*
G36*
X77382403Y-8161418D02*
G01*
X77431066Y-8193934D01*
X77463582Y-8242597D01*
X77475000Y-8300000D01*
X77475000Y-8600000D01*
X77463582Y-8657403D01*
X77431066Y-8706066D01*
X77382403Y-8738582D01*
X77325000Y-8750000D01*
X76150000Y-8750000D01*
X76092597Y-8738582D01*
X76043934Y-8706066D01*
X76011418Y-8657403D01*
X76000000Y-8600000D01*
X76000000Y-8300000D01*
X76011418Y-8242597D01*
X76043934Y-8193934D01*
X76092597Y-8161418D01*
X76150000Y-8150000D01*
X77325000Y-8150000D01*
X77382403Y-8161418D01*
G37*
G36*
X10550000Y-8250000D02*
G01*
X9550000Y-8250000D01*
X9252071Y-8250000D01*
X9250000Y-8250000D01*
X8250000Y-8250000D01*
X8250000Y-6750000D01*
X9250000Y-6750000D01*
X10545077Y-6750000D01*
X10550000Y-6750000D01*
X10550000Y-8250000D01*
G37*
G36*
X30550000Y-8250000D02*
G01*
X29550000Y-8250000D01*
X29252071Y-8250000D01*
X29250000Y-8250000D01*
X28250000Y-8250000D01*
X28250000Y-6750000D01*
X29250000Y-6750000D01*
X30545077Y-6750000D01*
X30550000Y-6750000D01*
X30550000Y-8250000D01*
G37*
G36*
X50550000Y-8250000D02*
G01*
X49550000Y-8250000D01*
X49252071Y-8250000D01*
X49250000Y-8250000D01*
X48250000Y-8250000D01*
X48250000Y-6750000D01*
X49250000Y-6750000D01*
X50545077Y-6750000D01*
X50550000Y-6750000D01*
X50550000Y-8250000D01*
G37*
G36*
X70550000Y-8250000D02*
G01*
X69550000Y-8250000D01*
X69252071Y-8250000D01*
X69250000Y-8250000D01*
X68250000Y-8250000D01*
X68250000Y-6750000D01*
X69250000Y-6750000D01*
X70545077Y-6750000D01*
X70550000Y-6750000D01*
X70550000Y-8250000D01*
G37*
G36*
X5251537Y-7040224D02*
G01*
X5316421Y-7083579D01*
X5359776Y-7148463D01*
X5375000Y-7225000D01*
X5375000Y-7775000D01*
X5359776Y-7851537D01*
X5316421Y-7916421D01*
X5251537Y-7959776D01*
X5175000Y-7975000D01*
X4775000Y-7975000D01*
X4698463Y-7959776D01*
X4633579Y-7916421D01*
X4590224Y-7851537D01*
X4575000Y-7775000D01*
X4575000Y-7225000D01*
X4590224Y-7148463D01*
X4633579Y-7083579D01*
X4698463Y-7040224D01*
X4775000Y-7025000D01*
X5175000Y-7025000D01*
X5251537Y-7040224D01*
G37*
G36*
X6901537Y-7040224D02*
G01*
X6966421Y-7083579D01*
X7009776Y-7148463D01*
X7025000Y-7225000D01*
X7025000Y-7775000D01*
X7009776Y-7851537D01*
X6966421Y-7916421D01*
X6901537Y-7959776D01*
X6825000Y-7975000D01*
X6425000Y-7975000D01*
X6348463Y-7959776D01*
X6283579Y-7916421D01*
X6240224Y-7851537D01*
X6225000Y-7775000D01*
X6225000Y-7225000D01*
X6240224Y-7148463D01*
X6283579Y-7083579D01*
X6348463Y-7040224D01*
X6425000Y-7025000D01*
X6825000Y-7025000D01*
X6901537Y-7040224D01*
G37*
G36*
X25251537Y-7040224D02*
G01*
X25316421Y-7083579D01*
X25359776Y-7148463D01*
X25375000Y-7225000D01*
X25375000Y-7775000D01*
X25359776Y-7851537D01*
X25316421Y-7916421D01*
X25251537Y-7959776D01*
X25175000Y-7975000D01*
X24775000Y-7975000D01*
X24698463Y-7959776D01*
X24633579Y-7916421D01*
X24590224Y-7851537D01*
X24575000Y-7775000D01*
X24575000Y-7225000D01*
X24590224Y-7148463D01*
X24633579Y-7083579D01*
X24698463Y-7040224D01*
X24775000Y-7025000D01*
X25175000Y-7025000D01*
X25251537Y-7040224D01*
G37*
G36*
X26901537Y-7040224D02*
G01*
X26966421Y-7083579D01*
X27009776Y-7148463D01*
X27025000Y-7225000D01*
X27025000Y-7775000D01*
X27009776Y-7851537D01*
X26966421Y-7916421D01*
X26901537Y-7959776D01*
X26825000Y-7975000D01*
X26425000Y-7975000D01*
X26348463Y-7959776D01*
X26283579Y-7916421D01*
X26240224Y-7851537D01*
X26225000Y-7775000D01*
X26225000Y-7225000D01*
X26240224Y-7148463D01*
X26283579Y-7083579D01*
X26348463Y-7040224D01*
X26425000Y-7025000D01*
X26825000Y-7025000D01*
X26901537Y-7040224D01*
G37*
G36*
X45251537Y-7040224D02*
G01*
X45316421Y-7083579D01*
X45359776Y-7148463D01*
X45375000Y-7225000D01*
X45375000Y-7775000D01*
X45359776Y-7851537D01*
X45316421Y-7916421D01*
X45251537Y-7959776D01*
X45175000Y-7975000D01*
X44775000Y-7975000D01*
X44698463Y-7959776D01*
X44633579Y-7916421D01*
X44590224Y-7851537D01*
X44575000Y-7775000D01*
X44575000Y-7225000D01*
X44590224Y-7148463D01*
X44633579Y-7083579D01*
X44698463Y-7040224D01*
X44775000Y-7025000D01*
X45175000Y-7025000D01*
X45251537Y-7040224D01*
G37*
G36*
X46901537Y-7040224D02*
G01*
X46966421Y-7083579D01*
X47009776Y-7148463D01*
X47025000Y-7225000D01*
X47025000Y-7775000D01*
X47009776Y-7851537D01*
X46966421Y-7916421D01*
X46901537Y-7959776D01*
X46825000Y-7975000D01*
X46425000Y-7975000D01*
X46348463Y-7959776D01*
X46283579Y-7916421D01*
X46240224Y-7851537D01*
X46225000Y-7775000D01*
X46225000Y-7225000D01*
X46240224Y-7148463D01*
X46283579Y-7083579D01*
X46348463Y-7040224D01*
X46425000Y-7025000D01*
X46825000Y-7025000D01*
X46901537Y-7040224D01*
G37*
G36*
X65251537Y-7040224D02*
G01*
X65316421Y-7083579D01*
X65359776Y-7148463D01*
X65375000Y-7225000D01*
X65375000Y-7775000D01*
X65359776Y-7851537D01*
X65316421Y-7916421D01*
X65251537Y-7959776D01*
X65175000Y-7975000D01*
X64775000Y-7975000D01*
X64698463Y-7959776D01*
X64633579Y-7916421D01*
X64590224Y-7851537D01*
X64575000Y-7775000D01*
X64575000Y-7225000D01*
X64590224Y-7148463D01*
X64633579Y-7083579D01*
X64698463Y-7040224D01*
X64775000Y-7025000D01*
X65175000Y-7025000D01*
X65251537Y-7040224D01*
G37*
G36*
X66901537Y-7040224D02*
G01*
X66966421Y-7083579D01*
X67009776Y-7148463D01*
X67025000Y-7225000D01*
X67025000Y-7775000D01*
X67009776Y-7851537D01*
X66966421Y-7916421D01*
X66901537Y-7959776D01*
X66825000Y-7975000D01*
X66425000Y-7975000D01*
X66348463Y-7959776D01*
X66283579Y-7916421D01*
X66240224Y-7851537D01*
X66225000Y-7775000D01*
X66225000Y-7225000D01*
X66240224Y-7148463D01*
X66283579Y-7083579D01*
X66348463Y-7040224D01*
X66425000Y-7025000D01*
X66825000Y-7025000D01*
X66901537Y-7040224D01*
G37*
G36*
X15507403Y-7211418D02*
G01*
X15556066Y-7243934D01*
X15588582Y-7292597D01*
X15600000Y-7350000D01*
X15600000Y-7650000D01*
X15588582Y-7707403D01*
X15556066Y-7756066D01*
X15507403Y-7788582D01*
X15450000Y-7800000D01*
X14275000Y-7800000D01*
X14217597Y-7788582D01*
X14168934Y-7756066D01*
X14136418Y-7707403D01*
X14125000Y-7650000D01*
X14125000Y-7350000D01*
X14136418Y-7292597D01*
X14168934Y-7243934D01*
X14217597Y-7211418D01*
X14275000Y-7200000D01*
X15450000Y-7200000D01*
X15507403Y-7211418D01*
G37*
G36*
X35507403Y-7211418D02*
G01*
X35556066Y-7243934D01*
X35588582Y-7292597D01*
X35600000Y-7350000D01*
X35600000Y-7650000D01*
X35588582Y-7707403D01*
X35556066Y-7756066D01*
X35507403Y-7788582D01*
X35450000Y-7800000D01*
X34275000Y-7800000D01*
X34217597Y-7788582D01*
X34168934Y-7756066D01*
X34136418Y-7707403D01*
X34125000Y-7650000D01*
X34125000Y-7350000D01*
X34136418Y-7292597D01*
X34168934Y-7243934D01*
X34217597Y-7211418D01*
X34275000Y-7200000D01*
X35450000Y-7200000D01*
X35507403Y-7211418D01*
G37*
G36*
X55507403Y-7211418D02*
G01*
X55556066Y-7243934D01*
X55588582Y-7292597D01*
X55600000Y-7350000D01*
X55600000Y-7650000D01*
X55588582Y-7707403D01*
X55556066Y-7756066D01*
X55507403Y-7788582D01*
X55450000Y-7800000D01*
X54275000Y-7800000D01*
X54217597Y-7788582D01*
X54168934Y-7756066D01*
X54136418Y-7707403D01*
X54125000Y-7650000D01*
X54125000Y-7350000D01*
X54136418Y-7292597D01*
X54168934Y-7243934D01*
X54217597Y-7211418D01*
X54275000Y-7200000D01*
X55450000Y-7200000D01*
X55507403Y-7211418D01*
G37*
G36*
X75507403Y-7211418D02*
G01*
X75556066Y-7243934D01*
X75588582Y-7292597D01*
X75600000Y-7350000D01*
X75600000Y-7650000D01*
X75588582Y-7707403D01*
X75556066Y-7756066D01*
X75507403Y-7788582D01*
X75450000Y-7800000D01*
X74275000Y-7800000D01*
X74217597Y-7788582D01*
X74168934Y-7756066D01*
X74136418Y-7707403D01*
X74125000Y-7650000D01*
X74125000Y-7350000D01*
X74136418Y-7292597D01*
X74168934Y-7243934D01*
X74217597Y-7211418D01*
X74275000Y-7200000D01*
X75450000Y-7200000D01*
X75507403Y-7211418D01*
G37*
G36*
X17382403Y-6261418D02*
G01*
X17431066Y-6293934D01*
X17463582Y-6342597D01*
X17475000Y-6400000D01*
X17475000Y-6700000D01*
X17463582Y-6757403D01*
X17431066Y-6806066D01*
X17382403Y-6838582D01*
X17325000Y-6850000D01*
X16150000Y-6850000D01*
X16092597Y-6838582D01*
X16043934Y-6806066D01*
X16011418Y-6757403D01*
X16000000Y-6700000D01*
X16000000Y-6400000D01*
X16011418Y-6342597D01*
X16043934Y-6293934D01*
X16092597Y-6261418D01*
X16150000Y-6250000D01*
X17325000Y-6250000D01*
X17382403Y-6261418D01*
G37*
G36*
X37382403Y-6261418D02*
G01*
X37431066Y-6293934D01*
X37463582Y-6342597D01*
X37475000Y-6400000D01*
X37475000Y-6700000D01*
X37463582Y-6757403D01*
X37431066Y-6806066D01*
X37382403Y-6838582D01*
X37325000Y-6850000D01*
X36150000Y-6850000D01*
X36092597Y-6838582D01*
X36043934Y-6806066D01*
X36011418Y-6757403D01*
X36000000Y-6700000D01*
X36000000Y-6400000D01*
X36011418Y-6342597D01*
X36043934Y-6293934D01*
X36092597Y-6261418D01*
X36150000Y-6250000D01*
X37325000Y-6250000D01*
X37382403Y-6261418D01*
G37*
G36*
X57382403Y-6261418D02*
G01*
X57431066Y-6293934D01*
X57463582Y-6342597D01*
X57475000Y-6400000D01*
X57475000Y-6700000D01*
X57463582Y-6757403D01*
X57431066Y-6806066D01*
X57382403Y-6838582D01*
X57325000Y-6850000D01*
X56150000Y-6850000D01*
X56092597Y-6838582D01*
X56043934Y-6806066D01*
X56011418Y-6757403D01*
X56000000Y-6700000D01*
X56000000Y-6400000D01*
X56011418Y-6342597D01*
X56043934Y-6293934D01*
X56092597Y-6261418D01*
X56150000Y-6250000D01*
X57325000Y-6250000D01*
X57382403Y-6261418D01*
G37*
G36*
X77382403Y-6261418D02*
G01*
X77431066Y-6293934D01*
X77463582Y-6342597D01*
X77475000Y-6400000D01*
X77475000Y-6700000D01*
X77463582Y-6757403D01*
X77431066Y-6806066D01*
X77382403Y-6838582D01*
X77325000Y-6850000D01*
X76150000Y-6850000D01*
X76092597Y-6838582D01*
X76043934Y-6806066D01*
X76011418Y-6757403D01*
X76000000Y-6700000D01*
X76000000Y-6400000D01*
X76011418Y-6342597D01*
X76043934Y-6293934D01*
X76092597Y-6261418D01*
X76150000Y-6250000D01*
X77325000Y-6250000D01*
X77382403Y-6261418D01*
G37*
G36*
X7565936Y-1729919D02*
G01*
X7575053Y-1729919D01*
X7601314Y-1736955D01*
X7666842Y-1749989D01*
X7697777Y-1762802D01*
X7720043Y-1768769D01*
X7740006Y-1780295D01*
X7770937Y-1793107D01*
X7826489Y-1830226D01*
X7850038Y-1843822D01*
X7856483Y-1850267D01*
X7864621Y-1855705D01*
X7944294Y-1935378D01*
X7949731Y-1943515D01*
X7956178Y-1949962D01*
X7969775Y-1973514D01*
X8006892Y-2029062D01*
X8019702Y-2059989D01*
X8031231Y-2079957D01*
X8037198Y-2102226D01*
X8050010Y-2133157D01*
X8063043Y-2198682D01*
X8070081Y-2224947D01*
X8070081Y-2234063D01*
X8071990Y-2243661D01*
X8071990Y-2356338D01*
X8070081Y-2365935D01*
X8070081Y-2375053D01*
X8063042Y-2401319D01*
X8050010Y-2466842D01*
X8037198Y-2497770D01*
X8031231Y-2520043D01*
X8019701Y-2540012D01*
X8006892Y-2570937D01*
X7969780Y-2626478D01*
X7956178Y-2650038D01*
X7949728Y-2656487D01*
X7944294Y-2664621D01*
X7864621Y-2744294D01*
X7856487Y-2749728D01*
X7850038Y-2756178D01*
X7826478Y-2769780D01*
X7770937Y-2806892D01*
X7740012Y-2819701D01*
X7720043Y-2831231D01*
X7697770Y-2837198D01*
X7666842Y-2850010D01*
X7601319Y-2863042D01*
X7575053Y-2870081D01*
X7565935Y-2870081D01*
X7556338Y-2871990D01*
X7443662Y-2871990D01*
X7434064Y-2870081D01*
X7424947Y-2870081D01*
X7398681Y-2863043D01*
X7333157Y-2850010D01*
X7302226Y-2837198D01*
X7279957Y-2831231D01*
X7259989Y-2819702D01*
X7229062Y-2806892D01*
X7173514Y-2769775D01*
X7149962Y-2756178D01*
X7143515Y-2749731D01*
X7135378Y-2744294D01*
X7055705Y-2664621D01*
X7050267Y-2656483D01*
X7043822Y-2650038D01*
X7030226Y-2626489D01*
X6993107Y-2570937D01*
X6980295Y-2540006D01*
X6968769Y-2520043D01*
X6962802Y-2497777D01*
X6949989Y-2466842D01*
X6936955Y-2401314D01*
X6929919Y-2375053D01*
X6929919Y-2365935D01*
X6928010Y-2356338D01*
X6928010Y-2243661D01*
X6929919Y-2234063D01*
X6929919Y-2224947D01*
X6936954Y-2198688D01*
X6949989Y-2133157D01*
X6962803Y-2102220D01*
X6968769Y-2079957D01*
X6980293Y-2059995D01*
X6993107Y-2029062D01*
X7030230Y-1973503D01*
X7043822Y-1949962D01*
X7050265Y-1943518D01*
X7055705Y-1935378D01*
X7135378Y-1855705D01*
X7143518Y-1850265D01*
X7149962Y-1843822D01*
X7173503Y-1830230D01*
X7229062Y-1793107D01*
X7259995Y-1780293D01*
X7279957Y-1768769D01*
X7302220Y-1762803D01*
X7333157Y-1749989D01*
X7398687Y-1736955D01*
X7424947Y-1729919D01*
X7434064Y-1729919D01*
X7443662Y-1728010D01*
X7556338Y-1728010D01*
X7565936Y-1729919D01*
G37*
G36*
X27565936Y-1729919D02*
G01*
X27575053Y-1729919D01*
X27601314Y-1736955D01*
X27666842Y-1749989D01*
X27697777Y-1762802D01*
X27720043Y-1768769D01*
X27740006Y-1780295D01*
X27770937Y-1793107D01*
X27826489Y-1830226D01*
X27850038Y-1843822D01*
X27856483Y-1850267D01*
X27864621Y-1855705D01*
X27944294Y-1935378D01*
X27949731Y-1943515D01*
X27956178Y-1949962D01*
X27969775Y-1973514D01*
X28006892Y-2029062D01*
X28019702Y-2059989D01*
X28031231Y-2079957D01*
X28037198Y-2102226D01*
X28050010Y-2133157D01*
X28063043Y-2198682D01*
X28070081Y-2224947D01*
X28070081Y-2234063D01*
X28071990Y-2243661D01*
X28071990Y-2356338D01*
X28070081Y-2365935D01*
X28070081Y-2375053D01*
X28063042Y-2401319D01*
X28050010Y-2466842D01*
X28037198Y-2497770D01*
X28031231Y-2520043D01*
X28019701Y-2540012D01*
X28006892Y-2570937D01*
X27969780Y-2626478D01*
X27956178Y-2650038D01*
X27949728Y-2656487D01*
X27944294Y-2664621D01*
X27864621Y-2744294D01*
X27856487Y-2749728D01*
X27850038Y-2756178D01*
X27826478Y-2769780D01*
X27770937Y-2806892D01*
X27740012Y-2819701D01*
X27720043Y-2831231D01*
X27697770Y-2837198D01*
X27666842Y-2850010D01*
X27601319Y-2863042D01*
X27575053Y-2870081D01*
X27565935Y-2870081D01*
X27556338Y-2871990D01*
X27443662Y-2871990D01*
X27434064Y-2870081D01*
X27424947Y-2870081D01*
X27398681Y-2863043D01*
X27333157Y-2850010D01*
X27302226Y-2837198D01*
X27279957Y-2831231D01*
X27259989Y-2819702D01*
X27229062Y-2806892D01*
X27173514Y-2769775D01*
X27149962Y-2756178D01*
X27143515Y-2749731D01*
X27135378Y-2744294D01*
X27055705Y-2664621D01*
X27050267Y-2656483D01*
X27043822Y-2650038D01*
X27030226Y-2626489D01*
X26993107Y-2570937D01*
X26980295Y-2540006D01*
X26968769Y-2520043D01*
X26962802Y-2497777D01*
X26949989Y-2466842D01*
X26936955Y-2401314D01*
X26929919Y-2375053D01*
X26929919Y-2365935D01*
X26928010Y-2356338D01*
X26928010Y-2243661D01*
X26929919Y-2234063D01*
X26929919Y-2224947D01*
X26936954Y-2198688D01*
X26949989Y-2133157D01*
X26962803Y-2102220D01*
X26968769Y-2079957D01*
X26980293Y-2059995D01*
X26993107Y-2029062D01*
X27030230Y-1973503D01*
X27043822Y-1949962D01*
X27050265Y-1943518D01*
X27055705Y-1935378D01*
X27135378Y-1855705D01*
X27143518Y-1850265D01*
X27149962Y-1843822D01*
X27173503Y-1830230D01*
X27229062Y-1793107D01*
X27259995Y-1780293D01*
X27279957Y-1768769D01*
X27302220Y-1762803D01*
X27333157Y-1749989D01*
X27398687Y-1736955D01*
X27424947Y-1729919D01*
X27434064Y-1729919D01*
X27443662Y-1728010D01*
X27556338Y-1728010D01*
X27565936Y-1729919D01*
G37*
G36*
X47565936Y-1729919D02*
G01*
X47575053Y-1729919D01*
X47601314Y-1736955D01*
X47666842Y-1749989D01*
X47697777Y-1762802D01*
X47720043Y-1768769D01*
X47740006Y-1780295D01*
X47770937Y-1793107D01*
X47826489Y-1830226D01*
X47850038Y-1843822D01*
X47856483Y-1850267D01*
X47864621Y-1855705D01*
X47944294Y-1935378D01*
X47949731Y-1943515D01*
X47956178Y-1949962D01*
X47969775Y-1973514D01*
X48006892Y-2029062D01*
X48019702Y-2059989D01*
X48031231Y-2079957D01*
X48037198Y-2102226D01*
X48050010Y-2133157D01*
X48063043Y-2198682D01*
X48070081Y-2224947D01*
X48070081Y-2234063D01*
X48071990Y-2243661D01*
X48071990Y-2356338D01*
X48070081Y-2365935D01*
X48070081Y-2375053D01*
X48063042Y-2401319D01*
X48050010Y-2466842D01*
X48037198Y-2497770D01*
X48031231Y-2520043D01*
X48019701Y-2540012D01*
X48006892Y-2570937D01*
X47969780Y-2626478D01*
X47956178Y-2650038D01*
X47949728Y-2656487D01*
X47944294Y-2664621D01*
X47864621Y-2744294D01*
X47856487Y-2749728D01*
X47850038Y-2756178D01*
X47826478Y-2769780D01*
X47770937Y-2806892D01*
X47740012Y-2819701D01*
X47720043Y-2831231D01*
X47697770Y-2837198D01*
X47666842Y-2850010D01*
X47601319Y-2863042D01*
X47575053Y-2870081D01*
X47565935Y-2870081D01*
X47556338Y-2871990D01*
X47443662Y-2871990D01*
X47434064Y-2870081D01*
X47424947Y-2870081D01*
X47398681Y-2863043D01*
X47333157Y-2850010D01*
X47302226Y-2837198D01*
X47279957Y-2831231D01*
X47259989Y-2819702D01*
X47229062Y-2806892D01*
X47173514Y-2769775D01*
X47149962Y-2756178D01*
X47143515Y-2749731D01*
X47135378Y-2744294D01*
X47055705Y-2664621D01*
X47050267Y-2656483D01*
X47043822Y-2650038D01*
X47030226Y-2626489D01*
X46993107Y-2570937D01*
X46980295Y-2540006D01*
X46968769Y-2520043D01*
X46962802Y-2497777D01*
X46949989Y-2466842D01*
X46936955Y-2401314D01*
X46929919Y-2375053D01*
X46929919Y-2365935D01*
X46928010Y-2356338D01*
X46928010Y-2243661D01*
X46929919Y-2234063D01*
X46929919Y-2224947D01*
X46936954Y-2198688D01*
X46949989Y-2133157D01*
X46962803Y-2102220D01*
X46968769Y-2079957D01*
X46980293Y-2059995D01*
X46993107Y-2029062D01*
X47030230Y-1973503D01*
X47043822Y-1949962D01*
X47050265Y-1943518D01*
X47055705Y-1935378D01*
X47135378Y-1855705D01*
X47143518Y-1850265D01*
X47149962Y-1843822D01*
X47173503Y-1830230D01*
X47229062Y-1793107D01*
X47259995Y-1780293D01*
X47279957Y-1768769D01*
X47302220Y-1762803D01*
X47333157Y-1749989D01*
X47398687Y-1736955D01*
X47424947Y-1729919D01*
X47434064Y-1729919D01*
X47443662Y-1728010D01*
X47556338Y-1728010D01*
X47565936Y-1729919D01*
G37*
G36*
X67565936Y-1729919D02*
G01*
X67575053Y-1729919D01*
X67601314Y-1736955D01*
X67666842Y-1749989D01*
X67697777Y-1762802D01*
X67720043Y-1768769D01*
X67740006Y-1780295D01*
X67770937Y-1793107D01*
X67826489Y-1830226D01*
X67850038Y-1843822D01*
X67856483Y-1850267D01*
X67864621Y-1855705D01*
X67944294Y-1935378D01*
X67949731Y-1943515D01*
X67956178Y-1949962D01*
X67969775Y-1973514D01*
X68006892Y-2029062D01*
X68019702Y-2059989D01*
X68031231Y-2079957D01*
X68037198Y-2102226D01*
X68050010Y-2133157D01*
X68063043Y-2198682D01*
X68070081Y-2224947D01*
X68070081Y-2234063D01*
X68071990Y-2243661D01*
X68071990Y-2356338D01*
X68070081Y-2365935D01*
X68070081Y-2375053D01*
X68063042Y-2401319D01*
X68050010Y-2466842D01*
X68037198Y-2497770D01*
X68031231Y-2520043D01*
X68019701Y-2540012D01*
X68006892Y-2570937D01*
X67969780Y-2626478D01*
X67956178Y-2650038D01*
X67949728Y-2656487D01*
X67944294Y-2664621D01*
X67864621Y-2744294D01*
X67856487Y-2749728D01*
X67850038Y-2756178D01*
X67826478Y-2769780D01*
X67770937Y-2806892D01*
X67740012Y-2819701D01*
X67720043Y-2831231D01*
X67697770Y-2837198D01*
X67666842Y-2850010D01*
X67601319Y-2863042D01*
X67575053Y-2870081D01*
X67565935Y-2870081D01*
X67556338Y-2871990D01*
X67443662Y-2871990D01*
X67434064Y-2870081D01*
X67424947Y-2870081D01*
X67398681Y-2863043D01*
X67333157Y-2850010D01*
X67302226Y-2837198D01*
X67279957Y-2831231D01*
X67259989Y-2819702D01*
X67229062Y-2806892D01*
X67173514Y-2769775D01*
X67149962Y-2756178D01*
X67143515Y-2749731D01*
X67135378Y-2744294D01*
X67055705Y-2664621D01*
X67050267Y-2656483D01*
X67043822Y-2650038D01*
X67030226Y-2626489D01*
X66993107Y-2570937D01*
X66980295Y-2540006D01*
X66968769Y-2520043D01*
X66962802Y-2497777D01*
X66949989Y-2466842D01*
X66936955Y-2401314D01*
X66929919Y-2375053D01*
X66929919Y-2365935D01*
X66928010Y-2356338D01*
X66928010Y-2243661D01*
X66929919Y-2234063D01*
X66929919Y-2224947D01*
X66936954Y-2198688D01*
X66949989Y-2133157D01*
X66962803Y-2102220D01*
X66968769Y-2079957D01*
X66980293Y-2059995D01*
X66993107Y-2029062D01*
X67030230Y-1973503D01*
X67043822Y-1949962D01*
X67050265Y-1943518D01*
X67055705Y-1935378D01*
X67135378Y-1855705D01*
X67143518Y-1850265D01*
X67149962Y-1843822D01*
X67173503Y-1830230D01*
X67229062Y-1793107D01*
X67259995Y-1780293D01*
X67279957Y-1768769D01*
X67302220Y-1762803D01*
X67333157Y-1749989D01*
X67398687Y-1736955D01*
X67424947Y-1729919D01*
X67434064Y-1729919D01*
X67443662Y-1728010D01*
X67556338Y-1728010D01*
X67565936Y-1729919D01*
G37*
M02*
