%TF.GenerationSoftware,KiCad,Pcbnew,10.0.5*%
%TF.CreationDate,2026-08-16T07:17:35-04:00*%
%TF.ProjectId,hr30-carrier-a-p0.1,68723330-2d63-4617-9272-6965722d612d,rev?*%
%TF.SameCoordinates,Original*%
%TF.FileFunction,Soldermask,Top*%
%TF.FilePolarity,Negative*%
%FSLAX46Y46*%
G04 Gerber Fmt 4.6, Leading zero omitted, Abs format (unit mm)*
G04 Created by KiCad (PCBNEW 10.0.5) date 2026-08-16 07:17:35*
%MOMM*%
%LPD*%
G01*
G04 APERTURE LIST*
G04 APERTURE END LIST*
G36*
X32457403Y-39111418D02*
G01*
X32506066Y-39143934D01*
X32538582Y-39192597D01*
X32550000Y-39250000D01*
X32550000Y-40650000D01*
X32538582Y-40707403D01*
X32506066Y-40756066D01*
X32457403Y-40788582D01*
X32400000Y-40800000D01*
X32100000Y-40800000D01*
X32042597Y-40788582D01*
X31993934Y-40756066D01*
X31961418Y-40707403D01*
X31950000Y-40650000D01*
X31950000Y-39250000D01*
X31961418Y-39192597D01*
X31993934Y-39143934D01*
X32042597Y-39111418D01*
X32100000Y-39100000D01*
X32400000Y-39100000D01*
X32457403Y-39111418D01*
G37*
G36*
X33707403Y-39111418D02*
G01*
X33756066Y-39143934D01*
X33788582Y-39192597D01*
X33800000Y-39250000D01*
X33800000Y-40650000D01*
X33788582Y-40707403D01*
X33756066Y-40756066D01*
X33707403Y-40788582D01*
X33650000Y-40800000D01*
X33350000Y-40800000D01*
X33292597Y-40788582D01*
X33243934Y-40756066D01*
X33211418Y-40707403D01*
X33200000Y-40650000D01*
X33200000Y-39250000D01*
X33211418Y-39192597D01*
X33243934Y-39143934D01*
X33292597Y-39111418D01*
X33350000Y-39100000D01*
X33650000Y-39100000D01*
X33707403Y-39111418D01*
G37*
G36*
X34957403Y-39111418D02*
G01*
X35006066Y-39143934D01*
X35038582Y-39192597D01*
X35050000Y-39250000D01*
X35050000Y-40650000D01*
X35038582Y-40707403D01*
X35006066Y-40756066D01*
X34957403Y-40788582D01*
X34900000Y-40800000D01*
X34600000Y-40800000D01*
X34542597Y-40788582D01*
X34493934Y-40756066D01*
X34461418Y-40707403D01*
X34450000Y-40650000D01*
X34450000Y-39250000D01*
X34461418Y-39192597D01*
X34493934Y-39143934D01*
X34542597Y-39111418D01*
X34600000Y-39100000D01*
X34900000Y-39100000D01*
X34957403Y-39111418D01*
G37*
G36*
X36207403Y-39111418D02*
G01*
X36256066Y-39143934D01*
X36288582Y-39192597D01*
X36300000Y-39250000D01*
X36300000Y-40650000D01*
X36288582Y-40707403D01*
X36256066Y-40756066D01*
X36207403Y-40788582D01*
X36150000Y-40800000D01*
X35850000Y-40800000D01*
X35792597Y-40788582D01*
X35743934Y-40756066D01*
X35711418Y-40707403D01*
X35700000Y-40650000D01*
X35700000Y-39250000D01*
X35711418Y-39192597D01*
X35743934Y-39143934D01*
X35792597Y-39111418D01*
X35850000Y-39100000D01*
X36150000Y-39100000D01*
X36207403Y-39111418D01*
G37*
G36*
X37457403Y-39111418D02*
G01*
X37506066Y-39143934D01*
X37538582Y-39192597D01*
X37550000Y-39250000D01*
X37550000Y-40650000D01*
X37538582Y-40707403D01*
X37506066Y-40756066D01*
X37457403Y-40788582D01*
X37400000Y-40800000D01*
X37100000Y-40800000D01*
X37042597Y-40788582D01*
X36993934Y-40756066D01*
X36961418Y-40707403D01*
X36950000Y-40650000D01*
X36950000Y-39250000D01*
X36961418Y-39192597D01*
X36993934Y-39143934D01*
X37042597Y-39111418D01*
X37100000Y-39100000D01*
X37400000Y-39100000D01*
X37457403Y-39111418D01*
G37*
G36*
X38707403Y-39111418D02*
G01*
X38756066Y-39143934D01*
X38788582Y-39192597D01*
X38800000Y-39250000D01*
X38800000Y-40650000D01*
X38788582Y-40707403D01*
X38756066Y-40756066D01*
X38707403Y-40788582D01*
X38650000Y-40800000D01*
X38350000Y-40800000D01*
X38292597Y-40788582D01*
X38243934Y-40756066D01*
X38211418Y-40707403D01*
X38200000Y-40650000D01*
X38200000Y-39250000D01*
X38211418Y-39192597D01*
X38243934Y-39143934D01*
X38292597Y-39111418D01*
X38350000Y-39100000D01*
X38650000Y-39100000D01*
X38707403Y-39111418D01*
G37*
G36*
X39957403Y-39111418D02*
G01*
X40006066Y-39143934D01*
X40038582Y-39192597D01*
X40050000Y-39250000D01*
X40050000Y-40650000D01*
X40038582Y-40707403D01*
X40006066Y-40756066D01*
X39957403Y-40788582D01*
X39900000Y-40800000D01*
X39600000Y-40800000D01*
X39542597Y-40788582D01*
X39493934Y-40756066D01*
X39461418Y-40707403D01*
X39450000Y-40650000D01*
X39450000Y-39250000D01*
X39461418Y-39192597D01*
X39493934Y-39143934D01*
X39542597Y-39111418D01*
X39600000Y-39100000D01*
X39900000Y-39100000D01*
X39957403Y-39111418D01*
G37*
G36*
X41207403Y-39111418D02*
G01*
X41256066Y-39143934D01*
X41288582Y-39192597D01*
X41300000Y-39250000D01*
X41300000Y-40650000D01*
X41288582Y-40707403D01*
X41256066Y-40756066D01*
X41207403Y-40788582D01*
X41150000Y-40800000D01*
X40850000Y-40800000D01*
X40792597Y-40788582D01*
X40743934Y-40756066D01*
X40711418Y-40707403D01*
X40700000Y-40650000D01*
X40700000Y-39250000D01*
X40711418Y-39192597D01*
X40743934Y-39143934D01*
X40792597Y-39111418D01*
X40850000Y-39100000D01*
X41150000Y-39100000D01*
X41207403Y-39111418D01*
G37*
G36*
X42457403Y-39111418D02*
G01*
X42506066Y-39143934D01*
X42538582Y-39192597D01*
X42550000Y-39250000D01*
X42550000Y-40650000D01*
X42538582Y-40707403D01*
X42506066Y-40756066D01*
X42457403Y-40788582D01*
X42400000Y-40800000D01*
X42100000Y-40800000D01*
X42042597Y-40788582D01*
X41993934Y-40756066D01*
X41961418Y-40707403D01*
X41950000Y-40650000D01*
X41950000Y-39250000D01*
X41961418Y-39192597D01*
X41993934Y-39143934D01*
X42042597Y-39111418D01*
X42100000Y-39100000D01*
X42400000Y-39100000D01*
X42457403Y-39111418D01*
G37*
G36*
X43707403Y-39111418D02*
G01*
X43756066Y-39143934D01*
X43788582Y-39192597D01*
X43800000Y-39250000D01*
X43800000Y-40650000D01*
X43788582Y-40707403D01*
X43756066Y-40756066D01*
X43707403Y-40788582D01*
X43650000Y-40800000D01*
X43350000Y-40800000D01*
X43292597Y-40788582D01*
X43243934Y-40756066D01*
X43211418Y-40707403D01*
X43200000Y-40650000D01*
X43200000Y-39250000D01*
X43211418Y-39192597D01*
X43243934Y-39143934D01*
X43292597Y-39111418D01*
X43350000Y-39100000D01*
X43650000Y-39100000D01*
X43707403Y-39111418D01*
G37*
G36*
X44957403Y-39111418D02*
G01*
X45006066Y-39143934D01*
X45038582Y-39192597D01*
X45050000Y-39250000D01*
X45050000Y-40650000D01*
X45038582Y-40707403D01*
X45006066Y-40756066D01*
X44957403Y-40788582D01*
X44900000Y-40800000D01*
X44600000Y-40800000D01*
X44542597Y-40788582D01*
X44493934Y-40756066D01*
X44461418Y-40707403D01*
X44450000Y-40650000D01*
X44450000Y-39250000D01*
X44461418Y-39192597D01*
X44493934Y-39143934D01*
X44542597Y-39111418D01*
X44600000Y-39100000D01*
X44900000Y-39100000D01*
X44957403Y-39111418D01*
G37*
G36*
X46207403Y-39111418D02*
G01*
X46256066Y-39143934D01*
X46288582Y-39192597D01*
X46300000Y-39250000D01*
X46300000Y-40650000D01*
X46288582Y-40707403D01*
X46256066Y-40756066D01*
X46207403Y-40788582D01*
X46150000Y-40800000D01*
X45850000Y-40800000D01*
X45792597Y-40788582D01*
X45743934Y-40756066D01*
X45711418Y-40707403D01*
X45700000Y-40650000D01*
X45700000Y-39250000D01*
X45711418Y-39192597D01*
X45743934Y-39143934D01*
X45792597Y-39111418D01*
X45850000Y-39100000D01*
X46150000Y-39100000D01*
X46207403Y-39111418D01*
G37*
G36*
X47457403Y-39111418D02*
G01*
X47506066Y-39143934D01*
X47538582Y-39192597D01*
X47550000Y-39250000D01*
X47550000Y-40650000D01*
X47538582Y-40707403D01*
X47506066Y-40756066D01*
X47457403Y-40788582D01*
X47400000Y-40800000D01*
X47100000Y-40800000D01*
X47042597Y-40788582D01*
X46993934Y-40756066D01*
X46961418Y-40707403D01*
X46950000Y-40650000D01*
X46950000Y-39250000D01*
X46961418Y-39192597D01*
X46993934Y-39143934D01*
X47042597Y-39111418D01*
X47100000Y-39100000D01*
X47400000Y-39100000D01*
X47457403Y-39111418D01*
G37*
G36*
X48707403Y-39111418D02*
G01*
X48756066Y-39143934D01*
X48788582Y-39192597D01*
X48800000Y-39250000D01*
X48800000Y-40650000D01*
X48788582Y-40707403D01*
X48756066Y-40756066D01*
X48707403Y-40788582D01*
X48650000Y-40800000D01*
X48350000Y-40800000D01*
X48292597Y-40788582D01*
X48243934Y-40756066D01*
X48211418Y-40707403D01*
X48200000Y-40650000D01*
X48200000Y-39250000D01*
X48211418Y-39192597D01*
X48243934Y-39143934D01*
X48292597Y-39111418D01*
X48350000Y-39100000D01*
X48650000Y-39100000D01*
X48707403Y-39111418D01*
G37*
G36*
X49957403Y-39111418D02*
G01*
X50006066Y-39143934D01*
X50038582Y-39192597D01*
X50050000Y-39250000D01*
X50050000Y-40650000D01*
X50038582Y-40707403D01*
X50006066Y-40756066D01*
X49957403Y-40788582D01*
X49900000Y-40800000D01*
X49600000Y-40800000D01*
X49542597Y-40788582D01*
X49493934Y-40756066D01*
X49461418Y-40707403D01*
X49450000Y-40650000D01*
X49450000Y-39250000D01*
X49461418Y-39192597D01*
X49493934Y-39143934D01*
X49542597Y-39111418D01*
X49600000Y-39100000D01*
X49900000Y-39100000D01*
X49957403Y-39111418D01*
G37*
G36*
X3815151Y-37187301D02*
G01*
X4016623Y-37252763D01*
X4205373Y-37348936D01*
X4376755Y-37473452D01*
X4526548Y-37623245D01*
X4651064Y-37794627D01*
X4747237Y-37983377D01*
X4812699Y-38184849D01*
X4845838Y-38394080D01*
X4845838Y-38605920D01*
X4812699Y-38815151D01*
X4747237Y-39016623D01*
X4651064Y-39205373D01*
X4526548Y-39376755D01*
X4376755Y-39526548D01*
X4205373Y-39651064D01*
X4016623Y-39747237D01*
X3815151Y-39812699D01*
X3605920Y-39845838D01*
X3394080Y-39845838D01*
X3184849Y-39812699D01*
X2983377Y-39747237D01*
X2794627Y-39651064D01*
X2623245Y-39526548D01*
X2473452Y-39376755D01*
X2348936Y-39205373D01*
X2252763Y-39016623D01*
X2187301Y-38815151D01*
X2154162Y-38605920D01*
X2154162Y-38394080D01*
X2187301Y-38184849D01*
X2252763Y-37983377D01*
X2348936Y-37794627D01*
X2473452Y-37623245D01*
X2623245Y-37473452D01*
X2794627Y-37348936D01*
X2983377Y-37252763D01*
X3184849Y-37187301D01*
X3394080Y-37154162D01*
X3605920Y-37154162D01*
X3815151Y-37187301D01*
G37*
G36*
X78815151Y-37187301D02*
G01*
X79016623Y-37252763D01*
X79205373Y-37348936D01*
X79376755Y-37473452D01*
X79526548Y-37623245D01*
X79651064Y-37794627D01*
X79747237Y-37983377D01*
X79812699Y-38184849D01*
X79845838Y-38394080D01*
X79845838Y-38605920D01*
X79812699Y-38815151D01*
X79747237Y-39016623D01*
X79651064Y-39205373D01*
X79526548Y-39376755D01*
X79376755Y-39526548D01*
X79205373Y-39651064D01*
X79016623Y-39747237D01*
X78815151Y-39812699D01*
X78605920Y-39845838D01*
X78394080Y-39845838D01*
X78184849Y-39812699D01*
X77983377Y-39747237D01*
X77794627Y-39651064D01*
X77623245Y-39526548D01*
X77473452Y-39376755D01*
X77348936Y-39205373D01*
X77252763Y-39016623D01*
X77187301Y-38815151D01*
X77154162Y-38605920D01*
X77154162Y-38394080D01*
X77187301Y-38184849D01*
X77252763Y-37983377D01*
X77348936Y-37794627D01*
X77473452Y-37623245D01*
X77623245Y-37473452D01*
X77794627Y-37348936D01*
X77983377Y-37252763D01*
X78184849Y-37187301D01*
X78394080Y-37154162D01*
X78605920Y-37154162D01*
X78815151Y-37187301D01*
G37*
G36*
X30654047Y-35200805D02*
G01*
X30705408Y-35206764D01*
X30722954Y-35214511D01*
X30745671Y-35219030D01*
X30769991Y-35235280D01*
X30790793Y-35244465D01*
X30805000Y-35258672D01*
X30826777Y-35273223D01*
X30841327Y-35294999D01*
X30855534Y-35309206D01*
X30864718Y-35330006D01*
X30880970Y-35354329D01*
X30885489Y-35377048D01*
X30893235Y-35394591D01*
X30899192Y-35445940D01*
X30900000Y-35450000D01*
X30900000Y-37750000D01*
X30899192Y-37754059D01*
X30893235Y-37805408D01*
X30885489Y-37822950D01*
X30880970Y-37845671D01*
X30864716Y-37869995D01*
X30855534Y-37890793D01*
X30841329Y-37904997D01*
X30826777Y-37926777D01*
X30804997Y-37941329D01*
X30790793Y-37955534D01*
X30769995Y-37964716D01*
X30745671Y-37980970D01*
X30722950Y-37985489D01*
X30705408Y-37993235D01*
X30654061Y-37999192D01*
X30650000Y-38000000D01*
X30150000Y-38000000D01*
X30145941Y-37999192D01*
X30094591Y-37993235D01*
X30077048Y-37985489D01*
X30054329Y-37980970D01*
X30030006Y-37964718D01*
X30009206Y-37955534D01*
X29994999Y-37941327D01*
X29973223Y-37926777D01*
X29958672Y-37905000D01*
X29944465Y-37890793D01*
X29935280Y-37869991D01*
X29919030Y-37845671D01*
X29914511Y-37822954D01*
X29906764Y-37805408D01*
X29900805Y-37754049D01*
X29900000Y-37750000D01*
X29900000Y-35450000D01*
X29900804Y-35445953D01*
X29906764Y-35394591D01*
X29914511Y-35377043D01*
X29919030Y-35354329D01*
X29935278Y-35330010D01*
X29944465Y-35309206D01*
X29958674Y-35294996D01*
X29973223Y-35273223D01*
X29994996Y-35258674D01*
X30009206Y-35244465D01*
X30030010Y-35235278D01*
X30054329Y-35219030D01*
X30077043Y-35214511D01*
X30094591Y-35206764D01*
X30145952Y-35200805D01*
X30150000Y-35200000D01*
X30650000Y-35200000D01*
X30654047Y-35200805D01*
G37*
G36*
X51854047Y-35200805D02*
G01*
X51905408Y-35206764D01*
X51922954Y-35214511D01*
X51945671Y-35219030D01*
X51969991Y-35235280D01*
X51990793Y-35244465D01*
X52005000Y-35258672D01*
X52026777Y-35273223D01*
X52041327Y-35294999D01*
X52055534Y-35309206D01*
X52064718Y-35330006D01*
X52080970Y-35354329D01*
X52085489Y-35377048D01*
X52093235Y-35394591D01*
X52099192Y-35445940D01*
X52100000Y-35450000D01*
X52100000Y-37750000D01*
X52099192Y-37754059D01*
X52093235Y-37805408D01*
X52085489Y-37822950D01*
X52080970Y-37845671D01*
X52064716Y-37869995D01*
X52055534Y-37890793D01*
X52041329Y-37904997D01*
X52026777Y-37926777D01*
X52004997Y-37941329D01*
X51990793Y-37955534D01*
X51969995Y-37964716D01*
X51945671Y-37980970D01*
X51922950Y-37985489D01*
X51905408Y-37993235D01*
X51854061Y-37999192D01*
X51850000Y-38000000D01*
X51350000Y-38000000D01*
X51345941Y-37999192D01*
X51294591Y-37993235D01*
X51277048Y-37985489D01*
X51254329Y-37980970D01*
X51230006Y-37964718D01*
X51209206Y-37955534D01*
X51194999Y-37941327D01*
X51173223Y-37926777D01*
X51158672Y-37905000D01*
X51144465Y-37890793D01*
X51135280Y-37869991D01*
X51119030Y-37845671D01*
X51114511Y-37822954D01*
X51106764Y-37805408D01*
X51100805Y-37754049D01*
X51100000Y-37750000D01*
X51100000Y-35450000D01*
X51100804Y-35445953D01*
X51106764Y-35394591D01*
X51114511Y-35377043D01*
X51119030Y-35354329D01*
X51135278Y-35330010D01*
X51144465Y-35309206D01*
X51158674Y-35294996D01*
X51173223Y-35273223D01*
X51194996Y-35258674D01*
X51209206Y-35244465D01*
X51230010Y-35235278D01*
X51254329Y-35219030D01*
X51277043Y-35214511D01*
X51294591Y-35206764D01*
X51345952Y-35200805D01*
X51350000Y-35200000D01*
X51850000Y-35200000D01*
X51854047Y-35200805D01*
G37*
G36*
X5492403Y-23636418D02*
G01*
X5541066Y-23668934D01*
X5573582Y-23717597D01*
X5585000Y-23775000D01*
X5585000Y-25525000D01*
X5573582Y-25582403D01*
X5541066Y-25631066D01*
X5492403Y-25663582D01*
X5435000Y-25675000D01*
X5135000Y-25675000D01*
X5077597Y-25663582D01*
X5028934Y-25631066D01*
X4996418Y-25582403D01*
X4985000Y-25525000D01*
X4985000Y-23775000D01*
X4996418Y-23717597D01*
X5028934Y-23668934D01*
X5077597Y-23636418D01*
X5135000Y-23625000D01*
X5435000Y-23625000D01*
X5492403Y-23636418D01*
G37*
G36*
X6762403Y-23636418D02*
G01*
X6811066Y-23668934D01*
X6843582Y-23717597D01*
X6855000Y-23775000D01*
X6855000Y-25525000D01*
X6843582Y-25582403D01*
X6811066Y-25631066D01*
X6762403Y-25663582D01*
X6705000Y-25675000D01*
X6405000Y-25675000D01*
X6347597Y-25663582D01*
X6298934Y-25631066D01*
X6266418Y-25582403D01*
X6255000Y-25525000D01*
X6255000Y-23775000D01*
X6266418Y-23717597D01*
X6298934Y-23668934D01*
X6347597Y-23636418D01*
X6405000Y-23625000D01*
X6705000Y-23625000D01*
X6762403Y-23636418D01*
G37*
G36*
X8032403Y-23636418D02*
G01*
X8081066Y-23668934D01*
X8113582Y-23717597D01*
X8125000Y-23775000D01*
X8125000Y-25525000D01*
X8113582Y-25582403D01*
X8081066Y-25631066D01*
X8032403Y-25663582D01*
X7975000Y-25675000D01*
X7675000Y-25675000D01*
X7617597Y-25663582D01*
X7568934Y-25631066D01*
X7536418Y-25582403D01*
X7525000Y-25525000D01*
X7525000Y-23775000D01*
X7536418Y-23717597D01*
X7568934Y-23668934D01*
X7617597Y-23636418D01*
X7675000Y-23625000D01*
X7975000Y-23625000D01*
X8032403Y-23636418D01*
G37*
G36*
X9302403Y-23636418D02*
G01*
X9351066Y-23668934D01*
X9383582Y-23717597D01*
X9395000Y-23775000D01*
X9395000Y-25525000D01*
X9383582Y-25582403D01*
X9351066Y-25631066D01*
X9302403Y-25663582D01*
X9245000Y-25675000D01*
X8945000Y-25675000D01*
X8887597Y-25663582D01*
X8838934Y-25631066D01*
X8806418Y-25582403D01*
X8795000Y-25525000D01*
X8795000Y-23775000D01*
X8806418Y-23717597D01*
X8838934Y-23668934D01*
X8887597Y-23636418D01*
X8945000Y-23625000D01*
X9245000Y-23625000D01*
X9302403Y-23636418D01*
G37*
G36*
X10572403Y-23636418D02*
G01*
X10621066Y-23668934D01*
X10653582Y-23717597D01*
X10665000Y-23775000D01*
X10665000Y-25525000D01*
X10653582Y-25582403D01*
X10621066Y-25631066D01*
X10572403Y-25663582D01*
X10515000Y-25675000D01*
X10215000Y-25675000D01*
X10157597Y-25663582D01*
X10108934Y-25631066D01*
X10076418Y-25582403D01*
X10065000Y-25525000D01*
X10065000Y-23775000D01*
X10076418Y-23717597D01*
X10108934Y-23668934D01*
X10157597Y-23636418D01*
X10215000Y-23625000D01*
X10515000Y-23625000D01*
X10572403Y-23636418D01*
G37*
G36*
X11842403Y-23636418D02*
G01*
X11891066Y-23668934D01*
X11923582Y-23717597D01*
X11935000Y-23775000D01*
X11935000Y-25525000D01*
X11923582Y-25582403D01*
X11891066Y-25631066D01*
X11842403Y-25663582D01*
X11785000Y-25675000D01*
X11485000Y-25675000D01*
X11427597Y-25663582D01*
X11378934Y-25631066D01*
X11346418Y-25582403D01*
X11335000Y-25525000D01*
X11335000Y-23775000D01*
X11346418Y-23717597D01*
X11378934Y-23668934D01*
X11427597Y-23636418D01*
X11485000Y-23625000D01*
X11785000Y-23625000D01*
X11842403Y-23636418D01*
G37*
G36*
X13112403Y-23636418D02*
G01*
X13161066Y-23668934D01*
X13193582Y-23717597D01*
X13205000Y-23775000D01*
X13205000Y-25525000D01*
X13193582Y-25582403D01*
X13161066Y-25631066D01*
X13112403Y-25663582D01*
X13055000Y-25675000D01*
X12755000Y-25675000D01*
X12697597Y-25663582D01*
X12648934Y-25631066D01*
X12616418Y-25582403D01*
X12605000Y-25525000D01*
X12605000Y-23775000D01*
X12616418Y-23717597D01*
X12648934Y-23668934D01*
X12697597Y-23636418D01*
X12755000Y-23625000D01*
X13055000Y-23625000D01*
X13112403Y-23636418D01*
G37*
G36*
X14382403Y-23636418D02*
G01*
X14431066Y-23668934D01*
X14463582Y-23717597D01*
X14475000Y-23775000D01*
X14475000Y-25525000D01*
X14463582Y-25582403D01*
X14431066Y-25631066D01*
X14382403Y-25663582D01*
X14325000Y-25675000D01*
X14025000Y-25675000D01*
X13967597Y-25663582D01*
X13918934Y-25631066D01*
X13886418Y-25582403D01*
X13875000Y-25525000D01*
X13875000Y-23775000D01*
X13886418Y-23717597D01*
X13918934Y-23668934D01*
X13967597Y-23636418D01*
X14025000Y-23625000D01*
X14325000Y-23625000D01*
X14382403Y-23636418D01*
G37*
G36*
X15652403Y-23636418D02*
G01*
X15701066Y-23668934D01*
X15733582Y-23717597D01*
X15745000Y-23775000D01*
X15745000Y-25525000D01*
X15733582Y-25582403D01*
X15701066Y-25631066D01*
X15652403Y-25663582D01*
X15595000Y-25675000D01*
X15295000Y-25675000D01*
X15237597Y-25663582D01*
X15188934Y-25631066D01*
X15156418Y-25582403D01*
X15145000Y-25525000D01*
X15145000Y-23775000D01*
X15156418Y-23717597D01*
X15188934Y-23668934D01*
X15237597Y-23636418D01*
X15295000Y-23625000D01*
X15595000Y-23625000D01*
X15652403Y-23636418D01*
G37*
G36*
X16922403Y-23636418D02*
G01*
X16971066Y-23668934D01*
X17003582Y-23717597D01*
X17015000Y-23775000D01*
X17015000Y-25525000D01*
X17003582Y-25582403D01*
X16971066Y-25631066D01*
X16922403Y-25663582D01*
X16865000Y-25675000D01*
X16565000Y-25675000D01*
X16507597Y-25663582D01*
X16458934Y-25631066D01*
X16426418Y-25582403D01*
X16415000Y-25525000D01*
X16415000Y-23775000D01*
X16426418Y-23717597D01*
X16458934Y-23668934D01*
X16507597Y-23636418D01*
X16565000Y-23625000D01*
X16865000Y-23625000D01*
X16922403Y-23636418D01*
G37*
G36*
X25492403Y-23636418D02*
G01*
X25541066Y-23668934D01*
X25573582Y-23717597D01*
X25585000Y-23775000D01*
X25585000Y-25525000D01*
X25573582Y-25582403D01*
X25541066Y-25631066D01*
X25492403Y-25663582D01*
X25435000Y-25675000D01*
X25135000Y-25675000D01*
X25077597Y-25663582D01*
X25028934Y-25631066D01*
X24996418Y-25582403D01*
X24985000Y-25525000D01*
X24985000Y-23775000D01*
X24996418Y-23717597D01*
X25028934Y-23668934D01*
X25077597Y-23636418D01*
X25135000Y-23625000D01*
X25435000Y-23625000D01*
X25492403Y-23636418D01*
G37*
G36*
X26762403Y-23636418D02*
G01*
X26811066Y-23668934D01*
X26843582Y-23717597D01*
X26855000Y-23775000D01*
X26855000Y-25525000D01*
X26843582Y-25582403D01*
X26811066Y-25631066D01*
X26762403Y-25663582D01*
X26705000Y-25675000D01*
X26405000Y-25675000D01*
X26347597Y-25663582D01*
X26298934Y-25631066D01*
X26266418Y-25582403D01*
X26255000Y-25525000D01*
X26255000Y-23775000D01*
X26266418Y-23717597D01*
X26298934Y-23668934D01*
X26347597Y-23636418D01*
X26405000Y-23625000D01*
X26705000Y-23625000D01*
X26762403Y-23636418D01*
G37*
G36*
X28032403Y-23636418D02*
G01*
X28081066Y-23668934D01*
X28113582Y-23717597D01*
X28125000Y-23775000D01*
X28125000Y-25525000D01*
X28113582Y-25582403D01*
X28081066Y-25631066D01*
X28032403Y-25663582D01*
X27975000Y-25675000D01*
X27675000Y-25675000D01*
X27617597Y-25663582D01*
X27568934Y-25631066D01*
X27536418Y-25582403D01*
X27525000Y-25525000D01*
X27525000Y-23775000D01*
X27536418Y-23717597D01*
X27568934Y-23668934D01*
X27617597Y-23636418D01*
X27675000Y-23625000D01*
X27975000Y-23625000D01*
X28032403Y-23636418D01*
G37*
G36*
X29302403Y-23636418D02*
G01*
X29351066Y-23668934D01*
X29383582Y-23717597D01*
X29395000Y-23775000D01*
X29395000Y-25525000D01*
X29383582Y-25582403D01*
X29351066Y-25631066D01*
X29302403Y-25663582D01*
X29245000Y-25675000D01*
X28945000Y-25675000D01*
X28887597Y-25663582D01*
X28838934Y-25631066D01*
X28806418Y-25582403D01*
X28795000Y-25525000D01*
X28795000Y-23775000D01*
X28806418Y-23717597D01*
X28838934Y-23668934D01*
X28887597Y-23636418D01*
X28945000Y-23625000D01*
X29245000Y-23625000D01*
X29302403Y-23636418D01*
G37*
G36*
X30572403Y-23636418D02*
G01*
X30621066Y-23668934D01*
X30653582Y-23717597D01*
X30665000Y-23775000D01*
X30665000Y-25525000D01*
X30653582Y-25582403D01*
X30621066Y-25631066D01*
X30572403Y-25663582D01*
X30515000Y-25675000D01*
X30215000Y-25675000D01*
X30157597Y-25663582D01*
X30108934Y-25631066D01*
X30076418Y-25582403D01*
X30065000Y-25525000D01*
X30065000Y-23775000D01*
X30076418Y-23717597D01*
X30108934Y-23668934D01*
X30157597Y-23636418D01*
X30215000Y-23625000D01*
X30515000Y-23625000D01*
X30572403Y-23636418D01*
G37*
G36*
X31842403Y-23636418D02*
G01*
X31891066Y-23668934D01*
X31923582Y-23717597D01*
X31935000Y-23775000D01*
X31935000Y-25525000D01*
X31923582Y-25582403D01*
X31891066Y-25631066D01*
X31842403Y-25663582D01*
X31785000Y-25675000D01*
X31485000Y-25675000D01*
X31427597Y-25663582D01*
X31378934Y-25631066D01*
X31346418Y-25582403D01*
X31335000Y-25525000D01*
X31335000Y-23775000D01*
X31346418Y-23717597D01*
X31378934Y-23668934D01*
X31427597Y-23636418D01*
X31485000Y-23625000D01*
X31785000Y-23625000D01*
X31842403Y-23636418D01*
G37*
G36*
X33112403Y-23636418D02*
G01*
X33161066Y-23668934D01*
X33193582Y-23717597D01*
X33205000Y-23775000D01*
X33205000Y-25525000D01*
X33193582Y-25582403D01*
X33161066Y-25631066D01*
X33112403Y-25663582D01*
X33055000Y-25675000D01*
X32755000Y-25675000D01*
X32697597Y-25663582D01*
X32648934Y-25631066D01*
X32616418Y-25582403D01*
X32605000Y-25525000D01*
X32605000Y-23775000D01*
X32616418Y-23717597D01*
X32648934Y-23668934D01*
X32697597Y-23636418D01*
X32755000Y-23625000D01*
X33055000Y-23625000D01*
X33112403Y-23636418D01*
G37*
G36*
X34382403Y-23636418D02*
G01*
X34431066Y-23668934D01*
X34463582Y-23717597D01*
X34475000Y-23775000D01*
X34475000Y-25525000D01*
X34463582Y-25582403D01*
X34431066Y-25631066D01*
X34382403Y-25663582D01*
X34325000Y-25675000D01*
X34025000Y-25675000D01*
X33967597Y-25663582D01*
X33918934Y-25631066D01*
X33886418Y-25582403D01*
X33875000Y-25525000D01*
X33875000Y-23775000D01*
X33886418Y-23717597D01*
X33918934Y-23668934D01*
X33967597Y-23636418D01*
X34025000Y-23625000D01*
X34325000Y-23625000D01*
X34382403Y-23636418D01*
G37*
G36*
X35652403Y-23636418D02*
G01*
X35701066Y-23668934D01*
X35733582Y-23717597D01*
X35745000Y-23775000D01*
X35745000Y-25525000D01*
X35733582Y-25582403D01*
X35701066Y-25631066D01*
X35652403Y-25663582D01*
X35595000Y-25675000D01*
X35295000Y-25675000D01*
X35237597Y-25663582D01*
X35188934Y-25631066D01*
X35156418Y-25582403D01*
X35145000Y-25525000D01*
X35145000Y-23775000D01*
X35156418Y-23717597D01*
X35188934Y-23668934D01*
X35237597Y-23636418D01*
X35295000Y-23625000D01*
X35595000Y-23625000D01*
X35652403Y-23636418D01*
G37*
G36*
X36922403Y-23636418D02*
G01*
X36971066Y-23668934D01*
X37003582Y-23717597D01*
X37015000Y-23775000D01*
X37015000Y-25525000D01*
X37003582Y-25582403D01*
X36971066Y-25631066D01*
X36922403Y-25663582D01*
X36865000Y-25675000D01*
X36565000Y-25675000D01*
X36507597Y-25663582D01*
X36458934Y-25631066D01*
X36426418Y-25582403D01*
X36415000Y-25525000D01*
X36415000Y-23775000D01*
X36426418Y-23717597D01*
X36458934Y-23668934D01*
X36507597Y-23636418D01*
X36565000Y-23625000D01*
X36865000Y-23625000D01*
X36922403Y-23636418D01*
G37*
G36*
X45492403Y-23636418D02*
G01*
X45541066Y-23668934D01*
X45573582Y-23717597D01*
X45585000Y-23775000D01*
X45585000Y-25525000D01*
X45573582Y-25582403D01*
X45541066Y-25631066D01*
X45492403Y-25663582D01*
X45435000Y-25675000D01*
X45135000Y-25675000D01*
X45077597Y-25663582D01*
X45028934Y-25631066D01*
X44996418Y-25582403D01*
X44985000Y-25525000D01*
X44985000Y-23775000D01*
X44996418Y-23717597D01*
X45028934Y-23668934D01*
X45077597Y-23636418D01*
X45135000Y-23625000D01*
X45435000Y-23625000D01*
X45492403Y-23636418D01*
G37*
G36*
X46762403Y-23636418D02*
G01*
X46811066Y-23668934D01*
X46843582Y-23717597D01*
X46855000Y-23775000D01*
X46855000Y-25525000D01*
X46843582Y-25582403D01*
X46811066Y-25631066D01*
X46762403Y-25663582D01*
X46705000Y-25675000D01*
X46405000Y-25675000D01*
X46347597Y-25663582D01*
X46298934Y-25631066D01*
X46266418Y-25582403D01*
X46255000Y-25525000D01*
X46255000Y-23775000D01*
X46266418Y-23717597D01*
X46298934Y-23668934D01*
X46347597Y-23636418D01*
X46405000Y-23625000D01*
X46705000Y-23625000D01*
X46762403Y-23636418D01*
G37*
G36*
X48032403Y-23636418D02*
G01*
X48081066Y-23668934D01*
X48113582Y-23717597D01*
X48125000Y-23775000D01*
X48125000Y-25525000D01*
X48113582Y-25582403D01*
X48081066Y-25631066D01*
X48032403Y-25663582D01*
X47975000Y-25675000D01*
X47675000Y-25675000D01*
X47617597Y-25663582D01*
X47568934Y-25631066D01*
X47536418Y-25582403D01*
X47525000Y-25525000D01*
X47525000Y-23775000D01*
X47536418Y-23717597D01*
X47568934Y-23668934D01*
X47617597Y-23636418D01*
X47675000Y-23625000D01*
X47975000Y-23625000D01*
X48032403Y-23636418D01*
G37*
G36*
X49302403Y-23636418D02*
G01*
X49351066Y-23668934D01*
X49383582Y-23717597D01*
X49395000Y-23775000D01*
X49395000Y-25525000D01*
X49383582Y-25582403D01*
X49351066Y-25631066D01*
X49302403Y-25663582D01*
X49245000Y-25675000D01*
X48945000Y-25675000D01*
X48887597Y-25663582D01*
X48838934Y-25631066D01*
X48806418Y-25582403D01*
X48795000Y-25525000D01*
X48795000Y-23775000D01*
X48806418Y-23717597D01*
X48838934Y-23668934D01*
X48887597Y-23636418D01*
X48945000Y-23625000D01*
X49245000Y-23625000D01*
X49302403Y-23636418D01*
G37*
G36*
X50572403Y-23636418D02*
G01*
X50621066Y-23668934D01*
X50653582Y-23717597D01*
X50665000Y-23775000D01*
X50665000Y-25525000D01*
X50653582Y-25582403D01*
X50621066Y-25631066D01*
X50572403Y-25663582D01*
X50515000Y-25675000D01*
X50215000Y-25675000D01*
X50157597Y-25663582D01*
X50108934Y-25631066D01*
X50076418Y-25582403D01*
X50065000Y-25525000D01*
X50065000Y-23775000D01*
X50076418Y-23717597D01*
X50108934Y-23668934D01*
X50157597Y-23636418D01*
X50215000Y-23625000D01*
X50515000Y-23625000D01*
X50572403Y-23636418D01*
G37*
G36*
X51842403Y-23636418D02*
G01*
X51891066Y-23668934D01*
X51923582Y-23717597D01*
X51935000Y-23775000D01*
X51935000Y-25525000D01*
X51923582Y-25582403D01*
X51891066Y-25631066D01*
X51842403Y-25663582D01*
X51785000Y-25675000D01*
X51485000Y-25675000D01*
X51427597Y-25663582D01*
X51378934Y-25631066D01*
X51346418Y-25582403D01*
X51335000Y-25525000D01*
X51335000Y-23775000D01*
X51346418Y-23717597D01*
X51378934Y-23668934D01*
X51427597Y-23636418D01*
X51485000Y-23625000D01*
X51785000Y-23625000D01*
X51842403Y-23636418D01*
G37*
G36*
X53112403Y-23636418D02*
G01*
X53161066Y-23668934D01*
X53193582Y-23717597D01*
X53205000Y-23775000D01*
X53205000Y-25525000D01*
X53193582Y-25582403D01*
X53161066Y-25631066D01*
X53112403Y-25663582D01*
X53055000Y-25675000D01*
X52755000Y-25675000D01*
X52697597Y-25663582D01*
X52648934Y-25631066D01*
X52616418Y-25582403D01*
X52605000Y-25525000D01*
X52605000Y-23775000D01*
X52616418Y-23717597D01*
X52648934Y-23668934D01*
X52697597Y-23636418D01*
X52755000Y-23625000D01*
X53055000Y-23625000D01*
X53112403Y-23636418D01*
G37*
G36*
X54382403Y-23636418D02*
G01*
X54431066Y-23668934D01*
X54463582Y-23717597D01*
X54475000Y-23775000D01*
X54475000Y-25525000D01*
X54463582Y-25582403D01*
X54431066Y-25631066D01*
X54382403Y-25663582D01*
X54325000Y-25675000D01*
X54025000Y-25675000D01*
X53967597Y-25663582D01*
X53918934Y-25631066D01*
X53886418Y-25582403D01*
X53875000Y-25525000D01*
X53875000Y-23775000D01*
X53886418Y-23717597D01*
X53918934Y-23668934D01*
X53967597Y-23636418D01*
X54025000Y-23625000D01*
X54325000Y-23625000D01*
X54382403Y-23636418D01*
G37*
G36*
X55652403Y-23636418D02*
G01*
X55701066Y-23668934D01*
X55733582Y-23717597D01*
X55745000Y-23775000D01*
X55745000Y-25525000D01*
X55733582Y-25582403D01*
X55701066Y-25631066D01*
X55652403Y-25663582D01*
X55595000Y-25675000D01*
X55295000Y-25675000D01*
X55237597Y-25663582D01*
X55188934Y-25631066D01*
X55156418Y-25582403D01*
X55145000Y-25525000D01*
X55145000Y-23775000D01*
X55156418Y-23717597D01*
X55188934Y-23668934D01*
X55237597Y-23636418D01*
X55295000Y-23625000D01*
X55595000Y-23625000D01*
X55652403Y-23636418D01*
G37*
G36*
X56922403Y-23636418D02*
G01*
X56971066Y-23668934D01*
X57003582Y-23717597D01*
X57015000Y-23775000D01*
X57015000Y-25525000D01*
X57003582Y-25582403D01*
X56971066Y-25631066D01*
X56922403Y-25663582D01*
X56865000Y-25675000D01*
X56565000Y-25675000D01*
X56507597Y-25663582D01*
X56458934Y-25631066D01*
X56426418Y-25582403D01*
X56415000Y-25525000D01*
X56415000Y-23775000D01*
X56426418Y-23717597D01*
X56458934Y-23668934D01*
X56507597Y-23636418D01*
X56565000Y-23625000D01*
X56865000Y-23625000D01*
X56922403Y-23636418D01*
G37*
G36*
X65492403Y-23636418D02*
G01*
X65541066Y-23668934D01*
X65573582Y-23717597D01*
X65585000Y-23775000D01*
X65585000Y-25525000D01*
X65573582Y-25582403D01*
X65541066Y-25631066D01*
X65492403Y-25663582D01*
X65435000Y-25675000D01*
X65135000Y-25675000D01*
X65077597Y-25663582D01*
X65028934Y-25631066D01*
X64996418Y-25582403D01*
X64985000Y-25525000D01*
X64985000Y-23775000D01*
X64996418Y-23717597D01*
X65028934Y-23668934D01*
X65077597Y-23636418D01*
X65135000Y-23625000D01*
X65435000Y-23625000D01*
X65492403Y-23636418D01*
G37*
G36*
X66762403Y-23636418D02*
G01*
X66811066Y-23668934D01*
X66843582Y-23717597D01*
X66855000Y-23775000D01*
X66855000Y-25525000D01*
X66843582Y-25582403D01*
X66811066Y-25631066D01*
X66762403Y-25663582D01*
X66705000Y-25675000D01*
X66405000Y-25675000D01*
X66347597Y-25663582D01*
X66298934Y-25631066D01*
X66266418Y-25582403D01*
X66255000Y-25525000D01*
X66255000Y-23775000D01*
X66266418Y-23717597D01*
X66298934Y-23668934D01*
X66347597Y-23636418D01*
X66405000Y-23625000D01*
X66705000Y-23625000D01*
X66762403Y-23636418D01*
G37*
G36*
X68032403Y-23636418D02*
G01*
X68081066Y-23668934D01*
X68113582Y-23717597D01*
X68125000Y-23775000D01*
X68125000Y-25525000D01*
X68113582Y-25582403D01*
X68081066Y-25631066D01*
X68032403Y-25663582D01*
X67975000Y-25675000D01*
X67675000Y-25675000D01*
X67617597Y-25663582D01*
X67568934Y-25631066D01*
X67536418Y-25582403D01*
X67525000Y-25525000D01*
X67525000Y-23775000D01*
X67536418Y-23717597D01*
X67568934Y-23668934D01*
X67617597Y-23636418D01*
X67675000Y-23625000D01*
X67975000Y-23625000D01*
X68032403Y-23636418D01*
G37*
G36*
X69302403Y-23636418D02*
G01*
X69351066Y-23668934D01*
X69383582Y-23717597D01*
X69395000Y-23775000D01*
X69395000Y-25525000D01*
X69383582Y-25582403D01*
X69351066Y-25631066D01*
X69302403Y-25663582D01*
X69245000Y-25675000D01*
X68945000Y-25675000D01*
X68887597Y-25663582D01*
X68838934Y-25631066D01*
X68806418Y-25582403D01*
X68795000Y-25525000D01*
X68795000Y-23775000D01*
X68806418Y-23717597D01*
X68838934Y-23668934D01*
X68887597Y-23636418D01*
X68945000Y-23625000D01*
X69245000Y-23625000D01*
X69302403Y-23636418D01*
G37*
G36*
X70572403Y-23636418D02*
G01*
X70621066Y-23668934D01*
X70653582Y-23717597D01*
X70665000Y-23775000D01*
X70665000Y-25525000D01*
X70653582Y-25582403D01*
X70621066Y-25631066D01*
X70572403Y-25663582D01*
X70515000Y-25675000D01*
X70215000Y-25675000D01*
X70157597Y-25663582D01*
X70108934Y-25631066D01*
X70076418Y-25582403D01*
X70065000Y-25525000D01*
X70065000Y-23775000D01*
X70076418Y-23717597D01*
X70108934Y-23668934D01*
X70157597Y-23636418D01*
X70215000Y-23625000D01*
X70515000Y-23625000D01*
X70572403Y-23636418D01*
G37*
G36*
X71842403Y-23636418D02*
G01*
X71891066Y-23668934D01*
X71923582Y-23717597D01*
X71935000Y-23775000D01*
X71935000Y-25525000D01*
X71923582Y-25582403D01*
X71891066Y-25631066D01*
X71842403Y-25663582D01*
X71785000Y-25675000D01*
X71485000Y-25675000D01*
X71427597Y-25663582D01*
X71378934Y-25631066D01*
X71346418Y-25582403D01*
X71335000Y-25525000D01*
X71335000Y-23775000D01*
X71346418Y-23717597D01*
X71378934Y-23668934D01*
X71427597Y-23636418D01*
X71485000Y-23625000D01*
X71785000Y-23625000D01*
X71842403Y-23636418D01*
G37*
G36*
X73112403Y-23636418D02*
G01*
X73161066Y-23668934D01*
X73193582Y-23717597D01*
X73205000Y-23775000D01*
X73205000Y-25525000D01*
X73193582Y-25582403D01*
X73161066Y-25631066D01*
X73112403Y-25663582D01*
X73055000Y-25675000D01*
X72755000Y-25675000D01*
X72697597Y-25663582D01*
X72648934Y-25631066D01*
X72616418Y-25582403D01*
X72605000Y-25525000D01*
X72605000Y-23775000D01*
X72616418Y-23717597D01*
X72648934Y-23668934D01*
X72697597Y-23636418D01*
X72755000Y-23625000D01*
X73055000Y-23625000D01*
X73112403Y-23636418D01*
G37*
G36*
X74382403Y-23636418D02*
G01*
X74431066Y-23668934D01*
X74463582Y-23717597D01*
X74475000Y-23775000D01*
X74475000Y-25525000D01*
X74463582Y-25582403D01*
X74431066Y-25631066D01*
X74382403Y-25663582D01*
X74325000Y-25675000D01*
X74025000Y-25675000D01*
X73967597Y-25663582D01*
X73918934Y-25631066D01*
X73886418Y-25582403D01*
X73875000Y-25525000D01*
X73875000Y-23775000D01*
X73886418Y-23717597D01*
X73918934Y-23668934D01*
X73967597Y-23636418D01*
X74025000Y-23625000D01*
X74325000Y-23625000D01*
X74382403Y-23636418D01*
G37*
G36*
X75652403Y-23636418D02*
G01*
X75701066Y-23668934D01*
X75733582Y-23717597D01*
X75745000Y-23775000D01*
X75745000Y-25525000D01*
X75733582Y-25582403D01*
X75701066Y-25631066D01*
X75652403Y-25663582D01*
X75595000Y-25675000D01*
X75295000Y-25675000D01*
X75237597Y-25663582D01*
X75188934Y-25631066D01*
X75156418Y-25582403D01*
X75145000Y-25525000D01*
X75145000Y-23775000D01*
X75156418Y-23717597D01*
X75188934Y-23668934D01*
X75237597Y-23636418D01*
X75295000Y-23625000D01*
X75595000Y-23625000D01*
X75652403Y-23636418D01*
G37*
G36*
X76922403Y-23636418D02*
G01*
X76971066Y-23668934D01*
X77003582Y-23717597D01*
X77015000Y-23775000D01*
X77015000Y-25525000D01*
X77003582Y-25582403D01*
X76971066Y-25631066D01*
X76922403Y-25663582D01*
X76865000Y-25675000D01*
X76565000Y-25675000D01*
X76507597Y-25663582D01*
X76458934Y-25631066D01*
X76426418Y-25582403D01*
X76415000Y-25525000D01*
X76415000Y-23775000D01*
X76426418Y-23717597D01*
X76458934Y-23668934D01*
X76507597Y-23636418D01*
X76565000Y-23625000D01*
X76865000Y-23625000D01*
X76922403Y-23636418D01*
G37*
G36*
X5492403Y-14336418D02*
G01*
X5541066Y-14368934D01*
X5573582Y-14417597D01*
X5585000Y-14475000D01*
X5585000Y-16225000D01*
X5573582Y-16282403D01*
X5541066Y-16331066D01*
X5492403Y-16363582D01*
X5435000Y-16375000D01*
X5135000Y-16375000D01*
X5077597Y-16363582D01*
X5028934Y-16331066D01*
X4996418Y-16282403D01*
X4985000Y-16225000D01*
X4985000Y-14475000D01*
X4996418Y-14417597D01*
X5028934Y-14368934D01*
X5077597Y-14336418D01*
X5135000Y-14325000D01*
X5435000Y-14325000D01*
X5492403Y-14336418D01*
G37*
G36*
X6762403Y-14336418D02*
G01*
X6811066Y-14368934D01*
X6843582Y-14417597D01*
X6855000Y-14475000D01*
X6855000Y-16225000D01*
X6843582Y-16282403D01*
X6811066Y-16331066D01*
X6762403Y-16363582D01*
X6705000Y-16375000D01*
X6405000Y-16375000D01*
X6347597Y-16363582D01*
X6298934Y-16331066D01*
X6266418Y-16282403D01*
X6255000Y-16225000D01*
X6255000Y-14475000D01*
X6266418Y-14417597D01*
X6298934Y-14368934D01*
X6347597Y-14336418D01*
X6405000Y-14325000D01*
X6705000Y-14325000D01*
X6762403Y-14336418D01*
G37*
G36*
X8032403Y-14336418D02*
G01*
X8081066Y-14368934D01*
X8113582Y-14417597D01*
X8125000Y-14475000D01*
X8125000Y-16225000D01*
X8113582Y-16282403D01*
X8081066Y-16331066D01*
X8032403Y-16363582D01*
X7975000Y-16375000D01*
X7675000Y-16375000D01*
X7617597Y-16363582D01*
X7568934Y-16331066D01*
X7536418Y-16282403D01*
X7525000Y-16225000D01*
X7525000Y-14475000D01*
X7536418Y-14417597D01*
X7568934Y-14368934D01*
X7617597Y-14336418D01*
X7675000Y-14325000D01*
X7975000Y-14325000D01*
X8032403Y-14336418D01*
G37*
G36*
X9302403Y-14336418D02*
G01*
X9351066Y-14368934D01*
X9383582Y-14417597D01*
X9395000Y-14475000D01*
X9395000Y-16225000D01*
X9383582Y-16282403D01*
X9351066Y-16331066D01*
X9302403Y-16363582D01*
X9245000Y-16375000D01*
X8945000Y-16375000D01*
X8887597Y-16363582D01*
X8838934Y-16331066D01*
X8806418Y-16282403D01*
X8795000Y-16225000D01*
X8795000Y-14475000D01*
X8806418Y-14417597D01*
X8838934Y-14368934D01*
X8887597Y-14336418D01*
X8945000Y-14325000D01*
X9245000Y-14325000D01*
X9302403Y-14336418D01*
G37*
G36*
X10572403Y-14336418D02*
G01*
X10621066Y-14368934D01*
X10653582Y-14417597D01*
X10665000Y-14475000D01*
X10665000Y-16225000D01*
X10653582Y-16282403D01*
X10621066Y-16331066D01*
X10572403Y-16363582D01*
X10515000Y-16375000D01*
X10215000Y-16375000D01*
X10157597Y-16363582D01*
X10108934Y-16331066D01*
X10076418Y-16282403D01*
X10065000Y-16225000D01*
X10065000Y-14475000D01*
X10076418Y-14417597D01*
X10108934Y-14368934D01*
X10157597Y-14336418D01*
X10215000Y-14325000D01*
X10515000Y-14325000D01*
X10572403Y-14336418D01*
G37*
G36*
X11842403Y-14336418D02*
G01*
X11891066Y-14368934D01*
X11923582Y-14417597D01*
X11935000Y-14475000D01*
X11935000Y-16225000D01*
X11923582Y-16282403D01*
X11891066Y-16331066D01*
X11842403Y-16363582D01*
X11785000Y-16375000D01*
X11485000Y-16375000D01*
X11427597Y-16363582D01*
X11378934Y-16331066D01*
X11346418Y-16282403D01*
X11335000Y-16225000D01*
X11335000Y-14475000D01*
X11346418Y-14417597D01*
X11378934Y-14368934D01*
X11427597Y-14336418D01*
X11485000Y-14325000D01*
X11785000Y-14325000D01*
X11842403Y-14336418D01*
G37*
G36*
X13112403Y-14336418D02*
G01*
X13161066Y-14368934D01*
X13193582Y-14417597D01*
X13205000Y-14475000D01*
X13205000Y-16225000D01*
X13193582Y-16282403D01*
X13161066Y-16331066D01*
X13112403Y-16363582D01*
X13055000Y-16375000D01*
X12755000Y-16375000D01*
X12697597Y-16363582D01*
X12648934Y-16331066D01*
X12616418Y-16282403D01*
X12605000Y-16225000D01*
X12605000Y-14475000D01*
X12616418Y-14417597D01*
X12648934Y-14368934D01*
X12697597Y-14336418D01*
X12755000Y-14325000D01*
X13055000Y-14325000D01*
X13112403Y-14336418D01*
G37*
G36*
X14382403Y-14336418D02*
G01*
X14431066Y-14368934D01*
X14463582Y-14417597D01*
X14475000Y-14475000D01*
X14475000Y-16225000D01*
X14463582Y-16282403D01*
X14431066Y-16331066D01*
X14382403Y-16363582D01*
X14325000Y-16375000D01*
X14025000Y-16375000D01*
X13967597Y-16363582D01*
X13918934Y-16331066D01*
X13886418Y-16282403D01*
X13875000Y-16225000D01*
X13875000Y-14475000D01*
X13886418Y-14417597D01*
X13918934Y-14368934D01*
X13967597Y-14336418D01*
X14025000Y-14325000D01*
X14325000Y-14325000D01*
X14382403Y-14336418D01*
G37*
G36*
X15652403Y-14336418D02*
G01*
X15701066Y-14368934D01*
X15733582Y-14417597D01*
X15745000Y-14475000D01*
X15745000Y-16225000D01*
X15733582Y-16282403D01*
X15701066Y-16331066D01*
X15652403Y-16363582D01*
X15595000Y-16375000D01*
X15295000Y-16375000D01*
X15237597Y-16363582D01*
X15188934Y-16331066D01*
X15156418Y-16282403D01*
X15145000Y-16225000D01*
X15145000Y-14475000D01*
X15156418Y-14417597D01*
X15188934Y-14368934D01*
X15237597Y-14336418D01*
X15295000Y-14325000D01*
X15595000Y-14325000D01*
X15652403Y-14336418D01*
G37*
G36*
X16922403Y-14336418D02*
G01*
X16971066Y-14368934D01*
X17003582Y-14417597D01*
X17015000Y-14475000D01*
X17015000Y-16225000D01*
X17003582Y-16282403D01*
X16971066Y-16331066D01*
X16922403Y-16363582D01*
X16865000Y-16375000D01*
X16565000Y-16375000D01*
X16507597Y-16363582D01*
X16458934Y-16331066D01*
X16426418Y-16282403D01*
X16415000Y-16225000D01*
X16415000Y-14475000D01*
X16426418Y-14417597D01*
X16458934Y-14368934D01*
X16507597Y-14336418D01*
X16565000Y-14325000D01*
X16865000Y-14325000D01*
X16922403Y-14336418D01*
G37*
G36*
X25492403Y-14336418D02*
G01*
X25541066Y-14368934D01*
X25573582Y-14417597D01*
X25585000Y-14475000D01*
X25585000Y-16225000D01*
X25573582Y-16282403D01*
X25541066Y-16331066D01*
X25492403Y-16363582D01*
X25435000Y-16375000D01*
X25135000Y-16375000D01*
X25077597Y-16363582D01*
X25028934Y-16331066D01*
X24996418Y-16282403D01*
X24985000Y-16225000D01*
X24985000Y-14475000D01*
X24996418Y-14417597D01*
X25028934Y-14368934D01*
X25077597Y-14336418D01*
X25135000Y-14325000D01*
X25435000Y-14325000D01*
X25492403Y-14336418D01*
G37*
G36*
X26762403Y-14336418D02*
G01*
X26811066Y-14368934D01*
X26843582Y-14417597D01*
X26855000Y-14475000D01*
X26855000Y-16225000D01*
X26843582Y-16282403D01*
X26811066Y-16331066D01*
X26762403Y-16363582D01*
X26705000Y-16375000D01*
X26405000Y-16375000D01*
X26347597Y-16363582D01*
X26298934Y-16331066D01*
X26266418Y-16282403D01*
X26255000Y-16225000D01*
X26255000Y-14475000D01*
X26266418Y-14417597D01*
X26298934Y-14368934D01*
X26347597Y-14336418D01*
X26405000Y-14325000D01*
X26705000Y-14325000D01*
X26762403Y-14336418D01*
G37*
G36*
X28032403Y-14336418D02*
G01*
X28081066Y-14368934D01*
X28113582Y-14417597D01*
X28125000Y-14475000D01*
X28125000Y-16225000D01*
X28113582Y-16282403D01*
X28081066Y-16331066D01*
X28032403Y-16363582D01*
X27975000Y-16375000D01*
X27675000Y-16375000D01*
X27617597Y-16363582D01*
X27568934Y-16331066D01*
X27536418Y-16282403D01*
X27525000Y-16225000D01*
X27525000Y-14475000D01*
X27536418Y-14417597D01*
X27568934Y-14368934D01*
X27617597Y-14336418D01*
X27675000Y-14325000D01*
X27975000Y-14325000D01*
X28032403Y-14336418D01*
G37*
G36*
X29302403Y-14336418D02*
G01*
X29351066Y-14368934D01*
X29383582Y-14417597D01*
X29395000Y-14475000D01*
X29395000Y-16225000D01*
X29383582Y-16282403D01*
X29351066Y-16331066D01*
X29302403Y-16363582D01*
X29245000Y-16375000D01*
X28945000Y-16375000D01*
X28887597Y-16363582D01*
X28838934Y-16331066D01*
X28806418Y-16282403D01*
X28795000Y-16225000D01*
X28795000Y-14475000D01*
X28806418Y-14417597D01*
X28838934Y-14368934D01*
X28887597Y-14336418D01*
X28945000Y-14325000D01*
X29245000Y-14325000D01*
X29302403Y-14336418D01*
G37*
G36*
X30572403Y-14336418D02*
G01*
X30621066Y-14368934D01*
X30653582Y-14417597D01*
X30665000Y-14475000D01*
X30665000Y-16225000D01*
X30653582Y-16282403D01*
X30621066Y-16331066D01*
X30572403Y-16363582D01*
X30515000Y-16375000D01*
X30215000Y-16375000D01*
X30157597Y-16363582D01*
X30108934Y-16331066D01*
X30076418Y-16282403D01*
X30065000Y-16225000D01*
X30065000Y-14475000D01*
X30076418Y-14417597D01*
X30108934Y-14368934D01*
X30157597Y-14336418D01*
X30215000Y-14325000D01*
X30515000Y-14325000D01*
X30572403Y-14336418D01*
G37*
G36*
X31842403Y-14336418D02*
G01*
X31891066Y-14368934D01*
X31923582Y-14417597D01*
X31935000Y-14475000D01*
X31935000Y-16225000D01*
X31923582Y-16282403D01*
X31891066Y-16331066D01*
X31842403Y-16363582D01*
X31785000Y-16375000D01*
X31485000Y-16375000D01*
X31427597Y-16363582D01*
X31378934Y-16331066D01*
X31346418Y-16282403D01*
X31335000Y-16225000D01*
X31335000Y-14475000D01*
X31346418Y-14417597D01*
X31378934Y-14368934D01*
X31427597Y-14336418D01*
X31485000Y-14325000D01*
X31785000Y-14325000D01*
X31842403Y-14336418D01*
G37*
G36*
X33112403Y-14336418D02*
G01*
X33161066Y-14368934D01*
X33193582Y-14417597D01*
X33205000Y-14475000D01*
X33205000Y-16225000D01*
X33193582Y-16282403D01*
X33161066Y-16331066D01*
X33112403Y-16363582D01*
X33055000Y-16375000D01*
X32755000Y-16375000D01*
X32697597Y-16363582D01*
X32648934Y-16331066D01*
X32616418Y-16282403D01*
X32605000Y-16225000D01*
X32605000Y-14475000D01*
X32616418Y-14417597D01*
X32648934Y-14368934D01*
X32697597Y-14336418D01*
X32755000Y-14325000D01*
X33055000Y-14325000D01*
X33112403Y-14336418D01*
G37*
G36*
X34382403Y-14336418D02*
G01*
X34431066Y-14368934D01*
X34463582Y-14417597D01*
X34475000Y-14475000D01*
X34475000Y-16225000D01*
X34463582Y-16282403D01*
X34431066Y-16331066D01*
X34382403Y-16363582D01*
X34325000Y-16375000D01*
X34025000Y-16375000D01*
X33967597Y-16363582D01*
X33918934Y-16331066D01*
X33886418Y-16282403D01*
X33875000Y-16225000D01*
X33875000Y-14475000D01*
X33886418Y-14417597D01*
X33918934Y-14368934D01*
X33967597Y-14336418D01*
X34025000Y-14325000D01*
X34325000Y-14325000D01*
X34382403Y-14336418D01*
G37*
G36*
X35652403Y-14336418D02*
G01*
X35701066Y-14368934D01*
X35733582Y-14417597D01*
X35745000Y-14475000D01*
X35745000Y-16225000D01*
X35733582Y-16282403D01*
X35701066Y-16331066D01*
X35652403Y-16363582D01*
X35595000Y-16375000D01*
X35295000Y-16375000D01*
X35237597Y-16363582D01*
X35188934Y-16331066D01*
X35156418Y-16282403D01*
X35145000Y-16225000D01*
X35145000Y-14475000D01*
X35156418Y-14417597D01*
X35188934Y-14368934D01*
X35237597Y-14336418D01*
X35295000Y-14325000D01*
X35595000Y-14325000D01*
X35652403Y-14336418D01*
G37*
G36*
X36922403Y-14336418D02*
G01*
X36971066Y-14368934D01*
X37003582Y-14417597D01*
X37015000Y-14475000D01*
X37015000Y-16225000D01*
X37003582Y-16282403D01*
X36971066Y-16331066D01*
X36922403Y-16363582D01*
X36865000Y-16375000D01*
X36565000Y-16375000D01*
X36507597Y-16363582D01*
X36458934Y-16331066D01*
X36426418Y-16282403D01*
X36415000Y-16225000D01*
X36415000Y-14475000D01*
X36426418Y-14417597D01*
X36458934Y-14368934D01*
X36507597Y-14336418D01*
X36565000Y-14325000D01*
X36865000Y-14325000D01*
X36922403Y-14336418D01*
G37*
G36*
X45492403Y-14336418D02*
G01*
X45541066Y-14368934D01*
X45573582Y-14417597D01*
X45585000Y-14475000D01*
X45585000Y-16225000D01*
X45573582Y-16282403D01*
X45541066Y-16331066D01*
X45492403Y-16363582D01*
X45435000Y-16375000D01*
X45135000Y-16375000D01*
X45077597Y-16363582D01*
X45028934Y-16331066D01*
X44996418Y-16282403D01*
X44985000Y-16225000D01*
X44985000Y-14475000D01*
X44996418Y-14417597D01*
X45028934Y-14368934D01*
X45077597Y-14336418D01*
X45135000Y-14325000D01*
X45435000Y-14325000D01*
X45492403Y-14336418D01*
G37*
G36*
X46762403Y-14336418D02*
G01*
X46811066Y-14368934D01*
X46843582Y-14417597D01*
X46855000Y-14475000D01*
X46855000Y-16225000D01*
X46843582Y-16282403D01*
X46811066Y-16331066D01*
X46762403Y-16363582D01*
X46705000Y-16375000D01*
X46405000Y-16375000D01*
X46347597Y-16363582D01*
X46298934Y-16331066D01*
X46266418Y-16282403D01*
X46255000Y-16225000D01*
X46255000Y-14475000D01*
X46266418Y-14417597D01*
X46298934Y-14368934D01*
X46347597Y-14336418D01*
X46405000Y-14325000D01*
X46705000Y-14325000D01*
X46762403Y-14336418D01*
G37*
G36*
X48032403Y-14336418D02*
G01*
X48081066Y-14368934D01*
X48113582Y-14417597D01*
X48125000Y-14475000D01*
X48125000Y-16225000D01*
X48113582Y-16282403D01*
X48081066Y-16331066D01*
X48032403Y-16363582D01*
X47975000Y-16375000D01*
X47675000Y-16375000D01*
X47617597Y-16363582D01*
X47568934Y-16331066D01*
X47536418Y-16282403D01*
X47525000Y-16225000D01*
X47525000Y-14475000D01*
X47536418Y-14417597D01*
X47568934Y-14368934D01*
X47617597Y-14336418D01*
X47675000Y-14325000D01*
X47975000Y-14325000D01*
X48032403Y-14336418D01*
G37*
G36*
X49302403Y-14336418D02*
G01*
X49351066Y-14368934D01*
X49383582Y-14417597D01*
X49395000Y-14475000D01*
X49395000Y-16225000D01*
X49383582Y-16282403D01*
X49351066Y-16331066D01*
X49302403Y-16363582D01*
X49245000Y-16375000D01*
X48945000Y-16375000D01*
X48887597Y-16363582D01*
X48838934Y-16331066D01*
X48806418Y-16282403D01*
X48795000Y-16225000D01*
X48795000Y-14475000D01*
X48806418Y-14417597D01*
X48838934Y-14368934D01*
X48887597Y-14336418D01*
X48945000Y-14325000D01*
X49245000Y-14325000D01*
X49302403Y-14336418D01*
G37*
G36*
X50572403Y-14336418D02*
G01*
X50621066Y-14368934D01*
X50653582Y-14417597D01*
X50665000Y-14475000D01*
X50665000Y-16225000D01*
X50653582Y-16282403D01*
X50621066Y-16331066D01*
X50572403Y-16363582D01*
X50515000Y-16375000D01*
X50215000Y-16375000D01*
X50157597Y-16363582D01*
X50108934Y-16331066D01*
X50076418Y-16282403D01*
X50065000Y-16225000D01*
X50065000Y-14475000D01*
X50076418Y-14417597D01*
X50108934Y-14368934D01*
X50157597Y-14336418D01*
X50215000Y-14325000D01*
X50515000Y-14325000D01*
X50572403Y-14336418D01*
G37*
G36*
X51842403Y-14336418D02*
G01*
X51891066Y-14368934D01*
X51923582Y-14417597D01*
X51935000Y-14475000D01*
X51935000Y-16225000D01*
X51923582Y-16282403D01*
X51891066Y-16331066D01*
X51842403Y-16363582D01*
X51785000Y-16375000D01*
X51485000Y-16375000D01*
X51427597Y-16363582D01*
X51378934Y-16331066D01*
X51346418Y-16282403D01*
X51335000Y-16225000D01*
X51335000Y-14475000D01*
X51346418Y-14417597D01*
X51378934Y-14368934D01*
X51427597Y-14336418D01*
X51485000Y-14325000D01*
X51785000Y-14325000D01*
X51842403Y-14336418D01*
G37*
G36*
X53112403Y-14336418D02*
G01*
X53161066Y-14368934D01*
X53193582Y-14417597D01*
X53205000Y-14475000D01*
X53205000Y-16225000D01*
X53193582Y-16282403D01*
X53161066Y-16331066D01*
X53112403Y-16363582D01*
X53055000Y-16375000D01*
X52755000Y-16375000D01*
X52697597Y-16363582D01*
X52648934Y-16331066D01*
X52616418Y-16282403D01*
X52605000Y-16225000D01*
X52605000Y-14475000D01*
X52616418Y-14417597D01*
X52648934Y-14368934D01*
X52697597Y-14336418D01*
X52755000Y-14325000D01*
X53055000Y-14325000D01*
X53112403Y-14336418D01*
G37*
G36*
X54382403Y-14336418D02*
G01*
X54431066Y-14368934D01*
X54463582Y-14417597D01*
X54475000Y-14475000D01*
X54475000Y-16225000D01*
X54463582Y-16282403D01*
X54431066Y-16331066D01*
X54382403Y-16363582D01*
X54325000Y-16375000D01*
X54025000Y-16375000D01*
X53967597Y-16363582D01*
X53918934Y-16331066D01*
X53886418Y-16282403D01*
X53875000Y-16225000D01*
X53875000Y-14475000D01*
X53886418Y-14417597D01*
X53918934Y-14368934D01*
X53967597Y-14336418D01*
X54025000Y-14325000D01*
X54325000Y-14325000D01*
X54382403Y-14336418D01*
G37*
G36*
X55652403Y-14336418D02*
G01*
X55701066Y-14368934D01*
X55733582Y-14417597D01*
X55745000Y-14475000D01*
X55745000Y-16225000D01*
X55733582Y-16282403D01*
X55701066Y-16331066D01*
X55652403Y-16363582D01*
X55595000Y-16375000D01*
X55295000Y-16375000D01*
X55237597Y-16363582D01*
X55188934Y-16331066D01*
X55156418Y-16282403D01*
X55145000Y-16225000D01*
X55145000Y-14475000D01*
X55156418Y-14417597D01*
X55188934Y-14368934D01*
X55237597Y-14336418D01*
X55295000Y-14325000D01*
X55595000Y-14325000D01*
X55652403Y-14336418D01*
G37*
G36*
X56922403Y-14336418D02*
G01*
X56971066Y-14368934D01*
X57003582Y-14417597D01*
X57015000Y-14475000D01*
X57015000Y-16225000D01*
X57003582Y-16282403D01*
X56971066Y-16331066D01*
X56922403Y-16363582D01*
X56865000Y-16375000D01*
X56565000Y-16375000D01*
X56507597Y-16363582D01*
X56458934Y-16331066D01*
X56426418Y-16282403D01*
X56415000Y-16225000D01*
X56415000Y-14475000D01*
X56426418Y-14417597D01*
X56458934Y-14368934D01*
X56507597Y-14336418D01*
X56565000Y-14325000D01*
X56865000Y-14325000D01*
X56922403Y-14336418D01*
G37*
G36*
X65492403Y-14336418D02*
G01*
X65541066Y-14368934D01*
X65573582Y-14417597D01*
X65585000Y-14475000D01*
X65585000Y-16225000D01*
X65573582Y-16282403D01*
X65541066Y-16331066D01*
X65492403Y-16363582D01*
X65435000Y-16375000D01*
X65135000Y-16375000D01*
X65077597Y-16363582D01*
X65028934Y-16331066D01*
X64996418Y-16282403D01*
X64985000Y-16225000D01*
X64985000Y-14475000D01*
X64996418Y-14417597D01*
X65028934Y-14368934D01*
X65077597Y-14336418D01*
X65135000Y-14325000D01*
X65435000Y-14325000D01*
X65492403Y-14336418D01*
G37*
G36*
X66762403Y-14336418D02*
G01*
X66811066Y-14368934D01*
X66843582Y-14417597D01*
X66855000Y-14475000D01*
X66855000Y-16225000D01*
X66843582Y-16282403D01*
X66811066Y-16331066D01*
X66762403Y-16363582D01*
X66705000Y-16375000D01*
X66405000Y-16375000D01*
X66347597Y-16363582D01*
X66298934Y-16331066D01*
X66266418Y-16282403D01*
X66255000Y-16225000D01*
X66255000Y-14475000D01*
X66266418Y-14417597D01*
X66298934Y-14368934D01*
X66347597Y-14336418D01*
X66405000Y-14325000D01*
X66705000Y-14325000D01*
X66762403Y-14336418D01*
G37*
G36*
X68032403Y-14336418D02*
G01*
X68081066Y-14368934D01*
X68113582Y-14417597D01*
X68125000Y-14475000D01*
X68125000Y-16225000D01*
X68113582Y-16282403D01*
X68081066Y-16331066D01*
X68032403Y-16363582D01*
X67975000Y-16375000D01*
X67675000Y-16375000D01*
X67617597Y-16363582D01*
X67568934Y-16331066D01*
X67536418Y-16282403D01*
X67525000Y-16225000D01*
X67525000Y-14475000D01*
X67536418Y-14417597D01*
X67568934Y-14368934D01*
X67617597Y-14336418D01*
X67675000Y-14325000D01*
X67975000Y-14325000D01*
X68032403Y-14336418D01*
G37*
G36*
X69302403Y-14336418D02*
G01*
X69351066Y-14368934D01*
X69383582Y-14417597D01*
X69395000Y-14475000D01*
X69395000Y-16225000D01*
X69383582Y-16282403D01*
X69351066Y-16331066D01*
X69302403Y-16363582D01*
X69245000Y-16375000D01*
X68945000Y-16375000D01*
X68887597Y-16363582D01*
X68838934Y-16331066D01*
X68806418Y-16282403D01*
X68795000Y-16225000D01*
X68795000Y-14475000D01*
X68806418Y-14417597D01*
X68838934Y-14368934D01*
X68887597Y-14336418D01*
X68945000Y-14325000D01*
X69245000Y-14325000D01*
X69302403Y-14336418D01*
G37*
G36*
X70572403Y-14336418D02*
G01*
X70621066Y-14368934D01*
X70653582Y-14417597D01*
X70665000Y-14475000D01*
X70665000Y-16225000D01*
X70653582Y-16282403D01*
X70621066Y-16331066D01*
X70572403Y-16363582D01*
X70515000Y-16375000D01*
X70215000Y-16375000D01*
X70157597Y-16363582D01*
X70108934Y-16331066D01*
X70076418Y-16282403D01*
X70065000Y-16225000D01*
X70065000Y-14475000D01*
X70076418Y-14417597D01*
X70108934Y-14368934D01*
X70157597Y-14336418D01*
X70215000Y-14325000D01*
X70515000Y-14325000D01*
X70572403Y-14336418D01*
G37*
G36*
X71842403Y-14336418D02*
G01*
X71891066Y-14368934D01*
X71923582Y-14417597D01*
X71935000Y-14475000D01*
X71935000Y-16225000D01*
X71923582Y-16282403D01*
X71891066Y-16331066D01*
X71842403Y-16363582D01*
X71785000Y-16375000D01*
X71485000Y-16375000D01*
X71427597Y-16363582D01*
X71378934Y-16331066D01*
X71346418Y-16282403D01*
X71335000Y-16225000D01*
X71335000Y-14475000D01*
X71346418Y-14417597D01*
X71378934Y-14368934D01*
X71427597Y-14336418D01*
X71485000Y-14325000D01*
X71785000Y-14325000D01*
X71842403Y-14336418D01*
G37*
G36*
X73112403Y-14336418D02*
G01*
X73161066Y-14368934D01*
X73193582Y-14417597D01*
X73205000Y-14475000D01*
X73205000Y-16225000D01*
X73193582Y-16282403D01*
X73161066Y-16331066D01*
X73112403Y-16363582D01*
X73055000Y-16375000D01*
X72755000Y-16375000D01*
X72697597Y-16363582D01*
X72648934Y-16331066D01*
X72616418Y-16282403D01*
X72605000Y-16225000D01*
X72605000Y-14475000D01*
X72616418Y-14417597D01*
X72648934Y-14368934D01*
X72697597Y-14336418D01*
X72755000Y-14325000D01*
X73055000Y-14325000D01*
X73112403Y-14336418D01*
G37*
G36*
X74382403Y-14336418D02*
G01*
X74431066Y-14368934D01*
X74463582Y-14417597D01*
X74475000Y-14475000D01*
X74475000Y-16225000D01*
X74463582Y-16282403D01*
X74431066Y-16331066D01*
X74382403Y-16363582D01*
X74325000Y-16375000D01*
X74025000Y-16375000D01*
X73967597Y-16363582D01*
X73918934Y-16331066D01*
X73886418Y-16282403D01*
X73875000Y-16225000D01*
X73875000Y-14475000D01*
X73886418Y-14417597D01*
X73918934Y-14368934D01*
X73967597Y-14336418D01*
X74025000Y-14325000D01*
X74325000Y-14325000D01*
X74382403Y-14336418D01*
G37*
G36*
X75652403Y-14336418D02*
G01*
X75701066Y-14368934D01*
X75733582Y-14417597D01*
X75745000Y-14475000D01*
X75745000Y-16225000D01*
X75733582Y-16282403D01*
X75701066Y-16331066D01*
X75652403Y-16363582D01*
X75595000Y-16375000D01*
X75295000Y-16375000D01*
X75237597Y-16363582D01*
X75188934Y-16331066D01*
X75156418Y-16282403D01*
X75145000Y-16225000D01*
X75145000Y-14475000D01*
X75156418Y-14417597D01*
X75188934Y-14368934D01*
X75237597Y-14336418D01*
X75295000Y-14325000D01*
X75595000Y-14325000D01*
X75652403Y-14336418D01*
G37*
G36*
X76922403Y-14336418D02*
G01*
X76971066Y-14368934D01*
X77003582Y-14417597D01*
X77015000Y-14475000D01*
X77015000Y-16225000D01*
X77003582Y-16282403D01*
X76971066Y-16331066D01*
X76922403Y-16363582D01*
X76865000Y-16375000D01*
X76565000Y-16375000D01*
X76507597Y-16363582D01*
X76458934Y-16331066D01*
X76426418Y-16282403D01*
X76415000Y-16225000D01*
X76415000Y-14475000D01*
X76426418Y-14417597D01*
X76458934Y-14368934D01*
X76507597Y-14336418D01*
X76565000Y-14325000D01*
X76865000Y-14325000D01*
X76922403Y-14336418D01*
G37*
G36*
X9957403Y-5111418D02*
G01*
X10006066Y-5143934D01*
X10038582Y-5192597D01*
X10050000Y-5250000D01*
X10050000Y-6650000D01*
X10038582Y-6707403D01*
X10006066Y-6756066D01*
X9957403Y-6788582D01*
X9900000Y-6800000D01*
X9600000Y-6800000D01*
X9542597Y-6788582D01*
X9493934Y-6756066D01*
X9461418Y-6707403D01*
X9450000Y-6650000D01*
X9450000Y-5250000D01*
X9461418Y-5192597D01*
X9493934Y-5143934D01*
X9542597Y-5111418D01*
X9600000Y-5100000D01*
X9900000Y-5100000D01*
X9957403Y-5111418D01*
G37*
G36*
X11207403Y-5111418D02*
G01*
X11256066Y-5143934D01*
X11288582Y-5192597D01*
X11300000Y-5250000D01*
X11300000Y-6650000D01*
X11288582Y-6707403D01*
X11256066Y-6756066D01*
X11207403Y-6788582D01*
X11150000Y-6800000D01*
X10850000Y-6800000D01*
X10792597Y-6788582D01*
X10743934Y-6756066D01*
X10711418Y-6707403D01*
X10700000Y-6650000D01*
X10700000Y-5250000D01*
X10711418Y-5192597D01*
X10743934Y-5143934D01*
X10792597Y-5111418D01*
X10850000Y-5100000D01*
X11150000Y-5100000D01*
X11207403Y-5111418D01*
G37*
G36*
X12457403Y-5111418D02*
G01*
X12506066Y-5143934D01*
X12538582Y-5192597D01*
X12550000Y-5250000D01*
X12550000Y-6650000D01*
X12538582Y-6707403D01*
X12506066Y-6756066D01*
X12457403Y-6788582D01*
X12400000Y-6800000D01*
X12100000Y-6800000D01*
X12042597Y-6788582D01*
X11993934Y-6756066D01*
X11961418Y-6707403D01*
X11950000Y-6650000D01*
X11950000Y-5250000D01*
X11961418Y-5192597D01*
X11993934Y-5143934D01*
X12042597Y-5111418D01*
X12100000Y-5100000D01*
X12400000Y-5100000D01*
X12457403Y-5111418D01*
G37*
G36*
X29957403Y-5111418D02*
G01*
X30006066Y-5143934D01*
X30038582Y-5192597D01*
X30050000Y-5250000D01*
X30050000Y-6650000D01*
X30038582Y-6707403D01*
X30006066Y-6756066D01*
X29957403Y-6788582D01*
X29900000Y-6800000D01*
X29600000Y-6800000D01*
X29542597Y-6788582D01*
X29493934Y-6756066D01*
X29461418Y-6707403D01*
X29450000Y-6650000D01*
X29450000Y-5250000D01*
X29461418Y-5192597D01*
X29493934Y-5143934D01*
X29542597Y-5111418D01*
X29600000Y-5100000D01*
X29900000Y-5100000D01*
X29957403Y-5111418D01*
G37*
G36*
X31207403Y-5111418D02*
G01*
X31256066Y-5143934D01*
X31288582Y-5192597D01*
X31300000Y-5250000D01*
X31300000Y-6650000D01*
X31288582Y-6707403D01*
X31256066Y-6756066D01*
X31207403Y-6788582D01*
X31150000Y-6800000D01*
X30850000Y-6800000D01*
X30792597Y-6788582D01*
X30743934Y-6756066D01*
X30711418Y-6707403D01*
X30700000Y-6650000D01*
X30700000Y-5250000D01*
X30711418Y-5192597D01*
X30743934Y-5143934D01*
X30792597Y-5111418D01*
X30850000Y-5100000D01*
X31150000Y-5100000D01*
X31207403Y-5111418D01*
G37*
G36*
X32457403Y-5111418D02*
G01*
X32506066Y-5143934D01*
X32538582Y-5192597D01*
X32550000Y-5250000D01*
X32550000Y-6650000D01*
X32538582Y-6707403D01*
X32506066Y-6756066D01*
X32457403Y-6788582D01*
X32400000Y-6800000D01*
X32100000Y-6800000D01*
X32042597Y-6788582D01*
X31993934Y-6756066D01*
X31961418Y-6707403D01*
X31950000Y-6650000D01*
X31950000Y-5250000D01*
X31961418Y-5192597D01*
X31993934Y-5143934D01*
X32042597Y-5111418D01*
X32100000Y-5100000D01*
X32400000Y-5100000D01*
X32457403Y-5111418D01*
G37*
G36*
X49957403Y-5111418D02*
G01*
X50006066Y-5143934D01*
X50038582Y-5192597D01*
X50050000Y-5250000D01*
X50050000Y-6650000D01*
X50038582Y-6707403D01*
X50006066Y-6756066D01*
X49957403Y-6788582D01*
X49900000Y-6800000D01*
X49600000Y-6800000D01*
X49542597Y-6788582D01*
X49493934Y-6756066D01*
X49461418Y-6707403D01*
X49450000Y-6650000D01*
X49450000Y-5250000D01*
X49461418Y-5192597D01*
X49493934Y-5143934D01*
X49542597Y-5111418D01*
X49600000Y-5100000D01*
X49900000Y-5100000D01*
X49957403Y-5111418D01*
G37*
G36*
X51207403Y-5111418D02*
G01*
X51256066Y-5143934D01*
X51288582Y-5192597D01*
X51300000Y-5250000D01*
X51300000Y-6650000D01*
X51288582Y-6707403D01*
X51256066Y-6756066D01*
X51207403Y-6788582D01*
X51150000Y-6800000D01*
X50850000Y-6800000D01*
X50792597Y-6788582D01*
X50743934Y-6756066D01*
X50711418Y-6707403D01*
X50700000Y-6650000D01*
X50700000Y-5250000D01*
X50711418Y-5192597D01*
X50743934Y-5143934D01*
X50792597Y-5111418D01*
X50850000Y-5100000D01*
X51150000Y-5100000D01*
X51207403Y-5111418D01*
G37*
G36*
X52457403Y-5111418D02*
G01*
X52506066Y-5143934D01*
X52538582Y-5192597D01*
X52550000Y-5250000D01*
X52550000Y-6650000D01*
X52538582Y-6707403D01*
X52506066Y-6756066D01*
X52457403Y-6788582D01*
X52400000Y-6800000D01*
X52100000Y-6800000D01*
X52042597Y-6788582D01*
X51993934Y-6756066D01*
X51961418Y-6707403D01*
X51950000Y-6650000D01*
X51950000Y-5250000D01*
X51961418Y-5192597D01*
X51993934Y-5143934D01*
X52042597Y-5111418D01*
X52100000Y-5100000D01*
X52400000Y-5100000D01*
X52457403Y-5111418D01*
G37*
G36*
X69957403Y-5111418D02*
G01*
X70006066Y-5143934D01*
X70038582Y-5192597D01*
X70050000Y-5250000D01*
X70050000Y-6650000D01*
X70038582Y-6707403D01*
X70006066Y-6756066D01*
X69957403Y-6788582D01*
X69900000Y-6800000D01*
X69600000Y-6800000D01*
X69542597Y-6788582D01*
X69493934Y-6756066D01*
X69461418Y-6707403D01*
X69450000Y-6650000D01*
X69450000Y-5250000D01*
X69461418Y-5192597D01*
X69493934Y-5143934D01*
X69542597Y-5111418D01*
X69600000Y-5100000D01*
X69900000Y-5100000D01*
X69957403Y-5111418D01*
G37*
G36*
X71207403Y-5111418D02*
G01*
X71256066Y-5143934D01*
X71288582Y-5192597D01*
X71300000Y-5250000D01*
X71300000Y-6650000D01*
X71288582Y-6707403D01*
X71256066Y-6756066D01*
X71207403Y-6788582D01*
X71150000Y-6800000D01*
X70850000Y-6800000D01*
X70792597Y-6788582D01*
X70743934Y-6756066D01*
X70711418Y-6707403D01*
X70700000Y-6650000D01*
X70700000Y-5250000D01*
X70711418Y-5192597D01*
X70743934Y-5143934D01*
X70792597Y-5111418D01*
X70850000Y-5100000D01*
X71150000Y-5100000D01*
X71207403Y-5111418D01*
G37*
G36*
X72457403Y-5111418D02*
G01*
X72506066Y-5143934D01*
X72538582Y-5192597D01*
X72550000Y-5250000D01*
X72550000Y-6650000D01*
X72538582Y-6707403D01*
X72506066Y-6756066D01*
X72457403Y-6788582D01*
X72400000Y-6800000D01*
X72100000Y-6800000D01*
X72042597Y-6788582D01*
X71993934Y-6756066D01*
X71961418Y-6707403D01*
X71950000Y-6650000D01*
X71950000Y-5250000D01*
X71961418Y-5192597D01*
X71993934Y-5143934D01*
X72042597Y-5111418D01*
X72100000Y-5100000D01*
X72400000Y-5100000D01*
X72457403Y-5111418D01*
G37*
G36*
X3815151Y-2187301D02*
G01*
X4016623Y-2252763D01*
X4205373Y-2348936D01*
X4376755Y-2473452D01*
X4526548Y-2623245D01*
X4651064Y-2794627D01*
X4747237Y-2983377D01*
X4812699Y-3184849D01*
X4845838Y-3394080D01*
X4845838Y-3605920D01*
X4812699Y-3815151D01*
X4747237Y-4016623D01*
X4651064Y-4205373D01*
X4526548Y-4376755D01*
X4376755Y-4526548D01*
X4205373Y-4651064D01*
X4016623Y-4747237D01*
X3815151Y-4812699D01*
X3605920Y-4845838D01*
X3394080Y-4845838D01*
X3184849Y-4812699D01*
X2983377Y-4747237D01*
X2794627Y-4651064D01*
X2623245Y-4526548D01*
X2473452Y-4376755D01*
X2348936Y-4205373D01*
X2252763Y-4016623D01*
X2187301Y-3815151D01*
X2154162Y-3605920D01*
X2154162Y-3394080D01*
X2187301Y-3184849D01*
X2252763Y-2983377D01*
X2348936Y-2794627D01*
X2473452Y-2623245D01*
X2623245Y-2473452D01*
X2794627Y-2348936D01*
X2983377Y-2252763D01*
X3184849Y-2187301D01*
X3394080Y-2154162D01*
X3605920Y-2154162D01*
X3815151Y-2187301D01*
G37*
G36*
X78815151Y-2187301D02*
G01*
X79016623Y-2252763D01*
X79205373Y-2348936D01*
X79376755Y-2473452D01*
X79526548Y-2623245D01*
X79651064Y-2794627D01*
X79747237Y-2983377D01*
X79812699Y-3184849D01*
X79845838Y-3394080D01*
X79845838Y-3605920D01*
X79812699Y-3815151D01*
X79747237Y-4016623D01*
X79651064Y-4205373D01*
X79526548Y-4376755D01*
X79376755Y-4526548D01*
X79205373Y-4651064D01*
X79016623Y-4747237D01*
X78815151Y-4812699D01*
X78605920Y-4845838D01*
X78394080Y-4845838D01*
X78184849Y-4812699D01*
X77983377Y-4747237D01*
X77794627Y-4651064D01*
X77623245Y-4526548D01*
X77473452Y-4376755D01*
X77348936Y-4205373D01*
X77252763Y-4016623D01*
X77187301Y-3815151D01*
X77154162Y-3605920D01*
X77154162Y-3394080D01*
X77187301Y-3184849D01*
X77252763Y-2983377D01*
X77348936Y-2794627D01*
X77473452Y-2623245D01*
X77623245Y-2473452D01*
X77794627Y-2348936D01*
X77983377Y-2252763D01*
X78184849Y-2187301D01*
X78394080Y-2154162D01*
X78605920Y-2154162D01*
X78815151Y-2187301D01*
G37*
G36*
X8154047Y-1200805D02*
G01*
X8205408Y-1206764D01*
X8222954Y-1214511D01*
X8245671Y-1219030D01*
X8269991Y-1235280D01*
X8290793Y-1244465D01*
X8305000Y-1258672D01*
X8326777Y-1273223D01*
X8341327Y-1294999D01*
X8355534Y-1309206D01*
X8364718Y-1330006D01*
X8380970Y-1354329D01*
X8385489Y-1377048D01*
X8393235Y-1394591D01*
X8399192Y-1445940D01*
X8400000Y-1450000D01*
X8400000Y-3750000D01*
X8399192Y-3754059D01*
X8393235Y-3805408D01*
X8385489Y-3822950D01*
X8380970Y-3845671D01*
X8364716Y-3869995D01*
X8355534Y-3890793D01*
X8341329Y-3904997D01*
X8326777Y-3926777D01*
X8304997Y-3941329D01*
X8290793Y-3955534D01*
X8269995Y-3964716D01*
X8245671Y-3980970D01*
X8222950Y-3985489D01*
X8205408Y-3993235D01*
X8154061Y-3999192D01*
X8150000Y-4000000D01*
X7650000Y-4000000D01*
X7645941Y-3999192D01*
X7594591Y-3993235D01*
X7577048Y-3985489D01*
X7554329Y-3980970D01*
X7530006Y-3964718D01*
X7509206Y-3955534D01*
X7494999Y-3941327D01*
X7473223Y-3926777D01*
X7458672Y-3905000D01*
X7444465Y-3890793D01*
X7435280Y-3869991D01*
X7419030Y-3845671D01*
X7414511Y-3822954D01*
X7406764Y-3805408D01*
X7400805Y-3754049D01*
X7400000Y-3750000D01*
X7400000Y-1450000D01*
X7400804Y-1445953D01*
X7406764Y-1394591D01*
X7414511Y-1377043D01*
X7419030Y-1354329D01*
X7435278Y-1330010D01*
X7444465Y-1309206D01*
X7458674Y-1294996D01*
X7473223Y-1273223D01*
X7494996Y-1258674D01*
X7509206Y-1244465D01*
X7530010Y-1235278D01*
X7554329Y-1219030D01*
X7577043Y-1214511D01*
X7594591Y-1206764D01*
X7645952Y-1200805D01*
X7650000Y-1200000D01*
X8150000Y-1200000D01*
X8154047Y-1200805D01*
G37*
G36*
X14354047Y-1200805D02*
G01*
X14405408Y-1206764D01*
X14422954Y-1214511D01*
X14445671Y-1219030D01*
X14469991Y-1235280D01*
X14490793Y-1244465D01*
X14505000Y-1258672D01*
X14526777Y-1273223D01*
X14541327Y-1294999D01*
X14555534Y-1309206D01*
X14564718Y-1330006D01*
X14580970Y-1354329D01*
X14585489Y-1377048D01*
X14593235Y-1394591D01*
X14599192Y-1445940D01*
X14600000Y-1450000D01*
X14600000Y-3750000D01*
X14599192Y-3754059D01*
X14593235Y-3805408D01*
X14585489Y-3822950D01*
X14580970Y-3845671D01*
X14564716Y-3869995D01*
X14555534Y-3890793D01*
X14541329Y-3904997D01*
X14526777Y-3926777D01*
X14504997Y-3941329D01*
X14490793Y-3955534D01*
X14469995Y-3964716D01*
X14445671Y-3980970D01*
X14422950Y-3985489D01*
X14405408Y-3993235D01*
X14354061Y-3999192D01*
X14350000Y-4000000D01*
X13850000Y-4000000D01*
X13845941Y-3999192D01*
X13794591Y-3993235D01*
X13777048Y-3985489D01*
X13754329Y-3980970D01*
X13730006Y-3964718D01*
X13709206Y-3955534D01*
X13694999Y-3941327D01*
X13673223Y-3926777D01*
X13658672Y-3905000D01*
X13644465Y-3890793D01*
X13635280Y-3869991D01*
X13619030Y-3845671D01*
X13614511Y-3822954D01*
X13606764Y-3805408D01*
X13600805Y-3754049D01*
X13600000Y-3750000D01*
X13600000Y-1450000D01*
X13600804Y-1445953D01*
X13606764Y-1394591D01*
X13614511Y-1377043D01*
X13619030Y-1354329D01*
X13635278Y-1330010D01*
X13644465Y-1309206D01*
X13658674Y-1294996D01*
X13673223Y-1273223D01*
X13694996Y-1258674D01*
X13709206Y-1244465D01*
X13730010Y-1235278D01*
X13754329Y-1219030D01*
X13777043Y-1214511D01*
X13794591Y-1206764D01*
X13845952Y-1200805D01*
X13850000Y-1200000D01*
X14350000Y-1200000D01*
X14354047Y-1200805D01*
G37*
G36*
X28154047Y-1200805D02*
G01*
X28205408Y-1206764D01*
X28222954Y-1214511D01*
X28245671Y-1219030D01*
X28269991Y-1235280D01*
X28290793Y-1244465D01*
X28305000Y-1258672D01*
X28326777Y-1273223D01*
X28341327Y-1294999D01*
X28355534Y-1309206D01*
X28364718Y-1330006D01*
X28380970Y-1354329D01*
X28385489Y-1377048D01*
X28393235Y-1394591D01*
X28399192Y-1445940D01*
X28400000Y-1450000D01*
X28400000Y-3750000D01*
X28399192Y-3754059D01*
X28393235Y-3805408D01*
X28385489Y-3822950D01*
X28380970Y-3845671D01*
X28364716Y-3869995D01*
X28355534Y-3890793D01*
X28341329Y-3904997D01*
X28326777Y-3926777D01*
X28304997Y-3941329D01*
X28290793Y-3955534D01*
X28269995Y-3964716D01*
X28245671Y-3980970D01*
X28222950Y-3985489D01*
X28205408Y-3993235D01*
X28154061Y-3999192D01*
X28150000Y-4000000D01*
X27650000Y-4000000D01*
X27645941Y-3999192D01*
X27594591Y-3993235D01*
X27577048Y-3985489D01*
X27554329Y-3980970D01*
X27530006Y-3964718D01*
X27509206Y-3955534D01*
X27494999Y-3941327D01*
X27473223Y-3926777D01*
X27458672Y-3905000D01*
X27444465Y-3890793D01*
X27435280Y-3869991D01*
X27419030Y-3845671D01*
X27414511Y-3822954D01*
X27406764Y-3805408D01*
X27400805Y-3754049D01*
X27400000Y-3750000D01*
X27400000Y-1450000D01*
X27400804Y-1445953D01*
X27406764Y-1394591D01*
X27414511Y-1377043D01*
X27419030Y-1354329D01*
X27435278Y-1330010D01*
X27444465Y-1309206D01*
X27458674Y-1294996D01*
X27473223Y-1273223D01*
X27494996Y-1258674D01*
X27509206Y-1244465D01*
X27530010Y-1235278D01*
X27554329Y-1219030D01*
X27577043Y-1214511D01*
X27594591Y-1206764D01*
X27645952Y-1200805D01*
X27650000Y-1200000D01*
X28150000Y-1200000D01*
X28154047Y-1200805D01*
G37*
G36*
X34354047Y-1200805D02*
G01*
X34405408Y-1206764D01*
X34422954Y-1214511D01*
X34445671Y-1219030D01*
X34469991Y-1235280D01*
X34490793Y-1244465D01*
X34505000Y-1258672D01*
X34526777Y-1273223D01*
X34541327Y-1294999D01*
X34555534Y-1309206D01*
X34564718Y-1330006D01*
X34580970Y-1354329D01*
X34585489Y-1377048D01*
X34593235Y-1394591D01*
X34599192Y-1445940D01*
X34600000Y-1450000D01*
X34600000Y-3750000D01*
X34599192Y-3754059D01*
X34593235Y-3805408D01*
X34585489Y-3822950D01*
X34580970Y-3845671D01*
X34564716Y-3869995D01*
X34555534Y-3890793D01*
X34541329Y-3904997D01*
X34526777Y-3926777D01*
X34504997Y-3941329D01*
X34490793Y-3955534D01*
X34469995Y-3964716D01*
X34445671Y-3980970D01*
X34422950Y-3985489D01*
X34405408Y-3993235D01*
X34354061Y-3999192D01*
X34350000Y-4000000D01*
X33850000Y-4000000D01*
X33845941Y-3999192D01*
X33794591Y-3993235D01*
X33777048Y-3985489D01*
X33754329Y-3980970D01*
X33730006Y-3964718D01*
X33709206Y-3955534D01*
X33694999Y-3941327D01*
X33673223Y-3926777D01*
X33658672Y-3905000D01*
X33644465Y-3890793D01*
X33635280Y-3869991D01*
X33619030Y-3845671D01*
X33614511Y-3822954D01*
X33606764Y-3805408D01*
X33600805Y-3754049D01*
X33600000Y-3750000D01*
X33600000Y-1450000D01*
X33600804Y-1445953D01*
X33606764Y-1394591D01*
X33614511Y-1377043D01*
X33619030Y-1354329D01*
X33635278Y-1330010D01*
X33644465Y-1309206D01*
X33658674Y-1294996D01*
X33673223Y-1273223D01*
X33694996Y-1258674D01*
X33709206Y-1244465D01*
X33730010Y-1235278D01*
X33754329Y-1219030D01*
X33777043Y-1214511D01*
X33794591Y-1206764D01*
X33845952Y-1200805D01*
X33850000Y-1200000D01*
X34350000Y-1200000D01*
X34354047Y-1200805D01*
G37*
G36*
X48154047Y-1200805D02*
G01*
X48205408Y-1206764D01*
X48222954Y-1214511D01*
X48245671Y-1219030D01*
X48269991Y-1235280D01*
X48290793Y-1244465D01*
X48305000Y-1258672D01*
X48326777Y-1273223D01*
X48341327Y-1294999D01*
X48355534Y-1309206D01*
X48364718Y-1330006D01*
X48380970Y-1354329D01*
X48385489Y-1377048D01*
X48393235Y-1394591D01*
X48399192Y-1445940D01*
X48400000Y-1450000D01*
X48400000Y-3750000D01*
X48399192Y-3754059D01*
X48393235Y-3805408D01*
X48385489Y-3822950D01*
X48380970Y-3845671D01*
X48364716Y-3869995D01*
X48355534Y-3890793D01*
X48341329Y-3904997D01*
X48326777Y-3926777D01*
X48304997Y-3941329D01*
X48290793Y-3955534D01*
X48269995Y-3964716D01*
X48245671Y-3980970D01*
X48222950Y-3985489D01*
X48205408Y-3993235D01*
X48154061Y-3999192D01*
X48150000Y-4000000D01*
X47650000Y-4000000D01*
X47645941Y-3999192D01*
X47594591Y-3993235D01*
X47577048Y-3985489D01*
X47554329Y-3980970D01*
X47530006Y-3964718D01*
X47509206Y-3955534D01*
X47494999Y-3941327D01*
X47473223Y-3926777D01*
X47458672Y-3905000D01*
X47444465Y-3890793D01*
X47435280Y-3869991D01*
X47419030Y-3845671D01*
X47414511Y-3822954D01*
X47406764Y-3805408D01*
X47400805Y-3754049D01*
X47400000Y-3750000D01*
X47400000Y-1450000D01*
X47400804Y-1445953D01*
X47406764Y-1394591D01*
X47414511Y-1377043D01*
X47419030Y-1354329D01*
X47435278Y-1330010D01*
X47444465Y-1309206D01*
X47458674Y-1294996D01*
X47473223Y-1273223D01*
X47494996Y-1258674D01*
X47509206Y-1244465D01*
X47530010Y-1235278D01*
X47554329Y-1219030D01*
X47577043Y-1214511D01*
X47594591Y-1206764D01*
X47645952Y-1200805D01*
X47650000Y-1200000D01*
X48150000Y-1200000D01*
X48154047Y-1200805D01*
G37*
G36*
X54354047Y-1200805D02*
G01*
X54405408Y-1206764D01*
X54422954Y-1214511D01*
X54445671Y-1219030D01*
X54469991Y-1235280D01*
X54490793Y-1244465D01*
X54505000Y-1258672D01*
X54526777Y-1273223D01*
X54541327Y-1294999D01*
X54555534Y-1309206D01*
X54564718Y-1330006D01*
X54580970Y-1354329D01*
X54585489Y-1377048D01*
X54593235Y-1394591D01*
X54599192Y-1445940D01*
X54600000Y-1450000D01*
X54600000Y-3750000D01*
X54599192Y-3754059D01*
X54593235Y-3805408D01*
X54585489Y-3822950D01*
X54580970Y-3845671D01*
X54564716Y-3869995D01*
X54555534Y-3890793D01*
X54541329Y-3904997D01*
X54526777Y-3926777D01*
X54504997Y-3941329D01*
X54490793Y-3955534D01*
X54469995Y-3964716D01*
X54445671Y-3980970D01*
X54422950Y-3985489D01*
X54405408Y-3993235D01*
X54354061Y-3999192D01*
X54350000Y-4000000D01*
X53850000Y-4000000D01*
X53845941Y-3999192D01*
X53794591Y-3993235D01*
X53777048Y-3985489D01*
X53754329Y-3980970D01*
X53730006Y-3964718D01*
X53709206Y-3955534D01*
X53694999Y-3941327D01*
X53673223Y-3926777D01*
X53658672Y-3905000D01*
X53644465Y-3890793D01*
X53635280Y-3869991D01*
X53619030Y-3845671D01*
X53614511Y-3822954D01*
X53606764Y-3805408D01*
X53600805Y-3754049D01*
X53600000Y-3750000D01*
X53600000Y-1450000D01*
X53600804Y-1445953D01*
X53606764Y-1394591D01*
X53614511Y-1377043D01*
X53619030Y-1354329D01*
X53635278Y-1330010D01*
X53644465Y-1309206D01*
X53658674Y-1294996D01*
X53673223Y-1273223D01*
X53694996Y-1258674D01*
X53709206Y-1244465D01*
X53730010Y-1235278D01*
X53754329Y-1219030D01*
X53777043Y-1214511D01*
X53794591Y-1206764D01*
X53845952Y-1200805D01*
X53850000Y-1200000D01*
X54350000Y-1200000D01*
X54354047Y-1200805D01*
G37*
G36*
X68154047Y-1200805D02*
G01*
X68205408Y-1206764D01*
X68222954Y-1214511D01*
X68245671Y-1219030D01*
X68269991Y-1235280D01*
X68290793Y-1244465D01*
X68305000Y-1258672D01*
X68326777Y-1273223D01*
X68341327Y-1294999D01*
X68355534Y-1309206D01*
X68364718Y-1330006D01*
X68380970Y-1354329D01*
X68385489Y-1377048D01*
X68393235Y-1394591D01*
X68399192Y-1445940D01*
X68400000Y-1450000D01*
X68400000Y-3750000D01*
X68399192Y-3754059D01*
X68393235Y-3805408D01*
X68385489Y-3822950D01*
X68380970Y-3845671D01*
X68364716Y-3869995D01*
X68355534Y-3890793D01*
X68341329Y-3904997D01*
X68326777Y-3926777D01*
X68304997Y-3941329D01*
X68290793Y-3955534D01*
X68269995Y-3964716D01*
X68245671Y-3980970D01*
X68222950Y-3985489D01*
X68205408Y-3993235D01*
X68154061Y-3999192D01*
X68150000Y-4000000D01*
X67650000Y-4000000D01*
X67645941Y-3999192D01*
X67594591Y-3993235D01*
X67577048Y-3985489D01*
X67554329Y-3980970D01*
X67530006Y-3964718D01*
X67509206Y-3955534D01*
X67494999Y-3941327D01*
X67473223Y-3926777D01*
X67458672Y-3905000D01*
X67444465Y-3890793D01*
X67435280Y-3869991D01*
X67419030Y-3845671D01*
X67414511Y-3822954D01*
X67406764Y-3805408D01*
X67400805Y-3754049D01*
X67400000Y-3750000D01*
X67400000Y-1450000D01*
X67400804Y-1445953D01*
X67406764Y-1394591D01*
X67414511Y-1377043D01*
X67419030Y-1354329D01*
X67435278Y-1330010D01*
X67444465Y-1309206D01*
X67458674Y-1294996D01*
X67473223Y-1273223D01*
X67494996Y-1258674D01*
X67509206Y-1244465D01*
X67530010Y-1235278D01*
X67554329Y-1219030D01*
X67577043Y-1214511D01*
X67594591Y-1206764D01*
X67645952Y-1200805D01*
X67650000Y-1200000D01*
X68150000Y-1200000D01*
X68154047Y-1200805D01*
G37*
G36*
X74354047Y-1200805D02*
G01*
X74405408Y-1206764D01*
X74422954Y-1214511D01*
X74445671Y-1219030D01*
X74469991Y-1235280D01*
X74490793Y-1244465D01*
X74505000Y-1258672D01*
X74526777Y-1273223D01*
X74541327Y-1294999D01*
X74555534Y-1309206D01*
X74564718Y-1330006D01*
X74580970Y-1354329D01*
X74585489Y-1377048D01*
X74593235Y-1394591D01*
X74599192Y-1445940D01*
X74600000Y-1450000D01*
X74600000Y-3750000D01*
X74599192Y-3754059D01*
X74593235Y-3805408D01*
X74585489Y-3822950D01*
X74580970Y-3845671D01*
X74564716Y-3869995D01*
X74555534Y-3890793D01*
X74541329Y-3904997D01*
X74526777Y-3926777D01*
X74504997Y-3941329D01*
X74490793Y-3955534D01*
X74469995Y-3964716D01*
X74445671Y-3980970D01*
X74422950Y-3985489D01*
X74405408Y-3993235D01*
X74354061Y-3999192D01*
X74350000Y-4000000D01*
X73850000Y-4000000D01*
X73845941Y-3999192D01*
X73794591Y-3993235D01*
X73777048Y-3985489D01*
X73754329Y-3980970D01*
X73730006Y-3964718D01*
X73709206Y-3955534D01*
X73694999Y-3941327D01*
X73673223Y-3926777D01*
X73658672Y-3905000D01*
X73644465Y-3890793D01*
X73635280Y-3869991D01*
X73619030Y-3845671D01*
X73614511Y-3822954D01*
X73606764Y-3805408D01*
X73600805Y-3754049D01*
X73600000Y-3750000D01*
X73600000Y-1450000D01*
X73600804Y-1445953D01*
X73606764Y-1394591D01*
X73614511Y-1377043D01*
X73619030Y-1354329D01*
X73635278Y-1330010D01*
X73644465Y-1309206D01*
X73658674Y-1294996D01*
X73673223Y-1273223D01*
X73694996Y-1258674D01*
X73709206Y-1244465D01*
X73730010Y-1235278D01*
X73754329Y-1219030D01*
X73777043Y-1214511D01*
X73794591Y-1206764D01*
X73845952Y-1200805D01*
X73850000Y-1200000D01*
X74350000Y-1200000D01*
X74354047Y-1200805D01*
G37*
M02*
