%TF.GenerationSoftware,KiCad,Pcbnew,10.0.5*%
%TF.CreationDate,2026-08-09T16:04:04-04:00*%
%TF.ProjectId,hr-v0-dxl-protection-carrier-p0.3,68722d76-302d-4647-986c-2d70726f7465,rev?*%
%TF.SameCoordinates,Original*%
%TF.FileFunction,Soldermask,Top*%
%TF.FilePolarity,Negative*%
%FSLAX46Y46*%
G04 Gerber Fmt 4.6, Leading zero omitted, Abs format (unit mm)*
G04 Created by KiCad (PCBNEW 10.0.5) date 2026-08-09 16:04:04*
%MOMM*%
%LPD*%
G01*
G04 APERTURE LIST*
G04 APERTURE END LIST*
G36*
X5373513Y-53444208D02*
G01*
X5612293Y-53521793D01*
X5835998Y-53635776D01*
X6039117Y-53783350D01*
X6216650Y-53960883D01*
X6364224Y-54164002D01*
X6478207Y-54387707D01*
X6555792Y-54626487D01*
X6595068Y-54874465D01*
X6595068Y-55125535D01*
X6555792Y-55373513D01*
X6478207Y-55612293D01*
X6364224Y-55835998D01*
X6216650Y-56039117D01*
X6039117Y-56216650D01*
X5835998Y-56364224D01*
X5612293Y-56478207D01*
X5373513Y-56555792D01*
X5125535Y-56595068D01*
X4874465Y-56595068D01*
X4626487Y-56555792D01*
X4387707Y-56478207D01*
X4164002Y-56364224D01*
X3960883Y-56216650D01*
X3783350Y-56039117D01*
X3635776Y-55835998D01*
X3521793Y-55612293D01*
X3444208Y-55373513D01*
X3404932Y-55125535D01*
X3404932Y-54874465D01*
X3444208Y-54626487D01*
X3521793Y-54387707D01*
X3635776Y-54164002D01*
X3783350Y-53960883D01*
X3960883Y-53783350D01*
X4164002Y-53635776D01*
X4387707Y-53521793D01*
X4626487Y-53444208D01*
X4874465Y-53404932D01*
X5125535Y-53404932D01*
X5373513Y-53444208D01*
G37*
G36*
X95373513Y-53444208D02*
G01*
X95612293Y-53521793D01*
X95835998Y-53635776D01*
X96039117Y-53783350D01*
X96216650Y-53960883D01*
X96364224Y-54164002D01*
X96478207Y-54387707D01*
X96555792Y-54626487D01*
X96595068Y-54874465D01*
X96595068Y-55125535D01*
X96555792Y-55373513D01*
X96478207Y-55612293D01*
X96364224Y-55835998D01*
X96216650Y-56039117D01*
X96039117Y-56216650D01*
X95835998Y-56364224D01*
X95612293Y-56478207D01*
X95373513Y-56555792D01*
X95125535Y-56595068D01*
X94874465Y-56595068D01*
X94626487Y-56555792D01*
X94387707Y-56478207D01*
X94164002Y-56364224D01*
X93960883Y-56216650D01*
X93783350Y-56039117D01*
X93635776Y-55835998D01*
X93521793Y-55612293D01*
X93444208Y-55373513D01*
X93404932Y-55125535D01*
X93404932Y-54874465D01*
X93444208Y-54626487D01*
X93521793Y-54387707D01*
X93635776Y-54164002D01*
X93783350Y-53960883D01*
X93960883Y-53783350D01*
X94164002Y-53635776D01*
X94387707Y-53521793D01*
X94626487Y-53444208D01*
X94874465Y-53404932D01*
X95125535Y-53404932D01*
X95373513Y-53444208D01*
G37*
G36*
X50326824Y-50638682D02*
G01*
X50535757Y-50706569D01*
X50731498Y-50806304D01*
X50909227Y-50935432D01*
X51064568Y-51090773D01*
X51193696Y-51268502D01*
X51293431Y-51464243D01*
X51361318Y-51673176D01*
X51395684Y-51890157D01*
X51395684Y-52109843D01*
X51361318Y-52326824D01*
X51293431Y-52535757D01*
X51193696Y-52731498D01*
X51064568Y-52909227D01*
X50909227Y-53064568D01*
X50731498Y-53193696D01*
X50535757Y-53293431D01*
X50326824Y-53361318D01*
X50109843Y-53395684D01*
X49890157Y-53395684D01*
X49673176Y-53361318D01*
X49464243Y-53293431D01*
X49268502Y-53193696D01*
X49090773Y-53064568D01*
X48935432Y-52909227D01*
X48806304Y-52731498D01*
X48706569Y-52535757D01*
X48638682Y-52326824D01*
X48604316Y-52109843D01*
X48604316Y-51890157D01*
X48638682Y-51673176D01*
X48706569Y-51464243D01*
X48806304Y-51268502D01*
X48935432Y-51090773D01*
X49090773Y-50935432D01*
X49268502Y-50806304D01*
X49464243Y-50706569D01*
X49673176Y-50638682D01*
X49890157Y-50604316D01*
X50109843Y-50604316D01*
X50326824Y-50638682D01*
G37*
G36*
X10290285Y-49043060D02*
G01*
X10471397Y-49118079D01*
X10634393Y-49226990D01*
X10773010Y-49365607D01*
X10881921Y-49528603D01*
X10956940Y-49709715D01*
X10995185Y-49901983D01*
X10995185Y-50098017D01*
X10956940Y-50290285D01*
X10881921Y-50471397D01*
X10773010Y-50634393D01*
X10634393Y-50773010D01*
X10471397Y-50881921D01*
X10290285Y-50956940D01*
X10098017Y-50995185D01*
X9901983Y-50995185D01*
X9709715Y-50956940D01*
X9528603Y-50881921D01*
X9365607Y-50773010D01*
X9226990Y-50634393D01*
X9118079Y-50471397D01*
X9043060Y-50290285D01*
X9004815Y-50098017D01*
X9004815Y-49901983D01*
X9043060Y-49709715D01*
X9118079Y-49528603D01*
X9226990Y-49365607D01*
X9365607Y-49226990D01*
X9528603Y-49118079D01*
X9709715Y-49043060D01*
X9901983Y-49004815D01*
X10098017Y-49004815D01*
X10290285Y-49043060D01*
G37*
G36*
X70326824Y-40638682D02*
G01*
X70535757Y-40706569D01*
X70731498Y-40806304D01*
X70909227Y-40935432D01*
X71064568Y-41090773D01*
X71193696Y-41268502D01*
X71293431Y-41464243D01*
X71361318Y-41673176D01*
X71395684Y-41890157D01*
X71395684Y-42109843D01*
X71361318Y-42326824D01*
X71293431Y-42535757D01*
X71193696Y-42731498D01*
X71064568Y-42909227D01*
X70909227Y-43064568D01*
X70731498Y-43193696D01*
X70535757Y-43293431D01*
X70326824Y-43361318D01*
X70109843Y-43395684D01*
X69890157Y-43395684D01*
X69673176Y-43361318D01*
X69464243Y-43293431D01*
X69268502Y-43193696D01*
X69090773Y-43064568D01*
X68935432Y-42909227D01*
X68806304Y-42731498D01*
X68706569Y-42535757D01*
X68638682Y-42326824D01*
X68604316Y-42109843D01*
X68604316Y-41890157D01*
X68638682Y-41673176D01*
X68706569Y-41464243D01*
X68806304Y-41268502D01*
X68935432Y-41090773D01*
X69090773Y-40935432D01*
X69268502Y-40806304D01*
X69464243Y-40706569D01*
X69673176Y-40638682D01*
X69890157Y-40604316D01*
X70109843Y-40604316D01*
X70326824Y-40638682D01*
G37*
G36*
X39451537Y-41540224D02*
G01*
X39516421Y-41583579D01*
X39559776Y-41648463D01*
X39575000Y-41725000D01*
X39575000Y-42275000D01*
X39559776Y-42351537D01*
X39516421Y-42416421D01*
X39451537Y-42459776D01*
X39375000Y-42475000D01*
X38975000Y-42475000D01*
X38898463Y-42459776D01*
X38833579Y-42416421D01*
X38790224Y-42351537D01*
X38775000Y-42275000D01*
X38775000Y-41725000D01*
X38790224Y-41648463D01*
X38833579Y-41583579D01*
X38898463Y-41540224D01*
X38975000Y-41525000D01*
X39375000Y-41525000D01*
X39451537Y-41540224D01*
G37*
G36*
X41101537Y-41540224D02*
G01*
X41166421Y-41583579D01*
X41209776Y-41648463D01*
X41225000Y-41725000D01*
X41225000Y-42275000D01*
X41209776Y-42351537D01*
X41166421Y-42416421D01*
X41101537Y-42459776D01*
X41025000Y-42475000D01*
X40625000Y-42475000D01*
X40548463Y-42459776D01*
X40483579Y-42416421D01*
X40440224Y-42351537D01*
X40425000Y-42275000D01*
X40425000Y-41725000D01*
X40440224Y-41648463D01*
X40483579Y-41583579D01*
X40548463Y-41540224D01*
X40625000Y-41525000D01*
X41025000Y-41525000D01*
X41101537Y-41540224D01*
G37*
G36*
X43451537Y-41540224D02*
G01*
X43516421Y-41583579D01*
X43559776Y-41648463D01*
X43575000Y-41725000D01*
X43575000Y-42275000D01*
X43559776Y-42351537D01*
X43516421Y-42416421D01*
X43451537Y-42459776D01*
X43375000Y-42475000D01*
X42975000Y-42475000D01*
X42898463Y-42459776D01*
X42833579Y-42416421D01*
X42790224Y-42351537D01*
X42775000Y-42275000D01*
X42775000Y-41725000D01*
X42790224Y-41648463D01*
X42833579Y-41583579D01*
X42898463Y-41540224D01*
X42975000Y-41525000D01*
X43375000Y-41525000D01*
X43451537Y-41540224D01*
G37*
G36*
X45101537Y-41540224D02*
G01*
X45166421Y-41583579D01*
X45209776Y-41648463D01*
X45225000Y-41725000D01*
X45225000Y-42275000D01*
X45209776Y-42351537D01*
X45166421Y-42416421D01*
X45101537Y-42459776D01*
X45025000Y-42475000D01*
X44625000Y-42475000D01*
X44548463Y-42459776D01*
X44483579Y-42416421D01*
X44440224Y-42351537D01*
X44425000Y-42275000D01*
X44425000Y-41725000D01*
X44440224Y-41648463D01*
X44483579Y-41583579D01*
X44548463Y-41540224D01*
X44625000Y-41525000D01*
X45025000Y-41525000D01*
X45101537Y-41540224D01*
G37*
G36*
X59451537Y-41540224D02*
G01*
X59516421Y-41583579D01*
X59559776Y-41648463D01*
X59575000Y-41725000D01*
X59575000Y-42275000D01*
X59559776Y-42351537D01*
X59516421Y-42416421D01*
X59451537Y-42459776D01*
X59375000Y-42475000D01*
X58975000Y-42475000D01*
X58898463Y-42459776D01*
X58833579Y-42416421D01*
X58790224Y-42351537D01*
X58775000Y-42275000D01*
X58775000Y-41725000D01*
X58790224Y-41648463D01*
X58833579Y-41583579D01*
X58898463Y-41540224D01*
X58975000Y-41525000D01*
X59375000Y-41525000D01*
X59451537Y-41540224D01*
G37*
G36*
X61101537Y-41540224D02*
G01*
X61166421Y-41583579D01*
X61209776Y-41648463D01*
X61225000Y-41725000D01*
X61225000Y-42275000D01*
X61209776Y-42351537D01*
X61166421Y-42416421D01*
X61101537Y-42459776D01*
X61025000Y-42475000D01*
X60625000Y-42475000D01*
X60548463Y-42459776D01*
X60483579Y-42416421D01*
X60440224Y-42351537D01*
X60425000Y-42275000D01*
X60425000Y-41725000D01*
X60440224Y-41648463D01*
X60483579Y-41583579D01*
X60548463Y-41540224D01*
X60625000Y-41525000D01*
X61025000Y-41525000D01*
X61101537Y-41540224D01*
G37*
G36*
X20326824Y-36638682D02*
G01*
X20535757Y-36706569D01*
X20731498Y-36806304D01*
X20909227Y-36935432D01*
X21064568Y-37090773D01*
X21193696Y-37268502D01*
X21293431Y-37464243D01*
X21361318Y-37673176D01*
X21395684Y-37890157D01*
X21395684Y-38109843D01*
X21361318Y-38326824D01*
X21293431Y-38535757D01*
X21193696Y-38731498D01*
X21064568Y-38909227D01*
X20909227Y-39064568D01*
X20731498Y-39193696D01*
X20535757Y-39293431D01*
X20326824Y-39361318D01*
X20109843Y-39395684D01*
X19890157Y-39395684D01*
X19673176Y-39361318D01*
X19464243Y-39293431D01*
X19268502Y-39193696D01*
X19090773Y-39064568D01*
X18935432Y-38909227D01*
X18806304Y-38731498D01*
X18706569Y-38535757D01*
X18638682Y-38326824D01*
X18604316Y-38109843D01*
X18604316Y-37890157D01*
X18638682Y-37673176D01*
X18706569Y-37464243D01*
X18806304Y-37268502D01*
X18935432Y-37090773D01*
X19090773Y-36935432D01*
X19268502Y-36806304D01*
X19464243Y-36706569D01*
X19673176Y-36638682D01*
X19890157Y-36604316D01*
X20109843Y-36604316D01*
X20326824Y-36638682D01*
G37*
G36*
X31536104Y-35542127D02*
G01*
X31609099Y-35590901D01*
X31657873Y-35663896D01*
X31675000Y-35750000D01*
X31675000Y-36250000D01*
X31657873Y-36336104D01*
X31609099Y-36409099D01*
X31536104Y-36457873D01*
X31450000Y-36475000D01*
X31000000Y-36475000D01*
X30913896Y-36457873D01*
X30840901Y-36409099D01*
X30792127Y-36336104D01*
X30775000Y-36250000D01*
X30775000Y-35750000D01*
X30792127Y-35663896D01*
X30840901Y-35590901D01*
X30913896Y-35542127D01*
X31000000Y-35525000D01*
X31450000Y-35525000D01*
X31536104Y-35542127D01*
G37*
G36*
X33086104Y-35542127D02*
G01*
X33159099Y-35590901D01*
X33207873Y-35663896D01*
X33225000Y-35750000D01*
X33225000Y-36250000D01*
X33207873Y-36336104D01*
X33159099Y-36409099D01*
X33086104Y-36457873D01*
X33000000Y-36475000D01*
X32550000Y-36475000D01*
X32463896Y-36457873D01*
X32390901Y-36409099D01*
X32342127Y-36336104D01*
X32325000Y-36250000D01*
X32325000Y-35750000D01*
X32342127Y-35663896D01*
X32390901Y-35590901D01*
X32463896Y-35542127D01*
X32550000Y-35525000D01*
X33000000Y-35525000D01*
X33086104Y-35542127D01*
G37*
G36*
X8315151Y-32647301D02*
G01*
X8516623Y-32712763D01*
X8705373Y-32808936D01*
X8876755Y-32933452D01*
X9026548Y-33083245D01*
X9151064Y-33254627D01*
X9247237Y-33443377D01*
X9312699Y-33644849D01*
X9345838Y-33854080D01*
X9345838Y-34065920D01*
X9312699Y-34275151D01*
X9247237Y-34476623D01*
X9151064Y-34665373D01*
X9026548Y-34836755D01*
X8876755Y-34986548D01*
X8705373Y-35111064D01*
X8516623Y-35207237D01*
X8315151Y-35272699D01*
X8105920Y-35305838D01*
X7894080Y-35305838D01*
X7684849Y-35272699D01*
X7483377Y-35207237D01*
X7294627Y-35111064D01*
X7123245Y-34986548D01*
X6973452Y-34836755D01*
X6848936Y-34665373D01*
X6752763Y-34476623D01*
X6687301Y-34275151D01*
X6654162Y-34065920D01*
X6654162Y-33854080D01*
X6687301Y-33644849D01*
X6752763Y-33443377D01*
X6848936Y-33254627D01*
X6973452Y-33083245D01*
X7123245Y-32933452D01*
X7294627Y-32808936D01*
X7483377Y-32712763D01*
X7684849Y-32647301D01*
X7894080Y-32614162D01*
X8105920Y-32614162D01*
X8315151Y-32647301D01*
G37*
G36*
X67536104Y-30542127D02*
G01*
X67609099Y-30590901D01*
X67657873Y-30663896D01*
X67675000Y-30750000D01*
X67675000Y-31250000D01*
X67657873Y-31336104D01*
X67609099Y-31409099D01*
X67536104Y-31457873D01*
X67450000Y-31475000D01*
X67000000Y-31475000D01*
X66913896Y-31457873D01*
X66840901Y-31409099D01*
X66792127Y-31336104D01*
X66775000Y-31250000D01*
X66775000Y-30750000D01*
X66792127Y-30663896D01*
X66840901Y-30590901D01*
X66913896Y-30542127D01*
X67000000Y-30525000D01*
X67450000Y-30525000D01*
X67536104Y-30542127D01*
G37*
G36*
X69086104Y-30542127D02*
G01*
X69159099Y-30590901D01*
X69207873Y-30663896D01*
X69225000Y-30750000D01*
X69225000Y-31250000D01*
X69207873Y-31336104D01*
X69159099Y-31409099D01*
X69086104Y-31457873D01*
X69000000Y-31475000D01*
X68550000Y-31475000D01*
X68463896Y-31457873D01*
X68390901Y-31409099D01*
X68342127Y-31336104D01*
X68325000Y-31250000D01*
X68325000Y-30750000D01*
X68342127Y-30663896D01*
X68390901Y-30590901D01*
X68463896Y-30542127D01*
X68550000Y-30525000D01*
X69000000Y-30525000D01*
X69086104Y-30542127D01*
G37*
G36*
X9104046Y-28650805D02*
G01*
X9155407Y-28656764D01*
X9172953Y-28664511D01*
X9195670Y-28669030D01*
X9219987Y-28685278D01*
X9240793Y-28694465D01*
X9255004Y-28708676D01*
X9276776Y-28723224D01*
X9291323Y-28744995D01*
X9305534Y-28759206D01*
X9314719Y-28780010D01*
X9330970Y-28804330D01*
X9335488Y-28827047D01*
X9343235Y-28844592D01*
X9349196Y-28895966D01*
X9349999Y-28900002D01*
X9349999Y-28902883D01*
X9350000Y-28902892D01*
X9350000Y-30050000D01*
X9350000Y-31099999D01*
X9349194Y-31104048D01*
X9343235Y-31155407D01*
X9335489Y-31172949D01*
X9330970Y-31195670D01*
X9314718Y-31219991D01*
X9305534Y-31240793D01*
X9291325Y-31255001D01*
X9276776Y-31276776D01*
X9255001Y-31291325D01*
X9240793Y-31305534D01*
X9219991Y-31314718D01*
X9195670Y-31330970D01*
X9172950Y-31335488D01*
X9155407Y-31343235D01*
X9104034Y-31349196D01*
X9099998Y-31349999D01*
X9097115Y-31349999D01*
X9097107Y-31350000D01*
X6902893Y-31350000D01*
X6902892Y-31349999D01*
X6900001Y-31350000D01*
X6895951Y-31349194D01*
X6844592Y-31343235D01*
X6827048Y-31335488D01*
X6804330Y-31330970D01*
X6780010Y-31314719D01*
X6759206Y-31305534D01*
X6744995Y-31291323D01*
X6723224Y-31276776D01*
X6708676Y-31255004D01*
X6694465Y-31240793D01*
X6685278Y-31219987D01*
X6669030Y-31195670D01*
X6664511Y-31172954D01*
X6656764Y-31155407D01*
X6650803Y-31104033D01*
X6650001Y-31099998D01*
X6650000Y-31097115D01*
X6650000Y-31097107D01*
X6650000Y-28902892D01*
X6650000Y-28902891D01*
X6650000Y-28900001D01*
X6650804Y-28895954D01*
X6656764Y-28844592D01*
X6664511Y-28827044D01*
X6669030Y-28804330D01*
X6685277Y-28780014D01*
X6694465Y-28759206D01*
X6708678Y-28744992D01*
X6723224Y-28723224D01*
X6744992Y-28708678D01*
X6759206Y-28694465D01*
X6780014Y-28685277D01*
X6804330Y-28669030D01*
X6827043Y-28664512D01*
X6844592Y-28656764D01*
X6895967Y-28650803D01*
X6900002Y-28650001D01*
X6902884Y-28650000D01*
X6902893Y-28650000D01*
X9097107Y-28650000D01*
X9099999Y-28650000D01*
X9104046Y-28650805D01*
G37*
G36*
X93104046Y-28650805D02*
G01*
X93155407Y-28656764D01*
X93172953Y-28664511D01*
X93195670Y-28669030D01*
X93219987Y-28685278D01*
X93240793Y-28694465D01*
X93255004Y-28708676D01*
X93276776Y-28723224D01*
X93291323Y-28744995D01*
X93305534Y-28759206D01*
X93314719Y-28780010D01*
X93330970Y-28804330D01*
X93335488Y-28827047D01*
X93343235Y-28844592D01*
X93349196Y-28895966D01*
X93349999Y-28900002D01*
X93349999Y-28902883D01*
X93350000Y-28902892D01*
X93350000Y-30050000D01*
X93350000Y-31099999D01*
X93349194Y-31104048D01*
X93343235Y-31155407D01*
X93335489Y-31172949D01*
X93330970Y-31195670D01*
X93314718Y-31219991D01*
X93305534Y-31240793D01*
X93291325Y-31255001D01*
X93276776Y-31276776D01*
X93255001Y-31291325D01*
X93240793Y-31305534D01*
X93219991Y-31314718D01*
X93195670Y-31330970D01*
X93172950Y-31335488D01*
X93155407Y-31343235D01*
X93104034Y-31349196D01*
X93099998Y-31349999D01*
X93097115Y-31349999D01*
X93097107Y-31350000D01*
X90902893Y-31350000D01*
X90902892Y-31349999D01*
X90900001Y-31350000D01*
X90895951Y-31349194D01*
X90844592Y-31343235D01*
X90827048Y-31335488D01*
X90804330Y-31330970D01*
X90780010Y-31314719D01*
X90759206Y-31305534D01*
X90744995Y-31291323D01*
X90723224Y-31276776D01*
X90708676Y-31255004D01*
X90694465Y-31240793D01*
X90685278Y-31219987D01*
X90669030Y-31195670D01*
X90664511Y-31172954D01*
X90656764Y-31155407D01*
X90650803Y-31104033D01*
X90650001Y-31099998D01*
X90650000Y-31097115D01*
X90650000Y-31097107D01*
X90650000Y-28902892D01*
X90650000Y-28902891D01*
X90650000Y-28900001D01*
X90650804Y-28895954D01*
X90656764Y-28844592D01*
X90664511Y-28827044D01*
X90669030Y-28804330D01*
X90685277Y-28780014D01*
X90694465Y-28759206D01*
X90708678Y-28744992D01*
X90723224Y-28723224D01*
X90744992Y-28708678D01*
X90759206Y-28694465D01*
X90780014Y-28685277D01*
X90804330Y-28669030D01*
X90827043Y-28664512D01*
X90844592Y-28656764D01*
X90895967Y-28650803D01*
X90900002Y-28650001D01*
X90902884Y-28650000D01*
X90902893Y-28650000D01*
X93097107Y-28650000D01*
X93099999Y-28650000D01*
X93104046Y-28650805D01*
G37*
G36*
X49388268Y-30507612D02*
G01*
X49420711Y-30529289D01*
X49442388Y-30561732D01*
X49450000Y-30600000D01*
X49450000Y-31150000D01*
X49442388Y-31188268D01*
X49420711Y-31220711D01*
X49388268Y-31242388D01*
X49350000Y-31250000D01*
X49200000Y-31250000D01*
X49161732Y-31242388D01*
X49129289Y-31220711D01*
X49107612Y-31188268D01*
X49100000Y-31150000D01*
X49100000Y-30929287D01*
X49070712Y-30900000D01*
X48850000Y-30900000D01*
X48811732Y-30892388D01*
X48779289Y-30870711D01*
X48757612Y-30838268D01*
X48750000Y-30800000D01*
X48750000Y-30600000D01*
X48757612Y-30561732D01*
X48779289Y-30529289D01*
X48811732Y-30507612D01*
X48850000Y-30500000D01*
X49350000Y-30500000D01*
X49388268Y-30507612D01*
G37*
G36*
X49888268Y-28757612D02*
G01*
X49920711Y-28779289D01*
X49942388Y-28811732D01*
X49950000Y-28850000D01*
X49950000Y-31150000D01*
X49942388Y-31188268D01*
X49920711Y-31220711D01*
X49888268Y-31242388D01*
X49850000Y-31250000D01*
X49650000Y-31250000D01*
X49611732Y-31242388D01*
X49579289Y-31220711D01*
X49557612Y-31188268D01*
X49550000Y-31150000D01*
X49550000Y-28850000D01*
X49557612Y-28811732D01*
X49579289Y-28779289D01*
X49611732Y-28757612D01*
X49650000Y-28750000D01*
X49850000Y-28750000D01*
X49888268Y-28757612D01*
G37*
G36*
X50388268Y-28757612D02*
G01*
X50420711Y-28779289D01*
X50442388Y-28811732D01*
X50450000Y-28850000D01*
X50450000Y-31150000D01*
X50442388Y-31188268D01*
X50420711Y-31220711D01*
X50388268Y-31242388D01*
X50350000Y-31250000D01*
X50150000Y-31250000D01*
X50111732Y-31242388D01*
X50079289Y-31220711D01*
X50057612Y-31188268D01*
X50050000Y-31150000D01*
X50050000Y-28850000D01*
X50057612Y-28811732D01*
X50079289Y-28779289D01*
X50111732Y-28757612D01*
X50150000Y-28750000D01*
X50350000Y-28750000D01*
X50388268Y-28757612D01*
G37*
G36*
X51188268Y-30507612D02*
G01*
X51220711Y-30529289D01*
X51242388Y-30561732D01*
X51250000Y-30600000D01*
X51250000Y-30800000D01*
X51242388Y-30838268D01*
X51220711Y-30870711D01*
X51188268Y-30892388D01*
X51150000Y-30900000D01*
X50929287Y-30900000D01*
X50900000Y-30929287D01*
X50900000Y-31150000D01*
X50892388Y-31188268D01*
X50870711Y-31220711D01*
X50838268Y-31242388D01*
X50800000Y-31250000D01*
X50650000Y-31250000D01*
X50611732Y-31242388D01*
X50579289Y-31220711D01*
X50557612Y-31188268D01*
X50550000Y-31150000D01*
X50550000Y-30600000D01*
X50557612Y-30561732D01*
X50579289Y-30529289D01*
X50611732Y-30507612D01*
X50650000Y-30500000D01*
X50800000Y-30500000D01*
X51150000Y-30500000D01*
X51188268Y-30507612D01*
G37*
G36*
X49388268Y-30057612D02*
G01*
X49420711Y-30079289D01*
X49442388Y-30111732D01*
X49450000Y-30150000D01*
X49450000Y-30300000D01*
X49442388Y-30338268D01*
X49420711Y-30370711D01*
X49388268Y-30392388D01*
X49350000Y-30400000D01*
X48850000Y-30400000D01*
X48811732Y-30392388D01*
X48779289Y-30370711D01*
X48757612Y-30338268D01*
X48750000Y-30300000D01*
X48750000Y-30150000D01*
X48757612Y-30111732D01*
X48779289Y-30079289D01*
X48811732Y-30057612D01*
X48850000Y-30050000D01*
X49350000Y-30050000D01*
X49388268Y-30057612D01*
G37*
G36*
X51188268Y-30057612D02*
G01*
X51220711Y-30079289D01*
X51242388Y-30111732D01*
X51250000Y-30150000D01*
X51250000Y-30300000D01*
X51242388Y-30338268D01*
X51220711Y-30370711D01*
X51188268Y-30392388D01*
X51150000Y-30400000D01*
X50650000Y-30400000D01*
X50611732Y-30392388D01*
X50579289Y-30370711D01*
X50557612Y-30338268D01*
X50550000Y-30300000D01*
X50550000Y-30150000D01*
X50557612Y-30111732D01*
X50579289Y-30079289D01*
X50611732Y-30057612D01*
X50650000Y-30050000D01*
X51150000Y-30050000D01*
X51188268Y-30057612D01*
G37*
G36*
X49388268Y-29607612D02*
G01*
X49420711Y-29629289D01*
X49442388Y-29661732D01*
X49450000Y-29700000D01*
X49450000Y-29850000D01*
X49442388Y-29888268D01*
X49420711Y-29920711D01*
X49388268Y-29942388D01*
X49350000Y-29950000D01*
X48850000Y-29950000D01*
X48811732Y-29942388D01*
X48779289Y-29920711D01*
X48757612Y-29888268D01*
X48750000Y-29850000D01*
X48750000Y-29700000D01*
X48757612Y-29661732D01*
X48779289Y-29629289D01*
X48811732Y-29607612D01*
X48850000Y-29600000D01*
X49350000Y-29600000D01*
X49388268Y-29607612D01*
G37*
G36*
X51188268Y-29607612D02*
G01*
X51220711Y-29629289D01*
X51242388Y-29661732D01*
X51250000Y-29700000D01*
X51250000Y-29850000D01*
X51242388Y-29888268D01*
X51220711Y-29920711D01*
X51188268Y-29942388D01*
X51150000Y-29950000D01*
X50650000Y-29950000D01*
X50611732Y-29942388D01*
X50579289Y-29920711D01*
X50557612Y-29888268D01*
X50550000Y-29850000D01*
X50550000Y-29700000D01*
X50557612Y-29661732D01*
X50579289Y-29629289D01*
X50611732Y-29607612D01*
X50650000Y-29600000D01*
X51150000Y-29600000D01*
X51188268Y-29607612D01*
G37*
G36*
X49388268Y-28757612D02*
G01*
X49420711Y-28779289D01*
X49442388Y-28811732D01*
X49450000Y-28850000D01*
X49450000Y-29400000D01*
X49442388Y-29438268D01*
X49420711Y-29470711D01*
X49388268Y-29492388D01*
X49350000Y-29500000D01*
X49200000Y-29500000D01*
X48850000Y-29500000D01*
X48811732Y-29492388D01*
X48779289Y-29470711D01*
X48757612Y-29438268D01*
X48750000Y-29400000D01*
X48750000Y-29200000D01*
X48757612Y-29161732D01*
X48779289Y-29129289D01*
X48811732Y-29107612D01*
X48850000Y-29100000D01*
X49070711Y-29100000D01*
X49100000Y-29070711D01*
X49100000Y-28854922D01*
X49100000Y-28850000D01*
X49107612Y-28811732D01*
X49129289Y-28779289D01*
X49161732Y-28757612D01*
X49200000Y-28750000D01*
X49350000Y-28750000D01*
X49388268Y-28757612D01*
G37*
G36*
X50838268Y-28757612D02*
G01*
X50870711Y-28779289D01*
X50892388Y-28811732D01*
X50900000Y-28850000D01*
X50900000Y-29070712D01*
X50929288Y-29100000D01*
X51150000Y-29100000D01*
X51188268Y-29107612D01*
X51220711Y-29129289D01*
X51242388Y-29161732D01*
X51250000Y-29200000D01*
X51250000Y-29400000D01*
X51242388Y-29438268D01*
X51220711Y-29470711D01*
X51188268Y-29492388D01*
X51150000Y-29500000D01*
X50650000Y-29500000D01*
X50611732Y-29492388D01*
X50579289Y-29470711D01*
X50557612Y-29438268D01*
X50550000Y-29400000D01*
X50550000Y-29200000D01*
X50550000Y-28850000D01*
X50557612Y-28811732D01*
X50579289Y-28779289D01*
X50611732Y-28757612D01*
X50650000Y-28750000D01*
X50800000Y-28750000D01*
X50838268Y-28757612D01*
G37*
G36*
X31536104Y-27542127D02*
G01*
X31609099Y-27590901D01*
X31657873Y-27663896D01*
X31675000Y-27750000D01*
X31675000Y-28250000D01*
X31657873Y-28336104D01*
X31609099Y-28409099D01*
X31536104Y-28457873D01*
X31450000Y-28475000D01*
X31000000Y-28475000D01*
X30913896Y-28457873D01*
X30840901Y-28409099D01*
X30792127Y-28336104D01*
X30775000Y-28250000D01*
X30775000Y-27750000D01*
X30792127Y-27663896D01*
X30840901Y-27590901D01*
X30913896Y-27542127D01*
X31000000Y-27525000D01*
X31450000Y-27525000D01*
X31536104Y-27542127D01*
G37*
G36*
X33086104Y-27542127D02*
G01*
X33159099Y-27590901D01*
X33207873Y-27663896D01*
X33225000Y-27750000D01*
X33225000Y-28250000D01*
X33207873Y-28336104D01*
X33159099Y-28409099D01*
X33086104Y-28457873D01*
X33000000Y-28475000D01*
X32550000Y-28475000D01*
X32463896Y-28457873D01*
X32390901Y-28409099D01*
X32342127Y-28336104D01*
X32325000Y-28250000D01*
X32325000Y-27750000D01*
X32342127Y-27663896D01*
X32390901Y-27590901D01*
X32463896Y-27542127D01*
X32550000Y-27525000D01*
X33000000Y-27525000D01*
X33086104Y-27542127D01*
G37*
G36*
X92315151Y-24727301D02*
G01*
X92516623Y-24792763D01*
X92705373Y-24888936D01*
X92876755Y-25013452D01*
X93026548Y-25163245D01*
X93151064Y-25334627D01*
X93247237Y-25523377D01*
X93312699Y-25724849D01*
X93345838Y-25934080D01*
X93345838Y-26145920D01*
X93312699Y-26355151D01*
X93247237Y-26556623D01*
X93151064Y-26745373D01*
X93026548Y-26916755D01*
X92876755Y-27066548D01*
X92705373Y-27191064D01*
X92516623Y-27287237D01*
X92315151Y-27352699D01*
X92105920Y-27385838D01*
X91894080Y-27385838D01*
X91684849Y-27352699D01*
X91483377Y-27287237D01*
X91294627Y-27191064D01*
X91123245Y-27066548D01*
X90973452Y-26916755D01*
X90848936Y-26745373D01*
X90752763Y-26556623D01*
X90687301Y-26355151D01*
X90654162Y-26145920D01*
X90654162Y-25934080D01*
X90687301Y-25724849D01*
X90752763Y-25523377D01*
X90848936Y-25334627D01*
X90973452Y-25163245D01*
X91123245Y-25013452D01*
X91294627Y-24888936D01*
X91483377Y-24792763D01*
X91684849Y-24727301D01*
X91894080Y-24694162D01*
X92105920Y-24694162D01*
X92315151Y-24727301D01*
G37*
G36*
X67536104Y-25542127D02*
G01*
X67609099Y-25590901D01*
X67657873Y-25663896D01*
X67675000Y-25750000D01*
X67675000Y-26250000D01*
X67657873Y-26336104D01*
X67609099Y-26409099D01*
X67536104Y-26457873D01*
X67450000Y-26475000D01*
X67000000Y-26475000D01*
X66913896Y-26457873D01*
X66840901Y-26409099D01*
X66792127Y-26336104D01*
X66775000Y-26250000D01*
X66775000Y-25750000D01*
X66792127Y-25663896D01*
X66840901Y-25590901D01*
X66913896Y-25542127D01*
X67000000Y-25525000D01*
X67450000Y-25525000D01*
X67536104Y-25542127D01*
G37*
G36*
X69086104Y-25542127D02*
G01*
X69159099Y-25590901D01*
X69207873Y-25663896D01*
X69225000Y-25750000D01*
X69225000Y-26250000D01*
X69207873Y-26336104D01*
X69159099Y-26409099D01*
X69086104Y-26457873D01*
X69000000Y-26475000D01*
X68550000Y-26475000D01*
X68463896Y-26457873D01*
X68390901Y-26409099D01*
X68342127Y-26336104D01*
X68325000Y-26250000D01*
X68325000Y-25750000D01*
X68342127Y-25663896D01*
X68390901Y-25590901D01*
X68463896Y-25542127D01*
X68550000Y-25525000D01*
X69000000Y-25525000D01*
X69086104Y-25542127D01*
G37*
G36*
X20326824Y-20638682D02*
G01*
X20535757Y-20706569D01*
X20731498Y-20806304D01*
X20909227Y-20935432D01*
X21064568Y-21090773D01*
X21193696Y-21268502D01*
X21293431Y-21464243D01*
X21361318Y-21673176D01*
X21395684Y-21890157D01*
X21395684Y-22109843D01*
X21361318Y-22326824D01*
X21293431Y-22535757D01*
X21193696Y-22731498D01*
X21064568Y-22909227D01*
X20909227Y-23064568D01*
X20731498Y-23193696D01*
X20535757Y-23293431D01*
X20326824Y-23361318D01*
X20109843Y-23395684D01*
X19890157Y-23395684D01*
X19673176Y-23361318D01*
X19464243Y-23293431D01*
X19268502Y-23193696D01*
X19090773Y-23064568D01*
X18935432Y-22909227D01*
X18806304Y-22731498D01*
X18706569Y-22535757D01*
X18638682Y-22326824D01*
X18604316Y-22109843D01*
X18604316Y-21890157D01*
X18638682Y-21673176D01*
X18706569Y-21464243D01*
X18806304Y-21268502D01*
X18935432Y-21090773D01*
X19090773Y-20935432D01*
X19268502Y-20806304D01*
X19464243Y-20706569D01*
X19673176Y-20638682D01*
X19890157Y-20604316D01*
X20109843Y-20604316D01*
X20326824Y-20638682D01*
G37*
G36*
X78654047Y-20750805D02*
G01*
X78705408Y-20756764D01*
X78722954Y-20764511D01*
X78745671Y-20769030D01*
X78769991Y-20785280D01*
X78790793Y-20794465D01*
X78805000Y-20808672D01*
X78826777Y-20823223D01*
X78841327Y-20844999D01*
X78855534Y-20859206D01*
X78864718Y-20880006D01*
X78880970Y-20904329D01*
X78885489Y-20927048D01*
X78893235Y-20944591D01*
X78899192Y-20995940D01*
X78900000Y-21000000D01*
X78900000Y-23000000D01*
X78899192Y-23004059D01*
X78893235Y-23055408D01*
X78885489Y-23072950D01*
X78880970Y-23095671D01*
X78864716Y-23119995D01*
X78855534Y-23140793D01*
X78841329Y-23154997D01*
X78826777Y-23176777D01*
X78804997Y-23191329D01*
X78790793Y-23205534D01*
X78769995Y-23214716D01*
X78745671Y-23230970D01*
X78722950Y-23235489D01*
X78705408Y-23243235D01*
X78654061Y-23249192D01*
X78650000Y-23250000D01*
X77350000Y-23250000D01*
X77345941Y-23249192D01*
X77294591Y-23243235D01*
X77277048Y-23235489D01*
X77254329Y-23230970D01*
X77230006Y-23214718D01*
X77209206Y-23205534D01*
X77194999Y-23191327D01*
X77173223Y-23176777D01*
X77158672Y-23155000D01*
X77144465Y-23140793D01*
X77135280Y-23119991D01*
X77119030Y-23095671D01*
X77114511Y-23072954D01*
X77106764Y-23055408D01*
X77100805Y-23004049D01*
X77100000Y-23000000D01*
X77100000Y-21000000D01*
X77100804Y-20995953D01*
X77106764Y-20944591D01*
X77114511Y-20927043D01*
X77119030Y-20904329D01*
X77135278Y-20880010D01*
X77144465Y-20859206D01*
X77158674Y-20844996D01*
X77173223Y-20823223D01*
X77194996Y-20808674D01*
X77209206Y-20794465D01*
X77230010Y-20785278D01*
X77254329Y-20769030D01*
X77277043Y-20764511D01*
X77294591Y-20756764D01*
X77345952Y-20750805D01*
X77350000Y-20750000D01*
X78650000Y-20750000D01*
X78654047Y-20750805D01*
G37*
G36*
X78654047Y-16750805D02*
G01*
X78705408Y-16756764D01*
X78722954Y-16764511D01*
X78745671Y-16769030D01*
X78769991Y-16785280D01*
X78790793Y-16794465D01*
X78805000Y-16808672D01*
X78826777Y-16823223D01*
X78841327Y-16844999D01*
X78855534Y-16859206D01*
X78864718Y-16880006D01*
X78880970Y-16904329D01*
X78885489Y-16927048D01*
X78893235Y-16944591D01*
X78899192Y-16995940D01*
X78900000Y-17000000D01*
X78900000Y-19000000D01*
X78899192Y-19004059D01*
X78893235Y-19055408D01*
X78885489Y-19072950D01*
X78880970Y-19095671D01*
X78864716Y-19119995D01*
X78855534Y-19140793D01*
X78841329Y-19154997D01*
X78826777Y-19176777D01*
X78804997Y-19191329D01*
X78790793Y-19205534D01*
X78769995Y-19214716D01*
X78745671Y-19230970D01*
X78722950Y-19235489D01*
X78705408Y-19243235D01*
X78654061Y-19249192D01*
X78650000Y-19250000D01*
X77350000Y-19250000D01*
X77345941Y-19249192D01*
X77294591Y-19243235D01*
X77277048Y-19235489D01*
X77254329Y-19230970D01*
X77230006Y-19214718D01*
X77209206Y-19205534D01*
X77194999Y-19191327D01*
X77173223Y-19176777D01*
X77158672Y-19155000D01*
X77144465Y-19140793D01*
X77135280Y-19119991D01*
X77119030Y-19095671D01*
X77114511Y-19072954D01*
X77106764Y-19055408D01*
X77100805Y-19004049D01*
X77100000Y-19000000D01*
X77100000Y-17000000D01*
X77100804Y-16995953D01*
X77106764Y-16944591D01*
X77114511Y-16927043D01*
X77119030Y-16904329D01*
X77135278Y-16880010D01*
X77144465Y-16859206D01*
X77158674Y-16844996D01*
X77173223Y-16823223D01*
X77194996Y-16808674D01*
X77209206Y-16794465D01*
X77230010Y-16785278D01*
X77254329Y-16769030D01*
X77277043Y-16764511D01*
X77294591Y-16756764D01*
X77345952Y-16750805D01*
X77350000Y-16750000D01*
X78650000Y-16750000D01*
X78654047Y-16750805D01*
G37*
G36*
X39451537Y-17540224D02*
G01*
X39516421Y-17583579D01*
X39559776Y-17648463D01*
X39575000Y-17725000D01*
X39575000Y-18275000D01*
X39559776Y-18351537D01*
X39516421Y-18416421D01*
X39451537Y-18459776D01*
X39375000Y-18475000D01*
X38975000Y-18475000D01*
X38898463Y-18459776D01*
X38833579Y-18416421D01*
X38790224Y-18351537D01*
X38775000Y-18275000D01*
X38775000Y-17725000D01*
X38790224Y-17648463D01*
X38833579Y-17583579D01*
X38898463Y-17540224D01*
X38975000Y-17525000D01*
X39375000Y-17525000D01*
X39451537Y-17540224D01*
G37*
G36*
X41101537Y-17540224D02*
G01*
X41166421Y-17583579D01*
X41209776Y-17648463D01*
X41225000Y-17725000D01*
X41225000Y-18275000D01*
X41209776Y-18351537D01*
X41166421Y-18416421D01*
X41101537Y-18459776D01*
X41025000Y-18475000D01*
X40625000Y-18475000D01*
X40548463Y-18459776D01*
X40483579Y-18416421D01*
X40440224Y-18351537D01*
X40425000Y-18275000D01*
X40425000Y-17725000D01*
X40440224Y-17648463D01*
X40483579Y-17583579D01*
X40548463Y-17540224D01*
X40625000Y-17525000D01*
X41025000Y-17525000D01*
X41101537Y-17540224D01*
G37*
G36*
X43451537Y-17540224D02*
G01*
X43516421Y-17583579D01*
X43559776Y-17648463D01*
X43575000Y-17725000D01*
X43575000Y-18275000D01*
X43559776Y-18351537D01*
X43516421Y-18416421D01*
X43451537Y-18459776D01*
X43375000Y-18475000D01*
X42975000Y-18475000D01*
X42898463Y-18459776D01*
X42833579Y-18416421D01*
X42790224Y-18351537D01*
X42775000Y-18275000D01*
X42775000Y-17725000D01*
X42790224Y-17648463D01*
X42833579Y-17583579D01*
X42898463Y-17540224D01*
X42975000Y-17525000D01*
X43375000Y-17525000D01*
X43451537Y-17540224D01*
G37*
G36*
X45101537Y-17540224D02*
G01*
X45166421Y-17583579D01*
X45209776Y-17648463D01*
X45225000Y-17725000D01*
X45225000Y-18275000D01*
X45209776Y-18351537D01*
X45166421Y-18416421D01*
X45101537Y-18459776D01*
X45025000Y-18475000D01*
X44625000Y-18475000D01*
X44548463Y-18459776D01*
X44483579Y-18416421D01*
X44440224Y-18351537D01*
X44425000Y-18275000D01*
X44425000Y-17725000D01*
X44440224Y-17648463D01*
X44483579Y-17583579D01*
X44548463Y-17540224D01*
X44625000Y-17525000D01*
X45025000Y-17525000D01*
X45101537Y-17540224D01*
G37*
G36*
X59536104Y-17542127D02*
G01*
X59609099Y-17590901D01*
X59657873Y-17663896D01*
X59675000Y-17750000D01*
X59675000Y-18250000D01*
X59657873Y-18336104D01*
X59609099Y-18409099D01*
X59536104Y-18457873D01*
X59450000Y-18475000D01*
X59000000Y-18475000D01*
X58913896Y-18457873D01*
X58840901Y-18409099D01*
X58792127Y-18336104D01*
X58775000Y-18250000D01*
X58775000Y-17750000D01*
X58792127Y-17663896D01*
X58840901Y-17590901D01*
X58913896Y-17542127D01*
X59000000Y-17525000D01*
X59450000Y-17525000D01*
X59536104Y-17542127D01*
G37*
G36*
X61086104Y-17542127D02*
G01*
X61159099Y-17590901D01*
X61207873Y-17663896D01*
X61225000Y-17750000D01*
X61225000Y-18250000D01*
X61207873Y-18336104D01*
X61159099Y-18409099D01*
X61086104Y-18457873D01*
X61000000Y-18475000D01*
X60550000Y-18475000D01*
X60463896Y-18457873D01*
X60390901Y-18409099D01*
X60342127Y-18336104D01*
X60325000Y-18250000D01*
X60325000Y-17750000D01*
X60342127Y-17663896D01*
X60390901Y-17590901D01*
X60463896Y-17542127D01*
X60550000Y-17525000D01*
X61000000Y-17525000D01*
X61086104Y-17542127D01*
G37*
G36*
X16326824Y-10638682D02*
G01*
X16535757Y-10706569D01*
X16731498Y-10806304D01*
X16909227Y-10935432D01*
X17064568Y-11090773D01*
X17193696Y-11268502D01*
X17293431Y-11464243D01*
X17361318Y-11673176D01*
X17395684Y-11890157D01*
X17395684Y-12109843D01*
X17361318Y-12326824D01*
X17293431Y-12535757D01*
X17193696Y-12731498D01*
X17064568Y-12909227D01*
X16909227Y-13064568D01*
X16731498Y-13193696D01*
X16535757Y-13293431D01*
X16326824Y-13361318D01*
X16109843Y-13395684D01*
X15890157Y-13395684D01*
X15673176Y-13361318D01*
X15464243Y-13293431D01*
X15268502Y-13193696D01*
X15090773Y-13064568D01*
X14935432Y-12909227D01*
X14806304Y-12731498D01*
X14706569Y-12535757D01*
X14638682Y-12326824D01*
X14604316Y-12109843D01*
X14604316Y-11890157D01*
X14638682Y-11673176D01*
X14706569Y-11464243D01*
X14806304Y-11268502D01*
X14935432Y-11090773D01*
X15090773Y-10935432D01*
X15268502Y-10806304D01*
X15464243Y-10706569D01*
X15673176Y-10638682D01*
X15890157Y-10604316D01*
X16109843Y-10604316D01*
X16326824Y-10638682D01*
G37*
G36*
X84326824Y-10638682D02*
G01*
X84535757Y-10706569D01*
X84731498Y-10806304D01*
X84909227Y-10935432D01*
X85064568Y-11090773D01*
X85193696Y-11268502D01*
X85293431Y-11464243D01*
X85361318Y-11673176D01*
X85395684Y-11890157D01*
X85395684Y-12109843D01*
X85361318Y-12326824D01*
X85293431Y-12535757D01*
X85193696Y-12731498D01*
X85064568Y-12909227D01*
X84909227Y-13064568D01*
X84731498Y-13193696D01*
X84535757Y-13293431D01*
X84326824Y-13361318D01*
X84109843Y-13395684D01*
X83890157Y-13395684D01*
X83673176Y-13361318D01*
X83464243Y-13293431D01*
X83268502Y-13193696D01*
X83090773Y-13064568D01*
X82935432Y-12909227D01*
X82806304Y-12731498D01*
X82706569Y-12535757D01*
X82638682Y-12326824D01*
X82604316Y-12109843D01*
X82604316Y-11890157D01*
X82638682Y-11673176D01*
X82706569Y-11464243D01*
X82806304Y-11268502D01*
X82935432Y-11090773D01*
X83090773Y-10935432D01*
X83268502Y-10806304D01*
X83464243Y-10706569D01*
X83673176Y-10638682D01*
X83890157Y-10604316D01*
X84109843Y-10604316D01*
X84326824Y-10638682D01*
G37*
G36*
X10290285Y-9043060D02*
G01*
X10471397Y-9118079D01*
X10634393Y-9226990D01*
X10773010Y-9365607D01*
X10881921Y-9528603D01*
X10956940Y-9709715D01*
X10995185Y-9901983D01*
X10995185Y-10098017D01*
X10956940Y-10290285D01*
X10881921Y-10471397D01*
X10773010Y-10634393D01*
X10634393Y-10773010D01*
X10471397Y-10881921D01*
X10290285Y-10956940D01*
X10098017Y-10995185D01*
X9901983Y-10995185D01*
X9709715Y-10956940D01*
X9528603Y-10881921D01*
X9365607Y-10773010D01*
X9226990Y-10634393D01*
X9118079Y-10471397D01*
X9043060Y-10290285D01*
X9004815Y-10098017D01*
X9004815Y-9901983D01*
X9043060Y-9709715D01*
X9118079Y-9528603D01*
X9226990Y-9365607D01*
X9365607Y-9226990D01*
X9528603Y-9118079D01*
X9709715Y-9043060D01*
X9901983Y-9004815D01*
X10098017Y-9004815D01*
X10290285Y-9043060D01*
G37*
G36*
X90290285Y-9043060D02*
G01*
X90471397Y-9118079D01*
X90634393Y-9226990D01*
X90773010Y-9365607D01*
X90881921Y-9528603D01*
X90956940Y-9709715D01*
X90995185Y-9901983D01*
X90995185Y-10098017D01*
X90956940Y-10290285D01*
X90881921Y-10471397D01*
X90773010Y-10634393D01*
X90634393Y-10773010D01*
X90471397Y-10881921D01*
X90290285Y-10956940D01*
X90098017Y-10995185D01*
X89901983Y-10995185D01*
X89709715Y-10956940D01*
X89528603Y-10881921D01*
X89365607Y-10773010D01*
X89226990Y-10634393D01*
X89118079Y-10471397D01*
X89043060Y-10290285D01*
X89004815Y-10098017D01*
X89004815Y-9901983D01*
X89043060Y-9709715D01*
X89118079Y-9528603D01*
X89226990Y-9365607D01*
X89365607Y-9226990D01*
X89528603Y-9118079D01*
X89709715Y-9043060D01*
X89901983Y-9004815D01*
X90098017Y-9004815D01*
X90290285Y-9043060D01*
G37*
G36*
X5373513Y-3444208D02*
G01*
X5612293Y-3521793D01*
X5835998Y-3635776D01*
X6039117Y-3783350D01*
X6216650Y-3960883D01*
X6364224Y-4164002D01*
X6478207Y-4387707D01*
X6555792Y-4626487D01*
X6595068Y-4874465D01*
X6595068Y-5125535D01*
X6555792Y-5373513D01*
X6478207Y-5612293D01*
X6364224Y-5835998D01*
X6216650Y-6039117D01*
X6039117Y-6216650D01*
X5835998Y-6364224D01*
X5612293Y-6478207D01*
X5373513Y-6555792D01*
X5125535Y-6595068D01*
X4874465Y-6595068D01*
X4626487Y-6555792D01*
X4387707Y-6478207D01*
X4164002Y-6364224D01*
X3960883Y-6216650D01*
X3783350Y-6039117D01*
X3635776Y-5835998D01*
X3521793Y-5612293D01*
X3444208Y-5373513D01*
X3404932Y-5125535D01*
X3404932Y-4874465D01*
X3444208Y-4626487D01*
X3521793Y-4387707D01*
X3635776Y-4164002D01*
X3783350Y-3960883D01*
X3960883Y-3783350D01*
X4164002Y-3635776D01*
X4387707Y-3521793D01*
X4626487Y-3444208D01*
X4874465Y-3404932D01*
X5125535Y-3404932D01*
X5373513Y-3444208D01*
G37*
G36*
X95373513Y-3444208D02*
G01*
X95612293Y-3521793D01*
X95835998Y-3635776D01*
X96039117Y-3783350D01*
X96216650Y-3960883D01*
X96364224Y-4164002D01*
X96478207Y-4387707D01*
X96555792Y-4626487D01*
X96595068Y-4874465D01*
X96595068Y-5125535D01*
X96555792Y-5373513D01*
X96478207Y-5612293D01*
X96364224Y-5835998D01*
X96216650Y-6039117D01*
X96039117Y-6216650D01*
X95835998Y-6364224D01*
X95612293Y-6478207D01*
X95373513Y-6555792D01*
X95125535Y-6595068D01*
X94874465Y-6595068D01*
X94626487Y-6555792D01*
X94387707Y-6478207D01*
X94164002Y-6364224D01*
X93960883Y-6216650D01*
X93783350Y-6039117D01*
X93635776Y-5835998D01*
X93521793Y-5612293D01*
X93444208Y-5373513D01*
X93404932Y-5125535D01*
X93404932Y-4874465D01*
X93444208Y-4626487D01*
X93521793Y-4387707D01*
X93635776Y-4164002D01*
X93783350Y-3960883D01*
X93960883Y-3783350D01*
X94164002Y-3635776D01*
X94387707Y-3521793D01*
X94626487Y-3444208D01*
X94874465Y-3404932D01*
X95125535Y-3404932D01*
X95373513Y-3444208D01*
G37*
M02*
