M48
; DRILL file KiCad 10.0.5 date 2026-08-18T10:38:19
; FORMAT={-:-/ absolute / metric / decimal}
; #@! TF.CreationDate,2026-08-18T10:38:19-04:00
; #@! TF.GenerationSoftware,Kicad,Pcbnew,10.0.5
; #@! TF.FileFunction,Plated,1,6,PTH
FMAT,2
METRIC
; #@! TA.AperFunction,Plated,PTH,ViaDrill
T1C0.150
; #@! TA.AperFunction,Plated,PTH,ComponentDrill
T2C0.750
%
G90
G05
T1
X4.625Y-15.35
X4.625Y-24.65
X4.975Y-8.455
X5.025Y-30.155
X6.555Y-13.965
X6.555Y-26.035
X6.575Y-30.155
X6.625Y-8.455
X7.0Y-26.5
X7.825Y-13.965
X7.825Y-26.035
X8.5Y-26.0
X8.75Y-8.61
X9.0Y-9.0
X9.095Y-13.965
X9.095Y-26.035
X10.0Y-8.0
X10.05Y-8.61
X10.225Y-10.045
X10.225Y-30.035
X10.365Y-13.965
X10.365Y-26.035
X10.5Y-26.5
X11.635Y-13.965
X11.635Y-26.035
X11.775Y-10.045
X11.775Y-30.035
X12.5Y-10.0
X12.515Y-12.54
X12.905Y-12.865
X13.485Y-13.2
X14.175Y-13.965
X14.862Y-8.16
X14.915Y-13.2
X15.225Y-10.165
X15.425Y-30.155
X15.445Y-12.865
X15.445Y-26.035
X15.885Y-13.2
X16.738Y-7.21
X16.738Y-9.11
X16.775Y-10.165
X16.975Y-30.155
X17.0Y-11.0
X17.375Y-15.35
X17.375Y-24.65
X24.625Y-15.35
X24.625Y-24.65
X24.975Y-8.335
X25.025Y-30.035
X26.5Y-25.5
X26.555Y-13.965
X26.555Y-26.035
X26.575Y-30.035
X26.625Y-8.335
X27.825Y-13.965
X27.825Y-26.035
X28.75Y-8.73
X29.0Y-8.0
X29.0Y-25.5
X29.095Y-13.965
X29.095Y-26.035
X30.0Y-9.5
X30.05Y-8.73
X30.225Y-10.165
X30.225Y-30.155
X30.365Y-13.965
X30.365Y-26.035
X30.5Y-26.5
X31.635Y-13.965
X31.635Y-26.035
X31.775Y-10.165
X31.775Y-30.155
X32.25Y-39.15
X32.5Y-31.0
X32.515Y-13.32
X32.905Y-12.865
X33.485Y-13.32
X33.5Y-39.15
X34.0Y-30.5
X34.175Y-13.965
X34.75Y-39.15
X34.862Y-8.28
X34.915Y-13.32
X35.225Y-10.045
X35.425Y-30.035
X35.445Y-13.085
X35.445Y-26.035
X35.885Y-13.32
X36.0Y-39.15
X36.737Y-7.33
X36.737Y-9.23
X36.775Y-10.045
X36.975Y-30.035
X37.0Y-10.5
X37.25Y-39.15
X37.375Y-15.35
X37.375Y-24.65
X38.5Y-39.15
X39.75Y-39.15
X41.0Y-39.15
X42.25Y-39.15
X43.5Y-39.15
X44.625Y-15.35
X44.625Y-24.65
X44.75Y-39.15
X44.975Y-8.455
X45.025Y-30.155
X45.5Y-26.0
X46.0Y-39.15
X46.555Y-13.965
X46.555Y-26.035
X46.575Y-30.155
X46.625Y-8.455
X47.25Y-39.15
X47.825Y-13.965
X47.825Y-26.035
X48.0Y-26.5
X48.5Y-39.15
X48.75Y-8.61
X49.0Y-9.0
X49.0Y-25.5
X49.095Y-13.965
X49.095Y-26.035
X49.75Y-39.15
X50.0Y-8.0
X50.05Y-8.61
X50.225Y-10.045
X50.225Y-30.035
X50.365Y-13.965
X50.365Y-26.035
X51.635Y-13.965
X51.635Y-26.035
X51.775Y-10.045
X51.775Y-30.035
X52.5Y-10.0
X52.515Y-13.2
X52.905Y-12.865
X53.485Y-13.2
X54.175Y-13.965
X54.862Y-8.16
X54.915Y-13.2
X55.225Y-10.165
X55.425Y-30.155
X55.445Y-12.865
X55.445Y-26.035
X55.885Y-13.2
X56.737Y-7.21
X56.737Y-9.11
X56.775Y-10.165
X56.975Y-30.155
X57.0Y-11.0
X57.375Y-15.35
X57.375Y-24.65
X57.5Y-30.0
X64.625Y-15.35
X64.625Y-24.65
X64.975Y-8.335
X65.025Y-30.035
X66.5Y-25.5
X66.5Y-29.5
X66.555Y-13.965
X66.555Y-26.035
X66.575Y-30.035
X66.625Y-8.335
X67.825Y-13.965
X67.825Y-26.035
X68.0Y-26.5
X68.5Y-26.0
X68.75Y-8.73
X69.0Y-8.0
X69.095Y-13.965
X69.095Y-26.035
X70.0Y-9.5
X70.05Y-8.73
X70.225Y-10.165
X70.225Y-30.155
X70.365Y-13.965
X70.365Y-26.035
X71.635Y-13.965
X71.635Y-26.035
X71.775Y-10.165
X71.775Y-30.155
X72.515Y-13.32
X72.905Y-12.865
X73.485Y-13.32
X74.175Y-13.965
X74.862Y-8.28
X74.915Y-13.32
X75.225Y-10.045
X75.425Y-30.035
X75.445Y-13.085
X75.445Y-26.035
X75.885Y-13.32
X76.737Y-7.33
X76.737Y-9.23
X76.775Y-10.045
X76.975Y-30.035
X77.0Y-10.5
X77.375Y-15.35
X77.375Y-24.65
T2
X9.0Y-4.0
X11.0Y-4.0
X13.0Y-4.0
X29.0Y-4.0
X31.0Y-4.0
X33.0Y-4.0
X49.0Y-4.0
X51.0Y-4.0
X53.0Y-4.0
X69.0Y-4.0
X71.0Y-4.0
X73.0Y-4.0
M30
