%TF.GenerationSoftware,KiCad,Pcbnew,10.0.5*%
%TF.CreationDate,2026-08-09T15:42:55-04:00*%
%TF.ProjectId,hr-v0-dxl-protection-carrier-p0.2,68722d76-302d-4647-986c-2d70726f7465,rev?*%
%TF.SameCoordinates,Original*%
%TF.FileFunction,Copper,L3,Inr*%
%TF.FilePolarity,Positive*%
%FSLAX46Y46*%
G04 Gerber Fmt 4.6, Leading zero omitted, Abs format (unit mm)*
G04 Created by KiCad (PCBNEW 10.0.5) date 2026-08-09 15:42:55*
%MOMM*%
%LPD*%
G01*
G04 APERTURE LIST*
G04 Aperture macros list*
%AMRoundRect*
0 Rectangle with rounded corners*
0 $1 Rounding radius*
0 $2 $3 $4 $5 $6 $7 $8 $9 X,Y pos of 4 corners*
0 Add a 4 corners polygon primitive as box body*
4,1,4,$2,$3,$4,$5,$6,$7,$8,$9,$2,$3,0*
0 Add four circle primitives for the rounded corners*
1,1,$1+$1,$2,$3*
1,1,$1+$1,$4,$5*
1,1,$1+$1,$6,$7*
1,1,$1+$1,$8,$9*
0 Add four rect primitives between the rounded corners*
20,1,$1+$1,$2,$3,$4,$5,0*
20,1,$1+$1,$4,$5,$6,$7,0*
20,1,$1+$1,$6,$7,$8,$9,0*
20,1,$1+$1,$8,$9,$2,$3,0*%
G04 Aperture macros list end*
%TA.AperFunction,ComponentPad*%
%ADD10C,2.800000*%
%TD*%
%TA.AperFunction,ComponentPad*%
%ADD11RoundRect,0.250001X1.099999X-1.099999X1.099999X1.099999X-1.099999X1.099999X-1.099999X-1.099999X0*%
%TD*%
%TA.AperFunction,ComponentPad*%
%ADD12C,2.700000*%
%TD*%
%TA.AperFunction,ComponentPad*%
%ADD13RoundRect,0.250001X-1.099999X1.099999X-1.099999X-1.099999X1.099999X-1.099999X1.099999X1.099999X0*%
%TD*%
%TA.AperFunction,ViaPad*%
%ADD14C,0.600000*%
%TD*%
%TA.AperFunction,Conductor*%
%ADD15C,0.180000*%
%TD*%
G04 APERTURE END LIST*
D10*
%TO.N,BRANCH_FUSED_IN*%
%TO.C,TPVIN1*%
X16000000Y-12000000D03*
%TD*%
D11*
%TO.N,BRANCH_LIMITED_OUT*%
%TO.C,JOUT1*%
X92000000Y-30000000D03*
D12*
%TO.N,ACT_0V_PE_BONDED*%
X92000000Y-26040000D03*
%TD*%
D10*
%TO.N,SPLYGD_DIAG*%
%TO.C,TPSPLY1*%
X20000000Y-22000000D03*
%TD*%
%TO.N,ILM_SET*%
%TO.C,TPILM1*%
X70000000Y-42000000D03*
%TD*%
%TO.N,FLT_DIAG*%
%TO.C,TPFLT1*%
X20000000Y-38000000D03*
%TD*%
%TO.N,BRANCH_LIMITED_OUT*%
%TO.C,TPOUT1*%
X84000000Y-12000000D03*
%TD*%
D13*
%TO.N,BRANCH_FUSED_IN*%
%TO.C,JIN1*%
X8000000Y-30000000D03*
D12*
%TO.N,ACT_0V_PE_BONDED*%
X8000000Y-33960000D03*
%TD*%
D10*
%TO.N,ACT_0V_PE_BONDED*%
%TO.C,TPGND1*%
X50000000Y-52000000D03*
%TD*%
D14*
%TO.N,UVLO_SET*%
X42000000Y-18000000D03*
X43225000Y-20000000D03*
X45000000Y-32000000D03*
%TO.N,OVLO_SET*%
X42000000Y-42000000D03*
X43225000Y-40000000D03*
X47000000Y-30500000D03*
%TO.N,SPLYGD_DIAG*%
X45000000Y-29000000D03*
%TO.N,FLT_DIAG*%
X45000000Y-27500000D03*
%TO.N,DVDT_SET*%
X55000000Y-27500000D03*
X58000000Y-18000000D03*
%TO.N,ACT_0V_PE_BONDED*%
X54000000Y-29750000D03*
X71000000Y-24000000D03*
X47000000Y-17000000D03*
X63000000Y-16000000D03*
X80000000Y-18000000D03*
X63000000Y-44000000D03*
X35000000Y-38000000D03*
X71000000Y-29000000D03*
X35000000Y-30000000D03*
X47000000Y-43000000D03*
%TO.N,ILM_SET*%
X58000000Y-42000000D03*
X55000000Y-30500000D03*
%TD*%
%TO.N,UVLO_SET*%
D15*
X45000000Y-32000000D02*
X43225000Y-32000000D01*
X42000000Y-20000000D02*
X42000000Y-18000000D01*
X43225000Y-20000000D02*
X42000000Y-20000000D01*
X43225000Y-32000000D02*
X43225000Y-20000000D01*
%TO.N,OVLO_SET*%
X43225000Y-42000000D02*
X42000000Y-42000000D01*
X43225000Y-40000000D02*
X43225000Y-42000000D01*
X47000000Y-40000000D02*
X43225000Y-40000000D01*
X47000000Y-30500000D02*
X47000000Y-40000000D01*
%TO.N,DVDT_SET*%
X56000000Y-24000000D02*
X56000000Y-20000000D01*
X56000000Y-20000000D02*
X58000000Y-18000000D01*
X55000000Y-27500000D02*
X56000000Y-24000000D01*
%TO.N,ILM_SET*%
X58000000Y-42000000D02*
X70000000Y-42000000D01*
X55000000Y-30500000D02*
X55000000Y-42000000D01*
X55000000Y-42000000D02*
X58000000Y-42000000D01*
%TD*%
M02*
