%TF.GenerationSoftware,KiCad,Pcbnew,10.0.5*%
%TF.CreationDate,2026-08-16T13:14:08-04:00*%
%TF.ProjectId,hr30-swd-adapter-p0.1,68723330-2d73-4776-942d-616461707465,rev?*%
%TF.SameCoordinates,Original*%
%TF.FileFunction,Copper,L1,Top*%
%TF.FilePolarity,Positive*%
%FSLAX46Y46*%
G04 Gerber Fmt 4.6, Leading zero omitted, Abs format (unit mm)*
G04 Created by KiCad (PCBNEW 10.0.5) date 2026-08-16 13:14:08*
%MOMM*%
%LPD*%
G01*
G04 APERTURE LIST*
G04 Aperture macros list*
%AMRoundRect*
0 Rectangle with rounded corners*
0 $1 Rounding radius*
0 $2 $3 $4 $5 $6 $7 $8 $9 X,Y pos of 4 corners*
0 Add a 4 corners polygon primitive as box body*
4,1,4,$2,$3,$4,$5,$6,$7,$8,$9,$2,$3,0*
0 Add four circle primitives for the rounded corners*
1,1,$1+$1,$2,$3*
1,1,$1+$1,$4,$5*
1,1,$1+$1,$6,$7*
1,1,$1+$1,$8,$9*
0 Add four rect primitives between the rounded corners*
20,1,$1+$1,$2,$3,$4,$5,0*
20,1,$1+$1,$4,$5,$6,$7,0*
20,1,$1+$1,$6,$7,$8,$9,0*
20,1,$1+$1,$8,$9,$2,$3,0*%
G04 Aperture macros list end*
%TA.AperFunction,SMDPad,CuDef*%
%ADD10RoundRect,0.150000X0.700000X-0.150000X0.700000X0.150000X-0.700000X0.150000X-0.700000X-0.150000X0*%
%TD*%
%TA.AperFunction,SMDPad,CuDef*%
%ADD11RoundRect,0.250000X1.150000X-0.250000X1.150000X0.250000X-1.150000X0.250000X-1.150000X-0.250000X0*%
%TD*%
%TA.AperFunction,SMDPad,CuDef*%
%ADD12RoundRect,0.088800X-0.281200X-1.306200X0.281200X-1.306200X0.281200X1.306200X-0.281200X1.306200X0*%
%TD*%
%TA.AperFunction,ViaPad*%
%ADD13C,0.600000*%
%TD*%
%TA.AperFunction,Conductor*%
%ADD14C,0.220000*%
%TD*%
G04 APERTURE END LIST*
D10*
%TO.P,J2,1*%
%TO.N,CTRL_GND*%
X25950000Y-12500000D03*
%TO.P,J2,2*%
%TO.N,CTRL_3V3*%
X25950000Y-11250000D03*
%TO.P,J2,3*%
%TO.N,SWDIO*%
X25950000Y-10000000D03*
%TO.P,J2,4*%
%TO.N,SWCLK*%
X25950000Y-8750000D03*
%TO.P,J2,5*%
%TO.N,MCU_NRST*%
X25950000Y-7500000D03*
D11*
%TO.P,J2,MP*%
%TO.N,N/C*%
X22600000Y-14350000D03*
X22600000Y-5650000D03*
%TD*%
D12*
%TO.P,J1,1*%
%TO.N,N/C*%
X4190000Y-12035000D03*
%TO.P,J1,2*%
X4190000Y-7965000D03*
%TO.P,J1,3*%
%TO.N,CTRL_3V3*%
X5460000Y-12035000D03*
%TO.P,J1,4*%
%TO.N,SWDIO*%
X5460000Y-7965000D03*
%TO.P,J1,5*%
%TO.N,CTRL_GND*%
X6730000Y-12035000D03*
%TO.P,J1,6*%
%TO.N,SWCLK*%
X6730000Y-7965000D03*
%TO.P,J1,7*%
%TO.N,CTRL_GND*%
X8000000Y-12035000D03*
%TO.P,J1,8*%
%TO.N,N/C*%
X8000000Y-7965000D03*
%TO.P,J1,9*%
X9270000Y-12035000D03*
%TO.P,J1,10*%
X9270000Y-7965000D03*
%TO.P,J1,11*%
%TO.N,CTRL_GND*%
X10540000Y-12035000D03*
%TO.P,J1,12*%
%TO.N,MCU_NRST*%
X10540000Y-7965000D03*
%TO.P,J1,13*%
%TO.N,N/C*%
X11810000Y-12035000D03*
%TO.P,J1,14*%
X11810000Y-7965000D03*
%TD*%
D13*
%TO.N,CTRL_3V3*%
X24500000Y-11250000D03*
X5460000Y-14200000D03*
%TO.N,SWCLK*%
X22500000Y-8750000D03*
X6730000Y-5800000D03*
%TO.N,MCU_NRST*%
X23500000Y-7500000D03*
X10540000Y-4200000D03*
%TD*%
%TO.N,CTRL_3V3*%
D14*
X24500000Y-11250000D02*
X25950000Y-11250000D01*
X5460000Y-12035000D02*
X5460000Y-14200000D01*
%TO.N,SWDIO*%
X5460000Y-5200000D02*
X3400000Y-5200000D01*
X5460000Y-7965000D02*
X5460000Y-5200000D01*
X20000000Y-10000000D02*
X25950000Y-10000000D01*
X3400000Y-15500000D02*
X20000000Y-15500000D01*
X20000000Y-15500000D02*
X20000000Y-10000000D01*
X3400000Y-5200000D02*
X3400000Y-15500000D01*
%TO.N,SWCLK*%
X6730000Y-7965000D02*
X6730000Y-5800000D01*
X22500000Y-8750000D02*
X25950000Y-8750000D01*
%TO.N,MCU_NRST*%
X10540000Y-7965000D02*
X10540000Y-4200000D01*
X23500000Y-7500000D02*
X25950000Y-7500000D01*
%TD*%
%TA.AperFunction,Conductor*%
%TO.N,CTRL_GND*%
G36*
X31442539Y-520185D02*
G01*
X31488294Y-572989D01*
X31499500Y-624500D01*
X31499500Y-19375500D01*
X31479815Y-19442539D01*
X31427011Y-19488294D01*
X31375500Y-19499500D01*
X624500Y-19499500D01*
X557461Y-19479815D01*
X511706Y-19427011D01*
X500500Y-19375500D01*
X500500Y-17377973D01*
X27949500Y-17377973D01*
X27949500Y-17622026D01*
X27987678Y-17863072D01*
X28063097Y-18095187D01*
X28173896Y-18312642D01*
X28317339Y-18510076D01*
X28317343Y-18510081D01*
X28489918Y-18682656D01*
X28489923Y-18682660D01*
X28662136Y-18807779D01*
X28687361Y-18826106D01*
X28904815Y-18936904D01*
X29136924Y-19012321D01*
X29377973Y-19050500D01*
X29377974Y-19050500D01*
X29622026Y-19050500D01*
X29622027Y-19050500D01*
X29863076Y-19012321D01*
X30095185Y-18936904D01*
X30312639Y-18826106D01*
X30510083Y-18682655D01*
X30682655Y-18510083D01*
X30826106Y-18312639D01*
X30936904Y-18095185D01*
X31012321Y-17863076D01*
X31050500Y-17622027D01*
X31050500Y-17377973D01*
X31012321Y-17136924D01*
X30936904Y-16904815D01*
X30826106Y-16687361D01*
X30807779Y-16662136D01*
X30682660Y-16489923D01*
X30682656Y-16489918D01*
X30510081Y-16317343D01*
X30510076Y-16317339D01*
X30312642Y-16173896D01*
X30312641Y-16173895D01*
X30312639Y-16173894D01*
X30095185Y-16063096D01*
X29863076Y-15987679D01*
X29863074Y-15987678D01*
X29863072Y-15987678D01*
X29694769Y-15961021D01*
X29622027Y-15949500D01*
X29377973Y-15949500D01*
X29322093Y-15958350D01*
X29136927Y-15987678D01*
X28904812Y-16063097D01*
X28687357Y-16173896D01*
X28489923Y-16317339D01*
X28489918Y-16317343D01*
X28317343Y-16489918D01*
X28317339Y-16489923D01*
X28173896Y-16687357D01*
X28063097Y-16904812D01*
X27987678Y-17136927D01*
X27949500Y-17377973D01*
X500500Y-17377973D01*
X500500Y-5161755D01*
X3109500Y-5161755D01*
X3109500Y-15538244D01*
X3129297Y-15612130D01*
X3148419Y-15645250D01*
X3167542Y-15678371D01*
X3221629Y-15732458D01*
X3287871Y-15770703D01*
X3361755Y-15790500D01*
X3361757Y-15790500D01*
X20038243Y-15790500D01*
X20038245Y-15790500D01*
X20112129Y-15770703D01*
X20178371Y-15732458D01*
X20232458Y-15678371D01*
X20270703Y-15612129D01*
X20290500Y-15538245D01*
X20290500Y-14048136D01*
X21019500Y-14048136D01*
X21019500Y-14651852D01*
X21019501Y-14651858D01*
X21022227Y-14680939D01*
X21022227Y-14680941D01*
X21022228Y-14680944D01*
X21065088Y-14803429D01*
X21065089Y-14803431D01*
X21142152Y-14907848D01*
X21246569Y-14984911D01*
X21287399Y-14999198D01*
X21369059Y-15027773D01*
X21376647Y-15028484D01*
X21398141Y-15030500D01*
X23801858Y-15030499D01*
X23830939Y-15027773D01*
X23953431Y-14984911D01*
X24057848Y-14907848D01*
X24134911Y-14803431D01*
X24156342Y-14742185D01*
X24177773Y-14680941D01*
X24177773Y-14680939D01*
X24177814Y-14680499D01*
X24180500Y-14651859D01*
X24180499Y-14048142D01*
X24177773Y-14019061D01*
X24134911Y-13896569D01*
X24057848Y-13792152D01*
X23953431Y-13715089D01*
X23953429Y-13715088D01*
X23830940Y-13672226D01*
X23801863Y-13669500D01*
X21398147Y-13669500D01*
X21382193Y-13670995D01*
X21369061Y-13672227D01*
X21369059Y-13672227D01*
X21369055Y-13672228D01*
X21246570Y-13715088D01*
X21142152Y-13792152D01*
X21065088Y-13896570D01*
X21022226Y-14019058D01*
X21022226Y-14019060D01*
X21019500Y-14048136D01*
X20290500Y-14048136D01*
X20290500Y-11186741D01*
X24019500Y-11186741D01*
X24019500Y-11313259D01*
X24052245Y-11435466D01*
X24115504Y-11545034D01*
X24204966Y-11634496D01*
X24314534Y-11697755D01*
X24436741Y-11730500D01*
X24436743Y-11730500D01*
X24563257Y-11730500D01*
X24563259Y-11730500D01*
X24685466Y-11697755D01*
X24795034Y-11634496D01*
X24818387Y-11611142D01*
X24879706Y-11577659D01*
X24949398Y-11582642D01*
X24993747Y-11611144D01*
X25057509Y-11674906D01*
X25163139Y-11724162D01*
X25163140Y-11724163D01*
X25211275Y-11730500D01*
X25211276Y-11730500D01*
X26688725Y-11730500D01*
X26736859Y-11724163D01*
X26842491Y-11674906D01*
X26924906Y-11592491D01*
X26974163Y-11486859D01*
X26980500Y-11438724D01*
X26980500Y-11061276D01*
X26974163Y-11013141D01*
X26924906Y-10907509D01*
X26842491Y-10825094D01*
X26842489Y-10825093D01*
X26736860Y-10775837D01*
X26736859Y-10775836D01*
X26688725Y-10769500D01*
X26688724Y-10769500D01*
X25211276Y-10769500D01*
X25211275Y-10769500D01*
X25163140Y-10775836D01*
X25163139Y-10775837D01*
X25057510Y-10825093D01*
X24993747Y-10888856D01*
X24932423Y-10922340D01*
X24862732Y-10917355D01*
X24818385Y-10888855D01*
X24795035Y-10865505D01*
X24795034Y-10865504D01*
X24685466Y-10802245D01*
X24563259Y-10769500D01*
X24436741Y-10769500D01*
X24314534Y-10802245D01*
X24314531Y-10802246D01*
X24204964Y-10865505D01*
X24115505Y-10954964D01*
X24052246Y-11064531D01*
X24052245Y-11064534D01*
X24019500Y-11186741D01*
X20290500Y-11186741D01*
X20290500Y-10414500D01*
X20310185Y-10347461D01*
X20362989Y-10301706D01*
X20414500Y-10290500D01*
X24874140Y-10290500D01*
X24941179Y-10310185D01*
X24967122Y-10335120D01*
X24967423Y-10334820D01*
X24975094Y-10342491D01*
X25057509Y-10424906D01*
X25136929Y-10461940D01*
X25163139Y-10474162D01*
X25163140Y-10474163D01*
X25211275Y-10480500D01*
X25211276Y-10480500D01*
X26688725Y-10480500D01*
X26736859Y-10474163D01*
X26842491Y-10424906D01*
X26924906Y-10342491D01*
X26974163Y-10236859D01*
X26980500Y-10188724D01*
X26980500Y-9811276D01*
X26974743Y-9767542D01*
X26974163Y-9763140D01*
X26974162Y-9763139D01*
X26950293Y-9711952D01*
X26924906Y-9657509D01*
X26842491Y-9575094D01*
X26810519Y-9560185D01*
X26736860Y-9525837D01*
X26736859Y-9525836D01*
X26688725Y-9519500D01*
X26688724Y-9519500D01*
X25211276Y-9519500D01*
X25211275Y-9519500D01*
X25163140Y-9525836D01*
X25163139Y-9525837D01*
X25057508Y-9575094D01*
X24967423Y-9665180D01*
X24966350Y-9664107D01*
X24921141Y-9700247D01*
X24874140Y-9709500D01*
X19961755Y-9709500D01*
X19887869Y-9729297D01*
X19821629Y-9767542D01*
X19821626Y-9767544D01*
X19767544Y-9821626D01*
X19767542Y-9821629D01*
X19729297Y-9887869D01*
X19709500Y-9961755D01*
X19709500Y-15085500D01*
X19689815Y-15152539D01*
X19637011Y-15198294D01*
X19585500Y-15209500D01*
X3814500Y-15209500D01*
X3747461Y-15189815D01*
X3701706Y-15137011D01*
X3690500Y-15085500D01*
X3690500Y-13723448D01*
X3710185Y-13656409D01*
X3762989Y-13610654D01*
X3832147Y-13600710D01*
X3838691Y-13601831D01*
X3882271Y-13610499D01*
X3882274Y-13610500D01*
X3882276Y-13610500D01*
X4497726Y-13610500D01*
X4497727Y-13610499D01*
X4576276Y-13594875D01*
X4665355Y-13535355D01*
X4721898Y-13450732D01*
X4775510Y-13405927D01*
X4844835Y-13397220D01*
X4907863Y-13427374D01*
X4928102Y-13450732D01*
X4984645Y-13535355D01*
X5038043Y-13571034D01*
X5073723Y-13594875D01*
X5085005Y-13599548D01*
X5084141Y-13601632D01*
X5131598Y-13626454D01*
X5166175Y-13687168D01*
X5169500Y-13715690D01*
X5169500Y-13759608D01*
X5149815Y-13826647D01*
X5133181Y-13847289D01*
X5075505Y-13904964D01*
X5012246Y-14014531D01*
X5012245Y-14014534D01*
X4979500Y-14136741D01*
X4979500Y-14263259D01*
X5012245Y-14385466D01*
X5075504Y-14495034D01*
X5164966Y-14584496D01*
X5274534Y-14647755D01*
X5396741Y-14680500D01*
X5396743Y-14680500D01*
X5523257Y-14680500D01*
X5523259Y-14680500D01*
X5645466Y-14647755D01*
X5755034Y-14584496D01*
X5844496Y-14495034D01*
X5907755Y-14385466D01*
X5940500Y-14263259D01*
X5940500Y-14136741D01*
X5907755Y-14014534D01*
X5844496Y-13904966D01*
X5786819Y-13847289D01*
X5753334Y-13785966D01*
X5750500Y-13759608D01*
X5750500Y-13715690D01*
X5770185Y-13648651D01*
X5822989Y-13602896D01*
X5840792Y-13597146D01*
X5846276Y-13594875D01*
X5935355Y-13535355D01*
X5994875Y-13446276D01*
X6010500Y-13367724D01*
X6010500Y-10702276D01*
X6010500Y-10702273D01*
X6010499Y-10702271D01*
X8719500Y-10702271D01*
X8719500Y-13367728D01*
X8735124Y-13446275D01*
X8735124Y-13446276D01*
X8770500Y-13499219D01*
X8794645Y-13535355D01*
X8848043Y-13571034D01*
X8883723Y-13594875D01*
X8962271Y-13610499D01*
X8962274Y-13610500D01*
X8962276Y-13610500D01*
X9577726Y-13610500D01*
X9577727Y-13610499D01*
X9656276Y-13594875D01*
X9745355Y-13535355D01*
X9804875Y-13446276D01*
X9820500Y-13367724D01*
X9820500Y-10702276D01*
X9820500Y-10702273D01*
X9820499Y-10702271D01*
X9804875Y-10623724D01*
X9804875Y-10623723D01*
X9756870Y-10551879D01*
X9745355Y-10534645D01*
X9709674Y-10510804D01*
X9656276Y-10475124D01*
X9577727Y-10459500D01*
X9577724Y-10459500D01*
X8962276Y-10459500D01*
X8962273Y-10459500D01*
X8883724Y-10475124D01*
X8883723Y-10475124D01*
X8794645Y-10534645D01*
X8735124Y-10623723D01*
X8735124Y-10623724D01*
X8719500Y-10702271D01*
X6010499Y-10702271D01*
X5994875Y-10623724D01*
X5994875Y-10623723D01*
X5946870Y-10551879D01*
X5935355Y-10534645D01*
X5899674Y-10510804D01*
X5846276Y-10475124D01*
X5767727Y-10459500D01*
X5767724Y-10459500D01*
X5589288Y-10459500D01*
X5522249Y-10439815D01*
X5476494Y-10387011D01*
X5466550Y-10317853D01*
X5474727Y-10288048D01*
X5508194Y-10207249D01*
X5508196Y-10207245D01*
X5535500Y-10069978D01*
X5535500Y-9930022D01*
X5508196Y-9792755D01*
X5508194Y-9792750D01*
X5474727Y-9711952D01*
X5467258Y-9642483D01*
X5498533Y-9580004D01*
X5558623Y-9544352D01*
X5589288Y-9540500D01*
X5767726Y-9540500D01*
X5767727Y-9540499D01*
X5846276Y-9524875D01*
X5935355Y-9465355D01*
X5991898Y-9380732D01*
X6045510Y-9335927D01*
X6114835Y-9327220D01*
X6177863Y-9357374D01*
X6198102Y-9380732D01*
X6254645Y-9465355D01*
X6308043Y-9501034D01*
X6343723Y-9524875D01*
X6422271Y-9540499D01*
X6422274Y-9540500D01*
X6422276Y-9540500D01*
X7037726Y-9540500D01*
X7037727Y-9540499D01*
X7116276Y-9524875D01*
X7205355Y-9465355D01*
X7261898Y-9380732D01*
X7315510Y-9335927D01*
X7384835Y-9327220D01*
X7447863Y-9357374D01*
X7468102Y-9380732D01*
X7524645Y-9465355D01*
X7578043Y-9501034D01*
X7613723Y-9524875D01*
X7692271Y-9540499D01*
X7692274Y-9540500D01*
X7692276Y-9540500D01*
X8307726Y-9540500D01*
X8307727Y-9540499D01*
X8386276Y-9524875D01*
X8475355Y-9465355D01*
X8531898Y-9380732D01*
X8585510Y-9335927D01*
X8654835Y-9327220D01*
X8717863Y-9357374D01*
X8738102Y-9380732D01*
X8794645Y-9465355D01*
X8848043Y-9501034D01*
X8883723Y-9524875D01*
X8962271Y-9540499D01*
X8962274Y-9540500D01*
X8962276Y-9540500D01*
X9577726Y-9540500D01*
X9577727Y-9540499D01*
X9656276Y-9524875D01*
X9745355Y-9465355D01*
X9801898Y-9380732D01*
X9855510Y-9335927D01*
X9924835Y-9327220D01*
X9987863Y-9357374D01*
X10008102Y-9380732D01*
X10064645Y-9465355D01*
X10118043Y-9501034D01*
X10153723Y-9524875D01*
X10232271Y-9540499D01*
X10232274Y-9540500D01*
X10232276Y-9540500D01*
X10410712Y-9540500D01*
X10477751Y-9560185D01*
X10523506Y-9612989D01*
X10533450Y-9682147D01*
X10525273Y-9711952D01*
X10491805Y-9792750D01*
X10491802Y-9792762D01*
X10464500Y-9930017D01*
X10464500Y-10069982D01*
X10491802Y-10207237D01*
X10491805Y-10207249D01*
X10545361Y-10336546D01*
X10545363Y-10336550D01*
X10623114Y-10452912D01*
X10623120Y-10452920D01*
X10722079Y-10551879D01*
X10722087Y-10551885D01*
X10838449Y-10629636D01*
X10838453Y-10629638D01*
X10967750Y-10683194D01*
X10967755Y-10683196D01*
X11090498Y-10707611D01*
X11105017Y-10710499D01*
X11105021Y-10710500D01*
X11135500Y-10710500D01*
X11202539Y-10730185D01*
X11248294Y-10782989D01*
X11259500Y-10834500D01*
X11259500Y-13367728D01*
X11275124Y-13446275D01*
X11275124Y-13446276D01*
X11310500Y-13499219D01*
X11334645Y-13535355D01*
X11388043Y-13571034D01*
X11423723Y-13594875D01*
X11502271Y-13610499D01*
X11502274Y-13610500D01*
X11502276Y-13610500D01*
X12117726Y-13610500D01*
X12117727Y-13610499D01*
X12196276Y-13594875D01*
X12285355Y-13535355D01*
X12344875Y-13446276D01*
X12360500Y-13367724D01*
X12360500Y-10702276D01*
X12360500Y-10702273D01*
X12360499Y-10702271D01*
X12344875Y-10623724D01*
X12344875Y-10623723D01*
X12296870Y-10551879D01*
X12285355Y-10534645D01*
X12249674Y-10510804D01*
X12196276Y-10475124D01*
X12117727Y-10459500D01*
X12117724Y-10459500D01*
X11939288Y-10459500D01*
X11872249Y-10439815D01*
X11826494Y-10387011D01*
X11816550Y-10317853D01*
X11824727Y-10288048D01*
X11858194Y-10207249D01*
X11858196Y-10207245D01*
X11885500Y-10069978D01*
X11885500Y-9930022D01*
X11858196Y-9792755D01*
X11858194Y-9792750D01*
X11824727Y-9711952D01*
X11817258Y-9642483D01*
X11848533Y-9580004D01*
X11908623Y-9544352D01*
X11939288Y-9540500D01*
X12117726Y-9540500D01*
X12117727Y-9540499D01*
X12196276Y-9524875D01*
X12285355Y-9465355D01*
X12344875Y-9376276D01*
X12360500Y-9297724D01*
X12360500Y-8686741D01*
X22019500Y-8686741D01*
X22019500Y-8813259D01*
X22052245Y-8935466D01*
X22115504Y-9045034D01*
X22204966Y-9134496D01*
X22314534Y-9197755D01*
X22436741Y-9230500D01*
X22436743Y-9230500D01*
X22563257Y-9230500D01*
X22563259Y-9230500D01*
X22685466Y-9197755D01*
X22795034Y-9134496D01*
X22852711Y-9076819D01*
X22914034Y-9043334D01*
X22940392Y-9040500D01*
X24874140Y-9040500D01*
X24941179Y-9060185D01*
X24967122Y-9085120D01*
X24967423Y-9084820D01*
X24975094Y-9092491D01*
X25057509Y-9174906D01*
X25163139Y-9224162D01*
X25163140Y-9224163D01*
X25211275Y-9230500D01*
X25211276Y-9230500D01*
X26688725Y-9230500D01*
X26736859Y-9224163D01*
X26842491Y-9174906D01*
X26924906Y-9092491D01*
X26974163Y-8986859D01*
X26980500Y-8938724D01*
X26980500Y-8561276D01*
X26974163Y-8513141D01*
X26924906Y-8407509D01*
X26842491Y-8325094D01*
X26736860Y-8275837D01*
X26736859Y-8275836D01*
X26688725Y-8269500D01*
X26688724Y-8269500D01*
X25211276Y-8269500D01*
X25211275Y-8269500D01*
X25163140Y-8275836D01*
X25163139Y-8275837D01*
X25057508Y-8325094D01*
X24967423Y-8415180D01*
X24966350Y-8414107D01*
X24921141Y-8450247D01*
X24874140Y-8459500D01*
X22940392Y-8459500D01*
X22873353Y-8439815D01*
X22852711Y-8423181D01*
X22795035Y-8365505D01*
X22795034Y-8365504D01*
X22685466Y-8302245D01*
X22563259Y-8269500D01*
X22436741Y-8269500D01*
X22314534Y-8302245D01*
X22314531Y-8302246D01*
X22204964Y-8365505D01*
X22115505Y-8454964D01*
X22052246Y-8564531D01*
X22052245Y-8564534D01*
X22019500Y-8686741D01*
X12360500Y-8686741D01*
X12360500Y-7436741D01*
X23019500Y-7436741D01*
X23019500Y-7563259D01*
X23052245Y-7685466D01*
X23115504Y-7795034D01*
X23204966Y-7884496D01*
X23314534Y-7947755D01*
X23436741Y-7980500D01*
X23436743Y-7980500D01*
X23563257Y-7980500D01*
X23563259Y-7980500D01*
X23685466Y-7947755D01*
X23795034Y-7884496D01*
X23852711Y-7826819D01*
X23914034Y-7793334D01*
X23940392Y-7790500D01*
X24874140Y-7790500D01*
X24941179Y-7810185D01*
X24967122Y-7835120D01*
X24967423Y-7834820D01*
X24975094Y-7842491D01*
X25057509Y-7924906D01*
X25163139Y-7974162D01*
X25163140Y-7974163D01*
X25211275Y-7980500D01*
X25211276Y-7980500D01*
X26688725Y-7980500D01*
X26736859Y-7974163D01*
X26842491Y-7924906D01*
X26924906Y-7842491D01*
X26974163Y-7736859D01*
X26980500Y-7688724D01*
X26980500Y-7311276D01*
X26974163Y-7263141D01*
X26924906Y-7157509D01*
X26842491Y-7075094D01*
X26736860Y-7025837D01*
X26736859Y-7025836D01*
X26688725Y-7019500D01*
X26688724Y-7019500D01*
X25211276Y-7019500D01*
X25211275Y-7019500D01*
X25163140Y-7025836D01*
X25163139Y-7025837D01*
X25057508Y-7075094D01*
X24967423Y-7165180D01*
X24966350Y-7164107D01*
X24921141Y-7200247D01*
X24874140Y-7209500D01*
X23940392Y-7209500D01*
X23873353Y-7189815D01*
X23852711Y-7173181D01*
X23795035Y-7115505D01*
X23795034Y-7115504D01*
X23685466Y-7052245D01*
X23563259Y-7019500D01*
X23436741Y-7019500D01*
X23314534Y-7052245D01*
X23314531Y-7052246D01*
X23204964Y-7115505D01*
X23115505Y-7204964D01*
X23052246Y-7314531D01*
X23052245Y-7314534D01*
X23019500Y-7436741D01*
X12360500Y-7436741D01*
X12360500Y-6632276D01*
X12360500Y-6632273D01*
X12360499Y-6632271D01*
X12344875Y-6553724D01*
X12344875Y-6553723D01*
X12309499Y-6500780D01*
X12285355Y-6464645D01*
X12249674Y-6440804D01*
X12196276Y-6405124D01*
X12117727Y-6389500D01*
X12117724Y-6389500D01*
X11502276Y-6389500D01*
X11502273Y-6389500D01*
X11423724Y-6405124D01*
X11423723Y-6405124D01*
X11334645Y-6464645D01*
X11278102Y-6549267D01*
X11224489Y-6594072D01*
X11155164Y-6602779D01*
X11092137Y-6572624D01*
X11071898Y-6549267D01*
X11039499Y-6500780D01*
X11015355Y-6464645D01*
X10979674Y-6440804D01*
X10926276Y-6405124D01*
X10914995Y-6400452D01*
X10915857Y-6398368D01*
X10868391Y-6373535D01*
X10833821Y-6312816D01*
X10830500Y-6284309D01*
X10830500Y-5348136D01*
X21019500Y-5348136D01*
X21019500Y-5951852D01*
X21019501Y-5951858D01*
X21022227Y-5980939D01*
X21022227Y-5980941D01*
X21022228Y-5980944D01*
X21062151Y-6095035D01*
X21065089Y-6103431D01*
X21142152Y-6207848D01*
X21246569Y-6284911D01*
X21287399Y-6299198D01*
X21369059Y-6327773D01*
X21376647Y-6328484D01*
X21398141Y-6330500D01*
X23801858Y-6330499D01*
X23830939Y-6327773D01*
X23953431Y-6284911D01*
X24057848Y-6207848D01*
X24134911Y-6103431D01*
X24156342Y-6042185D01*
X24177773Y-5980941D01*
X24177773Y-5980939D01*
X24180500Y-5951859D01*
X24180499Y-5348142D01*
X24177773Y-5319061D01*
X24134911Y-5196569D01*
X24057848Y-5092152D01*
X23953431Y-5015089D01*
X23953429Y-5015088D01*
X23830940Y-4972226D01*
X23801863Y-4969500D01*
X21398147Y-4969500D01*
X21382193Y-4970995D01*
X21369061Y-4972227D01*
X21369059Y-4972227D01*
X21369055Y-4972228D01*
X21246570Y-5015088D01*
X21142152Y-5092152D01*
X21065088Y-5196570D01*
X21022226Y-5319058D01*
X21022226Y-5319060D01*
X21019500Y-5348136D01*
X10830500Y-5348136D01*
X10830500Y-4640392D01*
X10850185Y-4573353D01*
X10866819Y-4552711D01*
X10924496Y-4495034D01*
X10987755Y-4385466D01*
X11020500Y-4263259D01*
X11020500Y-4136741D01*
X10987755Y-4014534D01*
X10924496Y-3904966D01*
X10835034Y-3815504D01*
X10725466Y-3752245D01*
X10603259Y-3719500D01*
X10476741Y-3719500D01*
X10354534Y-3752245D01*
X10354531Y-3752246D01*
X10244964Y-3815505D01*
X10155505Y-3904964D01*
X10092246Y-4014531D01*
X10092245Y-4014534D01*
X10059500Y-4136741D01*
X10059500Y-4263258D01*
X10092245Y-4385465D01*
X10092246Y-4385468D01*
X10155505Y-4495035D01*
X10213181Y-4552711D01*
X10246666Y-4614034D01*
X10249500Y-4640392D01*
X10249500Y-6284309D01*
X10229815Y-6351348D01*
X10177011Y-6397103D01*
X10159205Y-6402854D01*
X10153723Y-6405124D01*
X10064645Y-6464645D01*
X10008102Y-6549267D01*
X9954489Y-6594072D01*
X9885164Y-6602779D01*
X9822137Y-6572624D01*
X9801898Y-6549267D01*
X9769499Y-6500780D01*
X9745355Y-6464645D01*
X9709674Y-6440804D01*
X9656276Y-6405124D01*
X9577727Y-6389500D01*
X9577724Y-6389500D01*
X8962276Y-6389500D01*
X8962273Y-6389500D01*
X8883724Y-6405124D01*
X8883723Y-6405124D01*
X8794645Y-6464645D01*
X8738102Y-6549267D01*
X8684489Y-6594072D01*
X8615164Y-6602779D01*
X8552137Y-6572624D01*
X8531898Y-6549267D01*
X8499499Y-6500780D01*
X8475355Y-6464645D01*
X8439674Y-6440804D01*
X8386276Y-6405124D01*
X8307727Y-6389500D01*
X8307724Y-6389500D01*
X7692276Y-6389500D01*
X7692273Y-6389500D01*
X7613724Y-6405124D01*
X7613723Y-6405124D01*
X7524645Y-6464645D01*
X7468102Y-6549267D01*
X7414489Y-6594072D01*
X7345164Y-6602779D01*
X7282137Y-6572624D01*
X7261898Y-6549267D01*
X7229499Y-6500780D01*
X7205355Y-6464645D01*
X7169674Y-6440804D01*
X7116276Y-6405124D01*
X7104995Y-6400452D01*
X7105857Y-6398368D01*
X7058391Y-6373535D01*
X7023821Y-6312816D01*
X7020500Y-6284309D01*
X7020500Y-6240392D01*
X7040185Y-6173353D01*
X7056819Y-6152711D01*
X7114496Y-6095034D01*
X7177755Y-5985466D01*
X7210500Y-5863259D01*
X7210500Y-5736741D01*
X7177755Y-5614534D01*
X7114496Y-5504966D01*
X7025034Y-5415504D01*
X6915466Y-5352245D01*
X6793259Y-5319500D01*
X6666741Y-5319500D01*
X6544534Y-5352245D01*
X6544531Y-5352246D01*
X6434964Y-5415505D01*
X6345505Y-5504964D01*
X6282246Y-5614531D01*
X6282245Y-5614534D01*
X6249500Y-5736741D01*
X6249500Y-5863259D01*
X6281034Y-5980944D01*
X6282245Y-5985465D01*
X6282246Y-5985468D01*
X6345505Y-6095035D01*
X6403181Y-6152711D01*
X6436666Y-6214034D01*
X6439500Y-6240392D01*
X6439500Y-6284309D01*
X6419815Y-6351348D01*
X6367011Y-6397103D01*
X6349205Y-6402854D01*
X6343723Y-6405124D01*
X6254645Y-6464645D01*
X6198102Y-6549267D01*
X6144489Y-6594072D01*
X6075164Y-6602779D01*
X6012137Y-6572624D01*
X5991898Y-6549267D01*
X5959499Y-6500780D01*
X5935355Y-6464645D01*
X5899674Y-6440804D01*
X5846276Y-6405124D01*
X5834995Y-6400452D01*
X5835857Y-6398368D01*
X5788391Y-6373535D01*
X5753821Y-6312816D01*
X5750500Y-6284309D01*
X5750500Y-5161757D01*
X5750500Y-5161755D01*
X5730703Y-5087871D01*
X5692458Y-5021629D01*
X5638371Y-4967542D01*
X5605250Y-4948419D01*
X5572130Y-4929297D01*
X5535187Y-4919398D01*
X5498245Y-4909500D01*
X3438245Y-4909500D01*
X3361755Y-4909500D01*
X3287869Y-4929297D01*
X3221629Y-4967542D01*
X3221626Y-4967544D01*
X3167544Y-5021626D01*
X3167542Y-5021629D01*
X3129297Y-5087869D01*
X3109500Y-5161755D01*
X500500Y-5161755D01*
X500500Y-2377973D01*
X949500Y-2377973D01*
X949500Y-2622026D01*
X987678Y-2863072D01*
X1063097Y-3095187D01*
X1173896Y-3312642D01*
X1317339Y-3510076D01*
X1317343Y-3510081D01*
X1489918Y-3682656D01*
X1489923Y-3682660D01*
X1585701Y-3752246D01*
X1687361Y-3826106D01*
X1904815Y-3936904D01*
X2136924Y-4012321D01*
X2377973Y-4050500D01*
X2377974Y-4050500D01*
X2622026Y-4050500D01*
X2622027Y-4050500D01*
X2863076Y-4012321D01*
X3095185Y-3936904D01*
X3312639Y-3826106D01*
X3510083Y-3682655D01*
X3682655Y-3510083D01*
X3826106Y-3312639D01*
X3936904Y-3095185D01*
X4012321Y-2863076D01*
X4050500Y-2622027D01*
X4050500Y-2377973D01*
X4012321Y-2136924D01*
X3936904Y-1904815D01*
X3826106Y-1687361D01*
X3807779Y-1662136D01*
X3682660Y-1489923D01*
X3682656Y-1489918D01*
X3510081Y-1317343D01*
X3510076Y-1317339D01*
X3312642Y-1173896D01*
X3312641Y-1173895D01*
X3312639Y-1173894D01*
X3095185Y-1063096D01*
X2863076Y-987679D01*
X2863074Y-987678D01*
X2863072Y-987678D01*
X2694769Y-961021D01*
X2622027Y-949500D01*
X2377973Y-949500D01*
X2322093Y-958350D01*
X2136927Y-987678D01*
X1904812Y-1063097D01*
X1687357Y-1173896D01*
X1489923Y-1317339D01*
X1489918Y-1317343D01*
X1317343Y-1489918D01*
X1317339Y-1489923D01*
X1173896Y-1687357D01*
X1063097Y-1904812D01*
X987678Y-2136927D01*
X949500Y-2377973D01*
X500500Y-2377973D01*
X500500Y-624500D01*
X520185Y-557461D01*
X572989Y-511706D01*
X624500Y-500500D01*
X31375500Y-500500D01*
X31442539Y-520185D01*
G37*
%TD.AperFunction*%
%TD*%
M02*
