<?xml version="1.0" encoding="UTF-8" standalone="no"?>
<svg
   xmlns:svg="http://www.w3.org/2000/svg"
   xmlns="http://www.w3.org/2000/svg"
   width="1000.0"
   height="760.0"

>
    <g transform="scale(35.81117605624824, -35.81117605624824)   translate(-60.20927110480686,259.7424593509836)" stroke-width="0.65"  fill="none">
       <!-- hidden lines -->
       <g  stroke="rgb(140,170,195)" fill="none" stroke-dasharray="0.65,0.65" >

       </g>

       <!-- solid lines -->
       <g  stroke="rgb(8,43,85)" fill="none">
			<path d="M81.5273303427918,-263.42722772072057 L81.525884890238,-263.39964062088796 L81.52155201479843,-263.37211998079516 L81.51434215474953,-263.34473210007474 L81.50427267927567,-263.3175429585302 L81.49136784662525,-263.29061805718504 L81.47565874567044,-263.2640222604849 L81.45718322101142,-263.23781964003365 L81.43598578180534,-263.2120733202389 L81.41211749453993,-263.18684532624025 L81.38563586000983,-263.1621964344849 L81.35660467479212,-263.1381860263121 L81.32509387755485,-263.11487194489814 L81.25494288682708,-263.0705556121836 L81.17585848021565,-263.0296742268511 " />
			<path d="M81.5273303427918,-269.2580122974725 L81.525884890238,-269.2304251976399 L81.52155201479843,-269.2029045575471 L81.51434215474953,-269.17551667682665 L81.50427267927567,-269.14832753528214 L81.49136784662525,-269.12140263393695 L81.47565874567044,-269.09480683723683 L81.45718322101142,-269.06860421678556 L81.43598578180534,-269.0428578969908 L81.41211749453993,-269.01762990299216 L81.38563586000983,-268.9929810112368 L81.35660467479212,-268.968970603064 L81.32509387755485,-268.94565652165005 L81.25494288682708,-268.90134018893554 L81.17585848021565,-268.860458803603 " />
			<path d="M81.17585848021565,-263.0296742268511 L81.17585848021565,-268.860458803603 " />
			<path d="M80.3273303427918,-270.318154947791 L80.39551036369603,-270.34667091291857 L80.46324948309888,-270.36814682127175 L80.53010965068808,-270.3824437940396 L80.59565850009177,-270.3894693766192 L80.65947214487323,-270.3891781364943 L80.72113791968829,-270.38157195703496 L80.78025704887892,-270.36670002531827 L80.8364472252461,-270.34465851404894 " />
			<path d="M80.3273303427918,-270.318154947791 L65.05382386916237,-277.47411783744104 " />
			<path d="M65.56294075161668,-277.50062140369903 L65.5067505752495,-277.52266291496835 L65.44763144605886,-277.53753484668505 L65.38596567124381,-277.5451410261444 L65.32215202646235,-277.5454322662693 L65.25660317705865,-277.5384066836897 L65.18974300946945,-277.52410971092183 L65.12200389006661,-277.50263380256865 L65.05382386916237,-277.4741178374411 " />
			<path d="M80.8364472252461,-262.3405815041441 L80.87491221392948,-262.3608281128083 L80.91153844886601,-262.384655640378 L80.94620294090964,-262.4119840751547 L80.97878928835321,-262.44272164956084 L81.00918806779973,-262.47676514829084 L81.03729720160098,-262.51400025490346 L81.0630223006294,-262.55430193569066 L81.0862769812322,-262.5975348595349 L81.10698315530358,-262.6435538523446 L81.12507129250083,-262.6922043845418 L81.14048065372393,-262.7433230899651 L81.1531594950745,-262.79673831444524 L81.1630652416094,-262.85227069221196 L81.1701646303053,-262.9097337481953 L81.1744338217543,-262.96893452420034 L81.17585848021565,-263.0296742268511 " />
			<path d="M80.3273303427918,-270.318154947791 L80.36896564509657,-270.29737093417504 L80.41050064431126,-270.27408301456614 L80.45183527898472,-270.2483472916025 L80.49286997036157,-270.2202257648949 L80.53350586227603,-270.1897861816644 L80.5736450593052,-270.15710187353307 L80.6131908626077,-270.12225157986205 L80.65204800287951,-270.08531925806136 L80.72732373787845,-270.0055692243072 L80.79874731782405,-269.9186198086914 L80.86563089459737,-269.8253083816178 L80.92733034279179,-269.7265335831383 L80.98325146299285,-269.623246668558 L81.03285570424342,-269.5164423473268 L81.0756653505838,-269.4071492034432 L81.11126812171763,-269.29641978962866 L81.1393211434964,-269.1853204906689 L81.15955424998509,-269.0749212535461 L81.17177258530762,-268.966285283264 L81.17483639091299,-268.9129564085036 L81.17585848021565,-268.860458803603 " />
			<path d="M81.17585848021567,-263.0296742268511 L80.04448763031719,-262.49960290169184 " />
			<path d="M81.17585848021567,-268.860458803603 L80.04448763031719,-268.33038747844375 " />
			<path d="M80.04448763031718,-262.49960290169184 L80.04448763031718,-268.33038747844375 " />
			<path d="M80.32733034279181,-270.318154947791 L79.19595949289334,-269.78808362263175 " />
			<path d="M65.05382386916239,-277.47411783744104 L63.922453019263905,-276.9440465122818 " />
			<path d="M79.19595949289332,-269.78808362263175 L63.9224530192639,-276.9440465122818 " />
			<path d="M64.54470698670806,-277.50062140369903 L64.60089716307525,-277.52266291496835 L64.66001629226588,-277.53753484668505 L64.72168206708093,-277.5451410261444 L64.7854957118624,-277.5454322662693 L64.8510445612661,-277.5384066836897 L64.91790472885529,-277.52410971092183 L64.98564384825815,-277.50263380256865 L65.05382386916237,-277.4741178374411 " />
			<path d="M79.70507637534763,-261.8105101789848 L79.743541364031,-261.830756787649 L79.78016759896754,-261.85458431521874 L79.81483209101118,-261.8819127499954 L79.84741843845474,-261.91265032440157 L79.87781721790125,-261.94669382313157 L79.90592635170252,-261.9839289297442 L79.93165145073094,-262.0242306105314 L79.95490613133373,-262.06746353437563 L79.97561230540511,-262.11348252718534 L79.99370044260236,-262.16213305938254 L80.00910980382545,-262.2132517648058 L80.02178864517603,-262.26666698928597 L80.03169439171093,-262.3221993670527 L80.03879378040682,-262.37966242303605 L80.04306297185583,-262.43886319904107 L80.04448763031718,-262.49960290169184 " />
			<path d="M79.19595949289332,-269.78808362263175 L79.23759479519809,-269.76729960901577 L79.27912979441278,-269.7440116894069 L79.32046442908624,-269.71827596644323 L79.3614991204631,-269.69015443973564 L79.40213501237756,-269.6597148565051 L79.44227420940673,-269.6270305483738 L79.48182001270922,-269.5921802547028 L79.52067715298104,-269.5552479329021 L79.59595288797998,-269.4754978991479 L79.66737646792558,-269.38854848353213 L79.7342600446989,-269.2952370564585 L79.79595949289332,-269.196462257979 L79.85188061309438,-269.09317534339874 L79.90148485434494,-268.98637102216753 L79.94429450068533,-268.87707787828396 L79.97989727181915,-268.7663484644694 L80.00795029359793,-268.65524916550964 L80.0281834000866,-268.54484992838684 L80.04040173540915,-268.43621395810476 L80.04346554101451,-268.3828850833443 L80.04448763031718,-268.33038747844375 " />
			<path d="M78.34743135546947,-262.49960290169184 L78.34743135546947,-268.33038747844375 " />
			<path d="M78.34743135546947,-262.49960290169184 L78.43468755189694,-262.46255017383015 L78.5292752132698,-262.4296829414636 L78.63028340870213,-262.4013177340071 L78.73673937405522,-262.3777277239143 L78.84761788018797,-262.359140095878 L78.96185110647397,-262.34573385891736 L79.07833892449786,-262.3376381224228 L79.19595949289332,-262.33493085276234 L79.31358006128879,-262.3376381224228 L79.43006787931267,-262.34573385891736 L79.54430110559868,-262.359140095878 L79.65517961173143,-262.3777277239143 L79.76163557708452,-262.4013177340071 L79.86264377251685,-262.4296829414636 L79.9572314338897,-262.46255017383015 L80.04448763031718,-262.49960290169184 " />
			<path d="M78.34743135546947,-268.33038747844375 L78.43468755189694,-268.29333475058206 L78.5292752132698,-268.26046751821553 L78.63028340870213,-268.232102310759 L78.73673937405522,-268.2085123006662 L78.84761788018797,-268.1899246726299 L78.96185110647397,-268.17651843566927 L79.07833892449786,-268.1684226991747 L79.19595949289332,-268.16571542951425 L79.31358006128879,-268.1684226991747 L79.43006787931267,-268.17651843566927 L79.54430110559868,-268.1899246726299 L79.65517961173143,-268.2085123006662 L79.76163557708452,-268.232102310759 L79.86264377251685,-268.26046751821553 L79.9572314338897,-268.29333475058206 L80.04448763031718,-268.33038747844375 " />
			<path d="M78.68684261043902,-261.8105101789848 L78.64837762175564,-261.830756787649 L78.61175138681911,-261.85458431521874 L78.57708689477546,-261.8819127499954 L78.54450054733191,-261.91265032440157 L78.51410176788539,-261.94669382313157 L78.48599263408413,-261.9839289297442 L78.4602675350557,-262.0242306105314 L78.43701285445292,-262.06746353437563 L78.41630668038154,-262.11348252718534 L78.39821854318429,-262.16213305938254 L78.38280918196119,-262.2132517648058 L78.37013034061061,-262.26666698928597 L78.36022459407572,-262.3221993670527 L78.35312520537983,-262.37966242303605 L78.34885601393081,-262.43886319904107 L78.34743135546947,-262.49960290169184 " />
			<path d="M78.34743135546947,-262.49960290169184 L63.07392488184004,-269.65556579134187 " />
			<path d="M63.41333613680958,-268.9664730686349 L63.37487114812621,-268.9867196772991 L63.33824491318968,-269.01054720486883 L63.303580421146044,-269.0378756396455 L63.27099407370248,-269.06861321405165 L63.24059529425597,-269.10265671278165 L63.21248616045471,-269.1398918193943 L63.18676106142629,-269.1801935001815 L63.163506380823485,-269.2234264240257 L63.14280020675211,-269.2694454168354 L63.12471206955487,-269.3180959490326 L63.10930270833177,-269.3692146544559 L63.0966238669812,-269.42262987893605 L63.08671812044629,-269.4781622567028 L63.0796187317504,-269.53562531268614 L63.07534954030138,-269.59482608869115 L63.07392488184004,-269.6555657913419 " />
			<path d="M63.41333613680958,-276.97055007853976 L63.46952631317677,-276.9925915898091 L63.528645442367406,-277.0074635215258 L63.59031121718246,-277.0150697009851 L63.65412486196392,-277.01536094111003 L63.71967371136761,-277.0083353585304 L63.78653387895682,-276.99403838576256 L63.85427299835967,-276.9725624774094 L63.92245301926389,-276.94404651228183 " />
			<path d="M79.19595949289332,-269.78808362263175 L79.15432419058855,-269.76729960901577 L79.11278919137386,-269.7440116894069 L79.0714545567004,-269.71827596644323 L79.03041986532355,-269.69015443973564 L78.98978397340909,-269.6597148565051 L78.94964477637991,-269.6270305483738 L78.91009897307742,-269.5921802547028 L78.87124183280561,-269.5552479329021 L78.79596609780667,-269.4754978991479 L78.72454251786107,-269.38854848353213 L78.65765894108775,-269.2952370564585 L78.59595949289333,-269.196462257979 L78.54003837269227,-269.09317534339874 L78.4904341314417,-268.98637102216753 L78.44762448510131,-268.87707787828396 L78.41202171396749,-268.7663484644694 L78.38396869218872,-268.65524916550964 L78.36373558570003,-268.54484992838684 L78.3515172503775,-268.43621395810476 L78.34845344477213,-268.3828850833443 L78.34743135546947,-268.33038747844375 " />
			<path d="M78.34743135546947,-268.33038747844375 L63.07392488184004,-275.4863503680938 " />
			<path d="M63.07392488184004,-275.48635036809384 L63.07494697114271,-275.5388479729944 L63.078010776748066,-275.59217684775484 L63.09022911207061,-275.7008128180369 L63.110462218559285,-275.81121205515973 L63.13851524033807,-275.9223113541195 L63.1741180114719,-276.03304076793404 L63.216927657812285,-276.1423339118176 L63.26653189906284,-276.2491382330488 L63.3224530192639,-276.3524251476291 L63.384152467458314,-276.4511999461086 L63.451036044231635,-276.5445113731822 L63.52245962417725,-276.631460788798 L63.59773535917618,-276.7112108225522 L63.636592499448,-276.74814314435287 L63.67613830275048,-276.7829934380239 L63.716277499779665,-276.8156777461552 L63.756913391694134,-276.8461173293857 L63.79794808307097,-276.8742388560933 L63.839282717744446,-276.89997457905696 L63.880817716959136,-276.92326249866585 L63.92245301926389,-276.94404651228183 " />
			<path d="M63.07392488184004,-269.6555657913419 L63.07392488184004,-275.48635036809384 " />
			<path d="M63.07392488184004,-269.6555657913419 L62.994840475228614,-269.69644717667444 L62.924689484500846,-269.74076350938896 L62.89317868726357,-269.7640775908029 L62.864147502045874,-269.7880879989757 L62.83766586751577,-269.81273689073106 L62.81379758025035,-269.83796488472973 L62.792600141044275,-269.86371120452446 L62.77412461638525,-269.88991382497574 L62.75841551543044,-269.91650962167586 L62.74551068278002,-269.94343452302104 L62.73544120730616,-269.97062366456555 L62.728231347257264,-269.998011545286 L62.72389847181769,-270.0255321853788 L62.722453019263895,-270.0531192852114 " />
			<path d="M62.722453019263895,-275.8839038619633 L62.72389847181769,-275.8563167621307 L62.728231347257264,-275.8287961220379 L62.73544120730616,-275.80140824131746 L62.74551068278002,-275.77421909977295 L62.75841551543044,-275.74729419842777 L62.774124616385244,-275.72069840172765 L62.792600141044275,-275.6944957812764 L62.81379758025035,-275.66874946148164 L62.83766586751577,-275.64352146748297 L62.864147502045874,-275.6188725757276 L62.89317868726357,-275.5948621675548 L62.924689484500846,-275.57154808614087 L62.994840475228614,-275.52723175342635 L63.073924881840036,-275.48635036809384 " />
			<path d="M81.5273303427918,-263.42722772072057 L81.5273303427918,-269.2580122974725 " />
			<path d="M80.83644722524612,-270.34465851404894 L65.5629407516167,-277.500621403699 " />
			<path d="M81.5273303427918,-263.42722772072057 L81.52340527043687,-263.33024954039723 L81.51165573036042,-263.23390577069824 L81.492158585554,-263.13882667206866 L81.46504138219107,-263.0456342317444 L81.4304815152471,-262.9549380948441 L81.38870506801926,-262.8673315762006 L81.33998533313776,-262.7833877790212 L81.28464102474345,-262.70365584576876 L81.22303419352781,-262.6286573657883 L81.1555678582743,-262.55888296318045 L81.08268336939523,-262.49478908724325 L81.00485752171127,-262.43679502647757 L80.92259943536118,-262.3852801656912 L80.83644722524612,-262.3405815041441 " />
			<path d="M80.83644722524612,-270.34465851404894 L80.92259943536119,-270.29995985250184 L81.00485752171127,-270.2484449917155 L81.08268336939523,-270.1904509309498 L81.1555678582743,-270.1263570550126 L81.22303419352781,-270.05658265240476 L81.28464102474345,-269.9815841724243 L81.33998533313776,-269.90185223917183 L81.38870506801926,-269.8179084419924 L81.4304815152471,-269.7303019233489 L81.46504138219107,-269.6396057864486 L81.492158585554,-269.5464133461244 L81.51165573036042,-269.4513342474948 L81.52340527043687,-269.3549904777958 L81.5273303427918,-269.2580122974725 " />
			<path d="M64.54470698670805,-277.50062140369903 L64.63279609308115,-277.53769028080427 L64.72355574130431,-277.567631532713 L64.81641025097674,-277.5902552447194 L64.91077065417724,-277.6054179166242 L65.0060384312355,-277.6130233729442 L65.10160930708925,-277.6130233729442 L65.19687708414749,-277.6054179166242 L65.29123748734798,-277.5902552447194 L65.38409199702042,-277.567631532713 L65.47485164524358,-277.53769028080427 L65.56294075161668,-277.50062140369903 " />
			<path d="M80.83644722524613,-262.3405815041441 L79.70507637534766,-261.8105101789848 " />
			<path d="M78.68684261043902,-261.8105101789848 L63.41333613680959,-268.96647306863485 " />
			<path d="M64.54470698670806,-277.500621403699 L63.41333613680959,-276.9705500785397 " />
			<path d="M62.7224530192639,-270.0531192852114 L62.7224530192639,-275.8839038619633 " />
			<path d="M79.70507637534764,-261.8105101789848 L79.61698726897454,-261.7734413018796 L79.52622762075137,-261.74350004997086 L79.43337311107895,-261.72087633796446 L79.33901270787845,-261.70571366605964 L79.2437449308202,-261.69810820973964 L79.14817405496645,-261.69810820973964 L79.05290627790819,-261.70571366605964 L78.9585458747077,-261.72087633796446 L78.86569136503526,-261.74350004997086 L78.7749317168121,-261.7734413018796 L78.686842610439,-261.8105101789848 " />
			<path d="M63.413336136809576,-268.9664730686349 L63.32718392669451,-269.011171730182 L63.244925840344415,-269.0626865909684 L63.16709999266047,-269.12068065173406 L63.0942155037814,-269.18477452767127 L63.02674916852788,-269.2545489302791 L62.96514233731224,-269.3295474102596 L62.909798028917926,-269.409279343512 L62.861078294036425,-269.49322314069144 L62.8193018468086,-269.58082965933494 L62.78474197986461,-269.67152579623524 L62.75762477650169,-269.7647182365595 L62.73812763169528,-269.85979733518906 L62.72637809161882,-269.95614110488805 L62.722453019263895,-270.0531192852114 " />
			<path d="M62.722453019263895,-275.8839038619633 L62.72637809161882,-275.9808820422866 L62.73812763169528,-276.0772258119856 L62.75762477650169,-276.1723049106152 L62.78474197986461,-276.2654973509395 L62.8193018468086,-276.35619348783973 L62.861078294036425,-276.44380000648323 L62.90979802891793,-276.52774380366264 L62.96514233731224,-276.6074757369151 L63.026749168527886,-276.68247421689557 L63.0942155037814,-276.7522486195034 L63.16709999266047,-276.8163424954406 L63.244925840344415,-276.8743365562063 L63.32718392669451,-276.92585141699266 L63.41333613680958,-276.97055007853976 " />

       </g>
    </g>

</svg>
