<?xml version="1.0" encoding="UTF-8" standalone="no"?>
<svg
   xmlns:svg="http://www.w3.org/2000/svg"
   xmlns="http://www.w3.org/2000/svg"
   width="900.0"
   height="680.0"

>
    <g transform="scale(7.873871437626672, -7.873871437626672)   translate(29.959176083237566,-40.64074484005694)" stroke-width="0.7"  fill="none">
       <!-- hidden lines -->
       <g  stroke="rgb(140,170,195)" fill="none" stroke-dasharray="0.7,0.7" >

       </g>

       <!-- solid lines -->
       <g  stroke="rgb(8,43,85)" fill="none">
			<path d="M-12.727922061357786,24.73666184076536 L-12.790006907886243,24.767263952341686 L-12.851997177046881,24.800847524906764 L-12.913798435546958,24.837361398699844 L-12.975316538024387,24.876749950066113 L-13.036457770464702,24.918953176191383 L-13.097128992960949,24.963906786507767 L-13.157237781598973,25.011542300631163 L-13.216692569252013,25.061787152681287 L-13.275402785070101,25.114564801825416 L-13.33327899245177,25.169794848877352 L-13.39023302528791,25.227393158774095 L-13.446178122270194,25.28727198874353 L-13.5010290590595,25.349340121967977 L-13.554702278112984,25.413503006539944 L-13.607116015972025,25.47966289949841 L-13.658190427817132,25.547719015726223 L-13.707847709100092,25.617567681481773 L-13.75601221406805,25.6891024923311 L-13.80261057099897,25.762214475239787 L-13.84757179397295,25.836792254577777 L-13.890827391009084,25.91272222178418 L-13.9323114684032,25.989888708433625 L-13.971960831107461,26.06817416244057 L-14.009715078998976,26.147459327133014 L-14.045516698890724,26.22762342292298 L-14.079311152144662,26.3085443312969 L-14.111046957753516,26.390098780845673 L-14.140675770764732,26.472162535051 L-14.168152455927071,26.554610581541915 L-14.193435156447704,26.63731732253321 L-14.216485357755037,26.72015676615568 L-14.237267946170144,26.803002718386676 L-14.255751262397421,26.88572897528861 L-14.271907149752991,26.968209515262583 L-14.285710997057375,27.050318691024227 L-14.2971417761271,27.131931421009345 L-14.30618207380812,27.212923379917733 L-14.312818118502262,27.29317118810499 L-14.317039801146286,27.3725525995337 L-14.31884069061159,27.45094668799778 L-14.318218043501115,27.528234031336204 L-14.31517280832852,27.604296893355563 L-14.309709624073248,27.679019403184295 L-14.301836813113718,27.752287731785344 L-14.291566368549367,27.823990265358386 L-14.278913935930877,27.894017775367473 L-14.263898789426433,27.962263584935048 L-14.246543802460275,28.02862373134888 L-14.22687541286833,28.09299712443437 L-14.204923582623938,28.15528570055094 L-14.180721752195094,28.215394571977935 L-14.15430678960268,28.273232171462478 L-14.12571893425732,28.328710391709063 L-14.095001735660402,28.381744719598366 L-14.062201987062652,28.432254364930923 L-14.027369654181323,28.48016238349937 L-13.990557799084586,28.525395794301957 L-13.951822499359068,28.567885690718622 L-13.911222762683689,28.607567345480376 L-13.868820436939906,28.644380309271995 L-13.824680115995347,28.67826850281792 L-13.778869041304295,28.709180302310976 L-13.731456999474968,28.737068618053854 L-13.682516215959637,28.761890966193512 " />
			<path d="M-13.682516215959625,28.761890966193516 L-13.618913412036974,28.788697292445853 L-13.553164131908911,28.810530616320232 L-13.485426771350223,28.827338339427058 L-13.415864515595587,28.839079970489195 L-13.34464494621205,28.845727222888957 L-13.271939637380353,28.84726408281309 L-13.197923742557705,28.84368684783142 L-13.122775572517762,28.835004135816348 L-13.046676165784353,28.82123686418164 L-12.969808852493816,28.80241819949052 L-12.892358812736655,28.778593477554566 L-12.814512630442461,28.74982009421571 L-12.736457843882905,28.716167367074668 L-12.6583824938756,28.677716368498757 L-12.580474670777306,28.63455973031145 L-12.502922061357786,28.586801420634224 L-12.425911496645938,28.53455649341822 L-12.349628501837483,28.477950811269213 L-12.274256849348516,28.41712074223358 L-12.199978116091657,28.352212831275708 L-12.126971246041373,28.283383447238354 L-12.055412119142261,28.21079840613641 L-11.98547312759886,28.134632571691586 L-11.91732276056773,28.055069434070404 L-11.851125198252317,27.972300667840297 L-11.78703991637846,27.8865256702088 L-11.725221302003401,27.797951080658216 L-11.665818281583839,27.70679028313298 L-11.608973962199059,27.613262891979087 L-11.55482528679343,27.517594222873846 L-11.503502704268866,27.42001475002072 L-11.455129855222001,27.32075955091677 L-11.409823274083147,27.22006774003036 L-11.367692108374655,27.11818189275348 L-11.328837855764974,27.015347461016365 L-11.293354119551866,26.9118121819723 L-11.261326383163883,26.80782548117713 L-11.232831804223277,26.70363787170122 L-11.20793902866655,26.599500350621557 L-11.186708025370365,26.49566379434779 L-11.169189941681278,26.392378354239 L-11.155426980197303,26.28989285396713 L-11.145452297098144,26.18845419007902 L-11.139289922269068,26.088306737200945 L-11.136954701410799,25.98969175931877 L-11.138452260274924,25.892846828551868 L-11.14377899111097,25.798005252821063 L-11.152922061357785,25.705395513789444 L-11.165859444558308,25.615240716429984 L-11.182559973423228,25.52775805154615 L-11.202983414915712,25.443158272540227 L-11.227080567176326,25.361645187689902 L-11.254793378054613,25.28341516915629 L-11.286055084961811,25.20865667990617 L-11.320790375707777,25.137549819688218 L-11.358915569934654,25.07026589115693 L-11.400338820710177,25.006966987189504 L-11.444960335794976,24.947805600389934 L-11.492672618050833,24.89292425572095 L-11.543360724410688,24.842455167148884 L-11.596902542786568,24.796519919128688 L-11.653169086248296,24.75522917369629 L-11.712024803764304,24.71868240387408 L-11.773327906755942,24.686967654031683 " />
			<path d="M-11.773327906755947,24.68696765403168 L-11.82527625659438,24.664638050558747 L-11.878684487444428,24.645639820401733 L-11.933466220283808,24.63000369007076 L-11.989532854676858,24.617754948432903 L-12.046793712071139,24.60891340581158 L-12.105156182455087,24.603493361946654 L-12.164525874139455,24.601503582866915 L-12.224806766420333,24.602947286712503 L-12.28590136487683,24.60782213853009 L-12.347710859052253,24.61612025404927 L-12.410135282263761,24.627828212434082 L-12.473073673282016,24.64292707798899 L-12.536424239619347,24.661392430784275 L-12.600084522162355,24.683194406151223 L-12.663951560882657,24.708297742983337 L-12.727922061357779,24.736661840765358 " />
			<path d="M-14.849242404917524,23.127760710730293 L-14.961570418371341,23.264327647063563 L-15.071772587280032,23.40418768825056 L-15.1797440282232,23.54720772439298 L-15.285381980845552,23.693251638110155 L-15.388585905657683,23.84218043408694 L-15.489257579723152,23.993852371360596 L-15.587301190140836,24.148123098220836 L-15.682623425233578,24.304845789594623 L-15.775133563356281,24.463871286784926 L-15.864743559239027,24.62504823943049 L-15.951368127782965,24.78822324955151 L-16.034924825229236,24.95324101754405 L-16.115334127623715,25.11994448998435 L-16.19251950650285,25.2881750091023 L-16.2664075017286,25.45777246378181 L-16.336927791403106,25.6285754419444 L-16.404013258796624,25.800421384170953 L-16.467600056224953,25.97314673841546 L-16.527627665815604,26.14658711566342 L-16.584038957104863,26.32057744638689 L-16.636780241410943,26.494952137647164 L-16.68580132293145,26.66954523069562 L-16.73105554651656,26.844190558922666 L-16.772499842072428,27.0187219060046 L-16.810094765552567,27.192973164097733 L-16.84380453649818,27.36677849192928 L-16.873597072091727,27.539972472634524 L-16.899444017691316,27.712390271190085 L-16.921320773816845,27.883867791293447 L-16.939206519562234,28.054241831539336 L-16.95308423241141,28.22335024074449 L-16.962940704439298,28.391032072272832 L-16.96876655488226,28.557127737214252 L-16.970556239066106,28.721479156271172 L-16.968308053683174,28.883929910208415 L-16.96202413841343,29.04432538872305 L-16.95171047388805,29.20251293759267 L-16.93737687599743,29.358342003961983 L-16.919036986549063,29.511664279629446 L-16.896708260284125,29.662333842197576 L-16.870411948265158,29.810207293952637 L-16.840173077650654,29.955143898341444 L-16.80602042787582,30.09700571391549 L-16.76798650326211,30.235657725614832 L-16.726107502081703,30.37096797326686 L-16.680423282106272,30.502807677177607 L-16.630977322672898,30.631051360696045 L-16.577816683303194,30.755576969634816 L-16.520991958915054,30.876265988433648 L-16.460557231669615,30.993003552954924 L-16.396570019499293,31.10567855980407 L-16.329091221365893,31.214183772070697 L-16.258185059300803,31.318415921389906 L-16.18391901728259,31.418275806226514 L-16.10636377701002,31.5136683862888 L-16.025593150631707,31.6045028729818 L-15.9416840104964,31.690692815814135 L-15.854716215990782,31.77215618467607 L-15.764772537534359,31.84881544791059 L-15.671938577803857,31.92059764610308 L-15.57630269026202,31.987434461519467 L-15.477955895068403,32.049262283126694 L-15.376991792452172,32.106022267133675 L-15.273506473629388,32.157660392995034 " />
			<path d="M-15.273506473629357,32.15766039299505 L-15.182965877865247,32.197768729275104 L-15.090712088436323,32.2340576264253 L-14.996809482445162,32.266501761105864 L-14.901323587581578,32.29507849295267 L-14.804321036395695,32.31976788037621 L-14.705869519800011,32.34055269447743 L-14.606037739832914,32.35741843107046 L-14.504895361716605,32.37035332080401 L-14.402512965242883,32.37934833737435 L-14.298961995520731,32.38439720382412 L-14.194314713120052,32.38549639692249 L-14.088644143646352,32.382645149623826 L-13.982024026781573,32.375845451602935 L-13.874528764826614,32.36510204786659 L-13.76623337078146,32.35042243544239 L-13.657213415999164,32.33181685814709 L-13.547544977450169,32.30929829943824 L-13.437304584633821,32.28288247335396 L-13.326569166174087,32.25258781354727 L-13.215415996136752,32.218435460422654 L-13.103922640105552,32.180449246383674 L-12.992166901054892,32.13865567920212 L-12.8802267650569,32.09308392352021 L-12.76818034686071,32.043765780498724 L-12.65610583538194,31.99073566562533 L-12.54408143914044,31.934030584698547 L-12.432185331684337,31.873690108004155 L-12.320495597038498,31.809756342701995 L-12.20909017521545,31.742273903442506 L-12.098046807826814,31.67128988123345 L-11.987442983833175,31.596853810578587 L-11.877355885470262,31.51901763491119 L-11.767862334389168,31.437835670346583 L-11.6590387380482,31.353364567778918 L-11.550961036393758,31.265663273348707 L-11.443704648867456,31.174792987308674 L-11.337344421776471,31.080817121316613 L-11.231954576063833,30.983801254185085 L-11.127608655515115,30.8838130861188 L-11.024379475437655,30.780922391471652 L-10.922339071848139,30.675200970056363 L-10.821558651203992,30.566722597040684 L-10.722108540713638,30.455562971465167 L-10.624058139260352,30.341799663418396 L-10.527475868973905,30.22551205990655 L-10.432429127483815,30.106781309455073 L-10.338984240887513,29.985690265481146 L-10.247206417466273,29.86232342847637 L-10.157159702181168,29.736766887040126 L-10.068906931980822,29.609108257804728 L-9.98250969195214,29.47943662429422 L-9.898028272344646,29.34784247475958 L-9.815521626498352,29.214417639033666 L-9.735047329704589,29.079255224449934 L-9.65666153902847,28.942449550869743 L-9.580418954121008,28.804096084863467 L-9.50637277904829,28.66429137309144 L-9.434574685164279,28.52313297493119 L-9.365074775053198,28.380719394397925 L-9.297921547566638,28.2371500114059 L-9.233161863979795,28.092525012418484 L-9.170840915290448,27.94694532053545 L-9.111002190683497,27.800512525066193 L-9.053687447183087,27.65332881063808 " />
			<path d="M11.88211457192946,17.844459932198294 L-9.053687447183128,27.65332881063796 " />
			<path d="M11.88211457192941,17.844459932198447 L11.936801441084441,17.93380646409491 L11.993792409312292,18.020313150796397 L12.053051197816192,18.103924924656155 L12.114540084170779,18.18458856084495 L12.178219926335109,18.26225271123245 L12.244050187569341,18.336867937073958 L12.311988962239244,18.408386740481674 L12.381993002492122,18.476763594660472 L12.45401774578712,18.541954972888945 L12.528017343262464,18.603919376227257 L12.603944688921512,18.66261735993414 L12.681751449619057,18.718011558576297 L12.761388095828812,18.770066709814145 L12.842803933172474,18.818749676848793 L12.925947134690276,18.86402946951597 L13.010764773832515,18.905877264013448 " />
			<path d="M13.010764773832545,18.905877264013462 L13.094827147979315,18.943266680964626 L13.180372250959614,18.977360800686363 L13.267348553602144,19.008139086155822 L13.355703664634447,19.035582997684703 L13.445384362241448,19.059676004086896 L13.536336626124283,19.080403592636245 L13.628505670040116,19.097753277808458 L13.721835974803314,19.111714608801933 L13.816271321728133,19.12227917583293 L13.911754826492748,19.1294406152013 L14.00822897340425,19.13319461312376 L14.10563565004394,19.133538908332323 L14.203916182272078,19.13047329343643 L14.303011369570998,19.12399961504787 L14.402861520705278,19.114121772668437 L14.503406489677511,19.100845716341016 L14.60458571195801,19.084179443065523 L14.706338240966605,19.064132991981786 L14.808602784784593,19.040718438322347 L14.911317743074699,19.01394988613881 L15.014421244186806,18.98384345980607 L15.117851182427135,18.95041729430959 L15.22154525546838,18.913691524321592 L15.325441001878316,18.873688272072645 L15.429475838744215,18.830431634026084 L15.533587099370465,18.783947666363204 L15.637712071026634,18.73426436928797 L15.74178803272328,18.68141167016077 L15.845752292992728,18.625421405471265 L15.949542227652064,18.566327301661293 L16.053095317525607,18.50416495480932 L16.156349186104116,18.438971809188686 L16.25924163711807,18.370787134712586 L16.361710692002376,18.299652003279334 L16.463694627229934,18.225609264032197 L16.56513201149159,18.148703517548654 L16.665961742700052,18.068981088974702 L16.766123084795503,17.9864900001203 L16.865555704330745,17.901279940532824 L16.964199706813794,17.813402237565967 L17.061995672786086,17.72290982546204 L17.158884693614553,17.62985721346636 L17.254808406975954,17.534300452992937 L17.349709032012182,17.43629710386118 L17.443529404135283,17.33590619962402 L17.536213009461253,17.23318821200832 L17.627704018851908,17.12820501448894 L17.717947321544266,17.021019845018497 L17.806888558347193,16.911697267935168 L17.894474154385367,16.800303135071545 L17.980651351370774,16.686904546087977 L18.06536823938232,16.571569808054225 L18.148573788134435,16.454368394303827 L18.23021787771581,16.335370902585993 L18.31025132877975,16.21464901254013 L18.388625932167972,16.092275442518705 L18.465294477950017,15.968323905784475 L18.540210783860722,15.842869066108314 L18.613329723118714,15.715986492794583 L18.68460725160907,15.587752615161005 L18.754000434413868,15.45824467650049 L18.82146747167457,15.327540687552673 L18.886967723770677,15.195719379513163 L18.950461735799543,15.062860156608803 L19.01191126134252,14.929043048267546 L19.071279285503156,14.794348660911712 L19.12853004720362,14.658858129403697 L19.1836290607258,14.522653068173364 L19.23654313648424,14.385815522056564 L19.287240401018284,14.248427916874393 L19.335690316191474,14.110573009782955 L19.381863697586567,13.972333839423559 L19.425732732085145,13.833793675903332 L19.46727099462119,13.695035970636427 L19.506453464098577,13.556144306076018 L19.543256538462806,13.417202345367336 L19.577658048918046,13.278293781952138 L19.609637273280747,13.139502289154903 L19.63917494846194,13.00091146978114 L19.666253282070574,12.862604805758199 L19.690855963131014,12.724665607848864 L19.712968171908138,12.58717696546808 L19.732576588834206,12.450221696632987 L19.74966940253207,12.31388229807644 L19.764236316929903,12.178240895554074 L19.77626855746316,12.043379194374808 L19.78575887636006,11.909378430184628 L19.792701557007362,11.776319320033272 L19.79709241739385,11.644282013753296 L19.798928812629413,11.513346045680807 L19.79820963653823,11.383590286746964 L19.79493532232508,11.255092896969062 L19.789107842314415,11.127931278369882 L19.78073070676229,11.002182028353591 L19.769808961741923,10.877920893566328 L19.756349186104117,10.755222724269267 L19.740359487514425,10.634161429251611 L19.72184949756939,10.514809931310706 L19.700830365994815,10.397240123326071 L19.677314753929608,10.281522824953818 L19.65131682629917,10.167727739967537 L19.622852243282978,10.055923414271355 L19.59193815088149,9.946177194610435 L19.558593170588008,9.838555188003827 L19.522837388171816,9.733122221924063 L19.484692341579244,9.629941805247519 L19.444181007960026,9.529076089999036 L19.401327789826716,9.430585833913867 L19.356158500355537,9.334530363839491 L19.308700347837473,9.240967539999334 L19.258981919289027,9.149953721139937 L19.207033163232467,9.061543730582557 L19.152885371655948,8.975790823199642 L19.09657116116441,8.892746653336095 L19.038124453332518,8.812461243694617 L18.97758045427161,8.734982955203915 L18.914975633422834,8.66035845788787 L18.850347701589328,8.588632702753278 L18.78373558822063,8.519848894713036 L18.715179417963046,8.454048466561112 L18.644720486490062,8.39127105401499 L18.572401235627368,8.331554471840587 L18.49826522778749,8.27493469107406 L18.422357119729426,8.22144581735419 L18.344722635659085,8.171120070378434 L18.26540853968673,8.123987764494967 L18.184462607658038,8.080077290442457 L18.1019335983757,8.039415098248568 " />
			<path d="M18.101933598375687,8.039415098248561 L17.999064767006896,7.9941954379373525 L17.894001233084644,7.953897992037462 L17.786837392865294,7.91855896652723 L17.677669529663874,7.888210112401385 " />
			<path d="M17.67766952966376,-21.802582397832662 L17.67766952966376,7.888210112401456 " />
			<path d="M11.882114571929353,-26.328150497740292 L11.939429315429768,-26.475334212168423 L11.999268040036716,-26.621767007637676 L12.061588988726061,-26.767346699520715 L12.126348672312904,-26.911971698508136 L12.193501899799463,-27.055541081500166 L12.263001809910543,-27.197954662033435 L12.334799903794554,-27.33911306019369 L12.40884607886727,-27.47891777196572 L12.485088663774732,-27.617271237972002 L12.563474454450853,-27.754076911552197 L12.643948751244611,-27.88923932613593 L12.726455397090907,-28.02266416186185 L12.810936816698401,-28.154258311396493 L12.897334056727079,-28.283929944907 L12.985586826927427,-28.411588574142407 L13.075633542212532,-28.537145115578653 L13.167411365633773,-28.660511952583434 L13.260856252230075,-28.781602996557368 L13.355902993720166,-28.900333747008837 L13.452485264006611,-29.01662135052069 L13.550535665459899,-29.13038465856747 L13.64998577595025,-29.241544284142986 L13.7507661965944,-29.350022657158668 L13.852806600183916,-29.45574407857396 L13.956035780261379,-29.55863477322111 L14.0603817008101,-29.658622941287405 L14.165771546522736,-29.755638808418936 L14.272131773613722,-29.849614674410997 L14.379388161140026,-29.940484960451034 L14.487465862794465,-30.02818625488125 L14.596289459135436,-30.112657357448917 L14.705783010216532,-30.193839322013527 L14.815870108579448,-30.271675497680924 L14.926473932573089,-30.346111568335793 L15.037517299961724,-30.417095590544847 L15.148922721784773,-30.484578029804343 L15.260612456430616,-30.548511795106506 L15.372508563886717,-30.6088522718009 L15.48453296012822,-30.665557352727685 L15.596607471606992,-30.718587467601083 L15.708653889803186,-30.76790561062257 L15.82059402580118,-30.813477366304483 L15.93234976485184,-30.855270933486036 L16.043843120883043,-30.893257147525023 L16.154996290920383,-30.92740950064964 L16.26573170938012,-30.957704160456327 L16.375972102196464,-30.984119986540613 L16.485640540745464,-31.006638545249466 L16.594660495527762,-31.025244122544763 L16.702955889572916,-31.039923734968966 L16.81045115152788,-31.05066713870531 L16.91707126839266,-31.057466836726206 L17.022741837866363,-31.06031808402487 L17.127389120267043,-31.0592188909265 L17.230940089989197,-31.054170024476736 L17.333322486462922,-31.045175007906387 L17.434464864579233,-31.03224011817284 L17.534296644546334,-31.015374381579814 L17.632748161142015,-30.99458956747859 L17.7297507123279,-30.96990018005505 L17.82523660719149,-30.941323448208244 L17.91913921318265,-30.908879313527677 L18.011393002611577,-30.872590416377484 L18.101933598375656,-30.832482080097442 " />
			<path d="M18.101933598375687,-30.832482080097428 L18.205418917198504,-30.780843954236058 L18.30638301981473,-30.724083970229078 L18.40472981500835,-30.662256148621847 L18.500365702550187,-30.59541933320546 L18.59319966228069,-30.523637135012972 L18.68314334073711,-30.44697787177845 L18.77011113524273,-30.365514502916515 L18.854020275378037,-30.27932456008418 L18.93479090175635,-30.18849007339118 L19.01234614202892,-30.093097493328894 L19.08661218404713,-29.993237608492286 L19.15751834611222,-29.88900545917308 L19.224997144245624,-29.780500246906453 L19.28898435641594,-29.667825240057308 L19.34941908366138,-29.55108767553603 L19.406243808049524,-29.4303986567372 L19.459404447419224,-29.30587304779843 L19.508850406852602,-29.17762936427999 L19.554534626828033,-29.045789660369245 L19.59641362800844,-28.910479412717212 L19.63444755262215,-28.77182740101787 L19.668600202396984,-28.629965585443827 L19.698839073011484,-28.485028981055017 L19.725135385030455,-28.337155529299956 L19.747464111295393,-28.186485966731823 L19.765804000743756,-28.033163691064363 L19.780137598634376,-27.87733462469505 L19.79045126315976,-27.71914707582543 L19.796735178429508,-27.558751597310795 L19.798983363812436,-27.396300843373552 L19.79719367962859,-27.23194942431663 L19.79136782918563,-27.065853759375216 L19.78151135715774,-26.89817192784687 L19.76763364430856,-26.729063518641716 L19.74974789856318,-26.558689478395827 L19.727871142437646,-26.387211958292472 L19.702024196838057,-26.214794159736904 L19.67223166124451,-26.041600179031665 L19.638521890298897,-25.86779485120012 L19.600926966818758,-25.69354359310698 L19.55948267126289,-25.519012246025046 L19.51422844767778,-25.344366917798 L19.465207366157273,-25.169773824749548 L19.412466081851193,-24.99539913348927 L19.356054790561934,-24.821408802765795 L19.296027180971283,-24.64796842551784 L19.23244038354295,-24.475243071273336 L19.165354916149433,-24.30339712904678 L19.094834626474928,-24.132594150884184 L19.020946631249178,-23.962996696204677 L18.94376125237004,-23.79476617708673 L18.863351949975566,-23.628062704646428 L18.779795252529293,-23.46304493665389 L18.693170683985358,-23.29986992653287 L18.603560688102608,-23.138692973887302 L18.511050549979906,-22.979667476697003 L18.415728314887165,-22.822944785323216 L18.317684704469478,-22.668674058462976 L18.21701303040401,-22.51700212118932 L18.113809105591884,-22.36807332521254 L18.008171152969528,-22.22202941149536 L17.90019971202636,-22.079009375352943 L17.78999754311767,-21.939149334165947 L17.67766952966386,-21.802582397832683 " />
			<path d="M-9.053687447183039,-16.519281619300713 L11.88211457192937,-26.32815049774029 " />
			<path d="M-14.849242404917517,-6.56303179950376 L-14.958410268118955,-6.593380653629608 L-15.065574108338309,-6.62871967913984 L-15.170637642260559,-6.669017125039731 L-15.273506473629338,-6.714236785350932 " />
			<path d="M-15.273506473629352,-6.7142367853509395 L-15.356035482911704,-6.754898977544835 L-15.4369814149404,-6.798809451597344 L-15.516295510912752,-6.845941757480812 L-15.593929994983089,-6.896267504456569 L-15.669838103041153,-6.949756378176435 L-15.74397411088103,-7.006376158942961 L-15.816293361743726,-7.066092741117363 L-15.88675229321671,-7.128870153663486 L-15.955308463474292,-7.1946705818154095 L-16.02192057684299,-7.263454389855653 L-16.0865485086765,-7.335180144990242 L-16.149153329525276,-7.409804642306289 L-16.209697328586184,-7.487282930796995 L-16.268144036418075,-7.567568340438471 L-16.324458246909618,-7.650612510302018 L-16.378606038486133,-7.736365417684933 L-16.430554794542694,-7.824775408242312 L-16.48027322309114,-7.9157892271017065 L-16.527731375609203,-8.009352050941864 L-16.572900665080383,-8.105407521016243 L-16.615753883213692,-8.203897777101414 L-16.65626521683291,-8.304763492349895 L-16.694410263425482,-8.40794390902644 L-16.730166045841678,-8.513376875106202 L-16.763511026135156,-8.62099888171281 L-16.794425118536648,-8.73074510137373 L-16.82288970155284,-8.842549427069912 L-16.848887629183274,-8.956344512056193 L-16.872403241248485,-9.072061810428448 L-16.89342237282306,-9.189631618413081 L-16.911932362768095,-9.308983116353986 L-16.927922061357783,-9.430044411371643 L-16.94138183699559,-9.552742580668703 L-16.95230358201596,-9.677003715455966 L-16.960680717568085,-9.802752965472257 L-16.96650819757875,-9.929914584071435 L-16.969782511791898,-10.058411973849331 L-16.970501687883083,-10.188167732783176 L-16.968665292647522,-10.31910370085567 L-16.964274432261032,-10.451141007135647 L-16.95733175161373,-10.584200117287002 L-16.947841432716828,-10.718200881477186 L-16.935809192183573,-10.853062582656452 L-16.92124227778574,-10.98870398517882 L-16.904149464087876,-11.125043383735365 L-16.884541047161807,-11.26199865257046 L-16.862428838384684,-11.399487294951243 L-16.837826157324244,-11.537426492860575 L-16.81074782371561,-11.675733156883517 L-16.78121014853442,-11.814323976257278 L-16.749230924171716,-11.953115469054513 L-16.714829413716476,-12.092024032469709 L-16.678026339352247,-12.23096599317839 L-16.638843869874865,-12.369857657738802 L-16.597305607338818,-12.508615363005704 L-16.55343657284024,-12.64715552652593 L-16.507263191445148,-12.785394696885326 L-16.458813276271957,-12.923249603976764 L-16.408116011737913,-13.060637209158937 L-16.355201935979473,-13.197474755275735 L-16.30010292245729,-13.333679816506068 L-16.24285216075683,-13.469170348014082 L-16.183484136596192,-13.603864735369921 L-16.122034611053216,-13.737681843711176 L-16.05854059902435,-13.870541066615536 L-15.99304034692824,-14.002362374655052 L-15.925573309667541,-14.133066363602866 L-15.856180126862741,-14.262574302263381 L-15.784902598372385,-14.39080817989696 L-15.711783659114396,-14.51769075321069 L-15.636867353203689,-14.643145592886851 L-15.560198807421646,-14.767097129621082 L-15.481824204033423,-14.889470699642501 L-15.401790752969484,-15.01019258968837 L-15.32014666338811,-15.129190081406204 L-15.236941114635993,-15.246391495156598 L-15.152224226624448,-15.361726233190353 L-15.066047029639043,-15.475124822173917 L-14.978461433600867,-15.586518955037539 L-14.88952019679794,-15.69584153212087 L-14.799276894105587,-15.803026701591314 L-14.707785884714928,-15.908009899110692 L-14.61510227938896,-16.010727886726393 L-14.52128190726586,-16.111118790963552 L-14.426381282229631,-16.20912214009531 L-14.33045756886823,-16.30467890056873 L-14.233568548039761,-16.397731512564416 L-14.13577258206747,-16.488223924668343 L-14.037128579584422,-16.576101627635197 L-13.937695960049178,-16.661311687222675 L-13.837534617953724,-16.743802776077082 L-13.736704886745262,-16.823525204651034 L-13.635267502483607,-16.900430951134574 L-13.53328356725605,-16.974473690381714 L-13.430814512371745,-17.045608821814962 L-13.327922061357791,-17.113793496291063 L-13.224668192779282,-17.178986641911695 L-13.121115102905739,-17.24114898876367 L-13.017325168246403,-17.30024309257364 L-12.913360907976955,-17.356233357263147 L-12.809284946280311,-17.409086056390347 L-12.705159974624141,-17.45876935346558 L-12.601048713997889,-17.505253321128464 L-12.49701387713199,-17.54850995917502 L-12.393118130722055,-17.588513211423972 L-12.289424057680804,-17.625238981411975 L-12.185994119440478,-17.65866514690845 L-12.08289061832837,-17.68877157324119 L-11.980175660038267,-17.715540125424727 L-11.877911116220275,-17.738954679084166 L-11.77615858721168,-17.759001130167903 L-11.674979364931184,-17.775667403443396 L-11.57443439595895,-17.788943459770817 L-11.47458424482467,-17.79882130215025 L-11.375489057525751,-17.80529498053881 L-11.277208525297613,-17.8083605954347 L-11.179801848657924,-17.80801630022614 L-11.083327701746422,-17.804262302303684 L-10.987844196981804,-17.79710086293531 L-10.893408850056986,-17.786536295904313 L-10.800078545293788,-17.772574964910838 L-10.707909501377951,-17.755225279738625 L-10.616957237495116,-17.734497691189276 L-10.527276539888117,-17.710404684787083 L-10.438921428855814,-17.682960773258202 L-10.351945126213284,-17.652182487788743 L-10.266400023232984,-17.618088368067006 L-10.182337649086247,-17.580698951115856 " />
			<path d="M-10.182337649086215,-17.580698951115842 L-10.097520009943942,-17.53885115661835 L-10.014376808426134,-17.49357136395117 L-9.93296097108247,-17.444888396916514 L-9.853324324872705,-17.392833245678663 L-9.775517564175153,-17.3374390470365 L-9.699590218516102,-17.278741063329612 L-9.625590621040754,-17.216776659991297 L-9.553565877745752,-17.151585281762816 L-9.483561837492875,-17.08320842758401 L-9.415623062822966,-17.01168962417629 L-9.34979280158873,-16.937074398334772 L-9.286112959424397,-16.859410247947267 L-9.224624073069807,-16.77874661175846 L-9.165365284565905,-16.695134837898696 L-9.108374316338054,-16.608628151197202 L-9.053687447183023,-16.51928161930073 " />
			<path d="M-14.849242404917428,23.127760710730282 L-14.849242404917428,-6.563031799503836 " />
			<path d="M-10.606601717798144,-6.285920934131166 L-10.606601717798144,18.875114906663136 " />
			<path d="M-3.4249998329093265,0.2192302058152813 L-10.606601717798133,-6.285920934131174 " />
			<path d="M-3.4249998329094224,0.21923020581538022 L-3.4804640761875345,0.4054009219386815 L-3.53253221646906,0.5917500844885716 L-3.581168127009746,0.7781483977287268 L-3.626338062469505,0.9644665318203037 L-3.6680106823261416,1.1505752125556423 L-3.706157072620536,1.336345311053337 L-3.7407507660181687,1.5216479333524782 L-3.7717677601731334,1.7063545098439237 L-3.799186534381803,1.890336884476501 L-3.822988064514678,2.0734674036762795 L-3.843155836216009,2.2556190049171954 L-3.859675856362047,2.4366653048815885 L-3.8725366627699738,2.6164806871495014 L-3.88172933215078,2.7949403893558484 L-3.8872474863005606,2.9719205897550074 L-3.889087296525941,3.1472984931328085 L-3.8872474863005633,3.3209524160062593 L-3.8817293321507846,3.492761871051904 L-3.872536662769981,3.6626076507042598 L-3.8596758563620557,3.830371909866291 L-3.84315583621602,3.9959382476745926 L-3.8229880645146914,4.159191788262465 L-3.799186534381817,4.320019260464909 L-3.7717677601731494,4.478309076410234 L-3.7407507660181882,4.6339514089437355 L-3.7061570726205555,4.786838267829699 L-3.668010682326164,4.936863574678918 L-3.6263380624695283,5.083923236549668 L-3.581168127009773,5.227915218171151 L-3.532532216469088,5.368739612739208 L-3.4804640761875656,5.506298711235244 L-3.424999832909472,5.640497070220215 " />
			<path d="M-10.606601717798135,18.875114906663143 L-3.424999832909288,5.6404970702202775 " />
			<path d="M-12.727922061357786,-14.13523533758063 L-12.790006907886243,-14.104633226004303 L-12.851997177046881,-14.071049653439223 L-12.913798435546958,-14.034535779646145 L-12.975316538024387,-13.995147228279876 L-13.036457770464702,-13.952944002154608 L-13.097128992960949,-13.907990391838222 L-13.157237781598973,-13.860354877714826 L-13.216692569252013,-13.8101100256647 L-13.275402785070101,-13.757332376520575 L-13.33327899245177,-13.702102329468635 L-13.39023302528791,-13.644504019571894 L-13.446178122270194,-13.584625189602459 L-13.5010290590595,-13.522557056378012 L-13.554702278112984,-13.458394171806045 L-13.607116015972025,-13.392234278847578 L-13.658190427817132,-13.324178162619766 L-13.707847709100092,-13.254329496864216 L-13.75601221406805,-13.18279468601489 L-13.80261057099897,-13.109682703106204 L-13.84757179397295,-13.035104923768213 L-13.890827391009084,-12.959174956561812 L-13.9323114684032,-12.882008469912362 L-13.971960831107461,-12.803723015905419 L-14.009715078998976,-12.724437851212974 L-14.045516698890724,-12.64427375542301 L-14.079311152144662,-12.56335284704909 L-14.111046957753516,-12.481798397500317 L-14.140675770764732,-12.399734643294988 L-14.168152455927071,-12.317286596804074 L-14.193435156447704,-12.23457985581278 L-14.216485357755037,-12.151740412190309 L-14.237267946170144,-12.068894459959315 L-14.255751262397421,-11.98616820305738 L-14.271907149752991,-11.903687663083405 L-14.285710997057375,-11.82157848732176 L-14.2971417761271,-11.739965757336645 L-14.30618207380812,-11.658973798428256 L-14.312818118502262,-11.578725990241 L-14.317039801146286,-11.499344578812288 L-14.31884069061159,-11.420950490348208 L-14.318218043501115,-11.343663147009785 L-14.31517280832852,-11.267600284990426 L-14.309709624073248,-11.192877775161694 L-14.301836813113718,-11.119609446560645 L-14.291566368549367,-11.047906912987603 L-14.278913935930877,-10.977879402978516 L-14.263898789426433,-10.909633593410941 L-14.246543802460275,-10.84327344699711 L-14.22687541286833,-10.778900053911618 L-14.204923582623938,-10.71661147779505 L-14.180721752195094,-10.656502606368056 L-14.15430678960268,-10.59866500688351 L-14.12571893425732,-10.543186786636928 L-14.095001735660402,-10.490152458747621 L-14.062201987062652,-10.439642813415068 L-14.027369654181323,-10.39173479484662 L-13.990557799084586,-10.346501384044034 L-13.951822499359068,-10.304011487627367 L-13.911222762683689,-10.264329832865615 L-13.868820436939906,-10.227516869073993 L-13.824680115995347,-10.193628675528068 L-13.778869041304295,-10.162716876035011 L-13.731456999474968,-10.134828560292135 L-13.682516215959637,-10.110006212152479 " />
			<path d="M-13.682516215959625,-10.110006212152474 L-13.618913412036974,-10.083199885900134 L-13.553164131908911,-10.061366562025757 L-13.485426771350223,-10.04455883891893 L-13.415864515595587,-10.032817207856796 L-13.34464494621205,-10.026169955457032 L-13.271939637380353,-10.0246330955329 L-13.197923742557705,-10.028210330514568 L-13.122775572517762,-10.03689304252964 L-13.046676165784353,-10.050660314164352 L-12.969808852493816,-10.069478978855468 L-12.892358812736655,-10.093303700791424 L-12.814512630442461,-10.122077084130279 L-12.736457843882905,-10.15572981127132 L-12.6583824938756,-10.194180809847232 L-12.580474670777306,-10.237337448034536 L-12.502922061357786,-10.285095757711764 L-12.425911496645938,-10.33734068492777 L-12.349628501837483,-10.393946367076776 L-12.274256849348516,-10.45477643611241 L-12.199978116091657,-10.519684347070283 L-12.126971246041373,-10.588513731107636 L-12.055412119142261,-10.661098772209579 L-11.98547312759886,-10.737264606654401 L-11.91732276056773,-10.816827744275585 L-11.851125198252317,-10.899596510505692 L-11.78703991637846,-10.985371508137186 L-11.725221302003401,-11.073946097687774 L-11.665818281583839,-11.165106895213006 L-11.608973962199059,-11.258634286366904 L-11.55482528679343,-11.354302955472145 L-11.503502704268866,-11.451882428325268 L-11.455129855222001,-11.55113762742922 L-11.409823274083147,-11.651829438315628 L-11.367692108374655,-11.75371528559251 L-11.328837855764974,-11.856549717329624 L-11.293354119551866,-11.960084996373686 L-11.261326383163883,-12.06407169716886 L-11.232831804223277,-12.16825930664477 L-11.20793902866655,-12.272396827724432 L-11.186708025370365,-12.376233383998196 L-11.169189941681278,-12.479518824106991 L-11.155426980197303,-12.582004324378856 L-11.145452297098144,-12.683442988266968 L-11.139289922269068,-12.783590441145044 L-11.136954701410799,-12.882205419027219 L-11.138452260274924,-12.979050349794123 L-11.14377899111097,-13.073891925524924 L-11.152922061357785,-13.166501664556545 L-11.165859444558308,-13.256656461916005 L-11.182559973423228,-13.34413912679984 L-11.202983414915712,-13.428738905805764 L-11.227080567176326,-13.510251990656085 L-11.254793378054613,-13.5884820091897 L-11.286055084961811,-13.663240498439821 L-11.320790375707777,-13.734347358657772 L-11.358915569934654,-13.801631287189062 L-11.400338820710177,-13.864930191156486 L-11.444960335794976,-13.924091577956053 L-11.492672618050833,-13.978972922625042 L-11.543360724410688,-14.029442011197105 L-11.596902542786568,-14.075377259217301 L-11.653169086248296,-14.116668004649698 L-11.712024803764304,-14.153214774471909 L-11.773327906755942,-14.184929524314308 " />
			<path d="M-11.773327906755947,-14.18492952431431 L-11.82527625659438,-14.207259127787243 L-11.878684487444428,-14.226257357944256 L-11.933466220283808,-14.241893488275227 L-11.989532854676858,-14.254142229913086 L-12.046793712071139,-14.262983772534406 L-12.105156182455087,-14.268403816399337 L-12.164525874139455,-14.270393595479076 L-12.224806766420333,-14.268949891633486 L-12.28590136487683,-14.2640750398159 L-12.347710859052253,-14.255776924296718 L-12.410135282263761,-14.244068965911909 L-12.473073673282016,-14.228970100357 L-12.536424239619347,-14.210504747561716 L-12.600084522162355,-14.188702772194766 L-12.663951560882657,-14.163599435362652 L-12.727922061357779,-14.135235337580633 " />
			<path d="M-0.2856999714897648,7.735313856179678 L-7.932567743354235,21.827347114022125 " />
			<path d="M-0.28569997148976056,7.735313856179648 L-0.1829066693037913,7.729158028827823 L-0.0794491470580454,7.720063313904648 L0.024629568704924276,7.708033493775386 L0.1292861930968332,7.693073571474683 L0.2344772008852456,7.675189768625861 L0.34015884459511714,7.65438952285344 L0.4462871727027533,7.6306814846899345 L0.5528180479146436,7.60407551397821 L0.6597071655235411,7.574582675770921 L0.766910071834177,7.542215235728704 L0.8743821826509306,7.50698665501906 L0.9820788018197772,7.468911584718046 L1.0899551398167953,7.428005859717092 L1.1979663323755068,7.3842864921374956 L1.306067459145297,7.337771664255311 L1.4142135623731695,7.288480720939603 L1.522359665601042,7.2364341616071695 L1.6304607923708332,7.181653631697141 L1.7384719849295438,7.124161913668926 L1.8463483229265627,7.063982917527313 L1.954044942095409,7.001141670878626 L2.061517052912162,6.9356643085221 L2.1687199592227984,6.867578061580775 L2.2756090768316954,6.796911246176454 L2.3821399520435858,6.723693251653418 L2.488268280151222,6.647954528355817 L2.5939499238610932,6.569726574963786 L2.6991409316495067,6.489041925393587 L2.803797556041415,6.4059341352672075 L2.9078762718043842,6.320437767957039 L3.0113337940501306,6.232588380211461 L3.1141270962360936,6.142422507367281 " />
			<path d="M10.760994868100568,13.069015125628852 L3.1141270962361016,6.142422507367314 " />
			<path d="M-7.932567743354239,21.827347114022125 L10.76099486810057,13.06901512562885 " />
			<path d="M-7.932567743354237,-11.743836812731232 L-0.2856999714897821,-4.817244194469703 " />
			<path d="M10.76099486810057,-20.502168801124505 L-7.932567743354239,-11.74383681273123 " />
			<path d="M3.114127096236105,-6.410135543282073 L10.760994868100566,-20.502168801124505 " />
			<path d="M-0.2856999714897879,-4.817244194469637 L-0.18290666930381905,-4.907410067313823 L-0.0794491470580696,-4.995259455059404 L0.02462956870489963,-5.0807558223695715 L0.12928619309680744,-5.163863612495952 L0.2344772008852245,-5.244548262066154 L0.34015884459509493,-5.322776215458185 L0.4462871727027311,-5.3985149387557865 L0.5528180479146254,-5.471732933278825 L0.6597071655235265,-5.54239974868315 L0.7669100718341615,-5.610485995624475 L0.8743821826509146,-5.675963357981 L0.9820788018197653,-5.7388046046296886 L1.0899551398167824,-5.798983600771302 L1.1979663323754939,-5.856475318799517 L1.306067459145288,-5.911255848709547 L1.4142135623731602,-5.963302408041979 L1.5223596656010314,-6.0125933513576895 L1.6304607923708265,-6.059108179239875 L1.7384719849295371,-6.102827546819472 L1.8463483229265547,-6.143733271820425 L1.9540449420954054,-6.181808342121439 L2.061517052912159,-6.217036922831083 L2.168719959222794,-6.2494043628733 L2.275609076831695,-6.27889720108059 L2.3821399520435893,-6.305503171792315 L2.488268280151226,-6.329211209955822 L2.5939499238610964,-6.350011455728241 L2.699140931649513,-6.367895258577064 L2.803797556041421,-6.382855180877766 L2.9078762718043896,-6.394885001007026 L3.0113337940501395,-6.403979715930201 L3.114127096236064,-6.410135543282025 " />
			<path d="M1.4142135623731666,-4.019707549124683 L1.2679692572172472,-3.947622575189339 L1.1219477343055175,-3.8685146042582597 L0.9763714365053353,-3.782504145990119 L0.8314621284473944,-3.6897222249940187 L0.687440558699095,-3.590310181232275 L0.5445261234857142,-3.4844194547092338 L0.40293653247170247,-3.372211354774125 L0.26288747711120886,-3.2538568143893842 L0.12459230207304706,-3.129536129738775 L-0.011738319759333038,-2.9994386855719855 L-0.145896708217794,-2.8637626667041047 L-0.27767849222050645,-2.7227147561094376 L-0.4068829211019822,-2.5765098200696293 L-0.5333131704279661,-2.4253705808556636 L-0.6567766418292624,-2.2695272774423847 L-0.7770852563977373,-2.1092173147724287 L-0.8940557411976005,-1.9446849021037984 L-1.0075099084554573,-1.7761806809920517 L-1.1172749270038476,-1.603961343473812 L-1.2231835855647746,-1.428289241033212 L-1.325074547472116,-1.249431984947023 L-1.4227925964449204,-1.0676620386172102 L-1.5161888730371818,-0.8832563025119639 L-1.6051211014038609,-0.6964956923475402 L-1.6894538060377564,-0.5076647111533993 L-1.76905851814703,-0.317051015872611 L-1.8438139713589994,-0.12494497915772385 L-1.9136062864520853,0.06836075297038424 L-1.978329144834484,0.2625717069267589 L-2.037883950505307,0.4573920301506956 L-2.092179980251471,0.652524941794738 L-2.1411345218515003,0.8476731848277478 L-2.184673000075753,1.0425394788634166 L-2.222729090291096,1.236826973024335 L-2.255244819496979,1.4302396981517642 L-2.2821706546389966,1.6224830176722582 L-2.3034655780653983,1.8132640764342423 L-2.3190971500115993,2.002292246830886 L-2.3290415580175226,2.1892795715296334 L-2.3332836532024617,2.3739412021339095 L-2.331816973342234,2.55599583310886 L-2.324643752713452,2.735166130310021 L-2.3117749186899244,2.911179153462143 L-2.2932300750963655,3.0837667719446116 L-2.269037472344779,3.2526660732500026 L-2.2392339643990047,3.4176197634936276 L-2.2038649526329794,3.5783765593639134 L-2.162984316668255,3.734691570916498 L-2.116654332296114,3.886326674628987 L-2.064945576609324,4.033050876148016 L-2.0079368204880486,4.1746406621760475 L-1.9457149086036964,4.310880340961866 L-1.8783746271235153,4.441562370876035 L-1.8060185593174416,4.566487676570845 L-1.7287569292871852,4.685465952243086 L-1.6467074340556112,4.798315951537653 L-1.559995064272187,4.9048657636504105 L-1.4687519138076341,5.004953075209672 L-1.373116978527849,5.098425417537353 L-1.273235944553607,5.185140398913172 L-1.1692609663286473,5.264965921488019 L-1.1157875082233426,5.302256719726205 L-1.0613504348341691,5.337780382516105 L-1.0059704799056797,5.371523379766845 L-0.949668736302864,5.4034728595993275 L-0.8924666479773729,5.433616653241199 L-0.834386001800083,5.461943279661629 " />
			<path d="M-0.8343860018000555,5.461943279661641 L-0.7601309046370752,5.494970597968502 L-0.6845660636711441,5.525087070389372 L-0.6077369963369095,5.552274555887392 L-0.5296899815917087,5.576516677737904 L-0.4504720320388582,5.597798833393175 L-0.3701308656090203,5.616108203278433 L-0.28871487681670094,5.631433758513886 L-0.20627310760920947,5.643766267558124 L-0.12285521782562014,5.653098301768837 L-0.038511455283542606,5.659424239877567 L0.04670737448828399,5.662740271375737 L0.13274993885334263,5.6630443988099675 L0.2195644089881985,5.660336438985265 L0.3070984911022441,5.654618023075371 L0.3952994579375242,5.645892595640201 L0.4841141805296647,5.634165412550982 L0.5734891602107715,5.619443537824297 L0.6633705608350304,5.601735839366994 L0.7537042412075878,5.581052983634492 L0.8444357876971811,5.557407429205701 L0.935510547012876,5.530813419278445 L1.0268736591251646,5.501286973089892 L1.1184700903115987,5.4688458762671575 L1.210244666307042,5.43350967011392 L1.3021421055385873,5.395299639839458 L1.3941070524251076,5.354238801737247 L1.48608411072139,5.310351889320791 L1.5780178768867603,5.263665338425098 L1.6698529734581056,5.214207271282701 L1.761534082407186,5.162007479583893 L1.8530059784621493,5.107097406531316 L1.944213562373166,5.049510127899755 L2.0351018941021586,4.989280332112535 L2.1256162259166285,4.926444299346497 L2.215702035367638,4.861039879678192 L2.3053050581320997,4.793106470284396 L2.394371320699575,4.722684991710738 L2.4828471728838917,4.64981786322268 L2.570679320140022,4.574548977253745 L2.6578148556667136,4.496923672966356 L2.744201292275573,4.4169887089412185 L2.829786594007384,4.334792235011702 L2.914519207476622,4.250383763260178 L2.9983480929252915,4.163814138193791 L3.081222754967362,4.075135506117635 L3.163093273005303,3.9844012837237663 L3.243910331300384,3.8916661259149814 L3.323625248678631,3.7969858928827565 L3.4021900078545495,3.7004176164591467 L3.4795572843549376,3.6020194657629485 L3.55568047502538,3.5018507121607976 L3.6305137261022455,3.399971693564315 L3.7040119608332818,3.2964437780847997 L3.7761309066301627,3.1913293270673786 L3.8468271217366405,3.0846916575268626 L3.916058021396239,2.9765950040079416 L3.9837819035037114,2.8671044798927032 L4.049957973724836,2.756286038178761 L4.114546370069393,2.6442064317516327 L4.177508186902541,2.530933173175305 L4.298401381293733,2.3010793037879456 L4.412346314604127,2.0672781681208594 L4.519068483508984,1.8300930135884292 L4.618310784955653,1.5900952400028894 L4.665051551875607,1.469222074266383 L4.709834135547348,1.3478630230221307 L4.752631560616999,1.226091188424695 L4.793418047515997,1.1039799212738939 L4.832169027989741,0.9816027768310261 L4.868861159896583,0.8590334705119286 L4.903472341268271,0.7363458334835656 L4.935981723623341,0.613613768190897 L4.966369724525469,0.49091120384080644 L4.994618039379191,0.36831205186991445 L5.02070965245591,0.24589016142309073 L5.044628847143537,0.12371927486949275 L5.066361215413591,0.0018729833829146392 L5.085893666500049,-0.11957531738677785 L5.103214434784745,-0.2405524715244446 L5.118313086884527,-0.3609856069160603 L5.131180527935944,-0.4808021791441507 L5.141809007073654,-0.5999300151858359 L5.150192122099248,-0.7182973568871615 L5.156324823337698,-0.8358329041875249 L5.1602034166790975,-0.9524658580681712 L5.161825565803845,-1.0681259631988693 L5.161190293589964,-1.1827435502570984 L5.158297982701683,-1.2962495778942444 L5.15315037535893,-1.4085756743235192 L5.145750572287887,-1.519654178504577 L5.136103030853227,-1.6294181808999926 L5.124213562373166,-1.7378015637790636 L5.11008932861894,-1.8447390410446594 L5.093738837500824,-1.9501661975591258 L5.075171937943283,-2.054019527945553 L5.054399813952349,-2.1562364748410445 L5.031434977878795,-2.256755466578925 L5.006291262881161,-2.35551595427722 L4.978983814593178,-2.452458448311032 L4.949529082000603,-2.5475245541468694 L4.917944807532965,-2.640657007517326 L4.884250016376194,-2.73179970891494 L4.848465005012551,-2.8208977573844343 L4.810611328994796,-2.9078974835929987 L4.77071178996192,-2.992746482158699 L4.728790421904296,-3.075393643217504 L4.684872476686504,-3.155789183209971 L4.638984408836542,-3.23388467486899 L4.591153859610619,-3.309633076390564 L4.54140964034309,-3.382988759770032 L4.489781715091586,-3.4539075382866695 L4.436301182587783,-3.5223466931201255 L4.3810002575047,-3.5882649990826323 L4.323912251051768,-3.65162274945152 L4.265071550909418,-3.7123817798870684 L4.20451360051522,-3.770505491421268 L4.142274877714084,-3.8259588725036755 L4.07839287278537,-3.878708520091064 L4.012906065860144,-3.9287226597681624 L3.9458539037421883,-3.9759711648873797 L3.8772767761467213,-4.020425574715965 L3.8072159913711436,-4.062059111579696 L3.735713751412462,-4.100846696992745 L3.6628131265464003,-4.136764966764013 " />
			<path d="M3.662813126546387,-4.136764966764019 L3.6020718718201072,-4.164040160982505 L3.5404459024825226,-4.189363588278037 L3.4779601385182937,-4.212725008496566 L3.4146398475912987,-4.234114974870114 L3.3505106348270317,-4.253524837836827 L3.2855984324585337,-4.270946748538623 L3.219929489340056,-4.28637366199508 L3.1535303603326863,-4.299799339952248 L3.0864278955662336,-4.311218353405239 L3.0186492295817122,-4.32062608479358 L2.9502217703588225,-4.328018729868441 L2.881173188232855,-4.33339329923097 L2.811531404705505,-4.336747619541137 L2.741324581154121,-4.338080334396578 L2.6705811074439643,-4.337390904881081 L2.599329590448054,-4.334679609782521 L2.455417869639419,-4.323196625501095 L2.309822172248421,-4.3036499533892485 L2.162777975350201,-4.276071206971696 L2.014523098729425,-4.2405049903312415 L1.8652973202459326,-4.197008825969019 L1.715341988033513,-4.145653061771317 L1.5648996301590246,-4.086520757233448 L1.4142135623731829,-4.01970754912469 " />
			<path d="M15.556349186104116,11.484878711783773 L15.49426433957566,11.5154808233601 L15.432274070415021,11.54906439592518 L15.370472811914944,11.585578269718258 L15.308954709437515,11.624966821084527 L15.2478134769972,11.667170047209796 L15.187142254500953,11.712123657526181 L15.12703346586293,11.759759171649577 L15.06757867820989,11.810004023699703 L15.008868462391801,11.862781672843829 L14.950992255010132,11.918011719895768 L14.894038222173991,11.97561002979251 L14.838093125191708,12.035488859761944 L14.783242188402403,12.09755699298639 L14.729568969348918,12.161719877558358 L14.677155231489877,12.227879770516825 L14.62608081964477,12.295935886744637 L14.57642353836181,12.365784552500187 L14.528259033393851,12.437319363349513 L14.481660676462932,12.5104313462582 L14.436699453488952,12.58500912559619 L14.393443856452818,12.660939092802591 L14.351959779058703,12.738105579452041 L14.31231041635444,12.816391033458984 L14.274556168462926,12.89567619815143 L14.238754548571178,12.975840293941394 L14.20496009531724,13.056761202315313 L14.173224289708386,13.138315651864087 L14.14359547669717,13.220379406069416 L14.11611879153483,13.30282745256033 L14.090836091014198,13.385534193551623 L14.067785889706865,13.468373637174095 L14.047003301291758,13.551219589405088 L14.02851998506448,13.633945846307023 L14.012364097708911,13.716426386280999 L13.998560250404527,13.798535562042643 L13.987129471334802,13.880148292027759 L13.978089173653782,13.961140250936147 L13.97145312895964,14.041388059123403 L13.967231446315616,14.120769470552116 L13.965430556850311,14.199163559016196 L13.966053203960787,14.276450902354618 L13.969098439133383,14.352513764373978 L13.974561623388654,14.42723627420271 L13.982434434348184,14.500504602803758 L13.992704878912535,14.5722071363768 L14.005357311531025,14.642234646385887 L14.02037245803547,14.710480455953462 L14.037727445001627,14.776840602367294 L14.057395834593573,14.841213995452785 L14.079347664837965,14.903502571569353 L14.103549495266808,14.963611442996347 L14.129964457859222,15.021449042480894 L14.158552313204583,15.076927262727475 L14.1892695118015,15.129961590616782 L14.22206926039925,15.180471235949335 L14.25690159328058,15.228379254517783 L14.293713448377316,15.27361266532037 L14.332448748102834,15.316102561737036 L14.373048484778213,15.355784216498789 L14.415450810521996,15.39259718029041 L14.459591131466555,15.426485373836336 L14.505402206157607,15.457397173329392 L14.552814247986934,15.485285489072268 L14.601755031502265,15.510107837211924 " />
			<path d="M14.601755031502277,15.51010783721193 L14.665357835424928,15.53691416346427 L14.731107115552991,15.558747487338646 L14.798844476111679,15.575555210445474 L14.868406731866315,15.587296841507607 L14.939626301249852,15.593944093907371 L15.01233161008155,15.595480953831503 L15.086347504904197,15.591903718849835 L15.16149567494414,15.583221006834764 L15.237595081677549,15.569453735200051 L15.314462394968086,15.550635070508935 L15.391912434725247,15.52681034857298 L15.46975861701944,15.498036965234125 L15.547813403578997,15.464384238093084 L15.625888753586302,15.425933239517171 L15.703796576684596,15.382776601329867 L15.781349186104116,15.33501829165264 L15.858359750815964,15.282773364436633 L15.93464274562442,15.226167682287628 L16.010014398113388,15.165337613251994 L16.084293131370245,15.10042970229412 L16.15730000142053,15.031600318256768 L16.22885912831964,14.959015277154824 L16.298798119863044,14.882849442710002 L16.366948486894174,14.803286305088818 L16.433146049209586,14.720517538858712 L16.49723133108344,14.634742541227217 L16.5590499454585,14.54616795167663 L16.618452965878063,14.455007154151398 L16.675297285262843,14.361479762997499 L16.729445960668475,14.265811093892259 L16.780768543193037,14.168231621039135 L16.8291413922399,14.068976421935183 L16.874447973378757,13.968284611048775 L16.916579139087247,13.866398763771894 L16.95543339169693,13.763564332034779 L16.990917127910034,13.660029052990717 L17.02294486429802,13.556042352195544 L17.051439443238625,13.451854742719632 L17.076332218795354,13.347717221639972 L17.097563222091537,13.243880665366207 L17.115081305780624,13.140595225257412 L17.1288442672646,13.038109724985548 L17.138818950363756,12.936671061097435 L17.144981325192834,12.836523608219359 L17.1473165460511,12.737908630337184 L17.145818987186978,12.64106369957028 L17.14049225635093,12.54622212383948 L17.131349186104117,12.453612384807858 L17.118411802903594,12.363457587448398 L17.101711274038674,12.275974922564563 L17.081287832546188,12.19137514355864 L17.057190680285576,12.109862058708318 L17.029477869407287,12.031632040174703 L16.998216162500093,11.956873550924582 L16.963480871754125,11.885766690706632 L16.925355677527246,11.818482762175341 L16.883932426751727,11.755183858207918 L16.839310911666924,11.69602247140835 L16.79159862941107,11.641141126739361 L16.740910523051216,11.590672038167298 L16.687368704675336,11.544736790147102 L16.631102161213608,11.503446044714705 L16.572246443697598,11.466899274892494 L16.51094334070596,11.435184525050095 " />
			<path d="M16.510943340705957,11.435184525050094 L16.458994990867524,11.41285492157716 L16.405586760017474,11.393856691420147 L16.350805027178094,11.378220561089176 L16.294738392785046,11.365971819451318 L16.237477535390763,11.357130276829997 L16.179115065006815,11.351710232965067 L16.119745373322445,11.349720453885327 L16.05946448104157,11.351164157730917 L15.998369882585072,11.356039009548503 L15.93656038840965,11.364337125067685 L15.87413596519814,11.376045083452494 L15.811197574179886,11.391143949007404 L15.747847007842555,11.409609301802687 L15.684186725299547,11.431411277169637 L15.620319686579245,11.456514614001751 L15.556349186104123,11.48487871178377 " />
			<path d="M6.2534269576556625,1.1059481070823454 L13.435028842544465,7.611099247028797 " />
			<path d="M6.253426957655755,1.1059481070822343 L6.308891200933868,0.9197773909589347 L6.360959341215391,0.733428228409046 L6.409595251756079,0.547029915168893 L6.454765187215838,0.36071178107731094 L6.496437807072475,0.17460310034196758 L6.534584197366868,-0.011166998155725527 L6.569177890764502,-0.19646962045486538 L6.600194884919466,-0.381176196946308 L6.627613659128135,-0.5651585715788868 L6.6514151892610105,-0.7482890907786616 L6.671582960962342,-0.9304406920195741 L6.688102981108377,-1.1114869919839738 L6.700963787516306,-1.2913023742518894 L6.710156456897112,-1.4697620764582338 L6.715674611046893,-1.6467422768573918 L6.717514421272272,-1.8221201802351912 L6.715674611046895,-1.9957741031086385 L6.710156456897115,-2.1675835581542824 L6.70096378751631,-2.337429337806635 L6.688102981108386,-2.5051935969686703 L6.671582960962349,-2.670759934776977 L6.651415189261021,-2.8340134753648467 L6.627613659128148,-2.994840947567287 L6.60019488491948,-3.1531307635126122 L6.56917789076452,-3.3087730960461137 L6.534584197366886,-3.4616599549320757 L6.496437807072496,-3.6116852617812922 L6.454765187215859,-3.7587449236520474 L6.409595251756102,-3.9027369052735352 L6.360959341215418,-4.043561299841589 L6.308891200933896,-4.181120398337622 L6.253426957655794,-4.315318757322617 " />
			<path d="M13.435028842544465,-17.549936593765523 L6.253426957655618,-4.3153187573226575 " />
			<path d="M13.435028842544474,7.611099247028786 L13.435028842544474,-17.549936593765516 " />
			<path d="M15.556349186104116,-27.387018466562214 L15.49426433957566,-27.35641635498589 L15.432274070415021,-27.32283278242081 L15.370472811914944,-27.28631890862773 L15.308954709437515,-27.246930357261462 L15.2478134769972,-27.204727131136192 L15.187142254500953,-27.159773520819808 L15.12703346586293,-27.112138006696412 L15.06757867820989,-27.061893154646288 L15.008868462391801,-27.00911550550216 L14.950992255010132,-26.953885458450223 L14.894038222173991,-26.89628714855348 L14.838093125191708,-26.836408318584045 L14.783242188402403,-26.7743401853596 L14.729568969348918,-26.71017730078763 L14.677155231489877,-26.644017407829164 L14.62608081964477,-26.575961291601352 L14.57642353836181,-26.5061126258458 L14.528259033393851,-26.434577814996477 L14.481660676462932,-26.361465832087788 L14.436699453488952,-26.2868880527498 L14.393443856452818,-26.210958085543396 L14.351959779058703,-26.13379159889395 L14.31231041635444,-26.055506144887005 L14.274556168462926,-25.97622098019456 L14.238754548571178,-25.896056884404594 L14.20496009531724,-25.815135976030675 L14.173224289708386,-25.733581526481903 L14.14359547669717,-25.651517772276573 L14.11611879153483,-25.56906972578566 L14.090836091014198,-25.486362984794365 L14.067785889706865,-25.403523541171896 L14.047003301291758,-25.3206775889409 L14.02851998506448,-25.237951332038964 L14.012364097708911,-25.155470792064992 L13.998560250404527,-25.073361616303348 L13.987129471334802,-24.99174888631823 L13.978089173653782,-24.910756927409842 L13.97145312895964,-24.830509119222587 L13.967231446315616,-24.751127707793874 L13.965430556850311,-24.672733619329794 L13.966053203960787,-24.59544627599137 L13.969098439133383,-24.51938341397201 L13.974561623388654,-24.44466090414328 L13.982434434348184,-24.37139257554223 L13.992704878912535,-24.29969004196919 L14.005357311531025,-24.229662531960102 L14.02037245803547,-24.161416722392527 L14.037727445001627,-24.095056575978695 L14.057395834593573,-24.030683182893206 L14.079347664837965,-23.968394606776634 L14.103549495266808,-23.90828573534964 L14.129964457859222,-23.850448135865097 L14.158552313204583,-23.794969915618513 L14.1892695118015,-23.74193558772921 L14.22206926039925,-23.691425942396652 L14.25690159328058,-23.643517923828206 L14.293713448377316,-23.598284513025618 L14.332448748102834,-23.555794616608953 L14.373048484778213,-23.5161129618472 L14.415450810521996,-23.47929999805558 L14.459591131466555,-23.445411804509654 L14.505402206157607,-23.4145000050166 L14.552814247986934,-23.38661168927372 L14.601755031502265,-23.361789341134063 " />
			<path d="M14.601755031502277,-23.36178934113406 L14.665357835424928,-23.334983014881722 L14.731107115552991,-23.313149691007343 L14.798844476111679,-23.296341967900517 L14.868406731866315,-23.28460033683838 L14.939626301249852,-23.277953084438618 L15.01233161008155,-23.276416224514485 L15.086347504904197,-23.279993459496154 L15.16149567494414,-23.288676171511227 L15.237595081677549,-23.302443443145936 L15.314462394968086,-23.321262107837054 L15.391912434725247,-23.34508682977301 L15.46975861701944,-23.373860213111865 L15.547813403578997,-23.407512940252907 L15.625888753586302,-23.445963938828818 L15.703796576684596,-23.489120577016124 L15.781349186104116,-23.53687888669335 L15.858359750815964,-23.589123813909357 L15.93464274562442,-23.64572949605836 L16.010014398113388,-23.706559565093997 L16.084293131370245,-23.771467476051868 L16.15730000142053,-23.84029686008922 L16.22885912831964,-23.912881901191167 L16.298798119863044,-23.98904773563599 L16.366948486894174,-24.06861087325717 L16.433146049209586,-24.151379639487278 L16.49723133108344,-24.237154637118774 L16.5590499454585,-24.32572922666936 L16.618452965878063,-24.416890024194593 L16.675297285262843,-24.51041741534849 L16.729445960668475,-24.60608608445373 L16.780768543193037,-24.703665557306856 L16.8291413922399,-24.802920756410806 L16.874447973378757,-24.903612567297216 L16.916579139087247,-25.005498414574095 L16.95543339169693,-25.10833284631121 L16.990917127910034,-25.211868125355274 L17.02294486429802,-25.315854826150446 L17.051439443238625,-25.420042435626357 L17.076332218795354,-25.524179956706018 L17.097563222091537,-25.628016512979784 L17.115081305780624,-25.731301953088575 L17.1288442672646,-25.833787453360443 L17.138818950363756,-25.935226117248554 L17.144981325192834,-26.03537357012663 L17.1473165460511,-26.133988548008805 L17.145818987186978,-26.230833478775708 L17.14049225635093,-26.32567505450651 L17.131349186104117,-26.41828479353813 L17.118411802903594,-26.50843959089759 L17.101711274038674,-26.595922255781424 L17.081287832546188,-26.680522034787348 L17.057190680285576,-26.762035119637673 L17.029477869407287,-26.840265138171286 L16.998216162500093,-26.915023627421405 L16.963480871754125,-26.986130487639358 L16.925355677527246,-27.053414416170646 L16.883932426751727,-27.11671332013807 L16.839310911666924,-27.17587470693764 L16.79159862941107,-27.230756051606626 L16.740910523051216,-27.28122514017869 L16.687368704675336,-27.327160388198887 L16.631102161213608,-27.368451133631286 L16.572246443697598,-27.404997903453495 L16.51094334070596,-27.436712653295892 " />
			<path d="M16.510943340705957,-27.436712653295896 L16.458994990867524,-27.45904225676883 L16.405586760017474,-27.478040486925842 L16.350805027178094,-27.493676617256813 L16.294738392785046,-27.50592535889467 L16.237477535390763,-27.514766901515994 L16.179115065006815,-27.52018694538092 L16.119745373322445,-27.52217672446066 L16.05946448104157,-27.520733020615072 L15.998369882585072,-27.515858168797486 L15.93656038840965,-27.507560053278304 L15.87413596519814,-27.495852094893493 L15.811197574179886,-27.480753229338585 L15.747847007842555,-27.4622878765433 L15.684186725299547,-27.440485901176352 L15.620319686579245,-27.415382564344238 L15.556349186104123,-27.387018466562218 " />
			<path d="M-10.606601717798144,12.337568563032246 L-6.253426957655476,4.3153187573221174 " />
			<path d="M-6.253426957655517,-1.1059481070828776 L-10.606601717798144,-5.049087842092904 " />
			<path d="M-6.253426957655613,-1.1059481070827784 L-6.308891200933725,-0.9197773909594772 L-6.36095934121525,-0.7334282284095871 L-6.4095952517559365,-0.5470299151694319 L-6.4547651872156955,-0.36071178107785495 L-6.496437807072332,-0.17460310034251647 L-6.534584197366726,0.01116699815517841 L-6.569177890764359,0.1964696204543196 L-6.600194884919324,0.3811761969457649 L-6.627613659127993,0.5651585715783424 L-6.651415189260868,0.7482890907781209 L-6.6715829609621995,0.9304406920190366 L-6.688102981108237,1.1114869919834298 L-6.700963787516164,1.2913023742513428 L-6.7101564568969705,1.4697620764576897 L-6.715674611046751,1.6467422768568487 L-6.717514421272131,1.8221201802346498 L-6.715674611046754,1.9957741031081007 L-6.710156456896975,2.1675835581537455 L-6.700963787516171,2.337429337806101 L-6.688102981108246,2.5051935969681325 L-6.67158296096221,2.670759934776434 L-6.651415189260882,2.8340134753643063 L-6.6276136591280075,2.99484094756675 L-6.60019488491934,3.1531307635120753 L-6.5691778907643785,3.308773096045577 L-6.534584197366746,3.4616599549315406 L-6.496437807072354,3.611685261780759 L-6.454765187215719,3.7587449236515096 L-6.409595251755963,3.902736905272992 L-6.3609593412152785,4.04356129984105 L-6.308891200933756,4.181120398337086 L-6.2534269576556625,4.315318757322057 " />
			<path d="M7.932567743354378,11.743836812730695 L2.3867934116269716,6.720431060898087 " />
			<path d="M-6.004094703754566,18.273459820340705 L7.9325677433543795,11.743836812730693 " />
			<path d="M-17.677669529663618,21.802582397832122 L-17.677669529663618,-7.840638351314372 " />
			<path d="M-17.677669529663714,21.802582397832133 L-17.789997543117533,21.939149334165403 L-17.90019971202622,22.0790093753524 L-18.00817115296939,22.22202941149482 L-18.11380910559174,22.368073325211995 L-18.217013030403873,22.51700212118878 L-18.317684704469343,22.668674058462436 L-18.415728314887026,22.822944785322676 L-18.511050549979768,22.979667476696463 L-18.603560688102473,23.138692973886766 L-18.69317068398522,23.29986992653233 L-18.779795252529155,23.46304493665335 L-18.863351949975428,23.62806270464589 L-18.943761252369903,23.79476617708619 L-19.02094663124904,23.96299669620414 L-19.09483462647479,24.13259415088365 L-19.165354916149294,24.30339712904624 L-19.232440383542812,24.475243071272793 L-19.29602718097114,24.6479684255173 L-19.356054790561792,24.82140880276526 L-19.412466081851054,24.99539913348873 L-19.465207366157134,25.169773824749004 L-19.51422844767764,25.34436691779746 L-19.55948267126275,25.519012246024506 L-19.60092696681862,25.69354359310644 L-19.638521890298758,25.867794851199573 L-19.67223166124437,26.04160017903112 L-19.702024196837918,26.214794159736364 L-19.727871142437508,26.387211958291925 L-19.749747898563037,26.558689478395287 L-19.76763364430842,26.729063518641176 L-19.781511357157598,26.89817192784633 L-19.79136782918549,27.065853759374672 L-19.79719367962845,27.231949424316092 L-19.798983363812297,27.396300843373012 L-19.796735178429365,27.558751597310255 L-19.79045126315962,27.71914707582489 L-19.780137598634237,27.87733462469451 L-19.765804000743618,28.033163691063823 L-19.74746411129525,28.186485966731286 L-19.725135385030313,28.337155529299416 L-19.698839073011346,28.485028981054477 L-19.668600202396846,28.629965585443284 L-19.63444755262201,28.77182740101733 L-19.5964136280083,28.910479412716672 L-19.554534626827895,29.0457896603687 L-19.508850406852464,29.177629364279447 L-19.459404447419086,29.305873047797885 L-19.406243808049382,29.430398656736656 L-19.349419083661246,29.551087675535488 L-19.288984356415803,29.667825240056764 L-19.224997144245485,29.78050024690591 L-19.15751834611208,29.889005459172537 L-19.08661218404699,29.993237608491746 L-19.01234614202878,30.093097493328354 L-18.934790901756212,30.18849007339064 L-18.8540202753779,30.27932456008364 L-18.77011113524259,30.365514502915975 L-18.683143340736972,30.44697787177791 L-18.59319966228055,30.52363713501243 L-18.500365702550045,30.59541933320492 L-18.40472981500821,30.662256148621307 L-18.306383019814593,30.724083970228538 L-18.20541891719836,30.780843954235518 L-18.101933598375577,30.832482080096874 " />
			<path d="M15.273506473629498,-32.15766039299559 L15.182965877865385,-32.197768729275644 L15.090712088436462,-32.23405762642584 L14.996809482445299,-32.266501761106404 L14.901323587581711,-32.29507849295321 L14.804321036395827,-32.31976788037675 L14.70586951980014,-32.34055269447798 L14.606037739833042,-32.357418431071004 L14.50489536171673,-32.37035332080455 L14.402512965243009,-32.37934833737489 L14.298961995520855,-32.38439720382466 L14.194314713120173,-32.38549639692303 L14.088644143646471,-32.382645149624366 L13.982024026781689,-32.375845451603475 L13.874528764826728,-32.365102047867126 L13.766233370781574,-32.35042243544292 L13.657213415999275,-32.331816858147626 L13.547544977450276,-32.30929829943877 L13.437304584633928,-32.28288247335449 L13.326569166174195,-32.252587813547805 L13.215415996136855,-32.21843546042318 L13.103922640105653,-32.1804492463842 L12.992166901054992,-32.13865567920264 L12.880226765057001,-32.09308392352074 L12.768180346860806,-32.04376578049924 L12.656105835382036,-31.99073566562585 L12.544081439140534,-31.934030584699066 L12.432185331684432,-31.87369010800467 L12.320495597038589,-31.809756342702507 L12.209090175215538,-31.742273903443014 L12.0980468078269,-31.671289881233953 L11.987442983833258,-31.596853810579084 L11.877355885470346,-31.51901763491169 L11.767862334389251,-31.43783567034708 L11.659038738048281,-31.35336456777941 L11.550961036393836,-31.265663273349197 L11.443704648867532,-31.17479298730916 L11.337344421776548,-31.080817121317097 L11.231954576063911,-30.983801254185565 L11.12760865551519,-30.883813086119275 L11.024379475437728,-30.780922391472124 L10.922339071848212,-30.675200970056828 L10.821558651204061,-30.56672259704115 L10.722108540713709,-30.455562971465632 L10.624058139260423,-30.341799663418854 L10.527475868973976,-30.225512059907 L10.432429127483886,-30.106781309455528 L10.338984240887584,-29.985690265481598 L10.247206417466344,-29.862323428476813 L10.15715970218124,-29.736766887040567 L10.06890693198089,-29.60910825780516 L9.982509691952213,-29.479436624294653 L9.898028272344717,-29.34784247476001 L9.815521626498423,-29.21441763903409 L9.735047329704663,-29.07925522445036 L9.656661539028542,-28.942449550870162 L9.580418954121082,-28.804096084863883 L9.506372779048364,-28.664291373091853 L9.434574685164353,-28.523132974931595 L9.365074775053273,-28.38071939439833 L9.297921547566716,-28.2371500114063 L9.233161863979873,-28.09252501241888 L9.170840915290526,-27.94694532053584 L9.111002190683578,-27.800512525066583 L9.053687447183183,-27.653328810638502 " />
			<path d="M-11.313708498984688,-18.110770276275105 L9.05368744718318,-27.65332881063845 " />
			<path d="M-13.010764773832406,-18.905877264014002 L-13.094827147979178,-18.943266680965166 L-13.180372250959476,-18.977360800686903 L-13.267348553602005,-19.008139086156362 L-13.355703664634309,-19.03558299768524 L-13.445384362241308,-19.059676004087436 L-13.536336626124145,-19.080403592636785 L-13.628505670039978,-19.097753277808994 L-13.721835974803174,-19.111714608802473 L-13.816271321727992,-19.12227917583347 L-13.911754826492608,-19.12944061520184 L-14.00822897340411,-19.133194613124296 L-14.1056356500438,-19.13353890833286 L-14.20391618227194,-19.13047329343697 L-14.30301136957086,-19.12399961504841 L-14.40286152070514,-19.114121772668973 L-14.503406489677372,-19.100845716341556 L-14.60458571195787,-19.084179443066063 L-14.706338240966465,-19.064132991982323 L-14.808602784784455,-19.040718438322887 L-14.911317743074559,-19.01394988613935 L-15.014421244186666,-18.983843459806607 L-15.117851182426994,-18.95041729431013 L-15.22154525546824,-18.913691524322132 L-15.325441001878177,-18.87368827207318 L-15.429475838744079,-18.830431634026624 L-15.533587099370326,-18.78394766636374 L-15.637712071026495,-18.73426436928851 L-15.741788032723141,-18.68141167016131 L-15.845752292992588,-18.625421405471805 L-15.949542227651925,-18.566327301661833 L-16.053095317525468,-18.50416495480986 L-16.156349186103977,-18.438971809189223 L-16.25924163711793,-18.370787134713126 L-16.361710692002237,-18.299652003279874 L-16.463694627229795,-18.225609264032734 L-16.56513201149145,-18.148703517549194 L-16.665961742699913,-18.068981088975242 L-16.766123084795368,-17.986490000120835 L-16.865555704330607,-17.90127994053336 L-16.964199706813652,-17.813402237566507 L-17.061995672785947,-17.72290982546258 L-17.15888469361441,-17.6298572134669 L-17.254808406975812,-17.534300452993477 L-17.349709032012044,-17.436297103861715 L-17.44352940413514,-17.33590619962456 L-17.53621300946111,-17.23318821200886 L-17.62770401885177,-17.12820501448948 L-17.717947321544123,-17.021019845019037 L-17.80688855834705,-16.911697267935708 L-17.894474154385225,-16.800303135072085 L-17.980651351370632,-16.68690454608852 L-18.065368239382178,-16.571569808054768 L-18.148573788134293,-16.45436839430437 L-18.230217877715667,-16.335370902586536 L-18.310251328779607,-16.214649012540665 L-18.388625932167834,-16.092275442519245 L-18.465294477949875,-15.968323905785017 L-18.540210783860584,-15.84286906610885 L-18.613329723118575,-15.71598649279512 L-18.68460725160893,-15.587752615161541 L-18.75400043441373,-15.458244676501026 L-18.82146747167443,-15.327540687553212 L-18.88696772377054,-15.1957193795137 L-18.950461735799404,-15.062860156609341 L-19.011911261342377,-14.929043048268085 L-19.071279285503014,-14.794348660912252 L-19.128530047203476,-14.658858129404237 L-19.183629060725657,-14.522653068173906 L-19.236543136484098,-14.385815522057106 L-19.287240401018146,-14.248427916874933 L-19.335690316191336,-14.110573009783492 L-19.38186369758643,-13.972333839424095 L-19.425732732085006,-13.83379367590387 L-19.467270994621053,-13.695035970636962 L-19.506453464098435,-13.55614430607655 L-19.543256538462668,-13.417202345367869 L-19.577658048917904,-13.278293781952673 L-19.609637273280608,-13.139502289155438 L-19.6391749484618,-13.000911469781675 L-19.666253282070436,-12.862604805758735 L-19.690855963130872,-12.724665607849401 L-19.712968171907995,-12.587176965468618 L-19.732576588834064,-12.450221696633525 L-19.74966940253193,-12.313882298076978 L-19.76423631692976,-12.178240895554612 L-19.77626855746302,-12.043379194375346 L-19.785758876359917,-11.909378430185166 L-19.79270155700722,-11.776319320033812 L-19.79709241739371,-11.644282013753834 L-19.798928812629274,-11.513346045681347 L-19.79820963653809,-11.383590286747502 L-19.79493532232494,-11.255092896969604 L-19.789107842314277,-11.127931278370426 L-19.78073070676215,-11.002182028354135 L-19.76980896174178,-10.877920893566866 L-19.756349186103975,-10.755222724269805 L-19.740359487514286,-10.63416142925215 L-19.72184949756925,-10.51480993131124 L-19.700830365994676,-10.397240123326606 L-19.677314753929465,-10.281522824954353 L-19.65131682629903,-10.167727739968074 L-19.62285224328284,-10.055923414271891 L-19.591938150881347,-9.946177194610973 L-19.558593170587866,-9.838555188004365 L-19.522837388171673,-9.733122221924601 L-19.484692341579102,-9.629941805248057 L-19.444181007959884,-9.529076089999574 L-19.401327789826574,-9.430585833914407 L-19.356158500355395,-9.33453036384003 L-19.30870034783733,-9.240967539999872 L-19.25898191928889,-9.149953721140475 L-19.207033163232328,-9.061543730583097 L-19.152885371655813,-8.975790823200184 L-19.09657116116427,-8.892746653336637 L-19.03812445333238,-8.812461243695159 L-18.97758045427147,-8.734982955204455 L-18.914975633422696,-8.660358457888409 L-18.85034770158919,-8.588632702753817 L-18.783735588220488,-8.519848894713572 L-18.715179417962904,-8.45404846656165 L-18.644720486489923,-8.391271054015526 L-18.572401235627225,-8.331554471841123 L-18.498265227787346,-8.274934691074595 L-18.422357119729284,-8.22144581735473 L-18.344722635658947,-8.171120070378972 L-18.265408539686593,-8.123987764495503 L-18.184462607657895,-8.080077290442993 L-18.101933598375577,-8.039415098249114 " />
			<path d="M1.9827253970143204,-4.231879015281718 L2.0341869102412398,-4.111708749191461 L2.0817239013242586,-3.987613142548068 L2.1252822698259024,-3.859733424875227 L2.164812443260871,-3.7282151322809813 L2.2002694335130126,-3.593207941827412 L2.231612888034964,-3.454865501187615 L2.258807135772184,-3.31334525378385 L2.2818212277591226,-3.1688082596058598 L2.3006289723413165,-3.021419011913278 L2.315208964983338,-2.871345250030738 L2.325544612628656,-2.7187577684487323 L2.3316241525837045,-2.563830222447468 L2.333440665904651,-2.4067389304649627 L2.3309920852716446,-2.2476626734342586 L2.324281197341569,-2.0867824913181585 L2.3133156395766314,-1.9242814770730157 L2.2981078915523963,-1.7603445682760868 L2.2786752607551453,-1.5951583366535629 L2.2550398628847486,-1.4289107757488342 L2.2272285966854355,-1.2617910869726174 L2.1952731133331427,-1.0939894642784553 L2.1592097804142414,-0.9256968777086274 L2.119079640536673,-0.7571048560568114 L2.074928364620576,-0.588405268894862 L2.026806199921565,-0.41979010821174323 L1.9747679128458278,-0.2514512699131526 L1.918872726622098,-0.08358033543048904 L1.859184253901462,0.0836316463122816 L1.7957704243616912,0.24999437632573374 L1.7287034073984908,0.4153185221286071 L1.6580595299916556,0.5794159332214806 L1.5839191898396008,0.7420998552152682 L1.5063667638611316,0.903185142370839 L1.425490512168576,1.0624884683078826 L1.3413824776215733,1.2198285346432232 L1.254138381075831,1.3750262773211153 L1.1638575124460617,1.5279050704007322 L1.0706426177070787,1.678290927068901 L0.9745997819616576,1.8260126976493274 L0.8758383087082269,1.9709022643829555 L0.77447059544581,2.1127947327577994 L0.6706120057577643,2.251528619170486 L0.5643807380199182,2.3869460347059483 L0.45589769088250653,2.518892864826112 L0.34528632567901063,2.6472189447630674 L0.23267252591848409,2.7717782304171354 L0.11818445402126554,2.8924289645653216 L0.001952405461135731,3.0090338381909953 L-0.1158913395200849,3.121460146751205 L-0.23521266645675398,3.2295799412037756 L-0.35587577929110004,3.333270173622317 L-0.4777433549186805,3.43241283723341 L-0.600676699471719,3.526895100716609 L-0.7245359061624894,3.616609436614419 L-0.8491800145070698,3.7014537437060993 L-0.9744671707482759,3.781331463206029 L-1.1002547892952177,3.856151688654397 L-1.2263997149957233,3.92582926937514 L-1.3527583860569574,3.990284907383396 L-1.4791869974288423,4.049445247632186 L-1.6055416644643121,4.103242961495621 L-1.7316785866701485,4.151616823393602 L-1.85745421136206,4.194511780470837 L-1.9827253970377072,4.231879015250857 " />
			<path d="M0.2856999714899149,-7.735313856180232 L6.0040947037547046,-18.27345982034124 " />
			<path d="M0.2856999714899193,-7.735313856180185 L0.12450768585480598,-7.724378267875712 L-0.03825233162231312,-7.706247749583588 L-0.20241425229489085,-7.680940773649522 L-0.36781081918212055,-7.64848312417966 L-0.5342735173793263,-7.608907870770364 L-0.70163274575,-7.562255334815124 L-0.8697179897245442,-7.5085730484229645 L-1.0383579950296773,-7.447915705990175 L-1.2073809421714805,-7.380345108474722 L-1.376614621494325,-7.305930100430112 L-1.5458866086373222,-7.224746499862869 L-1.7150244402095152,-7.136877020985073 L-1.8838557895048522,-7.04241118994068 L-2.0522086420778805,-6.941445253591479 L-2.219911471001305,-6.83408208145562 L-2.38679341162681,-6.720431060898639 " />
			<path d="M10.606601717798284,5.049087842092369 L10.606601717798284,-12.337568563032775 " />
			<path d="M3.114127096236059,-6.410135543282037 L0.2856999714898687,-7.735313856180195 " />
			<path d="M7.932567743354391,11.743836812730684 L10.760994868100582,13.069015125628844 " />
			<path d="M-3.4249998329093834,5.640497070220499 L-6.253426957655574,4.3153187573223395 " />
			<path d="M-3.424999832909364,0.2192302058151725 L-6.253426957655554,-1.1059481070829862 " />
			<path d="M-14.849242404917428,23.127760710730183 L-17.677669529663618,21.802582397832023 " />
			<path d="M11.88211457192935,-26.328150497740282 L9.05368744718316,-27.653328810638442 " />
			<path d="M-15.273506473629359,-6.714236785350938 L-18.10193359837555,-8.039415098249096 " />
			<path d="M-10.182337649086215,-17.580698951115842 L-13.010764773832404,-18.905877264014002 " />
			<path d="M18.10193359837569,-30.832482080097428 L15.273506473629501,-32.15766039299559 " />
			<path d="M13.010764773832545,18.905877264013462 L11.313708498984834,18.110770276274568 " />
			<path d="M18.10193359837569,8.039415098248561 L17.67766952966376,7.840638351313836 " />
			<path d="M-15.273506473629359,32.15766039299505 L-18.10193359837555,30.832482080096888 " />

       </g>
    </g>

</svg>
