%TF.GenerationSoftware,KiCad,Pcbnew,10.0.5*%
%TF.CreationDate,2026-08-09T11:18:47-04:00*%
%TF.ProjectId,hr-v0-dxl-star,68722d76-302d-4647-986c-2d737461722e,rev?*%
%TF.SameCoordinates,Original*%
%TF.FileFunction,Copper,L2,Bot*%
%TF.FilePolarity,Positive*%
%FSLAX46Y46*%
G04 Gerber Fmt 4.6, Leading zero omitted, Abs format (unit mm)*
G04 Created by KiCad (PCBNEW 10.0.5) date 2026-08-09 11:18:47*
%MOMM*%
%LPD*%
G01*
G04 APERTURE LIST*
G04 Aperture macros list*
%AMRoundRect*
0 Rectangle with rounded corners*
0 $1 Rounding radius*
0 $2 $3 $4 $5 $6 $7 $8 $9 X,Y pos of 4 corners*
0 Add a 4 corners polygon primitive as box body*
4,1,4,$2,$3,$4,$5,$6,$7,$8,$9,$2,$3,0*
0 Add four circle primitives for the rounded corners*
1,1,$1+$1,$2,$3*
1,1,$1+$1,$4,$5*
1,1,$1+$1,$6,$7*
1,1,$1+$1,$8,$9*
0 Add four rect primitives between the rounded corners*
20,1,$1+$1,$2,$3,$4,$5,0*
20,1,$1+$1,$4,$5,$6,$7,0*
20,1,$1+$1,$6,$7,$8,$9,0*
20,1,$1+$1,$8,$9,$2,$3,0*%
G04 Aperture macros list end*
%TA.AperFunction,ComponentPad*%
%ADD10RoundRect,0.250000X0.600000X0.725000X-0.600000X0.725000X-0.600000X-0.725000X0.600000X-0.725000X0*%
%TD*%
%TA.AperFunction,ComponentPad*%
%ADD11O,1.700000X1.950000*%
%TD*%
%TA.AperFunction,ComponentPad*%
%ADD12RoundRect,0.250001X-1.099999X-1.099999X1.099999X-1.099999X1.099999X1.099999X-1.099999X1.099999X0*%
%TD*%
%TA.AperFunction,ComponentPad*%
%ADD13C,2.700000*%
%TD*%
%TA.AperFunction,ComponentPad*%
%ADD14RoundRect,0.250000X-0.725000X0.600000X-0.725000X-0.600000X0.725000X-0.600000X0.725000X0.600000X0*%
%TD*%
%TA.AperFunction,ComponentPad*%
%ADD15O,1.950000X1.700000*%
%TD*%
%TA.AperFunction,Conductor*%
%ADD16C,0.250000*%
%TD*%
G04 APERTURE END LIST*
D10*
%TO.P,JA3,1*%
%TO.N,ACT_0V_PE_BONDED*%
X100000000Y-70000000D03*
D11*
%TO.P,JA3,2*%
%TO.N,J3_VDD*%
X97500000Y-70000000D03*
%TO.P,JA3,3*%
%TO.N,DXL_TTL_DATA*%
X95000000Y-70000000D03*
%TD*%
D12*
%TO.P,JP3,1*%
%TO.N,J3_VDD*%
X100000000Y-30000000D03*
D13*
%TO.P,JP3,2*%
%TO.N,ACT_0V_PE_BONDED*%
X103960000Y-30000000D03*
%TD*%
D12*
%TO.P,JP2,1*%
%TO.N,J2_VDD*%
X75000000Y-30000000D03*
D13*
%TO.P,JP2,2*%
%TO.N,ACT_0V_PE_BONDED*%
X78960000Y-30000000D03*
%TD*%
D14*
%TO.P,JC1,1*%
%TO.N,ACT_0V_PE_BONDED*%
X30000000Y-50000000D03*
D15*
%TO.P,JC1,2*%
%TO.N,N/C*%
X30000000Y-52500000D03*
%TO.P,JC1,3*%
%TO.N,DXL_TTL_DATA*%
X30000000Y-55000000D03*
%TD*%
D12*
%TO.P,JP1,1*%
%TO.N,J1_VDD*%
X50000000Y-30000000D03*
D13*
%TO.P,JP1,2*%
%TO.N,ACT_0V_PE_BONDED*%
X53960000Y-30000000D03*
%TD*%
D10*
%TO.P,JA2,1*%
%TO.N,ACT_0V_PE_BONDED*%
X75000000Y-70000000D03*
D11*
%TO.P,JA2,2*%
%TO.N,J2_VDD*%
X72500000Y-70000000D03*
%TO.P,JA2,3*%
%TO.N,DXL_TTL_DATA*%
X70000000Y-70000000D03*
%TD*%
D10*
%TO.P,JA1,1*%
%TO.N,ACT_0V_PE_BONDED*%
X50000000Y-70000000D03*
D11*
%TO.P,JA1,2*%
%TO.N,J1_VDD*%
X47500000Y-70000000D03*
%TO.P,JA1,3*%
%TO.N,DXL_TTL_DATA*%
X45000000Y-70000000D03*
%TD*%
%TO.N,DXL_TTL_DATA*%
D16*
X95000000Y-62000000D02*
X95000000Y-70000000D01*
X38000000Y-55000000D02*
X38000000Y-62000000D01*
X30000000Y-55000000D02*
X38000000Y-55000000D01*
X38000000Y-62000000D02*
X45000000Y-62000000D01*
X45000000Y-62000000D02*
X45000000Y-70000000D01*
X45000000Y-62000000D02*
X70000000Y-62000000D01*
X70000000Y-62000000D02*
X70000000Y-70000000D01*
X70000000Y-62000000D02*
X95000000Y-62000000D01*
%TD*%
%TA.AperFunction,Conductor*%
%TO.N,ACT_0V_PE_BONDED*%
G36*
X118942121Y-21020002D02*
G01*
X118988614Y-21073658D01*
X119000000Y-21126000D01*
X119000000Y-78874000D01*
X118979998Y-78942121D01*
X118926342Y-78988614D01*
X118874000Y-79000000D01*
X21126000Y-79000000D01*
X21057879Y-78979998D01*
X21011386Y-78926342D01*
X21000000Y-78874000D01*
X21000000Y-74878709D01*
X23149500Y-74878709D01*
X23149500Y-75121290D01*
X23181160Y-75361782D01*
X23243944Y-75596095D01*
X23243945Y-75596097D01*
X23243946Y-75596100D01*
X23336776Y-75820212D01*
X23336777Y-75820213D01*
X23336782Y-75820224D01*
X23458061Y-76030285D01*
X23458063Y-76030288D01*
X23458064Y-76030289D01*
X23605735Y-76222738D01*
X23605739Y-76222742D01*
X23605744Y-76222748D01*
X23777251Y-76394255D01*
X23777256Y-76394259D01*
X23777262Y-76394265D01*
X23969711Y-76541936D01*
X23969714Y-76541938D01*
X24179775Y-76663217D01*
X24179779Y-76663218D01*
X24179788Y-76663224D01*
X24403900Y-76756054D01*
X24638211Y-76818838D01*
X24638215Y-76818838D01*
X24638217Y-76818839D01*
X24700202Y-76826999D01*
X24878712Y-76850500D01*
X24878719Y-76850500D01*
X25121281Y-76850500D01*
X25121288Y-76850500D01*
X25338637Y-76821885D01*
X25361782Y-76818839D01*
X25361782Y-76818838D01*
X25361789Y-76818838D01*
X25596100Y-76756054D01*
X25820212Y-76663224D01*
X26030289Y-76541936D01*
X26222738Y-76394265D01*
X26394265Y-76222738D01*
X26541936Y-76030289D01*
X26663224Y-75820212D01*
X26756054Y-75596100D01*
X26818838Y-75361789D01*
X26850500Y-75121288D01*
X26850500Y-74878712D01*
X26850500Y-74878709D01*
X113149500Y-74878709D01*
X113149500Y-75121290D01*
X113181160Y-75361782D01*
X113243944Y-75596095D01*
X113243945Y-75596097D01*
X113243946Y-75596100D01*
X113336776Y-75820212D01*
X113336777Y-75820213D01*
X113336782Y-75820224D01*
X113458061Y-76030285D01*
X113458063Y-76030288D01*
X113458064Y-76030289D01*
X113605735Y-76222738D01*
X113605739Y-76222742D01*
X113605744Y-76222748D01*
X113777251Y-76394255D01*
X113777256Y-76394259D01*
X113777262Y-76394265D01*
X113969711Y-76541936D01*
X113969714Y-76541938D01*
X114179775Y-76663217D01*
X114179779Y-76663218D01*
X114179788Y-76663224D01*
X114403900Y-76756054D01*
X114638211Y-76818838D01*
X114638215Y-76818838D01*
X114638217Y-76818839D01*
X114700202Y-76826999D01*
X114878712Y-76850500D01*
X114878719Y-76850500D01*
X115121281Y-76850500D01*
X115121288Y-76850500D01*
X115338637Y-76821885D01*
X115361782Y-76818839D01*
X115361782Y-76818838D01*
X115361789Y-76818838D01*
X115596100Y-76756054D01*
X115820212Y-76663224D01*
X116030289Y-76541936D01*
X116222738Y-76394265D01*
X116394265Y-76222738D01*
X116541936Y-76030289D01*
X116663224Y-75820212D01*
X116756054Y-75596100D01*
X116818838Y-75361789D01*
X116850500Y-75121288D01*
X116850500Y-74878712D01*
X116818838Y-74638211D01*
X116756054Y-74403900D01*
X116663224Y-74179788D01*
X116663218Y-74179779D01*
X116663217Y-74179775D01*
X116541938Y-73969714D01*
X116541936Y-73969711D01*
X116394265Y-73777262D01*
X116394259Y-73777256D01*
X116394255Y-73777251D01*
X116222748Y-73605744D01*
X116222742Y-73605739D01*
X116222738Y-73605735D01*
X116030289Y-73458064D01*
X116030288Y-73458063D01*
X116030285Y-73458061D01*
X115820224Y-73336782D01*
X115820216Y-73336778D01*
X115820212Y-73336776D01*
X115596100Y-73243946D01*
X115596097Y-73243945D01*
X115596095Y-73243944D01*
X115361782Y-73181160D01*
X115121290Y-73149500D01*
X115121288Y-73149500D01*
X114878712Y-73149500D01*
X114878709Y-73149500D01*
X114638217Y-73181160D01*
X114403904Y-73243944D01*
X114403900Y-73243946D01*
X114179786Y-73336777D01*
X114179775Y-73336782D01*
X113969714Y-73458061D01*
X113777262Y-73605735D01*
X113777251Y-73605744D01*
X113605744Y-73777251D01*
X113605735Y-73777262D01*
X113458061Y-73969714D01*
X113336782Y-74179775D01*
X113336777Y-74179786D01*
X113243946Y-74403900D01*
X113243944Y-74403904D01*
X113181160Y-74638217D01*
X113149500Y-74878709D01*
X26850500Y-74878709D01*
X26818838Y-74638211D01*
X26756054Y-74403900D01*
X26663224Y-74179788D01*
X26663218Y-74179779D01*
X26663217Y-74179775D01*
X26541938Y-73969714D01*
X26541936Y-73969711D01*
X26394265Y-73777262D01*
X26394259Y-73777256D01*
X26394255Y-73777251D01*
X26222748Y-73605744D01*
X26222742Y-73605739D01*
X26222738Y-73605735D01*
X26030289Y-73458064D01*
X26030288Y-73458063D01*
X26030285Y-73458061D01*
X25820224Y-73336782D01*
X25820216Y-73336778D01*
X25820212Y-73336776D01*
X25596100Y-73243946D01*
X25596097Y-73243945D01*
X25596095Y-73243944D01*
X25361782Y-73181160D01*
X25121290Y-73149500D01*
X25121288Y-73149500D01*
X24878712Y-73149500D01*
X24878709Y-73149500D01*
X24638217Y-73181160D01*
X24403904Y-73243944D01*
X24403900Y-73243946D01*
X24179786Y-73336777D01*
X24179775Y-73336782D01*
X23969714Y-73458061D01*
X23777262Y-73605735D01*
X23777251Y-73605744D01*
X23605744Y-73777251D01*
X23605735Y-73777262D01*
X23458061Y-73969714D01*
X23336782Y-74179775D01*
X23336777Y-74179786D01*
X23243946Y-74403900D01*
X23243944Y-74403904D01*
X23181160Y-74638217D01*
X23149500Y-74878709D01*
X21000000Y-74878709D01*
X21000000Y-54913389D01*
X28774500Y-54913389D01*
X28774500Y-55086611D01*
X28801598Y-55257701D01*
X28855127Y-55422445D01*
X28855128Y-55422448D01*
X28855130Y-55422452D01*
X28933768Y-55576788D01*
X29035587Y-55716930D01*
X29158069Y-55839412D01*
X29158072Y-55839414D01*
X29298212Y-55941232D01*
X29452555Y-56019873D01*
X29617299Y-56073402D01*
X29788389Y-56100500D01*
X29788392Y-56100500D01*
X30211608Y-56100500D01*
X30211611Y-56100500D01*
X30382701Y-56073402D01*
X30547445Y-56019873D01*
X30701788Y-55941232D01*
X30841928Y-55839414D01*
X30964414Y-55716928D01*
X31066232Y-55576788D01*
X31133739Y-55444297D01*
X31182487Y-55392682D01*
X31246006Y-55375500D01*
X37498500Y-55375500D01*
X37566621Y-55395502D01*
X37613114Y-55449158D01*
X37624500Y-55501500D01*
X37624500Y-61950565D01*
X37624500Y-62049435D01*
X37643232Y-62119345D01*
X37650089Y-62144935D01*
X37650092Y-62144942D01*
X37699522Y-62230558D01*
X37699530Y-62230568D01*
X37769431Y-62300469D01*
X37769436Y-62300473D01*
X37769438Y-62300475D01*
X37855062Y-62349910D01*
X37950565Y-62375500D01*
X44498500Y-62375500D01*
X44566621Y-62395502D01*
X44613114Y-62449158D01*
X44624500Y-62501500D01*
X44624500Y-68753994D01*
X44604498Y-68822115D01*
X44555703Y-68866261D01*
X44423208Y-68933770D01*
X44283069Y-69035587D01*
X44160587Y-69158069D01*
X44058768Y-69298211D01*
X43980130Y-69452547D01*
X43980127Y-69452553D01*
X43980127Y-69452555D01*
X43926598Y-69617299D01*
X43899500Y-69788389D01*
X43899500Y-70211611D01*
X43926598Y-70382701D01*
X43980127Y-70547445D01*
X43980128Y-70547448D01*
X43980130Y-70547452D01*
X44058768Y-70701788D01*
X44160587Y-70841930D01*
X44283069Y-70964412D01*
X44283072Y-70964414D01*
X44423212Y-71066232D01*
X44577555Y-71144873D01*
X44742299Y-71198402D01*
X44913389Y-71225500D01*
X44913392Y-71225500D01*
X45086608Y-71225500D01*
X45086611Y-71225500D01*
X45257701Y-71198402D01*
X45422445Y-71144873D01*
X45576788Y-71066232D01*
X45716928Y-70964414D01*
X45839414Y-70841928D01*
X45941232Y-70701788D01*
X46019873Y-70547445D01*
X46073402Y-70382701D01*
X46100500Y-70211611D01*
X46100500Y-69788389D01*
X46399500Y-69788389D01*
X46399500Y-70211611D01*
X46426598Y-70382701D01*
X46480127Y-70547445D01*
X46480128Y-70547448D01*
X46480130Y-70547452D01*
X46558768Y-70701788D01*
X46660587Y-70841930D01*
X46783069Y-70964412D01*
X46783072Y-70964414D01*
X46923212Y-71066232D01*
X47077555Y-71144873D01*
X47242299Y-71198402D01*
X47413389Y-71225500D01*
X47413392Y-71225500D01*
X47586608Y-71225500D01*
X47586611Y-71225500D01*
X47757701Y-71198402D01*
X47922445Y-71144873D01*
X48076788Y-71066232D01*
X48216928Y-70964414D01*
X48339414Y-70841928D01*
X48423931Y-70725599D01*
X48480152Y-70682247D01*
X48550888Y-70676172D01*
X48613680Y-70709303D01*
X48648591Y-70771123D01*
X48651214Y-70786857D01*
X48660493Y-70877691D01*
X48715642Y-71044122D01*
X48807683Y-71193344D01*
X48807688Y-71193350D01*
X48931649Y-71317311D01*
X48931655Y-71317316D01*
X49080877Y-71409357D01*
X49247308Y-71464506D01*
X49350012Y-71474999D01*
X49750000Y-71474999D01*
X49750000Y-70404145D01*
X49816657Y-70442630D01*
X49937465Y-70475000D01*
X50062535Y-70475000D01*
X50183343Y-70442630D01*
X50250000Y-70404145D01*
X50250000Y-71474999D01*
X50649978Y-71474999D01*
X50752691Y-71464506D01*
X50919122Y-71409357D01*
X51068344Y-71317316D01*
X51068350Y-71317311D01*
X51192311Y-71193350D01*
X51192316Y-71193344D01*
X51284357Y-71044122D01*
X51339506Y-70877691D01*
X51349999Y-70774987D01*
X51350000Y-70774987D01*
X51350000Y-70250000D01*
X50404146Y-70250000D01*
X50442630Y-70183343D01*
X50475000Y-70062535D01*
X50475000Y-69937465D01*
X50442630Y-69816657D01*
X50404146Y-69750000D01*
X51349999Y-69750000D01*
X51349999Y-69225021D01*
X51339506Y-69122308D01*
X51284357Y-68955877D01*
X51192316Y-68806655D01*
X51192311Y-68806649D01*
X51068350Y-68682688D01*
X51068344Y-68682683D01*
X50919122Y-68590642D01*
X50752691Y-68535493D01*
X50649987Y-68525000D01*
X50250000Y-68525000D01*
X50250000Y-69595854D01*
X50183343Y-69557370D01*
X50062535Y-69525000D01*
X49937465Y-69525000D01*
X49816657Y-69557370D01*
X49750000Y-69595854D01*
X49750000Y-68525000D01*
X49350021Y-68525000D01*
X49247308Y-68535493D01*
X49080877Y-68590642D01*
X48931655Y-68682683D01*
X48931649Y-68682688D01*
X48807688Y-68806649D01*
X48807683Y-68806655D01*
X48715642Y-68955877D01*
X48660493Y-69122308D01*
X48651212Y-69213144D01*
X48624389Y-69278879D01*
X48566286Y-69319677D01*
X48495349Y-69322585D01*
X48434100Y-69286680D01*
X48423929Y-69274397D01*
X48379426Y-69213144D01*
X48339414Y-69158072D01*
X48339411Y-69158069D01*
X48339409Y-69158066D01*
X48216930Y-69035587D01*
X48076788Y-68933768D01*
X47922452Y-68855130D01*
X47922448Y-68855128D01*
X47922445Y-68855127D01*
X47757701Y-68801598D01*
X47586611Y-68774500D01*
X47413389Y-68774500D01*
X47242299Y-68801598D01*
X47242296Y-68801598D01*
X47242295Y-68801599D01*
X47163253Y-68827281D01*
X47077555Y-68855127D01*
X47077553Y-68855127D01*
X47077547Y-68855130D01*
X46923211Y-68933768D01*
X46783069Y-69035587D01*
X46660587Y-69158069D01*
X46558768Y-69298211D01*
X46480130Y-69452547D01*
X46480127Y-69452553D01*
X46480127Y-69452555D01*
X46426598Y-69617299D01*
X46399500Y-69788389D01*
X46100500Y-69788389D01*
X46073402Y-69617299D01*
X46019873Y-69452555D01*
X45941232Y-69298212D01*
X45839414Y-69158072D01*
X45839412Y-69158069D01*
X45716930Y-69035587D01*
X45576791Y-68933770D01*
X45576790Y-68933769D01*
X45576788Y-68933768D01*
X45444297Y-68866261D01*
X45392682Y-68817513D01*
X45375500Y-68753994D01*
X45375500Y-62501500D01*
X45395502Y-62433379D01*
X45449158Y-62386886D01*
X45501500Y-62375500D01*
X69498500Y-62375500D01*
X69566621Y-62395502D01*
X69613114Y-62449158D01*
X69624500Y-62501500D01*
X69624500Y-68753994D01*
X69604498Y-68822115D01*
X69555703Y-68866261D01*
X69423208Y-68933770D01*
X69283069Y-69035587D01*
X69160587Y-69158069D01*
X69058768Y-69298211D01*
X68980130Y-69452547D01*
X68980127Y-69452553D01*
X68980127Y-69452555D01*
X68926598Y-69617299D01*
X68899500Y-69788389D01*
X68899500Y-70211611D01*
X68926598Y-70382701D01*
X68980127Y-70547445D01*
X68980128Y-70547448D01*
X68980130Y-70547452D01*
X69058768Y-70701788D01*
X69160587Y-70841930D01*
X69283069Y-70964412D01*
X69283072Y-70964414D01*
X69423212Y-71066232D01*
X69577555Y-71144873D01*
X69742299Y-71198402D01*
X69913389Y-71225500D01*
X69913392Y-71225500D01*
X70086608Y-71225500D01*
X70086611Y-71225500D01*
X70257701Y-71198402D01*
X70422445Y-71144873D01*
X70576788Y-71066232D01*
X70716928Y-70964414D01*
X70839414Y-70841928D01*
X70941232Y-70701788D01*
X71019873Y-70547445D01*
X71073402Y-70382701D01*
X71100500Y-70211611D01*
X71100500Y-69788389D01*
X71399500Y-69788389D01*
X71399500Y-70211611D01*
X71426598Y-70382701D01*
X71480127Y-70547445D01*
X71480128Y-70547448D01*
X71480130Y-70547452D01*
X71558768Y-70701788D01*
X71660587Y-70841930D01*
X71783069Y-70964412D01*
X71783072Y-70964414D01*
X71923212Y-71066232D01*
X72077555Y-71144873D01*
X72242299Y-71198402D01*
X72413389Y-71225500D01*
X72413392Y-71225500D01*
X72586608Y-71225500D01*
X72586611Y-71225500D01*
X72757701Y-71198402D01*
X72922445Y-71144873D01*
X73076788Y-71066232D01*
X73216928Y-70964414D01*
X73339414Y-70841928D01*
X73423931Y-70725599D01*
X73480152Y-70682247D01*
X73550888Y-70676172D01*
X73613680Y-70709303D01*
X73648591Y-70771123D01*
X73651214Y-70786857D01*
X73660493Y-70877691D01*
X73715642Y-71044122D01*
X73807683Y-71193344D01*
X73807688Y-71193350D01*
X73931649Y-71317311D01*
X73931655Y-71317316D01*
X74080877Y-71409357D01*
X74247308Y-71464506D01*
X74350012Y-71474999D01*
X74750000Y-71474999D01*
X74750000Y-70404145D01*
X74816657Y-70442630D01*
X74937465Y-70475000D01*
X75062535Y-70475000D01*
X75183343Y-70442630D01*
X75250000Y-70404145D01*
X75250000Y-71474999D01*
X75649978Y-71474999D01*
X75752691Y-71464506D01*
X75919122Y-71409357D01*
X76068344Y-71317316D01*
X76068350Y-71317311D01*
X76192311Y-71193350D01*
X76192316Y-71193344D01*
X76284357Y-71044122D01*
X76339506Y-70877691D01*
X76349999Y-70774987D01*
X76350000Y-70774987D01*
X76350000Y-70250000D01*
X75404146Y-70250000D01*
X75442630Y-70183343D01*
X75475000Y-70062535D01*
X75475000Y-69937465D01*
X75442630Y-69816657D01*
X75404146Y-69750000D01*
X76349999Y-69750000D01*
X76349999Y-69225021D01*
X76339506Y-69122308D01*
X76284357Y-68955877D01*
X76192316Y-68806655D01*
X76192311Y-68806649D01*
X76068350Y-68682688D01*
X76068344Y-68682683D01*
X75919122Y-68590642D01*
X75752691Y-68535493D01*
X75649987Y-68525000D01*
X75250000Y-68525000D01*
X75250000Y-69595854D01*
X75183343Y-69557370D01*
X75062535Y-69525000D01*
X74937465Y-69525000D01*
X74816657Y-69557370D01*
X74750000Y-69595854D01*
X74750000Y-68525000D01*
X74350021Y-68525000D01*
X74247308Y-68535493D01*
X74080877Y-68590642D01*
X73931655Y-68682683D01*
X73931649Y-68682688D01*
X73807688Y-68806649D01*
X73807683Y-68806655D01*
X73715642Y-68955877D01*
X73660493Y-69122308D01*
X73651212Y-69213144D01*
X73624389Y-69278879D01*
X73566286Y-69319677D01*
X73495349Y-69322585D01*
X73434100Y-69286680D01*
X73423929Y-69274397D01*
X73379426Y-69213144D01*
X73339414Y-69158072D01*
X73339411Y-69158069D01*
X73339409Y-69158066D01*
X73216930Y-69035587D01*
X73076788Y-68933768D01*
X72922452Y-68855130D01*
X72922448Y-68855128D01*
X72922445Y-68855127D01*
X72757701Y-68801598D01*
X72586611Y-68774500D01*
X72413389Y-68774500D01*
X72242299Y-68801598D01*
X72242296Y-68801598D01*
X72242295Y-68801599D01*
X72163253Y-68827281D01*
X72077555Y-68855127D01*
X72077553Y-68855127D01*
X72077547Y-68855130D01*
X71923211Y-68933768D01*
X71783069Y-69035587D01*
X71660587Y-69158069D01*
X71558768Y-69298211D01*
X71480130Y-69452547D01*
X71480127Y-69452553D01*
X71480127Y-69452555D01*
X71426598Y-69617299D01*
X71399500Y-69788389D01*
X71100500Y-69788389D01*
X71073402Y-69617299D01*
X71019873Y-69452555D01*
X70941232Y-69298212D01*
X70839414Y-69158072D01*
X70839412Y-69158069D01*
X70716930Y-69035587D01*
X70576791Y-68933770D01*
X70576790Y-68933769D01*
X70576788Y-68933768D01*
X70444297Y-68866261D01*
X70392682Y-68817513D01*
X70375500Y-68753994D01*
X70375500Y-62501500D01*
X70395502Y-62433379D01*
X70449158Y-62386886D01*
X70501500Y-62375500D01*
X94498500Y-62375500D01*
X94566621Y-62395502D01*
X94613114Y-62449158D01*
X94624500Y-62501500D01*
X94624500Y-68753994D01*
X94604498Y-68822115D01*
X94555703Y-68866261D01*
X94423208Y-68933770D01*
X94283069Y-69035587D01*
X94160587Y-69158069D01*
X94058768Y-69298211D01*
X93980130Y-69452547D01*
X93980127Y-69452553D01*
X93980127Y-69452555D01*
X93926598Y-69617299D01*
X93899500Y-69788389D01*
X93899500Y-70211611D01*
X93926598Y-70382701D01*
X93980127Y-70547445D01*
X93980128Y-70547448D01*
X93980130Y-70547452D01*
X94058768Y-70701788D01*
X94160587Y-70841930D01*
X94283069Y-70964412D01*
X94283072Y-70964414D01*
X94423212Y-71066232D01*
X94577555Y-71144873D01*
X94742299Y-71198402D01*
X94913389Y-71225500D01*
X94913392Y-71225500D01*
X95086608Y-71225500D01*
X95086611Y-71225500D01*
X95257701Y-71198402D01*
X95422445Y-71144873D01*
X95576788Y-71066232D01*
X95716928Y-70964414D01*
X95839414Y-70841928D01*
X95941232Y-70701788D01*
X96019873Y-70547445D01*
X96073402Y-70382701D01*
X96100500Y-70211611D01*
X96100500Y-69788389D01*
X96399500Y-69788389D01*
X96399500Y-70211611D01*
X96426598Y-70382701D01*
X96480127Y-70547445D01*
X96480128Y-70547448D01*
X96480130Y-70547452D01*
X96558768Y-70701788D01*
X96660587Y-70841930D01*
X96783069Y-70964412D01*
X96783072Y-70964414D01*
X96923212Y-71066232D01*
X97077555Y-71144873D01*
X97242299Y-71198402D01*
X97413389Y-71225500D01*
X97413392Y-71225500D01*
X97586608Y-71225500D01*
X97586611Y-71225500D01*
X97757701Y-71198402D01*
X97922445Y-71144873D01*
X98076788Y-71066232D01*
X98216928Y-70964414D01*
X98339414Y-70841928D01*
X98423931Y-70725599D01*
X98480152Y-70682247D01*
X98550888Y-70676172D01*
X98613680Y-70709303D01*
X98648591Y-70771123D01*
X98651214Y-70786857D01*
X98660493Y-70877691D01*
X98715642Y-71044122D01*
X98807683Y-71193344D01*
X98807688Y-71193350D01*
X98931649Y-71317311D01*
X98931655Y-71317316D01*
X99080877Y-71409357D01*
X99247308Y-71464506D01*
X99350012Y-71474999D01*
X99750000Y-71474999D01*
X99750000Y-70404145D01*
X99816657Y-70442630D01*
X99937465Y-70475000D01*
X100062535Y-70475000D01*
X100183343Y-70442630D01*
X100250000Y-70404145D01*
X100250000Y-71474999D01*
X100649978Y-71474999D01*
X100752691Y-71464506D01*
X100919122Y-71409357D01*
X101068344Y-71317316D01*
X101068350Y-71317311D01*
X101192311Y-71193350D01*
X101192316Y-71193344D01*
X101284357Y-71044122D01*
X101339506Y-70877691D01*
X101349999Y-70774987D01*
X101350000Y-70774987D01*
X101350000Y-70250000D01*
X100404146Y-70250000D01*
X100442630Y-70183343D01*
X100475000Y-70062535D01*
X100475000Y-69937465D01*
X100442630Y-69816657D01*
X100404146Y-69750000D01*
X101349999Y-69750000D01*
X101349999Y-69225021D01*
X101339506Y-69122308D01*
X101284357Y-68955877D01*
X101192316Y-68806655D01*
X101192311Y-68806649D01*
X101068350Y-68682688D01*
X101068344Y-68682683D01*
X100919122Y-68590642D01*
X100752691Y-68535493D01*
X100649987Y-68525000D01*
X100250000Y-68525000D01*
X100250000Y-69595854D01*
X100183343Y-69557370D01*
X100062535Y-69525000D01*
X99937465Y-69525000D01*
X99816657Y-69557370D01*
X99750000Y-69595854D01*
X99750000Y-68525000D01*
X99350021Y-68525000D01*
X99247308Y-68535493D01*
X99080877Y-68590642D01*
X98931655Y-68682683D01*
X98931649Y-68682688D01*
X98807688Y-68806649D01*
X98807683Y-68806655D01*
X98715642Y-68955877D01*
X98660493Y-69122308D01*
X98651212Y-69213144D01*
X98624389Y-69278879D01*
X98566286Y-69319677D01*
X98495349Y-69322585D01*
X98434100Y-69286680D01*
X98423929Y-69274397D01*
X98379426Y-69213144D01*
X98339414Y-69158072D01*
X98339411Y-69158069D01*
X98339409Y-69158066D01*
X98216930Y-69035587D01*
X98076788Y-68933768D01*
X97922452Y-68855130D01*
X97922448Y-68855128D01*
X97922445Y-68855127D01*
X97757701Y-68801598D01*
X97586611Y-68774500D01*
X97413389Y-68774500D01*
X97242299Y-68801598D01*
X97242296Y-68801598D01*
X97242295Y-68801599D01*
X97163253Y-68827281D01*
X97077555Y-68855127D01*
X97077553Y-68855127D01*
X97077547Y-68855130D01*
X96923211Y-68933768D01*
X96783069Y-69035587D01*
X96660587Y-69158069D01*
X96558768Y-69298211D01*
X96480130Y-69452547D01*
X96480127Y-69452553D01*
X96480127Y-69452555D01*
X96426598Y-69617299D01*
X96399500Y-69788389D01*
X96100500Y-69788389D01*
X96073402Y-69617299D01*
X96019873Y-69452555D01*
X95941232Y-69298212D01*
X95839414Y-69158072D01*
X95839412Y-69158069D01*
X95716930Y-69035587D01*
X95576791Y-68933770D01*
X95576790Y-68933769D01*
X95576788Y-68933768D01*
X95444297Y-68866261D01*
X95392682Y-68817513D01*
X95375500Y-68753994D01*
X95375500Y-61950566D01*
X95375500Y-61950565D01*
X95349910Y-61855062D01*
X95300475Y-61769438D01*
X95300473Y-61769436D01*
X95300469Y-61769431D01*
X95230568Y-61699530D01*
X95230558Y-61699522D01*
X95144942Y-61650092D01*
X95144939Y-61650091D01*
X95144938Y-61650090D01*
X95144936Y-61650089D01*
X95144935Y-61650089D01*
X95119345Y-61643232D01*
X95049435Y-61624500D01*
X95049433Y-61624500D01*
X38501500Y-61624500D01*
X38433379Y-61604498D01*
X38386886Y-61550842D01*
X38375500Y-61498500D01*
X38375500Y-54950566D01*
X38375500Y-54950565D01*
X38349910Y-54855062D01*
X38300475Y-54769438D01*
X38300473Y-54769436D01*
X38300469Y-54769431D01*
X38230568Y-54699530D01*
X38230558Y-54699522D01*
X38144942Y-54650092D01*
X38144939Y-54650091D01*
X38144938Y-54650090D01*
X38144936Y-54650089D01*
X38144935Y-54650089D01*
X38119345Y-54643232D01*
X38049435Y-54624500D01*
X38049433Y-54624500D01*
X31246006Y-54624500D01*
X31177885Y-54604498D01*
X31133739Y-54555703D01*
X31130217Y-54548792D01*
X31066232Y-54423212D01*
X30964414Y-54283072D01*
X30964412Y-54283069D01*
X30841930Y-54160587D01*
X30701788Y-54058768D01*
X30547452Y-53980130D01*
X30547448Y-53980128D01*
X30547445Y-53980127D01*
X30382701Y-53926598D01*
X30211611Y-53899500D01*
X29788389Y-53899500D01*
X29617299Y-53926598D01*
X29617296Y-53926598D01*
X29617295Y-53926599D01*
X29538253Y-53952281D01*
X29452555Y-53980127D01*
X29452553Y-53980127D01*
X29452547Y-53980130D01*
X29298211Y-54058768D01*
X29158069Y-54160587D01*
X29035587Y-54283069D01*
X28933768Y-54423211D01*
X28855130Y-54577547D01*
X28855127Y-54577556D01*
X28815495Y-54699530D01*
X28801598Y-54742299D01*
X28774500Y-54913389D01*
X21000000Y-54913389D01*
X21000000Y-49350012D01*
X28525000Y-49350012D01*
X28525000Y-49750000D01*
X29595854Y-49750000D01*
X29557370Y-49816657D01*
X29525000Y-49937465D01*
X29525000Y-50062535D01*
X29557370Y-50183343D01*
X29595854Y-50250000D01*
X28525001Y-50250000D01*
X28525001Y-50649978D01*
X28535493Y-50752691D01*
X28590642Y-50919122D01*
X28682683Y-51068344D01*
X28682688Y-51068350D01*
X28806649Y-51192311D01*
X28806655Y-51192316D01*
X28955877Y-51284357D01*
X29122308Y-51339506D01*
X29213143Y-51348787D01*
X29278878Y-51375609D01*
X29319676Y-51433712D01*
X29322585Y-51504649D01*
X29286681Y-51565898D01*
X29274398Y-51576070D01*
X29158065Y-51660591D01*
X29035587Y-51783069D01*
X28933768Y-51923211D01*
X28855130Y-52077547D01*
X28855127Y-52077553D01*
X28855127Y-52077555D01*
X28801598Y-52242299D01*
X28774500Y-52413389D01*
X28774500Y-52586611D01*
X28801598Y-52757701D01*
X28855127Y-52922445D01*
X28855128Y-52922448D01*
X28855130Y-52922452D01*
X28933768Y-53076788D01*
X29035587Y-53216930D01*
X29158069Y-53339412D01*
X29158072Y-53339414D01*
X29298212Y-53441232D01*
X29452555Y-53519873D01*
X29617299Y-53573402D01*
X29788389Y-53600500D01*
X29788392Y-53600500D01*
X30211608Y-53600500D01*
X30211611Y-53600500D01*
X30382701Y-53573402D01*
X30547445Y-53519873D01*
X30701788Y-53441232D01*
X30841928Y-53339414D01*
X30964414Y-53216928D01*
X31066232Y-53076788D01*
X31144873Y-52922445D01*
X31198402Y-52757701D01*
X31225500Y-52586611D01*
X31225500Y-52413389D01*
X31198402Y-52242299D01*
X31144873Y-52077555D01*
X31066232Y-51923212D01*
X30964414Y-51783072D01*
X30964412Y-51783069D01*
X30841930Y-51660587D01*
X30725601Y-51576069D01*
X30682247Y-51519846D01*
X30676172Y-51449110D01*
X30709304Y-51386319D01*
X30771124Y-51351407D01*
X30786858Y-51348785D01*
X30877691Y-51339506D01*
X31044122Y-51284357D01*
X31193344Y-51192316D01*
X31193350Y-51192311D01*
X31317311Y-51068350D01*
X31317316Y-51068344D01*
X31409357Y-50919122D01*
X31464506Y-50752691D01*
X31474999Y-50649987D01*
X31475000Y-50649987D01*
X31475000Y-50250000D01*
X30404146Y-50250000D01*
X30442630Y-50183343D01*
X30475000Y-50062535D01*
X30475000Y-49937465D01*
X30442630Y-49816657D01*
X30404146Y-49750000D01*
X31474999Y-49750000D01*
X31474999Y-49350021D01*
X31464506Y-49247308D01*
X31409357Y-49080877D01*
X31317316Y-48931655D01*
X31317311Y-48931649D01*
X31193350Y-48807688D01*
X31193344Y-48807683D01*
X31044122Y-48715642D01*
X30877691Y-48660493D01*
X30774987Y-48650000D01*
X30250000Y-48650000D01*
X30250000Y-49595854D01*
X30183343Y-49557370D01*
X30062535Y-49525000D01*
X29937465Y-49525000D01*
X29816657Y-49557370D01*
X29750000Y-49595854D01*
X29750000Y-48650000D01*
X29225021Y-48650000D01*
X29122308Y-48660493D01*
X28955877Y-48715642D01*
X28806655Y-48807683D01*
X28806649Y-48807688D01*
X28682688Y-48931649D01*
X28682683Y-48931655D01*
X28590642Y-49080877D01*
X28535493Y-49247308D01*
X28525000Y-49350012D01*
X21000000Y-49350012D01*
X21000000Y-28852122D01*
X48399500Y-28852122D01*
X48399500Y-31147877D01*
X48405909Y-31207483D01*
X48456203Y-31342329D01*
X48542453Y-31457546D01*
X48654626Y-31541517D01*
X48657670Y-31543796D01*
X48792515Y-31594090D01*
X48792518Y-31594091D01*
X48852128Y-31600500D01*
X48852133Y-31600500D01*
X51147867Y-31600500D01*
X51147872Y-31600500D01*
X51207482Y-31594091D01*
X51342330Y-31543796D01*
X51457546Y-31457546D01*
X51539029Y-31348698D01*
X51543795Y-31342333D01*
X51543796Y-31342329D01*
X51594091Y-31207482D01*
X51600500Y-31147872D01*
X51600500Y-29878742D01*
X52110000Y-29878742D01*
X52110000Y-30121257D01*
X52141652Y-30361683D01*
X52204419Y-30595934D01*
X52204421Y-30595938D01*
X52297227Y-30819991D01*
X52297232Y-30820002D01*
X52418478Y-31030006D01*
X52418482Y-31030012D01*
X52487060Y-31119384D01*
X52487061Y-31119385D01*
X53205884Y-30400561D01*
X53206740Y-30402626D01*
X53299762Y-30541844D01*
X53418156Y-30660238D01*
X53557374Y-30753260D01*
X53559436Y-30754114D01*
X52840613Y-31472937D01*
X52840614Y-31472938D01*
X52929987Y-31541517D01*
X52929993Y-31541521D01*
X53139997Y-31662767D01*
X53140008Y-31662772D01*
X53364061Y-31755578D01*
X53364065Y-31755580D01*
X53598316Y-31818347D01*
X53838742Y-31849999D01*
X53838752Y-31850000D01*
X54081248Y-31850000D01*
X54081257Y-31849999D01*
X54321683Y-31818347D01*
X54555934Y-31755580D01*
X54555938Y-31755578D01*
X54779991Y-31662772D01*
X54780002Y-31662767D01*
X54990006Y-31541521D01*
X54990012Y-31541517D01*
X55079385Y-31472938D01*
X55079385Y-31472937D01*
X54360562Y-30754114D01*
X54362626Y-30753260D01*
X54501844Y-30660238D01*
X54620238Y-30541844D01*
X54713260Y-30402626D01*
X54714114Y-30400562D01*
X55432937Y-31119385D01*
X55432938Y-31119385D01*
X55501517Y-31030012D01*
X55501521Y-31030006D01*
X55622767Y-30820002D01*
X55622772Y-30819991D01*
X55715578Y-30595938D01*
X55715580Y-30595934D01*
X55778347Y-30361683D01*
X55809999Y-30121257D01*
X55810000Y-30121248D01*
X55810000Y-29878752D01*
X55809999Y-29878742D01*
X55778347Y-29638316D01*
X55715580Y-29404065D01*
X55715578Y-29404061D01*
X55622772Y-29180008D01*
X55622767Y-29179997D01*
X55501522Y-28969995D01*
X55467347Y-28925457D01*
X55467346Y-28925456D01*
X55432937Y-28880614D01*
X55432937Y-28880613D01*
X54714114Y-29599436D01*
X54713260Y-29597374D01*
X54620238Y-29458156D01*
X54501844Y-29339762D01*
X54362626Y-29246740D01*
X54360561Y-29245884D01*
X54754324Y-28852122D01*
X73399500Y-28852122D01*
X73399500Y-31147877D01*
X73405909Y-31207483D01*
X73456203Y-31342329D01*
X73542453Y-31457546D01*
X73654626Y-31541517D01*
X73657670Y-31543796D01*
X73792515Y-31594090D01*
X73792518Y-31594091D01*
X73852128Y-31600500D01*
X73852133Y-31600500D01*
X76147867Y-31600500D01*
X76147872Y-31600500D01*
X76207482Y-31594091D01*
X76342330Y-31543796D01*
X76457546Y-31457546D01*
X76539029Y-31348698D01*
X76543795Y-31342333D01*
X76543796Y-31342329D01*
X76594091Y-31207482D01*
X76600500Y-31147872D01*
X76600500Y-29878742D01*
X77110000Y-29878742D01*
X77110000Y-30121257D01*
X77141652Y-30361683D01*
X77204419Y-30595934D01*
X77204421Y-30595938D01*
X77297227Y-30819991D01*
X77297232Y-30820002D01*
X77418478Y-31030006D01*
X77418482Y-31030012D01*
X77487060Y-31119384D01*
X77487061Y-31119385D01*
X78205884Y-30400561D01*
X78206740Y-30402626D01*
X78299762Y-30541844D01*
X78418156Y-30660238D01*
X78557374Y-30753260D01*
X78559436Y-30754114D01*
X77840613Y-31472937D01*
X77840614Y-31472938D01*
X77929987Y-31541517D01*
X77929993Y-31541521D01*
X78139997Y-31662767D01*
X78140008Y-31662772D01*
X78364061Y-31755578D01*
X78364065Y-31755580D01*
X78598316Y-31818347D01*
X78838742Y-31849999D01*
X78838752Y-31850000D01*
X79081248Y-31850000D01*
X79081257Y-31849999D01*
X79321683Y-31818347D01*
X79555934Y-31755580D01*
X79555938Y-31755578D01*
X79779991Y-31662772D01*
X79780002Y-31662767D01*
X79990006Y-31541521D01*
X79990012Y-31541517D01*
X80079385Y-31472938D01*
X80079385Y-31472937D01*
X79360562Y-30754114D01*
X79362626Y-30753260D01*
X79501844Y-30660238D01*
X79620238Y-30541844D01*
X79713260Y-30402626D01*
X79714114Y-30400562D01*
X80432937Y-31119385D01*
X80432938Y-31119385D01*
X80501517Y-31030012D01*
X80501521Y-31030006D01*
X80622767Y-30820002D01*
X80622772Y-30819991D01*
X80715578Y-30595938D01*
X80715580Y-30595934D01*
X80778347Y-30361683D01*
X80809999Y-30121257D01*
X80810000Y-30121248D01*
X80810000Y-29878752D01*
X80809999Y-29878742D01*
X80778347Y-29638316D01*
X80715580Y-29404065D01*
X80715578Y-29404061D01*
X80622772Y-29180008D01*
X80622767Y-29179997D01*
X80501522Y-28969995D01*
X80467347Y-28925457D01*
X80467346Y-28925456D01*
X80432937Y-28880614D01*
X80432937Y-28880613D01*
X79714114Y-29599436D01*
X79713260Y-29597374D01*
X79620238Y-29458156D01*
X79501844Y-29339762D01*
X79362626Y-29246740D01*
X79360561Y-29245884D01*
X79754324Y-28852122D01*
X98399500Y-28852122D01*
X98399500Y-31147877D01*
X98405909Y-31207483D01*
X98456203Y-31342329D01*
X98542453Y-31457546D01*
X98654626Y-31541517D01*
X98657670Y-31543796D01*
X98792515Y-31594090D01*
X98792518Y-31594091D01*
X98852128Y-31600500D01*
X98852133Y-31600500D01*
X101147867Y-31600500D01*
X101147872Y-31600500D01*
X101207482Y-31594091D01*
X101342330Y-31543796D01*
X101457546Y-31457546D01*
X101539029Y-31348698D01*
X101543795Y-31342333D01*
X101543796Y-31342329D01*
X101594091Y-31207482D01*
X101600500Y-31147872D01*
X101600500Y-29878742D01*
X102110000Y-29878742D01*
X102110000Y-30121257D01*
X102141652Y-30361683D01*
X102204419Y-30595934D01*
X102204421Y-30595938D01*
X102297227Y-30819991D01*
X102297232Y-30820002D01*
X102418478Y-31030006D01*
X102418482Y-31030012D01*
X102487060Y-31119384D01*
X102487061Y-31119385D01*
X103205884Y-30400561D01*
X103206740Y-30402626D01*
X103299762Y-30541844D01*
X103418156Y-30660238D01*
X103557374Y-30753260D01*
X103559436Y-30754114D01*
X102840613Y-31472937D01*
X102840614Y-31472938D01*
X102929987Y-31541517D01*
X102929993Y-31541521D01*
X103139997Y-31662767D01*
X103140008Y-31662772D01*
X103364061Y-31755578D01*
X103364065Y-31755580D01*
X103598316Y-31818347D01*
X103838742Y-31849999D01*
X103838752Y-31850000D01*
X104081248Y-31850000D01*
X104081257Y-31849999D01*
X104321683Y-31818347D01*
X104555934Y-31755580D01*
X104555938Y-31755578D01*
X104779991Y-31662772D01*
X104780002Y-31662767D01*
X104990006Y-31541521D01*
X104990012Y-31541517D01*
X105079385Y-31472938D01*
X105079385Y-31472937D01*
X104360562Y-30754114D01*
X104362626Y-30753260D01*
X104501844Y-30660238D01*
X104620238Y-30541844D01*
X104713260Y-30402626D01*
X104714114Y-30400562D01*
X105432937Y-31119385D01*
X105432938Y-31119385D01*
X105501517Y-31030012D01*
X105501521Y-31030006D01*
X105622767Y-30820002D01*
X105622772Y-30819991D01*
X105715578Y-30595938D01*
X105715580Y-30595934D01*
X105778347Y-30361683D01*
X105809999Y-30121257D01*
X105810000Y-30121248D01*
X105810000Y-29878752D01*
X105809999Y-29878742D01*
X105778347Y-29638316D01*
X105715580Y-29404065D01*
X105715578Y-29404061D01*
X105622772Y-29180008D01*
X105622767Y-29179997D01*
X105501521Y-28969993D01*
X105501517Y-28969987D01*
X105432938Y-28880614D01*
X105432937Y-28880613D01*
X104714114Y-29599436D01*
X104713260Y-29597374D01*
X104620238Y-29458156D01*
X104501844Y-29339762D01*
X104362626Y-29246740D01*
X104360561Y-29245884D01*
X105079385Y-28527061D01*
X105079384Y-28527060D01*
X104990012Y-28458482D01*
X104990006Y-28458478D01*
X104780002Y-28337232D01*
X104779991Y-28337227D01*
X104555938Y-28244421D01*
X104555934Y-28244419D01*
X104321683Y-28181652D01*
X104081257Y-28150000D01*
X103838742Y-28150000D01*
X103598316Y-28181652D01*
X103364065Y-28244419D01*
X103364061Y-28244421D01*
X103140008Y-28337227D01*
X103139997Y-28337232D01*
X102929993Y-28458478D01*
X102840613Y-28527061D01*
X103559437Y-29245885D01*
X103557374Y-29246740D01*
X103418156Y-29339762D01*
X103299762Y-29458156D01*
X103206740Y-29597374D01*
X103205885Y-29599437D01*
X102487061Y-28880613D01*
X102418478Y-28969993D01*
X102297232Y-29179997D01*
X102297227Y-29180008D01*
X102204421Y-29404061D01*
X102204419Y-29404065D01*
X102141652Y-29638316D01*
X102110000Y-29878742D01*
X101600500Y-29878742D01*
X101600500Y-28852128D01*
X101594091Y-28792518D01*
X101543796Y-28657670D01*
X101539024Y-28651296D01*
X101539024Y-28651294D01*
X101457546Y-28542453D01*
X101342329Y-28456203D01*
X101207482Y-28405909D01*
X101207485Y-28405909D01*
X101147877Y-28399500D01*
X101147872Y-28399500D01*
X98852128Y-28399500D01*
X98852122Y-28399500D01*
X98792516Y-28405909D01*
X98657670Y-28456203D01*
X98542453Y-28542453D01*
X98456203Y-28657670D01*
X98405909Y-28792516D01*
X98399500Y-28852122D01*
X79754324Y-28852122D01*
X80079385Y-28527061D01*
X80079384Y-28527060D01*
X79990012Y-28458482D01*
X79990006Y-28458478D01*
X79780002Y-28337232D01*
X79779991Y-28337227D01*
X79555938Y-28244421D01*
X79555934Y-28244419D01*
X79321683Y-28181652D01*
X79081257Y-28150000D01*
X78838742Y-28150000D01*
X78598316Y-28181652D01*
X78364065Y-28244419D01*
X78364061Y-28244421D01*
X78140008Y-28337227D01*
X78139997Y-28337232D01*
X77929993Y-28458478D01*
X77840613Y-28527061D01*
X78559437Y-29245885D01*
X78557374Y-29246740D01*
X78418156Y-29339762D01*
X78299762Y-29458156D01*
X78206740Y-29597374D01*
X78205885Y-29599437D01*
X77487061Y-28880613D01*
X77418478Y-28969993D01*
X77297232Y-29179997D01*
X77297227Y-29180008D01*
X77204421Y-29404061D01*
X77204419Y-29404065D01*
X77141652Y-29638316D01*
X77110000Y-29878742D01*
X76600500Y-29878742D01*
X76600500Y-28852128D01*
X76594091Y-28792518D01*
X76543796Y-28657670D01*
X76539024Y-28651296D01*
X76539024Y-28651294D01*
X76457546Y-28542453D01*
X76342329Y-28456203D01*
X76207482Y-28405909D01*
X76207485Y-28405909D01*
X76147877Y-28399500D01*
X76147872Y-28399500D01*
X73852128Y-28399500D01*
X73852122Y-28399500D01*
X73792516Y-28405909D01*
X73657670Y-28456203D01*
X73542453Y-28542453D01*
X73456203Y-28657670D01*
X73405909Y-28792516D01*
X73399500Y-28852122D01*
X54754324Y-28852122D01*
X55079385Y-28527061D01*
X55079384Y-28527060D01*
X54990012Y-28458482D01*
X54990006Y-28458478D01*
X54780002Y-28337232D01*
X54779991Y-28337227D01*
X54555938Y-28244421D01*
X54555934Y-28244419D01*
X54321683Y-28181652D01*
X54081257Y-28150000D01*
X53838742Y-28150000D01*
X53598316Y-28181652D01*
X53364065Y-28244419D01*
X53364061Y-28244421D01*
X53140008Y-28337227D01*
X53139997Y-28337232D01*
X52929993Y-28458478D01*
X52840613Y-28527061D01*
X53559437Y-29245885D01*
X53557374Y-29246740D01*
X53418156Y-29339762D01*
X53299762Y-29458156D01*
X53206740Y-29597374D01*
X53205885Y-29599437D01*
X52487061Y-28880613D01*
X52418478Y-28969993D01*
X52297232Y-29179997D01*
X52297227Y-29180008D01*
X52204421Y-29404061D01*
X52204419Y-29404065D01*
X52141652Y-29638316D01*
X52110000Y-29878742D01*
X51600500Y-29878742D01*
X51600500Y-28852128D01*
X51594091Y-28792518D01*
X51543796Y-28657670D01*
X51539024Y-28651296D01*
X51539024Y-28651294D01*
X51457546Y-28542453D01*
X51342329Y-28456203D01*
X51207482Y-28405909D01*
X51207485Y-28405909D01*
X51147877Y-28399500D01*
X51147872Y-28399500D01*
X48852128Y-28399500D01*
X48852122Y-28399500D01*
X48792516Y-28405909D01*
X48657670Y-28456203D01*
X48542453Y-28542453D01*
X48456203Y-28657670D01*
X48405909Y-28792516D01*
X48399500Y-28852122D01*
X21000000Y-28852122D01*
X21000000Y-24878709D01*
X23149500Y-24878709D01*
X23149500Y-25121290D01*
X23181160Y-25361782D01*
X23243944Y-25596095D01*
X23243945Y-25596097D01*
X23243946Y-25596100D01*
X23336776Y-25820212D01*
X23336777Y-25820213D01*
X23336782Y-25820224D01*
X23458061Y-26030285D01*
X23458063Y-26030288D01*
X23458064Y-26030289D01*
X23605735Y-26222738D01*
X23605739Y-26222742D01*
X23605744Y-26222748D01*
X23777251Y-26394255D01*
X23777256Y-26394259D01*
X23777262Y-26394265D01*
X23969711Y-26541936D01*
X23969714Y-26541938D01*
X24179775Y-26663217D01*
X24179779Y-26663218D01*
X24179788Y-26663224D01*
X24403900Y-26756054D01*
X24638211Y-26818838D01*
X24638215Y-26818838D01*
X24638217Y-26818839D01*
X24700202Y-26826999D01*
X24878712Y-26850500D01*
X24878719Y-26850500D01*
X25121281Y-26850500D01*
X25121288Y-26850500D01*
X25338637Y-26821885D01*
X25361782Y-26818839D01*
X25361782Y-26818838D01*
X25361789Y-26818838D01*
X25596100Y-26756054D01*
X25820212Y-26663224D01*
X26030289Y-26541936D01*
X26222738Y-26394265D01*
X26394265Y-26222738D01*
X26541936Y-26030289D01*
X26663224Y-25820212D01*
X26756054Y-25596100D01*
X26818838Y-25361789D01*
X26850500Y-25121288D01*
X26850500Y-24878712D01*
X26850500Y-24878709D01*
X113149500Y-24878709D01*
X113149500Y-25121290D01*
X113181160Y-25361782D01*
X113243944Y-25596095D01*
X113243945Y-25596097D01*
X113243946Y-25596100D01*
X113336776Y-25820212D01*
X113336777Y-25820213D01*
X113336782Y-25820224D01*
X113458061Y-26030285D01*
X113458063Y-26030288D01*
X113458064Y-26030289D01*
X113605735Y-26222738D01*
X113605739Y-26222742D01*
X113605744Y-26222748D01*
X113777251Y-26394255D01*
X113777256Y-26394259D01*
X113777262Y-26394265D01*
X113969711Y-26541936D01*
X113969714Y-26541938D01*
X114179775Y-26663217D01*
X114179779Y-26663218D01*
X114179788Y-26663224D01*
X114403900Y-26756054D01*
X114638211Y-26818838D01*
X114638215Y-26818838D01*
X114638217Y-26818839D01*
X114700202Y-26826999D01*
X114878712Y-26850500D01*
X114878719Y-26850500D01*
X115121281Y-26850500D01*
X115121288Y-26850500D01*
X115338637Y-26821885D01*
X115361782Y-26818839D01*
X115361782Y-26818838D01*
X115361789Y-26818838D01*
X115596100Y-26756054D01*
X115820212Y-26663224D01*
X116030289Y-26541936D01*
X116222738Y-26394265D01*
X116394265Y-26222738D01*
X116541936Y-26030289D01*
X116663224Y-25820212D01*
X116756054Y-25596100D01*
X116818838Y-25361789D01*
X116850500Y-25121288D01*
X116850500Y-24878712D01*
X116818838Y-24638211D01*
X116756054Y-24403900D01*
X116663224Y-24179788D01*
X116663218Y-24179779D01*
X116663217Y-24179775D01*
X116541938Y-23969714D01*
X116541936Y-23969711D01*
X116394265Y-23777262D01*
X116394259Y-23777256D01*
X116394255Y-23777251D01*
X116222748Y-23605744D01*
X116222742Y-23605739D01*
X116222738Y-23605735D01*
X116030289Y-23458064D01*
X116030288Y-23458063D01*
X116030285Y-23458061D01*
X115820224Y-23336782D01*
X115820216Y-23336778D01*
X115820212Y-23336776D01*
X115596100Y-23243946D01*
X115596097Y-23243945D01*
X115596095Y-23243944D01*
X115361782Y-23181160D01*
X115121290Y-23149500D01*
X115121288Y-23149500D01*
X114878712Y-23149500D01*
X114878709Y-23149500D01*
X114638217Y-23181160D01*
X114403904Y-23243944D01*
X114403900Y-23243946D01*
X114179786Y-23336777D01*
X114179775Y-23336782D01*
X113969714Y-23458061D01*
X113777262Y-23605735D01*
X113777251Y-23605744D01*
X113605744Y-23777251D01*
X113605735Y-23777262D01*
X113458061Y-23969714D01*
X113336782Y-24179775D01*
X113336777Y-24179786D01*
X113243946Y-24403900D01*
X113243944Y-24403904D01*
X113181160Y-24638217D01*
X113149500Y-24878709D01*
X26850500Y-24878709D01*
X26818838Y-24638211D01*
X26756054Y-24403900D01*
X26663224Y-24179788D01*
X26663218Y-24179779D01*
X26663217Y-24179775D01*
X26541938Y-23969714D01*
X26541936Y-23969711D01*
X26394265Y-23777262D01*
X26394259Y-23777256D01*
X26394255Y-23777251D01*
X26222748Y-23605744D01*
X26222742Y-23605739D01*
X26222738Y-23605735D01*
X26030289Y-23458064D01*
X26030288Y-23458063D01*
X26030285Y-23458061D01*
X25820224Y-23336782D01*
X25820216Y-23336778D01*
X25820212Y-23336776D01*
X25596100Y-23243946D01*
X25596097Y-23243945D01*
X25596095Y-23243944D01*
X25361782Y-23181160D01*
X25121290Y-23149500D01*
X25121288Y-23149500D01*
X24878712Y-23149500D01*
X24878709Y-23149500D01*
X24638217Y-23181160D01*
X24403904Y-23243944D01*
X24403900Y-23243946D01*
X24179786Y-23336777D01*
X24179775Y-23336782D01*
X23969714Y-23458061D01*
X23777262Y-23605735D01*
X23777251Y-23605744D01*
X23605744Y-23777251D01*
X23605735Y-23777262D01*
X23458061Y-23969714D01*
X23336782Y-24179775D01*
X23336777Y-24179786D01*
X23243946Y-24403900D01*
X23243944Y-24403904D01*
X23181160Y-24638217D01*
X23149500Y-24878709D01*
X21000000Y-24878709D01*
X21000000Y-21126000D01*
X21020002Y-21057879D01*
X21073658Y-21011386D01*
X21126000Y-21000000D01*
X118874000Y-21000000D01*
X118942121Y-21020002D01*
G37*
%TD.AperFunction*%
%TD*%
M02*
