%TF.GenerationSoftware,KiCad,Pcbnew,10.0.5*%
%TF.CreationDate,2026-08-16T17:17:38-04:00*%
%TF.ProjectId,hr30-carrier-a-p0.1,68723330-2d63-4617-9272-6965722d612d,rev?*%
%TF.SameCoordinates,Original*%
%TF.FileFunction,Copper,L6,Bot*%
%TF.FilePolarity,Positive*%
%FSLAX46Y46*%
G04 Gerber Fmt 4.6, Leading zero omitted, Abs format (unit mm)*
G04 Created by KiCad (PCBNEW 10.0.5) date 2026-08-16 17:17:38*
%MOMM*%
%LPD*%
G01*
G04 APERTURE LIST*
G04 Aperture macros list*
%AMRoundRect*
0 Rectangle with rounded corners*
0 $1 Rounding radius*
0 $2 $3 $4 $5 $6 $7 $8 $9 X,Y pos of 4 corners*
0 Add a 4 corners polygon primitive as box body*
4,1,4,$2,$3,$4,$5,$6,$7,$8,$9,$2,$3,0*
0 Add four circle primitives for the rounded corners*
1,1,$1+$1,$2,$3*
1,1,$1+$1,$4,$5*
1,1,$1+$1,$6,$7*
1,1,$1+$1,$8,$9*
0 Add four rect primitives between the rounded corners*
20,1,$1+$1,$2,$3,$4,$5,0*
20,1,$1+$1,$4,$5,$6,$7,0*
20,1,$1+$1,$6,$7,$8,$9,0*
20,1,$1+$1,$8,$9,$2,$3,0*%
G04 Aperture macros list end*
%TA.AperFunction,SMDPad,CuDef*%
%ADD10RoundRect,0.225000X0.225000X0.250000X-0.225000X0.250000X-0.225000X-0.250000X0.225000X-0.250000X0*%
%TD*%
%TA.AperFunction,SMDPad,CuDef*%
%ADD11RoundRect,0.147500X0.147500X0.172500X-0.147500X0.172500X-0.147500X-0.172500X0.147500X-0.172500X0*%
%TD*%
%TA.AperFunction,SMDPad,CuDef*%
%ADD12R,1.000000X1.500000*%
%TD*%
%TA.AperFunction,SMDPad,CuDef*%
%ADD13RoundRect,0.200000X0.200000X0.275000X-0.200000X0.275000X-0.200000X-0.275000X0.200000X-0.275000X0*%
%TD*%
%TA.AperFunction,SMDPad,CuDef*%
%ADD14RoundRect,0.150000X0.587500X0.150000X-0.587500X0.150000X-0.587500X-0.150000X0.587500X-0.150000X0*%
%TD*%
%TA.AperFunction,ViaPad*%
%ADD15C,0.350000*%
%TD*%
%TA.AperFunction,Conductor*%
%ADD16C,0.200000*%
%TD*%
%TA.AperFunction,Conductor*%
%ADD17C,0.150000*%
%TD*%
G04 APERTURE END LIST*
D10*
%TO.P,C2A,1*%
%TO.N,CTRL_5V*%
X36975000Y-29200000D03*
%TO.P,C2A,2*%
%TO.N,CTRL_GND*%
X35425000Y-29200000D03*
%TD*%
D11*
%TO.P,FB4N,1*%
%TO.N,RS-RARM_GND2*%
X75885000Y-14000000D03*
%TO.P,FB4N,2*%
%TO.N,RS-RARM_RET*%
X74915000Y-14000000D03*
%TD*%
D12*
%TO.P,SJ4,1*%
%TO.N,RS-RARM_TERM*%
X70050000Y-7500000D03*
%TO.P,SJ4,2*%
%TO.N,RS-RARM_DN*%
X68750000Y-7500000D03*
%TD*%
D10*
%TO.P,C1B,1*%
%TO.N,CTRL_5V*%
X11775000Y-29200000D03*
%TO.P,C1B,2*%
%TO.N,CTRL_GND*%
X10225000Y-29200000D03*
%TD*%
%TO.P,C4B,1*%
%TO.N,CTRL_5V*%
X71775000Y-29200000D03*
%TO.P,C4B,2*%
%TO.N,CTRL_GND*%
X70225000Y-29200000D03*
%TD*%
%TO.P,C4E,1*%
%TO.N,RS-RARM_VISOIN*%
X71775000Y-11000000D03*
%TO.P,C4E,2*%
%TO.N,RS-RARM_RET*%
X70225000Y-11000000D03*
%TD*%
D13*
%TO.P,RT3,1*%
%TO.N,RS-LARM_DP*%
X46625000Y-7500000D03*
%TO.P,RT3,2*%
%TO.N,RS-LARM_TERM*%
X44975000Y-7500000D03*
%TD*%
D10*
%TO.P,C1C,1*%
%TO.N,CTRL_3V3*%
X6575000Y-29200000D03*
%TO.P,C1C,2*%
%TO.N,CTRL_GND*%
X5025000Y-29200000D03*
%TD*%
%TO.P,C4C,1*%
%TO.N,CTRL_3V3*%
X66575000Y-29200000D03*
%TO.P,C4C,2*%
%TO.N,CTRL_GND*%
X65025000Y-29200000D03*
%TD*%
%TO.P,C1A,1*%
%TO.N,CTRL_5V*%
X16975000Y-29200000D03*
%TO.P,C1A,2*%
%TO.N,CTRL_GND*%
X15425000Y-29200000D03*
%TD*%
D12*
%TO.P,SJ2,1*%
%TO.N,RS-RLEG_TERM*%
X30050000Y-7500000D03*
%TO.P,SJ2,2*%
%TO.N,RS-RLEG_DN*%
X28750000Y-7500000D03*
%TD*%
D10*
%TO.P,C2E,1*%
%TO.N,RS-RLEG_VISOIN*%
X31775000Y-11000000D03*
%TO.P,C2E,2*%
%TO.N,RS-RLEG_RET*%
X30225000Y-11000000D03*
%TD*%
D14*
%TO.P,D2RS,1*%
%TO.N,RS-RLEG_DP*%
X36737500Y-6550000D03*
%TO.P,D2RS,2*%
%TO.N,RS-RLEG_DN*%
X36737500Y-8450000D03*
%TO.P,D2RS,3*%
%TO.N,RS-RLEG_RET*%
X34862500Y-7500000D03*
%TD*%
%TO.P,D4RS,1*%
%TO.N,RS-RARM_DP*%
X76737500Y-6550000D03*
%TO.P,D4RS,2*%
%TO.N,RS-RARM_DN*%
X76737500Y-8450000D03*
%TO.P,D4RS,3*%
%TO.N,RS-RARM_RET*%
X74862500Y-7500000D03*
%TD*%
D13*
%TO.P,RT4,1*%
%TO.N,RS-RARM_DP*%
X66625000Y-7500000D03*
%TO.P,RT4,2*%
%TO.N,RS-RARM_TERM*%
X64975000Y-7500000D03*
%TD*%
D11*
%TO.P,FB3P,1*%
%TO.N,RS-LARM_VISOOUT*%
X53485000Y-14000000D03*
%TO.P,FB3P,2*%
%TO.N,RS-LARM_VISOIN*%
X52515000Y-14000000D03*
%TD*%
%TO.P,FB2P,1*%
%TO.N,RS-RLEG_VISOOUT*%
X33485000Y-14000000D03*
%TO.P,FB2P,2*%
%TO.N,RS-RLEG_VISOIN*%
X32515000Y-14000000D03*
%TD*%
D10*
%TO.P,C2C,1*%
%TO.N,CTRL_3V3*%
X26575000Y-29200000D03*
%TO.P,C2C,2*%
%TO.N,CTRL_GND*%
X25025000Y-29200000D03*
%TD*%
%TO.P,C3C,1*%
%TO.N,CTRL_3V3*%
X46575000Y-29200000D03*
%TO.P,C3C,2*%
%TO.N,CTRL_GND*%
X45025000Y-29200000D03*
%TD*%
%TO.P,C3B,1*%
%TO.N,CTRL_5V*%
X51775000Y-29200000D03*
%TO.P,C3B,2*%
%TO.N,CTRL_GND*%
X50225000Y-29200000D03*
%TD*%
%TO.P,C4D,1*%
%TO.N,RS-RARM_VISOOUT*%
X76775000Y-11000000D03*
%TO.P,C4D,2*%
%TO.N,RS-RARM_GND2*%
X75225000Y-11000000D03*
%TD*%
%TO.P,C3D,1*%
%TO.N,RS-LARM_VISOOUT*%
X56775000Y-11000000D03*
%TO.P,C3D,2*%
%TO.N,RS-LARM_GND2*%
X55225000Y-11000000D03*
%TD*%
%TO.P,C2D,1*%
%TO.N,RS-RLEG_VISOOUT*%
X36775000Y-11000000D03*
%TO.P,C2D,2*%
%TO.N,RS-RLEG_GND2*%
X35225000Y-11000000D03*
%TD*%
D11*
%TO.P,FB1P,1*%
%TO.N,RS-LLEG_VISOOUT*%
X13485000Y-14000000D03*
%TO.P,FB1P,2*%
%TO.N,RS-LLEG_VISOIN*%
X12515000Y-14000000D03*
%TD*%
D10*
%TO.P,C1D,1*%
%TO.N,RS-LLEG_VISOOUT*%
X16775000Y-11000000D03*
%TO.P,C1D,2*%
%TO.N,RS-LLEG_GND2*%
X15225000Y-11000000D03*
%TD*%
D13*
%TO.P,RT2,1*%
%TO.N,RS-RLEG_DP*%
X26625000Y-7500000D03*
%TO.P,RT2,2*%
%TO.N,RS-RLEG_TERM*%
X24975000Y-7500000D03*
%TD*%
D12*
%TO.P,SJ3,1*%
%TO.N,RS-LARM_TERM*%
X50050000Y-7500000D03*
%TO.P,SJ3,2*%
%TO.N,RS-LARM_DN*%
X48750000Y-7500000D03*
%TD*%
D11*
%TO.P,FB3N,1*%
%TO.N,RS-LARM_GND2*%
X55885000Y-14000000D03*
%TO.P,FB3N,2*%
%TO.N,RS-LARM_RET*%
X54915000Y-14000000D03*
%TD*%
D10*
%TO.P,C4A,1*%
%TO.N,CTRL_5V*%
X76975000Y-29200000D03*
%TO.P,C4A,2*%
%TO.N,CTRL_GND*%
X75425000Y-29200000D03*
%TD*%
D14*
%TO.P,D3RS,1*%
%TO.N,RS-LARM_DP*%
X56737500Y-6550000D03*
%TO.P,D3RS,2*%
%TO.N,RS-LARM_DN*%
X56737500Y-8450000D03*
%TO.P,D3RS,3*%
%TO.N,RS-LARM_RET*%
X54862500Y-7500000D03*
%TD*%
D10*
%TO.P,C2B,1*%
%TO.N,CTRL_5V*%
X31775000Y-29200000D03*
%TO.P,C2B,2*%
%TO.N,CTRL_GND*%
X30225000Y-29200000D03*
%TD*%
D14*
%TO.P,D1RS,1*%
%TO.N,RS-LLEG_DP*%
X16737500Y-6550000D03*
%TO.P,D1RS,2*%
%TO.N,RS-LLEG_DN*%
X16737500Y-8450000D03*
%TO.P,D1RS,3*%
%TO.N,RS-LLEG_RET*%
X14862500Y-7500000D03*
%TD*%
D11*
%TO.P,FB2N,1*%
%TO.N,RS-RLEG_GND2*%
X35885000Y-14000000D03*
%TO.P,FB2N,2*%
%TO.N,RS-RLEG_RET*%
X34915000Y-14000000D03*
%TD*%
D12*
%TO.P,SJ1,1*%
%TO.N,RS-LLEG_TERM*%
X10050000Y-7500000D03*
%TO.P,SJ1,2*%
%TO.N,RS-LLEG_DN*%
X8750000Y-7500000D03*
%TD*%
D11*
%TO.P,FB4P,1*%
%TO.N,RS-RARM_VISOOUT*%
X73485000Y-14000000D03*
%TO.P,FB4P,2*%
%TO.N,RS-RARM_VISOIN*%
X72515000Y-14000000D03*
%TD*%
D10*
%TO.P,C3A,1*%
%TO.N,CTRL_5V*%
X56975000Y-29200000D03*
%TO.P,C3A,2*%
%TO.N,CTRL_GND*%
X55425000Y-29200000D03*
%TD*%
%TO.P,C3E,1*%
%TO.N,RS-LARM_VISOIN*%
X51775000Y-11000000D03*
%TO.P,C3E,2*%
%TO.N,RS-LARM_RET*%
X50225000Y-11000000D03*
%TD*%
D13*
%TO.P,RT1,1*%
%TO.N,RS-LLEG_DP*%
X6625000Y-7500000D03*
%TO.P,RT1,2*%
%TO.N,RS-LLEG_TERM*%
X4975000Y-7500000D03*
%TD*%
D10*
%TO.P,C1E,1*%
%TO.N,RS-LLEG_VISOIN*%
X11775000Y-11000000D03*
%TO.P,C1E,2*%
%TO.N,RS-LLEG_RET*%
X10225000Y-11000000D03*
%TD*%
D11*
%TO.P,FB1N,1*%
%TO.N,RS-LLEG_GND2*%
X15885000Y-14000000D03*
%TO.P,FB1N,2*%
%TO.N,RS-LLEG_RET*%
X14915000Y-14000000D03*
%TD*%
D15*
%TO.N,CTRL_3V3*%
X4625000Y-24650000D03*
X64625000Y-24650000D03*
X24625000Y-24650000D03*
X46575000Y-30154999D03*
X34750000Y-39150000D03*
X66500000Y-29500000D03*
X44625000Y-24650000D03*
X66575000Y-30035000D03*
X6575000Y-30154999D03*
X26575000Y-30035000D03*
%TO.N,CTRL_5V*%
X56975000Y-30154999D03*
X16975000Y-30154999D03*
X71775000Y-30154999D03*
X33500000Y-39150000D03*
X15445000Y-26034999D03*
X51775000Y-30035000D03*
X55445000Y-26034999D03*
X11775000Y-30035000D03*
X31775000Y-30154999D03*
X76975000Y-30035000D03*
X57500000Y-30000000D03*
X75445000Y-26034999D03*
X36975000Y-30035000D03*
X35445000Y-26034999D03*
%TO.N,CTRL_GND*%
X65025000Y-30035000D03*
X51635000Y-26034999D03*
X17375000Y-24650000D03*
X32250000Y-39150000D03*
X11635000Y-26034999D03*
X5025000Y-30154999D03*
X10225000Y-30035000D03*
X31635000Y-26034999D03*
X45025000Y-30154999D03*
X25025000Y-30035000D03*
X70225000Y-30154999D03*
X57375000Y-24650000D03*
X30225000Y-30154999D03*
X77375000Y-24650000D03*
X75425000Y-30035000D03*
X15425000Y-30154999D03*
X71635000Y-26034999D03*
X50225000Y-30035000D03*
X55425000Y-30154999D03*
X35425000Y-30035000D03*
X37375000Y-24650000D03*
%TO.N,RS-LARM_DN*%
X46555000Y-13965000D03*
X56737500Y-9110000D03*
X47825000Y-13965000D03*
X52250000Y-6750000D03*
X48750000Y-8610000D03*
%TO.N,RS-LARM_DP*%
X51000000Y-6750000D03*
X44625000Y-15350000D03*
X46625000Y-8455000D03*
X49095000Y-13965000D03*
X56737500Y-7210000D03*
%TO.N,RS-LARM_GND2*%
X55225000Y-10165000D03*
X55885000Y-13200000D03*
X54175000Y-13965000D03*
X57375000Y-15350000D03*
%TO.N,RS-LARM_RET*%
X50225000Y-10045000D03*
X51550000Y-9550000D03*
X54915000Y-13200000D03*
X52905000Y-12865000D03*
X54862500Y-8160000D03*
X51635000Y-13965000D03*
%TO.N,RS-LARM_TERM*%
X44975000Y-8455000D03*
X50050000Y-8610000D03*
X50000000Y-8000000D03*
%TO.N,RS-LARM_VISOIN*%
X52515000Y-13200000D03*
X51775000Y-10045000D03*
X50365000Y-13965000D03*
%TO.N,RS-LARM_VISOOUT*%
X57000000Y-11000000D03*
X56775000Y-10165000D03*
X55445000Y-12865000D03*
X53485000Y-13200000D03*
%TO.N,RS-LLEG_DN*%
X12250000Y-6750000D03*
X16737500Y-9110000D03*
X7825000Y-13965000D03*
X6555000Y-13965000D03*
X8750000Y-8610000D03*
%TO.N,RS-LLEG_DP*%
X16737500Y-7210000D03*
X6625000Y-8455000D03*
X9095000Y-13965000D03*
X11000000Y-6750000D03*
X4625000Y-15350000D03*
%TO.N,RS-LLEG_GND2*%
X17375000Y-15350000D03*
X14175000Y-13965000D03*
X15225000Y-10165000D03*
X15885000Y-13200000D03*
%TO.N,RS-LLEG_RET*%
X11635000Y-13965000D03*
X11550000Y-9550000D03*
X12905000Y-12865000D03*
X10225000Y-10045000D03*
X14915000Y-13200000D03*
X14862500Y-8160000D03*
%TO.N,RS-LLEG_TERM*%
X10000000Y-8000000D03*
X4975000Y-8455000D03*
X10050000Y-8610000D03*
%TO.N,RS-LLEG_VISOIN*%
X12515000Y-12540000D03*
X10365000Y-13965000D03*
X11775000Y-10045000D03*
%TO.N,RS-LLEG_VISOOUT*%
X13485000Y-13200000D03*
X15445000Y-12865000D03*
X17000000Y-11000000D03*
X16774999Y-10165000D03*
%TO.N,RS-RARM_DN*%
X76737500Y-9229999D03*
X67825000Y-13965000D03*
X72250000Y-6750000D03*
X68750000Y-8730000D03*
X66555000Y-13965000D03*
%TO.N,RS-RARM_DP*%
X76737500Y-7330000D03*
X69095000Y-13965000D03*
X71000000Y-6750000D03*
X66625000Y-8335000D03*
X64625000Y-15350000D03*
%TO.N,RS-RARM_GND2*%
X75885000Y-13320000D03*
X74175000Y-13965000D03*
X77375000Y-15350000D03*
X75225000Y-10045000D03*
%TO.N,RS-RARM_RET*%
X74862500Y-8279999D03*
X70225000Y-10165000D03*
X71550000Y-9550000D03*
X71635000Y-13965000D03*
X74915000Y-13320000D03*
X72905000Y-12865000D03*
%TO.N,RS-RARM_TERM*%
X64974999Y-8335000D03*
X70000000Y-8000000D03*
X70050000Y-8730000D03*
%TO.N,RS-RARM_VISOIN*%
X72515000Y-13320000D03*
X70365000Y-13965000D03*
X71775000Y-10165000D03*
%TO.N,RS-RARM_VISOOUT*%
X77000000Y-10500000D03*
X76775000Y-10045000D03*
X73485000Y-13320000D03*
X75445000Y-13085000D03*
%TO.N,RS-RLEG_DN*%
X28750000Y-8730000D03*
X36737500Y-9229999D03*
X26555000Y-13965000D03*
X27825000Y-13965000D03*
X32250000Y-6750000D03*
%TO.N,RS-RLEG_DP*%
X29095000Y-13965000D03*
X26625000Y-8335000D03*
X36737500Y-7330000D03*
X24625000Y-15350000D03*
X31000000Y-6750000D03*
%TO.N,RS-RLEG_GND2*%
X35225000Y-10045000D03*
X35885000Y-13320000D03*
X37375000Y-15350000D03*
X34175000Y-13965000D03*
%TO.N,RS-RLEG_RET*%
X30225000Y-10165000D03*
X31635000Y-13965000D03*
X32905000Y-12865000D03*
X31550000Y-9550000D03*
X34862500Y-8279999D03*
X34915000Y-13320000D03*
%TO.N,RS-RLEG_TERM*%
X30050000Y-8730000D03*
X24975000Y-8335000D03*
X30000000Y-8000000D03*
%TO.N,RS-RLEG_VISOIN*%
X30365000Y-13965000D03*
X31775000Y-10165000D03*
X32515000Y-13320000D03*
%TO.N,RS-RLEG_VISOOUT*%
X33485000Y-13320000D03*
X36775000Y-10045000D03*
X37000000Y-10500000D03*
X35445000Y-13085000D03*
%TO.N,UART_RS-LARM_DIR*%
X50365000Y-26034999D03*
X48000000Y-26500000D03*
X47825000Y-26034999D03*
X46000000Y-39150000D03*
%TO.N,UART_RS-LARM_RX*%
X44750000Y-39150000D03*
X49095000Y-26034999D03*
X49000000Y-25500000D03*
%TO.N,UART_RS-LARM_TX*%
X46555000Y-26034999D03*
X43500000Y-39150000D03*
X45500000Y-26000000D03*
%TO.N,UART_RS-LLEG_DIR*%
X10365000Y-26034999D03*
X7825000Y-26034999D03*
X38500000Y-39150000D03*
X10500000Y-26500000D03*
%TO.N,UART_RS-LLEG_RX*%
X37250000Y-39150000D03*
X8500000Y-26000000D03*
X9095000Y-26034999D03*
%TO.N,UART_RS-LLEG_TX*%
X7000000Y-26500000D03*
X36000000Y-39150000D03*
X6555000Y-26034999D03*
%TO.N,UART_RS-RARM_DIR*%
X68000000Y-26500000D03*
X49750000Y-39150000D03*
X67825000Y-26034999D03*
X70365000Y-26034999D03*
%TO.N,UART_RS-RARM_RX*%
X68500000Y-26000000D03*
X48500000Y-39150000D03*
X69095000Y-26034999D03*
%TO.N,UART_RS-RARM_TX*%
X47250000Y-39150000D03*
X66555000Y-26034999D03*
X66500000Y-25500000D03*
%TO.N,UART_RS-RLEG_DIR*%
X42250000Y-39150000D03*
X30500000Y-26500000D03*
X27825000Y-26034999D03*
X30365000Y-26034999D03*
%TO.N,UART_RS-RLEG_RX*%
X41000000Y-39150000D03*
X32500000Y-31000000D03*
X29095000Y-26034999D03*
X29000000Y-25500000D03*
%TO.N,UART_RS-RLEG_TX*%
X26500000Y-25500000D03*
X34000000Y-30500000D03*
X26555000Y-26034999D03*
X39750000Y-39150000D03*
%TD*%
%TO.N,CTRL_3V3*%
D16*
X26575000Y-29200000D02*
X26575000Y-30035000D01*
X46575000Y-29200000D02*
X46575000Y-30154999D01*
X6575000Y-29200000D02*
X6575000Y-30154999D01*
X66575000Y-29200000D02*
X66575000Y-30035000D01*
%TO.N,CTRL_5V*%
X51775000Y-29200000D02*
X51775000Y-30035000D01*
X76975000Y-29200000D02*
X76975000Y-30035000D01*
X16975000Y-29200000D02*
X16975000Y-30154999D01*
X11775000Y-29200000D02*
X11775000Y-30035000D01*
X71775000Y-29200000D02*
X71775000Y-30154999D01*
X31775000Y-29200000D02*
X31775000Y-30154999D01*
X56975000Y-29200000D02*
X56975000Y-30154999D01*
X36975000Y-29200000D02*
X36975000Y-30035000D01*
%TO.N,CTRL_GND*%
X10225000Y-29200000D02*
X10225000Y-30035000D01*
X75425000Y-29200000D02*
X75425000Y-30035000D01*
X30225000Y-29200000D02*
X30225000Y-30154999D01*
X35425000Y-29200000D02*
X35425000Y-30035000D01*
X25025000Y-29200000D02*
X25025000Y-30035000D01*
X50225000Y-29200000D02*
X50225000Y-30035000D01*
X55425000Y-29200000D02*
X55425000Y-30154999D01*
X45025000Y-29200000D02*
X45025000Y-30154999D01*
X5025000Y-29200000D02*
X5025000Y-30154999D01*
X70225000Y-29200000D02*
X70225000Y-30154999D01*
X15425000Y-29200000D02*
X15425000Y-30154999D01*
X65025000Y-29200000D02*
X65025000Y-30035000D01*
%TO.N,RS-LARM_DN*%
D17*
X56737500Y-8450000D02*
X56737500Y-9110000D01*
X48750000Y-7500000D02*
X48750000Y-8610000D01*
%TO.N,RS-LARM_DP*%
X46625000Y-7500000D02*
X46625000Y-8455000D01*
X56737500Y-6550000D02*
X56737500Y-7210000D01*
%TO.N,RS-LARM_GND2*%
D16*
X55225000Y-11000000D02*
X55225000Y-10165000D01*
X55885000Y-14000000D02*
X55885000Y-13200000D01*
%TO.N,RS-LARM_RET*%
X54862500Y-7500000D02*
X54862500Y-8160000D01*
X54915000Y-14000000D02*
X54915000Y-13200000D01*
X50225000Y-11000000D02*
X50225000Y-10045000D01*
%TO.N,RS-LARM_TERM*%
D17*
X50050000Y-7500000D02*
X50050000Y-8610000D01*
X44975000Y-7500000D02*
X44975000Y-8455000D01*
%TO.N,RS-LARM_VISOIN*%
D16*
X52515000Y-14000000D02*
X52515000Y-13200000D01*
X51775000Y-11000000D02*
X51775000Y-10045000D01*
%TO.N,RS-LARM_VISOOUT*%
X56775000Y-11000000D02*
X56775000Y-10165000D01*
X53485000Y-14000000D02*
X53485000Y-13200000D01*
%TO.N,RS-LLEG_DN*%
D17*
X16737500Y-8450000D02*
X16737500Y-9110000D01*
X8750000Y-7500000D02*
X8750000Y-8610000D01*
%TO.N,RS-LLEG_DP*%
X6625000Y-7500000D02*
X6625000Y-8455000D01*
X16737500Y-6550000D02*
X16737500Y-7210000D01*
%TO.N,RS-LLEG_GND2*%
D16*
X15225000Y-11000000D02*
X15225000Y-10165000D01*
X15885000Y-14000000D02*
X15885000Y-13200000D01*
%TO.N,RS-LLEG_RET*%
X14862500Y-7500000D02*
X14862500Y-8160000D01*
X14915000Y-14000000D02*
X14915000Y-13200000D01*
X10225000Y-11000000D02*
X10225000Y-10045000D01*
%TO.N,RS-LLEG_TERM*%
D17*
X10050000Y-7500000D02*
X10050000Y-8610000D01*
X4975000Y-7500000D02*
X4975000Y-8455000D01*
%TO.N,RS-LLEG_VISOIN*%
D16*
X11775000Y-11000000D02*
X11775000Y-10045000D01*
X12515000Y-14000000D02*
X12515000Y-12540000D01*
%TO.N,RS-LLEG_VISOOUT*%
X13485000Y-14000000D02*
X13485000Y-13200000D01*
X16774999Y-11000000D02*
X16774999Y-10165000D01*
%TO.N,RS-RARM_DN*%
D17*
X76737500Y-8450000D02*
X76737500Y-9229999D01*
X68750000Y-7500000D02*
X68750000Y-8730000D01*
%TO.N,RS-RARM_DP*%
X66625000Y-7500000D02*
X66625000Y-8335000D01*
X76737500Y-6550000D02*
X76737500Y-7330000D01*
%TO.N,RS-RARM_GND2*%
D16*
X75885000Y-14000000D02*
X75885000Y-13320000D01*
X75225000Y-11000000D02*
X75225000Y-10045000D01*
%TO.N,RS-RARM_RET*%
X74862500Y-7500000D02*
X74862500Y-8279999D01*
X74915000Y-14000000D02*
X74915000Y-13320000D01*
X70225000Y-11000000D02*
X70225000Y-10165000D01*
%TO.N,RS-RARM_TERM*%
D17*
X64974999Y-7500000D02*
X64974999Y-8335000D01*
X70050000Y-7500000D02*
X70050000Y-8730000D01*
%TO.N,RS-RARM_VISOIN*%
D16*
X71775000Y-11000000D02*
X71775000Y-10165000D01*
X72515000Y-14000000D02*
X72515000Y-13320000D01*
%TO.N,RS-RARM_VISOOUT*%
X73485000Y-14000000D02*
X73485000Y-13320000D01*
X76775000Y-11000000D02*
X76775000Y-10045000D01*
%TO.N,RS-RLEG_DN*%
D17*
X28750000Y-7500000D02*
X28750000Y-8730000D01*
X36737500Y-8450000D02*
X36737500Y-9229999D01*
%TO.N,RS-RLEG_DP*%
X26625000Y-7500000D02*
X26625000Y-8335000D01*
X36737500Y-6550000D02*
X36737500Y-7330000D01*
%TO.N,RS-RLEG_GND2*%
D16*
X35885000Y-14000000D02*
X35885000Y-13320000D01*
X35225000Y-11000000D02*
X35225000Y-10045000D01*
%TO.N,RS-RLEG_RET*%
X34862500Y-7500000D02*
X34862500Y-8279999D01*
X30225000Y-11000000D02*
X30225000Y-10165000D01*
X34915000Y-14000000D02*
X34915000Y-13320000D01*
%TO.N,RS-RLEG_TERM*%
D17*
X24975000Y-7500000D02*
X24975000Y-8335000D01*
X30050000Y-7500000D02*
X30050000Y-8730000D01*
%TO.N,RS-RLEG_VISOIN*%
D16*
X32515000Y-14000000D02*
X32515000Y-13320000D01*
X31775000Y-11000000D02*
X31775000Y-10165000D01*
%TO.N,RS-RLEG_VISOOUT*%
X36775000Y-11000000D02*
X36775000Y-10045000D01*
X33485000Y-14000000D02*
X33485000Y-13320000D01*
%TD*%
M02*
