%TF.GenerationSoftware,KiCad,Pcbnew,10.0.5*%
%TF.CreationDate,2026-08-18T10:38:18-04:00*%
%TF.ProjectId,hr30-carrier-a-p0.1,68723330-2d63-4617-9272-6965722d612d,rev?*%
%TF.SameCoordinates,Original*%
%TF.FileFunction,Legend,Top*%
%TF.FilePolarity,Positive*%
%FSLAX46Y46*%
G04 Gerber Fmt 4.6, Leading zero omitted, Abs format (unit mm)*
G04 Created by KiCad (PCBNEW 10.0.5) date 2026-08-18 10:38:18*
%MOMM*%
%LPD*%
G01*
G04 APERTURE LIST*
%ADD10C,0.120000*%
G04 APERTURE END LIST*
%TO.C,U102*%
D10*
X24490000Y-16140000D02*
X24725000Y-16140000D01*
X24490000Y-23860000D02*
X24490000Y-16140000D01*
X24725000Y-23860000D02*
X24490000Y-23860000D01*
X37275000Y-16140000D02*
X37510000Y-16140000D01*
X37510000Y-16140000D02*
X37510000Y-23860000D01*
X37510000Y-23860000D02*
X37275000Y-23860000D01*
X24720000Y-24650000D02*
X24250000Y-24990000D01*
X24250000Y-24310000D01*
X24720000Y-24650000D01*
G36*
X24720000Y-24650000D02*
G01*
X24250000Y-24990000D01*
X24250000Y-24310000D01*
X24720000Y-24650000D01*
G37*
%TO.C,JCA1*%
X29890000Y-38260000D02*
X29890000Y-39860000D01*
X29890000Y-39860000D02*
X31690000Y-39860000D01*
X31160000Y-35390000D02*
X50840000Y-35390000D01*
X31690000Y-39860000D02*
X31690000Y-40800000D01*
X52110000Y-38260000D02*
X52110000Y-39860000D01*
X52110000Y-39860000D02*
X50310000Y-39860000D01*
%TO.C,U103*%
X44490000Y-16140000D02*
X44725000Y-16140000D01*
X44490000Y-23860000D02*
X44490000Y-16140000D01*
X44725000Y-23860000D02*
X44490000Y-23860000D01*
X57275000Y-16140000D02*
X57510000Y-16140000D01*
X57510000Y-16140000D02*
X57510000Y-23860000D01*
X57510000Y-23860000D02*
X57275000Y-23860000D01*
X44720000Y-24650000D02*
X44250000Y-24990000D01*
X44250000Y-24310000D01*
X44720000Y-24650000D01*
G36*
X44720000Y-24650000D02*
G01*
X44250000Y-24990000D01*
X44250000Y-24310000D01*
X44720000Y-24650000D01*
G37*
%TO.C,U101*%
X4490000Y-16140000D02*
X4725000Y-16140000D01*
X4490000Y-23860000D02*
X4490000Y-16140000D01*
X4725000Y-23860000D02*
X4490000Y-23860000D01*
X17275000Y-16140000D02*
X17510000Y-16140000D01*
X17510000Y-16140000D02*
X17510000Y-23860000D01*
X17510000Y-23860000D02*
X17275000Y-23860000D01*
X4720000Y-24650000D02*
X4250000Y-24990000D01*
X4250000Y-24310000D01*
X4720000Y-24650000D01*
G36*
X4720000Y-24650000D02*
G01*
X4250000Y-24990000D01*
X4250000Y-24310000D01*
X4720000Y-24650000D01*
G37*
%TO.C,U104*%
X64490000Y-16140000D02*
X64725000Y-16140000D01*
X64490000Y-23860000D02*
X64490000Y-16140000D01*
X64725000Y-23860000D02*
X64490000Y-23860000D01*
X77275000Y-16140000D02*
X77510000Y-16140000D01*
X77510000Y-16140000D02*
X77510000Y-23860000D01*
X77510000Y-23860000D02*
X77275000Y-23860000D01*
X64720000Y-24650000D02*
X64250000Y-24990000D01*
X64250000Y-24310000D01*
X64720000Y-24650000D01*
G36*
X64720000Y-24650000D02*
G01*
X64250000Y-24990000D01*
X64250000Y-24310000D01*
X64720000Y-24650000D01*
G37*
%TD*%
M02*
