%TF.GenerationSoftware,KiCad,Pcbnew,10.0.5*%
%TF.CreationDate,2026-08-18T10:38:18-04:00*%
%TF.ProjectId,hr30-carrier-a-p0.1,68723330-2d63-4617-9272-6965722d612d,rev?*%
%TF.SameCoordinates,Original*%
%TF.FileFunction,Soldermask,Top*%
%TF.FilePolarity,Negative*%
%FSLAX46Y46*%
G04 Gerber Fmt 4.6, Leading zero omitted, Abs format (unit mm)*
G04 Created by KiCad (PCBNEW 10.0.5) date 2026-08-18 10:38:18*
%MOMM*%
%LPD*%
G01*
G04 APERTURE LIST*
G04 APERTURE END LIST*
G36*
X32457403Y-39111418D02*
G01*
X32506066Y-39143934D01*
X32538582Y-39192597D01*
X32550000Y-39250000D01*
X32550000Y-40650000D01*
X32538582Y-40707403D01*
X32506066Y-40756066D01*
X32457403Y-40788582D01*
X32400000Y-40800000D01*
X32100000Y-40800000D01*
X32042597Y-40788582D01*
X31993934Y-40756066D01*
X31961418Y-40707403D01*
X31950000Y-40650000D01*
X31950000Y-39250000D01*
X31961418Y-39192597D01*
X31993934Y-39143934D01*
X32042597Y-39111418D01*
X32100000Y-39100000D01*
X32400000Y-39100000D01*
X32457403Y-39111418D01*
G37*
G36*
X33707403Y-39111418D02*
G01*
X33756066Y-39143934D01*
X33788582Y-39192597D01*
X33800000Y-39250000D01*
X33800000Y-40650000D01*
X33788582Y-40707403D01*
X33756066Y-40756066D01*
X33707403Y-40788582D01*
X33650000Y-40800000D01*
X33350000Y-40800000D01*
X33292597Y-40788582D01*
X33243934Y-40756066D01*
X33211418Y-40707403D01*
X33200000Y-40650000D01*
X33200000Y-39250000D01*
X33211418Y-39192597D01*
X33243934Y-39143934D01*
X33292597Y-39111418D01*
X33350000Y-39100000D01*
X33650000Y-39100000D01*
X33707403Y-39111418D01*
G37*
G36*
X34957403Y-39111418D02*
G01*
X35006066Y-39143934D01*
X35038582Y-39192597D01*
X35050000Y-39250000D01*
X35050000Y-40650000D01*
X35038582Y-40707403D01*
X35006066Y-40756066D01*
X34957403Y-40788582D01*
X34900000Y-40800000D01*
X34600000Y-40800000D01*
X34542597Y-40788582D01*
X34493934Y-40756066D01*
X34461418Y-40707403D01*
X34450000Y-40650000D01*
X34450000Y-39250000D01*
X34461418Y-39192597D01*
X34493934Y-39143934D01*
X34542597Y-39111418D01*
X34600000Y-39100000D01*
X34900000Y-39100000D01*
X34957403Y-39111418D01*
G37*
G36*
X36207403Y-39111418D02*
G01*
X36256066Y-39143934D01*
X36288582Y-39192597D01*
X36300000Y-39250000D01*
X36300000Y-40650000D01*
X36288582Y-40707403D01*
X36256066Y-40756066D01*
X36207403Y-40788582D01*
X36150000Y-40800000D01*
X35850000Y-40800000D01*
X35792597Y-40788582D01*
X35743934Y-40756066D01*
X35711418Y-40707403D01*
X35700000Y-40650000D01*
X35700000Y-39250000D01*
X35711418Y-39192597D01*
X35743934Y-39143934D01*
X35792597Y-39111418D01*
X35850000Y-39100000D01*
X36150000Y-39100000D01*
X36207403Y-39111418D01*
G37*
G36*
X37457403Y-39111418D02*
G01*
X37506066Y-39143934D01*
X37538582Y-39192597D01*
X37550000Y-39250000D01*
X37550000Y-40650000D01*
X37538582Y-40707403D01*
X37506066Y-40756066D01*
X37457403Y-40788582D01*
X37400000Y-40800000D01*
X37100000Y-40800000D01*
X37042597Y-40788582D01*
X36993934Y-40756066D01*
X36961418Y-40707403D01*
X36950000Y-40650000D01*
X36950000Y-39250000D01*
X36961418Y-39192597D01*
X36993934Y-39143934D01*
X37042597Y-39111418D01*
X37100000Y-39100000D01*
X37400000Y-39100000D01*
X37457403Y-39111418D01*
G37*
G36*
X38707403Y-39111418D02*
G01*
X38756066Y-39143934D01*
X38788582Y-39192597D01*
X38800000Y-39250000D01*
X38800000Y-40650000D01*
X38788582Y-40707403D01*
X38756066Y-40756066D01*
X38707403Y-40788582D01*
X38650000Y-40800000D01*
X38350000Y-40800000D01*
X38292597Y-40788582D01*
X38243934Y-40756066D01*
X38211418Y-40707403D01*
X38200000Y-40650000D01*
X38200000Y-39250000D01*
X38211418Y-39192597D01*
X38243934Y-39143934D01*
X38292597Y-39111418D01*
X38350000Y-39100000D01*
X38650000Y-39100000D01*
X38707403Y-39111418D01*
G37*
G36*
X39957403Y-39111418D02*
G01*
X40006066Y-39143934D01*
X40038582Y-39192597D01*
X40050000Y-39250000D01*
X40050000Y-40650000D01*
X40038582Y-40707403D01*
X40006066Y-40756066D01*
X39957403Y-40788582D01*
X39900000Y-40800000D01*
X39600000Y-40800000D01*
X39542597Y-40788582D01*
X39493934Y-40756066D01*
X39461418Y-40707403D01*
X39450000Y-40650000D01*
X39450000Y-39250000D01*
X39461418Y-39192597D01*
X39493934Y-39143934D01*
X39542597Y-39111418D01*
X39600000Y-39100000D01*
X39900000Y-39100000D01*
X39957403Y-39111418D01*
G37*
G36*
X41207403Y-39111418D02*
G01*
X41256066Y-39143934D01*
X41288582Y-39192597D01*
X41300000Y-39250000D01*
X41300000Y-40650000D01*
X41288582Y-40707403D01*
X41256066Y-40756066D01*
X41207403Y-40788582D01*
X41150000Y-40800000D01*
X40850000Y-40800000D01*
X40792597Y-40788582D01*
X40743934Y-40756066D01*
X40711418Y-40707403D01*
X40700000Y-40650000D01*
X40700000Y-39250000D01*
X40711418Y-39192597D01*
X40743934Y-39143934D01*
X40792597Y-39111418D01*
X40850000Y-39100000D01*
X41150000Y-39100000D01*
X41207403Y-39111418D01*
G37*
G36*
X42457403Y-39111418D02*
G01*
X42506066Y-39143934D01*
X42538582Y-39192597D01*
X42550000Y-39250000D01*
X42550000Y-40650000D01*
X42538582Y-40707403D01*
X42506066Y-40756066D01*
X42457403Y-40788582D01*
X42400000Y-40800000D01*
X42100000Y-40800000D01*
X42042597Y-40788582D01*
X41993934Y-40756066D01*
X41961418Y-40707403D01*
X41950000Y-40650000D01*
X41950000Y-39250000D01*
X41961418Y-39192597D01*
X41993934Y-39143934D01*
X42042597Y-39111418D01*
X42100000Y-39100000D01*
X42400000Y-39100000D01*
X42457403Y-39111418D01*
G37*
G36*
X43707403Y-39111418D02*
G01*
X43756066Y-39143934D01*
X43788582Y-39192597D01*
X43800000Y-39250000D01*
X43800000Y-40650000D01*
X43788582Y-40707403D01*
X43756066Y-40756066D01*
X43707403Y-40788582D01*
X43650000Y-40800000D01*
X43350000Y-40800000D01*
X43292597Y-40788582D01*
X43243934Y-40756066D01*
X43211418Y-40707403D01*
X43200000Y-40650000D01*
X43200000Y-39250000D01*
X43211418Y-39192597D01*
X43243934Y-39143934D01*
X43292597Y-39111418D01*
X43350000Y-39100000D01*
X43650000Y-39100000D01*
X43707403Y-39111418D01*
G37*
G36*
X44957403Y-39111418D02*
G01*
X45006066Y-39143934D01*
X45038582Y-39192597D01*
X45050000Y-39250000D01*
X45050000Y-40650000D01*
X45038582Y-40707403D01*
X45006066Y-40756066D01*
X44957403Y-40788582D01*
X44900000Y-40800000D01*
X44600000Y-40800000D01*
X44542597Y-40788582D01*
X44493934Y-40756066D01*
X44461418Y-40707403D01*
X44450000Y-40650000D01*
X44450000Y-39250000D01*
X44461418Y-39192597D01*
X44493934Y-39143934D01*
X44542597Y-39111418D01*
X44600000Y-39100000D01*
X44900000Y-39100000D01*
X44957403Y-39111418D01*
G37*
G36*
X46207403Y-39111418D02*
G01*
X46256066Y-39143934D01*
X46288582Y-39192597D01*
X46300000Y-39250000D01*
X46300000Y-40650000D01*
X46288582Y-40707403D01*
X46256066Y-40756066D01*
X46207403Y-40788582D01*
X46150000Y-40800000D01*
X45850000Y-40800000D01*
X45792597Y-40788582D01*
X45743934Y-40756066D01*
X45711418Y-40707403D01*
X45700000Y-40650000D01*
X45700000Y-39250000D01*
X45711418Y-39192597D01*
X45743934Y-39143934D01*
X45792597Y-39111418D01*
X45850000Y-39100000D01*
X46150000Y-39100000D01*
X46207403Y-39111418D01*
G37*
G36*
X47457403Y-39111418D02*
G01*
X47506066Y-39143934D01*
X47538582Y-39192597D01*
X47550000Y-39250000D01*
X47550000Y-40650000D01*
X47538582Y-40707403D01*
X47506066Y-40756066D01*
X47457403Y-40788582D01*
X47400000Y-40800000D01*
X47100000Y-40800000D01*
X47042597Y-40788582D01*
X46993934Y-40756066D01*
X46961418Y-40707403D01*
X46950000Y-40650000D01*
X46950000Y-39250000D01*
X46961418Y-39192597D01*
X46993934Y-39143934D01*
X47042597Y-39111418D01*
X47100000Y-39100000D01*
X47400000Y-39100000D01*
X47457403Y-39111418D01*
G37*
G36*
X48707403Y-39111418D02*
G01*
X48756066Y-39143934D01*
X48788582Y-39192597D01*
X48800000Y-39250000D01*
X48800000Y-40650000D01*
X48788582Y-40707403D01*
X48756066Y-40756066D01*
X48707403Y-40788582D01*
X48650000Y-40800000D01*
X48350000Y-40800000D01*
X48292597Y-40788582D01*
X48243934Y-40756066D01*
X48211418Y-40707403D01*
X48200000Y-40650000D01*
X48200000Y-39250000D01*
X48211418Y-39192597D01*
X48243934Y-39143934D01*
X48292597Y-39111418D01*
X48350000Y-39100000D01*
X48650000Y-39100000D01*
X48707403Y-39111418D01*
G37*
G36*
X49957403Y-39111418D02*
G01*
X50006066Y-39143934D01*
X50038582Y-39192597D01*
X50050000Y-39250000D01*
X50050000Y-40650000D01*
X50038582Y-40707403D01*
X50006066Y-40756066D01*
X49957403Y-40788582D01*
X49900000Y-40800000D01*
X49600000Y-40800000D01*
X49542597Y-40788582D01*
X49493934Y-40756066D01*
X49461418Y-40707403D01*
X49450000Y-40650000D01*
X49450000Y-39250000D01*
X49461418Y-39192597D01*
X49493934Y-39143934D01*
X49542597Y-39111418D01*
X49600000Y-39100000D01*
X49900000Y-39100000D01*
X49957403Y-39111418D01*
G37*
G36*
X30654047Y-35200805D02*
G01*
X30705408Y-35206764D01*
X30722954Y-35214511D01*
X30745671Y-35219030D01*
X30769991Y-35235280D01*
X30790793Y-35244465D01*
X30805000Y-35258672D01*
X30826777Y-35273223D01*
X30841327Y-35294999D01*
X30855534Y-35309206D01*
X30864718Y-35330006D01*
X30880970Y-35354329D01*
X30885489Y-35377048D01*
X30893235Y-35394591D01*
X30899192Y-35445940D01*
X30900000Y-35450000D01*
X30900000Y-37750000D01*
X30899192Y-37754059D01*
X30893235Y-37805408D01*
X30885489Y-37822950D01*
X30880970Y-37845671D01*
X30864716Y-37869995D01*
X30855534Y-37890793D01*
X30841329Y-37904997D01*
X30826777Y-37926777D01*
X30804997Y-37941329D01*
X30790793Y-37955534D01*
X30769995Y-37964716D01*
X30745671Y-37980970D01*
X30722950Y-37985489D01*
X30705408Y-37993235D01*
X30654061Y-37999192D01*
X30650000Y-38000000D01*
X30150000Y-38000000D01*
X30145941Y-37999192D01*
X30094591Y-37993235D01*
X30077048Y-37985489D01*
X30054329Y-37980970D01*
X30030006Y-37964718D01*
X30009206Y-37955534D01*
X29994999Y-37941327D01*
X29973223Y-37926777D01*
X29958672Y-37905000D01*
X29944465Y-37890793D01*
X29935280Y-37869991D01*
X29919030Y-37845671D01*
X29914511Y-37822954D01*
X29906764Y-37805408D01*
X29900805Y-37754049D01*
X29900000Y-37750000D01*
X29900000Y-35450000D01*
X29900804Y-35445953D01*
X29906764Y-35394591D01*
X29914511Y-35377043D01*
X29919030Y-35354329D01*
X29935278Y-35330010D01*
X29944465Y-35309206D01*
X29958674Y-35294996D01*
X29973223Y-35273223D01*
X29994996Y-35258674D01*
X30009206Y-35244465D01*
X30030010Y-35235278D01*
X30054329Y-35219030D01*
X30077043Y-35214511D01*
X30094591Y-35206764D01*
X30145952Y-35200805D01*
X30150000Y-35200000D01*
X30650000Y-35200000D01*
X30654047Y-35200805D01*
G37*
G36*
X51854047Y-35200805D02*
G01*
X51905408Y-35206764D01*
X51922954Y-35214511D01*
X51945671Y-35219030D01*
X51969991Y-35235280D01*
X51990793Y-35244465D01*
X52005000Y-35258672D01*
X52026777Y-35273223D01*
X52041327Y-35294999D01*
X52055534Y-35309206D01*
X52064718Y-35330006D01*
X52080970Y-35354329D01*
X52085489Y-35377048D01*
X52093235Y-35394591D01*
X52099192Y-35445940D01*
X52100000Y-35450000D01*
X52100000Y-37750000D01*
X52099192Y-37754059D01*
X52093235Y-37805408D01*
X52085489Y-37822950D01*
X52080970Y-37845671D01*
X52064716Y-37869995D01*
X52055534Y-37890793D01*
X52041329Y-37904997D01*
X52026777Y-37926777D01*
X52004997Y-37941329D01*
X51990793Y-37955534D01*
X51969995Y-37964716D01*
X51945671Y-37980970D01*
X51922950Y-37985489D01*
X51905408Y-37993235D01*
X51854061Y-37999192D01*
X51850000Y-38000000D01*
X51350000Y-38000000D01*
X51345941Y-37999192D01*
X51294591Y-37993235D01*
X51277048Y-37985489D01*
X51254329Y-37980970D01*
X51230006Y-37964718D01*
X51209206Y-37955534D01*
X51194999Y-37941327D01*
X51173223Y-37926777D01*
X51158672Y-37905000D01*
X51144465Y-37890793D01*
X51135280Y-37869991D01*
X51119030Y-37845671D01*
X51114511Y-37822954D01*
X51106764Y-37805408D01*
X51100805Y-37754049D01*
X51100000Y-37750000D01*
X51100000Y-35450000D01*
X51100804Y-35445953D01*
X51106764Y-35394591D01*
X51114511Y-35377043D01*
X51119030Y-35354329D01*
X51135278Y-35330010D01*
X51144465Y-35309206D01*
X51158674Y-35294996D01*
X51173223Y-35273223D01*
X51194996Y-35258674D01*
X51209206Y-35244465D01*
X51230010Y-35235278D01*
X51254329Y-35219030D01*
X51277043Y-35214511D01*
X51294591Y-35206764D01*
X51345952Y-35200805D01*
X51350000Y-35200000D01*
X51850000Y-35200000D01*
X51854047Y-35200805D01*
G37*
G36*
X5492403Y-23636418D02*
G01*
X5541066Y-23668934D01*
X5573582Y-23717597D01*
X5585000Y-23775000D01*
X5585000Y-25525000D01*
X5573582Y-25582403D01*
X5541066Y-25631066D01*
X5492403Y-25663582D01*
X5435000Y-25675000D01*
X5135000Y-25675000D01*
X5077597Y-25663582D01*
X5028934Y-25631066D01*
X4996418Y-25582403D01*
X4985000Y-25525000D01*
X4985000Y-23775000D01*
X4996418Y-23717597D01*
X5028934Y-23668934D01*
X5077597Y-23636418D01*
X5135000Y-23625000D01*
X5435000Y-23625000D01*
X5492403Y-23636418D01*
G37*
G36*
X6762403Y-23636418D02*
G01*
X6811066Y-23668934D01*
X6843582Y-23717597D01*
X6855000Y-23775000D01*
X6855000Y-25525000D01*
X6843582Y-25582403D01*
X6811066Y-25631066D01*
X6762403Y-25663582D01*
X6705000Y-25675000D01*
X6405000Y-25675000D01*
X6347597Y-25663582D01*
X6298934Y-25631066D01*
X6266418Y-25582403D01*
X6255000Y-25525000D01*
X6255000Y-23775000D01*
X6266418Y-23717597D01*
X6298934Y-23668934D01*
X6347597Y-23636418D01*
X6405000Y-23625000D01*
X6705000Y-23625000D01*
X6762403Y-23636418D01*
G37*
G36*
X8032403Y-23636418D02*
G01*
X8081066Y-23668934D01*
X8113582Y-23717597D01*
X8125000Y-23775000D01*
X8125000Y-25525000D01*
X8113582Y-25582403D01*
X8081066Y-25631066D01*
X8032403Y-25663582D01*
X7975000Y-25675000D01*
X7675000Y-25675000D01*
X7617597Y-25663582D01*
X7568934Y-25631066D01*
X7536418Y-25582403D01*
X7525000Y-25525000D01*
X7525000Y-23775000D01*
X7536418Y-23717597D01*
X7568934Y-23668934D01*
X7617597Y-23636418D01*
X7675000Y-23625000D01*
X7975000Y-23625000D01*
X8032403Y-23636418D01*
G37*
G36*
X9302403Y-23636418D02*
G01*
X9351066Y-23668934D01*
X9383582Y-23717597D01*
X9395000Y-23775000D01*
X9395000Y-25525000D01*
X9383582Y-25582403D01*
X9351066Y-25631066D01*
X9302403Y-25663582D01*
X9245000Y-25675000D01*
X8945000Y-25675000D01*
X8887597Y-25663582D01*
X8838934Y-25631066D01*
X8806418Y-25582403D01*
X8795000Y-25525000D01*
X8795000Y-23775000D01*
X8806418Y-23717597D01*
X8838934Y-23668934D01*
X8887597Y-23636418D01*
X8945000Y-23625000D01*
X9245000Y-23625000D01*
X9302403Y-23636418D01*
G37*
G36*
X10572403Y-23636418D02*
G01*
X10621066Y-23668934D01*
X10653582Y-23717597D01*
X10665000Y-23775000D01*
X10665000Y-25525000D01*
X10653582Y-25582403D01*
X10621066Y-25631066D01*
X10572403Y-25663582D01*
X10515000Y-25675000D01*
X10215000Y-25675000D01*
X10157597Y-25663582D01*
X10108934Y-25631066D01*
X10076418Y-25582403D01*
X10065000Y-25525000D01*
X10065000Y-23775000D01*
X10076418Y-23717597D01*
X10108934Y-23668934D01*
X10157597Y-23636418D01*
X10215000Y-23625000D01*
X10515000Y-23625000D01*
X10572403Y-23636418D01*
G37*
G36*
X11842403Y-23636418D02*
G01*
X11891066Y-23668934D01*
X11923582Y-23717597D01*
X11935000Y-23775000D01*
X11935000Y-25525000D01*
X11923582Y-25582403D01*
X11891066Y-25631066D01*
X11842403Y-25663582D01*
X11785000Y-25675000D01*
X11485000Y-25675000D01*
X11427597Y-25663582D01*
X11378934Y-25631066D01*
X11346418Y-25582403D01*
X11335000Y-25525000D01*
X11335000Y-23775000D01*
X11346418Y-23717597D01*
X11378934Y-23668934D01*
X11427597Y-23636418D01*
X11485000Y-23625000D01*
X11785000Y-23625000D01*
X11842403Y-23636418D01*
G37*
G36*
X13112403Y-23636418D02*
G01*
X13161066Y-23668934D01*
X13193582Y-23717597D01*
X13205000Y-23775000D01*
X13205000Y-25525000D01*
X13193582Y-25582403D01*
X13161066Y-25631066D01*
X13112403Y-25663582D01*
X13055000Y-25675000D01*
X12755000Y-25675000D01*
X12697597Y-25663582D01*
X12648934Y-25631066D01*
X12616418Y-25582403D01*
X12605000Y-25525000D01*
X12605000Y-23775000D01*
X12616418Y-23717597D01*
X12648934Y-23668934D01*
X12697597Y-23636418D01*
X12755000Y-23625000D01*
X13055000Y-23625000D01*
X13112403Y-23636418D01*
G37*
G36*
X14382403Y-23636418D02*
G01*
X14431066Y-23668934D01*
X14463582Y-23717597D01*
X14475000Y-23775000D01*
X14475000Y-25525000D01*
X14463582Y-25582403D01*
X14431066Y-25631066D01*
X14382403Y-25663582D01*
X14325000Y-25675000D01*
X14025000Y-25675000D01*
X13967597Y-25663582D01*
X13918934Y-25631066D01*
X13886418Y-25582403D01*
X13875000Y-25525000D01*
X13875000Y-23775000D01*
X13886418Y-23717597D01*
X13918934Y-23668934D01*
X13967597Y-23636418D01*
X14025000Y-23625000D01*
X14325000Y-23625000D01*
X14382403Y-23636418D01*
G37*
G36*
X15652403Y-23636418D02*
G01*
X15701066Y-23668934D01*
X15733582Y-23717597D01*
X15745000Y-23775000D01*
X15745000Y-25525000D01*
X15733582Y-25582403D01*
X15701066Y-25631066D01*
X15652403Y-25663582D01*
X15595000Y-25675000D01*
X15295000Y-25675000D01*
X15237597Y-25663582D01*
X15188934Y-25631066D01*
X15156418Y-25582403D01*
X15145000Y-25525000D01*
X15145000Y-23775000D01*
X15156418Y-23717597D01*
X15188934Y-23668934D01*
X15237597Y-23636418D01*
X15295000Y-23625000D01*
X15595000Y-23625000D01*
X15652403Y-23636418D01*
G37*
G36*
X16922403Y-23636418D02*
G01*
X16971066Y-23668934D01*
X17003582Y-23717597D01*
X17015000Y-23775000D01*
X17015000Y-25525000D01*
X17003582Y-25582403D01*
X16971066Y-25631066D01*
X16922403Y-25663582D01*
X16865000Y-25675000D01*
X16565000Y-25675000D01*
X16507597Y-25663582D01*
X16458934Y-25631066D01*
X16426418Y-25582403D01*
X16415000Y-25525000D01*
X16415000Y-23775000D01*
X16426418Y-23717597D01*
X16458934Y-23668934D01*
X16507597Y-23636418D01*
X16565000Y-23625000D01*
X16865000Y-23625000D01*
X16922403Y-23636418D01*
G37*
G36*
X25492403Y-23636418D02*
G01*
X25541066Y-23668934D01*
X25573582Y-23717597D01*
X25585000Y-23775000D01*
X25585000Y-25525000D01*
X25573582Y-25582403D01*
X25541066Y-25631066D01*
X25492403Y-25663582D01*
X25435000Y-25675000D01*
X25135000Y-25675000D01*
X25077597Y-25663582D01*
X25028934Y-25631066D01*
X24996418Y-25582403D01*
X24985000Y-25525000D01*
X24985000Y-23775000D01*
X24996418Y-23717597D01*
X25028934Y-23668934D01*
X25077597Y-23636418D01*
X25135000Y-23625000D01*
X25435000Y-23625000D01*
X25492403Y-23636418D01*
G37*
G36*
X26762403Y-23636418D02*
G01*
X26811066Y-23668934D01*
X26843582Y-23717597D01*
X26855000Y-23775000D01*
X26855000Y-25525000D01*
X26843582Y-25582403D01*
X26811066Y-25631066D01*
X26762403Y-25663582D01*
X26705000Y-25675000D01*
X26405000Y-25675000D01*
X26347597Y-25663582D01*
X26298934Y-25631066D01*
X26266418Y-25582403D01*
X26255000Y-25525000D01*
X26255000Y-23775000D01*
X26266418Y-23717597D01*
X26298934Y-23668934D01*
X26347597Y-23636418D01*
X26405000Y-23625000D01*
X26705000Y-23625000D01*
X26762403Y-23636418D01*
G37*
G36*
X28032403Y-23636418D02*
G01*
X28081066Y-23668934D01*
X28113582Y-23717597D01*
X28125000Y-23775000D01*
X28125000Y-25525000D01*
X28113582Y-25582403D01*
X28081066Y-25631066D01*
X28032403Y-25663582D01*
X27975000Y-25675000D01*
X27675000Y-25675000D01*
X27617597Y-25663582D01*
X27568934Y-25631066D01*
X27536418Y-25582403D01*
X27525000Y-25525000D01*
X27525000Y-23775000D01*
X27536418Y-23717597D01*
X27568934Y-23668934D01*
X27617597Y-23636418D01*
X27675000Y-23625000D01*
X27975000Y-23625000D01*
X28032403Y-23636418D01*
G37*
G36*
X29302403Y-23636418D02*
G01*
X29351066Y-23668934D01*
X29383582Y-23717597D01*
X29395000Y-23775000D01*
X29395000Y-25525000D01*
X29383582Y-25582403D01*
X29351066Y-25631066D01*
X29302403Y-25663582D01*
X29245000Y-25675000D01*
X28945000Y-25675000D01*
X28887597Y-25663582D01*
X28838934Y-25631066D01*
X28806418Y-25582403D01*
X28795000Y-25525000D01*
X28795000Y-23775000D01*
X28806418Y-23717597D01*
X28838934Y-23668934D01*
X28887597Y-23636418D01*
X28945000Y-23625000D01*
X29245000Y-23625000D01*
X29302403Y-23636418D01*
G37*
G36*
X30572403Y-23636418D02*
G01*
X30621066Y-23668934D01*
X30653582Y-23717597D01*
X30665000Y-23775000D01*
X30665000Y-25525000D01*
X30653582Y-25582403D01*
X30621066Y-25631066D01*
X30572403Y-25663582D01*
X30515000Y-25675000D01*
X30215000Y-25675000D01*
X30157597Y-25663582D01*
X30108934Y-25631066D01*
X30076418Y-25582403D01*
X30065000Y-25525000D01*
X30065000Y-23775000D01*
X30076418Y-23717597D01*
X30108934Y-23668934D01*
X30157597Y-23636418D01*
X30215000Y-23625000D01*
X30515000Y-23625000D01*
X30572403Y-23636418D01*
G37*
G36*
X31842403Y-23636418D02*
G01*
X31891066Y-23668934D01*
X31923582Y-23717597D01*
X31935000Y-23775000D01*
X31935000Y-25525000D01*
X31923582Y-25582403D01*
X31891066Y-25631066D01*
X31842403Y-25663582D01*
X31785000Y-25675000D01*
X31485000Y-25675000D01*
X31427597Y-25663582D01*
X31378934Y-25631066D01*
X31346418Y-25582403D01*
X31335000Y-25525000D01*
X31335000Y-23775000D01*
X31346418Y-23717597D01*
X31378934Y-23668934D01*
X31427597Y-23636418D01*
X31485000Y-23625000D01*
X31785000Y-23625000D01*
X31842403Y-23636418D01*
G37*
G36*
X33112403Y-23636418D02*
G01*
X33161066Y-23668934D01*
X33193582Y-23717597D01*
X33205000Y-23775000D01*
X33205000Y-25525000D01*
X33193582Y-25582403D01*
X33161066Y-25631066D01*
X33112403Y-25663582D01*
X33055000Y-25675000D01*
X32755000Y-25675000D01*
X32697597Y-25663582D01*
X32648934Y-25631066D01*
X32616418Y-25582403D01*
X32605000Y-25525000D01*
X32605000Y-23775000D01*
X32616418Y-23717597D01*
X32648934Y-23668934D01*
X32697597Y-23636418D01*
X32755000Y-23625000D01*
X33055000Y-23625000D01*
X33112403Y-23636418D01*
G37*
G36*
X34382403Y-23636418D02*
G01*
X34431066Y-23668934D01*
X34463582Y-23717597D01*
X34475000Y-23775000D01*
X34475000Y-25525000D01*
X34463582Y-25582403D01*
X34431066Y-25631066D01*
X34382403Y-25663582D01*
X34325000Y-25675000D01*
X34025000Y-25675000D01*
X33967597Y-25663582D01*
X33918934Y-25631066D01*
X33886418Y-25582403D01*
X33875000Y-25525000D01*
X33875000Y-23775000D01*
X33886418Y-23717597D01*
X33918934Y-23668934D01*
X33967597Y-23636418D01*
X34025000Y-23625000D01*
X34325000Y-23625000D01*
X34382403Y-23636418D01*
G37*
G36*
X35652403Y-23636418D02*
G01*
X35701066Y-23668934D01*
X35733582Y-23717597D01*
X35745000Y-23775000D01*
X35745000Y-25525000D01*
X35733582Y-25582403D01*
X35701066Y-25631066D01*
X35652403Y-25663582D01*
X35595000Y-25675000D01*
X35295000Y-25675000D01*
X35237597Y-25663582D01*
X35188934Y-25631066D01*
X35156418Y-25582403D01*
X35145000Y-25525000D01*
X35145000Y-23775000D01*
X35156418Y-23717597D01*
X35188934Y-23668934D01*
X35237597Y-23636418D01*
X35295000Y-23625000D01*
X35595000Y-23625000D01*
X35652403Y-23636418D01*
G37*
G36*
X36922403Y-23636418D02*
G01*
X36971066Y-23668934D01*
X37003582Y-23717597D01*
X37015000Y-23775000D01*
X37015000Y-25525000D01*
X37003582Y-25582403D01*
X36971066Y-25631066D01*
X36922403Y-25663582D01*
X36865000Y-25675000D01*
X36565000Y-25675000D01*
X36507597Y-25663582D01*
X36458934Y-25631066D01*
X36426418Y-25582403D01*
X36415000Y-25525000D01*
X36415000Y-23775000D01*
X36426418Y-23717597D01*
X36458934Y-23668934D01*
X36507597Y-23636418D01*
X36565000Y-23625000D01*
X36865000Y-23625000D01*
X36922403Y-23636418D01*
G37*
G36*
X45492403Y-23636418D02*
G01*
X45541066Y-23668934D01*
X45573582Y-23717597D01*
X45585000Y-23775000D01*
X45585000Y-25525000D01*
X45573582Y-25582403D01*
X45541066Y-25631066D01*
X45492403Y-25663582D01*
X45435000Y-25675000D01*
X45135000Y-25675000D01*
X45077597Y-25663582D01*
X45028934Y-25631066D01*
X44996418Y-25582403D01*
X44985000Y-25525000D01*
X44985000Y-23775000D01*
X44996418Y-23717597D01*
X45028934Y-23668934D01*
X45077597Y-23636418D01*
X45135000Y-23625000D01*
X45435000Y-23625000D01*
X45492403Y-23636418D01*
G37*
G36*
X46762403Y-23636418D02*
G01*
X46811066Y-23668934D01*
X46843582Y-23717597D01*
X46855000Y-23775000D01*
X46855000Y-25525000D01*
X46843582Y-25582403D01*
X46811066Y-25631066D01*
X46762403Y-25663582D01*
X46705000Y-25675000D01*
X46405000Y-25675000D01*
X46347597Y-25663582D01*
X46298934Y-25631066D01*
X46266418Y-25582403D01*
X46255000Y-25525000D01*
X46255000Y-23775000D01*
X46266418Y-23717597D01*
X46298934Y-23668934D01*
X46347597Y-23636418D01*
X46405000Y-23625000D01*
X46705000Y-23625000D01*
X46762403Y-23636418D01*
G37*
G36*
X48032403Y-23636418D02*
G01*
X48081066Y-23668934D01*
X48113582Y-23717597D01*
X48125000Y-23775000D01*
X48125000Y-25525000D01*
X48113582Y-25582403D01*
X48081066Y-25631066D01*
X48032403Y-25663582D01*
X47975000Y-25675000D01*
X47675000Y-25675000D01*
X47617597Y-25663582D01*
X47568934Y-25631066D01*
X47536418Y-25582403D01*
X47525000Y-25525000D01*
X47525000Y-23775000D01*
X47536418Y-23717597D01*
X47568934Y-23668934D01*
X47617597Y-23636418D01*
X47675000Y-23625000D01*
X47975000Y-23625000D01*
X48032403Y-23636418D01*
G37*
G36*
X49302403Y-23636418D02*
G01*
X49351066Y-23668934D01*
X49383582Y-23717597D01*
X49395000Y-23775000D01*
X49395000Y-25525000D01*
X49383582Y-25582403D01*
X49351066Y-25631066D01*
X49302403Y-25663582D01*
X49245000Y-25675000D01*
X48945000Y-25675000D01*
X48887597Y-25663582D01*
X48838934Y-25631066D01*
X48806418Y-25582403D01*
X48795000Y-25525000D01*
X48795000Y-23775000D01*
X48806418Y-23717597D01*
X48838934Y-23668934D01*
X48887597Y-23636418D01*
X48945000Y-23625000D01*
X49245000Y-23625000D01*
X49302403Y-23636418D01*
G37*
G36*
X50572403Y-23636418D02*
G01*
X50621066Y-23668934D01*
X50653582Y-23717597D01*
X50665000Y-23775000D01*
X50665000Y-25525000D01*
X50653582Y-25582403D01*
X50621066Y-25631066D01*
X50572403Y-25663582D01*
X50515000Y-25675000D01*
X50215000Y-25675000D01*
X50157597Y-25663582D01*
X50108934Y-25631066D01*
X50076418Y-25582403D01*
X50065000Y-25525000D01*
X50065000Y-23775000D01*
X50076418Y-23717597D01*
X50108934Y-23668934D01*
X50157597Y-23636418D01*
X50215000Y-23625000D01*
X50515000Y-23625000D01*
X50572403Y-23636418D01*
G37*
G36*
X51842403Y-23636418D02*
G01*
X51891066Y-23668934D01*
X51923582Y-23717597D01*
X51935000Y-23775000D01*
X51935000Y-25525000D01*
X51923582Y-25582403D01*
X51891066Y-25631066D01*
X51842403Y-25663582D01*
X51785000Y-25675000D01*
X51485000Y-25675000D01*
X51427597Y-25663582D01*
X51378934Y-25631066D01*
X51346418Y-25582403D01*
X51335000Y-25525000D01*
X51335000Y-23775000D01*
X51346418Y-23717597D01*
X51378934Y-23668934D01*
X51427597Y-23636418D01*
X51485000Y-23625000D01*
X51785000Y-23625000D01*
X51842403Y-23636418D01*
G37*
G36*
X53112403Y-23636418D02*
G01*
X53161066Y-23668934D01*
X53193582Y-23717597D01*
X53205000Y-23775000D01*
X53205000Y-25525000D01*
X53193582Y-25582403D01*
X53161066Y-25631066D01*
X53112403Y-25663582D01*
X53055000Y-25675000D01*
X52755000Y-25675000D01*
X52697597Y-25663582D01*
X52648934Y-25631066D01*
X52616418Y-25582403D01*
X52605000Y-25525000D01*
X52605000Y-23775000D01*
X52616418Y-23717597D01*
X52648934Y-23668934D01*
X52697597Y-23636418D01*
X52755000Y-23625000D01*
X53055000Y-23625000D01*
X53112403Y-23636418D01*
G37*
G36*
X54382403Y-23636418D02*
G01*
X54431066Y-23668934D01*
X54463582Y-23717597D01*
X54475000Y-23775000D01*
X54475000Y-25525000D01*
X54463582Y-25582403D01*
X54431066Y-25631066D01*
X54382403Y-25663582D01*
X54325000Y-25675000D01*
X54025000Y-25675000D01*
X53967597Y-25663582D01*
X53918934Y-25631066D01*
X53886418Y-25582403D01*
X53875000Y-25525000D01*
X53875000Y-23775000D01*
X53886418Y-23717597D01*
X53918934Y-23668934D01*
X53967597Y-23636418D01*
X54025000Y-23625000D01*
X54325000Y-23625000D01*
X54382403Y-23636418D01*
G37*
G36*
X55652403Y-23636418D02*
G01*
X55701066Y-23668934D01*
X55733582Y-23717597D01*
X55745000Y-23775000D01*
X55745000Y-25525000D01*
X55733582Y-25582403D01*
X55701066Y-25631066D01*
X55652403Y-25663582D01*
X55595000Y-25675000D01*
X55295000Y-25675000D01*
X55237597Y-25663582D01*
X55188934Y-25631066D01*
X55156418Y-25582403D01*
X55145000Y-25525000D01*
X55145000Y-23775000D01*
X55156418Y-23717597D01*
X55188934Y-23668934D01*
X55237597Y-23636418D01*
X55295000Y-23625000D01*
X55595000Y-23625000D01*
X55652403Y-23636418D01*
G37*
G36*
X56922403Y-23636418D02*
G01*
X56971066Y-23668934D01*
X57003582Y-23717597D01*
X57015000Y-23775000D01*
X57015000Y-25525000D01*
X57003582Y-25582403D01*
X56971066Y-25631066D01*
X56922403Y-25663582D01*
X56865000Y-25675000D01*
X56565000Y-25675000D01*
X56507597Y-25663582D01*
X56458934Y-25631066D01*
X56426418Y-25582403D01*
X56415000Y-25525000D01*
X56415000Y-23775000D01*
X56426418Y-23717597D01*
X56458934Y-23668934D01*
X56507597Y-23636418D01*
X56565000Y-23625000D01*
X56865000Y-23625000D01*
X56922403Y-23636418D01*
G37*
G36*
X65492403Y-23636418D02*
G01*
X65541066Y-23668934D01*
X65573582Y-23717597D01*
X65585000Y-23775000D01*
X65585000Y-25525000D01*
X65573582Y-25582403D01*
X65541066Y-25631066D01*
X65492403Y-25663582D01*
X65435000Y-25675000D01*
X65135000Y-25675000D01*
X65077597Y-25663582D01*
X65028934Y-25631066D01*
X64996418Y-25582403D01*
X64985000Y-25525000D01*
X64985000Y-23775000D01*
X64996418Y-23717597D01*
X65028934Y-23668934D01*
X65077597Y-23636418D01*
X65135000Y-23625000D01*
X65435000Y-23625000D01*
X65492403Y-23636418D01*
G37*
G36*
X66762403Y-23636418D02*
G01*
X66811066Y-23668934D01*
X66843582Y-23717597D01*
X66855000Y-23775000D01*
X66855000Y-25525000D01*
X66843582Y-25582403D01*
X66811066Y-25631066D01*
X66762403Y-25663582D01*
X66705000Y-25675000D01*
X66405000Y-25675000D01*
X66347597Y-25663582D01*
X66298934Y-25631066D01*
X66266418Y-25582403D01*
X66255000Y-25525000D01*
X66255000Y-23775000D01*
X66266418Y-23717597D01*
X66298934Y-23668934D01*
X66347597Y-23636418D01*
X66405000Y-23625000D01*
X66705000Y-23625000D01*
X66762403Y-23636418D01*
G37*
G36*
X68032403Y-23636418D02*
G01*
X68081066Y-23668934D01*
X68113582Y-23717597D01*
X68125000Y-23775000D01*
X68125000Y-25525000D01*
X68113582Y-25582403D01*
X68081066Y-25631066D01*
X68032403Y-25663582D01*
X67975000Y-25675000D01*
X67675000Y-25675000D01*
X67617597Y-25663582D01*
X67568934Y-25631066D01*
X67536418Y-25582403D01*
X67525000Y-25525000D01*
X67525000Y-23775000D01*
X67536418Y-23717597D01*
X67568934Y-23668934D01*
X67617597Y-23636418D01*
X67675000Y-23625000D01*
X67975000Y-23625000D01*
X68032403Y-23636418D01*
G37*
G36*
X69302403Y-23636418D02*
G01*
X69351066Y-23668934D01*
X69383582Y-23717597D01*
X69395000Y-23775000D01*
X69395000Y-25525000D01*
X69383582Y-25582403D01*
X69351066Y-25631066D01*
X69302403Y-25663582D01*
X69245000Y-25675000D01*
X68945000Y-25675000D01*
X68887597Y-25663582D01*
X68838934Y-25631066D01*
X68806418Y-25582403D01*
X68795000Y-25525000D01*
X68795000Y-23775000D01*
X68806418Y-23717597D01*
X68838934Y-23668934D01*
X68887597Y-23636418D01*
X68945000Y-23625000D01*
X69245000Y-23625000D01*
X69302403Y-23636418D01*
G37*
G36*
X70572403Y-23636418D02*
G01*
X70621066Y-23668934D01*
X70653582Y-23717597D01*
X70665000Y-23775000D01*
X70665000Y-25525000D01*
X70653582Y-25582403D01*
X70621066Y-25631066D01*
X70572403Y-25663582D01*
X70515000Y-25675000D01*
X70215000Y-25675000D01*
X70157597Y-25663582D01*
X70108934Y-25631066D01*
X70076418Y-25582403D01*
X70065000Y-25525000D01*
X70065000Y-23775000D01*
X70076418Y-23717597D01*
X70108934Y-23668934D01*
X70157597Y-23636418D01*
X70215000Y-23625000D01*
X70515000Y-23625000D01*
X70572403Y-23636418D01*
G37*
G36*
X71842403Y-23636418D02*
G01*
X71891066Y-23668934D01*
X71923582Y-23717597D01*
X71935000Y-23775000D01*
X71935000Y-25525000D01*
X71923582Y-25582403D01*
X71891066Y-25631066D01*
X71842403Y-25663582D01*
X71785000Y-25675000D01*
X71485000Y-25675000D01*
X71427597Y-25663582D01*
X71378934Y-25631066D01*
X71346418Y-25582403D01*
X71335000Y-25525000D01*
X71335000Y-23775000D01*
X71346418Y-23717597D01*
X71378934Y-23668934D01*
X71427597Y-23636418D01*
X71485000Y-23625000D01*
X71785000Y-23625000D01*
X71842403Y-23636418D01*
G37*
G36*
X73112403Y-23636418D02*
G01*
X73161066Y-23668934D01*
X73193582Y-23717597D01*
X73205000Y-23775000D01*
X73205000Y-25525000D01*
X73193582Y-25582403D01*
X73161066Y-25631066D01*
X73112403Y-25663582D01*
X73055000Y-25675000D01*
X72755000Y-25675000D01*
X72697597Y-25663582D01*
X72648934Y-25631066D01*
X72616418Y-25582403D01*
X72605000Y-25525000D01*
X72605000Y-23775000D01*
X72616418Y-23717597D01*
X72648934Y-23668934D01*
X72697597Y-23636418D01*
X72755000Y-23625000D01*
X73055000Y-23625000D01*
X73112403Y-23636418D01*
G37*
G36*
X74382403Y-23636418D02*
G01*
X74431066Y-23668934D01*
X74463582Y-23717597D01*
X74475000Y-23775000D01*
X74475000Y-25525000D01*
X74463582Y-25582403D01*
X74431066Y-25631066D01*
X74382403Y-25663582D01*
X74325000Y-25675000D01*
X74025000Y-25675000D01*
X73967597Y-25663582D01*
X73918934Y-25631066D01*
X73886418Y-25582403D01*
X73875000Y-25525000D01*
X73875000Y-23775000D01*
X73886418Y-23717597D01*
X73918934Y-23668934D01*
X73967597Y-23636418D01*
X74025000Y-23625000D01*
X74325000Y-23625000D01*
X74382403Y-23636418D01*
G37*
G36*
X75652403Y-23636418D02*
G01*
X75701066Y-23668934D01*
X75733582Y-23717597D01*
X75745000Y-23775000D01*
X75745000Y-25525000D01*
X75733582Y-25582403D01*
X75701066Y-25631066D01*
X75652403Y-25663582D01*
X75595000Y-25675000D01*
X75295000Y-25675000D01*
X75237597Y-25663582D01*
X75188934Y-25631066D01*
X75156418Y-25582403D01*
X75145000Y-25525000D01*
X75145000Y-23775000D01*
X75156418Y-23717597D01*
X75188934Y-23668934D01*
X75237597Y-23636418D01*
X75295000Y-23625000D01*
X75595000Y-23625000D01*
X75652403Y-23636418D01*
G37*
G36*
X76922403Y-23636418D02*
G01*
X76971066Y-23668934D01*
X77003582Y-23717597D01*
X77015000Y-23775000D01*
X77015000Y-25525000D01*
X77003582Y-25582403D01*
X76971066Y-25631066D01*
X76922403Y-25663582D01*
X76865000Y-25675000D01*
X76565000Y-25675000D01*
X76507597Y-25663582D01*
X76458934Y-25631066D01*
X76426418Y-25582403D01*
X76415000Y-25525000D01*
X76415000Y-23775000D01*
X76426418Y-23717597D01*
X76458934Y-23668934D01*
X76507597Y-23636418D01*
X76565000Y-23625000D01*
X76865000Y-23625000D01*
X76922403Y-23636418D01*
G37*
G36*
X5492403Y-14336418D02*
G01*
X5541066Y-14368934D01*
X5573582Y-14417597D01*
X5585000Y-14475000D01*
X5585000Y-16225000D01*
X5573582Y-16282403D01*
X5541066Y-16331066D01*
X5492403Y-16363582D01*
X5435000Y-16375000D01*
X5135000Y-16375000D01*
X5077597Y-16363582D01*
X5028934Y-16331066D01*
X4996418Y-16282403D01*
X4985000Y-16225000D01*
X4985000Y-14475000D01*
X4996418Y-14417597D01*
X5028934Y-14368934D01*
X5077597Y-14336418D01*
X5135000Y-14325000D01*
X5435000Y-14325000D01*
X5492403Y-14336418D01*
G37*
G36*
X6762403Y-14336418D02*
G01*
X6811066Y-14368934D01*
X6843582Y-14417597D01*
X6855000Y-14475000D01*
X6855000Y-16225000D01*
X6843582Y-16282403D01*
X6811066Y-16331066D01*
X6762403Y-16363582D01*
X6705000Y-16375000D01*
X6405000Y-16375000D01*
X6347597Y-16363582D01*
X6298934Y-16331066D01*
X6266418Y-16282403D01*
X6255000Y-16225000D01*
X6255000Y-14475000D01*
X6266418Y-14417597D01*
X6298934Y-14368934D01*
X6347597Y-14336418D01*
X6405000Y-14325000D01*
X6705000Y-14325000D01*
X6762403Y-14336418D01*
G37*
G36*
X8032403Y-14336418D02*
G01*
X8081066Y-14368934D01*
X8113582Y-14417597D01*
X8125000Y-14475000D01*
X8125000Y-16225000D01*
X8113582Y-16282403D01*
X8081066Y-16331066D01*
X8032403Y-16363582D01*
X7975000Y-16375000D01*
X7675000Y-16375000D01*
X7617597Y-16363582D01*
X7568934Y-16331066D01*
X7536418Y-16282403D01*
X7525000Y-16225000D01*
X7525000Y-14475000D01*
X7536418Y-14417597D01*
X7568934Y-14368934D01*
X7617597Y-14336418D01*
X7675000Y-14325000D01*
X7975000Y-14325000D01*
X8032403Y-14336418D01*
G37*
G36*
X9302403Y-14336418D02*
G01*
X9351066Y-14368934D01*
X9383582Y-14417597D01*
X9395000Y-14475000D01*
X9395000Y-16225000D01*
X9383582Y-16282403D01*
X9351066Y-16331066D01*
X9302403Y-16363582D01*
X9245000Y-16375000D01*
X8945000Y-16375000D01*
X8887597Y-16363582D01*
X8838934Y-16331066D01*
X8806418Y-16282403D01*
X8795000Y-16225000D01*
X8795000Y-14475000D01*
X8806418Y-14417597D01*
X8838934Y-14368934D01*
X8887597Y-14336418D01*
X8945000Y-14325000D01*
X9245000Y-14325000D01*
X9302403Y-14336418D01*
G37*
G36*
X10572403Y-14336418D02*
G01*
X10621066Y-14368934D01*
X10653582Y-14417597D01*
X10665000Y-14475000D01*
X10665000Y-16225000D01*
X10653582Y-16282403D01*
X10621066Y-16331066D01*
X10572403Y-16363582D01*
X10515000Y-16375000D01*
X10215000Y-16375000D01*
X10157597Y-16363582D01*
X10108934Y-16331066D01*
X10076418Y-16282403D01*
X10065000Y-16225000D01*
X10065000Y-14475000D01*
X10076418Y-14417597D01*
X10108934Y-14368934D01*
X10157597Y-14336418D01*
X10215000Y-14325000D01*
X10515000Y-14325000D01*
X10572403Y-14336418D01*
G37*
G36*
X11842403Y-14336418D02*
G01*
X11891066Y-14368934D01*
X11923582Y-14417597D01*
X11935000Y-14475000D01*
X11935000Y-16225000D01*
X11923582Y-16282403D01*
X11891066Y-16331066D01*
X11842403Y-16363582D01*
X11785000Y-16375000D01*
X11485000Y-16375000D01*
X11427597Y-16363582D01*
X11378934Y-16331066D01*
X11346418Y-16282403D01*
X11335000Y-16225000D01*
X11335000Y-14475000D01*
X11346418Y-14417597D01*
X11378934Y-14368934D01*
X11427597Y-14336418D01*
X11485000Y-14325000D01*
X11785000Y-14325000D01*
X11842403Y-14336418D01*
G37*
G36*
X13112403Y-14336418D02*
G01*
X13161066Y-14368934D01*
X13193582Y-14417597D01*
X13205000Y-14475000D01*
X13205000Y-16225000D01*
X13193582Y-16282403D01*
X13161066Y-16331066D01*
X13112403Y-16363582D01*
X13055000Y-16375000D01*
X12755000Y-16375000D01*
X12697597Y-16363582D01*
X12648934Y-16331066D01*
X12616418Y-16282403D01*
X12605000Y-16225000D01*
X12605000Y-14475000D01*
X12616418Y-14417597D01*
X12648934Y-14368934D01*
X12697597Y-14336418D01*
X12755000Y-14325000D01*
X13055000Y-14325000D01*
X13112403Y-14336418D01*
G37*
G36*
X14382403Y-14336418D02*
G01*
X14431066Y-14368934D01*
X14463582Y-14417597D01*
X14475000Y-14475000D01*
X14475000Y-16225000D01*
X14463582Y-16282403D01*
X14431066Y-16331066D01*
X14382403Y-16363582D01*
X14325000Y-16375000D01*
X14025000Y-16375000D01*
X13967597Y-16363582D01*
X13918934Y-16331066D01*
X13886418Y-16282403D01*
X13875000Y-16225000D01*
X13875000Y-14475000D01*
X13886418Y-14417597D01*
X13918934Y-14368934D01*
X13967597Y-14336418D01*
X14025000Y-14325000D01*
X14325000Y-14325000D01*
X14382403Y-14336418D01*
G37*
G36*
X15652403Y-14336418D02*
G01*
X15701066Y-14368934D01*
X15733582Y-14417597D01*
X15745000Y-14475000D01*
X15745000Y-16225000D01*
X15733582Y-16282403D01*
X15701066Y-16331066D01*
X15652403Y-16363582D01*
X15595000Y-16375000D01*
X15295000Y-16375000D01*
X15237597Y-16363582D01*
X15188934Y-16331066D01*
X15156418Y-16282403D01*
X15145000Y-16225000D01*
X15145000Y-14475000D01*
X15156418Y-14417597D01*
X15188934Y-14368934D01*
X15237597Y-14336418D01*
X15295000Y-14325000D01*
X15595000Y-14325000D01*
X15652403Y-14336418D01*
G37*
G36*
X16922403Y-14336418D02*
G01*
X16971066Y-14368934D01*
X17003582Y-14417597D01*
X17015000Y-14475000D01*
X17015000Y-16225000D01*
X17003582Y-16282403D01*
X16971066Y-16331066D01*
X16922403Y-16363582D01*
X16865000Y-16375000D01*
X16565000Y-16375000D01*
X16507597Y-16363582D01*
X16458934Y-16331066D01*
X16426418Y-16282403D01*
X16415000Y-16225000D01*
X16415000Y-14475000D01*
X16426418Y-14417597D01*
X16458934Y-14368934D01*
X16507597Y-14336418D01*
X16565000Y-14325000D01*
X16865000Y-14325000D01*
X16922403Y-14336418D01*
G37*
G36*
X25492403Y-14336418D02*
G01*
X25541066Y-14368934D01*
X25573582Y-14417597D01*
X25585000Y-14475000D01*
X25585000Y-16225000D01*
X25573582Y-16282403D01*
X25541066Y-16331066D01*
X25492403Y-16363582D01*
X25435000Y-16375000D01*
X25135000Y-16375000D01*
X25077597Y-16363582D01*
X25028934Y-16331066D01*
X24996418Y-16282403D01*
X24985000Y-16225000D01*
X24985000Y-14475000D01*
X24996418Y-14417597D01*
X25028934Y-14368934D01*
X25077597Y-14336418D01*
X25135000Y-14325000D01*
X25435000Y-14325000D01*
X25492403Y-14336418D01*
G37*
G36*
X26762403Y-14336418D02*
G01*
X26811066Y-14368934D01*
X26843582Y-14417597D01*
X26855000Y-14475000D01*
X26855000Y-16225000D01*
X26843582Y-16282403D01*
X26811066Y-16331066D01*
X26762403Y-16363582D01*
X26705000Y-16375000D01*
X26405000Y-16375000D01*
X26347597Y-16363582D01*
X26298934Y-16331066D01*
X26266418Y-16282403D01*
X26255000Y-16225000D01*
X26255000Y-14475000D01*
X26266418Y-14417597D01*
X26298934Y-14368934D01*
X26347597Y-14336418D01*
X26405000Y-14325000D01*
X26705000Y-14325000D01*
X26762403Y-14336418D01*
G37*
G36*
X28032403Y-14336418D02*
G01*
X28081066Y-14368934D01*
X28113582Y-14417597D01*
X28125000Y-14475000D01*
X28125000Y-16225000D01*
X28113582Y-16282403D01*
X28081066Y-16331066D01*
X28032403Y-16363582D01*
X27975000Y-16375000D01*
X27675000Y-16375000D01*
X27617597Y-16363582D01*
X27568934Y-16331066D01*
X27536418Y-16282403D01*
X27525000Y-16225000D01*
X27525000Y-14475000D01*
X27536418Y-14417597D01*
X27568934Y-14368934D01*
X27617597Y-14336418D01*
X27675000Y-14325000D01*
X27975000Y-14325000D01*
X28032403Y-14336418D01*
G37*
G36*
X29302403Y-14336418D02*
G01*
X29351066Y-14368934D01*
X29383582Y-14417597D01*
X29395000Y-14475000D01*
X29395000Y-16225000D01*
X29383582Y-16282403D01*
X29351066Y-16331066D01*
X29302403Y-16363582D01*
X29245000Y-16375000D01*
X28945000Y-16375000D01*
X28887597Y-16363582D01*
X28838934Y-16331066D01*
X28806418Y-16282403D01*
X28795000Y-16225000D01*
X28795000Y-14475000D01*
X28806418Y-14417597D01*
X28838934Y-14368934D01*
X28887597Y-14336418D01*
X28945000Y-14325000D01*
X29245000Y-14325000D01*
X29302403Y-14336418D01*
G37*
G36*
X30572403Y-14336418D02*
G01*
X30621066Y-14368934D01*
X30653582Y-14417597D01*
X30665000Y-14475000D01*
X30665000Y-16225000D01*
X30653582Y-16282403D01*
X30621066Y-16331066D01*
X30572403Y-16363582D01*
X30515000Y-16375000D01*
X30215000Y-16375000D01*
X30157597Y-16363582D01*
X30108934Y-16331066D01*
X30076418Y-16282403D01*
X30065000Y-16225000D01*
X30065000Y-14475000D01*
X30076418Y-14417597D01*
X30108934Y-14368934D01*
X30157597Y-14336418D01*
X30215000Y-14325000D01*
X30515000Y-14325000D01*
X30572403Y-14336418D01*
G37*
G36*
X31842403Y-14336418D02*
G01*
X31891066Y-14368934D01*
X31923582Y-14417597D01*
X31935000Y-14475000D01*
X31935000Y-16225000D01*
X31923582Y-16282403D01*
X31891066Y-16331066D01*
X31842403Y-16363582D01*
X31785000Y-16375000D01*
X31485000Y-16375000D01*
X31427597Y-16363582D01*
X31378934Y-16331066D01*
X31346418Y-16282403D01*
X31335000Y-16225000D01*
X31335000Y-14475000D01*
X31346418Y-14417597D01*
X31378934Y-14368934D01*
X31427597Y-14336418D01*
X31485000Y-14325000D01*
X31785000Y-14325000D01*
X31842403Y-14336418D01*
G37*
G36*
X33112403Y-14336418D02*
G01*
X33161066Y-14368934D01*
X33193582Y-14417597D01*
X33205000Y-14475000D01*
X33205000Y-16225000D01*
X33193582Y-16282403D01*
X33161066Y-16331066D01*
X33112403Y-16363582D01*
X33055000Y-16375000D01*
X32755000Y-16375000D01*
X32697597Y-16363582D01*
X32648934Y-16331066D01*
X32616418Y-16282403D01*
X32605000Y-16225000D01*
X32605000Y-14475000D01*
X32616418Y-14417597D01*
X32648934Y-14368934D01*
X32697597Y-14336418D01*
X32755000Y-14325000D01*
X33055000Y-14325000D01*
X33112403Y-14336418D01*
G37*
G36*
X34382403Y-14336418D02*
G01*
X34431066Y-14368934D01*
X34463582Y-14417597D01*
X34475000Y-14475000D01*
X34475000Y-16225000D01*
X34463582Y-16282403D01*
X34431066Y-16331066D01*
X34382403Y-16363582D01*
X34325000Y-16375000D01*
X34025000Y-16375000D01*
X33967597Y-16363582D01*
X33918934Y-16331066D01*
X33886418Y-16282403D01*
X33875000Y-16225000D01*
X33875000Y-14475000D01*
X33886418Y-14417597D01*
X33918934Y-14368934D01*
X33967597Y-14336418D01*
X34025000Y-14325000D01*
X34325000Y-14325000D01*
X34382403Y-14336418D01*
G37*
G36*
X35652403Y-14336418D02*
G01*
X35701066Y-14368934D01*
X35733582Y-14417597D01*
X35745000Y-14475000D01*
X35745000Y-16225000D01*
X35733582Y-16282403D01*
X35701066Y-16331066D01*
X35652403Y-16363582D01*
X35595000Y-16375000D01*
X35295000Y-16375000D01*
X35237597Y-16363582D01*
X35188934Y-16331066D01*
X35156418Y-16282403D01*
X35145000Y-16225000D01*
X35145000Y-14475000D01*
X35156418Y-14417597D01*
X35188934Y-14368934D01*
X35237597Y-14336418D01*
X35295000Y-14325000D01*
X35595000Y-14325000D01*
X35652403Y-14336418D01*
G37*
G36*
X36922403Y-14336418D02*
G01*
X36971066Y-14368934D01*
X37003582Y-14417597D01*
X37015000Y-14475000D01*
X37015000Y-16225000D01*
X37003582Y-16282403D01*
X36971066Y-16331066D01*
X36922403Y-16363582D01*
X36865000Y-16375000D01*
X36565000Y-16375000D01*
X36507597Y-16363582D01*
X36458934Y-16331066D01*
X36426418Y-16282403D01*
X36415000Y-16225000D01*
X36415000Y-14475000D01*
X36426418Y-14417597D01*
X36458934Y-14368934D01*
X36507597Y-14336418D01*
X36565000Y-14325000D01*
X36865000Y-14325000D01*
X36922403Y-14336418D01*
G37*
G36*
X45492403Y-14336418D02*
G01*
X45541066Y-14368934D01*
X45573582Y-14417597D01*
X45585000Y-14475000D01*
X45585000Y-16225000D01*
X45573582Y-16282403D01*
X45541066Y-16331066D01*
X45492403Y-16363582D01*
X45435000Y-16375000D01*
X45135000Y-16375000D01*
X45077597Y-16363582D01*
X45028934Y-16331066D01*
X44996418Y-16282403D01*
X44985000Y-16225000D01*
X44985000Y-14475000D01*
X44996418Y-14417597D01*
X45028934Y-14368934D01*
X45077597Y-14336418D01*
X45135000Y-14325000D01*
X45435000Y-14325000D01*
X45492403Y-14336418D01*
G37*
G36*
X46762403Y-14336418D02*
G01*
X46811066Y-14368934D01*
X46843582Y-14417597D01*
X46855000Y-14475000D01*
X46855000Y-16225000D01*
X46843582Y-16282403D01*
X46811066Y-16331066D01*
X46762403Y-16363582D01*
X46705000Y-16375000D01*
X46405000Y-16375000D01*
X46347597Y-16363582D01*
X46298934Y-16331066D01*
X46266418Y-16282403D01*
X46255000Y-16225000D01*
X46255000Y-14475000D01*
X46266418Y-14417597D01*
X46298934Y-14368934D01*
X46347597Y-14336418D01*
X46405000Y-14325000D01*
X46705000Y-14325000D01*
X46762403Y-14336418D01*
G37*
G36*
X48032403Y-14336418D02*
G01*
X48081066Y-14368934D01*
X48113582Y-14417597D01*
X48125000Y-14475000D01*
X48125000Y-16225000D01*
X48113582Y-16282403D01*
X48081066Y-16331066D01*
X48032403Y-16363582D01*
X47975000Y-16375000D01*
X47675000Y-16375000D01*
X47617597Y-16363582D01*
X47568934Y-16331066D01*
X47536418Y-16282403D01*
X47525000Y-16225000D01*
X47525000Y-14475000D01*
X47536418Y-14417597D01*
X47568934Y-14368934D01*
X47617597Y-14336418D01*
X47675000Y-14325000D01*
X47975000Y-14325000D01*
X48032403Y-14336418D01*
G37*
G36*
X49302403Y-14336418D02*
G01*
X49351066Y-14368934D01*
X49383582Y-14417597D01*
X49395000Y-14475000D01*
X49395000Y-16225000D01*
X49383582Y-16282403D01*
X49351066Y-16331066D01*
X49302403Y-16363582D01*
X49245000Y-16375000D01*
X48945000Y-16375000D01*
X48887597Y-16363582D01*
X48838934Y-16331066D01*
X48806418Y-16282403D01*
X48795000Y-16225000D01*
X48795000Y-14475000D01*
X48806418Y-14417597D01*
X48838934Y-14368934D01*
X48887597Y-14336418D01*
X48945000Y-14325000D01*
X49245000Y-14325000D01*
X49302403Y-14336418D01*
G37*
G36*
X50572403Y-14336418D02*
G01*
X50621066Y-14368934D01*
X50653582Y-14417597D01*
X50665000Y-14475000D01*
X50665000Y-16225000D01*
X50653582Y-16282403D01*
X50621066Y-16331066D01*
X50572403Y-16363582D01*
X50515000Y-16375000D01*
X50215000Y-16375000D01*
X50157597Y-16363582D01*
X50108934Y-16331066D01*
X50076418Y-16282403D01*
X50065000Y-16225000D01*
X50065000Y-14475000D01*
X50076418Y-14417597D01*
X50108934Y-14368934D01*
X50157597Y-14336418D01*
X50215000Y-14325000D01*
X50515000Y-14325000D01*
X50572403Y-14336418D01*
G37*
G36*
X51842403Y-14336418D02*
G01*
X51891066Y-14368934D01*
X51923582Y-14417597D01*
X51935000Y-14475000D01*
X51935000Y-16225000D01*
X51923582Y-16282403D01*
X51891066Y-16331066D01*
X51842403Y-16363582D01*
X51785000Y-16375000D01*
X51485000Y-16375000D01*
X51427597Y-16363582D01*
X51378934Y-16331066D01*
X51346418Y-16282403D01*
X51335000Y-16225000D01*
X51335000Y-14475000D01*
X51346418Y-14417597D01*
X51378934Y-14368934D01*
X51427597Y-14336418D01*
X51485000Y-14325000D01*
X51785000Y-14325000D01*
X51842403Y-14336418D01*
G37*
G36*
X53112403Y-14336418D02*
G01*
X53161066Y-14368934D01*
X53193582Y-14417597D01*
X53205000Y-14475000D01*
X53205000Y-16225000D01*
X53193582Y-16282403D01*
X53161066Y-16331066D01*
X53112403Y-16363582D01*
X53055000Y-16375000D01*
X52755000Y-16375000D01*
X52697597Y-16363582D01*
X52648934Y-16331066D01*
X52616418Y-16282403D01*
X52605000Y-16225000D01*
X52605000Y-14475000D01*
X52616418Y-14417597D01*
X52648934Y-14368934D01*
X52697597Y-14336418D01*
X52755000Y-14325000D01*
X53055000Y-14325000D01*
X53112403Y-14336418D01*
G37*
G36*
X54382403Y-14336418D02*
G01*
X54431066Y-14368934D01*
X54463582Y-14417597D01*
X54475000Y-14475000D01*
X54475000Y-16225000D01*
X54463582Y-16282403D01*
X54431066Y-16331066D01*
X54382403Y-16363582D01*
X54325000Y-16375000D01*
X54025000Y-16375000D01*
X53967597Y-16363582D01*
X53918934Y-16331066D01*
X53886418Y-16282403D01*
X53875000Y-16225000D01*
X53875000Y-14475000D01*
X53886418Y-14417597D01*
X53918934Y-14368934D01*
X53967597Y-14336418D01*
X54025000Y-14325000D01*
X54325000Y-14325000D01*
X54382403Y-14336418D01*
G37*
G36*
X55652403Y-14336418D02*
G01*
X55701066Y-14368934D01*
X55733582Y-14417597D01*
X55745000Y-14475000D01*
X55745000Y-16225000D01*
X55733582Y-16282403D01*
X55701066Y-16331066D01*
X55652403Y-16363582D01*
X55595000Y-16375000D01*
X55295000Y-16375000D01*
X55237597Y-16363582D01*
X55188934Y-16331066D01*
X55156418Y-16282403D01*
X55145000Y-16225000D01*
X55145000Y-14475000D01*
X55156418Y-14417597D01*
X55188934Y-14368934D01*
X55237597Y-14336418D01*
X55295000Y-14325000D01*
X55595000Y-14325000D01*
X55652403Y-14336418D01*
G37*
G36*
X56922403Y-14336418D02*
G01*
X56971066Y-14368934D01*
X57003582Y-14417597D01*
X57015000Y-14475000D01*
X57015000Y-16225000D01*
X57003582Y-16282403D01*
X56971066Y-16331066D01*
X56922403Y-16363582D01*
X56865000Y-16375000D01*
X56565000Y-16375000D01*
X56507597Y-16363582D01*
X56458934Y-16331066D01*
X56426418Y-16282403D01*
X56415000Y-16225000D01*
X56415000Y-14475000D01*
X56426418Y-14417597D01*
X56458934Y-14368934D01*
X56507597Y-14336418D01*
X56565000Y-14325000D01*
X56865000Y-14325000D01*
X56922403Y-14336418D01*
G37*
G36*
X65492403Y-14336418D02*
G01*
X65541066Y-14368934D01*
X65573582Y-14417597D01*
X65585000Y-14475000D01*
X65585000Y-16225000D01*
X65573582Y-16282403D01*
X65541066Y-16331066D01*
X65492403Y-16363582D01*
X65435000Y-16375000D01*
X65135000Y-16375000D01*
X65077597Y-16363582D01*
X65028934Y-16331066D01*
X64996418Y-16282403D01*
X64985000Y-16225000D01*
X64985000Y-14475000D01*
X64996418Y-14417597D01*
X65028934Y-14368934D01*
X65077597Y-14336418D01*
X65135000Y-14325000D01*
X65435000Y-14325000D01*
X65492403Y-14336418D01*
G37*
G36*
X66762403Y-14336418D02*
G01*
X66811066Y-14368934D01*
X66843582Y-14417597D01*
X66855000Y-14475000D01*
X66855000Y-16225000D01*
X66843582Y-16282403D01*
X66811066Y-16331066D01*
X66762403Y-16363582D01*
X66705000Y-16375000D01*
X66405000Y-16375000D01*
X66347597Y-16363582D01*
X66298934Y-16331066D01*
X66266418Y-16282403D01*
X66255000Y-16225000D01*
X66255000Y-14475000D01*
X66266418Y-14417597D01*
X66298934Y-14368934D01*
X66347597Y-14336418D01*
X66405000Y-14325000D01*
X66705000Y-14325000D01*
X66762403Y-14336418D01*
G37*
G36*
X68032403Y-14336418D02*
G01*
X68081066Y-14368934D01*
X68113582Y-14417597D01*
X68125000Y-14475000D01*
X68125000Y-16225000D01*
X68113582Y-16282403D01*
X68081066Y-16331066D01*
X68032403Y-16363582D01*
X67975000Y-16375000D01*
X67675000Y-16375000D01*
X67617597Y-16363582D01*
X67568934Y-16331066D01*
X67536418Y-16282403D01*
X67525000Y-16225000D01*
X67525000Y-14475000D01*
X67536418Y-14417597D01*
X67568934Y-14368934D01*
X67617597Y-14336418D01*
X67675000Y-14325000D01*
X67975000Y-14325000D01*
X68032403Y-14336418D01*
G37*
G36*
X69302403Y-14336418D02*
G01*
X69351066Y-14368934D01*
X69383582Y-14417597D01*
X69395000Y-14475000D01*
X69395000Y-16225000D01*
X69383582Y-16282403D01*
X69351066Y-16331066D01*
X69302403Y-16363582D01*
X69245000Y-16375000D01*
X68945000Y-16375000D01*
X68887597Y-16363582D01*
X68838934Y-16331066D01*
X68806418Y-16282403D01*
X68795000Y-16225000D01*
X68795000Y-14475000D01*
X68806418Y-14417597D01*
X68838934Y-14368934D01*
X68887597Y-14336418D01*
X68945000Y-14325000D01*
X69245000Y-14325000D01*
X69302403Y-14336418D01*
G37*
G36*
X70572403Y-14336418D02*
G01*
X70621066Y-14368934D01*
X70653582Y-14417597D01*
X70665000Y-14475000D01*
X70665000Y-16225000D01*
X70653582Y-16282403D01*
X70621066Y-16331066D01*
X70572403Y-16363582D01*
X70515000Y-16375000D01*
X70215000Y-16375000D01*
X70157597Y-16363582D01*
X70108934Y-16331066D01*
X70076418Y-16282403D01*
X70065000Y-16225000D01*
X70065000Y-14475000D01*
X70076418Y-14417597D01*
X70108934Y-14368934D01*
X70157597Y-14336418D01*
X70215000Y-14325000D01*
X70515000Y-14325000D01*
X70572403Y-14336418D01*
G37*
G36*
X71842403Y-14336418D02*
G01*
X71891066Y-14368934D01*
X71923582Y-14417597D01*
X71935000Y-14475000D01*
X71935000Y-16225000D01*
X71923582Y-16282403D01*
X71891066Y-16331066D01*
X71842403Y-16363582D01*
X71785000Y-16375000D01*
X71485000Y-16375000D01*
X71427597Y-16363582D01*
X71378934Y-16331066D01*
X71346418Y-16282403D01*
X71335000Y-16225000D01*
X71335000Y-14475000D01*
X71346418Y-14417597D01*
X71378934Y-14368934D01*
X71427597Y-14336418D01*
X71485000Y-14325000D01*
X71785000Y-14325000D01*
X71842403Y-14336418D01*
G37*
G36*
X73112403Y-14336418D02*
G01*
X73161066Y-14368934D01*
X73193582Y-14417597D01*
X73205000Y-14475000D01*
X73205000Y-16225000D01*
X73193582Y-16282403D01*
X73161066Y-16331066D01*
X73112403Y-16363582D01*
X73055000Y-16375000D01*
X72755000Y-16375000D01*
X72697597Y-16363582D01*
X72648934Y-16331066D01*
X72616418Y-16282403D01*
X72605000Y-16225000D01*
X72605000Y-14475000D01*
X72616418Y-14417597D01*
X72648934Y-14368934D01*
X72697597Y-14336418D01*
X72755000Y-14325000D01*
X73055000Y-14325000D01*
X73112403Y-14336418D01*
G37*
G36*
X74382403Y-14336418D02*
G01*
X74431066Y-14368934D01*
X74463582Y-14417597D01*
X74475000Y-14475000D01*
X74475000Y-16225000D01*
X74463582Y-16282403D01*
X74431066Y-16331066D01*
X74382403Y-16363582D01*
X74325000Y-16375000D01*
X74025000Y-16375000D01*
X73967597Y-16363582D01*
X73918934Y-16331066D01*
X73886418Y-16282403D01*
X73875000Y-16225000D01*
X73875000Y-14475000D01*
X73886418Y-14417597D01*
X73918934Y-14368934D01*
X73967597Y-14336418D01*
X74025000Y-14325000D01*
X74325000Y-14325000D01*
X74382403Y-14336418D01*
G37*
G36*
X75652403Y-14336418D02*
G01*
X75701066Y-14368934D01*
X75733582Y-14417597D01*
X75745000Y-14475000D01*
X75745000Y-16225000D01*
X75733582Y-16282403D01*
X75701066Y-16331066D01*
X75652403Y-16363582D01*
X75595000Y-16375000D01*
X75295000Y-16375000D01*
X75237597Y-16363582D01*
X75188934Y-16331066D01*
X75156418Y-16282403D01*
X75145000Y-16225000D01*
X75145000Y-14475000D01*
X75156418Y-14417597D01*
X75188934Y-14368934D01*
X75237597Y-14336418D01*
X75295000Y-14325000D01*
X75595000Y-14325000D01*
X75652403Y-14336418D01*
G37*
G36*
X76922403Y-14336418D02*
G01*
X76971066Y-14368934D01*
X77003582Y-14417597D01*
X77015000Y-14475000D01*
X77015000Y-16225000D01*
X77003582Y-16282403D01*
X76971066Y-16331066D01*
X76922403Y-16363582D01*
X76865000Y-16375000D01*
X76565000Y-16375000D01*
X76507597Y-16363582D01*
X76458934Y-16331066D01*
X76426418Y-16282403D01*
X76415000Y-16225000D01*
X76415000Y-14475000D01*
X76426418Y-14417597D01*
X76458934Y-14368934D01*
X76507597Y-14336418D01*
X76565000Y-14325000D01*
X76865000Y-14325000D01*
X76922403Y-14336418D01*
G37*
G36*
X7565936Y-1729919D02*
G01*
X7575053Y-1729919D01*
X7601314Y-1736955D01*
X7666842Y-1749989D01*
X7697777Y-1762802D01*
X7720043Y-1768769D01*
X7740006Y-1780295D01*
X7770937Y-1793107D01*
X7826489Y-1830226D01*
X7850038Y-1843822D01*
X7856483Y-1850267D01*
X7864621Y-1855705D01*
X7944294Y-1935378D01*
X7949731Y-1943515D01*
X7956178Y-1949962D01*
X7969775Y-1973514D01*
X8006892Y-2029062D01*
X8019702Y-2059989D01*
X8031231Y-2079957D01*
X8037198Y-2102226D01*
X8050010Y-2133157D01*
X8063043Y-2198682D01*
X8070081Y-2224947D01*
X8070081Y-2234063D01*
X8071990Y-2243661D01*
X8071990Y-2356338D01*
X8070081Y-2365935D01*
X8070081Y-2375053D01*
X8063042Y-2401319D01*
X8050010Y-2466842D01*
X8037198Y-2497770D01*
X8031231Y-2520043D01*
X8019701Y-2540012D01*
X8006892Y-2570937D01*
X7969780Y-2626478D01*
X7956178Y-2650038D01*
X7949728Y-2656487D01*
X7944294Y-2664621D01*
X7864621Y-2744294D01*
X7856487Y-2749728D01*
X7850038Y-2756178D01*
X7826478Y-2769780D01*
X7770937Y-2806892D01*
X7740012Y-2819701D01*
X7720043Y-2831231D01*
X7697770Y-2837198D01*
X7666842Y-2850010D01*
X7601319Y-2863042D01*
X7575053Y-2870081D01*
X7565935Y-2870081D01*
X7556338Y-2871990D01*
X7443662Y-2871990D01*
X7434064Y-2870081D01*
X7424947Y-2870081D01*
X7398681Y-2863043D01*
X7333157Y-2850010D01*
X7302226Y-2837198D01*
X7279957Y-2831231D01*
X7259989Y-2819702D01*
X7229062Y-2806892D01*
X7173514Y-2769775D01*
X7149962Y-2756178D01*
X7143515Y-2749731D01*
X7135378Y-2744294D01*
X7055705Y-2664621D01*
X7050267Y-2656483D01*
X7043822Y-2650038D01*
X7030226Y-2626489D01*
X6993107Y-2570937D01*
X6980295Y-2540006D01*
X6968769Y-2520043D01*
X6962802Y-2497777D01*
X6949989Y-2466842D01*
X6936955Y-2401314D01*
X6929919Y-2375053D01*
X6929919Y-2365935D01*
X6928010Y-2356338D01*
X6928010Y-2243661D01*
X6929919Y-2234063D01*
X6929919Y-2224947D01*
X6936954Y-2198688D01*
X6949989Y-2133157D01*
X6962803Y-2102220D01*
X6968769Y-2079957D01*
X6980293Y-2059995D01*
X6993107Y-2029062D01*
X7030230Y-1973503D01*
X7043822Y-1949962D01*
X7050265Y-1943518D01*
X7055705Y-1935378D01*
X7135378Y-1855705D01*
X7143518Y-1850265D01*
X7149962Y-1843822D01*
X7173503Y-1830230D01*
X7229062Y-1793107D01*
X7259995Y-1780293D01*
X7279957Y-1768769D01*
X7302220Y-1762803D01*
X7333157Y-1749989D01*
X7398687Y-1736955D01*
X7424947Y-1729919D01*
X7434064Y-1729919D01*
X7443662Y-1728010D01*
X7556338Y-1728010D01*
X7565936Y-1729919D01*
G37*
G36*
X27565936Y-1729919D02*
G01*
X27575053Y-1729919D01*
X27601314Y-1736955D01*
X27666842Y-1749989D01*
X27697777Y-1762802D01*
X27720043Y-1768769D01*
X27740006Y-1780295D01*
X27770937Y-1793107D01*
X27826489Y-1830226D01*
X27850038Y-1843822D01*
X27856483Y-1850267D01*
X27864621Y-1855705D01*
X27944294Y-1935378D01*
X27949731Y-1943515D01*
X27956178Y-1949962D01*
X27969775Y-1973514D01*
X28006892Y-2029062D01*
X28019702Y-2059989D01*
X28031231Y-2079957D01*
X28037198Y-2102226D01*
X28050010Y-2133157D01*
X28063043Y-2198682D01*
X28070081Y-2224947D01*
X28070081Y-2234063D01*
X28071990Y-2243661D01*
X28071990Y-2356338D01*
X28070081Y-2365935D01*
X28070081Y-2375053D01*
X28063042Y-2401319D01*
X28050010Y-2466842D01*
X28037198Y-2497770D01*
X28031231Y-2520043D01*
X28019701Y-2540012D01*
X28006892Y-2570937D01*
X27969780Y-2626478D01*
X27956178Y-2650038D01*
X27949728Y-2656487D01*
X27944294Y-2664621D01*
X27864621Y-2744294D01*
X27856487Y-2749728D01*
X27850038Y-2756178D01*
X27826478Y-2769780D01*
X27770937Y-2806892D01*
X27740012Y-2819701D01*
X27720043Y-2831231D01*
X27697770Y-2837198D01*
X27666842Y-2850010D01*
X27601319Y-2863042D01*
X27575053Y-2870081D01*
X27565935Y-2870081D01*
X27556338Y-2871990D01*
X27443662Y-2871990D01*
X27434064Y-2870081D01*
X27424947Y-2870081D01*
X27398681Y-2863043D01*
X27333157Y-2850010D01*
X27302226Y-2837198D01*
X27279957Y-2831231D01*
X27259989Y-2819702D01*
X27229062Y-2806892D01*
X27173514Y-2769775D01*
X27149962Y-2756178D01*
X27143515Y-2749731D01*
X27135378Y-2744294D01*
X27055705Y-2664621D01*
X27050267Y-2656483D01*
X27043822Y-2650038D01*
X27030226Y-2626489D01*
X26993107Y-2570937D01*
X26980295Y-2540006D01*
X26968769Y-2520043D01*
X26962802Y-2497777D01*
X26949989Y-2466842D01*
X26936955Y-2401314D01*
X26929919Y-2375053D01*
X26929919Y-2365935D01*
X26928010Y-2356338D01*
X26928010Y-2243661D01*
X26929919Y-2234063D01*
X26929919Y-2224947D01*
X26936954Y-2198688D01*
X26949989Y-2133157D01*
X26962803Y-2102220D01*
X26968769Y-2079957D01*
X26980293Y-2059995D01*
X26993107Y-2029062D01*
X27030230Y-1973503D01*
X27043822Y-1949962D01*
X27050265Y-1943518D01*
X27055705Y-1935378D01*
X27135378Y-1855705D01*
X27143518Y-1850265D01*
X27149962Y-1843822D01*
X27173503Y-1830230D01*
X27229062Y-1793107D01*
X27259995Y-1780293D01*
X27279957Y-1768769D01*
X27302220Y-1762803D01*
X27333157Y-1749989D01*
X27398687Y-1736955D01*
X27424947Y-1729919D01*
X27434064Y-1729919D01*
X27443662Y-1728010D01*
X27556338Y-1728010D01*
X27565936Y-1729919D01*
G37*
G36*
X47565936Y-1729919D02*
G01*
X47575053Y-1729919D01*
X47601314Y-1736955D01*
X47666842Y-1749989D01*
X47697777Y-1762802D01*
X47720043Y-1768769D01*
X47740006Y-1780295D01*
X47770937Y-1793107D01*
X47826489Y-1830226D01*
X47850038Y-1843822D01*
X47856483Y-1850267D01*
X47864621Y-1855705D01*
X47944294Y-1935378D01*
X47949731Y-1943515D01*
X47956178Y-1949962D01*
X47969775Y-1973514D01*
X48006892Y-2029062D01*
X48019702Y-2059989D01*
X48031231Y-2079957D01*
X48037198Y-2102226D01*
X48050010Y-2133157D01*
X48063043Y-2198682D01*
X48070081Y-2224947D01*
X48070081Y-2234063D01*
X48071990Y-2243661D01*
X48071990Y-2356338D01*
X48070081Y-2365935D01*
X48070081Y-2375053D01*
X48063042Y-2401319D01*
X48050010Y-2466842D01*
X48037198Y-2497770D01*
X48031231Y-2520043D01*
X48019701Y-2540012D01*
X48006892Y-2570937D01*
X47969780Y-2626478D01*
X47956178Y-2650038D01*
X47949728Y-2656487D01*
X47944294Y-2664621D01*
X47864621Y-2744294D01*
X47856487Y-2749728D01*
X47850038Y-2756178D01*
X47826478Y-2769780D01*
X47770937Y-2806892D01*
X47740012Y-2819701D01*
X47720043Y-2831231D01*
X47697770Y-2837198D01*
X47666842Y-2850010D01*
X47601319Y-2863042D01*
X47575053Y-2870081D01*
X47565935Y-2870081D01*
X47556338Y-2871990D01*
X47443662Y-2871990D01*
X47434064Y-2870081D01*
X47424947Y-2870081D01*
X47398681Y-2863043D01*
X47333157Y-2850010D01*
X47302226Y-2837198D01*
X47279957Y-2831231D01*
X47259989Y-2819702D01*
X47229062Y-2806892D01*
X47173514Y-2769775D01*
X47149962Y-2756178D01*
X47143515Y-2749731D01*
X47135378Y-2744294D01*
X47055705Y-2664621D01*
X47050267Y-2656483D01*
X47043822Y-2650038D01*
X47030226Y-2626489D01*
X46993107Y-2570937D01*
X46980295Y-2540006D01*
X46968769Y-2520043D01*
X46962802Y-2497777D01*
X46949989Y-2466842D01*
X46936955Y-2401314D01*
X46929919Y-2375053D01*
X46929919Y-2365935D01*
X46928010Y-2356338D01*
X46928010Y-2243661D01*
X46929919Y-2234063D01*
X46929919Y-2224947D01*
X46936954Y-2198688D01*
X46949989Y-2133157D01*
X46962803Y-2102220D01*
X46968769Y-2079957D01*
X46980293Y-2059995D01*
X46993107Y-2029062D01*
X47030230Y-1973503D01*
X47043822Y-1949962D01*
X47050265Y-1943518D01*
X47055705Y-1935378D01*
X47135378Y-1855705D01*
X47143518Y-1850265D01*
X47149962Y-1843822D01*
X47173503Y-1830230D01*
X47229062Y-1793107D01*
X47259995Y-1780293D01*
X47279957Y-1768769D01*
X47302220Y-1762803D01*
X47333157Y-1749989D01*
X47398687Y-1736955D01*
X47424947Y-1729919D01*
X47434064Y-1729919D01*
X47443662Y-1728010D01*
X47556338Y-1728010D01*
X47565936Y-1729919D01*
G37*
G36*
X67565936Y-1729919D02*
G01*
X67575053Y-1729919D01*
X67601314Y-1736955D01*
X67666842Y-1749989D01*
X67697777Y-1762802D01*
X67720043Y-1768769D01*
X67740006Y-1780295D01*
X67770937Y-1793107D01*
X67826489Y-1830226D01*
X67850038Y-1843822D01*
X67856483Y-1850267D01*
X67864621Y-1855705D01*
X67944294Y-1935378D01*
X67949731Y-1943515D01*
X67956178Y-1949962D01*
X67969775Y-1973514D01*
X68006892Y-2029062D01*
X68019702Y-2059989D01*
X68031231Y-2079957D01*
X68037198Y-2102226D01*
X68050010Y-2133157D01*
X68063043Y-2198682D01*
X68070081Y-2224947D01*
X68070081Y-2234063D01*
X68071990Y-2243661D01*
X68071990Y-2356338D01*
X68070081Y-2365935D01*
X68070081Y-2375053D01*
X68063042Y-2401319D01*
X68050010Y-2466842D01*
X68037198Y-2497770D01*
X68031231Y-2520043D01*
X68019701Y-2540012D01*
X68006892Y-2570937D01*
X67969780Y-2626478D01*
X67956178Y-2650038D01*
X67949728Y-2656487D01*
X67944294Y-2664621D01*
X67864621Y-2744294D01*
X67856487Y-2749728D01*
X67850038Y-2756178D01*
X67826478Y-2769780D01*
X67770937Y-2806892D01*
X67740012Y-2819701D01*
X67720043Y-2831231D01*
X67697770Y-2837198D01*
X67666842Y-2850010D01*
X67601319Y-2863042D01*
X67575053Y-2870081D01*
X67565935Y-2870081D01*
X67556338Y-2871990D01*
X67443662Y-2871990D01*
X67434064Y-2870081D01*
X67424947Y-2870081D01*
X67398681Y-2863043D01*
X67333157Y-2850010D01*
X67302226Y-2837198D01*
X67279957Y-2831231D01*
X67259989Y-2819702D01*
X67229062Y-2806892D01*
X67173514Y-2769775D01*
X67149962Y-2756178D01*
X67143515Y-2749731D01*
X67135378Y-2744294D01*
X67055705Y-2664621D01*
X67050267Y-2656483D01*
X67043822Y-2650038D01*
X67030226Y-2626489D01*
X66993107Y-2570937D01*
X66980295Y-2540006D01*
X66968769Y-2520043D01*
X66962802Y-2497777D01*
X66949989Y-2466842D01*
X66936955Y-2401314D01*
X66929919Y-2375053D01*
X66929919Y-2365935D01*
X66928010Y-2356338D01*
X66928010Y-2243661D01*
X66929919Y-2234063D01*
X66929919Y-2224947D01*
X66936954Y-2198688D01*
X66949989Y-2133157D01*
X66962803Y-2102220D01*
X66968769Y-2079957D01*
X66980293Y-2059995D01*
X66993107Y-2029062D01*
X67030230Y-1973503D01*
X67043822Y-1949962D01*
X67050265Y-1943518D01*
X67055705Y-1935378D01*
X67135378Y-1855705D01*
X67143518Y-1850265D01*
X67149962Y-1843822D01*
X67173503Y-1830230D01*
X67229062Y-1793107D01*
X67259995Y-1780293D01*
X67279957Y-1768769D01*
X67302220Y-1762803D01*
X67333157Y-1749989D01*
X67398687Y-1736955D01*
X67424947Y-1729919D01*
X67434064Y-1729919D01*
X67443662Y-1728010D01*
X67556338Y-1728010D01*
X67565936Y-1729919D01*
G37*
M02*
