DBRep_DrawableShape

CASCADE Topology V1, (c) Matra-Datavision
Locations 0
Curve2ds 444
1 0 0 0 1 
1 77.5 -1 1 0 
1 -2.8000000000000007 -16.299999999999997 0 1 
8 -1.2600000000000007 0.25999999999999979
1 93.799999999999997 -1.2599999999999998 0 1 
8 -1.2600000000000007 0.25999999999999979
1 0.19999999999999929 -1.2600000000000007 0 -1 
1 0.19999999999999929 -1.2600000000000007 0 -1 
8 -46.899999999999999 -43.899999999999999
1 46.899999999999999 -2.5200000000000005 -1 0 
8 -46.899999999999999 -43.899999999999999
1 -2.8000000000000007 -46.899999999999999 -0 -1 
8 -5.999999999062311e-07 1.5200006000000004
1 92.722967038573103 -2.5200000000000005 0 1 
8 -5.999999999062311e-07 1.5200006000000004
1 3.5088006741476305 0 0 1 
1 0 -1.5200000000000005 1 0 
1 0 0 1 0 
1 -0.19999999999999929 16.299999999999997 1 0 
1 -3 0 1 0 
1 0 -1.5200000000000005 1 0 
1 0 0.52000000000000002 1 0 
2 2.8000000000000007 16.299999999999997 1 0 -0 1 2
2 0 0 1 0 -0 1 2
1 0 0 0 1 
1 0 1.5200000000000005 1 0 
1 2.8000000000000007 13.299999999999997 0 1 
1 0 -3 0 1 
1 0 1.5200000000000005 1 0 
1 0 1.52 1 0 
2 0 0 1 0 -0 1 3
2 3 3 1 0 -0 1 3
2 2.8000000000000007 16.299999999999997 1 0 -0 1 3
1 0 0 1 0 
1 0 0 1 0 
1 -3 0 1 0 
1 0 0 1 0 
1 2 0 0 -1 
1 0 0 0 1 
8 0 0.99999999999999911
1 3.1415926535897931 0 0 1 
8 0 0.99999999999999911
1 3.1415926535897931 0 0 1 
1 2 0 0 -1 
1 -2 0 1 0 
1 0 0 1 0 
1 1 -1.0000000000000009 1 0 
1 1 -1.0000000000000009 1 0 
1 3.1415926535900001 0 0 1 
1 0 0 0 1 
1 1 -1.0000000000000009 0 -1 
1 1 -1.0000000000000009 0 -1 
1 0 0 1 0 
2 0 0 1 0 -0 1 1
2 0 0 1 0 -0 1 1
2 3 3 1 0 -0 1 1
8 3.1415926535897931 4.7123889803846897
1 0 0 1 0 
1 0 0 0 1 
1 0 0 1 0 
1 0 0 1 0 
1 0 -3 0 1 
1 0 0 1 0 
2 0 0 1 0 -0 1 3
2 3 3 1 0 -0 1 3
1 0 0 0 -1 
1 0 0 0 1 
8 0 1.5200000000000005
1 4.7123889803846897 0 0 1 
1 0 0 0 1 
1 0 0 1 0 
2 0 0 1 0 -0 1 2
1 4.7123889803849996 0 0 1 
1 0 0 0 -1 
1 1 1.0000000000000009 0 1 
1 1 1.0000000000000009 0 1 
1 0 -2 0 1 
1 0 0 0 1 
1 1 1.0000000000000009 1 0 
1 1 1.0000000000000009 1 0 
1 0 0 0 -1 
1 2 0 0 1 
8 0 0.99999999999999911
1 4.7123889803846897 0 0 1 
8 0 0.99999999999999911
1 4.7123889803846897 0 0 1 
1 2 0 0 1 
1 0 1 1 0 
2 0 0 1 0 -0 1 1
2 1 0 1 0 -0 1 1
2 1 0 1 0 -0 1 1
2 1 0 1 0 -0 1 1
2 1 0 1 0 -0 1 1
2 1 0 1 0 -0 1 1
1 0 0.99999999999999911 1 0 
2 0 0 1 0 -0 1 1
1 0.19999999999999929 -16.299999999999997 0 1 
8 -1.2600000000000007 0.25999999999999979
1 102.2 -1.2599999999999998 0 1 
8 -1.2600000000000007 0.25999999999999979
1 0.19999999999999929 -1.2600000000000007 0 -1 
1 0.19999999999999929 -1.2600000000000007 0 -1 
8 -55.299999999999997 -46.899999999999999
1 46.899999999999999 -2.5200000000000005 -1 0 
8 -55.299999999999997 -46.899999999999999
1 0.19999999999999929 -46.899999999999999 0 -1 
1 0 -1.5200000000000005 1 0 
1 0 8.3999999999999986 1 0 
1 -0.19999999999999929 24.699999999999996 1 0 
1 -3 -7.1054273576010019e-15 1 0 
1 0 -1.5200000000000005 1 0 
1 0.80000000000000071 8.1499999999999986 0 1 
1 -8.1499999999999986 0.51999999999999957 1 0 
1 1 -8.1499999999999986 0 1 
1 0 0 1 0 
1 0 8.3999999999999986 1 0 
1 0 0 1 0 
1 -3 -7.1054273576010019e-15 1 0 
1 2 0 0 -1 
1 8.3999999999999986 0 0 1 
8 0 0.99999999999999911
1 3.1415926535897931 0 0 1 
8 0 0.99999999999999911
1 3.1415926535897931 0 0 1 
1 2 0 0 -1 
1 -2 0 1 0 
1 0 8.4000000000000057 1 0 
1 1 -1.0000000000000009 1 0 
1 1 -1.0000000000000009 1 0 
1 3.1415926535900001 0 0 1 
1 8.4000000000000057 0 0 1 
1 1 -1.0000000000000009 0 -1 
1 1 -1.0000000000000009 0 -1 
1 2 0 0 1 
1 0 0 1 0 
1 0 0 0 1 
1 0 0 1 0 
1 0 0 0 1 
1 0 0.99999999999999911 1 0 
1 0 0 0 1 
1 0 0 0 1 
1 0 0 0 1 
1 0 0 0 1 
1 0 0 0 1 
1 1 0 0 1 
1 0 0.99999999999999911 1 0 
1 1 0 0 1 
1 0 0.99999999999999911 1 0 
1 1 0 0 1 
1 0 0.99999999999999911 1 0 
2 2 8.4000000000000057 1 0 -0 1 2
2 2 8.4000000000000057 1 0 -0 1 2
2 2 0 1 0 -0 1 2
2 2 0 1 0 -0 1 2
1 -2.8000000000000007 -24.700000000000003 0 1 
8 -5.999999999062311e-07 1.5200006000000004
1 103.2770329614269 -2.5200000000000005 0 1 
8 -5.999999999062311e-07 1.5200006000000004
1 2.7743846330319557 0 0 1 
8 -54.100000000000001 -51.100000000000001
1 51.100000000000001 -2.5200000000000005 -1 0 
8 -54.100000000000001 -51.100000000000001
1 -2.8000000000000007 -51.100000000000001 -0 -1 
1 0 1.52 1 0 
2 0 0 1 0 -0 1 3
2 3 0 1 0 -0 1 3
2 2.8000000000000007 24.700000000000003 1 0 -0 1 3
1 0 0 0 1 
1 0 1.5200000000000005 1 0 
1 2.8000000000000007 25.700000000000003 0 1 
1 0 1 0 1 
1 1 1.5200000000000005 1 0 
1 0 0.52000000000000002 1 0 
2 2.8000000000000007 24.700000000000003 1 0 -0 1 2
2 0 0 1 0 -0 1 2
1 0 0 1 0 
2 0 0 1 0 -0 1 3
2 3 0 1 0 -0 1 3
1 0 0 0 -1 
1 2 0 0 1 
8 0 1.5200000000000005
1 1.5707963267948966 0 0 1 
1 3 0 0 1 
1 0 0 1 0 
2 0 0 1 0 -0 1 1
2 0 0 1 0 -0 1 1
2 3 0 1 0 -0 1 1
8 1.5707963267948966 3.1415926535897931
1 0 0 1 0 
1 0 0 0 1 
1 0 0 1 0 
1 0 1 0 1 
1 1 0 1 0 
1 0 0 0 -1 
1 0 0 0 1 
8 0 0.99999999999999911
1 1.5707963267948966 0 0 1 
8 0 0.99999999999999911
1 1.5707963267948966 0 0 1 
1 1 0 0 1 
1 0 -10.400000000000006 0 1 
1 0 0 0 1 
1 -11.400000000000006 1.0000000000000009 1 0 
1 -10.400000000000006 1.0000000000000009 1 0 
1 1.570796326795 0 0 1 
1 0 0 0 -1 
1 1 1.0000000000000009 0 1 
1 2 1.0000000000000009 0 1 
1 0 0 1 0 
2 0 0 1 0 -0 1 2
1 0 1 1 0 
2 0 0 1 0 -0 1 1
2 1 8.3999999999999986 1 0 -0 1 1
2 1 8.3999999999999986 1 0 -0 1 1
2 1 8.3999999999999986 1 0 -0 1 1
1 0 0.99999999999999911 1 0 
2 0 -7.1054273576010019e-15 1 0 -0 1 1
1 1.3999999999999986 14.299999999999997 -1 0 
1 -1.4000000000000021 -0.51999999999999957 -1 -0 
1 -1.4000000000000021 1 -1 0 
1 36.399999999999999 0 0 1 
1 0 1.5200000000000005 1 0 
1 39.200000000000003 13.299999999999997 0 1 
1 0 1.5200000000000005 1 0 
1 0 -3 0 1 
1 0 -1.5200000000000005 1 0 
1 0 0 1 0 
1 2.8000000000000007 13.299999999999997 1 0 
1 4.7123889803849996 0 0 1 
1 36.399999999999999 0 0 -1 
1 1 1.0000000000000009 0 1 
1 1 1.0000000000000009 0 1 
1 0 0 1 0 
1 0 0 1 0 
1 36.399999999999999 0 0 -1 
1 0 0 0 1 
8 0 1.5200000000000005
1 4.7123889803846897 0 0 1 
1 0 0 0 1 
1 0 -2 0 1 
1 36.399999999999999 0 0 1 
1 1 1.0000000000000009 1 0 
1 1 1.0000000000000009 1 0 
1 36.399999999999999 0 0 -1 
1 2 0 0 1 
8 0 0.99999999999999911
1 4.7123889803846897 0 0 1 
8 0 0.99999999999999911
1 4.7123889803846897 0 0 1 
1 2 0 0 1 
1 36.399999999999999 0 0 1 
1 0 0 1 0 
1 0 -3 0 1 
1 0 0 1 0 
1 0 0 1 0 
1 0 0 1 0 
1 0 -0.99999999999999911 1 0 
1 0 0 1 0 
1 1 -1 1 0 
1 1 -1 1 0 
1 1 -1 1 0 
1 1 -1 1 0 
1 1 -1 1 0 
1 1 -1 1 0 
1 0 1 1 0 
1 0 -0.99999999999999911 1 0 
2 0 2 1 0 -0 1 2
2 0 2 1 0 -0 1 2
1 0 0 1 0 
1 0 2 1 0 
1 0 1 1 0 
1 0 -0.99999999999999911 1 0 
1 0 1 1 0 
1 0 -0.99999999999999911 1 0 
2 36.399999999999999 2 1 0 -0 1 2
2 36.399999999999999 2 1 0 -0 1 2
1 0 0.52000000000000002 1 0 
2 39.200000000000003 16.299999999999997 1 0 -0 1 2
2 0 0 1 0 -0 1 2
1 0 -1.5200000000000005 1 0 
1 0 0 1 0 
1 40.200000000000003 16.299999999999997 1 0 
1 1 -1.5200000000000005 1 0 
1 1 0 1 0 
1 42 0 0 1 
1 30.5 -1 -1 0 
1 2.8000000000000007 -16.299999999999997 0 1 
1 0 1.52 1 0 
2 0 0 1 0 -0 1 3
2 0 3 1 0 -0 1 3
2 39.200000000000003 16.299999999999997 1 0 -0 1 3
1 0 0 1 0 
2 0 0 1 0 -0 1 2
7 0 0  1 2 2  6.2831853071800001 0  6.2831853071800001 0.53000000000000003 
 0 2 0.53000000000000003 2
1 0 0 0 1 
1 1 -1.0000000000000009 0 -1 
1 2 -1.0000000000000009 0 -1 
1 0 0 1 0 
1 0 0 1 0 
1 1 0 1 0 
1 1 0 1 0 
8 -0.25999999999999979 1.2600000000000007
1 14.200000000000003 -1.2599999999999998 0 -1 
8 -0.25999999999999979 1.2600000000000007
1 2.8000000000000007 -1.2600000000000007 0 1 
1 1.8000000000000007 -1.2600000000000007 0 1 
1 -38.399999999999999 0 1 0 
1 0 0 1 0 
1 -39.399999999999999 -1.0000000000000009 1 0 
1 -38.399999999999999 -1.0000000000000009 1 0 
1 0 0 0 -1 
1 0 0 0 1 
1 1 0 0 -1 
8 0 0.99999999999999911
1 6.2831853071795862 -0 0 1 
8 0 0.99999999999999911
1 0 0 0 1 
8 0 0.99999999999999911
1 6.2831853071795862 -0 0 1 
8 0 0.99999999999999911
1 0 0 0 1 
8 -5.999999999062311e-07 1.5200006000000004
1 15.277032961426904 -2.5200000000000005 0 1 
8 -5.999999999062311e-07 1.5200006000000004
1 5.9159772866217493 0 0 1 
8 -10.100000000000001 -7.1000000000000014
1 7.1000000000000014 -2.5200000000000005 -1 0 
8 -10.100000000000001 -7.1000000000000014
1 2.8000000000000007 7.1000000000000014 0 1 
1 0 0 1 0 
2 0 0 1 0 -0 1 3
2 0 3 1 0 -0 1 3
1 0 1 1 0 
2 0 0 1 0 -0 1 1
2 37.399999999999999 0 1 0 -0 1 1
2 37.399999999999999 0 1 0 -0 1 1
2 37.399999999999999 0 1 0 -0 1 1
2 37.399999999999999 0 1 0 -0 1 1
1 0 0.99999999999999911 1 0 
2 0 0 1 0 -0 1 1
1 0 0 1 0 
2 0 0 1 0 -0 1 1
2 0 0 1 0 -0 1 1
2 0 3 1 0 -0 1 1
8 4.7123889803846897 6.2831853071795862
1 0 0 1 0 
1 0 0 1 0 
1 0 2 1 0 
1 36.399999999999999 0 0 1 
1 0 0 1 0 
1 1 0 1 0 
1 0 1 0 1 
1 0 0 1 0 
1 0 0 1 0 
1 36.399999999999999 0 0 -1 
1 2 0 0 1 
8 0 1.5200000000000005
1 1.5707963267948966 0 0 1 
1 3 0 0 1 
1 0 -1.5200000000000005 1 0 
1 0 2 1 0 
1 2.8000000000000007 27.700000000000003 1 0 
1 36.399999999999999 0 0 -1 
1 0 0 0 1 
8 0 0.99999999999999911
1 1.5707963267948966 0 0 1 
8 0 0.99999999999999911
1 1.5707963267948966 0 0 1 
1 1 0 0 1 
1 0 -10.400000000000006 0 1 
1 36.399999999999999 0 0 1 
1 -11.400000000000006 1.0000000000000009 1 0 
1 -10.400000000000006 1.0000000000000009 1 0 
1 1.570796326795 0 0 1 
1 36.399999999999999 0 0 -1 
1 1 1.0000000000000009 0 1 
1 2 1.0000000000000009 0 1 
1 36.399999999999999 0 0 1 
1 0 1.5200000000000005 1 0 
1 39.200000000000003 25.700000000000003 0 1 
1 0 1 0 1 
1 1 1.5200000000000005 1 0 
1 0 -0.99999999999999911 1 0 
1 0 10.399999999999999 1 0 
1 1 9.3999999999999986 1 0 
1 1 9.3999999999999986 1 0 
1 1 9.3999999999999986 1 0 
1 1 9.3999999999999986 1 0 
1 1 9.3999999999999986 1 0 
1 1 9.3999999999999986 1 0 
1 0 11.399999999999999 1 0 
1 0 -0.99999999999999911 1 0 
1 0 11.399999999999999 1 0 
1 0 -0.99999999999999911 1 0 
1 0 11.399999999999999 1 0 
1 0 -0.99999999999999911 1 0 
2 0 10.400000000000006 1 0 -0 1 2
2 0 10.400000000000006 1 0 -0 1 2
1 0 12.400000000000006 1 0 
1 0 0 1 0 
1 1.3999999999999986 26.700000000000003 -1 0 
1 -1.4000000000000021 -0.51999999999999957 -1 -0 
1 -1.4000000000000021 1 -1 0 
2 36.399999999999999 10.400000000000006 1 0 -0 1 2
2 36.399999999999999 10.400000000000006 1 0 -0 1 2
1 0 1.52 1 0 
2 0 0 1 0 -0 1 3
2 0 0 1 0 -0 1 3
2 39.200000000000003 24.700000000000003 1 0 -0 1 3
1 2.8000000000000007 -24.700000000000003 0 1 
1 0 -1.5200000000000005 1 0 
1 0 8.3999999999999986 1 0 
1 40.200000000000003 24.699999999999996 1 0 
1 1 -7.1054273576010019e-15 1 0 
1 1 -1.5200000000000005 1 0 
1 0 0.52000000000000002 1 0 
2 39.200000000000003 24.700000000000003 1 0 -0 1 2
2 0 0 1 0 -0 1 2
1 0 0 1 0 
2 0 0 1 0 -0 1 3
2 0 0 1 0 -0 1 3
8 -5.999999999062311e-07 1.5200006000000004
1 4.7229670385730955 -2.5200000000000005 0 1 
8 -5.999999999062311e-07 1.5200006000000004
1 0.3672080205578373 0 0 1 
8 -0.25999999999999979 1.2600000000000007
1 5.7999999999999972 -1.2599999999999998 0 -1 
8 -0.25999999999999979 1.2600000000000007
1 2.8000000000000007 -1.2600000000000007 0 1 
1 1.8000000000000007 -1.2600000000000007 0 1 
8 -2.8999999999999986 0.10000000000000142
1 2.8999999999999986 -2.5200000000000005 -1 0 
8 -2.8999999999999986 0.10000000000000142
1 2.8000000000000007 2.8999999999999986 0 1 
1 0 0 1 0 
1 0 8.3999999999999986 1 0 
1 1 -7.1054273576010019e-15 1 0 
1 1 0 1 0 
7 0 0  1 2 2  0 0  0 0.53000000000000003 
 0 2 0.53000000000000003 2
1 8.4000000000000057 0 0 1 
1 1 -1.0000000000000009 0 -1 
1 2 -1.0000000000000009 0 -1 
1 -38.399999999999999 0 1 0 
1 0 8.4000000000000057 1 0 
1 -39.399999999999999 -1.0000000000000009 1 0 
1 -38.399999999999999 -1.0000000000000009 1 0 
1 0 0 0 -1 
1 8.3999999999999986 0 0 1 
1 1 0 0 -1 
8 0 0.99999999999999911
1 6.2831853071795862 -0 0 1 
8 0 0.99999999999999911
1 0 0 0 1 
8 0 0.99999999999999911
1 6.2831853071795862 -0 0 1 
8 0 0.99999999999999911
1 0 0 0 1 
1 0 0 1 0 
2 0 0 1 0 -0 1 2
1 0 0 1 0 
2 0 0 1 0 -0 1 1
2 0 0 1 0 -0 1 1
2 0 0 1 0 -0 1 1
8 0 1.5707963267948966
1 0 0 1 0 
1 0 1 1 0 
2 0 0 1 0 -0 1 1
2 37.399999999999999 8.3999999999999986 1 0 -0 1 1
2 37.399999999999999 8.3999999999999986 1 0 -0 1 1
1 0 0.99999999999999911 1 0 
2 0 -7.1054273576010019e-15 1 0 -0 1 1
1 41.200000000000003 8.1499999999999986 0 1 
1 -8.1499999999999986 0.51999999999999957 1 0 
1 1 -8.1499999999999986 0 1 
1 1.8000000000000007 -16.299999999999997 0 1 
1 40.399999999999999 0 0 1 
1 0 0 1 0 
8 -7.1000000000000014 1.2999999999999972
1 7.1000000000000014 -2.5200000000000005 -1 0 
8 -7.1000000000000014 1.2999999999999972
1 1.8000000000000007 7.1000000000000014 0 1 
2 38.399999999999999 0 1 0 -0 1 2
2 38.399999999999999 0 1 0 -0 1 2
1 38.399999999999999 0 0 1 
1 0 0.99999999999999911 1 0 
1 38.399999999999999 0 0 1 
1 38.399999999999999 0 0 1 
1 38.399999999999999 0 0 1 
1 38.399999999999999 0 0 1 
1 38.399999999999999 0 0 1 
1 39.399999999999999 0 0 1 
1 0 0.99999999999999911 1 0 
2 38.399999999999999 8.4000000000000057 1 0 -0 1 2
2 38.399999999999999 8.4000000000000057 1 0 -0 1 2
1 0 0 0 1 
1 0 0 1 0 
1 39.399999999999999 0 0 1 
1 0 0.99999999999999911 1 0 
1 39.399999999999999 0 0 1 
1 0 0.99999999999999911 1 0 
Curves 112
1 23.5 8.5250000000000004 -20 1 0 -0 
1 39.799999999999997 8.2650000000000006 -20 -0 1 -0 
1 -7.1000000000000014 7.0049999999999999 -20 -1 0 -0 
1 38.722967038573096 7.0049999999999999 -20 0 1 0 
1 39.799999999999997 8.5250000000000004 -20.199999999999999 0 0 1 
2 39.799999999999997 8.5250000000000004 -17.199999999999999 0 1 0 0 -0 1 1 0 -0 2
1 36.799999999999997 8.5250000000000004 -17.199999999999999 1 0 -0 
2 39.799999999999997 8.5250000000000004 -17.199999999999999 0 1 0 0 -0 1 1 0 -0 3
1 39.799999999999997 7.0049999999999999 -20.199999999999999 0 0 1 
1 39.799999999999997 7.0049999999999999 -18.199999999999999 -0 1 0 
1 39.799999999999997 8.0050000000000008 -19.199999999999999 0 0 1 
1 39.799999999999997 8.0050000000000008 -19.199999999999999 -0 1 0 
2 39.799999999999997 7.0049999999999999 -17.199999999999999 0 1 0 0 -0 1 1 0 -0 1
1 36.799999999999997 7.0049999999999999 -17.199999999999999 1 0 -0 
2 39.799999999999997 7.0049999999999999 -17.199999999999999 0 1 0 0 -0 1 1 0 -0 3
1 36.799999999999997 7.0049999999999999 -17.199999999999999 -0 1 0 
2 39.799999999999997 8.0050000000000008 -17.199999999999999 0 1 0 0 -0 1 1 0 -0 2
1 37.799999999999997 8.0050000000000008 -17.199999999999999 -0 1 0 
1 37.799999999999997 8.0050000000000008 -17.199999999999999 1 0 -0 
1 38.799999999999997 7.0049999999999999 -17.199999999999999 -0 1 0 
2 39.799999999999997 8.004999999999999 -17.199999999999999 0 1 0 0 -0 1 1 0 -0 1
1 48.200000000000003 8.2650000000000006 -20 -0 1 -0 
1 -7.1000000000000014 7.0049999999999999 -20 -1 0 0 
1 48.199999999999996 8.5250000000000004 -20.199999999999999 0 0 1 
1 31.649999999999999 8.5250000000000004 -19.199999999999999 1 0 -0 
1 48.199999999999996 7.0049999999999999 -20.199999999999999 0 0 1 
1 48.199999999999996 7.0049999999999999 -18.199999999999999 -0 1 0 
1 48.200000000000003 8.0050000000000008 -19.199999999999999 0 0 1 
1 48.200000000000003 8.0050000000000008 -19.199999999999999 -0 1 0 
1 39.799999999999997 7.0049999999999999 -18.199999999999999 1 0 -0 
1 39.799999999999997 8.0050000000000008 -19.199999999999999 1 0 -0 
1 39.799999999999997 8.004999999999999 -18.199999999999999 1 0 -0 
2 48.200000000000003 8.0050000000000008 -17.199999999999999 0 1 0 0 -0 1 1 0 -0 2
2 39.799999999999997 8.0050000000000008 -17.199999999999999 0 1 0 0 -0 1 1 0 -0 2
1 49.277032961426904 7.0049999999999999 -20 0 1 0 
1 -2.8999999999999986 7.0049999999999999 -20 -1 0 -0 
2 48.200000000000003 8.5250000000000004 -17.199999999999999 0 1 0 0 -0 1 1 0 -0 3
1 49.200000000000003 8.5250000000000004 -17.199999999999999 1 0 -0 
2 48.200000000000003 8.5250000000000004 -17.199999999999999 0 1 0 0 -0 1 1 0 -0 2
2 48.200000000000003 7.0049999999999999 -17.199999999999999 0 1 0 0 -0 1 1 0 -0 3
1 51.200000000000003 7.0049999999999999 -17.199999999999999 -0 1 0 
2 48.200000000000003 7.0049999999999999 -17.199999999999999 0 1 0 0 -0 1 1 0 -0 1
1 49.200000000000003 7.0049999999999999 -17.199999999999999 1 0 -0 
1 49.200000000000003 7.0049999999999999 -17.199999999999999 -0 1 0 
1 37.799999999999997 8.0050000000000008 -17.199999999999999 1 0 -0 
1 50.200000000000003 8.0050000000000008 -17.199999999999999 -0 1 0 
2 48.200000000000003 8.0050000000000008 -17.199999999999999 0 1 0 0 -0 1 1 0 -0 2
2 48.199999999999996 8.004999999999999 -17.199999999999999 0 1 0 0 -0 1 1 0 -0 1
1 37.799999999999997 8.5250000000000004 -18.600000000000001 -0 0 -1 
1 36.799999999999997 8.5250000000000004 19.199999999999999 1 0 -0 
1 36.799999999999997 8.5250000000000004 -17.199999999999999 0 0 1 
1 37.799999999999997 8.0050000000000008 19.199999999999999 -0 1 0 
1 37.799999999999997 8.0050000000000008 -17.199999999999999 0 0 1 
1 36.799999999999997 7.0049999999999999 19.199999999999999 -0 1 0 
1 37.799999999999997 8.0050000000000008 19.199999999999999 1 0 -0 
1 38.799999999999997 7.0049999999999999 19.199999999999999 -0 1 0 
1 36.799999999999997 7.0049999999999999 19.199999999999999 1 0 -0 
1 36.799999999999997 7.0049999999999999 -17.199999999999999 0 0 1 
1 38.799999999999997 8.004999999999999 -17.199999999999999 0 0 1 
2 39.799999999999997 8.0050000000000008 -17.199999999999999 0 1 0 0 -0 1 1 0 -0 2
1 38.799999999999997 7.0049999999999999 -17.199999999999999 0 0 1 
2 39.799999999999997 8.0050000000000008 19.199999999999999 0 1 0 0 -0 1 1 0 -0 2
2 39.799999999999997 8.5250000000000004 19.199999999999999 0 1 0 0 -0 1 1 0 -0 2
1 39.799999999999997 8.5250000000000004 20.199999999999999 0 0 1 
1 23.5 8.5250000000000004 22 1 0 -0 
2 39.799999999999997 8.5250000000000004 19.199999999999999 0 1 0 0 -0 1 1 0 -0 3
2 39.799999999999997 8.0050000000000008 19.199999999999999 0 1 0 0 -0 1 1 0 -0 2
1 39.799999999999997 8.0050000000000008 21.199999999999999 -0 1 0 
1 39.799999999999997 7.0049999999999999 20.199999999999999 0 0 1 
1 39.799999999999997 8.2650000000000006 22 0 -1 0 
1 39.799999999999997 8.0050000000000008 -19.199999999999999 0 0 1 
1 39.799999999999997 7.0049999999999999 20.199999999999999 -0 1 0 
1 38.722967038573096 7.0049999999999999 22 0 1 0 
1 46.899999999999999 7.0049999999999999 22 1 0 0 
2 39.799999999999997 7.0049999999999999 19.199999999999999 0 1 0 0 -0 1 1 0 -0 3
2 39.799999999999997 8.004999999999999 19.199999999999999 0 1 0 0 -0 1 1 0 -0 1
2 39.799999999999997 7.0049999999999999 19.199999999999999 0 1 0 0 -0 1 1 0 -0 1
1 51.200000000000003 7.0049999999999999 -17.199999999999999 0 0 1 
1 49.200000000000003 7.0049999999999999 19.199999999999999 1 0 -0 
1 49.200000000000003 7.0049999999999999 -17.199999999999999 0 0 1 
1 51.200000000000003 7.0049999999999999 19.199999999999999 -0 1 0 
1 51.200000000000003 8.5250000000000004 -17.199999999999999 0 0 1 
1 49.200000000000003 7.0049999999999999 19.199999999999999 -0 1 0 
1 37.799999999999997 8.0050000000000008 19.199999999999999 1 0 -0 
1 50.200000000000003 8.0050000000000008 19.199999999999999 -0 1 0 
1 49.200000000000003 8.5250000000000004 19.199999999999999 1 0 -0 
1 49.199999999999996 8.004999999999999 -17.199999999999999 0 0 1 
2 48.200000000000003 8.0050000000000008 -17.199999999999999 0 1 0 0 -0 1 1 0 -0 2
1 50.200000000000003 8.0050000000000008 -17.199999999999999 0 0 1 
1 50.200000000000003 8.5250000000000004 -18.600000000000001 -0 0 -1 
2 48.200000000000003 8.0050000000000008 19.199999999999999 0 1 0 0 -0 1 1 0 -0 2
2 48.200000000000003 8.5250000000000004 19.199999999999999 0 1 0 0 -0 1 1 0 -0 3
1 48.199999999999996 8.5250000000000004 20.199999999999999 0 0 1 
2 48.200000000000003 8.5250000000000004 19.199999999999999 0 1 0 0 -0 1 1 0 -0 2
2 48.200000000000003 7.0049999999999999 19.199999999999999 0 1 0 0 -0 1 1 0 -0 3
1 49.277032961426904 7.0049999999999999 22 0 1 0 
1 48.200000000000003 8.2650000000000006 22 0 -1 0 
1 51.100000000000001 7.0049999999999999 22 1 0 0 
1 48.199999999999996 7.0049999999999999 20.199999999999999 0 0 1 
1 48.200000000000003 8.0050000000000008 21.199999999999999 -0 1 0 
1 48.200000000000003 8.0050000000000008 -19.199999999999999 0 0 1 
1 48.199999999999996 7.0049999999999999 20.199999999999999 -0 1 0 
2 48.200000000000003 8.0050000000000008 19.199999999999999 0 1 0 0 -0 1 1 0 -0 2
2 48.200000000000003 7.0049999999999999 19.199999999999999 0 1 0 0 -0 1 1 0 -0 1
2 48.199999999999996 8.004999999999999 19.199999999999999 0 1 0 0 -0 1 1 0 -0 1
1 31.649999999999999 8.5250000000000004 21.199999999999999 1 0 -0 
1 39.799999999999997 8.0050000000000008 21.199999999999999 1 0 -0 
1 46.899999999999999 7.0049999999999999 22 1 0 -0 
2 39.799999999999997 8.0050000000000008 19.199999999999999 0 1 0 0 -0 1 1 0 -0 2
1 39.799999999999997 8.004999999999999 20.199999999999999 1 0 -0 
2 48.200000000000003 8.0050000000000008 19.199999999999999 0 1 0 0 -0 1 1 0 -0 2
1 39.799999999999997 7.0049999999999999 20.199999999999999 1 0 -0 
Polygon3D 0
PolygonOnTriangulations 0
Surfaces 104
1 -54 9.5250000000000004 -20 -0 0 1 1 0 0 0 1 -0 
1 23.5 8.5250000000000004 -20 -0 1 0 0 0 1 1 0 -0 
1 39.799999999999997 8.5250000000000004 -17.199999999999999 0 1 0 0 -0 1 1 0 -0 
1 39.799999999999997 7.0049999999999999 -20.199999999999999 1 0 -0 0 0 1 0 -1 0 
1 39.799999999999997 7.0049999999999999 -20.199999999999999 1 0 -0 0 0 1 0 -1 0 
1 39.799999999999997 7.0049999999999999 -17.199999999999999 0 1 0 0 -0 1 1 0 -0 
2 39.799999999999997 7.0049999999999999 -17.199999999999999 0 1 0 0 -0 1 1 0 -0 3
1 39.799999999999997 8.5250000000000004 -20.199999999999999 -0 1 0 0 0 1 1 0 -0 
2 39.799999999999997 8.0050000000000008 -17.199999999999999 0 1 0 0 -0 1 1 0 -0 2
1 36.799999999999997 8.5250000000000004 -17.199999999999999 -0 1 0 0 0 1 1 0 -0 
1 36.799999999999997 7.0049999999999999 -17.199999999999999 0 0 1 1 0 -0 -0 1 0 
1 36.799999999999997 7.0049999999999999 -17.199999999999999 0 0 1 1 0 -0 -0 1 0 
1 36.799999999999997 8.5250000000000004 -20.199999999999999 -0 1 0 0 0 1 1 0 -0 
1 39.799999999999997 7.0049999999999999 -20.199999999999999 -0 1 0 0 0 1 1 0 -0 
1 39.799999999999997 7.0049999999999999 -18.199999999999999 0 0 1 1 0 -0 -0 1 0 
2 39.799999999999997 7.0049999999999999 -17.199999999999999 0 1 0 0 -0 1 1 0 -0 1
2 39.799999999999997 7.0049999999999999 -17.199999999999999 0 1 0 0 -0 1 1 0 -0 1
1 39.799999999999997 8.0050000000000008 -17.199999999999999 0 1 0 0 -0 1 1 0 -0 
1 39.799999999999997 8.0050000000000008 -19.199999999999999 -0 1 0 0 0 1 1 0 -0 
1 39.799999999999997 8.0050000000000008 -19.199999999999999 0 0 1 1 0 -0 -0 1 0 
1 39.799999999999997 7.0049999999999999 -17.199999999999999 0 1 0 0 -0 1 1 0 -0 
1 36.799999999999997 7.0049999999999999 -20.199999999999999 -0 1 0 0 0 1 1 0 -0 
1 36.799999999999997 7.0049999999999999 -17.199999999999999 -0 1 0 0 0 1 1 0 -0 
1 36.799999999999997 7.0049999999999999 -17.199999999999999 1 0 -0 0 0 1 0 -1 0 
1 37.799999999999997 8.0050000000000008 -17.199999999999999 1 0 -0 0 0 1 0 -1 0 
1 37.799999999999997 8.0050000000000008 -17.199999999999999 -0 1 0 0 0 1 1 0 -0 
1 38.799999999999997 7.0049999999999999 -17.199999999999999 1 0 -0 0 0 1 0 -1 0 
1 39.799999999999997 8.004999999999999 -17.199999999999999 0 1 0 0 -0 1 1 0 -0 
1 39.799999999999997 8.004999999999999 -18.199999999999999 -0 1 0 0 0 1 1 0 -0 
1 39.799999999999997 8.004999999999999 -18.199999999999999 -0 1 0 0 0 1 1 0 -0 
1 39.799999999999997 8.004999999999999 -18.199999999999999 -0 1 0 0 0 1 1 0 -0 
1 39.799999999999997 8.004999999999999 -18.199999999999999 -0 1 0 0 0 1 1 0 -0 
1 39.799999999999997 8.004999999999999 -18.199999999999999 -0 1 0 0 0 1 1 0 -0 
1 48.200000000000003 7.0049999999999999 -20.199999999999999 1 0 -0 0 0 1 0 -1 0 
1 48.199999999999996 7.0049999999999999 -20.199999999999999 1 0 -0 0 0 1 0 -1 0 
1 48.200000000000003 8.5250000000000004 -17.199999999999999 0 1 0 0 -0 1 1 0 -0 
1 48.200000000000003 7.0049999999999999 -17.199999999999999 0 1 0 0 -0 1 1 0 -0 
2 48.200000000000003 7.0049999999999999 -17.199999999999999 0 1 0 0 -0 1 1 0 -0 1
2 48.199999999999996 7.0049999999999999 -17.199999999999999 0 1 0 0 -0 1 1 0 -0 1
1 48.200000000000003 8.0050000000000008 -17.199999999999999 0 1 0 0 -0 1 1 0 -0 
1 39.799999999999997 8.0050000000000008 -19.199999999999999 -0 1 0 0 0 1 1 0 -0 
2 48.200000000000003 8.0050000000000008 -17.199999999999999 0 1 0 0 -0 1 1 0 -0 2
1 39.799999999999997 8.0050000000000008 -19.199999999999999 -0 1 0 0 0 1 1 0 -0 
1 39.799999999999997 8.004999999999999 -18.199999999999999 -0 1 0 0 0 1 1 0 -0 
1 39.799999999999997 7.0049999999999999 -18.199999999999999 0 0 1 1 0 -0 -0 1 0 
2 48.200000000000003 7.0049999999999999 -17.199999999999999 0 1 0 0 -0 1 1 0 -0 3
1 48.200000000000003 8.5250000000000004 -20.199999999999999 -0 1 0 0 0 1 1 0 -0 
1 49.200000000000003 8.5250000000000004 -17.199999999999999 -0 1 0 0 0 1 1 0 -0 
1 49.200000000000003 7.0049999999999999 -17.199999999999999 0 0 1 1 0 -0 -0 1 0 
1 48.200000000000003 7.0049999999999999 -17.199999999999999 0 0 1 1 0 -0 -0 1 0 
1 48.200000000000003 7.0049999999999999 -20.199999999999999 -0 1 0 0 0 1 1 0 -0 
1 51.200000000000003 7.0049999999999999 -17.199999999999999 1 0 -0 0 0 1 0 -1 0 
1 48.200000000000003 7.0049999999999999 -17.199999999999999 0 1 0 0 -0 1 1 0 -0 
1 49.200000000000003 7.0049999999999999 -17.199999999999999 -0 1 0 0 0 1 1 0 -0 
1 49.200000000000003 7.0049999999999999 -17.199999999999999 1 0 -0 0 0 1 0 -1 0 
1 37.799999999999997 8.0050000000000008 -17.199999999999999 -0 1 0 0 0 1 1 0 -0 
1 50.200000000000003 8.0050000000000008 -17.199999999999999 1 0 -0 0 0 1 0 -1 0 
1 48.199999999999996 8.004999999999999 -17.199999999999999 0 1 0 0 -0 1 1 0 -0 
1 36.799999999999997 7.0049999999999999 19.199999999999999 0 0 1 1 0 -0 -0 1 0 
1 36.799999999999997 7.0049999999999999 19.199999999999999 0 0 1 1 0 -0 -0 1 0 
1 39.799999999999997 8.5250000000000004 19.199999999999999 0 1 0 0 -0 1 1 0 -0 
2 39.799999999999997 8.0050000000000008 19.199999999999999 0 1 0 0 -0 1 1 0 -0 2
1 37.799999999999997 8.0050000000000008 -17.199999999999999 -0 1 0 0 0 1 1 0 -0 
2 39.799999999999997 7.0049999999999999 19.199999999999999 0 1 0 0 -0 1 1 0 -0 3
1 39.799999999999997 8.0050000000000008 19.199999999999999 0 1 0 0 -0 1 1 0 -0 
1 37.799999999999997 8.0050000000000008 -17.199999999999999 -0 1 0 0 0 1 1 0 -0 
2 39.799999999999997 7.0049999999999999 19.199999999999999 0 1 0 0 -0 1 1 0 -0 1
2 39.799999999999997 7.0049999999999999 19.199999999999999 0 1 0 0 -0 1 1 0 -0 1
1 39.799999999999997 7.0049999999999999 19.199999999999999 0 1 0 0 -0 1 1 0 -0 
1 38.799999999999997 7.0049999999999999 -17.199999999999999 1 0 -0 0 0 1 0 -1 0 
1 38.799999999999997 8.004999999999999 -17.199999999999999 -0 1 0 0 0 1 1 0 -0 
1 39.799999999999997 7.0049999999999999 20.199999999999999 1 0 -0 0 0 1 0 -1 0 
1 39.799999999999997 8.5250000000000004 20.199999999999999 -0 1 0 0 0 1 1 0 -0 
1 39.799999999999997 7.0049999999999999 19.199999999999999 1 0 -0 0 0 1 0 -1 0 
1 54 9.5250000000000004 22 -0 -0 -1 -1 0 0 0 1 -0 
1 36.799999999999997 8.5250000000000004 19.199999999999999 -0 1 0 0 0 1 1 0 -0 
1 39.799999999999997 8.0050000000000008 21.199999999999999 0 0 1 1 0 -0 -0 1 0 
1 39.799999999999997 7.0049999999999999 20.199999999999999 -0 1 0 0 0 1 1 0 -0 
1 39.799999999999997 8.0050000000000008 -19.199999999999999 -0 1 0 0 0 1 1 0 -0 
1 39.799999999999997 7.0049999999999999 20.199999999999999 0 0 1 1 0 -0 -0 1 0 
1 36.799999999999997 7.0049999999999999 19.199999999999999 -0 1 0 0 0 1 1 0 -0 
1 39.799999999999997 8.004999999999999 19.199999999999999 0 1 0 0 -0 1 1 0 -0 
1 39.799999999999997 7.0049999999999999 19.199999999999999 0 1 0 0 -0 1 1 0 -0 
1 49.200000000000003 7.0049999999999999 19.199999999999999 0 0 1 1 0 -0 -0 1 0 
1 48.200000000000003 7.0049999999999999 19.199999999999999 0 0 1 1 0 -0 -0 1 0 
1 48.200000000000003 7.0049999999999999 19.199999999999999 0 1 0 0 -0 1 1 0 -0 
2 48.200000000000003 7.0049999999999999 19.199999999999999 0 1 0 0 -0 1 1 0 -0 3
2 48.200000000000003 7.0049999999999999 19.199999999999999 0 1 0 0 -0 1 1 0 -0 1
2 48.199999999999996 7.0049999999999999 19.199999999999999 0 1 0 0 -0 1 1 0 -0 1
1 48.200000000000003 8.0050000000000008 19.199999999999999 0 1 0 0 -0 1 1 0 -0 
1 37.799999999999997 8.0050000000000008 -17.199999999999999 -0 1 0 0 0 1 1 0 -0 
2 48.200000000000003 8.0050000000000008 19.199999999999999 0 1 0 0 -0 1 1 0 -0 2
1 48.200000000000003 8.5250000000000004 19.199999999999999 0 1 0 0 -0 1 1 0 -0 
1 49.199999999999996 7.0049999999999999 -17.199999999999999 1 0 -0 0 0 1 0 -1 0 
1 37.799999999999997 8.0050000000000008 -17.199999999999999 -0 1 0 0 0 1 1 0 -0 
1 48.200000000000003 8.5250000000000004 19.199999999999999 -0 1 0 0 0 1 1 0 -0 
1 48.199999999999996 7.0049999999999999 20.199999999999999 1 0 -0 0 0 1 0 -1 0 
1 48.200000000000003 7.0049999999999999 19.199999999999999 1 0 -0 0 0 1 0 -1 0 
1 48.200000000000003 7.0049999999999999 19.199999999999999 -0 1 0 0 0 1 1 0 -0 
1 39.799999999999997 8.0050000000000008 -19.199999999999999 -0 1 0 0 0 1 1 0 -0 
1 48.200000000000003 7.0049999999999999 19.199999999999999 0 1 0 0 -0 1 1 0 -0 
1 48.199999999999996 8.004999999999999 19.199999999999999 0 1 0 0 -0 1 1 0 -0 
1 39.799999999999997 8.0050000000000008 -19.199999999999999 -0 1 0 0 0 1 1 0 -0 
1 39.799999999999997 7.0049999999999999 20.199999999999999 0 0 1 1 0 -0 -0 1 0 
Triangulations 0

TShapes 341
Ve
1.00000137962444e-07
38.722967038573 8.525 -20
0 0

0101101
*
Ve
2.12133034355964e-07
39.8 8.525 -20
0 0

0101101
*
Ed
 1e-07 1 1 0
1  1 0 15.222967038573 16.3
4 C0 1 0 2 0
2  1 2 0 15.222967038573 16.3
2  2 1 0 15.222967038573 16.3
2  3 3 0 15.222967038573 16.3
0

0101000
+341 0 -340 0 *
Ve
2.12132034355964e-07
39.8 7.005 -20
0 0

0101101
*
Ed
 2.12132034355964e-07 1 1 0
1  2 0 -1.26 0.26
2  4 1 0 -1.26 0.26
2  5 4 0 -1.26 0.26
2  6 5 0 -1.26 0.26
0

0101000
+338 0 -340 0 *
Ve
1.5e-07
38.7229670385731 7.005 -20
0 0

0101101
*
Ed
 1.5e-07 1 1 0
1  3 0 -46.9 -45.8229670385731
2  7 1 0 -46.9 -45.8229670385731
2  8 6 0 -46.9 -45.8229670385731
0

0101000
+338 0 -336 0 *
Ed
 1e-07 1 1 0
1  4 0 0 1.52
2  9 1 0 0 1.52
2  10 7 0 0 1.52
0

0101000
+336 0 -341 0 *
Wi

0101100
-339 0 +337 0 -335 0 -334 0 *
Fa
0  1e-07 1 0

0111000
+333 0 *
Ve
1e-07
39.8 8.525 -19.2
0 0

0101101
*
Ed
 1e-07 1 1 0
1  5 0 0.199999999999999 1
2  11 5 0 0.199999999999999 1
2  12 8 0 0.199999999999999 1
2  13 2 0 0.199999999999999 1
2  14 3 0 0.199999999999999 1
2  15 4 0 0.199999999999999 1
0

0101000
+340 0 -331 0 *
Ve
1e-07
37.8 8.525 -17.2
0 0

0101101
*
Ed
 1e-07 1 1 0
1  6 0 3.14159265358979 4.71238898038469
2  16 9 0 3.14159265358979 4.71238898038469
4 C0 2 0 9 0
2  17 2 0 3.14159265358979 4.71238898038469
2  18 3 0 3.14159265358979 4.71238898038469
0

0101000
+331 0 -329 0 *
Ve
1.0000000116861e-07
36.8 8.525 -17.2
0 0

0101101
*
Ed
 1e-07 1 1 0
1  7 0 0 1
2  19 10 0 0 1
2  20 11 0 0 1
2  21 2 0 0 1
2  22 3 0 0 1
2  23 12 0 0 1
0

0101000
+327 0 -329 0 *
Ed
 1e-07 1 1 0
1  8 0 3.50880067414768 4.71238898038469
2  24 7 0 3.50880067414768 4.71238898038469
2  25 3 0 3.50880067414768 4.71238898038469
2  26 13 0 3.50880067414768 4.71238898038469
2  27 2 0 3.50880067414768 4.71238898038469
0

0101000
+341 0 -327 0 *
Wi

0101100
-339 0 -330 0 -328 0 +326 0 +325 0 *
Fa
0  1e-07 2 0

0111000
+324 0 *
Ve
1.00000021316282e-07
39.8 7.005 -18.2
0 0

0101101
*
Ed
 1e-07 1 1 0
1  9 0 0.199999999999999 2
2  28 5 0 0.199999999999999 2
2  29 14 0 0.199999999999999 2
2  30 6 0 0.199999999999999 2
2  31 4 0 0.199999999999999 2
0

0101000
+338 0 -322 0 *
Ve
1.00000003552714e-07
39.8 8.005 -18.2
0 0

0101101
*
Ed
 1e-07 1 1 0
1  10 0 0 0.999999999999999
2  32 5 0 0 0.999999999999999
2  33 15 0 0 0.999999999999999
2  34 16 0 0 0.999999999999999
2  35 17 0 0 0.999999999999999
2  36 4 0 0 0.999999999999999
0

0101000
+322 0 -320 0 *
Ve
1e-07
39.8 8.005 -19.2
0 0

0101101
*
Ed
 1e-07 1 1 0
1  11 0 0 1
4 CN 18 0 19 0
2  37 18 0 0 1
2  38 19 0 0 1
2  39 5 0 0 1
2  40 4 0 0 1
0

0101000
+318 0 -320 0 *
Ed
 1e-07 1 1 0
1  12 0 0 0.52
2  41 9 0 0 0.52
4 G1 9 0 20 0
2  42 20 0 0 0.52
2  43 5 0 0 0.52
2  44 4 0 0 0.52
0

0101000
+318 0 -331 0 *
Wi

0101100
-321 0 -319 0 +317 0 -316 0 +330 0 +337 0 *
Fa
0  1e-07 5 0

0111000
+315 0 *
Ve
1.00000017763568e-07
38.8 7.005 -17.2
0 0

0101101
*
Ed
 1.00000003552714e-07 1 1 0
1  13 0 3.14159265358979 4.71238898038468
2  45 16 0 3.14159265358979 4.71238898038468
2  46 21 0 3.14159265358979 4.71238898038468
2  47 6 0 3.14159265358979 4.71238898038468
2  48 22 0 3.14159265358979 4.71238898038468
2  49 17 0 3.14159265358979 4.71238898038468
0

0101000
+322 0 -313 0 *
Ve
1.0000000116861e-07
36.8 7.005 -17.2
0 0

0101101
*
Ed
 1e-07 1 1 0
1  14 0 0 2
2  50 23 0 0 2
2  51 11 0 0 2
2  52 12 0 0 2
2  53 6 0 0 2
0

0101000
+311 0 -313 0 *
Ed
 1e-07 1 1 0
1  15 0 3.50880067414763 4.71238898038469
2  54 7 0 3.50880067414763 4.71238898038469
2  55 6 0 3.50880067414763 4.71238898038469
2  56 22 0 3.50880067414763 4.71238898038469
0

0101000
+336 0 -311 0 *
Wi

0101100
-321 0 -312 0 +310 0 +309 0 +335 0 *
Fa
0  1e-07 6 0

0111000
+308 0 *
Ed
 1e-07 1 1 0
1  16 0 0 1.52
2  57 24 0 0 1.52
2  58 11 0 0 1.52
2  59 7 0 0 1.52
2  60 12 0 0 1.52
0

0101000
+311 0 -327 0 *
Wi

0101100
-325 0 +306 0 +309 0 -334 0 *
Fa
0  1e-07 7 0

0111000
+305 0 *
Ve
1e-07
37.8 8.005 -17.2
0 0

0101101
*
Ed
 1e-07 1 1 0
1  17 0 3.14159265358979 4.71238898038469
2  61 9 0 3.14159265358979 4.71238898038469
4 C0 9 0 18 0
2  62 18 0 3.14159265358979 4.71238898038469
0

0101000
+318 0 -303 0 *
Ed
 1e-07 1 1 0
1  18 0 0 0.52
2  63 9 0 0 0.52
4 G1 9 0 25 0
2  64 25 0 0 0.52
2  65 11 0 0 0.52
2  66 12 0 0 0.52
0

0101000
+303 0 -329 0 *
Wi

0101100
-328 0 -316 0 +302 0 +301 0 *
Fa
0  1e-07 9 0

0111000
+300 0 *
Ve
1.00000003552714e-07
38.8 8.005 -17.2
0 0

0101101
*
Ed
 1e-07 1 1 0
1  19 0 0 1
4 CN 18 0 26 0
2  67 18 0 0 1
2  68 26 0 0 1
2  69 11 0 0 1
2  70 12 0 0 1
0

0101000
+303 0 -298 0 *
Ed
 1e-07 1 1 0
1  20 0 0 0.999999999999999
2  71 27 0 0 0.999999999999999
2  72 11 0 0 0.999999999999999
2  73 16 0 0 0.999999999999999
2  74 17 0 0 0.999999999999999
2  75 12 0 0 0.999999999999999
0

0101000
+313 0 -298 0 *
Wi

0101100
-306 0 -326 0 +301 0 -297 0 +296 0 +310 0 *
Fa
0  1e-07 11 0

0111000
+295 0 *
Ed
 1.00000003552714e-07 1 1 0
1  21 0 3.14159265358979 4.71238898038469
2  76 17 0 3.14159265358979 4.71238898038469
2  77 28 0 3.14159265358979 4.71238898038469
2  78 29 0 3.14159265358979 4.71238898038469
2  79 30 0 3.14159265358979 4.71238898038469
2  80 31 0 3.14159265358979 4.71238898038469
2  81 32 0 3.14159265358979 4.71238898038469
2  82 33 0 3.14159265358979 4.71238898038469
2  83 16 0 3.14159265358979 4.71238898038469
2  84 18 0 3.14159265358979 4.71238898038469
0

0101000
+320 0 -298 0 *
Wi

0101100
-293 0 +296 0 +312 0 -319 0 *
Fa
0  1e-07 16 0

0111000
+292 0 *
Wi

0101100
-317 0 -293 0 +297 0 +302 0 *
Fa
0  1e-07 18 0

0111000
+290 0 *
Sh

0101100
-332 0 +323 0 +314 0 -307 0 +304 0 -299 0 +294 0 -291 0 +289 0 *
So

0100000
+288 0 *
Ve
2.12133034355964e-07
48.2 8.525 -20
0 0

0101101
*
Ed
 1e-07 1 1 0
1  1 0 16.3 24.7
4 C0 1 0 2 0
2  1 2 0 16.3 24.7
2  2 1 0 16.3 24.7
2  85 8 0 16.3 24.7
0

0101000
+340 0 -286 0 *
Ve
2.12132048566819e-07
48.2 7.005 -20
0 0

0101101
*
Ed
 2.12132048566819e-07 1 1 0
1  22 0 -1.26 0.26
2  86 1 0 -1.26 0.26
2  87 34 0 -1.26 0.26
2  88 35 0 -1.26 0.26
0

0101000
+284 0 -286 0 *
Ed
 1.5e-07 1 1 0
1  23 0 -55.3 -46.9
2  89 1 0 -55.3 -46.9
2  90 14 0 -55.3 -46.9
0

0101000
+284 0 -338 0 *
Wi

0101100
-285 0 +283 0 -282 0 -337 0 *
Fa
0  1e-07 1 0

0111000
+281 0 *
Ve
1.00000007105427e-07
48.2 8.525 -19.2
0 0

0101101
*
Ed
 1.00000007105427e-07 1 1 0
1  24 0 0.199999999999999 1
2  91 35 0 0.199999999999999 1
2  92 8 0 0.199999999999999 1
2  93 2 0 0.199999999999999 1
2  94 36 0 0.199999999999999 1
2  95 34 0 0.199999999999999 1
0

0101000
+286 0 -279 0 *
Ed
 1e-07 1 1 0
1  25 0 8.15 16.55
4 C0 2 0 20 0
2  96 2 0 8.15 16.55
2  97 20 0 8.15 16.55
2  98 8 0 8.15 16.55
0

0101000
+331 0 -279 0 *
Wi

0101100
-285 0 -278 0 +277 0 +330 0 *
Fa
0  1e-07 2 0

0111000
+276 0 *
Ve
1.00000021316282e-07
48.2 7.005 -18.2
0 0

0101101
*
Ed
 1.00000007105427e-07 1 1 0
1  26 0 0.199999999999999 2
2  99 35 0 0.199999999999999 2
2  100 14 0 0.199999999999999 2
2  101 34 0 0.199999999999999 2
2  102 37 0 0.199999999999999 2
0

0101000
+284 0 -274 0 *
Ve
1.00000007944109e-07
48.2 8.005 -18.2
0 0

0101101
*
Ed
 1.00000007105427e-07 1 1 0
1  27 0 0 0.999999999999999
2  103 35 0 0 0.999999999999999
2  104 15 0 0 0.999999999999999
2  105 38 0 0 0.999999999999999
2  106 39 0 0 0.999999999999999
2  107 34 0 0 0.999999999999999
0

0101000
+274 0 -272 0 *
Ve
1.00000007105427e-07
48.2 8.005 -19.2
0 0

0101101
*
Ed
 1.00000007105427e-07 1 1 0
1  28 0 0 1
4 CN 40 0 41 0
2  108 40 0 0 1
2  109 41 0 0 1
2  110 35 0 0 1
2  111 34 0 0 1
0

0101000
+270 0 -272 0 *
Ed
 1.00000007105427e-07 1 1 0
1  29 0 0 0.52
2  112 42 0 0 0.52
4 G1 42 0 20 0
2  113 20 0 0 0.52
2  114 35 0 0 0.52
2  115 34 0 0 0.52
0

0101000
+270 0 -279 0 *
Wi

0101100
-273 0 -271 0 +269 0 -268 0 +278 0 +283 0 *
Fa
0  1e-07 35 0

0111000
+267 0 *
Ed
 1e-07 1 1 0
1  30 0 0 8.4
2  116 14 0 0 8.4
2  117 15 0 0 8.4
0

0101000
+322 0 -274 0 *
Wi

0101100
+282 0 -273 0 +265 0 +321 0 *
Fa
0  1e-07 14 0

0111000
+264 0 *
Ed
 1e-07 1 1 0
1  31 0 0 8.40000000000001
4 C0 20 0 43 0
2  118 43 0 0 8.40000000000001
2  119 20 0 0 8.40000000000001
0

0101000
+318 0 -270 0 *
Wi

0101100
-316 0 +262 0 +268 0 -277 0 *
Fa
0  1e-07 20 0

0111000
+261 0 *
Ve
1.00000028435584e-07
41.5320508075688 8.005 -18.2
0 0

0101101
*
Ed
 1.00000001776357e-07 1 1 0
1  32 0 0 1.73205080756885
2  120 44 0 0 1.73205080756885
2  121 45 0 0 1.73205080756885
2  122 29 0 0 1.73205080756885
2  123 30 0 0 1.73205080756885
2  124 31 0 0 1.73205080756885
2  125 32 0 0 1.73205080756885
2  126 33 0 0 1.73205080756885
2  127 19 0 0 1.73205080756885
2  128 15 0 0 1.73205080756885
0

0101000
+320 0 -259 0 *
Ve
1.00000028435584e-07
46.4679491924312 8.005 -18.2
0 0

0101101
*
Ed
 1.00000001776357e-07 1 1 0
1  32 0 1.73205080756885 6.66794919243116
2  120 44 0 1.73205080756885 6.66794919243116
2  121 45 0 1.73205080756885 6.66794919243116
2  122 29 0 1.73205080756885 6.66794919243116
2  123 30 0 1.73205080756885 6.66794919243116
2  124 31 0 1.73205080756885 6.66794919243116
2  125 32 0 1.73205080756885 6.66794919243116
2  126 33 0 1.73205080756885 6.66794919243116
2  129 43 0 1.73205080756885 6.66794919243116
2  130 15 0 1.73205080756885 6.66794919243116
0

0101000
+259 0 -257 0 *
Ed
 1.00000001776357e-07 1 1 0
1  32 0 6.66794919243116 8.4
2  120 44 0 6.66794919243116 8.4
2  121 45 0 6.66794919243116 8.4
2  122 29 0 6.66794919243116 8.4
2  123 30 0 6.66794919243116 8.4
2  124 31 0 6.66794919243116 8.4
2  125 32 0 6.66794919243116 8.4
2  126 33 0 6.66794919243116 8.4
2  131 41 0 6.66794919243116 8.4
2  132 15 0 6.66794919243116 8.4
0

0101000
+257 0 -272 0 *
Wi

0101100
-319 0 -258 0 -256 0 -255 0 +271 0 +265 0 *
Fa
0  1e-07 15 0

0111000
+254 0 *
Ed
 1e-07 1 1 0
1  33 0 3.14159265358979 4.18879020478637
4 CN 43 0 41 0
2  133 43 0 3.14159265358979 4.18879020478637
2  134 41 0 3.14159265358979 4.18879020478637
0

0101000
+270 0 -257 0 *
Wi

0101100
-269 0 +255 0 +252 0 *
Fa
0  1e-07 41 0

0111000
+251 0 *
Ed
 1e-07 1 1 0
1  34 0 2.09439510239322 3.14159265358979
4 CN 43 0 19 0
2  135 43 0 2.09439510239322 3.14159265358979
2  136 19 0 2.09439510239322 3.14159265358979
0

0101000
+259 0 -318 0 *
Wi

0101100
+258 0 +317 0 +249 0 *
Fa
0  1e-07 19 0

0111000
+248 0 *
Wi

0101100
-252 0 +256 0 -249 0 -262 0 *
Fa
0  1e-07 43 0

0111000
+246 0 *
Sh

0101100
-280 0 +275 0 +266 0 -263 0 -314 0 +260 0 +253 0 +250 0 +247 0 +245 0 
*
So

0100000
+244 0 *
Ve
1.00000137962444e-07
49.277032961427 8.525 -20
0 0

0101101
*
Ed
 1e-07 1 1 0
1  1 0 24.7 25.777032961427
4 C0 1 0 2 0
2  1 2 0 24.7 25.777032961427
2  2 1 0 24.7 25.777032961427
2  137 36 0 24.7 25.777032961427
0

0101000
+286 0 -242 0 *
Ve
1.5e-07
49.2770329614269 7.005 -20
0 0

0101101
*
Ed
 1e-07 1 1 0
1  35 0 0 1.52
2  138 1 0 0 1.52
2  139 46 0 0 1.52
0

0101000
+240 0 -242 0 *
Ed
 1.5e-07 1 1 0
1  36 0 -52.1770329614269 -51.1
2  140 1 0 -52.1770329614269 -51.1
2  141 37 0 -52.1770329614269 -51.1
0

0101000
+240 0 -284 0 *
Wi

0101100
-241 0 +239 0 -238 0 -283 0 *
Fa
0  1e-07 1 0

0111000
+237 0 *
Ve
1.0000000116861e-07
51.2 8.525 -17.2
0 0

0101101
*
Ed
 1e-07 1 1 0
1  37 0 1.5707963267949 2.77438463303191
2  142 46 0 1.5707963267949 2.77438463303191
2  143 36 0 1.5707963267949 2.77438463303191
2  144 47 0 1.5707963267949 2.77438463303191
2  145 2 0 1.5707963267949 2.77438463303191
0

0101000
+235 0 -242 0 *
Ve
1e-07
50.2 8.525 -17.2
0 0

0101101
*
Ed
 1e-07 1 1 0
1  38 0 1 2
2  146 48 0 1 2
2  147 49 0 1 2
2  148 2 0 1 2
2  149 36 0 1 2
2  150 50 0 1 2
0

0101000
+233 0 -235 0 *
Ed
 1e-07 1 1 0
1  39 0 1.5707963267949 3.14159265358979
2  151 42 0 1.5707963267949 3.14159265358979
4 C0 2 0 42 0
2  152 2 0 1.5707963267949 3.14159265358979
2  153 36 0 1.5707963267949 3.14159265358979
0

0101000
+233 0 -279 0 *
Wi

0101100
-241 0 +234 0 +232 0 -231 0 +278 0 *
Fa
0  1e-07 2 0

0111000
+230 0 *
Ve
1.0000000116861e-07
51.2 7.005 -17.2
0 0

0101101
*
Ed
 1e-07 1 1 0
1  40 0 1.5707963267949 2.77438463303196
2  154 46 0 1.5707963267949 2.77438463303196
2  155 37 0 1.5707963267949 2.77438463303196
2  156 51 0 1.5707963267949 2.77438463303196
0

0101000
+228 0 -240 0 *
Ed
 1e-07 1 1 0
1  41 0 0 1.52
2  157 52 0 0 1.52
2  158 49 0 0 1.52
2  159 46 0 0 1.52
2  160 50 0 0 1.52
0

0101000
+228 0 -235 0 *
Wi

0101100
-234 0 +239 0 +227 0 -226 0 *
Fa
0  1e-07 46 0

0111000
+225 0 *
Ve
1.00000020706733e-07
49.2 7.005 -17.2
0 0

0101101
*
Ed
 1.00000007944109e-07 1 1 0
1  42 0 1.57079632679491 3.14159265358979
2  161 38 0 1.57079632679491 3.14159265358979
2  162 53 0 1.57079632679491 3.14159265358979
2  163 37 0 1.57079632679491 3.14159265358979
2  164 51 0 1.57079632679491 3.14159265358979
2  165 39 0 1.57079632679491 3.14159265358979
0

0101000
+223 0 -274 0 *
Ed
 1e-07 1 1 0
1  43 0 0 2
2  166 54 0 0 2
2  167 49 0 0 2
2  168 37 0 0 2
2  169 50 0 0 2
0

0101000
+223 0 -228 0 *
Wi

0101100
-222 0 +273 0 +238 0 +227 0 +221 0 *
Fa
0  1e-07 37 0

0111000
+220 0 *
Ve
1.00000007944109e-07
49.2 8.005 -17.2
0 0

0101101
*
Ed
 1.00000007105427e-07 1 1 0
1  44 0 0 0.999999999999999
2  170 55 0 0 0.999999999999999
2  171 49 0 0 0.999999999999999
2  172 38 0 0 0.999999999999999
2  173 39 0 0 0.999999999999999
2  174 50 0 0 0.999999999999999
0

0101000
+223 0 -218 0 *
Ve
1e-07
50.2 8.005 -17.2
0 0

0101101
*
Ed
 1e-07 1 1 0
1  45 0 11.4 12.4
4 CN 40 0 56 0
2  175 40 0 11.4 12.4
2  176 56 0 11.4 12.4
2  177 49 0 11.4 12.4
2  178 50 0 11.4 12.4
0

0101000
+218 0 -216 0 *
Ed
 1e-07 1 1 0
1  46 0 0 0.52
2  179 42 0 0 0.52
4 G1 57 0 42 0
2  180 57 0 0 0.52
2  181 49 0 0 0.52
2  182 50 0 0 0.52
0

0101000
+216 0 -233 0 *
Wi

0101100
-217 0 -215 0 -214 0 -232 0 +226 0 +221 0 *
Fa
0  1e-07 49 0

0111000
+213 0 *
Ed
 1e-07 1 1 0
1  47 0 1.5707963267949 3.14159265358979
2  183 42 0 1.5707963267949 3.14159265358979
4 C0 42 0 40 0
2  184 40 0 1.5707963267949 3.14159265358979
0

0101000
+216 0 -270 0 *
Wi

0101100
-231 0 -214 0 +211 0 +268 0 *
Fa
0  1e-07 42 0

0111000
+210 0 *
Ed
 1.00000007944109e-07 1 1 0
1  48 0 1.5707963267949 3.14159265358979
2  185 39 0 1.5707963267949 3.14159265358979
2  186 58 0 1.5707963267949 3.14159265358979
2  187 31 0 1.5707963267949 3.14159265358979
2  188 32 0 1.5707963267949 3.14159265358979
2  189 33 0 1.5707963267949 3.14159265358979
2  190 38 0 1.5707963267949 3.14159265358979
2  191 40 0 1.5707963267949 3.14159265358979
0

0101000
+218 0 -272 0 *
Wi

0101100
-208 0 +271 0 +222 0 -217 0 *
Fa
0  1e-07 38 0

0111000
+207 0 *
Wi

0101100
-208 0 +269 0 +211 0 +215 0 *
Fa
0  1e-07 40 0

0111000
+205 0 *
Sh

0101100
-236 0 +229 0 +224 0 -219 0 -266 0 +212 0 -209 0 -206 0 +204 0 *
So

0100000
+203 0 *
Ve
1e-07
37.8 8.525 19.2
0 0

0101101
*
Ed
 1e-07 1 1 0
1  49 0 -37.8 -1.4
4 C0 2 0 25 0
2  192 2 0 -37.8 -1.4
2  193 25 0 -37.8 -1.4
2  194 10 0 -37.8 -1.4
0

0101000
+201 0 -329 0 *
Ve
1.0000000116861e-07
36.8 8.525 19.2
0 0

0101101
*
Ed
 1e-07 1 1 0
1  50 0 0 1
2  195 10 0 0 1
2  196 59 0 0 1
2  197 2 0 0 1
2  198 60 0 0 1
2  199 61 0 0 1
0

0101000
+199 0 -201 0 *
Ed
 1e-07 1 1 0
1  51 0 0 36.4
2  200 24 0 0 36.4
2  201 10 0 0 36.4
2  202 2 0 0 36.4
0

0101000
+327 0 -199 0 *
Wi

0101100
-326 0 +200 0 +198 0 +197 0 *
Fa
0  1e-07 2 0

0111000
+196 0 *
Ve
1e-07
37.8 8.005 19.2
0 0

0101101
*
Ed
 1e-07 1 1 0
1  52 0 0 0.52
2  203 62 0 0 0.52
4 G1 25 0 62 0
2  204 25 0 0 0.52
2  205 59 0 0 0.52
2  206 60 0 0 0.52
0

0101000
+194 0 -201 0 *
Ed
 1e-07 1 1 0
1  53 0 0 36.4
4 C0 25 0 63 0
2  207 63 0 0 36.4
2  208 25 0 0 36.4
0

0101000
+303 0 -194 0 *
Wi

0101100
-193 0 -192 0 +301 0 -200 0 *
Fa
0  1e-07 25 0

0111000
+191 0 *
Ve
1.0000000116861e-07
36.8 7.005 19.2
0 0

0101101
*
Ed
 1e-07 1 1 0
1  54 0 0 1.52
2  209 24 0 0 1.52
2  210 59 0 0 1.52
2  211 64 0 0 1.52
2  212 60 0 0 1.52
0

0101000
+189 0 -199 0 *
Ve
1.00000001776357e-07
38.8 8.005 19.2
0 0

0101101
*
Ed
 1e-07 1 1 0
1  55 0 0 1
4 CN 65 0 66 0
2  213 65 0 0 1
2  214 66 0 0 1
2  215 59 0 0 1
2  216 60 0 0 1
0

0101000
+194 0 -187 0 *
Ve
1.00000021316282e-07
38.8 7.005 19.2
0 0

0101101
*
Ed
 1e-07 1 1 0
1  56 0 0 0.999999999999999
2  217 27 0 0 0.999999999999999
2  218 59 0 0 0.999999999999999
2  219 67 0 0 0.999999999999999
2  220 68 0 0 0.999999999999999
2  221 60 0 0 0.999999999999999
0

0101000
+185 0 -187 0 *
Ed
 1e-07 1 1 0
1  57 0 0 2
2  222 23 0 0 2
2  223 59 0 0 2
2  224 69 0 0 2
2  225 60 0 0 2
0

0101000
+189 0 -185 0 *
Wi

0101100
-188 0 -198 0 +193 0 -186 0 +184 0 +183 0 *
Fa
0  1e-07 59 0

0111000
+182 0 *
Ed
 1e-07 1 1 0
1  58 0 0 36.4
2  226 24 0 0 36.4
2  227 23 0 0 36.4
0

0101000
+311 0 -189 0 *
Wi

0101100
-180 0 -188 0 +197 0 +306 0 *
Fa
0  1e-07 24 0

0111000
+179 0 *
Ve
1.00000028435584e-07
38.8 8.005 -15.4679491924312
0 0

0101101
*
Ed
 1.00000001776357e-07 1 1 0
1  59 0 0 1.73205080756884
2  228 70 0 0 1.73205080756884
2  229 71 0 0 1.73205080756884
2  230 44 0 0 1.73205080756884
2  231 29 0 0 1.73205080756884
2  232 30 0 0 1.73205080756884
2  233 31 0 0 1.73205080756884
2  234 32 0 0 1.73205080756884
2  235 33 0 0 1.73205080756884
2  236 26 0 0 1.73205080756884
2  237 27 0 0 1.73205080756884
0

0101000
+298 0 -177 0 *
Ed
 1e-07 1 1 0
1  60 0 4.71238898038469 5.75958653158127
4 CN 63 0 26 0
2  238 63 0 4.71238898038469 5.75958653158127
2  239 26 0 4.71238898038469 5.75958653158127
0

0101000
+303 0 -177 0 *
Wi

0101100
-297 0 -176 0 +175 0 *
Fa
0  1e-07 26 0

0111000
+174 0 *
Ed
 1e-07 1 1 0
1  61 0 0 36.4
2  240 27 0 0 36.4
2  241 23 0 0 36.4
0

0101000
+313 0 -185 0 *
Ve
1.00000028642893e-07
38.8 8.005 17.4679491924312
0 0

0101101
*
Ed
 1.00000001776357e-07 1 1 0
1  59 0 34.6679491924312 36.4
2  228 70 0 34.6679491924312 36.4
2  229 71 0 34.6679491924312 36.4
2  230 44 0 34.6679491924312 36.4
2  231 29 0 34.6679491924312 36.4
2  232 30 0 34.6679491924312 36.4
2  233 31 0 34.6679491924312 36.4
2  234 32 0 34.6679491924312 36.4
2  235 33 0 34.6679491924312 36.4
2  242 66 0 34.6679491924312 36.4
2  243 27 0 34.6679491924312 36.4
0

0101000
+171 0 -187 0 *
Ed
 1.00000001776357e-07 1 1 0
1  59 0 1.73205080756884 34.6679491924312
2  228 70 0 1.73205080756884 34.6679491924312
2  229 71 0 1.73205080756884 34.6679491924312
2  230 44 0 1.73205080756884 34.6679491924312
2  231 29 0 1.73205080756884 34.6679491924312
2  232 30 0 1.73205080756884 34.6679491924312
2  233 31 0 1.73205080756884 34.6679491924312
2  234 32 0 1.73205080756884 34.6679491924312
2  235 33 0 1.73205080756884 34.6679491924312
2  244 63 0 1.73205080756884 34.6679491924312
2  245 27 0 1.73205080756884 34.6679491924312
0

0101000
+177 0 -171 0 *
Wi

0101100
-172 0 -184 0 +170 0 +169 0 +176 0 +296 0 *
Fa
0  1e-07 27 0

0111000
+168 0 *
Wi

0101100
-310 0 -172 0 +183 0 +180 0 *
Fa
0  1e-07 23 0

0111000
+166 0 *
Ed
 1e-07 1 1 0
1  62 0 3.66519142918811 4.71238898038469
4 CN 63 0 66 0
2  246 63 0 3.66519142918811 4.71238898038469
2  247 66 0 3.66519142918811 4.71238898038469
0

0101000
+171 0 -194 0 *
Wi

0101100
-175 0 -169 0 -164 0 +192 0 *
Fa
0  1e-07 63 0

0111000
+163 0 *
Wi

0101100
-170 0 +186 0 +164 0 *
Fa
0  1e-07 66 0

0111000
+161 0 *
Sh

0101100
+195 0 -294 0 +190 0 +181 0 -178 0 +173 0 +167 0 -165 0 +162 0 +160 0 
*
So

0100000
+159 0 *
Ve
1e-07
39.8 8.525 21.2
0 0

0101101
*
Ed
 1e-07 1 1 0
1  63 0 4.71238898038469 6.28318530717959
2  248 62 0 4.71238898038469 6.28318530717959
4 C0 2 0 62 0
2  249 2 0 4.71238898038469 6.28318530717959
2  250 61 0 4.71238898038469 6.28318530717959
0

0101000
+201 0 -157 0 *
Ve
2.12133034355964e-07
39.8 8.525 22
0 0

0101101
*
Ed
 1e-07 1 1 0
1  64 0 1 1.8
2  251 72 0 1 1.8
2  252 73 0 1 1.8
2  253 2 0 1 1.8
2  254 74 0 1 1.8
2  255 61 0 1 1.8
0

0101000
+157 0 -155 0 *
Ve
1.00000137962444e-07
38.722967038573 8.525 22
0 0

0101101
*
Ed
 1e-07 1 1 0
1  65 0 15.222967038573 16.3
4 C0 2 0 75 0
2  256 2 0 15.222967038573 16.3
2  257 75 0 15.222967038573 16.3
2  258 61 0 15.222967038573 16.3
0

0101000
+153 0 -155 0 *
Ed
 1e-07 1 1 0
1  66 0 4.71238898038469 5.9159772866217
2  259 64 0 4.71238898038469 5.9159772866217
2  260 61 0 4.71238898038469 5.9159772866217
2  261 76 0 4.71238898038469 5.9159772866217
2  262 2 0 4.71238898038469 5.9159772866217
0

0101000
+199 0 -153 0 *
Wi

0101100
-198 0 -156 0 -154 0 +152 0 +151 0 *
Fa
0  1e-07 2 0

0111000
+150 0 *
Ve
1e-07
39.8 8.005 21.2
0 0

0101101
*
Ed
 1e-07 1 1 0
1  67 0 4.71238898038469 6.28318530717959
2  263 62 0 4.71238898038469 6.28318530717959
4 C0 62 0 65 0
2  264 65 0 4.71238898038469 6.28318530717959
0

0101000
+194 0 -148 0 *
Ed
 1e-07 1 1 0
1  68 0 0 0.52
2  265 62 0 0 0.52
4 G1 62 0 77 0
2  266 77 0 0 0.52
2  267 72 0 0 0.52
2  268 74 0 0 0.52
0

0101000
+148 0 -157 0 *
Wi

0101100
+147 0 +146 0 -156 0 -193 0 *
Fa
0  1e-07 62 0

0111000
+145 0 *
Ve
1.00000003552714e-07
39.8 7.005 20.2
0 0

0101101
*
Ve
2.12133034355964e-07
39.8 7.005 22
0 0

0101101
*
Ed
 1e-07 1 1 0
1  69 0 0 1.8
2  269 72 0 0 1.8
2  270 78 0 0 1.8
2  271 74 0 0 1.8
2  272 69 0 0 1.8
0

0101000
+143 0 -142 0 *
Ed
 2.12132034355964e-07 1 1 0
1  70 0 -0.26 1.26
2  273 75 0 -0.26 1.26
2  274 74 0 -0.26 1.26
2  275 72 0 -0.26 1.26
0

0101000
+155 0 -142 0 *
Ve
1.00000001776357e-07
39.8 8.005 20.2
0 0

0101101
*
Ed
 1e-07 1 1 0
1  71 0 39.4 40.4
4 CN 65 0 79 0
2  276 65 0 39.4 40.4
2  277 79 0 39.4 40.4
2  278 72 0 39.4 40.4
2  279 74 0 39.4 40.4
0

0101000
+139 0 -148 0 *
Ed
 1e-07 1 1 0
1  72 0 0 0.999999999999999
2  280 72 0 0 0.999999999999999
2  281 80 0 0 0.999999999999999
2  282 74 0 0 0.999999999999999
3  283 284C0 67 0 0 0.999999999999999
3  285 286C0 68 0 0 0.999999999999999
0

0101000
+143 0 -139 0 *
Wi

0101100
-141 0 +140 0 +154 0 +146 0 +138 0 +137 0 *
Fa
0  1e-07 72 0

0111000
+136 0 *
Ve
1.5e-07
38.7229670385731 7.005 22
0 0

0101101
*
Ed
 1e-07 1 1 0
1  73 0 0 1.52
2  287 75 0 0 1.52
2  288 64 0 0 1.52
0

0101000
+134 0 -153 0 *
Ed
 1.5e-07 1 1 0
1  74 0 -8.1770329614269 -7.1
2  289 75 0 -8.1770329614269 -7.1
2  290 69 0 -8.1770329614269 -7.1
0

0101000
+134 0 -142 0 *
Wi

0101100
+133 0 -132 0 +140 0 +152 0 *
Fa
0  1e-07 75 0

0111000
+131 0 *
Ed
 1e-07 1 1 0
1  75 0 4.71238898038469 5.91597728662175
2  291 64 0 4.71238898038469 5.91597728662175
2  292 69 0 4.71238898038469 5.91597728662175
2  293 81 0 4.71238898038469 5.91597728662175
0

0101000
+189 0 -134 0 *
Wi

0101100
+129 0 -188 0 -151 0 +133 0 *
Fa
0  1e-07 64 0

0111000
+128 0 *
Ed
 1.00000001776357e-07 1 1 0
1  76 0 4.71238898038469 6.28318530717959
2  294 68 0 4.71238898038469 6.28318530717959
2  295 82 0 4.71238898038469 6.28318530717959
2  296 30 0 4.71238898038469 6.28318530717959
2  297 31 0 4.71238898038469 6.28318530717959
2  298 32 0 4.71238898038469 6.28318530717959
2  299 33 0 4.71238898038469 6.28318530717959
2  300 67 0 4.71238898038469 6.28318530717959
2  301 65 0 4.71238898038469 6.28318530717959
0

0101000
+187 0 -139 0 *
Wi

0101100
-186 0 -126 0 -138 0 +147 0 *
Fa
0  1e-07 65 0

0111000
+125 0 *
Ed
 1.00000003552714e-07 1 1 0
1  77 0 4.71238898038468 6.28318530717959
2  302 67 0 4.71238898038468 6.28318530717959
2  303 83 0 4.71238898038468 6.28318530717959
2  304 69 0 4.71238898038468 6.28318530717959
2  305 81 0 4.71238898038468 6.28318530717959
2  306 68 0 4.71238898038468 6.28318530717959
0

0101000
+185 0 -143 0 *
Wi

0101100
+123 0 -184 0 -126 0 +137 0 *
Fa
0  1e-07 67 0

0111000
+122 0 *
Wi

0101100
-183 0 -123 0 -141 0 +132 0 +129 0 *
Fa
0  1e-07 69 0

0111000
+120 0 *
Sh

0101100
+149 0 -181 0 -144 0 +135 0 -130 0 +127 0 +124 0 -121 0 -119 0 *
So

0100000
+118 0 *
Ve
1.0000000116861e-07
51.2 7.005 19.2
0 0

0101101
*
Ed
 1e-07 1 1 0
1  78 0 0 36.4
2  307 52 0 0 36.4
2  308 54 0 0 36.4
0

0101000
+228 0 -116 0 *
Ve
1.00000023467632e-07
49.2 7.005 19.2
0 0

0101101
*
Ed
 1e-07 1 1 0
1  79 0 0 2
2  309 54 0 0 2
2  310 84 0 0 2
2  311 85 0 0 2
2  312 86 0 0 2
0

0101000
+114 0 -116 0 *
Ed
 1.00000007105427e-07 1 1 0
1  80 0 0 36.4
2  313 55 0 0 36.4
2  314 54 0 0 36.4
0

0101000
+223 0 -114 0 *
Wi

0101100
-221 0 -115 0 +113 0 +112 0 *
Fa
0  1e-07 54 0

0111000
+111 0 *
Ve
1.0000000116861e-07
51.2 8.525 19.2
0 0

0101101
*
Ed
 1e-07 1 1 0
1  81 0 0 1.52
2  315 52 0 0 1.52
2  316 84 0 0 1.52
2  317 87 0 0 1.52
2  318 85 0 0 1.52
0

0101000
+116 0 -109 0 *
Ed
 1e-07 1 1 0
1  82 0 0 36.4
2  319 52 0 0 36.4
2  320 48 0 0 36.4
2  321 2 0 0 36.4
0

0101000
+235 0 -109 0 *
Wi

0101100
-115 0 -108 0 +107 0 +226 0 *
Fa
0  1e-07 52 0

0111000
+106 0 *
Ve
1.00000007944109e-07
49.2 8.005 19.2
0 0

0101101
*
Ed
 1.00000007105427e-07 1 1 0
1  83 0 0 0.999999999999999
2  322 55 0 0 0.999999999999999
2  323 84 0 0 0.999999999999999
2  324 88 0 0 0.999999999999999
2  325 89 0 0 0.999999999999999
2  326 85 0 0 0.999999999999999
0

0101000
+114 0 -104 0 *
Ve
1e-07
50.2 8.005 19.2
0 0

0101101
*
Ed
 1e-07 1 1 0
1  84 0 11.4 12.4
4 CN 90 0 91 0
2  327 90 0 11.4 12.4
2  328 91 0 11.4 12.4
2  329 84 0 11.4 12.4
2  330 85 0 11.4 12.4
0

0101000
+104 0 -102 0 *
Ve
1e-07
50.2 8.525 19.2
0 0

0101101
*
Ed
 1e-07 1 1 0
1  85 0 0 0.52
2  331 92 0 0 0.52
4 G1 92 0 57 0
2  332 57 0 0 0.52
2  333 84 0 0 0.52
2  334 85 0 0 0.52
0

0101000
+102 0 -100 0 *
Ed
 1e-07 1 1 0
1  86 0 1 2
2  335 48 0 1 2
2  336 84 0 1 2
2  337 2 0 1 2
2  338 93 0 1 2
2  339 85 0 1 2
0

0101000
+100 0 -109 0 *
Wi

0101100
-103 0 -101 0 -99 0 -98 0 +108 0 +113 0 *
Fa
0  1e-07 84 0

0111000
+97 0 *
Ve
1.00000028435584e-07
49.2 8.005 17.4679491924312
0 0

0101101
*
Ed
 1.00000007105427e-07 1 1 0
1  87 0 34.6679491924312 36.4
2  340 94 0 34.6679491924312 36.4
2  341 71 0 34.6679491924312 36.4
2  342 44 0 34.6679491924312 36.4
2  343 29 0 34.6679491924312 36.4
2  344 30 0 34.6679491924312 36.4
2  345 31 0 34.6679491924312 36.4
2  346 32 0 34.6679491924312 36.4
2  347 33 0 34.6679491924312 36.4
2  348 91 0 34.6679491924312 36.4
2  349 55 0 34.6679491924312 36.4
0

0101000
+95 0 -104 0 *
Ve
1.00000028435584e-07
49.2 8.005 -15.4679491924312
0 0

0101101
*
Ed
 1.00000007105427e-07 1 1 0
1  87 0 1.73205080756885 34.6679491924312
2  340 94 0 1.73205080756885 34.6679491924312
2  341 71 0 1.73205080756885 34.6679491924312
2  342 44 0 1.73205080756885 34.6679491924312
2  343 29 0 1.73205080756885 34.6679491924312
2  344 30 0 1.73205080756885 34.6679491924312
2  345 31 0 1.73205080756885 34.6679491924312
2  346 32 0 1.73205080756885 34.6679491924312
2  347 33 0 1.73205080756885 34.6679491924312
2  350 95 0 1.73205080756885 34.6679491924312
2  351 55 0 1.73205080756885 34.6679491924312
0

0101000
+93 0 -95 0 *
Ed
 1.00000007105427e-07 1 1 0
1  87 0 0 1.73205080756885
2  340 94 0 0 1.73205080756885
2  341 71 0 0 1.73205080756885
2  342 44 0 0 1.73205080756885
2  343 29 0 0 1.73205080756885
2  344 30 0 0 1.73205080756885
2  345 31 0 0 1.73205080756885
2  346 32 0 0 1.73205080756885
2  347 33 0 0 1.73205080756885
2  352 56 0 0 1.73205080756885
2  353 55 0 0 1.73205080756885
0

0101000
+218 0 -93 0 *
Wi

0101100
-112 0 -103 0 +94 0 +92 0 +91 0 +217 0 *
Fa
0  1e-07 55 0

0111000
+90 0 *
Ed
 1e-07 1 1 0
1  88 0 0.523598775598315 1.5707963267949
4 CN 95 0 56 0
2  354 95 0 0.523598775598315 1.5707963267949
2  355 56 0 0.523598775598315 1.5707963267949
0

0101000
+93 0 -216 0 *
Wi

0101100
-215 0 +88 0 +91 0 *
Fa
0  1e-07 56 0

0111000
+87 0 *
Ed
 1e-07 1 1 0
1  89 0 0 36.4
4 C0 57 0 95 0
2  356 95 0 0 36.4
2  357 57 0 0 36.4
0

0101000
+216 0 -102 0 *
Ed
 1e-07 1 1 0
1  90 0 -37.8 -1.4
4 C0 2 0 57 0
2  358 2 0 -37.8 -1.4
2  359 57 0 -37.8 -1.4
2  360 48 0 -37.8 -1.4
0

0101000
+100 0 -233 0 *
Wi

0101100
-99 0 -85 0 +214 0 -84 0 *
Fa
0  1e-07 57 0

0111000
+83 0 *
Wi

0101100
-107 0 +98 0 -84 0 -232 0 *
Fa
0  1e-07 2 0

0111000
+81 0 *
Ed
 1e-07 1 1 0
1  91 0 1.5707963267949 2.61799387799148
4 CN 95 0 91 0
2  361 95 0 1.5707963267949 2.61799387799148
2  362 91 0 1.5707963267949 2.61799387799148
0

0101000
+102 0 -95 0 *
Wi

0101100
+94 0 +79 0 +101 0 *
Fa
0  1e-07 91 0

0111000
+78 0 *
Wi

0101100
-79 0 +92 0 -88 0 -85 0 *
Fa
0  1e-07 95 0

0111000
+76 0 *
Sh

0101100
-110 0 -212 0 +105 0 +96 0 -89 0 +86 0 -82 0 +80 0 +77 0 +75 0 
*
So

0100000
+74 0 *
Ve
1.00000137962444e-07
49.277032961427 8.525 22
0 0

0101101
*
Ed
 1e-07 1 1 0
1  92 0 0.367208020557883 1.5707963267949
2  363 87 0 0.367208020557883 1.5707963267949
2  364 93 0 0.367208020557883 1.5707963267949
2  365 96 0 0.367208020557883 1.5707963267949
2  366 2 0 0.367208020557883 1.5707963267949
0

0101000
+72 0 -109 0 *
Ve
2.12133034355964e-07
48.2 8.525 22
0 0

0101101
*
Ed
 1e-07 1 1 0
1  65 0 24.7 25.777032961427
4 C0 2 0 75 0
2  256 2 0 24.7 25.777032961427
2  257 75 0 24.7 25.777032961427
2  367 93 0 24.7 25.777032961427
0

0101000
+70 0 -72 0 *
Ve
1.00000007105427e-07
48.2 8.525 21.2
0 0

0101101
*
Ed
 1.00000007105427e-07 1 1 0
1  93 0 1 1.8
2  368 97 0 1 1.8
2  369 73 0 1 1.8
2  370 2 0 1 1.8
2  371 93 0 1 1.8
2  372 98 0 1 1.8
0

0101000
+68 0 -70 0 *
Ed
 1e-07 1 1 0
1  94 0 0 1.5707963267949
2  373 92 0 0 1.5707963267949
4 C0 2 0 92 0
2  374 2 0 0 1.5707963267949
2  375 93 0 0 1.5707963267949
0

0101000
+68 0 -100 0 *
Wi

0101100
+71 0 +69 0 +67 0 -66 0 -98 0 *
Fa
0  1e-07 2 0

0111000
+65 0 *
Ve
1.5e-07
49.2770329614269 7.005 22
0 0

0101101
*
Ed
 1e-07 1 1 0
1  95 0 0.367208020557837 1.5707963267949
2  376 87 0 0.367208020557837 1.5707963267949
2  377 86 0 0.367208020557837 1.5707963267949
2  378 99 0 0.367208020557837 1.5707963267949
0

0101000
+63 0 -116 0 *
Ed
 1e-07 1 1 0
1  96 0 0 1.52
2  379 75 0 0 1.52
2  380 87 0 0 1.52
0

0101000
+63 0 -72 0 *
Wi

0101100
-71 0 +108 0 +62 0 -61 0 *
Fa
0  1e-07 87 0

0111000
+60 0 *
Ve
2.12133034355964e-07
48.2 7.005 22
0 0

0101101
*
Ed
 2.12132041461392e-07 1 1 0
1  97 0 -0.26 1.26
2  381 75 0 -0.26 1.26
2  382 98 0 -0.26 1.26
2  383 97 0 -0.26 1.26
0

0101000
+70 0 -58 0 *
Ed
 1.5e-07 1 1 0
1  98 0 -2.9 -1.8229670385731
2  384 75 0 -2.9 -1.8229670385731
2  385 86 0 -2.9 -1.8229670385731
0

0101000
+58 0 -63 0 *
Wi

0101100
-57 0 -56 0 -61 0 +69 0 *
Fa
0  1e-07 75 0

0111000
+55 0 *
Ve
1.00000015049537e-07
48.2 7.005 20.2
0 0

0101101
*
Ed
 1.00000007105427e-07 1 1 0
1  99 0 0 1.8
2  386 97 0 0 1.8
2  387 78 0 0 1.8
2  388 86 0 0 1.8
2  389 98 0 0 1.8
0

0101000
+53 0 -58 0 *
Ve
1.00000007105427e-07
48.2 8.005 21.2
0 0

0101101
*
Ed
 1.00000007105427e-07 1 1 0
1  100 0 0 0.52
2  390 92 0 0 0.52
4 G1 77 0 92 0
2  391 77 0 0 0.52
2  392 97 0 0 0.52
2  393 98 0 0 0.52
0

0101000
+51 0 -68 0 *
Ve
1.00000007944109e-07
48.2 8.005 20.2
0 0

0101101
*
Ed
 1.00000007105427e-07 1 1 0
1  101 0 39.4 40.4
4 CN 90 0 100 0
2  394 90 0 39.4 40.4
2  395 100 0 39.4 40.4
2  396 97 0 39.4 40.4
2  397 98 0 39.4 40.4
0

0101000
+49 0 -51 0 *
Ed
 1.00000007105427e-07 1 1 0
1  102 0 0 0.999999999999999
2  398 97 0 0 0.999999999999999
2  399 80 0 0 0.999999999999999
2  400 98 0 0 0.999999999999999
3  401 402C0 88 0 0 0.999999999999999
3  403 404C0 89 0 0 0.999999999999999
0

0101000
+53 0 -49 0 *
Wi

0101100
-52 0 +57 0 +67 0 +50 0 +48 0 +47 0 *
Fa
0  1e-07 97 0

0111000
+46 0 *
Ed
 1e-07 1 1 0
1  103 0 0 1.5707963267949
2  405 92 0 0 1.5707963267949
4 C0 92 0 90 0
2  406 90 0 0 1.5707963267949
0

0101000
+51 0 -102 0 *
Wi

0101100
-66 0 -50 0 +44 0 +99 0 *
Fa
0  1e-07 92 0

0111000
+43 0 *
Ed
 1.00000007944109e-07 1 1 0
1  104 0 0 1.57079632679491
2  407 88 0 0 1.57079632679491
2  408 101 0 0 1.57079632679491
2  409 86 0 0 1.57079632679491
2  410 99 0 0 1.57079632679491
2  411 89 0 0 1.57079632679491
0

0101000
+53 0 -114 0 *
Wi

0101100
-41 0 -113 0 +62 0 +56 0 +52 0 *
Fa
0  1e-07 86 0

0111000
+40 0 *
Ed
 1.00000007944109e-07 1 1 0
1  105 0 0 1.5707963267949
2  412 89 0 0 1.5707963267949
2  413 102 0 0 1.5707963267949
2  414 32 0 0 1.5707963267949
2  415 33 0 0 1.5707963267949
2  416 88 0 0 1.5707963267949
2  417 90 0 0 1.5707963267949
0

0101000
+49 0 -104 0 *
Wi

0101100
-38 0 -101 0 +44 0 +48 0 *
Fa
0  1e-07 90 0

0111000
+37 0 *
Wi

0101100
-38 0 +103 0 +41 0 -47 0 *
Fa
0  1e-07 88 0

0111000
+35 0 *
Sh

0101100
+64 0 +59 0 -54 0 -45 0 -42 0 -96 0 -39 0 +36 0 -34 0 *
So

0100000
+33 0 *
Ed
 1e-07 1 1 0
1  106 0 8.15 16.55
4 C0 2 0 77 0
2  418 2 0 8.15 16.55
2  419 77 0 8.15 16.55
2  420 73 0 8.15 16.55
0

0101000
+157 0 -68 0 *
Ed
 1e-07 1 1 0
1  65 0 16.3 24.7
4 C0 2 0 75 0
2  256 2 0 16.3 24.7
2  257 75 0 16.3 24.7
2  421 73 0 16.3 24.7
0

0101000
+155 0 -70 0 *
Wi

0101100
-31 0 -67 0 +30 0 +154 0 *
Fa
0  1e-07 2 0

0111000
+29 0 *
Ed
 1e-07 1 1 0
1  107 0 0 8.40000000000001
4 C0 77 0 103 0
2  422 103 0 0 8.40000000000001
2  423 77 0 0 8.40000000000001
0

0101000
+148 0 -51 0 *
Wi

0101100
-146 0 +27 0 +50 0 -31 0 *
Fa
0  1e-07 77 0

0111000
+26 0 *
Ed
 1.5e-07 1 1 0
1  108 0 -7.1 1.3
2  424 75 0 -7.1 1.3
2  425 78 0 -7.1 1.3
0

0101000
+142 0 -58 0 *
Wi

0101100
-140 0 -24 0 +57 0 +30 0 *
Fa
0  1e-07 75 0

0111000
+23 0 *
Ve
1.00000028435584e-07
41.5320508075688 8.005 20.2
0 0

0101101
*
Ed
 1e-07 1 1 0
1  109 0 0 1.04719755119658
4 CN 103 0 79 0
2  426 103 0 0 1.04719755119658
2  427 79 0 0 1.04719755119658
0

0101000
+148 0 -21 0 *
Ve
1.00000028435584e-07
46.4679491924312 8.005 20.2
0 0

0101101
*
Ed
 1.00000001776357e-07 1 1 0
1  110 0 1.73205080756885 6.66794919243116
2  428 44 0 1.73205080756885 6.66794919243116
2  429 104 0 1.73205080756885 6.66794919243116
2  430 29 0 1.73205080756885 6.66794919243116
2  431 30 0 1.73205080756885 6.66794919243116
2  432 31 0 1.73205080756885 6.66794919243116
2  433 32 0 1.73205080756885 6.66794919243116
2  434 33 0 1.73205080756885 6.66794919243116
2  435 103 0 1.73205080756885 6.66794919243116
2  436 80 0 1.73205080756885 6.66794919243116
0

0101000
+21 0 -19 0 *
Ed
 1e-07 1 1 0
1  111 0 5.23598775598301 6.28318530717959
4 CN 103 0 100 0
2  437 103 0 5.23598775598301 6.28318530717959
2  438 100 0 5.23598775598301 6.28318530717959
0

0101000
+19 0 -51 0 *
Wi

0101100
-20 0 -18 0 -17 0 +27 0 *
Fa
0  1e-07 103 0

0111000
+16 0 *
Ed
 1e-07 1 1 0
1  112 0 0 8.4
2  439 78 0 0 8.4
2  440 80 0 0 8.4
0

0101000
+143 0 -53 0 *
Wi

0101100
-14 0 -52 0 +24 0 +141 0 *
Fa
0  1e-07 78 0

0111000
+13 0 *
Ed
 1.00000001776357e-07 1 1 0
1  110 0 6.66794919243116 8.4
2  428 44 0 6.66794919243116 8.4
2  429 104 0 6.66794919243116 8.4
2  430 29 0 6.66794919243116 8.4
2  431 30 0 6.66794919243116 8.4
2  432 31 0 6.66794919243116 8.4
2  433 32 0 6.66794919243116 8.4
2  434 33 0 6.66794919243116 8.4
2  441 100 0 6.66794919243116 8.4
2  442 80 0 6.66794919243116 8.4
0

0101000
+19 0 -49 0 *
Wi

0101100
-48 0 +17 0 -11 0 *
Fa
0  1e-07 100 0

0111000
+10 0 *
Ed
 1.00000001776357e-07 1 1 0
1  110 0 0 1.73205080756885
2  428 44 0 0 1.73205080756885
2  429 104 0 0 1.73205080756885
2  430 29 0 0 1.73205080756885
2  431 30 0 0 1.73205080756885
2  432 31 0 0 1.73205080756885
2  433 32 0 0 1.73205080756885
2  434 33 0 0 1.73205080756885
2  443 79 0 0 1.73205080756885
2  444 80 0 0 1.73205080756885
0

0101000
+139 0 -21 0 *
Wi

0101100
-137 0 -8 0 -18 0 -11 0 +47 0 +14 0 *
Fa
0  1e-07 80 0

0111000
+7 0 *
Wi

0101100
+138 0 -8 0 +20 0 *
Fa
0  1e-07 79 0

0111000
+5 0 *
Sh

0101100
+28 0 -25 0 +45 0 -22 0 -135 0 +15 0 -12 0 +9 0 -6 0 +4 0 
*
So

0100000
+3 0 *
Co

1100000
+287 0 +243 0 +202 0 +158 0 +117 0 +73 0 +32 0 +2 0 *

+1 0 