%TF.GenerationSoftware,KiCad,Pcbnew,10.0.5*%
%TF.CreationDate,2026-08-17T02:05:27-04:00*%
%TF.ProjectId,hr30-carrier-b-p0.1,68723330-2d63-4617-9272-6965722d622d,rev?*%
%TF.SameCoordinates,Original*%
%TF.FileFunction,Copper,L1,Top*%
%TF.FilePolarity,Positive*%
%FSLAX46Y46*%
G04 Gerber Fmt 4.6, Leading zero omitted, Abs format (unit mm)*
G04 Created by KiCad (PCBNEW 10.0.5) date 2026-08-17 02:05:27*
%MOMM*%
%LPD*%
G01*
G04 APERTURE LIST*
G04 Aperture macros list*
%AMRoundRect*
0 Rectangle with rounded corners*
0 $1 Rounding radius*
0 $2 $3 $4 $5 $6 $7 $8 $9 X,Y pos of 4 corners*
0 Add a 4 corners polygon primitive as box body*
4,1,4,$2,$3,$4,$5,$6,$7,$8,$9,$2,$3,0*
0 Add four circle primitives for the rounded corners*
1,1,$1+$1,$2,$3*
1,1,$1+$1,$4,$5*
1,1,$1+$1,$6,$7*
1,1,$1+$1,$8,$9*
0 Add four rect primitives between the rounded corners*
20,1,$1+$1,$2,$3,$4,$5,0*
20,1,$1+$1,$4,$5,$6,$7,0*
20,1,$1+$1,$6,$7,$8,$9,0*
20,1,$1+$1,$8,$9,$2,$3,0*%
G04 Aperture macros list end*
%TA.AperFunction,SMDPad,CuDef*%
%ADD10RoundRect,0.150000X-0.150000X-0.700000X0.150000X-0.700000X0.150000X0.700000X-0.150000X0.700000X0*%
%TD*%
%TA.AperFunction,SMDPad,CuDef*%
%ADD11RoundRect,0.250000X-0.250000X-1.150000X0.250000X-1.150000X0.250000X1.150000X-0.250000X1.150000X0*%
%TD*%
%TA.AperFunction,SMDPad,CuDef*%
%ADD12RoundRect,0.087500X-0.425000X-0.087500X0.425000X-0.087500X0.425000X0.087500X-0.425000X0.087500X0*%
%TD*%
%TA.AperFunction,SMDPad,CuDef*%
%ADD13RoundRect,0.150000X0.150000X-0.875000X0.150000X0.875000X-0.150000X0.875000X-0.150000X-0.875000X0*%
%TD*%
%TA.AperFunction,ViaPad*%
%ADD14C,0.350000*%
%TD*%
%TA.AperFunction,Conductor*%
%ADD15C,0.200000*%
%TD*%
%TA.AperFunction,Conductor*%
%ADD16C,0.150000*%
%TD*%
G04 APERTURE END LIST*
D10*
%TO.P,J202,1*%
%TO.N,CTRL_GND*%
X50375000Y-5950000D03*
%TO.P,J202,2*%
%TO.N,TTL-RDIST_DATA*%
X51625000Y-5950000D03*
D11*
%TO.P,J202,MP*%
%TO.N,N/C*%
X48525000Y-2600000D03*
X53475000Y-2600000D03*
%TD*%
D12*
%TO.P,U201,1*%
%TO.N,CTRL_3V3*%
X30162500Y-19350000D03*
%TO.P,U201,2*%
%TO.N,CTRL_GND*%
X30162500Y-20000000D03*
%TO.P,U201,3*%
%TO.N,UART_TTL-LDIST_TX*%
X30162500Y-20650000D03*
%TO.P,U201,4*%
%TO.N,TTL-LDIST_DATA_PRE*%
X31837500Y-20650000D03*
%TO.P,U201,5*%
%TO.N,UART_TTL-LDIST_DIR*%
X31837500Y-20000000D03*
%TO.P,U201,6*%
%TO.N,CTRL_5V*%
X31837500Y-19350000D03*
%TD*%
D10*
%TO.P,J201,1*%
%TO.N,CTRL_GND*%
X30375000Y-5950000D03*
%TO.P,J201,2*%
%TO.N,TTL-LDIST_DATA*%
X31625000Y-5950000D03*
D11*
%TO.P,J201,MP*%
%TO.N,N/C*%
X28525000Y-2600000D03*
X33475000Y-2600000D03*
%TD*%
D12*
%TO.P,U203,1*%
%TO.N,CTRL_3V3*%
X70162500Y-19350000D03*
%TO.P,U203,2*%
%TO.N,CTRL_GND*%
X70162500Y-20000000D03*
%TO.P,U203,3*%
%TO.N,UART_TTL-HEAD_TX*%
X70162500Y-20650000D03*
%TO.P,U203,4*%
%TO.N,TTL-HEAD_DATA_PRE*%
X71837500Y-20650000D03*
%TO.P,U203,5*%
%TO.N,UART_TTL-HEAD_DIR*%
X71837500Y-20000000D03*
%TO.P,U203,6*%
%TO.N,CTRL_5V*%
X71837500Y-19350000D03*
%TD*%
%TO.P,U202,1*%
%TO.N,CTRL_3V3*%
X50162500Y-19350000D03*
%TO.P,U202,2*%
%TO.N,CTRL_GND*%
X50162500Y-20000000D03*
%TO.P,U202,3*%
%TO.N,UART_TTL-RDIST_TX*%
X50162500Y-20650000D03*
%TO.P,U202,4*%
%TO.N,TTL-RDIST_DATA_PRE*%
X51837500Y-20650000D03*
%TO.P,U202,5*%
%TO.N,UART_TTL-RDIST_DIR*%
X51837500Y-20000000D03*
%TO.P,U202,6*%
%TO.N,CTRL_5V*%
X51837500Y-19350000D03*
%TD*%
D10*
%TO.P,JCB1,1*%
%TO.N,CTRL_GND*%
X32250000Y-39950000D03*
%TO.P,JCB1,2*%
%TO.N,CTRL_5V*%
X33500000Y-39950000D03*
%TO.P,JCB1,3*%
%TO.N,CTRL_3V3*%
X34750000Y-39950000D03*
%TO.P,JCB1,4*%
%TO.N,UART_RS-WAIST_TX*%
X36000000Y-39950000D03*
%TO.P,JCB1,5*%
%TO.N,UART_RS-WAIST_RX*%
X37250000Y-39950000D03*
%TO.P,JCB1,6*%
%TO.N,UART_RS-WAIST_DIR*%
X38500000Y-39950000D03*
%TO.P,JCB1,7*%
%TO.N,UART_TTL-LDIST_TX*%
X39750000Y-39950000D03*
%TO.P,JCB1,8*%
%TO.N,UART_TTL-LDIST_DIR*%
X41000000Y-39950000D03*
%TO.P,JCB1,9*%
%TO.N,UART_TTL-RDIST_TX*%
X42250000Y-39950000D03*
%TO.P,JCB1,10*%
%TO.N,UART_TTL-RDIST_DIR*%
X43500000Y-39950000D03*
%TO.P,JCB1,11*%
%TO.N,UART_TTL-HEAD_TX*%
X44750000Y-39950000D03*
%TO.P,JCB1,12*%
%TO.N,UART_TTL-HEAD_DIR*%
X46000000Y-39950000D03*
%TO.P,JCB1,13*%
%TO.N,N/C*%
X47250000Y-39950000D03*
%TO.P,JCB1,14*%
X48500000Y-39950000D03*
%TO.P,JCB1,15*%
X49750000Y-39950000D03*
D11*
%TO.P,JCB1,MP*%
X30400000Y-36600000D03*
X51600000Y-36600000D03*
%TD*%
D13*
%TO.P,U105,1*%
%TO.N,CTRL_3V3*%
X5285000Y-24650000D03*
%TO.P,U105,2*%
%TO.N,UART_RS-WAIST_TX*%
X6555000Y-24650000D03*
%TO.P,U105,3*%
%TO.N,UART_RS-WAIST_DIR*%
X7825000Y-24650000D03*
%TO.P,U105,4*%
%TO.N,UART_RS-WAIST_RX*%
X9095000Y-24650000D03*
%TO.P,U105,5*%
%TO.N,UART_RS-WAIST_DIR*%
X10365000Y-24650000D03*
%TO.P,U105,6*%
%TO.N,CTRL_GND*%
X11635000Y-24650000D03*
%TO.P,U105,7*%
%TO.N,N/C*%
X12905000Y-24650000D03*
%TO.P,U105,8*%
X14175000Y-24650000D03*
%TO.P,U105,9*%
%TO.N,CTRL_5V*%
X15445000Y-24650000D03*
%TO.P,U105,10*%
%TO.N,CTRL_GND*%
X16715000Y-24650000D03*
%TO.P,U105,11*%
%TO.N,RS-WAIST_GND2*%
X16715000Y-15350000D03*
%TO.P,U105,12*%
%TO.N,RS-WAIST_VISOOUT*%
X15445000Y-15350000D03*
%TO.P,U105,13*%
%TO.N,RS-WAIST_GND2*%
X14175000Y-15350000D03*
%TO.P,U105,14*%
%TO.N,RS-WAIST_RET*%
X12905000Y-15350000D03*
%TO.P,U105,15*%
X11635000Y-15350000D03*
%TO.P,U105,16*%
%TO.N,RS-WAIST_VISOIN*%
X10365000Y-15350000D03*
%TO.P,U105,17*%
%TO.N,RS-WAIST_DP*%
X9095000Y-15350000D03*
%TO.P,U105,18*%
%TO.N,RS-WAIST_DN*%
X7825000Y-15350000D03*
%TO.P,U105,19*%
X6555000Y-15350000D03*
%TO.P,U105,20*%
%TO.N,RS-WAIST_DP*%
X5285000Y-15350000D03*
%TD*%
D10*
%TO.P,J105,1*%
%TO.N,RS-WAIST_RET*%
X9750000Y-5950000D03*
%TO.P,J105,2*%
%TO.N,RS-WAIST_DP*%
X11000000Y-5950000D03*
%TO.P,J105,3*%
%TO.N,RS-WAIST_DN*%
X12250000Y-5950000D03*
D11*
%TO.P,J105,MP*%
%TO.N,N/C*%
X7900000Y-2600000D03*
X14100000Y-2600000D03*
%TD*%
D10*
%TO.P,J203,1*%
%TO.N,CTRL_GND*%
X70375000Y-5950000D03*
%TO.P,J203,2*%
%TO.N,TTL-HEAD_DATA*%
X71625000Y-5950000D03*
D11*
%TO.P,J203,MP*%
%TO.N,N/C*%
X68525000Y-2600000D03*
X73475000Y-2600000D03*
%TD*%
D14*
%TO.N,CTRL_3V3*%
X34750000Y-39150000D03*
X28775000Y-23955000D03*
X4625000Y-24650000D03*
X68775000Y-23955000D03*
X29290000Y-19350000D03*
X49290000Y-19350000D03*
X69289999Y-19350000D03*
X6575000Y-30154999D03*
X69000000Y-24500000D03*
X48775000Y-23835000D03*
%TO.N,CTRL_5V*%
X52710000Y-19350000D03*
X48825000Y-9835000D03*
X32710000Y-19350000D03*
X54775000Y-23955000D03*
X33500000Y-39150000D03*
X72710000Y-19350000D03*
X68825000Y-9955000D03*
X15445000Y-26034999D03*
X28825000Y-9955000D03*
X16975000Y-30154999D03*
X34775000Y-23835000D03*
X11775000Y-30035000D03*
X69000000Y-10500000D03*
X74775000Y-23835000D03*
%TO.N,CTRL_GND*%
X53225000Y-23955000D03*
X47225000Y-23835000D03*
X30375000Y-6750000D03*
X70375000Y-6750000D03*
X27225000Y-23955000D03*
X32250000Y-39150000D03*
X15425000Y-30154999D03*
X50375000Y-6750000D03*
X67225000Y-23955000D03*
X49290000Y-20000000D03*
X53300000Y-9710000D03*
X73225000Y-23835000D03*
X29290000Y-20000000D03*
X33299999Y-9830000D03*
X46175000Y-17835000D03*
X5025000Y-30154999D03*
X69289999Y-20000000D03*
X66175000Y-17955000D03*
X17375000Y-24650000D03*
X73300000Y-9830000D03*
X11635000Y-26034999D03*
X10225000Y-30035000D03*
X26175000Y-17955000D03*
X33225000Y-23835000D03*
%TO.N,RS-WAIST_DN*%
X6555000Y-13965000D03*
X16737500Y-9110000D03*
X8750000Y-8610000D03*
X12250000Y-6750000D03*
X7825000Y-13965000D03*
%TO.N,RS-WAIST_DP*%
X4625000Y-15350000D03*
X9095000Y-13965000D03*
X6625000Y-8455000D03*
X11000000Y-6750000D03*
X16737500Y-7210000D03*
%TO.N,RS-WAIST_GND2*%
X17375000Y-15350000D03*
X15885000Y-13200000D03*
X14175000Y-13965000D03*
X15225000Y-10165000D03*
%TO.N,RS-WAIST_RET*%
X11635000Y-13965000D03*
X12905000Y-12865000D03*
X14915000Y-13200000D03*
X11550000Y-9550000D03*
X10225000Y-10045000D03*
X14862500Y-8160000D03*
%TO.N,RS-WAIST_TERM*%
X10000000Y-8000000D03*
X4975000Y-8455000D03*
X10050000Y-8610000D03*
%TO.N,RS-WAIST_VISOIN*%
X11775000Y-10045000D03*
X10365000Y-13965000D03*
X12515000Y-12540000D03*
%TO.N,RS-WAIST_VISOOUT*%
X17000000Y-11000000D03*
X13485000Y-13200000D03*
X15445000Y-12865000D03*
X16774999Y-10165000D03*
%TO.N,TTL-HEAD_DATA*%
X71625000Y-6750000D03*
X74700000Y-9830000D03*
X70000000Y-12500000D03*
X70175000Y-13165000D03*
X67175000Y-9955000D03*
%TO.N,TTL-HEAD_DATA_PRE*%
X72710000Y-20650000D03*
X71825000Y-13165000D03*
%TO.N,TTL-LDIST_DATA*%
X27000000Y-10500000D03*
X34700000Y-9830000D03*
X31625000Y-6750000D03*
X27175000Y-9955000D03*
X30175000Y-13165000D03*
%TO.N,TTL-LDIST_DATA_PRE*%
X32710000Y-20650000D03*
X31825000Y-13165000D03*
%TO.N,TTL-RDIST_DATA*%
X47175000Y-9835000D03*
X47000000Y-11000000D03*
X50175000Y-13045000D03*
X51625000Y-6750000D03*
X54700000Y-9710000D03*
%TO.N,TTL-RDIST_DATA_PRE*%
X52710000Y-20650000D03*
X51825000Y-13045000D03*
%TO.N,UART_RS-WAIST_DIR*%
X10500000Y-26500000D03*
X38500000Y-39150000D03*
X10365000Y-26034999D03*
X7825000Y-26034999D03*
%TO.N,UART_RS-WAIST_RX*%
X8500000Y-26000000D03*
X37250000Y-39150000D03*
X9095000Y-26034999D03*
%TO.N,UART_RS-WAIST_TX*%
X36000000Y-39150000D03*
X6555000Y-26034999D03*
X6500000Y-26500000D03*
%TO.N,UART_TTL-HEAD_DIR*%
X46000000Y-39150000D03*
X67825000Y-17955000D03*
X68500000Y-18000000D03*
X72710000Y-20000000D03*
%TO.N,UART_TTL-HEAD_TX*%
X68000000Y-20500000D03*
X69289999Y-20650000D03*
X44750000Y-39150000D03*
%TO.N,UART_TTL-LDIST_DIR*%
X32000000Y-20000000D03*
X27825000Y-17955000D03*
X32710000Y-20000000D03*
X28000000Y-17500000D03*
X41000000Y-39150000D03*
%TO.N,UART_TTL-LDIST_TX*%
X32500000Y-25000000D03*
X39750000Y-39150000D03*
X29290000Y-20650000D03*
X29500000Y-21500000D03*
%TO.N,UART_TTL-RDIST_DIR*%
X47825000Y-17835000D03*
X52710000Y-20000000D03*
X47500000Y-17500000D03*
X43500000Y-39150000D03*
%TO.N,UART_TTL-RDIST_TX*%
X49290000Y-20650000D03*
X49500000Y-21500000D03*
X42250000Y-39150000D03*
%TD*%
%TO.N,CTRL_3V3*%
D15*
X70162500Y-19350000D02*
X69289999Y-19350000D01*
X5285000Y-24650000D02*
X4625000Y-24650000D01*
X34750000Y-39950000D02*
X34750000Y-39150000D01*
X50162500Y-19350000D02*
X49290000Y-19350000D01*
X30162500Y-19350000D02*
X29290000Y-19350000D01*
%TO.N,CTRL_5V*%
X51837500Y-19350000D02*
X52710000Y-19350000D01*
X33500000Y-39950000D02*
X33500000Y-39150000D01*
X71837500Y-19350000D02*
X72710000Y-19350000D01*
X15445000Y-24650000D02*
X15445000Y-26034999D01*
X31837500Y-19350000D02*
X32710000Y-19350000D01*
%TO.N,CTRL_GND*%
X11635000Y-24650000D02*
X11635000Y-26034999D01*
X32250000Y-39950000D02*
X32250000Y-39150000D01*
X30162500Y-20000000D02*
X29290000Y-20000000D01*
X16715000Y-24650000D02*
X17375000Y-24650000D01*
X30375000Y-5950000D02*
X30375000Y-6750000D01*
X50162500Y-20000000D02*
X49290000Y-20000000D01*
X70162500Y-20000000D02*
X69289999Y-20000000D01*
X70375000Y-5950000D02*
X70375000Y-6750000D01*
X50375000Y-5950000D02*
X50375000Y-6750000D01*
%TO.N,RS-WAIST_DN*%
D16*
X6555000Y-15350000D02*
X6555000Y-13965000D01*
X7825000Y-15350000D02*
X7825000Y-13965000D01*
X12250000Y-5950000D02*
X12250000Y-6750000D01*
%TO.N,RS-WAIST_DP*%
X11000000Y-5950000D02*
X11000000Y-6750000D01*
X5285000Y-15350000D02*
X4625000Y-15350000D01*
X9095000Y-15350000D02*
X9095000Y-13965000D01*
%TO.N,RS-WAIST_GND2*%
D15*
X14175000Y-15350000D02*
X14175000Y-13965000D01*
X16715000Y-15350000D02*
X17375000Y-15350000D01*
%TO.N,RS-WAIST_RET*%
X11635000Y-15350000D02*
X11635000Y-13965000D01*
X9750000Y-5950000D02*
X11550000Y-9550000D01*
X12905000Y-15350000D02*
X12905000Y-12865000D01*
%TO.N,RS-WAIST_VISOIN*%
X10365000Y-15350000D02*
X10365000Y-13965000D01*
%TO.N,RS-WAIST_VISOOUT*%
X15445000Y-15350000D02*
X15445000Y-12865000D01*
%TO.N,TTL-HEAD_DATA*%
D16*
X71625000Y-5950000D02*
X71625000Y-6750000D01*
%TO.N,TTL-HEAD_DATA_PRE*%
X71837500Y-20650000D02*
X72710000Y-20650000D01*
%TO.N,TTL-LDIST_DATA*%
X31625000Y-5950000D02*
X31625000Y-6750000D01*
%TO.N,TTL-LDIST_DATA_PRE*%
X31837500Y-20650000D02*
X32710000Y-20650000D01*
%TO.N,TTL-RDIST_DATA*%
X51625000Y-5950000D02*
X51625000Y-6750000D01*
%TO.N,TTL-RDIST_DATA_PRE*%
X51837500Y-20650000D02*
X52710000Y-20650000D01*
%TO.N,UART_RS-WAIST_DIR*%
X10365000Y-24650000D02*
X10365000Y-26034999D01*
X38500000Y-39950000D02*
X38500000Y-39150000D01*
X7825000Y-24650000D02*
X7825000Y-26034999D01*
%TO.N,UART_RS-WAIST_RX*%
X9095000Y-24650000D02*
X9095000Y-26034999D01*
X37250000Y-39950000D02*
X37250000Y-39150000D01*
%TO.N,UART_RS-WAIST_TX*%
X6555000Y-24650000D02*
X6555000Y-26034999D01*
X36000000Y-39950000D02*
X36000000Y-39150000D01*
%TO.N,UART_TTL-HEAD_DIR*%
X46000000Y-39950000D02*
X46000000Y-39150000D01*
X71837500Y-20000000D02*
X72710000Y-20000000D01*
%TO.N,UART_TTL-HEAD_TX*%
X44750000Y-39950000D02*
X44750000Y-39150000D01*
X70162500Y-20650000D02*
X69289999Y-20650000D01*
%TO.N,UART_TTL-LDIST_DIR*%
X31837500Y-20000000D02*
X32710000Y-20000000D01*
X41000000Y-39950000D02*
X41000000Y-39150000D01*
%TO.N,UART_TTL-LDIST_TX*%
X30162500Y-20650000D02*
X29290000Y-20650000D01*
X39750000Y-39950000D02*
X39750000Y-39150000D01*
%TO.N,UART_TTL-RDIST_DIR*%
X51837500Y-20000000D02*
X52710000Y-20000000D01*
X43500000Y-39950000D02*
X43500000Y-39150000D01*
%TO.N,UART_TTL-RDIST_TX*%
X42250000Y-39950000D02*
X42250000Y-39150000D01*
X50162500Y-20650000D02*
X49290000Y-20650000D01*
%TD*%
M02*
