%TF.GenerationSoftware,KiCad,Pcbnew,10.0.5*%
%TF.CreationDate,2026-08-16T01:27:18-04:00*%
%TF.ProjectId,hr30-carrier-b-p0.1,68723330-2d63-4617-9272-6965722d622d,rev?*%
%TF.SameCoordinates,Original*%
%TF.FileFunction,Soldermask,Bot*%
%TF.FilePolarity,Negative*%
%FSLAX46Y46*%
G04 Gerber Fmt 4.6, Leading zero omitted, Abs format (unit mm)*
G04 Created by KiCad (PCBNEW 10.0.5) date 2026-08-16 01:27:18*
%MOMM*%
%LPD*%
G01*
G04 APERTURE LIST*
G04 APERTURE END LIST*
G36*
X3815151Y-37187301D02*
G01*
X4016623Y-37252763D01*
X4205373Y-37348936D01*
X4376755Y-37473452D01*
X4526548Y-37623245D01*
X4651064Y-37794627D01*
X4747237Y-37983377D01*
X4812699Y-38184849D01*
X4845838Y-38394080D01*
X4845838Y-38605920D01*
X4812699Y-38815151D01*
X4747237Y-39016623D01*
X4651064Y-39205373D01*
X4526548Y-39376755D01*
X4376755Y-39526548D01*
X4205373Y-39651064D01*
X4016623Y-39747237D01*
X3815151Y-39812699D01*
X3605920Y-39845838D01*
X3394080Y-39845838D01*
X3184849Y-39812699D01*
X2983377Y-39747237D01*
X2794627Y-39651064D01*
X2623245Y-39526548D01*
X2473452Y-39376755D01*
X2348936Y-39205373D01*
X2252763Y-39016623D01*
X2187301Y-38815151D01*
X2154162Y-38605920D01*
X2154162Y-38394080D01*
X2187301Y-38184849D01*
X2252763Y-37983377D01*
X2348936Y-37794627D01*
X2473452Y-37623245D01*
X2623245Y-37473452D01*
X2794627Y-37348936D01*
X2983377Y-37252763D01*
X3184849Y-37187301D01*
X3394080Y-37154162D01*
X3605920Y-37154162D01*
X3815151Y-37187301D01*
G37*
G36*
X78815151Y-37187301D02*
G01*
X79016623Y-37252763D01*
X79205373Y-37348936D01*
X79376755Y-37473452D01*
X79526548Y-37623245D01*
X79651064Y-37794627D01*
X79747237Y-37983377D01*
X79812699Y-38184849D01*
X79845838Y-38394080D01*
X79845838Y-38605920D01*
X79812699Y-38815151D01*
X79747237Y-39016623D01*
X79651064Y-39205373D01*
X79526548Y-39376755D01*
X79376755Y-39526548D01*
X79205373Y-39651064D01*
X79016623Y-39747237D01*
X78815151Y-39812699D01*
X78605920Y-39845838D01*
X78394080Y-39845838D01*
X78184849Y-39812699D01*
X77983377Y-39747237D01*
X77794627Y-39651064D01*
X77623245Y-39526548D01*
X77473452Y-39376755D01*
X77348936Y-39205373D01*
X77252763Y-39016623D01*
X77187301Y-38815151D01*
X77154162Y-38605920D01*
X77154162Y-38394080D01*
X77187301Y-38184849D01*
X77252763Y-37983377D01*
X77348936Y-37794627D01*
X77473452Y-37623245D01*
X77623245Y-37473452D01*
X77794627Y-37348936D01*
X77983377Y-37252763D01*
X78184849Y-37187301D01*
X78394080Y-37154162D01*
X78605920Y-37154162D01*
X78815151Y-37187301D01*
G37*
G36*
X5336104Y-28742127D02*
G01*
X5409099Y-28790901D01*
X5457873Y-28863896D01*
X5475000Y-28950000D01*
X5475000Y-29450000D01*
X5457873Y-29536104D01*
X5409099Y-29609099D01*
X5336104Y-29657873D01*
X5250000Y-29675000D01*
X4800000Y-29675000D01*
X4713896Y-29657873D01*
X4640901Y-29609099D01*
X4592127Y-29536104D01*
X4575000Y-29450000D01*
X4575000Y-28950000D01*
X4592127Y-28863896D01*
X4640901Y-28790901D01*
X4713896Y-28742127D01*
X4800000Y-28725000D01*
X5250000Y-28725000D01*
X5336104Y-28742127D01*
G37*
G36*
X6886104Y-28742127D02*
G01*
X6959099Y-28790901D01*
X7007873Y-28863896D01*
X7025000Y-28950000D01*
X7025000Y-29450000D01*
X7007873Y-29536104D01*
X6959099Y-29609099D01*
X6886104Y-29657873D01*
X6800000Y-29675000D01*
X6350000Y-29675000D01*
X6263896Y-29657873D01*
X6190901Y-29609099D01*
X6142127Y-29536104D01*
X6125000Y-29450000D01*
X6125000Y-28950000D01*
X6142127Y-28863896D01*
X6190901Y-28790901D01*
X6263896Y-28742127D01*
X6350000Y-28725000D01*
X6800000Y-28725000D01*
X6886104Y-28742127D01*
G37*
G36*
X10536104Y-28742127D02*
G01*
X10609099Y-28790901D01*
X10657873Y-28863896D01*
X10675000Y-28950000D01*
X10675000Y-29450000D01*
X10657873Y-29536104D01*
X10609099Y-29609099D01*
X10536104Y-29657873D01*
X10450000Y-29675000D01*
X10000000Y-29675000D01*
X9913896Y-29657873D01*
X9840901Y-29609099D01*
X9792127Y-29536104D01*
X9775000Y-29450000D01*
X9775000Y-28950000D01*
X9792127Y-28863896D01*
X9840901Y-28790901D01*
X9913896Y-28742127D01*
X10000000Y-28725000D01*
X10450000Y-28725000D01*
X10536104Y-28742127D01*
G37*
G36*
X12086104Y-28742127D02*
G01*
X12159099Y-28790901D01*
X12207873Y-28863896D01*
X12225000Y-28950000D01*
X12225000Y-29450000D01*
X12207873Y-29536104D01*
X12159099Y-29609099D01*
X12086104Y-29657873D01*
X12000000Y-29675000D01*
X11550000Y-29675000D01*
X11463896Y-29657873D01*
X11390901Y-29609099D01*
X11342127Y-29536104D01*
X11325000Y-29450000D01*
X11325000Y-28950000D01*
X11342127Y-28863896D01*
X11390901Y-28790901D01*
X11463896Y-28742127D01*
X11550000Y-28725000D01*
X12000000Y-28725000D01*
X12086104Y-28742127D01*
G37*
G36*
X15736104Y-28742127D02*
G01*
X15809099Y-28790901D01*
X15857873Y-28863896D01*
X15875000Y-28950000D01*
X15875000Y-29450000D01*
X15857873Y-29536104D01*
X15809099Y-29609099D01*
X15736104Y-29657873D01*
X15650000Y-29675000D01*
X15200000Y-29675000D01*
X15113896Y-29657873D01*
X15040901Y-29609099D01*
X14992127Y-29536104D01*
X14975000Y-29450000D01*
X14975000Y-28950000D01*
X14992127Y-28863896D01*
X15040901Y-28790901D01*
X15113896Y-28742127D01*
X15200000Y-28725000D01*
X15650000Y-28725000D01*
X15736104Y-28742127D01*
G37*
G36*
X17286104Y-28742127D02*
G01*
X17359099Y-28790901D01*
X17407873Y-28863896D01*
X17425000Y-28950000D01*
X17425000Y-29450000D01*
X17407873Y-29536104D01*
X17359099Y-29609099D01*
X17286104Y-29657873D01*
X17200000Y-29675000D01*
X16750000Y-29675000D01*
X16663896Y-29657873D01*
X16590901Y-29609099D01*
X16542127Y-29536104D01*
X16525000Y-29450000D01*
X16525000Y-28950000D01*
X16542127Y-28863896D01*
X16590901Y-28790901D01*
X16663896Y-28742127D01*
X16750000Y-28725000D01*
X17200000Y-28725000D01*
X17286104Y-28742127D01*
G37*
G36*
X27536104Y-22542127D02*
G01*
X27609099Y-22590901D01*
X27657873Y-22663896D01*
X27675000Y-22750000D01*
X27675000Y-23250000D01*
X27657873Y-23336104D01*
X27609099Y-23409099D01*
X27536104Y-23457873D01*
X27450000Y-23475000D01*
X27000000Y-23475000D01*
X26913896Y-23457873D01*
X26840901Y-23409099D01*
X26792127Y-23336104D01*
X26775000Y-23250000D01*
X26775000Y-22750000D01*
X26792127Y-22663896D01*
X26840901Y-22590901D01*
X26913896Y-22542127D01*
X27000000Y-22525000D01*
X27450000Y-22525000D01*
X27536104Y-22542127D01*
G37*
G36*
X29086104Y-22542127D02*
G01*
X29159099Y-22590901D01*
X29207873Y-22663896D01*
X29225000Y-22750000D01*
X29225000Y-23250000D01*
X29207873Y-23336104D01*
X29159099Y-23409099D01*
X29086104Y-23457873D01*
X29000000Y-23475000D01*
X28550000Y-23475000D01*
X28463896Y-23457873D01*
X28390901Y-23409099D01*
X28342127Y-23336104D01*
X28325000Y-23250000D01*
X28325000Y-22750000D01*
X28342127Y-22663896D01*
X28390901Y-22590901D01*
X28463896Y-22542127D01*
X28550000Y-22525000D01*
X29000000Y-22525000D01*
X29086104Y-22542127D01*
G37*
G36*
X33536104Y-22542127D02*
G01*
X33609099Y-22590901D01*
X33657873Y-22663896D01*
X33675000Y-22750000D01*
X33675000Y-23250000D01*
X33657873Y-23336104D01*
X33609099Y-23409099D01*
X33536104Y-23457873D01*
X33450000Y-23475000D01*
X33000000Y-23475000D01*
X32913896Y-23457873D01*
X32840901Y-23409099D01*
X32792127Y-23336104D01*
X32775000Y-23250000D01*
X32775000Y-22750000D01*
X32792127Y-22663896D01*
X32840901Y-22590901D01*
X32913896Y-22542127D01*
X33000000Y-22525000D01*
X33450000Y-22525000D01*
X33536104Y-22542127D01*
G37*
G36*
X35086104Y-22542127D02*
G01*
X35159099Y-22590901D01*
X35207873Y-22663896D01*
X35225000Y-22750000D01*
X35225000Y-23250000D01*
X35207873Y-23336104D01*
X35159099Y-23409099D01*
X35086104Y-23457873D01*
X35000000Y-23475000D01*
X34550000Y-23475000D01*
X34463896Y-23457873D01*
X34390901Y-23409099D01*
X34342127Y-23336104D01*
X34325000Y-23250000D01*
X34325000Y-22750000D01*
X34342127Y-22663896D01*
X34390901Y-22590901D01*
X34463896Y-22542127D01*
X34550000Y-22525000D01*
X35000000Y-22525000D01*
X35086104Y-22542127D01*
G37*
G36*
X47536104Y-22542127D02*
G01*
X47609099Y-22590901D01*
X47657873Y-22663896D01*
X47675000Y-22750000D01*
X47675000Y-23250000D01*
X47657873Y-23336104D01*
X47609099Y-23409099D01*
X47536104Y-23457873D01*
X47450000Y-23475000D01*
X47000000Y-23475000D01*
X46913896Y-23457873D01*
X46840901Y-23409099D01*
X46792127Y-23336104D01*
X46775000Y-23250000D01*
X46775000Y-22750000D01*
X46792127Y-22663896D01*
X46840901Y-22590901D01*
X46913896Y-22542127D01*
X47000000Y-22525000D01*
X47450000Y-22525000D01*
X47536104Y-22542127D01*
G37*
G36*
X49086104Y-22542127D02*
G01*
X49159099Y-22590901D01*
X49207873Y-22663896D01*
X49225000Y-22750000D01*
X49225000Y-23250000D01*
X49207873Y-23336104D01*
X49159099Y-23409099D01*
X49086104Y-23457873D01*
X49000000Y-23475000D01*
X48550000Y-23475000D01*
X48463896Y-23457873D01*
X48390901Y-23409099D01*
X48342127Y-23336104D01*
X48325000Y-23250000D01*
X48325000Y-22750000D01*
X48342127Y-22663896D01*
X48390901Y-22590901D01*
X48463896Y-22542127D01*
X48550000Y-22525000D01*
X49000000Y-22525000D01*
X49086104Y-22542127D01*
G37*
G36*
X53536104Y-22542127D02*
G01*
X53609099Y-22590901D01*
X53657873Y-22663896D01*
X53675000Y-22750000D01*
X53675000Y-23250000D01*
X53657873Y-23336104D01*
X53609099Y-23409099D01*
X53536104Y-23457873D01*
X53450000Y-23475000D01*
X53000000Y-23475000D01*
X52913896Y-23457873D01*
X52840901Y-23409099D01*
X52792127Y-23336104D01*
X52775000Y-23250000D01*
X52775000Y-22750000D01*
X52792127Y-22663896D01*
X52840901Y-22590901D01*
X52913896Y-22542127D01*
X53000000Y-22525000D01*
X53450000Y-22525000D01*
X53536104Y-22542127D01*
G37*
G36*
X55086104Y-22542127D02*
G01*
X55159099Y-22590901D01*
X55207873Y-22663896D01*
X55225000Y-22750000D01*
X55225000Y-23250000D01*
X55207873Y-23336104D01*
X55159099Y-23409099D01*
X55086104Y-23457873D01*
X55000000Y-23475000D01*
X54550000Y-23475000D01*
X54463896Y-23457873D01*
X54390901Y-23409099D01*
X54342127Y-23336104D01*
X54325000Y-23250000D01*
X54325000Y-22750000D01*
X54342127Y-22663896D01*
X54390901Y-22590901D01*
X54463896Y-22542127D01*
X54550000Y-22525000D01*
X55000000Y-22525000D01*
X55086104Y-22542127D01*
G37*
G36*
X67536104Y-22542127D02*
G01*
X67609099Y-22590901D01*
X67657873Y-22663896D01*
X67675000Y-22750000D01*
X67675000Y-23250000D01*
X67657873Y-23336104D01*
X67609099Y-23409099D01*
X67536104Y-23457873D01*
X67450000Y-23475000D01*
X67000000Y-23475000D01*
X66913896Y-23457873D01*
X66840901Y-23409099D01*
X66792127Y-23336104D01*
X66775000Y-23250000D01*
X66775000Y-22750000D01*
X66792127Y-22663896D01*
X66840901Y-22590901D01*
X66913896Y-22542127D01*
X67000000Y-22525000D01*
X67450000Y-22525000D01*
X67536104Y-22542127D01*
G37*
G36*
X69086104Y-22542127D02*
G01*
X69159099Y-22590901D01*
X69207873Y-22663896D01*
X69225000Y-22750000D01*
X69225000Y-23250000D01*
X69207873Y-23336104D01*
X69159099Y-23409099D01*
X69086104Y-23457873D01*
X69000000Y-23475000D01*
X68550000Y-23475000D01*
X68463896Y-23457873D01*
X68390901Y-23409099D01*
X68342127Y-23336104D01*
X68325000Y-23250000D01*
X68325000Y-22750000D01*
X68342127Y-22663896D01*
X68390901Y-22590901D01*
X68463896Y-22542127D01*
X68550000Y-22525000D01*
X69000000Y-22525000D01*
X69086104Y-22542127D01*
G37*
G36*
X73536104Y-22542127D02*
G01*
X73609099Y-22590901D01*
X73657873Y-22663896D01*
X73675000Y-22750000D01*
X73675000Y-23250000D01*
X73657873Y-23336104D01*
X73609099Y-23409099D01*
X73536104Y-23457873D01*
X73450000Y-23475000D01*
X73000000Y-23475000D01*
X72913896Y-23457873D01*
X72840901Y-23409099D01*
X72792127Y-23336104D01*
X72775000Y-23250000D01*
X72775000Y-22750000D01*
X72792127Y-22663896D01*
X72840901Y-22590901D01*
X72913896Y-22542127D01*
X73000000Y-22525000D01*
X73450000Y-22525000D01*
X73536104Y-22542127D01*
G37*
G36*
X75086104Y-22542127D02*
G01*
X75159099Y-22590901D01*
X75207873Y-22663896D01*
X75225000Y-22750000D01*
X75225000Y-23250000D01*
X75207873Y-23336104D01*
X75159099Y-23409099D01*
X75086104Y-23457873D01*
X75000000Y-23475000D01*
X74550000Y-23475000D01*
X74463896Y-23457873D01*
X74390901Y-23409099D01*
X74342127Y-23336104D01*
X74325000Y-23250000D01*
X74325000Y-22750000D01*
X74342127Y-22663896D01*
X74390901Y-22590901D01*
X74463896Y-22542127D01*
X74550000Y-22525000D01*
X75000000Y-22525000D01*
X75086104Y-22542127D01*
G37*
G36*
X26451537Y-16540224D02*
G01*
X26516421Y-16583579D01*
X26559776Y-16648463D01*
X26575000Y-16725000D01*
X26575000Y-17275000D01*
X26559776Y-17351537D01*
X26516421Y-17416421D01*
X26451537Y-17459776D01*
X26375000Y-17475000D01*
X25975000Y-17475000D01*
X25898463Y-17459776D01*
X25833579Y-17416421D01*
X25790224Y-17351537D01*
X25775000Y-17275000D01*
X25775000Y-16725000D01*
X25790224Y-16648463D01*
X25833579Y-16583579D01*
X25898463Y-16540224D01*
X25975000Y-16525000D01*
X26375000Y-16525000D01*
X26451537Y-16540224D01*
G37*
G36*
X28101537Y-16540224D02*
G01*
X28166421Y-16583579D01*
X28209776Y-16648463D01*
X28225000Y-16725000D01*
X28225000Y-17275000D01*
X28209776Y-17351537D01*
X28166421Y-17416421D01*
X28101537Y-17459776D01*
X28025000Y-17475000D01*
X27625000Y-17475000D01*
X27548463Y-17459776D01*
X27483579Y-17416421D01*
X27440224Y-17351537D01*
X27425000Y-17275000D01*
X27425000Y-16725000D01*
X27440224Y-16648463D01*
X27483579Y-16583579D01*
X27548463Y-16540224D01*
X27625000Y-16525000D01*
X28025000Y-16525000D01*
X28101537Y-16540224D01*
G37*
G36*
X46451537Y-16540224D02*
G01*
X46516421Y-16583579D01*
X46559776Y-16648463D01*
X46575000Y-16725000D01*
X46575000Y-17275000D01*
X46559776Y-17351537D01*
X46516421Y-17416421D01*
X46451537Y-17459776D01*
X46375000Y-17475000D01*
X45975000Y-17475000D01*
X45898463Y-17459776D01*
X45833579Y-17416421D01*
X45790224Y-17351537D01*
X45775000Y-17275000D01*
X45775000Y-16725000D01*
X45790224Y-16648463D01*
X45833579Y-16583579D01*
X45898463Y-16540224D01*
X45975000Y-16525000D01*
X46375000Y-16525000D01*
X46451537Y-16540224D01*
G37*
G36*
X48101537Y-16540224D02*
G01*
X48166421Y-16583579D01*
X48209776Y-16648463D01*
X48225000Y-16725000D01*
X48225000Y-17275000D01*
X48209776Y-17351537D01*
X48166421Y-17416421D01*
X48101537Y-17459776D01*
X48025000Y-17475000D01*
X47625000Y-17475000D01*
X47548463Y-17459776D01*
X47483579Y-17416421D01*
X47440224Y-17351537D01*
X47425000Y-17275000D01*
X47425000Y-16725000D01*
X47440224Y-16648463D01*
X47483579Y-16583579D01*
X47548463Y-16540224D01*
X47625000Y-16525000D01*
X48025000Y-16525000D01*
X48101537Y-16540224D01*
G37*
G36*
X66451537Y-16540224D02*
G01*
X66516421Y-16583579D01*
X66559776Y-16648463D01*
X66575000Y-16725000D01*
X66575000Y-17275000D01*
X66559776Y-17351537D01*
X66516421Y-17416421D01*
X66451537Y-17459776D01*
X66375000Y-17475000D01*
X65975000Y-17475000D01*
X65898463Y-17459776D01*
X65833579Y-17416421D01*
X65790224Y-17351537D01*
X65775000Y-17275000D01*
X65775000Y-16725000D01*
X65790224Y-16648463D01*
X65833579Y-16583579D01*
X65898463Y-16540224D01*
X65975000Y-16525000D01*
X66375000Y-16525000D01*
X66451537Y-16540224D01*
G37*
G36*
X68101537Y-16540224D02*
G01*
X68166421Y-16583579D01*
X68209776Y-16648463D01*
X68225000Y-16725000D01*
X68225000Y-17275000D01*
X68209776Y-17351537D01*
X68166421Y-17416421D01*
X68101537Y-17459776D01*
X68025000Y-17475000D01*
X67625000Y-17475000D01*
X67548463Y-17459776D01*
X67483579Y-17416421D01*
X67440224Y-17351537D01*
X67425000Y-17275000D01*
X67425000Y-16725000D01*
X67440224Y-16648463D01*
X67483579Y-16583579D01*
X67548463Y-16540224D01*
X67625000Y-16525000D01*
X68025000Y-16525000D01*
X68101537Y-16540224D01*
G37*
G36*
X30451537Y-13540224D02*
G01*
X30516421Y-13583579D01*
X30559776Y-13648463D01*
X30575000Y-13725000D01*
X30575000Y-14275000D01*
X30559776Y-14351537D01*
X30516421Y-14416421D01*
X30451537Y-14459776D01*
X30375000Y-14475000D01*
X29975000Y-14475000D01*
X29898463Y-14459776D01*
X29833579Y-14416421D01*
X29790224Y-14351537D01*
X29775000Y-14275000D01*
X29775000Y-13725000D01*
X29790224Y-13648463D01*
X29833579Y-13583579D01*
X29898463Y-13540224D01*
X29975000Y-13525000D01*
X30375000Y-13525000D01*
X30451537Y-13540224D01*
G37*
G36*
X32101537Y-13540224D02*
G01*
X32166421Y-13583579D01*
X32209776Y-13648463D01*
X32225000Y-13725000D01*
X32225000Y-14275000D01*
X32209776Y-14351537D01*
X32166421Y-14416421D01*
X32101537Y-14459776D01*
X32025000Y-14475000D01*
X31625000Y-14475000D01*
X31548463Y-14459776D01*
X31483579Y-14416421D01*
X31440224Y-14351537D01*
X31425000Y-14275000D01*
X31425000Y-13725000D01*
X31440224Y-13648463D01*
X31483579Y-13583579D01*
X31548463Y-13540224D01*
X31625000Y-13525000D01*
X32025000Y-13525000D01*
X32101537Y-13540224D01*
G37*
G36*
X50451537Y-13540224D02*
G01*
X50516421Y-13583579D01*
X50559776Y-13648463D01*
X50575000Y-13725000D01*
X50575000Y-14275000D01*
X50559776Y-14351537D01*
X50516421Y-14416421D01*
X50451537Y-14459776D01*
X50375000Y-14475000D01*
X49975000Y-14475000D01*
X49898463Y-14459776D01*
X49833579Y-14416421D01*
X49790224Y-14351537D01*
X49775000Y-14275000D01*
X49775000Y-13725000D01*
X49790224Y-13648463D01*
X49833579Y-13583579D01*
X49898463Y-13540224D01*
X49975000Y-13525000D01*
X50375000Y-13525000D01*
X50451537Y-13540224D01*
G37*
G36*
X52101537Y-13540224D02*
G01*
X52166421Y-13583579D01*
X52209776Y-13648463D01*
X52225000Y-13725000D01*
X52225000Y-14275000D01*
X52209776Y-14351537D01*
X52166421Y-14416421D01*
X52101537Y-14459776D01*
X52025000Y-14475000D01*
X51625000Y-14475000D01*
X51548463Y-14459776D01*
X51483579Y-14416421D01*
X51440224Y-14351537D01*
X51425000Y-14275000D01*
X51425000Y-13725000D01*
X51440224Y-13648463D01*
X51483579Y-13583579D01*
X51548463Y-13540224D01*
X51625000Y-13525000D01*
X52025000Y-13525000D01*
X52101537Y-13540224D01*
G37*
G36*
X70451537Y-13540224D02*
G01*
X70516421Y-13583579D01*
X70559776Y-13648463D01*
X70575000Y-13725000D01*
X70575000Y-14275000D01*
X70559776Y-14351537D01*
X70516421Y-14416421D01*
X70451537Y-14459776D01*
X70375000Y-14475000D01*
X69975000Y-14475000D01*
X69898463Y-14459776D01*
X69833579Y-14416421D01*
X69790224Y-14351537D01*
X69775000Y-14275000D01*
X69775000Y-13725000D01*
X69790224Y-13648463D01*
X69833579Y-13583579D01*
X69898463Y-13540224D01*
X69975000Y-13525000D01*
X70375000Y-13525000D01*
X70451537Y-13540224D01*
G37*
G36*
X72101537Y-13540224D02*
G01*
X72166421Y-13583579D01*
X72209776Y-13648463D01*
X72225000Y-13725000D01*
X72225000Y-14275000D01*
X72209776Y-14351537D01*
X72166421Y-14416421D01*
X72101537Y-14459776D01*
X72025000Y-14475000D01*
X71625000Y-14475000D01*
X71548463Y-14459776D01*
X71483579Y-14416421D01*
X71440224Y-14351537D01*
X71425000Y-14275000D01*
X71425000Y-13725000D01*
X71440224Y-13648463D01*
X71483579Y-13583579D01*
X71548463Y-13540224D01*
X71625000Y-13525000D01*
X72025000Y-13525000D01*
X72101537Y-13540224D01*
G37*
G36*
X12718946Y-13691228D02*
G01*
X12766798Y-13723202D01*
X12798772Y-13771054D01*
X12810000Y-13827500D01*
X12810000Y-14172500D01*
X12798772Y-14228946D01*
X12766798Y-14276798D01*
X12718946Y-14308772D01*
X12662500Y-14320000D01*
X12367500Y-14320000D01*
X12311054Y-14308772D01*
X12263202Y-14276798D01*
X12231228Y-14228946D01*
X12220000Y-14172500D01*
X12220000Y-13827500D01*
X12231228Y-13771054D01*
X12263202Y-13723202D01*
X12311054Y-13691228D01*
X12367500Y-13680000D01*
X12662500Y-13680000D01*
X12718946Y-13691228D01*
G37*
G36*
X13688946Y-13691228D02*
G01*
X13736798Y-13723202D01*
X13768772Y-13771054D01*
X13780000Y-13827500D01*
X13780000Y-14172500D01*
X13768772Y-14228946D01*
X13736798Y-14276798D01*
X13688946Y-14308772D01*
X13632500Y-14320000D01*
X13337500Y-14320000D01*
X13281054Y-14308772D01*
X13233202Y-14276798D01*
X13201228Y-14228946D01*
X13190000Y-14172500D01*
X13190000Y-13827500D01*
X13201228Y-13771054D01*
X13233202Y-13723202D01*
X13281054Y-13691228D01*
X13337500Y-13680000D01*
X13632500Y-13680000D01*
X13688946Y-13691228D01*
G37*
G36*
X15118946Y-13691228D02*
G01*
X15166798Y-13723202D01*
X15198772Y-13771054D01*
X15210000Y-13827500D01*
X15210000Y-14172500D01*
X15198772Y-14228946D01*
X15166798Y-14276798D01*
X15118946Y-14308772D01*
X15062500Y-14320000D01*
X14767500Y-14320000D01*
X14711054Y-14308772D01*
X14663202Y-14276798D01*
X14631228Y-14228946D01*
X14620000Y-14172500D01*
X14620000Y-13827500D01*
X14631228Y-13771054D01*
X14663202Y-13723202D01*
X14711054Y-13691228D01*
X14767500Y-13680000D01*
X15062500Y-13680000D01*
X15118946Y-13691228D01*
G37*
G36*
X16088946Y-13691228D02*
G01*
X16136798Y-13723202D01*
X16168772Y-13771054D01*
X16180000Y-13827500D01*
X16180000Y-14172500D01*
X16168772Y-14228946D01*
X16136798Y-14276798D01*
X16088946Y-14308772D01*
X16032500Y-14320000D01*
X15737500Y-14320000D01*
X15681054Y-14308772D01*
X15633202Y-14276798D01*
X15601228Y-14228946D01*
X15590000Y-14172500D01*
X15590000Y-13827500D01*
X15601228Y-13771054D01*
X15633202Y-13723202D01*
X15681054Y-13691228D01*
X15737500Y-13680000D01*
X16032500Y-13680000D01*
X16088946Y-13691228D01*
G37*
G36*
X10536104Y-10542127D02*
G01*
X10609099Y-10590901D01*
X10657873Y-10663896D01*
X10675000Y-10750000D01*
X10675000Y-11250000D01*
X10657873Y-11336104D01*
X10609099Y-11409099D01*
X10536104Y-11457873D01*
X10450000Y-11475000D01*
X10000000Y-11475000D01*
X9913896Y-11457873D01*
X9840901Y-11409099D01*
X9792127Y-11336104D01*
X9775000Y-11250000D01*
X9775000Y-10750000D01*
X9792127Y-10663896D01*
X9840901Y-10590901D01*
X9913896Y-10542127D01*
X10000000Y-10525000D01*
X10450000Y-10525000D01*
X10536104Y-10542127D01*
G37*
G36*
X12086104Y-10542127D02*
G01*
X12159099Y-10590901D01*
X12207873Y-10663896D01*
X12225000Y-10750000D01*
X12225000Y-11250000D01*
X12207873Y-11336104D01*
X12159099Y-11409099D01*
X12086104Y-11457873D01*
X12000000Y-11475000D01*
X11550000Y-11475000D01*
X11463896Y-11457873D01*
X11390901Y-11409099D01*
X11342127Y-11336104D01*
X11325000Y-11250000D01*
X11325000Y-10750000D01*
X11342127Y-10663896D01*
X11390901Y-10590901D01*
X11463896Y-10542127D01*
X11550000Y-10525000D01*
X12000000Y-10525000D01*
X12086104Y-10542127D01*
G37*
G36*
X15536104Y-10542127D02*
G01*
X15609099Y-10590901D01*
X15657873Y-10663896D01*
X15675000Y-10750000D01*
X15675000Y-11250000D01*
X15657873Y-11336104D01*
X15609099Y-11409099D01*
X15536104Y-11457873D01*
X15450000Y-11475000D01*
X15000000Y-11475000D01*
X14913896Y-11457873D01*
X14840901Y-11409099D01*
X14792127Y-11336104D01*
X14775000Y-11250000D01*
X14775000Y-10750000D01*
X14792127Y-10663896D01*
X14840901Y-10590901D01*
X14913896Y-10542127D01*
X15000000Y-10525000D01*
X15450000Y-10525000D01*
X15536104Y-10542127D01*
G37*
G36*
X17086104Y-10542127D02*
G01*
X17159099Y-10590901D01*
X17207873Y-10663896D01*
X17225000Y-10750000D01*
X17225000Y-11250000D01*
X17207873Y-11336104D01*
X17159099Y-11409099D01*
X17086104Y-11457873D01*
X17000000Y-11475000D01*
X16550000Y-11475000D01*
X16463896Y-11457873D01*
X16390901Y-11409099D01*
X16342127Y-11336104D01*
X16325000Y-11250000D01*
X16325000Y-10750000D01*
X16342127Y-10663896D01*
X16390901Y-10590901D01*
X16463896Y-10542127D01*
X16550000Y-10525000D01*
X17000000Y-10525000D01*
X17086104Y-10542127D01*
G37*
G36*
X27451537Y-8540224D02*
G01*
X27516421Y-8583579D01*
X27559776Y-8648463D01*
X27575000Y-8725000D01*
X27575000Y-9275000D01*
X27559776Y-9351537D01*
X27516421Y-9416421D01*
X27451537Y-9459776D01*
X27375000Y-9475000D01*
X26975000Y-9475000D01*
X26898463Y-9459776D01*
X26833579Y-9416421D01*
X26790224Y-9351537D01*
X26775000Y-9275000D01*
X26775000Y-8725000D01*
X26790224Y-8648463D01*
X26833579Y-8583579D01*
X26898463Y-8540224D01*
X26975000Y-8525000D01*
X27375000Y-8525000D01*
X27451537Y-8540224D01*
G37*
G36*
X29101537Y-8540224D02*
G01*
X29166421Y-8583579D01*
X29209776Y-8648463D01*
X29225000Y-8725000D01*
X29225000Y-9275000D01*
X29209776Y-9351537D01*
X29166421Y-9416421D01*
X29101537Y-9459776D01*
X29025000Y-9475000D01*
X28625000Y-9475000D01*
X28548463Y-9459776D01*
X28483579Y-9416421D01*
X28440224Y-9351537D01*
X28425000Y-9275000D01*
X28425000Y-8725000D01*
X28440224Y-8648463D01*
X28483579Y-8583579D01*
X28548463Y-8540224D01*
X28625000Y-8525000D01*
X29025000Y-8525000D01*
X29101537Y-8540224D01*
G37*
G36*
X47451537Y-8540224D02*
G01*
X47516421Y-8583579D01*
X47559776Y-8648463D01*
X47575000Y-8725000D01*
X47575000Y-9275000D01*
X47559776Y-9351537D01*
X47516421Y-9416421D01*
X47451537Y-9459776D01*
X47375000Y-9475000D01*
X46975000Y-9475000D01*
X46898463Y-9459776D01*
X46833579Y-9416421D01*
X46790224Y-9351537D01*
X46775000Y-9275000D01*
X46775000Y-8725000D01*
X46790224Y-8648463D01*
X46833579Y-8583579D01*
X46898463Y-8540224D01*
X46975000Y-8525000D01*
X47375000Y-8525000D01*
X47451537Y-8540224D01*
G37*
G36*
X49101537Y-8540224D02*
G01*
X49166421Y-8583579D01*
X49209776Y-8648463D01*
X49225000Y-8725000D01*
X49225000Y-9275000D01*
X49209776Y-9351537D01*
X49166421Y-9416421D01*
X49101537Y-9459776D01*
X49025000Y-9475000D01*
X48625000Y-9475000D01*
X48548463Y-9459776D01*
X48483579Y-9416421D01*
X48440224Y-9351537D01*
X48425000Y-9275000D01*
X48425000Y-8725000D01*
X48440224Y-8648463D01*
X48483579Y-8583579D01*
X48548463Y-8540224D01*
X48625000Y-8525000D01*
X49025000Y-8525000D01*
X49101537Y-8540224D01*
G37*
G36*
X67451537Y-8540224D02*
G01*
X67516421Y-8583579D01*
X67559776Y-8648463D01*
X67575000Y-8725000D01*
X67575000Y-9275000D01*
X67559776Y-9351537D01*
X67516421Y-9416421D01*
X67451537Y-9459776D01*
X67375000Y-9475000D01*
X66975000Y-9475000D01*
X66898463Y-9459776D01*
X66833579Y-9416421D01*
X66790224Y-9351537D01*
X66775000Y-9275000D01*
X66775000Y-8725000D01*
X66790224Y-8648463D01*
X66833579Y-8583579D01*
X66898463Y-8540224D01*
X66975000Y-8525000D01*
X67375000Y-8525000D01*
X67451537Y-8540224D01*
G37*
G36*
X69101537Y-8540224D02*
G01*
X69166421Y-8583579D01*
X69209776Y-8648463D01*
X69225000Y-8725000D01*
X69225000Y-9275000D01*
X69209776Y-9351537D01*
X69166421Y-9416421D01*
X69101537Y-9459776D01*
X69025000Y-9475000D01*
X68625000Y-9475000D01*
X68548463Y-9459776D01*
X68483579Y-9416421D01*
X68440224Y-9351537D01*
X68425000Y-9275000D01*
X68425000Y-8725000D01*
X68440224Y-8648463D01*
X68483579Y-8583579D01*
X68548463Y-8540224D01*
X68625000Y-8525000D01*
X69025000Y-8525000D01*
X69101537Y-8540224D01*
G37*
G36*
X33507403Y-8661418D02*
G01*
X33556066Y-8693934D01*
X33588582Y-8742597D01*
X33600000Y-8800000D01*
X33600000Y-9200000D01*
X33588582Y-9257403D01*
X33556066Y-9306066D01*
X33507403Y-9338582D01*
X33450000Y-9350000D01*
X33150000Y-9350000D01*
X33092597Y-9338582D01*
X33043934Y-9306066D01*
X33011418Y-9257403D01*
X33000000Y-9200000D01*
X33000000Y-8800000D01*
X33011418Y-8742597D01*
X33043934Y-8693934D01*
X33092597Y-8661418D01*
X33150000Y-8650000D01*
X33450000Y-8650000D01*
X33507403Y-8661418D01*
G37*
G36*
X34907403Y-8661418D02*
G01*
X34956066Y-8693934D01*
X34988582Y-8742597D01*
X35000000Y-8800000D01*
X35000000Y-9200000D01*
X34988582Y-9257403D01*
X34956066Y-9306066D01*
X34907403Y-9338582D01*
X34850000Y-9350000D01*
X34550000Y-9350000D01*
X34492597Y-9338582D01*
X34443934Y-9306066D01*
X34411418Y-9257403D01*
X34400000Y-9200000D01*
X34400000Y-8800000D01*
X34411418Y-8742597D01*
X34443934Y-8693934D01*
X34492597Y-8661418D01*
X34550000Y-8650000D01*
X34850000Y-8650000D01*
X34907403Y-8661418D01*
G37*
G36*
X53507403Y-8661418D02*
G01*
X53556066Y-8693934D01*
X53588582Y-8742597D01*
X53600000Y-8800000D01*
X53600000Y-9200000D01*
X53588582Y-9257403D01*
X53556066Y-9306066D01*
X53507403Y-9338582D01*
X53450000Y-9350000D01*
X53150000Y-9350000D01*
X53092597Y-9338582D01*
X53043934Y-9306066D01*
X53011418Y-9257403D01*
X53000000Y-9200000D01*
X53000000Y-8800000D01*
X53011418Y-8742597D01*
X53043934Y-8693934D01*
X53092597Y-8661418D01*
X53150000Y-8650000D01*
X53450000Y-8650000D01*
X53507403Y-8661418D01*
G37*
G36*
X54907403Y-8661418D02*
G01*
X54956066Y-8693934D01*
X54988582Y-8742597D01*
X55000000Y-8800000D01*
X55000000Y-9200000D01*
X54988582Y-9257403D01*
X54956066Y-9306066D01*
X54907403Y-9338582D01*
X54850000Y-9350000D01*
X54550000Y-9350000D01*
X54492597Y-9338582D01*
X54443934Y-9306066D01*
X54411418Y-9257403D01*
X54400000Y-9200000D01*
X54400000Y-8800000D01*
X54411418Y-8742597D01*
X54443934Y-8693934D01*
X54492597Y-8661418D01*
X54550000Y-8650000D01*
X54850000Y-8650000D01*
X54907403Y-8661418D01*
G37*
G36*
X73507403Y-8661418D02*
G01*
X73556066Y-8693934D01*
X73588582Y-8742597D01*
X73600000Y-8800000D01*
X73600000Y-9200000D01*
X73588582Y-9257403D01*
X73556066Y-9306066D01*
X73507403Y-9338582D01*
X73450000Y-9350000D01*
X73150000Y-9350000D01*
X73092597Y-9338582D01*
X73043934Y-9306066D01*
X73011418Y-9257403D01*
X73000000Y-9200000D01*
X73000000Y-8800000D01*
X73011418Y-8742597D01*
X73043934Y-8693934D01*
X73092597Y-8661418D01*
X73150000Y-8650000D01*
X73450000Y-8650000D01*
X73507403Y-8661418D01*
G37*
G36*
X74907403Y-8661418D02*
G01*
X74956066Y-8693934D01*
X74988582Y-8742597D01*
X75000000Y-8800000D01*
X75000000Y-9200000D01*
X74988582Y-9257403D01*
X74956066Y-9306066D01*
X74907403Y-9338582D01*
X74850000Y-9350000D01*
X74550000Y-9350000D01*
X74492597Y-9338582D01*
X74443934Y-9306066D01*
X74411418Y-9257403D01*
X74400000Y-9200000D01*
X74400000Y-8800000D01*
X74411418Y-8742597D01*
X74443934Y-8693934D01*
X74492597Y-8661418D01*
X74550000Y-8650000D01*
X74850000Y-8650000D01*
X74907403Y-8661418D01*
G37*
G36*
X17382403Y-8161418D02*
G01*
X17431066Y-8193934D01*
X17463582Y-8242597D01*
X17475000Y-8300000D01*
X17475000Y-8600000D01*
X17463582Y-8657403D01*
X17431066Y-8706066D01*
X17382403Y-8738582D01*
X17325000Y-8750000D01*
X16150000Y-8750000D01*
X16092597Y-8738582D01*
X16043934Y-8706066D01*
X16011418Y-8657403D01*
X16000000Y-8600000D01*
X16000000Y-8300000D01*
X16011418Y-8242597D01*
X16043934Y-8193934D01*
X16092597Y-8161418D01*
X16150000Y-8150000D01*
X17325000Y-8150000D01*
X17382403Y-8161418D01*
G37*
G36*
X10550000Y-8250000D02*
G01*
X9550000Y-8250000D01*
X9252071Y-8250000D01*
X9250000Y-8250000D01*
X8250000Y-8250000D01*
X8250000Y-6750000D01*
X9250000Y-6750000D01*
X10545077Y-6750000D01*
X10550000Y-6750000D01*
X10550000Y-8250000D01*
G37*
G36*
X5251537Y-7040224D02*
G01*
X5316421Y-7083579D01*
X5359776Y-7148463D01*
X5375000Y-7225000D01*
X5375000Y-7775000D01*
X5359776Y-7851537D01*
X5316421Y-7916421D01*
X5251537Y-7959776D01*
X5175000Y-7975000D01*
X4775000Y-7975000D01*
X4698463Y-7959776D01*
X4633579Y-7916421D01*
X4590224Y-7851537D01*
X4575000Y-7775000D01*
X4575000Y-7225000D01*
X4590224Y-7148463D01*
X4633579Y-7083579D01*
X4698463Y-7040224D01*
X4775000Y-7025000D01*
X5175000Y-7025000D01*
X5251537Y-7040224D01*
G37*
G36*
X6901537Y-7040224D02*
G01*
X6966421Y-7083579D01*
X7009776Y-7148463D01*
X7025000Y-7225000D01*
X7025000Y-7775000D01*
X7009776Y-7851537D01*
X6966421Y-7916421D01*
X6901537Y-7959776D01*
X6825000Y-7975000D01*
X6425000Y-7975000D01*
X6348463Y-7959776D01*
X6283579Y-7916421D01*
X6240224Y-7851537D01*
X6225000Y-7775000D01*
X6225000Y-7225000D01*
X6240224Y-7148463D01*
X6283579Y-7083579D01*
X6348463Y-7040224D01*
X6425000Y-7025000D01*
X6825000Y-7025000D01*
X6901537Y-7040224D01*
G37*
G36*
X15507403Y-7211418D02*
G01*
X15556066Y-7243934D01*
X15588582Y-7292597D01*
X15600000Y-7350000D01*
X15600000Y-7650000D01*
X15588582Y-7707403D01*
X15556066Y-7756066D01*
X15507403Y-7788582D01*
X15450000Y-7800000D01*
X14275000Y-7800000D01*
X14217597Y-7788582D01*
X14168934Y-7756066D01*
X14136418Y-7707403D01*
X14125000Y-7650000D01*
X14125000Y-7350000D01*
X14136418Y-7292597D01*
X14168934Y-7243934D01*
X14217597Y-7211418D01*
X14275000Y-7200000D01*
X15450000Y-7200000D01*
X15507403Y-7211418D01*
G37*
G36*
X17382403Y-6261418D02*
G01*
X17431066Y-6293934D01*
X17463582Y-6342597D01*
X17475000Y-6400000D01*
X17475000Y-6700000D01*
X17463582Y-6757403D01*
X17431066Y-6806066D01*
X17382403Y-6838582D01*
X17325000Y-6850000D01*
X16150000Y-6850000D01*
X16092597Y-6838582D01*
X16043934Y-6806066D01*
X16011418Y-6757403D01*
X16000000Y-6700000D01*
X16000000Y-6400000D01*
X16011418Y-6342597D01*
X16043934Y-6293934D01*
X16092597Y-6261418D01*
X16150000Y-6250000D01*
X17325000Y-6250000D01*
X17382403Y-6261418D01*
G37*
G36*
X3815151Y-2187301D02*
G01*
X4016623Y-2252763D01*
X4205373Y-2348936D01*
X4376755Y-2473452D01*
X4526548Y-2623245D01*
X4651064Y-2794627D01*
X4747237Y-2983377D01*
X4812699Y-3184849D01*
X4845838Y-3394080D01*
X4845838Y-3605920D01*
X4812699Y-3815151D01*
X4747237Y-4016623D01*
X4651064Y-4205373D01*
X4526548Y-4376755D01*
X4376755Y-4526548D01*
X4205373Y-4651064D01*
X4016623Y-4747237D01*
X3815151Y-4812699D01*
X3605920Y-4845838D01*
X3394080Y-4845838D01*
X3184849Y-4812699D01*
X2983377Y-4747237D01*
X2794627Y-4651064D01*
X2623245Y-4526548D01*
X2473452Y-4376755D01*
X2348936Y-4205373D01*
X2252763Y-4016623D01*
X2187301Y-3815151D01*
X2154162Y-3605920D01*
X2154162Y-3394080D01*
X2187301Y-3184849D01*
X2252763Y-2983377D01*
X2348936Y-2794627D01*
X2473452Y-2623245D01*
X2623245Y-2473452D01*
X2794627Y-2348936D01*
X2983377Y-2252763D01*
X3184849Y-2187301D01*
X3394080Y-2154162D01*
X3605920Y-2154162D01*
X3815151Y-2187301D01*
G37*
G36*
X78815151Y-2187301D02*
G01*
X79016623Y-2252763D01*
X79205373Y-2348936D01*
X79376755Y-2473452D01*
X79526548Y-2623245D01*
X79651064Y-2794627D01*
X79747237Y-2983377D01*
X79812699Y-3184849D01*
X79845838Y-3394080D01*
X79845838Y-3605920D01*
X79812699Y-3815151D01*
X79747237Y-4016623D01*
X79651064Y-4205373D01*
X79526548Y-4376755D01*
X79376755Y-4526548D01*
X79205373Y-4651064D01*
X79016623Y-4747237D01*
X78815151Y-4812699D01*
X78605920Y-4845838D01*
X78394080Y-4845838D01*
X78184849Y-4812699D01*
X77983377Y-4747237D01*
X77794627Y-4651064D01*
X77623245Y-4526548D01*
X77473452Y-4376755D01*
X77348936Y-4205373D01*
X77252763Y-4016623D01*
X77187301Y-3815151D01*
X77154162Y-3605920D01*
X77154162Y-3394080D01*
X77187301Y-3184849D01*
X77252763Y-2983377D01*
X77348936Y-2794627D01*
X77473452Y-2623245D01*
X77623245Y-2473452D01*
X77794627Y-2348936D01*
X77983377Y-2252763D01*
X78184849Y-2187301D01*
X78394080Y-2154162D01*
X78605920Y-2154162D01*
X78815151Y-2187301D01*
G37*
M02*
