%TF.GenerationSoftware,KiCad,Pcbnew,10.0.5*%
%TF.CreationDate,2026-08-14T17:08:06-04:00*%
%TF.ProjectId,hr30-carrier-b-p0.1,68723330-2d63-4617-9272-6965722d622d,rev?*%
%TF.SameCoordinates,Original*%
%TF.FileFunction,Copper,L3,Inr*%
%TF.FilePolarity,Positive*%
%FSLAX46Y46*%
G04 Gerber Fmt 4.6, Leading zero omitted, Abs format (unit mm)*
G04 Created by KiCad (PCBNEW 10.0.5) date 2026-08-14 17:08:06*
%MOMM*%
%LPD*%
G01*
G04 APERTURE LIST*
%TA.AperFunction,ViaPad*%
%ADD10C,0.350000*%
%TD*%
%TA.AperFunction,Conductor*%
%ADD11C,0.200000*%
%TD*%
%TA.AperFunction,Conductor*%
%ADD12C,0.150000*%
%TD*%
G04 APERTURE END LIST*
D10*
%TO.N,CTRL_3V3*%
X69000000Y-24500000D03*
X49290000Y-19350000D03*
X69289999Y-19350000D03*
X68775000Y-23955000D03*
X28775000Y-23955000D03*
X34750000Y-39150000D03*
X29290000Y-19350000D03*
X48775000Y-23835000D03*
X6575000Y-30154999D03*
X4625000Y-24650000D03*
%TO.N,CTRL_5V*%
X16975000Y-30154999D03*
X48825000Y-9835000D03*
X52710000Y-19350000D03*
X28825000Y-9955000D03*
X15445000Y-26034999D03*
X74775000Y-23835000D03*
X34775000Y-23835000D03*
X69000000Y-10500000D03*
X32710000Y-19350000D03*
X33500000Y-39150000D03*
X68825000Y-9955000D03*
X54775000Y-23955000D03*
X72710000Y-19350000D03*
X11775000Y-30035000D03*
%TO.N,CTRL_GND*%
X11635000Y-26034999D03*
X66175000Y-17955000D03*
X30375000Y-6750000D03*
X5025000Y-30154999D03*
X29290000Y-20000000D03*
X69289999Y-20000000D03*
X73225000Y-23835000D03*
X15425000Y-30154999D03*
X53225000Y-23955000D03*
X73300000Y-9830000D03*
X26175000Y-17955000D03*
X67225000Y-23955000D03*
X17375000Y-24650000D03*
X49290000Y-20000000D03*
X70375000Y-6750000D03*
X47225000Y-23835000D03*
X10225000Y-30035000D03*
X33225000Y-23835000D03*
X27225000Y-23955000D03*
X50375000Y-6750000D03*
X32250000Y-39150000D03*
X46175000Y-17835000D03*
X33299999Y-9830000D03*
X53300000Y-9710000D03*
%TO.N,RS-WAIST_DN*%
X16737500Y-9110000D03*
X12250000Y-6750000D03*
X6555000Y-13965000D03*
X8750000Y-8610000D03*
X7825000Y-13965000D03*
%TO.N,RS-WAIST_DP*%
X11000000Y-6750000D03*
X16737500Y-7210000D03*
X4625000Y-15350000D03*
X6625000Y-8455000D03*
X9095000Y-13965000D03*
%TO.N,RS-WAIST_GND2*%
X14175000Y-13965000D03*
X15225000Y-10165000D03*
X15885000Y-13200000D03*
X17375000Y-15350000D03*
%TO.N,RS-WAIST_RET*%
X14915000Y-13200000D03*
X10225000Y-10045000D03*
X11635000Y-13965000D03*
X14862500Y-8160000D03*
X11550000Y-9550000D03*
X12905000Y-12865000D03*
%TO.N,RS-WAIST_TERM*%
X10000000Y-8000000D03*
X10050000Y-8610000D03*
X4975000Y-8455000D03*
%TO.N,RS-WAIST_VISOIN*%
X12515000Y-12540000D03*
X10365000Y-13965000D03*
X11775000Y-10045000D03*
%TO.N,RS-WAIST_VISOOUT*%
X17000000Y-11000000D03*
X16774999Y-10165000D03*
X13485000Y-13200000D03*
X15445000Y-12865000D03*
%TO.N,TTL-HEAD_DATA*%
X70175000Y-13165000D03*
X70000000Y-12500000D03*
X71625000Y-6750000D03*
X67175000Y-9955000D03*
X74700000Y-9830000D03*
%TO.N,TTL-HEAD_DATA_PRE*%
X71825000Y-13165000D03*
X72710000Y-20650000D03*
%TO.N,TTL-LDIST_DATA*%
X27000000Y-10500000D03*
X34700000Y-9830000D03*
X30175000Y-13165000D03*
X27175000Y-9955000D03*
X31625000Y-6750000D03*
%TO.N,TTL-LDIST_DATA_PRE*%
X31825000Y-13165000D03*
X32710000Y-20650000D03*
%TO.N,TTL-RDIST_DATA*%
X47175000Y-9835000D03*
X47000000Y-11000000D03*
X54700000Y-9710000D03*
X51625000Y-6750000D03*
X50175000Y-13045000D03*
%TO.N,TTL-RDIST_DATA_PRE*%
X51825000Y-13045000D03*
X52710000Y-20650000D03*
%TO.N,UART_RS-WAIST_DIR*%
X7825000Y-26034999D03*
X10365000Y-26034999D03*
X38500000Y-39150000D03*
X10500000Y-26500000D03*
%TO.N,UART_RS-WAIST_RX*%
X37250000Y-39150000D03*
X9095000Y-26034999D03*
X8500000Y-26000000D03*
%TO.N,UART_RS-WAIST_TX*%
X6500000Y-26500000D03*
X6555000Y-26034999D03*
X36000000Y-39150000D03*
%TO.N,UART_TTL-HEAD_DIR*%
X68500000Y-18000000D03*
X46000000Y-39150000D03*
X72710000Y-20000000D03*
X67825000Y-17955000D03*
%TO.N,UART_TTL-HEAD_TX*%
X44750000Y-39150000D03*
X68000000Y-20500000D03*
X69289999Y-20650000D03*
%TO.N,UART_TTL-LDIST_DIR*%
X28000000Y-17500000D03*
X27825000Y-17955000D03*
X41000000Y-39150000D03*
X32000000Y-20000000D03*
X32710000Y-20000000D03*
%TO.N,UART_TTL-LDIST_TX*%
X29500000Y-21500000D03*
X32500000Y-25000000D03*
X39750000Y-39150000D03*
X29290000Y-20650000D03*
%TO.N,UART_TTL-RDIST_DIR*%
X47500000Y-17500000D03*
X52710000Y-20000000D03*
X43500000Y-39150000D03*
X47825000Y-17835000D03*
%TO.N,UART_TTL-RDIST_TX*%
X42250000Y-39150000D03*
X49290000Y-20650000D03*
X49500000Y-21500000D03*
%TD*%
%TO.N,CTRL_5V*%
D11*
X43000000Y-10500000D02*
X43500000Y-10500000D01*
X43500000Y-10500000D02*
X44000000Y-10500000D01*
X55000000Y-23000000D02*
X55000000Y-22500000D01*
X14000000Y-30000000D02*
X14500000Y-30000000D01*
X52500000Y-10500000D02*
X52500000Y-11000000D01*
X33500000Y-21500000D02*
X33500000Y-21000000D01*
X32500000Y-10000000D02*
X32500000Y-10500000D01*
X33500000Y-31500000D02*
X33500000Y-31000000D01*
X32500000Y-17500000D02*
X32500000Y-17000000D01*
X71000000Y-19500000D02*
X70500000Y-19500000D01*
X33500000Y-31000000D02*
X33500000Y-30500000D01*
X34000000Y-10500000D02*
X34500000Y-10500000D01*
X23000000Y-30000000D02*
X23500000Y-30000000D01*
X33500000Y-32500000D02*
X33500000Y-32000000D01*
X36500000Y-10500000D02*
X37000000Y-10500000D01*
X23500000Y-30000000D02*
X24000000Y-30000000D01*
X55500000Y-19500000D02*
X56000000Y-19500000D01*
X13000000Y-30000000D02*
X13500000Y-30000000D01*
X32500000Y-12000000D02*
X32500000Y-11500000D01*
X24500000Y-30000000D02*
X25000000Y-30000000D01*
X74000000Y-23500000D02*
X73500000Y-23500000D01*
X45000000Y-10500000D02*
X45500000Y-10500000D01*
X53500000Y-19500000D02*
X54000000Y-19500000D01*
X33500000Y-26500000D02*
X33500000Y-26000000D01*
X33500000Y-23500000D02*
X33500000Y-23000000D01*
X67500000Y-19500000D02*
X68000000Y-19500000D01*
X33500000Y-35000000D02*
X33500000Y-34500000D01*
X32500000Y-12500000D02*
X32500000Y-12000000D01*
X32000000Y-30000000D02*
X32500000Y-30000000D01*
X15500000Y-28500000D02*
X15500000Y-29000000D01*
X39000000Y-10500000D02*
X39500000Y-10500000D01*
X52500000Y-11500000D02*
X52500000Y-12000000D01*
X18500000Y-30000000D02*
X19000000Y-30000000D01*
X61000000Y-19500000D02*
X61500000Y-19500000D01*
X52500000Y-12500000D02*
X52500000Y-13000000D01*
X73500000Y-23000000D02*
X73500000Y-22500000D01*
X33500000Y-36000000D02*
X33500000Y-35500000D01*
X20500000Y-30000000D02*
X21000000Y-30000000D01*
X52500000Y-12000000D02*
X52500000Y-12500000D01*
X33500000Y-33500000D02*
X33500000Y-33000000D01*
X31500000Y-10000000D02*
X32000000Y-10000000D01*
X16975000Y-30154999D02*
X17000000Y-30000000D01*
X55000000Y-21000000D02*
X55000000Y-20500000D01*
X52500000Y-14500000D02*
X52500000Y-15000000D01*
X29500000Y-30000000D02*
X30000000Y-30000000D01*
X51000000Y-10000000D02*
X51500000Y-10000000D01*
X33500000Y-10500000D02*
X34000000Y-10500000D01*
X33500000Y-29000000D02*
X33500000Y-28500000D01*
X54775000Y-23955000D02*
X55000000Y-24000000D01*
X69500000Y-19000000D02*
X69500000Y-18500000D01*
X69500000Y-18500000D02*
X69000000Y-18500000D01*
X50000000Y-10000000D02*
X50500000Y-10000000D01*
X68500000Y-19000000D02*
X69000000Y-19000000D01*
X32500000Y-13500000D02*
X32500000Y-13000000D01*
X65500000Y-19500000D02*
X66000000Y-19500000D01*
X30500000Y-10000000D02*
X31000000Y-10000000D01*
X74000000Y-24000000D02*
X74000000Y-23500000D01*
X33500000Y-33000000D02*
X33500000Y-32500000D01*
X29500000Y-10000000D02*
X30000000Y-10000000D01*
X28500000Y-30000000D02*
X29000000Y-30000000D01*
X45500000Y-10500000D02*
X46000000Y-10500000D01*
X33500000Y-39000000D02*
X33500000Y-38500000D01*
X32500000Y-18500000D02*
X32500000Y-18000000D01*
X35000000Y-10500000D02*
X35500000Y-10500000D01*
X11775000Y-30035000D02*
X12000000Y-30000000D01*
X33500000Y-32000000D02*
X33500000Y-31500000D01*
X25500000Y-30000000D02*
X26000000Y-30000000D01*
X66000000Y-19500000D02*
X66500000Y-19500000D01*
X17000000Y-29500000D02*
X17000000Y-30000000D01*
X33500000Y-38000000D02*
X33500000Y-37500000D01*
X33500000Y-36500000D02*
X33500000Y-36000000D01*
X69000000Y-16500000D02*
X69000000Y-16000000D01*
X49000000Y-10500000D02*
X49000000Y-10000000D01*
X31000000Y-10000000D02*
X31500000Y-10000000D01*
X29000000Y-30000000D02*
X29500000Y-30000000D01*
X30500000Y-30000000D02*
X31000000Y-30000000D01*
X40000000Y-10500000D02*
X40500000Y-10500000D01*
X32500000Y-18000000D02*
X32500000Y-17500000D01*
X32500000Y-19000000D02*
X32500000Y-18500000D01*
X33500000Y-19500000D02*
X33000000Y-19500000D01*
X32500000Y-14500000D02*
X32500000Y-14000000D01*
X33500000Y-20500000D02*
X33500000Y-20000000D01*
X34000000Y-24000000D02*
X34000000Y-23500000D01*
X32500000Y-17000000D02*
X32500000Y-16500000D01*
X69000000Y-15500000D02*
X69000000Y-15000000D01*
X67000000Y-19500000D02*
X67500000Y-19500000D01*
X34500000Y-24000000D02*
X34000000Y-24000000D01*
X31000000Y-30000000D02*
X31500000Y-30000000D01*
X41000000Y-10500000D02*
X41500000Y-10500000D01*
X72710000Y-19350000D02*
X72500000Y-19500000D01*
X33500000Y-22000000D02*
X33500000Y-21500000D01*
X20000000Y-30000000D02*
X20500000Y-30000000D01*
X15500000Y-26500000D02*
X15500000Y-27000000D01*
X33500000Y-27000000D02*
X33500000Y-26500000D01*
X32500000Y-15500000D02*
X32500000Y-15000000D01*
X49500000Y-10000000D02*
X50000000Y-10000000D01*
X55000000Y-22500000D02*
X55000000Y-22000000D01*
X50500000Y-10000000D02*
X51000000Y-10000000D01*
X52500000Y-19000000D02*
X52500000Y-19500000D01*
X59500000Y-19500000D02*
X60000000Y-19500000D01*
X37000000Y-10500000D02*
X37500000Y-10500000D01*
X53000000Y-19500000D02*
X53500000Y-19500000D01*
X52500000Y-15000000D02*
X52500000Y-15500000D01*
X57000000Y-19500000D02*
X57500000Y-19500000D01*
X32500000Y-30000000D02*
X33000000Y-30000000D01*
X40500000Y-10500000D02*
X41000000Y-10500000D01*
X26000000Y-30000000D02*
X26500000Y-30000000D01*
X32500000Y-13000000D02*
X32500000Y-12500000D01*
X33500000Y-27500000D02*
X33500000Y-27000000D01*
X35000000Y-24000000D02*
X34500000Y-24000000D01*
X55000000Y-19500000D02*
X55500000Y-19500000D01*
X73500000Y-19500000D02*
X73000000Y-19500000D01*
X12000000Y-30000000D02*
X12500000Y-30000000D01*
X28000000Y-30000000D02*
X28500000Y-30000000D01*
X42500000Y-10500000D02*
X43000000Y-10500000D01*
X55000000Y-24000000D02*
X55000000Y-23500000D01*
X52500000Y-19500000D02*
X53000000Y-19500000D01*
X13500000Y-30000000D02*
X14000000Y-30000000D01*
X69000000Y-18500000D02*
X69000000Y-18000000D01*
X32500000Y-16000000D02*
X32500000Y-15500000D01*
X33500000Y-38500000D02*
X33500000Y-38000000D01*
X51500000Y-10000000D02*
X52000000Y-10000000D01*
X39500000Y-10500000D02*
X40000000Y-10500000D01*
X70000000Y-19000000D02*
X69500000Y-19000000D01*
X33500000Y-39150000D02*
X33500000Y-39000000D01*
X19500000Y-30000000D02*
X20000000Y-30000000D01*
X73500000Y-21500000D02*
X73500000Y-21000000D01*
X73500000Y-23500000D02*
X73500000Y-23000000D01*
X73000000Y-19500000D02*
X72500000Y-19500000D01*
X69000000Y-16000000D02*
X69000000Y-15500000D01*
X72500000Y-19500000D02*
X72000000Y-19500000D01*
X68000000Y-19500000D02*
X68500000Y-19500000D01*
X33500000Y-25000000D02*
X33500000Y-24500000D01*
X37500000Y-10500000D02*
X38000000Y-10500000D01*
X74775000Y-23835000D02*
X75000000Y-24000000D01*
X15000000Y-30000000D02*
X15000000Y-29500000D01*
X44000000Y-10500000D02*
X44500000Y-10500000D01*
X34500000Y-10500000D02*
X35000000Y-10500000D01*
X73500000Y-22500000D02*
X73500000Y-22000000D01*
X33500000Y-37000000D02*
X33500000Y-36500000D01*
X62500000Y-19500000D02*
X63000000Y-19500000D01*
X48500000Y-10500000D02*
X49000000Y-10500000D01*
X15500000Y-26000000D02*
X15500000Y-26500000D01*
X32500000Y-10500000D02*
X33000000Y-10500000D01*
X29000000Y-10000000D02*
X29500000Y-10000000D01*
X33500000Y-35500000D02*
X33500000Y-35000000D01*
X31500000Y-30000000D02*
X32000000Y-30000000D01*
X33500000Y-25500000D02*
X33500000Y-25000000D01*
X33500000Y-26000000D02*
X33500000Y-25500000D01*
X33500000Y-20000000D02*
X33500000Y-19500000D01*
X32710000Y-19350000D02*
X32500000Y-19500000D01*
X59000000Y-19500000D02*
X59500000Y-19500000D01*
X52500000Y-18500000D02*
X52500000Y-19000000D01*
X47000000Y-10500000D02*
X47500000Y-10500000D01*
X32500000Y-15000000D02*
X32500000Y-14500000D01*
X55000000Y-22000000D02*
X55000000Y-21500000D01*
X21000000Y-30000000D02*
X21500000Y-30000000D01*
X27000000Y-30000000D02*
X27500000Y-30000000D01*
X69000000Y-18000000D02*
X69000000Y-17500000D01*
X64000000Y-19500000D02*
X64500000Y-19500000D01*
X55000000Y-20500000D02*
X55000000Y-20000000D01*
X69000000Y-12000000D02*
X69000000Y-11500000D01*
X33500000Y-28000000D02*
X33500000Y-27500000D01*
X48825000Y-9835000D02*
X49000000Y-10000000D01*
X15445000Y-26034999D02*
X15500000Y-26000000D01*
X36000000Y-10500000D02*
X36500000Y-10500000D01*
X58500000Y-19500000D02*
X59000000Y-19500000D01*
X33500000Y-37500000D02*
X33500000Y-37000000D01*
X74500000Y-24000000D02*
X74000000Y-24000000D01*
X62000000Y-19500000D02*
X62500000Y-19500000D01*
X73500000Y-20000000D02*
X73500000Y-19500000D01*
X33500000Y-30000000D02*
X33500000Y-29500000D01*
X70500000Y-19500000D02*
X70000000Y-19500000D01*
X72000000Y-19500000D02*
X71500000Y-19500000D01*
X69000000Y-11000000D02*
X69000000Y-10500000D01*
X17500000Y-30000000D02*
X18000000Y-30000000D01*
X34000000Y-24500000D02*
X34000000Y-24000000D01*
X32500000Y-11500000D02*
X32500000Y-11000000D01*
X28825000Y-9955000D02*
X29000000Y-10000000D01*
X18000000Y-30000000D02*
X18500000Y-30000000D01*
X69000000Y-14000000D02*
X69000000Y-13500000D01*
X52500000Y-17000000D02*
X52500000Y-17500000D01*
X52500000Y-16500000D02*
X52500000Y-17000000D01*
X12500000Y-30000000D02*
X13000000Y-30000000D01*
X46500000Y-10500000D02*
X47000000Y-10500000D01*
X58000000Y-19500000D02*
X58500000Y-19500000D01*
X49000000Y-10000000D02*
X49500000Y-10000000D01*
X21500000Y-30000000D02*
X22000000Y-30000000D01*
X52500000Y-14000000D02*
X52500000Y-14500000D01*
X33500000Y-34500000D02*
X33500000Y-34000000D01*
X44500000Y-10500000D02*
X45000000Y-10500000D01*
X52500000Y-11000000D02*
X52500000Y-11500000D01*
X48000000Y-10500000D02*
X48500000Y-10500000D01*
X73500000Y-22000000D02*
X73500000Y-21500000D01*
X55000000Y-21500000D02*
X55000000Y-21000000D01*
X52500000Y-13500000D02*
X52500000Y-14000000D01*
X33000000Y-10500000D02*
X33500000Y-10500000D01*
X69000000Y-12500000D02*
X69000000Y-12000000D01*
X34775000Y-23835000D02*
X35000000Y-24000000D01*
X41500000Y-10500000D02*
X42000000Y-10500000D01*
X32500000Y-11000000D02*
X32500000Y-10500000D01*
X15000000Y-29500000D02*
X15500000Y-29500000D01*
X14500000Y-30000000D02*
X15000000Y-30000000D01*
X73500000Y-21000000D02*
X73500000Y-20500000D01*
X54500000Y-19500000D02*
X55000000Y-19500000D01*
X68500000Y-19500000D02*
X68500000Y-19000000D01*
X69000000Y-13500000D02*
X69000000Y-13000000D01*
X17000000Y-30000000D02*
X17500000Y-30000000D01*
X56000000Y-19500000D02*
X56500000Y-19500000D01*
X33500000Y-29500000D02*
X33500000Y-29000000D01*
X33500000Y-23000000D02*
X33500000Y-22500000D01*
X71500000Y-19500000D02*
X71000000Y-19500000D01*
X33500000Y-22500000D02*
X33500000Y-22000000D01*
X65000000Y-19500000D02*
X65500000Y-19500000D01*
X24000000Y-30000000D02*
X24500000Y-30000000D01*
X42000000Y-10500000D02*
X42500000Y-10500000D01*
X27500000Y-30000000D02*
X28000000Y-30000000D01*
X38000000Y-10500000D02*
X38500000Y-10500000D01*
X25000000Y-30000000D02*
X25500000Y-30000000D01*
X69000000Y-15000000D02*
X69000000Y-14500000D01*
X55000000Y-23500000D02*
X55000000Y-23000000D01*
X52000000Y-10000000D02*
X52500000Y-10000000D01*
X16500000Y-29500000D02*
X17000000Y-29500000D01*
X69000000Y-17500000D02*
X69000000Y-17000000D01*
X64500000Y-19500000D02*
X65000000Y-19500000D01*
X15500000Y-28000000D02*
X15500000Y-28500000D01*
X60500000Y-19500000D02*
X61000000Y-19500000D01*
X32500000Y-16500000D02*
X32500000Y-16000000D01*
X47500000Y-10500000D02*
X48000000Y-10500000D01*
X56500000Y-19500000D02*
X57000000Y-19500000D01*
X69000000Y-11500000D02*
X69000000Y-11000000D01*
X33500000Y-21000000D02*
X33500000Y-20500000D01*
X33500000Y-28500000D02*
X33500000Y-28000000D01*
X69000000Y-13000000D02*
X69000000Y-12500000D01*
X70000000Y-19500000D02*
X70000000Y-19000000D01*
X19000000Y-30000000D02*
X19500000Y-30000000D01*
X52500000Y-10000000D02*
X52500000Y-10500000D01*
X52500000Y-13000000D02*
X52500000Y-13500000D01*
X30000000Y-30000000D02*
X30500000Y-30000000D01*
X52500000Y-18000000D02*
X52500000Y-18500000D01*
X63000000Y-19500000D02*
X63500000Y-19500000D01*
X35500000Y-10500000D02*
X36000000Y-10500000D01*
X54000000Y-19500000D02*
X54500000Y-19500000D01*
X52500000Y-16000000D02*
X52500000Y-16500000D01*
X15500000Y-29000000D02*
X15500000Y-29500000D01*
X16000000Y-29500000D02*
X16500000Y-29500000D01*
X33500000Y-24500000D02*
X34000000Y-24500000D01*
X46000000Y-10500000D02*
X46500000Y-10500000D01*
X61500000Y-19500000D02*
X62000000Y-19500000D01*
X33500000Y-34000000D02*
X33500000Y-33500000D01*
X32500000Y-19500000D02*
X32500000Y-19000000D01*
X15500000Y-27000000D02*
X15500000Y-27500000D01*
X73500000Y-20500000D02*
X73500000Y-20000000D01*
X33500000Y-30500000D02*
X33500000Y-30000000D01*
X57500000Y-19500000D02*
X58000000Y-19500000D01*
X38500000Y-10500000D02*
X39000000Y-10500000D01*
X69000000Y-19000000D02*
X69000000Y-18500000D01*
X33000000Y-30000000D02*
X33500000Y-30000000D01*
X52710000Y-19350000D02*
X52500000Y-19500000D01*
X34000000Y-23500000D02*
X33500000Y-23500000D01*
X33000000Y-19500000D02*
X32500000Y-19500000D01*
X52500000Y-15500000D02*
X52500000Y-16000000D01*
X75000000Y-24000000D02*
X74500000Y-24000000D01*
X32500000Y-14000000D02*
X32500000Y-13500000D01*
X55000000Y-20000000D02*
X55000000Y-19500000D01*
X32000000Y-10000000D02*
X32500000Y-10000000D01*
X30000000Y-10000000D02*
X30500000Y-10000000D01*
X52500000Y-17500000D02*
X52500000Y-18000000D01*
X15500000Y-29500000D02*
X16000000Y-29500000D01*
X66500000Y-19500000D02*
X67000000Y-19500000D01*
X69000000Y-14500000D02*
X69000000Y-14000000D01*
X63500000Y-19500000D02*
X64000000Y-19500000D01*
X26500000Y-30000000D02*
X27000000Y-30000000D01*
X69000000Y-17000000D02*
X69000000Y-16500000D01*
X60000000Y-19500000D02*
X60500000Y-19500000D01*
X15500000Y-27500000D02*
X15500000Y-28000000D01*
X22500000Y-30000000D02*
X23000000Y-30000000D01*
X22000000Y-30000000D02*
X22500000Y-30000000D01*
%TO.N,RS-WAIST_TERM*%
D12*
X4975000Y-8455000D02*
X5000000Y-8500000D01*
X9500000Y-8000000D02*
X10000000Y-8000000D01*
X5000000Y-8500000D02*
X5500000Y-8500000D01*
X7000000Y-8000000D02*
X7500000Y-8000000D01*
X9000000Y-8000000D02*
X9500000Y-8000000D01*
X8000000Y-8000000D02*
X8500000Y-8000000D01*
X8500000Y-8000000D02*
X9000000Y-8000000D01*
X6000000Y-8000000D02*
X6500000Y-8000000D01*
X7500000Y-8000000D02*
X8000000Y-8000000D01*
X6500000Y-8000000D02*
X7000000Y-8000000D01*
X5500000Y-8500000D02*
X6000000Y-8500000D01*
X6000000Y-8500000D02*
X6000000Y-8000000D01*
%TO.N,RS-WAIST_VISOOUT*%
D11*
X15000000Y-12500000D02*
X15500000Y-12500000D01*
X15500000Y-12500000D02*
X16000000Y-12500000D01*
X14500000Y-12500000D02*
X15000000Y-12500000D01*
X16000000Y-12500000D02*
X16500000Y-12500000D01*
X17000000Y-12000000D02*
X17000000Y-11500000D01*
X17000000Y-12500000D02*
X17000000Y-12000000D01*
X14000000Y-13000000D02*
X14500000Y-13000000D01*
X13485000Y-13200000D02*
X13500000Y-13000000D01*
X15445000Y-12865000D02*
X15500000Y-13000000D01*
X15500000Y-13000000D02*
X15500000Y-12500000D01*
X17000000Y-11500000D02*
X17000000Y-11000000D01*
X14500000Y-13000000D02*
X14500000Y-12500000D01*
X16500000Y-12500000D02*
X17000000Y-12500000D01*
X13500000Y-13000000D02*
X14000000Y-13000000D01*
%TO.N,TTL-HEAD_DATA*%
D12*
X71500000Y-7000000D02*
X71500000Y-7500000D01*
X70000000Y-11000000D02*
X70000000Y-11500000D01*
X74000000Y-10000000D02*
X74000000Y-10500000D01*
X71500000Y-10500000D02*
X71000000Y-10500000D01*
X74500000Y-10000000D02*
X74000000Y-10000000D01*
X70500000Y-10500000D02*
X70000000Y-10500000D01*
X70000000Y-11500000D02*
X70000000Y-12000000D01*
X73500000Y-10500000D02*
X73000000Y-10500000D01*
X70000000Y-10500000D02*
X70000000Y-11000000D01*
X71500000Y-8000000D02*
X71500000Y-8500000D01*
X74000000Y-10500000D02*
X73500000Y-10500000D01*
X70000000Y-12000000D02*
X70000000Y-12500000D01*
X71500000Y-9000000D02*
X71500000Y-9500000D01*
X71500000Y-10000000D02*
X71500000Y-10500000D01*
X74700000Y-9830000D02*
X74500000Y-10000000D01*
X72500000Y-10500000D02*
X72000000Y-10500000D01*
X71000000Y-10500000D02*
X70500000Y-10500000D01*
X73000000Y-10500000D02*
X72500000Y-10500000D01*
X71500000Y-7500000D02*
X71500000Y-8000000D01*
X71500000Y-9500000D02*
X71500000Y-10000000D01*
X72000000Y-10500000D02*
X71500000Y-10500000D01*
X71500000Y-8500000D02*
X71500000Y-9000000D01*
X71625000Y-6750000D02*
X71500000Y-7000000D01*
%TO.N,TTL-LDIST_DATA*%
X31500000Y-8000000D02*
X31500000Y-8500000D01*
X29500000Y-9500000D02*
X29000000Y-9500000D01*
X28500000Y-13000000D02*
X28000000Y-13000000D01*
X31500000Y-8500000D02*
X31500000Y-9000000D01*
X30000000Y-13000000D02*
X29500000Y-13000000D01*
X33500000Y-9000000D02*
X33000000Y-9000000D01*
X32500000Y-9000000D02*
X32000000Y-9000000D01*
X31500000Y-7500000D02*
X31500000Y-8000000D01*
X27500000Y-10000000D02*
X27000000Y-10000000D01*
X28000000Y-13000000D02*
X27500000Y-13000000D01*
X34700000Y-9830000D02*
X34500000Y-10000000D01*
X29500000Y-13000000D02*
X29000000Y-13000000D01*
X31500000Y-9000000D02*
X31000000Y-9000000D01*
X34500000Y-10000000D02*
X34000000Y-10000000D01*
X28000000Y-9500000D02*
X28000000Y-10000000D01*
X34000000Y-9000000D02*
X33500000Y-9000000D01*
X30175000Y-13165000D02*
X30000000Y-13000000D01*
X31625000Y-6750000D02*
X31500000Y-7000000D01*
X29000000Y-9500000D02*
X28500000Y-9500000D01*
X29000000Y-13000000D02*
X28500000Y-13000000D01*
X31500000Y-7000000D02*
X31500000Y-7500000D01*
X28000000Y-10000000D02*
X27500000Y-10000000D01*
X27000000Y-11000000D02*
X27000000Y-10500000D01*
X27000000Y-12000000D02*
X27000000Y-11500000D01*
X33000000Y-9000000D02*
X32500000Y-9000000D01*
X27000000Y-12500000D02*
X27000000Y-12000000D01*
X31000000Y-9000000D02*
X30500000Y-9000000D01*
X34000000Y-10000000D02*
X34000000Y-9500000D01*
X27000000Y-13000000D02*
X27000000Y-12500000D01*
X30000000Y-9500000D02*
X29500000Y-9500000D01*
X28500000Y-9500000D02*
X28000000Y-9500000D01*
X27500000Y-13000000D02*
X27000000Y-13000000D01*
X27000000Y-11500000D02*
X27000000Y-11000000D01*
X30500000Y-9000000D02*
X30000000Y-9000000D01*
X30000000Y-9000000D02*
X30000000Y-9500000D01*
X27000000Y-10000000D02*
X27000000Y-10500000D01*
X32000000Y-9000000D02*
X31500000Y-9000000D01*
X34000000Y-9500000D02*
X34000000Y-9000000D01*
%TO.N,TTL-RDIST_DATA*%
X48000000Y-13000000D02*
X47500000Y-13000000D01*
X47500000Y-13000000D02*
X47000000Y-13000000D01*
X48500000Y-13000000D02*
X48000000Y-13000000D01*
X47000000Y-12500000D02*
X47000000Y-12000000D01*
X49500000Y-13000000D02*
X49000000Y-13000000D01*
X50000000Y-13000000D02*
X49500000Y-13000000D01*
X50175000Y-13045000D02*
X50000000Y-13000000D01*
X47000000Y-13000000D02*
X47000000Y-12500000D01*
X49000000Y-13000000D02*
X48500000Y-13000000D01*
X47000000Y-12000000D02*
X47000000Y-11500000D01*
X47000000Y-11500000D02*
X47000000Y-11000000D01*
%TO.N,UART_RS-WAIST_RX*%
X9000000Y-26500000D02*
X9000000Y-26000000D01*
X26000000Y-40000000D02*
X25500000Y-40000000D01*
X9500000Y-40000000D02*
X9000000Y-40000000D01*
X37250000Y-39150000D02*
X37000000Y-39000000D01*
X21500000Y-40000000D02*
X21000000Y-40000000D01*
X18500000Y-40000000D02*
X18000000Y-40000000D01*
X29000000Y-40000000D02*
X28500000Y-40000000D01*
X36500000Y-39000000D02*
X36500000Y-39500000D01*
X10500000Y-40000000D02*
X10000000Y-40000000D01*
X9000000Y-33000000D02*
X9000000Y-32500000D01*
X34500000Y-40000000D02*
X34000000Y-40000000D01*
X9000000Y-38000000D02*
X9000000Y-37500000D01*
X9000000Y-31500000D02*
X9000000Y-31000000D01*
X9000000Y-37000000D02*
X9000000Y-36500000D01*
X9000000Y-39000000D02*
X9000000Y-38500000D01*
X9000000Y-28500000D02*
X9000000Y-28000000D01*
X34000000Y-40000000D02*
X33500000Y-40000000D01*
X31000000Y-40000000D02*
X30500000Y-40000000D01*
X9000000Y-37500000D02*
X9000000Y-37000000D01*
X9000000Y-39500000D02*
X9000000Y-39000000D01*
X24500000Y-40000000D02*
X24000000Y-40000000D01*
X16500000Y-40000000D02*
X16000000Y-40000000D01*
X19500000Y-40000000D02*
X19000000Y-40000000D01*
X12500000Y-40000000D02*
X12000000Y-40000000D01*
X9000000Y-33500000D02*
X9000000Y-33000000D01*
X13500000Y-40000000D02*
X13000000Y-40000000D01*
X23500000Y-40000000D02*
X23000000Y-40000000D01*
X9000000Y-32500000D02*
X9000000Y-32000000D01*
X9000000Y-40000000D02*
X9000000Y-39500000D01*
X10000000Y-40000000D02*
X9500000Y-40000000D01*
X27000000Y-40000000D02*
X26500000Y-40000000D01*
X17000000Y-40000000D02*
X16500000Y-40000000D01*
X29500000Y-40000000D02*
X29000000Y-40000000D01*
X9000000Y-26000000D02*
X8500000Y-26000000D01*
X11000000Y-40000000D02*
X10500000Y-40000000D01*
X9000000Y-27000000D02*
X9000000Y-26500000D01*
X27500000Y-40000000D02*
X27000000Y-40000000D01*
X23000000Y-40000000D02*
X22500000Y-40000000D01*
X36000000Y-40000000D02*
X35500000Y-40000000D01*
X18000000Y-40000000D02*
X17500000Y-40000000D01*
X9000000Y-29500000D02*
X9000000Y-29000000D01*
X17500000Y-40000000D02*
X17000000Y-40000000D01*
X9000000Y-28000000D02*
X9000000Y-27500000D01*
X15000000Y-40000000D02*
X14500000Y-40000000D01*
X20500000Y-40000000D02*
X20000000Y-40000000D01*
X22000000Y-40000000D02*
X21500000Y-40000000D01*
X9000000Y-27500000D02*
X9000000Y-27000000D01*
X30000000Y-40000000D02*
X29500000Y-40000000D01*
X35500000Y-40000000D02*
X35000000Y-40000000D01*
X9000000Y-30500000D02*
X9000000Y-30000000D01*
X32000000Y-40000000D02*
X31500000Y-40000000D01*
X28500000Y-40000000D02*
X28000000Y-40000000D01*
X28000000Y-40000000D02*
X27500000Y-40000000D01*
X9000000Y-38500000D02*
X9000000Y-38000000D01*
X12000000Y-40000000D02*
X11500000Y-40000000D01*
X36500000Y-40000000D02*
X36000000Y-40000000D01*
X37000000Y-39000000D02*
X36500000Y-39000000D01*
X26500000Y-40000000D02*
X26000000Y-40000000D01*
X20000000Y-40000000D02*
X19500000Y-40000000D01*
X33500000Y-40000000D02*
X33000000Y-40000000D01*
X14500000Y-40000000D02*
X14000000Y-40000000D01*
X9000000Y-36500000D02*
X9000000Y-36000000D01*
X22500000Y-40000000D02*
X22000000Y-40000000D01*
X30500000Y-40000000D02*
X30000000Y-40000000D01*
X9000000Y-32000000D02*
X9000000Y-31500000D01*
X32500000Y-40000000D02*
X32000000Y-40000000D01*
X15500000Y-40000000D02*
X15000000Y-40000000D01*
X9000000Y-31000000D02*
X9000000Y-30500000D01*
X16000000Y-40000000D02*
X15500000Y-40000000D01*
X9000000Y-34000000D02*
X9000000Y-33500000D01*
X19000000Y-40000000D02*
X18500000Y-40000000D01*
X36500000Y-39500000D02*
X36500000Y-40000000D01*
X25500000Y-40000000D02*
X25000000Y-40000000D01*
X13000000Y-40000000D02*
X12500000Y-40000000D01*
X14000000Y-40000000D02*
X13500000Y-40000000D01*
X31500000Y-40000000D02*
X31000000Y-40000000D01*
X33000000Y-40000000D02*
X32500000Y-40000000D01*
X9000000Y-29000000D02*
X9000000Y-28500000D01*
X35000000Y-40000000D02*
X34500000Y-40000000D01*
X9000000Y-35000000D02*
X9000000Y-34500000D01*
X21000000Y-40000000D02*
X20500000Y-40000000D01*
X25000000Y-40000000D02*
X24500000Y-40000000D01*
X24000000Y-40000000D02*
X23500000Y-40000000D01*
X9000000Y-30000000D02*
X9000000Y-29500000D01*
X11500000Y-40000000D02*
X11000000Y-40000000D01*
X9000000Y-35500000D02*
X9000000Y-35000000D01*
X9000000Y-36000000D02*
X9000000Y-35500000D01*
X9000000Y-34500000D02*
X9000000Y-34000000D01*
%TO.N,UART_TTL-LDIST_DIR*%
X29500000Y-18500000D02*
X29000000Y-18500000D01*
X28500000Y-18500000D02*
X28000000Y-18500000D01*
X30500000Y-20000000D02*
X30000000Y-20000000D01*
X29500000Y-19000000D02*
X29500000Y-18500000D01*
X30000000Y-20000000D02*
X30000000Y-19500000D01*
X28000000Y-18000000D02*
X28000000Y-17500000D01*
X29000000Y-18500000D02*
X28500000Y-18500000D01*
X32500000Y-20000000D02*
X32000000Y-20000000D01*
X28000000Y-18500000D02*
X28000000Y-18000000D01*
X30000000Y-19500000D02*
X30000000Y-19000000D01*
X31500000Y-20000000D02*
X31000000Y-20000000D01*
X32710000Y-20000000D02*
X32500000Y-20000000D01*
X31000000Y-20000000D02*
X30500000Y-20000000D01*
X30000000Y-19000000D02*
X29500000Y-19000000D01*
X32000000Y-20000000D02*
X31500000Y-20000000D01*
%TO.N,UART_TTL-LDIST_TX*%
X30000000Y-25000000D02*
X29500000Y-25000000D01*
X32500000Y-25000000D02*
X32000000Y-25000000D01*
X31500000Y-25000000D02*
X31000000Y-25000000D01*
X29500000Y-23000000D02*
X29500000Y-22500000D01*
X29500000Y-23500000D02*
X29500000Y-23000000D01*
X29500000Y-22000000D02*
X29500000Y-21500000D01*
X31000000Y-25000000D02*
X30500000Y-25000000D01*
X29500000Y-22500000D02*
X29500000Y-22000000D01*
X29500000Y-25000000D02*
X29500000Y-24500000D01*
X29500000Y-24000000D02*
X29500000Y-23500000D01*
X30500000Y-25000000D02*
X30000000Y-25000000D01*
X29500000Y-24500000D02*
X29500000Y-24000000D01*
X32000000Y-25000000D02*
X31500000Y-25000000D01*
%TO.N,UART_TTL-RDIST_DIR*%
X51000000Y-20000000D02*
X50500000Y-20000000D01*
X46500000Y-38000000D02*
X46500000Y-37500000D01*
X45500000Y-38500000D02*
X46000000Y-38500000D01*
X46500000Y-31500000D02*
X46500000Y-31000000D01*
X46500000Y-26000000D02*
X46500000Y-25500000D01*
X46500000Y-24500000D02*
X46500000Y-24000000D01*
X52000000Y-20000000D02*
X51500000Y-20000000D01*
X47500000Y-21500000D02*
X47500000Y-21000000D01*
X47500000Y-22000000D02*
X47500000Y-21500000D01*
X46500000Y-28000000D02*
X46500000Y-27500000D01*
X49500000Y-18500000D02*
X49000000Y-18500000D01*
X48500000Y-18500000D02*
X48000000Y-18500000D01*
X44500000Y-38500000D02*
X45000000Y-38500000D01*
X50000000Y-19000000D02*
X49500000Y-19000000D01*
X50500000Y-20000000D02*
X50000000Y-20000000D01*
X43500000Y-39150000D02*
X43500000Y-39000000D01*
X46500000Y-28500000D02*
X46500000Y-28000000D01*
X46500000Y-33000000D02*
X46500000Y-32500000D01*
X48000000Y-18000000D02*
X47500000Y-18000000D01*
X46500000Y-27500000D02*
X46500000Y-27000000D01*
X50000000Y-19500000D02*
X50000000Y-19000000D01*
X46500000Y-36500000D02*
X46500000Y-36000000D01*
X46500000Y-35500000D02*
X46500000Y-35000000D01*
X46500000Y-35000000D02*
X46500000Y-34500000D01*
X46500000Y-24000000D02*
X46500000Y-23500000D01*
X50000000Y-20000000D02*
X50000000Y-19500000D01*
X46500000Y-32000000D02*
X46500000Y-31500000D01*
X46500000Y-29500000D02*
X46500000Y-29000000D01*
X47500000Y-20000000D02*
X48000000Y-20000000D01*
X45000000Y-38500000D02*
X45500000Y-38500000D01*
X47000000Y-23500000D02*
X47000000Y-23000000D01*
X47500000Y-21000000D02*
X47500000Y-20500000D01*
X46500000Y-34000000D02*
X46500000Y-33500000D01*
X47000000Y-23000000D02*
X47500000Y-23000000D01*
X51500000Y-20000000D02*
X51000000Y-20000000D01*
X44000000Y-38500000D02*
X44500000Y-38500000D01*
X46000000Y-38500000D02*
X46500000Y-38500000D01*
X48000000Y-18500000D02*
X48000000Y-18000000D01*
X46500000Y-34500000D02*
X46500000Y-34000000D01*
X46500000Y-26500000D02*
X46500000Y-26000000D01*
X46500000Y-25500000D02*
X46500000Y-25000000D01*
X46500000Y-23500000D02*
X47000000Y-23500000D01*
X46500000Y-30000000D02*
X46500000Y-29500000D01*
X46500000Y-31000000D02*
X46500000Y-30500000D01*
X46500000Y-33500000D02*
X46500000Y-33000000D01*
X49500000Y-19000000D02*
X49500000Y-18500000D01*
X43500000Y-39000000D02*
X44000000Y-39000000D01*
X52710000Y-20000000D02*
X52500000Y-20000000D01*
X47500000Y-20500000D02*
X47500000Y-20000000D01*
X46500000Y-37000000D02*
X46500000Y-36500000D01*
X47500000Y-18000000D02*
X47500000Y-17500000D01*
X46500000Y-25000000D02*
X46500000Y-24500000D01*
X48000000Y-20000000D02*
X48000000Y-19500000D01*
X46500000Y-37500000D02*
X46500000Y-37000000D01*
X46500000Y-29000000D02*
X46500000Y-28500000D01*
X49000000Y-18500000D02*
X48500000Y-18500000D01*
X48000000Y-19000000D02*
X48000000Y-18500000D01*
X46500000Y-27000000D02*
X46500000Y-26500000D01*
X46500000Y-38500000D02*
X46500000Y-38000000D01*
X47500000Y-23000000D02*
X47500000Y-22500000D01*
X46500000Y-30500000D02*
X46500000Y-30000000D01*
X47500000Y-22500000D02*
X47500000Y-22000000D01*
X52500000Y-20000000D02*
X52000000Y-20000000D01*
X46500000Y-32500000D02*
X46500000Y-32000000D01*
X48000000Y-19500000D02*
X48000000Y-19000000D01*
X44000000Y-39000000D02*
X44000000Y-38500000D01*
X46500000Y-36000000D02*
X46500000Y-35500000D01*
%TD*%
M02*
