%TF.GenerationSoftware,KiCad,Pcbnew,10.0.5*%
%TF.CreationDate,2026-08-17T00:24:09-04:00*%
%TF.ProjectId,hr30-carrier-b-p0.1,68723330-2d63-4617-9272-6965722d622d,rev?*%
%TF.SameCoordinates,Original*%
%TF.FileFunction,Soldermask,Top*%
%TF.FilePolarity,Negative*%
%FSLAX46Y46*%
G04 Gerber Fmt 4.6, Leading zero omitted, Abs format (unit mm)*
G04 Created by KiCad (PCBNEW 10.0.5) date 2026-08-17 00:24:09*
%MOMM*%
%LPD*%
G01*
G04 APERTURE LIST*
G04 APERTURE END LIST*
G36*
X32457403Y-39111418D02*
G01*
X32506066Y-39143934D01*
X32538582Y-39192597D01*
X32550000Y-39250000D01*
X32550000Y-40650000D01*
X32538582Y-40707403D01*
X32506066Y-40756066D01*
X32457403Y-40788582D01*
X32400000Y-40800000D01*
X32100000Y-40800000D01*
X32042597Y-40788582D01*
X31993934Y-40756066D01*
X31961418Y-40707403D01*
X31950000Y-40650000D01*
X31950000Y-39250000D01*
X31961418Y-39192597D01*
X31993934Y-39143934D01*
X32042597Y-39111418D01*
X32100000Y-39100000D01*
X32400000Y-39100000D01*
X32457403Y-39111418D01*
G37*
G36*
X33707403Y-39111418D02*
G01*
X33756066Y-39143934D01*
X33788582Y-39192597D01*
X33800000Y-39250000D01*
X33800000Y-40650000D01*
X33788582Y-40707403D01*
X33756066Y-40756066D01*
X33707403Y-40788582D01*
X33650000Y-40800000D01*
X33350000Y-40800000D01*
X33292597Y-40788582D01*
X33243934Y-40756066D01*
X33211418Y-40707403D01*
X33200000Y-40650000D01*
X33200000Y-39250000D01*
X33211418Y-39192597D01*
X33243934Y-39143934D01*
X33292597Y-39111418D01*
X33350000Y-39100000D01*
X33650000Y-39100000D01*
X33707403Y-39111418D01*
G37*
G36*
X34957403Y-39111418D02*
G01*
X35006066Y-39143934D01*
X35038582Y-39192597D01*
X35050000Y-39250000D01*
X35050000Y-40650000D01*
X35038582Y-40707403D01*
X35006066Y-40756066D01*
X34957403Y-40788582D01*
X34900000Y-40800000D01*
X34600000Y-40800000D01*
X34542597Y-40788582D01*
X34493934Y-40756066D01*
X34461418Y-40707403D01*
X34450000Y-40650000D01*
X34450000Y-39250000D01*
X34461418Y-39192597D01*
X34493934Y-39143934D01*
X34542597Y-39111418D01*
X34600000Y-39100000D01*
X34900000Y-39100000D01*
X34957403Y-39111418D01*
G37*
G36*
X36207403Y-39111418D02*
G01*
X36256066Y-39143934D01*
X36288582Y-39192597D01*
X36300000Y-39250000D01*
X36300000Y-40650000D01*
X36288582Y-40707403D01*
X36256066Y-40756066D01*
X36207403Y-40788582D01*
X36150000Y-40800000D01*
X35850000Y-40800000D01*
X35792597Y-40788582D01*
X35743934Y-40756066D01*
X35711418Y-40707403D01*
X35700000Y-40650000D01*
X35700000Y-39250000D01*
X35711418Y-39192597D01*
X35743934Y-39143934D01*
X35792597Y-39111418D01*
X35850000Y-39100000D01*
X36150000Y-39100000D01*
X36207403Y-39111418D01*
G37*
G36*
X37457403Y-39111418D02*
G01*
X37506066Y-39143934D01*
X37538582Y-39192597D01*
X37550000Y-39250000D01*
X37550000Y-40650000D01*
X37538582Y-40707403D01*
X37506066Y-40756066D01*
X37457403Y-40788582D01*
X37400000Y-40800000D01*
X37100000Y-40800000D01*
X37042597Y-40788582D01*
X36993934Y-40756066D01*
X36961418Y-40707403D01*
X36950000Y-40650000D01*
X36950000Y-39250000D01*
X36961418Y-39192597D01*
X36993934Y-39143934D01*
X37042597Y-39111418D01*
X37100000Y-39100000D01*
X37400000Y-39100000D01*
X37457403Y-39111418D01*
G37*
G36*
X38707403Y-39111418D02*
G01*
X38756066Y-39143934D01*
X38788582Y-39192597D01*
X38800000Y-39250000D01*
X38800000Y-40650000D01*
X38788582Y-40707403D01*
X38756066Y-40756066D01*
X38707403Y-40788582D01*
X38650000Y-40800000D01*
X38350000Y-40800000D01*
X38292597Y-40788582D01*
X38243934Y-40756066D01*
X38211418Y-40707403D01*
X38200000Y-40650000D01*
X38200000Y-39250000D01*
X38211418Y-39192597D01*
X38243934Y-39143934D01*
X38292597Y-39111418D01*
X38350000Y-39100000D01*
X38650000Y-39100000D01*
X38707403Y-39111418D01*
G37*
G36*
X39957403Y-39111418D02*
G01*
X40006066Y-39143934D01*
X40038582Y-39192597D01*
X40050000Y-39250000D01*
X40050000Y-40650000D01*
X40038582Y-40707403D01*
X40006066Y-40756066D01*
X39957403Y-40788582D01*
X39900000Y-40800000D01*
X39600000Y-40800000D01*
X39542597Y-40788582D01*
X39493934Y-40756066D01*
X39461418Y-40707403D01*
X39450000Y-40650000D01*
X39450000Y-39250000D01*
X39461418Y-39192597D01*
X39493934Y-39143934D01*
X39542597Y-39111418D01*
X39600000Y-39100000D01*
X39900000Y-39100000D01*
X39957403Y-39111418D01*
G37*
G36*
X41207403Y-39111418D02*
G01*
X41256066Y-39143934D01*
X41288582Y-39192597D01*
X41300000Y-39250000D01*
X41300000Y-40650000D01*
X41288582Y-40707403D01*
X41256066Y-40756066D01*
X41207403Y-40788582D01*
X41150000Y-40800000D01*
X40850000Y-40800000D01*
X40792597Y-40788582D01*
X40743934Y-40756066D01*
X40711418Y-40707403D01*
X40700000Y-40650000D01*
X40700000Y-39250000D01*
X40711418Y-39192597D01*
X40743934Y-39143934D01*
X40792597Y-39111418D01*
X40850000Y-39100000D01*
X41150000Y-39100000D01*
X41207403Y-39111418D01*
G37*
G36*
X42457403Y-39111418D02*
G01*
X42506066Y-39143934D01*
X42538582Y-39192597D01*
X42550000Y-39250000D01*
X42550000Y-40650000D01*
X42538582Y-40707403D01*
X42506066Y-40756066D01*
X42457403Y-40788582D01*
X42400000Y-40800000D01*
X42100000Y-40800000D01*
X42042597Y-40788582D01*
X41993934Y-40756066D01*
X41961418Y-40707403D01*
X41950000Y-40650000D01*
X41950000Y-39250000D01*
X41961418Y-39192597D01*
X41993934Y-39143934D01*
X42042597Y-39111418D01*
X42100000Y-39100000D01*
X42400000Y-39100000D01*
X42457403Y-39111418D01*
G37*
G36*
X43707403Y-39111418D02*
G01*
X43756066Y-39143934D01*
X43788582Y-39192597D01*
X43800000Y-39250000D01*
X43800000Y-40650000D01*
X43788582Y-40707403D01*
X43756066Y-40756066D01*
X43707403Y-40788582D01*
X43650000Y-40800000D01*
X43350000Y-40800000D01*
X43292597Y-40788582D01*
X43243934Y-40756066D01*
X43211418Y-40707403D01*
X43200000Y-40650000D01*
X43200000Y-39250000D01*
X43211418Y-39192597D01*
X43243934Y-39143934D01*
X43292597Y-39111418D01*
X43350000Y-39100000D01*
X43650000Y-39100000D01*
X43707403Y-39111418D01*
G37*
G36*
X44957403Y-39111418D02*
G01*
X45006066Y-39143934D01*
X45038582Y-39192597D01*
X45050000Y-39250000D01*
X45050000Y-40650000D01*
X45038582Y-40707403D01*
X45006066Y-40756066D01*
X44957403Y-40788582D01*
X44900000Y-40800000D01*
X44600000Y-40800000D01*
X44542597Y-40788582D01*
X44493934Y-40756066D01*
X44461418Y-40707403D01*
X44450000Y-40650000D01*
X44450000Y-39250000D01*
X44461418Y-39192597D01*
X44493934Y-39143934D01*
X44542597Y-39111418D01*
X44600000Y-39100000D01*
X44900000Y-39100000D01*
X44957403Y-39111418D01*
G37*
G36*
X46207403Y-39111418D02*
G01*
X46256066Y-39143934D01*
X46288582Y-39192597D01*
X46300000Y-39250000D01*
X46300000Y-40650000D01*
X46288582Y-40707403D01*
X46256066Y-40756066D01*
X46207403Y-40788582D01*
X46150000Y-40800000D01*
X45850000Y-40800000D01*
X45792597Y-40788582D01*
X45743934Y-40756066D01*
X45711418Y-40707403D01*
X45700000Y-40650000D01*
X45700000Y-39250000D01*
X45711418Y-39192597D01*
X45743934Y-39143934D01*
X45792597Y-39111418D01*
X45850000Y-39100000D01*
X46150000Y-39100000D01*
X46207403Y-39111418D01*
G37*
G36*
X47457403Y-39111418D02*
G01*
X47506066Y-39143934D01*
X47538582Y-39192597D01*
X47550000Y-39250000D01*
X47550000Y-40650000D01*
X47538582Y-40707403D01*
X47506066Y-40756066D01*
X47457403Y-40788582D01*
X47400000Y-40800000D01*
X47100000Y-40800000D01*
X47042597Y-40788582D01*
X46993934Y-40756066D01*
X46961418Y-40707403D01*
X46950000Y-40650000D01*
X46950000Y-39250000D01*
X46961418Y-39192597D01*
X46993934Y-39143934D01*
X47042597Y-39111418D01*
X47100000Y-39100000D01*
X47400000Y-39100000D01*
X47457403Y-39111418D01*
G37*
G36*
X48707403Y-39111418D02*
G01*
X48756066Y-39143934D01*
X48788582Y-39192597D01*
X48800000Y-39250000D01*
X48800000Y-40650000D01*
X48788582Y-40707403D01*
X48756066Y-40756066D01*
X48707403Y-40788582D01*
X48650000Y-40800000D01*
X48350000Y-40800000D01*
X48292597Y-40788582D01*
X48243934Y-40756066D01*
X48211418Y-40707403D01*
X48200000Y-40650000D01*
X48200000Y-39250000D01*
X48211418Y-39192597D01*
X48243934Y-39143934D01*
X48292597Y-39111418D01*
X48350000Y-39100000D01*
X48650000Y-39100000D01*
X48707403Y-39111418D01*
G37*
G36*
X49957403Y-39111418D02*
G01*
X50006066Y-39143934D01*
X50038582Y-39192597D01*
X50050000Y-39250000D01*
X50050000Y-40650000D01*
X50038582Y-40707403D01*
X50006066Y-40756066D01*
X49957403Y-40788582D01*
X49900000Y-40800000D01*
X49600000Y-40800000D01*
X49542597Y-40788582D01*
X49493934Y-40756066D01*
X49461418Y-40707403D01*
X49450000Y-40650000D01*
X49450000Y-39250000D01*
X49461418Y-39192597D01*
X49493934Y-39143934D01*
X49542597Y-39111418D01*
X49600000Y-39100000D01*
X49900000Y-39100000D01*
X49957403Y-39111418D01*
G37*
G36*
X3815151Y-37187301D02*
G01*
X4016623Y-37252763D01*
X4205373Y-37348936D01*
X4376755Y-37473452D01*
X4526548Y-37623245D01*
X4651064Y-37794627D01*
X4747237Y-37983377D01*
X4812699Y-38184849D01*
X4845838Y-38394080D01*
X4845838Y-38605920D01*
X4812699Y-38815151D01*
X4747237Y-39016623D01*
X4651064Y-39205373D01*
X4526548Y-39376755D01*
X4376755Y-39526548D01*
X4205373Y-39651064D01*
X4016623Y-39747237D01*
X3815151Y-39812699D01*
X3605920Y-39845838D01*
X3394080Y-39845838D01*
X3184849Y-39812699D01*
X2983377Y-39747237D01*
X2794627Y-39651064D01*
X2623245Y-39526548D01*
X2473452Y-39376755D01*
X2348936Y-39205373D01*
X2252763Y-39016623D01*
X2187301Y-38815151D01*
X2154162Y-38605920D01*
X2154162Y-38394080D01*
X2187301Y-38184849D01*
X2252763Y-37983377D01*
X2348936Y-37794627D01*
X2473452Y-37623245D01*
X2623245Y-37473452D01*
X2794627Y-37348936D01*
X2983377Y-37252763D01*
X3184849Y-37187301D01*
X3394080Y-37154162D01*
X3605920Y-37154162D01*
X3815151Y-37187301D01*
G37*
G36*
X78815151Y-37187301D02*
G01*
X79016623Y-37252763D01*
X79205373Y-37348936D01*
X79376755Y-37473452D01*
X79526548Y-37623245D01*
X79651064Y-37794627D01*
X79747237Y-37983377D01*
X79812699Y-38184849D01*
X79845838Y-38394080D01*
X79845838Y-38605920D01*
X79812699Y-38815151D01*
X79747237Y-39016623D01*
X79651064Y-39205373D01*
X79526548Y-39376755D01*
X79376755Y-39526548D01*
X79205373Y-39651064D01*
X79016623Y-39747237D01*
X78815151Y-39812699D01*
X78605920Y-39845838D01*
X78394080Y-39845838D01*
X78184849Y-39812699D01*
X77983377Y-39747237D01*
X77794627Y-39651064D01*
X77623245Y-39526548D01*
X77473452Y-39376755D01*
X77348936Y-39205373D01*
X77252763Y-39016623D01*
X77187301Y-38815151D01*
X77154162Y-38605920D01*
X77154162Y-38394080D01*
X77187301Y-38184849D01*
X77252763Y-37983377D01*
X77348936Y-37794627D01*
X77473452Y-37623245D01*
X77623245Y-37473452D01*
X77794627Y-37348936D01*
X77983377Y-37252763D01*
X78184849Y-37187301D01*
X78394080Y-37154162D01*
X78605920Y-37154162D01*
X78815151Y-37187301D01*
G37*
G36*
X30654047Y-35200805D02*
G01*
X30705408Y-35206764D01*
X30722954Y-35214511D01*
X30745671Y-35219030D01*
X30769991Y-35235280D01*
X30790793Y-35244465D01*
X30805000Y-35258672D01*
X30826777Y-35273223D01*
X30841327Y-35294999D01*
X30855534Y-35309206D01*
X30864718Y-35330006D01*
X30880970Y-35354329D01*
X30885489Y-35377048D01*
X30893235Y-35394591D01*
X30899192Y-35445940D01*
X30900000Y-35450000D01*
X30900000Y-37750000D01*
X30899192Y-37754059D01*
X30893235Y-37805408D01*
X30885489Y-37822950D01*
X30880970Y-37845671D01*
X30864716Y-37869995D01*
X30855534Y-37890793D01*
X30841329Y-37904997D01*
X30826777Y-37926777D01*
X30804997Y-37941329D01*
X30790793Y-37955534D01*
X30769995Y-37964716D01*
X30745671Y-37980970D01*
X30722950Y-37985489D01*
X30705408Y-37993235D01*
X30654061Y-37999192D01*
X30650000Y-38000000D01*
X30150000Y-38000000D01*
X30145941Y-37999192D01*
X30094591Y-37993235D01*
X30077048Y-37985489D01*
X30054329Y-37980970D01*
X30030006Y-37964718D01*
X30009206Y-37955534D01*
X29994999Y-37941327D01*
X29973223Y-37926777D01*
X29958672Y-37905000D01*
X29944465Y-37890793D01*
X29935280Y-37869991D01*
X29919030Y-37845671D01*
X29914511Y-37822954D01*
X29906764Y-37805408D01*
X29900805Y-37754049D01*
X29900000Y-37750000D01*
X29900000Y-35450000D01*
X29900804Y-35445953D01*
X29906764Y-35394591D01*
X29914511Y-35377043D01*
X29919030Y-35354329D01*
X29935278Y-35330010D01*
X29944465Y-35309206D01*
X29958674Y-35294996D01*
X29973223Y-35273223D01*
X29994996Y-35258674D01*
X30009206Y-35244465D01*
X30030010Y-35235278D01*
X30054329Y-35219030D01*
X30077043Y-35214511D01*
X30094591Y-35206764D01*
X30145952Y-35200805D01*
X30150000Y-35200000D01*
X30650000Y-35200000D01*
X30654047Y-35200805D01*
G37*
G36*
X51854047Y-35200805D02*
G01*
X51905408Y-35206764D01*
X51922954Y-35214511D01*
X51945671Y-35219030D01*
X51969991Y-35235280D01*
X51990793Y-35244465D01*
X52005000Y-35258672D01*
X52026777Y-35273223D01*
X52041327Y-35294999D01*
X52055534Y-35309206D01*
X52064718Y-35330006D01*
X52080970Y-35354329D01*
X52085489Y-35377048D01*
X52093235Y-35394591D01*
X52099192Y-35445940D01*
X52100000Y-35450000D01*
X52100000Y-37750000D01*
X52099192Y-37754059D01*
X52093235Y-37805408D01*
X52085489Y-37822950D01*
X52080970Y-37845671D01*
X52064716Y-37869995D01*
X52055534Y-37890793D01*
X52041329Y-37904997D01*
X52026777Y-37926777D01*
X52004997Y-37941329D01*
X51990793Y-37955534D01*
X51969995Y-37964716D01*
X51945671Y-37980970D01*
X51922950Y-37985489D01*
X51905408Y-37993235D01*
X51854061Y-37999192D01*
X51850000Y-38000000D01*
X51350000Y-38000000D01*
X51345941Y-37999192D01*
X51294591Y-37993235D01*
X51277048Y-37985489D01*
X51254329Y-37980970D01*
X51230006Y-37964718D01*
X51209206Y-37955534D01*
X51194999Y-37941327D01*
X51173223Y-37926777D01*
X51158672Y-37905000D01*
X51144465Y-37890793D01*
X51135280Y-37869991D01*
X51119030Y-37845671D01*
X51114511Y-37822954D01*
X51106764Y-37805408D01*
X51100805Y-37754049D01*
X51100000Y-37750000D01*
X51100000Y-35450000D01*
X51100804Y-35445953D01*
X51106764Y-35394591D01*
X51114511Y-35377043D01*
X51119030Y-35354329D01*
X51135278Y-35330010D01*
X51144465Y-35309206D01*
X51158674Y-35294996D01*
X51173223Y-35273223D01*
X51194996Y-35258674D01*
X51209206Y-35244465D01*
X51230010Y-35235278D01*
X51254329Y-35219030D01*
X51277043Y-35214511D01*
X51294591Y-35206764D01*
X51345952Y-35200805D01*
X51350000Y-35200000D01*
X51850000Y-35200000D01*
X51854047Y-35200805D01*
G37*
G36*
X5492403Y-23636418D02*
G01*
X5541066Y-23668934D01*
X5573582Y-23717597D01*
X5585000Y-23775000D01*
X5585000Y-25525000D01*
X5573582Y-25582403D01*
X5541066Y-25631066D01*
X5492403Y-25663582D01*
X5435000Y-25675000D01*
X5135000Y-25675000D01*
X5077597Y-25663582D01*
X5028934Y-25631066D01*
X4996418Y-25582403D01*
X4985000Y-25525000D01*
X4985000Y-23775000D01*
X4996418Y-23717597D01*
X5028934Y-23668934D01*
X5077597Y-23636418D01*
X5135000Y-23625000D01*
X5435000Y-23625000D01*
X5492403Y-23636418D01*
G37*
G36*
X6762403Y-23636418D02*
G01*
X6811066Y-23668934D01*
X6843582Y-23717597D01*
X6855000Y-23775000D01*
X6855000Y-25525000D01*
X6843582Y-25582403D01*
X6811066Y-25631066D01*
X6762403Y-25663582D01*
X6705000Y-25675000D01*
X6405000Y-25675000D01*
X6347597Y-25663582D01*
X6298934Y-25631066D01*
X6266418Y-25582403D01*
X6255000Y-25525000D01*
X6255000Y-23775000D01*
X6266418Y-23717597D01*
X6298934Y-23668934D01*
X6347597Y-23636418D01*
X6405000Y-23625000D01*
X6705000Y-23625000D01*
X6762403Y-23636418D01*
G37*
G36*
X8032403Y-23636418D02*
G01*
X8081066Y-23668934D01*
X8113582Y-23717597D01*
X8125000Y-23775000D01*
X8125000Y-25525000D01*
X8113582Y-25582403D01*
X8081066Y-25631066D01*
X8032403Y-25663582D01*
X7975000Y-25675000D01*
X7675000Y-25675000D01*
X7617597Y-25663582D01*
X7568934Y-25631066D01*
X7536418Y-25582403D01*
X7525000Y-25525000D01*
X7525000Y-23775000D01*
X7536418Y-23717597D01*
X7568934Y-23668934D01*
X7617597Y-23636418D01*
X7675000Y-23625000D01*
X7975000Y-23625000D01*
X8032403Y-23636418D01*
G37*
G36*
X9302403Y-23636418D02*
G01*
X9351066Y-23668934D01*
X9383582Y-23717597D01*
X9395000Y-23775000D01*
X9395000Y-25525000D01*
X9383582Y-25582403D01*
X9351066Y-25631066D01*
X9302403Y-25663582D01*
X9245000Y-25675000D01*
X8945000Y-25675000D01*
X8887597Y-25663582D01*
X8838934Y-25631066D01*
X8806418Y-25582403D01*
X8795000Y-25525000D01*
X8795000Y-23775000D01*
X8806418Y-23717597D01*
X8838934Y-23668934D01*
X8887597Y-23636418D01*
X8945000Y-23625000D01*
X9245000Y-23625000D01*
X9302403Y-23636418D01*
G37*
G36*
X10572403Y-23636418D02*
G01*
X10621066Y-23668934D01*
X10653582Y-23717597D01*
X10665000Y-23775000D01*
X10665000Y-25525000D01*
X10653582Y-25582403D01*
X10621066Y-25631066D01*
X10572403Y-25663582D01*
X10515000Y-25675000D01*
X10215000Y-25675000D01*
X10157597Y-25663582D01*
X10108934Y-25631066D01*
X10076418Y-25582403D01*
X10065000Y-25525000D01*
X10065000Y-23775000D01*
X10076418Y-23717597D01*
X10108934Y-23668934D01*
X10157597Y-23636418D01*
X10215000Y-23625000D01*
X10515000Y-23625000D01*
X10572403Y-23636418D01*
G37*
G36*
X11842403Y-23636418D02*
G01*
X11891066Y-23668934D01*
X11923582Y-23717597D01*
X11935000Y-23775000D01*
X11935000Y-25525000D01*
X11923582Y-25582403D01*
X11891066Y-25631066D01*
X11842403Y-25663582D01*
X11785000Y-25675000D01*
X11485000Y-25675000D01*
X11427597Y-25663582D01*
X11378934Y-25631066D01*
X11346418Y-25582403D01*
X11335000Y-25525000D01*
X11335000Y-23775000D01*
X11346418Y-23717597D01*
X11378934Y-23668934D01*
X11427597Y-23636418D01*
X11485000Y-23625000D01*
X11785000Y-23625000D01*
X11842403Y-23636418D01*
G37*
G36*
X13112403Y-23636418D02*
G01*
X13161066Y-23668934D01*
X13193582Y-23717597D01*
X13205000Y-23775000D01*
X13205000Y-25525000D01*
X13193582Y-25582403D01*
X13161066Y-25631066D01*
X13112403Y-25663582D01*
X13055000Y-25675000D01*
X12755000Y-25675000D01*
X12697597Y-25663582D01*
X12648934Y-25631066D01*
X12616418Y-25582403D01*
X12605000Y-25525000D01*
X12605000Y-23775000D01*
X12616418Y-23717597D01*
X12648934Y-23668934D01*
X12697597Y-23636418D01*
X12755000Y-23625000D01*
X13055000Y-23625000D01*
X13112403Y-23636418D01*
G37*
G36*
X14382403Y-23636418D02*
G01*
X14431066Y-23668934D01*
X14463582Y-23717597D01*
X14475000Y-23775000D01*
X14475000Y-25525000D01*
X14463582Y-25582403D01*
X14431066Y-25631066D01*
X14382403Y-25663582D01*
X14325000Y-25675000D01*
X14025000Y-25675000D01*
X13967597Y-25663582D01*
X13918934Y-25631066D01*
X13886418Y-25582403D01*
X13875000Y-25525000D01*
X13875000Y-23775000D01*
X13886418Y-23717597D01*
X13918934Y-23668934D01*
X13967597Y-23636418D01*
X14025000Y-23625000D01*
X14325000Y-23625000D01*
X14382403Y-23636418D01*
G37*
G36*
X15652403Y-23636418D02*
G01*
X15701066Y-23668934D01*
X15733582Y-23717597D01*
X15745000Y-23775000D01*
X15745000Y-25525000D01*
X15733582Y-25582403D01*
X15701066Y-25631066D01*
X15652403Y-25663582D01*
X15595000Y-25675000D01*
X15295000Y-25675000D01*
X15237597Y-25663582D01*
X15188934Y-25631066D01*
X15156418Y-25582403D01*
X15145000Y-25525000D01*
X15145000Y-23775000D01*
X15156418Y-23717597D01*
X15188934Y-23668934D01*
X15237597Y-23636418D01*
X15295000Y-23625000D01*
X15595000Y-23625000D01*
X15652403Y-23636418D01*
G37*
G36*
X16922403Y-23636418D02*
G01*
X16971066Y-23668934D01*
X17003582Y-23717597D01*
X17015000Y-23775000D01*
X17015000Y-25525000D01*
X17003582Y-25582403D01*
X16971066Y-25631066D01*
X16922403Y-25663582D01*
X16865000Y-25675000D01*
X16565000Y-25675000D01*
X16507597Y-25663582D01*
X16458934Y-25631066D01*
X16426418Y-25582403D01*
X16415000Y-25525000D01*
X16415000Y-23775000D01*
X16426418Y-23717597D01*
X16458934Y-23668934D01*
X16507597Y-23636418D01*
X16565000Y-23625000D01*
X16865000Y-23625000D01*
X16922403Y-23636418D01*
G37*
G36*
X30620985Y-20481661D02*
G01*
X30649372Y-20500628D01*
X30668339Y-20529015D01*
X30675000Y-20562500D01*
X30675000Y-20737500D01*
X30668339Y-20770985D01*
X30649372Y-20799372D01*
X30620985Y-20818339D01*
X30587500Y-20825000D01*
X29737500Y-20825000D01*
X29704015Y-20818339D01*
X29675628Y-20799372D01*
X29656661Y-20770985D01*
X29650000Y-20737500D01*
X29650000Y-20562500D01*
X29656661Y-20529015D01*
X29675628Y-20500628D01*
X29704015Y-20481661D01*
X29737500Y-20475000D01*
X30587500Y-20475000D01*
X30620985Y-20481661D01*
G37*
G36*
X32295985Y-20481661D02*
G01*
X32324372Y-20500628D01*
X32343339Y-20529015D01*
X32350000Y-20562500D01*
X32350000Y-20737500D01*
X32343339Y-20770985D01*
X32324372Y-20799372D01*
X32295985Y-20818339D01*
X32262500Y-20825000D01*
X31412500Y-20825000D01*
X31379015Y-20818339D01*
X31350628Y-20799372D01*
X31331661Y-20770985D01*
X31325000Y-20737500D01*
X31325000Y-20562500D01*
X31331661Y-20529015D01*
X31350628Y-20500628D01*
X31379015Y-20481661D01*
X31412500Y-20475000D01*
X32262500Y-20475000D01*
X32295985Y-20481661D01*
G37*
G36*
X50620985Y-20481661D02*
G01*
X50649372Y-20500628D01*
X50668339Y-20529015D01*
X50675000Y-20562500D01*
X50675000Y-20737500D01*
X50668339Y-20770985D01*
X50649372Y-20799372D01*
X50620985Y-20818339D01*
X50587500Y-20825000D01*
X49737500Y-20825000D01*
X49704015Y-20818339D01*
X49675628Y-20799372D01*
X49656661Y-20770985D01*
X49650000Y-20737500D01*
X49650000Y-20562500D01*
X49656661Y-20529015D01*
X49675628Y-20500628D01*
X49704015Y-20481661D01*
X49737500Y-20475000D01*
X50587500Y-20475000D01*
X50620985Y-20481661D01*
G37*
G36*
X52295985Y-20481661D02*
G01*
X52324372Y-20500628D01*
X52343339Y-20529015D01*
X52350000Y-20562500D01*
X52350000Y-20737500D01*
X52343339Y-20770985D01*
X52324372Y-20799372D01*
X52295985Y-20818339D01*
X52262500Y-20825000D01*
X51412500Y-20825000D01*
X51379015Y-20818339D01*
X51350628Y-20799372D01*
X51331661Y-20770985D01*
X51325000Y-20737500D01*
X51325000Y-20562500D01*
X51331661Y-20529015D01*
X51350628Y-20500628D01*
X51379015Y-20481661D01*
X51412500Y-20475000D01*
X52262500Y-20475000D01*
X52295985Y-20481661D01*
G37*
G36*
X70620985Y-20481661D02*
G01*
X70649372Y-20500628D01*
X70668339Y-20529015D01*
X70675000Y-20562500D01*
X70675000Y-20737500D01*
X70668339Y-20770985D01*
X70649372Y-20799372D01*
X70620985Y-20818339D01*
X70587500Y-20825000D01*
X69737500Y-20825000D01*
X69704015Y-20818339D01*
X69675628Y-20799372D01*
X69656661Y-20770985D01*
X69650000Y-20737500D01*
X69650000Y-20562500D01*
X69656661Y-20529015D01*
X69675628Y-20500628D01*
X69704015Y-20481661D01*
X69737500Y-20475000D01*
X70587500Y-20475000D01*
X70620985Y-20481661D01*
G37*
G36*
X72295985Y-20481661D02*
G01*
X72324372Y-20500628D01*
X72343339Y-20529015D01*
X72350000Y-20562500D01*
X72350000Y-20737500D01*
X72343339Y-20770985D01*
X72324372Y-20799372D01*
X72295985Y-20818339D01*
X72262500Y-20825000D01*
X71412500Y-20825000D01*
X71379015Y-20818339D01*
X71350628Y-20799372D01*
X71331661Y-20770985D01*
X71325000Y-20737500D01*
X71325000Y-20562500D01*
X71331661Y-20529015D01*
X71350628Y-20500628D01*
X71379015Y-20481661D01*
X71412500Y-20475000D01*
X72262500Y-20475000D01*
X72295985Y-20481661D01*
G37*
G36*
X30620985Y-19831661D02*
G01*
X30649372Y-19850628D01*
X30668339Y-19879015D01*
X30675000Y-19912500D01*
X30675000Y-20087500D01*
X30668339Y-20120985D01*
X30649372Y-20149372D01*
X30620985Y-20168339D01*
X30587500Y-20175000D01*
X29737500Y-20175000D01*
X29704015Y-20168339D01*
X29675628Y-20149372D01*
X29656661Y-20120985D01*
X29650000Y-20087500D01*
X29650000Y-19912500D01*
X29656661Y-19879015D01*
X29675628Y-19850628D01*
X29704015Y-19831661D01*
X29737500Y-19825000D01*
X30587500Y-19825000D01*
X30620985Y-19831661D01*
G37*
G36*
X32295985Y-19831661D02*
G01*
X32324372Y-19850628D01*
X32343339Y-19879015D01*
X32350000Y-19912500D01*
X32350000Y-20087500D01*
X32343339Y-20120985D01*
X32324372Y-20149372D01*
X32295985Y-20168339D01*
X32262500Y-20175000D01*
X31412500Y-20175000D01*
X31379015Y-20168339D01*
X31350628Y-20149372D01*
X31331661Y-20120985D01*
X31325000Y-20087500D01*
X31325000Y-19912500D01*
X31331661Y-19879015D01*
X31350628Y-19850628D01*
X31379015Y-19831661D01*
X31412500Y-19825000D01*
X32262500Y-19825000D01*
X32295985Y-19831661D01*
G37*
G36*
X50620985Y-19831661D02*
G01*
X50649372Y-19850628D01*
X50668339Y-19879015D01*
X50675000Y-19912500D01*
X50675000Y-20087500D01*
X50668339Y-20120985D01*
X50649372Y-20149372D01*
X50620985Y-20168339D01*
X50587500Y-20175000D01*
X49737500Y-20175000D01*
X49704015Y-20168339D01*
X49675628Y-20149372D01*
X49656661Y-20120985D01*
X49650000Y-20087500D01*
X49650000Y-19912500D01*
X49656661Y-19879015D01*
X49675628Y-19850628D01*
X49704015Y-19831661D01*
X49737500Y-19825000D01*
X50587500Y-19825000D01*
X50620985Y-19831661D01*
G37*
G36*
X52295985Y-19831661D02*
G01*
X52324372Y-19850628D01*
X52343339Y-19879015D01*
X52350000Y-19912500D01*
X52350000Y-20087500D01*
X52343339Y-20120985D01*
X52324372Y-20149372D01*
X52295985Y-20168339D01*
X52262500Y-20175000D01*
X51412500Y-20175000D01*
X51379015Y-20168339D01*
X51350628Y-20149372D01*
X51331661Y-20120985D01*
X51325000Y-20087500D01*
X51325000Y-19912500D01*
X51331661Y-19879015D01*
X51350628Y-19850628D01*
X51379015Y-19831661D01*
X51412500Y-19825000D01*
X52262500Y-19825000D01*
X52295985Y-19831661D01*
G37*
G36*
X70620985Y-19831661D02*
G01*
X70649372Y-19850628D01*
X70668339Y-19879015D01*
X70675000Y-19912500D01*
X70675000Y-20087500D01*
X70668339Y-20120985D01*
X70649372Y-20149372D01*
X70620985Y-20168339D01*
X70587500Y-20175000D01*
X69737500Y-20175000D01*
X69704015Y-20168339D01*
X69675628Y-20149372D01*
X69656661Y-20120985D01*
X69650000Y-20087500D01*
X69650000Y-19912500D01*
X69656661Y-19879015D01*
X69675628Y-19850628D01*
X69704015Y-19831661D01*
X69737500Y-19825000D01*
X70587500Y-19825000D01*
X70620985Y-19831661D01*
G37*
G36*
X72295985Y-19831661D02*
G01*
X72324372Y-19850628D01*
X72343339Y-19879015D01*
X72350000Y-19912500D01*
X72350000Y-20087500D01*
X72343339Y-20120985D01*
X72324372Y-20149372D01*
X72295985Y-20168339D01*
X72262500Y-20175000D01*
X71412500Y-20175000D01*
X71379015Y-20168339D01*
X71350628Y-20149372D01*
X71331661Y-20120985D01*
X71325000Y-20087500D01*
X71325000Y-19912500D01*
X71331661Y-19879015D01*
X71350628Y-19850628D01*
X71379015Y-19831661D01*
X71412500Y-19825000D01*
X72262500Y-19825000D01*
X72295985Y-19831661D01*
G37*
G36*
X30620985Y-19181661D02*
G01*
X30649372Y-19200628D01*
X30668339Y-19229015D01*
X30675000Y-19262500D01*
X30675000Y-19437500D01*
X30668339Y-19470985D01*
X30649372Y-19499372D01*
X30620985Y-19518339D01*
X30587500Y-19525000D01*
X29737500Y-19525000D01*
X29704015Y-19518339D01*
X29675628Y-19499372D01*
X29656661Y-19470985D01*
X29650000Y-19437500D01*
X29650000Y-19262500D01*
X29656661Y-19229015D01*
X29675628Y-19200628D01*
X29704015Y-19181661D01*
X29737500Y-19175000D01*
X30587500Y-19175000D01*
X30620985Y-19181661D01*
G37*
G36*
X32295985Y-19181661D02*
G01*
X32324372Y-19200628D01*
X32343339Y-19229015D01*
X32350000Y-19262500D01*
X32350000Y-19437500D01*
X32343339Y-19470985D01*
X32324372Y-19499372D01*
X32295985Y-19518339D01*
X32262500Y-19525000D01*
X31412500Y-19525000D01*
X31379015Y-19518339D01*
X31350628Y-19499372D01*
X31331661Y-19470985D01*
X31325000Y-19437500D01*
X31325000Y-19262500D01*
X31331661Y-19229015D01*
X31350628Y-19200628D01*
X31379015Y-19181661D01*
X31412500Y-19175000D01*
X32262500Y-19175000D01*
X32295985Y-19181661D01*
G37*
G36*
X50620985Y-19181661D02*
G01*
X50649372Y-19200628D01*
X50668339Y-19229015D01*
X50675000Y-19262500D01*
X50675000Y-19437500D01*
X50668339Y-19470985D01*
X50649372Y-19499372D01*
X50620985Y-19518339D01*
X50587500Y-19525000D01*
X49737500Y-19525000D01*
X49704015Y-19518339D01*
X49675628Y-19499372D01*
X49656661Y-19470985D01*
X49650000Y-19437500D01*
X49650000Y-19262500D01*
X49656661Y-19229015D01*
X49675628Y-19200628D01*
X49704015Y-19181661D01*
X49737500Y-19175000D01*
X50587500Y-19175000D01*
X50620985Y-19181661D01*
G37*
G36*
X52295985Y-19181661D02*
G01*
X52324372Y-19200628D01*
X52343339Y-19229015D01*
X52350000Y-19262500D01*
X52350000Y-19437500D01*
X52343339Y-19470985D01*
X52324372Y-19499372D01*
X52295985Y-19518339D01*
X52262500Y-19525000D01*
X51412500Y-19525000D01*
X51379015Y-19518339D01*
X51350628Y-19499372D01*
X51331661Y-19470985D01*
X51325000Y-19437500D01*
X51325000Y-19262500D01*
X51331661Y-19229015D01*
X51350628Y-19200628D01*
X51379015Y-19181661D01*
X51412500Y-19175000D01*
X52262500Y-19175000D01*
X52295985Y-19181661D01*
G37*
G36*
X70620985Y-19181661D02*
G01*
X70649372Y-19200628D01*
X70668339Y-19229015D01*
X70675000Y-19262500D01*
X70675000Y-19437500D01*
X70668339Y-19470985D01*
X70649372Y-19499372D01*
X70620985Y-19518339D01*
X70587500Y-19525000D01*
X69737500Y-19525000D01*
X69704015Y-19518339D01*
X69675628Y-19499372D01*
X69656661Y-19470985D01*
X69650000Y-19437500D01*
X69650000Y-19262500D01*
X69656661Y-19229015D01*
X69675628Y-19200628D01*
X69704015Y-19181661D01*
X69737500Y-19175000D01*
X70587500Y-19175000D01*
X70620985Y-19181661D01*
G37*
G36*
X72295985Y-19181661D02*
G01*
X72324372Y-19200628D01*
X72343339Y-19229015D01*
X72350000Y-19262500D01*
X72350000Y-19437500D01*
X72343339Y-19470985D01*
X72324372Y-19499372D01*
X72295985Y-19518339D01*
X72262500Y-19525000D01*
X71412500Y-19525000D01*
X71379015Y-19518339D01*
X71350628Y-19499372D01*
X71331661Y-19470985D01*
X71325000Y-19437500D01*
X71325000Y-19262500D01*
X71331661Y-19229015D01*
X71350628Y-19200628D01*
X71379015Y-19181661D01*
X71412500Y-19175000D01*
X72262500Y-19175000D01*
X72295985Y-19181661D01*
G37*
G36*
X5492403Y-14336418D02*
G01*
X5541066Y-14368934D01*
X5573582Y-14417597D01*
X5585000Y-14475000D01*
X5585000Y-16225000D01*
X5573582Y-16282403D01*
X5541066Y-16331066D01*
X5492403Y-16363582D01*
X5435000Y-16375000D01*
X5135000Y-16375000D01*
X5077597Y-16363582D01*
X5028934Y-16331066D01*
X4996418Y-16282403D01*
X4985000Y-16225000D01*
X4985000Y-14475000D01*
X4996418Y-14417597D01*
X5028934Y-14368934D01*
X5077597Y-14336418D01*
X5135000Y-14325000D01*
X5435000Y-14325000D01*
X5492403Y-14336418D01*
G37*
G36*
X6762403Y-14336418D02*
G01*
X6811066Y-14368934D01*
X6843582Y-14417597D01*
X6855000Y-14475000D01*
X6855000Y-16225000D01*
X6843582Y-16282403D01*
X6811066Y-16331066D01*
X6762403Y-16363582D01*
X6705000Y-16375000D01*
X6405000Y-16375000D01*
X6347597Y-16363582D01*
X6298934Y-16331066D01*
X6266418Y-16282403D01*
X6255000Y-16225000D01*
X6255000Y-14475000D01*
X6266418Y-14417597D01*
X6298934Y-14368934D01*
X6347597Y-14336418D01*
X6405000Y-14325000D01*
X6705000Y-14325000D01*
X6762403Y-14336418D01*
G37*
G36*
X8032403Y-14336418D02*
G01*
X8081066Y-14368934D01*
X8113582Y-14417597D01*
X8125000Y-14475000D01*
X8125000Y-16225000D01*
X8113582Y-16282403D01*
X8081066Y-16331066D01*
X8032403Y-16363582D01*
X7975000Y-16375000D01*
X7675000Y-16375000D01*
X7617597Y-16363582D01*
X7568934Y-16331066D01*
X7536418Y-16282403D01*
X7525000Y-16225000D01*
X7525000Y-14475000D01*
X7536418Y-14417597D01*
X7568934Y-14368934D01*
X7617597Y-14336418D01*
X7675000Y-14325000D01*
X7975000Y-14325000D01*
X8032403Y-14336418D01*
G37*
G36*
X9302403Y-14336418D02*
G01*
X9351066Y-14368934D01*
X9383582Y-14417597D01*
X9395000Y-14475000D01*
X9395000Y-16225000D01*
X9383582Y-16282403D01*
X9351066Y-16331066D01*
X9302403Y-16363582D01*
X9245000Y-16375000D01*
X8945000Y-16375000D01*
X8887597Y-16363582D01*
X8838934Y-16331066D01*
X8806418Y-16282403D01*
X8795000Y-16225000D01*
X8795000Y-14475000D01*
X8806418Y-14417597D01*
X8838934Y-14368934D01*
X8887597Y-14336418D01*
X8945000Y-14325000D01*
X9245000Y-14325000D01*
X9302403Y-14336418D01*
G37*
G36*
X10572403Y-14336418D02*
G01*
X10621066Y-14368934D01*
X10653582Y-14417597D01*
X10665000Y-14475000D01*
X10665000Y-16225000D01*
X10653582Y-16282403D01*
X10621066Y-16331066D01*
X10572403Y-16363582D01*
X10515000Y-16375000D01*
X10215000Y-16375000D01*
X10157597Y-16363582D01*
X10108934Y-16331066D01*
X10076418Y-16282403D01*
X10065000Y-16225000D01*
X10065000Y-14475000D01*
X10076418Y-14417597D01*
X10108934Y-14368934D01*
X10157597Y-14336418D01*
X10215000Y-14325000D01*
X10515000Y-14325000D01*
X10572403Y-14336418D01*
G37*
G36*
X11842403Y-14336418D02*
G01*
X11891066Y-14368934D01*
X11923582Y-14417597D01*
X11935000Y-14475000D01*
X11935000Y-16225000D01*
X11923582Y-16282403D01*
X11891066Y-16331066D01*
X11842403Y-16363582D01*
X11785000Y-16375000D01*
X11485000Y-16375000D01*
X11427597Y-16363582D01*
X11378934Y-16331066D01*
X11346418Y-16282403D01*
X11335000Y-16225000D01*
X11335000Y-14475000D01*
X11346418Y-14417597D01*
X11378934Y-14368934D01*
X11427597Y-14336418D01*
X11485000Y-14325000D01*
X11785000Y-14325000D01*
X11842403Y-14336418D01*
G37*
G36*
X13112403Y-14336418D02*
G01*
X13161066Y-14368934D01*
X13193582Y-14417597D01*
X13205000Y-14475000D01*
X13205000Y-16225000D01*
X13193582Y-16282403D01*
X13161066Y-16331066D01*
X13112403Y-16363582D01*
X13055000Y-16375000D01*
X12755000Y-16375000D01*
X12697597Y-16363582D01*
X12648934Y-16331066D01*
X12616418Y-16282403D01*
X12605000Y-16225000D01*
X12605000Y-14475000D01*
X12616418Y-14417597D01*
X12648934Y-14368934D01*
X12697597Y-14336418D01*
X12755000Y-14325000D01*
X13055000Y-14325000D01*
X13112403Y-14336418D01*
G37*
G36*
X14382403Y-14336418D02*
G01*
X14431066Y-14368934D01*
X14463582Y-14417597D01*
X14475000Y-14475000D01*
X14475000Y-16225000D01*
X14463582Y-16282403D01*
X14431066Y-16331066D01*
X14382403Y-16363582D01*
X14325000Y-16375000D01*
X14025000Y-16375000D01*
X13967597Y-16363582D01*
X13918934Y-16331066D01*
X13886418Y-16282403D01*
X13875000Y-16225000D01*
X13875000Y-14475000D01*
X13886418Y-14417597D01*
X13918934Y-14368934D01*
X13967597Y-14336418D01*
X14025000Y-14325000D01*
X14325000Y-14325000D01*
X14382403Y-14336418D01*
G37*
G36*
X15652403Y-14336418D02*
G01*
X15701066Y-14368934D01*
X15733582Y-14417597D01*
X15745000Y-14475000D01*
X15745000Y-16225000D01*
X15733582Y-16282403D01*
X15701066Y-16331066D01*
X15652403Y-16363582D01*
X15595000Y-16375000D01*
X15295000Y-16375000D01*
X15237597Y-16363582D01*
X15188934Y-16331066D01*
X15156418Y-16282403D01*
X15145000Y-16225000D01*
X15145000Y-14475000D01*
X15156418Y-14417597D01*
X15188934Y-14368934D01*
X15237597Y-14336418D01*
X15295000Y-14325000D01*
X15595000Y-14325000D01*
X15652403Y-14336418D01*
G37*
G36*
X16922403Y-14336418D02*
G01*
X16971066Y-14368934D01*
X17003582Y-14417597D01*
X17015000Y-14475000D01*
X17015000Y-16225000D01*
X17003582Y-16282403D01*
X16971066Y-16331066D01*
X16922403Y-16363582D01*
X16865000Y-16375000D01*
X16565000Y-16375000D01*
X16507597Y-16363582D01*
X16458934Y-16331066D01*
X16426418Y-16282403D01*
X16415000Y-16225000D01*
X16415000Y-14475000D01*
X16426418Y-14417597D01*
X16458934Y-14368934D01*
X16507597Y-14336418D01*
X16565000Y-14325000D01*
X16865000Y-14325000D01*
X16922403Y-14336418D01*
G37*
G36*
X9957403Y-5111418D02*
G01*
X10006066Y-5143934D01*
X10038582Y-5192597D01*
X10050000Y-5250000D01*
X10050000Y-6650000D01*
X10038582Y-6707403D01*
X10006066Y-6756066D01*
X9957403Y-6788582D01*
X9900000Y-6800000D01*
X9600000Y-6800000D01*
X9542597Y-6788582D01*
X9493934Y-6756066D01*
X9461418Y-6707403D01*
X9450000Y-6650000D01*
X9450000Y-5250000D01*
X9461418Y-5192597D01*
X9493934Y-5143934D01*
X9542597Y-5111418D01*
X9600000Y-5100000D01*
X9900000Y-5100000D01*
X9957403Y-5111418D01*
G37*
G36*
X11207403Y-5111418D02*
G01*
X11256066Y-5143934D01*
X11288582Y-5192597D01*
X11300000Y-5250000D01*
X11300000Y-6650000D01*
X11288582Y-6707403D01*
X11256066Y-6756066D01*
X11207403Y-6788582D01*
X11150000Y-6800000D01*
X10850000Y-6800000D01*
X10792597Y-6788582D01*
X10743934Y-6756066D01*
X10711418Y-6707403D01*
X10700000Y-6650000D01*
X10700000Y-5250000D01*
X10711418Y-5192597D01*
X10743934Y-5143934D01*
X10792597Y-5111418D01*
X10850000Y-5100000D01*
X11150000Y-5100000D01*
X11207403Y-5111418D01*
G37*
G36*
X12457403Y-5111418D02*
G01*
X12506066Y-5143934D01*
X12538582Y-5192597D01*
X12550000Y-5250000D01*
X12550000Y-6650000D01*
X12538582Y-6707403D01*
X12506066Y-6756066D01*
X12457403Y-6788582D01*
X12400000Y-6800000D01*
X12100000Y-6800000D01*
X12042597Y-6788582D01*
X11993934Y-6756066D01*
X11961418Y-6707403D01*
X11950000Y-6650000D01*
X11950000Y-5250000D01*
X11961418Y-5192597D01*
X11993934Y-5143934D01*
X12042597Y-5111418D01*
X12100000Y-5100000D01*
X12400000Y-5100000D01*
X12457403Y-5111418D01*
G37*
G36*
X30582403Y-5111418D02*
G01*
X30631066Y-5143934D01*
X30663582Y-5192597D01*
X30675000Y-5250000D01*
X30675000Y-6650000D01*
X30663582Y-6707403D01*
X30631066Y-6756066D01*
X30582403Y-6788582D01*
X30525000Y-6800000D01*
X30225000Y-6800000D01*
X30167597Y-6788582D01*
X30118934Y-6756066D01*
X30086418Y-6707403D01*
X30075000Y-6650000D01*
X30075000Y-5250000D01*
X30086418Y-5192597D01*
X30118934Y-5143934D01*
X30167597Y-5111418D01*
X30225000Y-5100000D01*
X30525000Y-5100000D01*
X30582403Y-5111418D01*
G37*
G36*
X31832403Y-5111418D02*
G01*
X31881066Y-5143934D01*
X31913582Y-5192597D01*
X31925000Y-5250000D01*
X31925000Y-6650000D01*
X31913582Y-6707403D01*
X31881066Y-6756066D01*
X31832403Y-6788582D01*
X31775000Y-6800000D01*
X31475000Y-6800000D01*
X31417597Y-6788582D01*
X31368934Y-6756066D01*
X31336418Y-6707403D01*
X31325000Y-6650000D01*
X31325000Y-5250000D01*
X31336418Y-5192597D01*
X31368934Y-5143934D01*
X31417597Y-5111418D01*
X31475000Y-5100000D01*
X31775000Y-5100000D01*
X31832403Y-5111418D01*
G37*
G36*
X50582403Y-5111418D02*
G01*
X50631066Y-5143934D01*
X50663582Y-5192597D01*
X50675000Y-5250000D01*
X50675000Y-6650000D01*
X50663582Y-6707403D01*
X50631066Y-6756066D01*
X50582403Y-6788582D01*
X50525000Y-6800000D01*
X50225000Y-6800000D01*
X50167597Y-6788582D01*
X50118934Y-6756066D01*
X50086418Y-6707403D01*
X50075000Y-6650000D01*
X50075000Y-5250000D01*
X50086418Y-5192597D01*
X50118934Y-5143934D01*
X50167597Y-5111418D01*
X50225000Y-5100000D01*
X50525000Y-5100000D01*
X50582403Y-5111418D01*
G37*
G36*
X51832403Y-5111418D02*
G01*
X51881066Y-5143934D01*
X51913582Y-5192597D01*
X51925000Y-5250000D01*
X51925000Y-6650000D01*
X51913582Y-6707403D01*
X51881066Y-6756066D01*
X51832403Y-6788582D01*
X51775000Y-6800000D01*
X51475000Y-6800000D01*
X51417597Y-6788582D01*
X51368934Y-6756066D01*
X51336418Y-6707403D01*
X51325000Y-6650000D01*
X51325000Y-5250000D01*
X51336418Y-5192597D01*
X51368934Y-5143934D01*
X51417597Y-5111418D01*
X51475000Y-5100000D01*
X51775000Y-5100000D01*
X51832403Y-5111418D01*
G37*
G36*
X70582403Y-5111418D02*
G01*
X70631066Y-5143934D01*
X70663582Y-5192597D01*
X70675000Y-5250000D01*
X70675000Y-6650000D01*
X70663582Y-6707403D01*
X70631066Y-6756066D01*
X70582403Y-6788582D01*
X70525000Y-6800000D01*
X70225000Y-6800000D01*
X70167597Y-6788582D01*
X70118934Y-6756066D01*
X70086418Y-6707403D01*
X70075000Y-6650000D01*
X70075000Y-5250000D01*
X70086418Y-5192597D01*
X70118934Y-5143934D01*
X70167597Y-5111418D01*
X70225000Y-5100000D01*
X70525000Y-5100000D01*
X70582403Y-5111418D01*
G37*
G36*
X71832403Y-5111418D02*
G01*
X71881066Y-5143934D01*
X71913582Y-5192597D01*
X71925000Y-5250000D01*
X71925000Y-6650000D01*
X71913582Y-6707403D01*
X71881066Y-6756066D01*
X71832403Y-6788582D01*
X71775000Y-6800000D01*
X71475000Y-6800000D01*
X71417597Y-6788582D01*
X71368934Y-6756066D01*
X71336418Y-6707403D01*
X71325000Y-6650000D01*
X71325000Y-5250000D01*
X71336418Y-5192597D01*
X71368934Y-5143934D01*
X71417597Y-5111418D01*
X71475000Y-5100000D01*
X71775000Y-5100000D01*
X71832403Y-5111418D01*
G37*
G36*
X3815151Y-2187301D02*
G01*
X4016623Y-2252763D01*
X4205373Y-2348936D01*
X4376755Y-2473452D01*
X4526548Y-2623245D01*
X4651064Y-2794627D01*
X4747237Y-2983377D01*
X4812699Y-3184849D01*
X4845838Y-3394080D01*
X4845838Y-3605920D01*
X4812699Y-3815151D01*
X4747237Y-4016623D01*
X4651064Y-4205373D01*
X4526548Y-4376755D01*
X4376755Y-4526548D01*
X4205373Y-4651064D01*
X4016623Y-4747237D01*
X3815151Y-4812699D01*
X3605920Y-4845838D01*
X3394080Y-4845838D01*
X3184849Y-4812699D01*
X2983377Y-4747237D01*
X2794627Y-4651064D01*
X2623245Y-4526548D01*
X2473452Y-4376755D01*
X2348936Y-4205373D01*
X2252763Y-4016623D01*
X2187301Y-3815151D01*
X2154162Y-3605920D01*
X2154162Y-3394080D01*
X2187301Y-3184849D01*
X2252763Y-2983377D01*
X2348936Y-2794627D01*
X2473452Y-2623245D01*
X2623245Y-2473452D01*
X2794627Y-2348936D01*
X2983377Y-2252763D01*
X3184849Y-2187301D01*
X3394080Y-2154162D01*
X3605920Y-2154162D01*
X3815151Y-2187301D01*
G37*
G36*
X78815151Y-2187301D02*
G01*
X79016623Y-2252763D01*
X79205373Y-2348936D01*
X79376755Y-2473452D01*
X79526548Y-2623245D01*
X79651064Y-2794627D01*
X79747237Y-2983377D01*
X79812699Y-3184849D01*
X79845838Y-3394080D01*
X79845838Y-3605920D01*
X79812699Y-3815151D01*
X79747237Y-4016623D01*
X79651064Y-4205373D01*
X79526548Y-4376755D01*
X79376755Y-4526548D01*
X79205373Y-4651064D01*
X79016623Y-4747237D01*
X78815151Y-4812699D01*
X78605920Y-4845838D01*
X78394080Y-4845838D01*
X78184849Y-4812699D01*
X77983377Y-4747237D01*
X77794627Y-4651064D01*
X77623245Y-4526548D01*
X77473452Y-4376755D01*
X77348936Y-4205373D01*
X77252763Y-4016623D01*
X77187301Y-3815151D01*
X77154162Y-3605920D01*
X77154162Y-3394080D01*
X77187301Y-3184849D01*
X77252763Y-2983377D01*
X77348936Y-2794627D01*
X77473452Y-2623245D01*
X77623245Y-2473452D01*
X77794627Y-2348936D01*
X77983377Y-2252763D01*
X78184849Y-2187301D01*
X78394080Y-2154162D01*
X78605920Y-2154162D01*
X78815151Y-2187301D01*
G37*
G36*
X8154047Y-1200805D02*
G01*
X8205408Y-1206764D01*
X8222954Y-1214511D01*
X8245671Y-1219030D01*
X8269991Y-1235280D01*
X8290793Y-1244465D01*
X8305000Y-1258672D01*
X8326777Y-1273223D01*
X8341327Y-1294999D01*
X8355534Y-1309206D01*
X8364718Y-1330006D01*
X8380970Y-1354329D01*
X8385489Y-1377048D01*
X8393235Y-1394591D01*
X8399192Y-1445940D01*
X8400000Y-1450000D01*
X8400000Y-3750000D01*
X8399192Y-3754059D01*
X8393235Y-3805408D01*
X8385489Y-3822950D01*
X8380970Y-3845671D01*
X8364716Y-3869995D01*
X8355534Y-3890793D01*
X8341329Y-3904997D01*
X8326777Y-3926777D01*
X8304997Y-3941329D01*
X8290793Y-3955534D01*
X8269995Y-3964716D01*
X8245671Y-3980970D01*
X8222950Y-3985489D01*
X8205408Y-3993235D01*
X8154061Y-3999192D01*
X8150000Y-4000000D01*
X7650000Y-4000000D01*
X7645941Y-3999192D01*
X7594591Y-3993235D01*
X7577048Y-3985489D01*
X7554329Y-3980970D01*
X7530006Y-3964718D01*
X7509206Y-3955534D01*
X7494999Y-3941327D01*
X7473223Y-3926777D01*
X7458672Y-3905000D01*
X7444465Y-3890793D01*
X7435280Y-3869991D01*
X7419030Y-3845671D01*
X7414511Y-3822954D01*
X7406764Y-3805408D01*
X7400805Y-3754049D01*
X7400000Y-3750000D01*
X7400000Y-1450000D01*
X7400804Y-1445953D01*
X7406764Y-1394591D01*
X7414511Y-1377043D01*
X7419030Y-1354329D01*
X7435278Y-1330010D01*
X7444465Y-1309206D01*
X7458674Y-1294996D01*
X7473223Y-1273223D01*
X7494996Y-1258674D01*
X7509206Y-1244465D01*
X7530010Y-1235278D01*
X7554329Y-1219030D01*
X7577043Y-1214511D01*
X7594591Y-1206764D01*
X7645952Y-1200805D01*
X7650000Y-1200000D01*
X8150000Y-1200000D01*
X8154047Y-1200805D01*
G37*
G36*
X14354047Y-1200805D02*
G01*
X14405408Y-1206764D01*
X14422954Y-1214511D01*
X14445671Y-1219030D01*
X14469991Y-1235280D01*
X14490793Y-1244465D01*
X14505000Y-1258672D01*
X14526777Y-1273223D01*
X14541327Y-1294999D01*
X14555534Y-1309206D01*
X14564718Y-1330006D01*
X14580970Y-1354329D01*
X14585489Y-1377048D01*
X14593235Y-1394591D01*
X14599192Y-1445940D01*
X14600000Y-1450000D01*
X14600000Y-3750000D01*
X14599192Y-3754059D01*
X14593235Y-3805408D01*
X14585489Y-3822950D01*
X14580970Y-3845671D01*
X14564716Y-3869995D01*
X14555534Y-3890793D01*
X14541329Y-3904997D01*
X14526777Y-3926777D01*
X14504997Y-3941329D01*
X14490793Y-3955534D01*
X14469995Y-3964716D01*
X14445671Y-3980970D01*
X14422950Y-3985489D01*
X14405408Y-3993235D01*
X14354061Y-3999192D01*
X14350000Y-4000000D01*
X13850000Y-4000000D01*
X13845941Y-3999192D01*
X13794591Y-3993235D01*
X13777048Y-3985489D01*
X13754329Y-3980970D01*
X13730006Y-3964718D01*
X13709206Y-3955534D01*
X13694999Y-3941327D01*
X13673223Y-3926777D01*
X13658672Y-3905000D01*
X13644465Y-3890793D01*
X13635280Y-3869991D01*
X13619030Y-3845671D01*
X13614511Y-3822954D01*
X13606764Y-3805408D01*
X13600805Y-3754049D01*
X13600000Y-3750000D01*
X13600000Y-1450000D01*
X13600804Y-1445953D01*
X13606764Y-1394591D01*
X13614511Y-1377043D01*
X13619030Y-1354329D01*
X13635278Y-1330010D01*
X13644465Y-1309206D01*
X13658674Y-1294996D01*
X13673223Y-1273223D01*
X13694996Y-1258674D01*
X13709206Y-1244465D01*
X13730010Y-1235278D01*
X13754329Y-1219030D01*
X13777043Y-1214511D01*
X13794591Y-1206764D01*
X13845952Y-1200805D01*
X13850000Y-1200000D01*
X14350000Y-1200000D01*
X14354047Y-1200805D01*
G37*
G36*
X28779047Y-1200805D02*
G01*
X28830408Y-1206764D01*
X28847954Y-1214511D01*
X28870671Y-1219030D01*
X28894991Y-1235280D01*
X28915793Y-1244465D01*
X28930000Y-1258672D01*
X28951777Y-1273223D01*
X28966327Y-1294999D01*
X28980534Y-1309206D01*
X28989718Y-1330006D01*
X29005970Y-1354329D01*
X29010489Y-1377048D01*
X29018235Y-1394591D01*
X29024192Y-1445940D01*
X29025000Y-1450000D01*
X29025000Y-3750000D01*
X29024192Y-3754059D01*
X29018235Y-3805408D01*
X29010489Y-3822950D01*
X29005970Y-3845671D01*
X28989716Y-3869995D01*
X28980534Y-3890793D01*
X28966329Y-3904997D01*
X28951777Y-3926777D01*
X28929997Y-3941329D01*
X28915793Y-3955534D01*
X28894995Y-3964716D01*
X28870671Y-3980970D01*
X28847950Y-3985489D01*
X28830408Y-3993235D01*
X28779061Y-3999192D01*
X28775000Y-4000000D01*
X28275000Y-4000000D01*
X28270941Y-3999192D01*
X28219591Y-3993235D01*
X28202048Y-3985489D01*
X28179329Y-3980970D01*
X28155006Y-3964718D01*
X28134206Y-3955534D01*
X28119999Y-3941327D01*
X28098223Y-3926777D01*
X28083672Y-3905000D01*
X28069465Y-3890793D01*
X28060280Y-3869991D01*
X28044030Y-3845671D01*
X28039511Y-3822954D01*
X28031764Y-3805408D01*
X28025805Y-3754049D01*
X28025000Y-3750000D01*
X28025000Y-1450000D01*
X28025804Y-1445953D01*
X28031764Y-1394591D01*
X28039511Y-1377043D01*
X28044030Y-1354329D01*
X28060278Y-1330010D01*
X28069465Y-1309206D01*
X28083674Y-1294996D01*
X28098223Y-1273223D01*
X28119996Y-1258674D01*
X28134206Y-1244465D01*
X28155010Y-1235278D01*
X28179329Y-1219030D01*
X28202043Y-1214511D01*
X28219591Y-1206764D01*
X28270952Y-1200805D01*
X28275000Y-1200000D01*
X28775000Y-1200000D01*
X28779047Y-1200805D01*
G37*
G36*
X33729047Y-1200805D02*
G01*
X33780408Y-1206764D01*
X33797954Y-1214511D01*
X33820671Y-1219030D01*
X33844991Y-1235280D01*
X33865793Y-1244465D01*
X33880000Y-1258672D01*
X33901777Y-1273223D01*
X33916327Y-1294999D01*
X33930534Y-1309206D01*
X33939718Y-1330006D01*
X33955970Y-1354329D01*
X33960489Y-1377048D01*
X33968235Y-1394591D01*
X33974192Y-1445940D01*
X33975000Y-1450000D01*
X33975000Y-3750000D01*
X33974192Y-3754059D01*
X33968235Y-3805408D01*
X33960489Y-3822950D01*
X33955970Y-3845671D01*
X33939716Y-3869995D01*
X33930534Y-3890793D01*
X33916329Y-3904997D01*
X33901777Y-3926777D01*
X33879997Y-3941329D01*
X33865793Y-3955534D01*
X33844995Y-3964716D01*
X33820671Y-3980970D01*
X33797950Y-3985489D01*
X33780408Y-3993235D01*
X33729061Y-3999192D01*
X33725000Y-4000000D01*
X33225000Y-4000000D01*
X33220941Y-3999192D01*
X33169591Y-3993235D01*
X33152048Y-3985489D01*
X33129329Y-3980970D01*
X33105006Y-3964718D01*
X33084206Y-3955534D01*
X33069999Y-3941327D01*
X33048223Y-3926777D01*
X33033672Y-3905000D01*
X33019465Y-3890793D01*
X33010280Y-3869991D01*
X32994030Y-3845671D01*
X32989511Y-3822954D01*
X32981764Y-3805408D01*
X32975805Y-3754049D01*
X32975000Y-3750000D01*
X32975000Y-1450000D01*
X32975804Y-1445953D01*
X32981764Y-1394591D01*
X32989511Y-1377043D01*
X32994030Y-1354329D01*
X33010278Y-1330010D01*
X33019465Y-1309206D01*
X33033674Y-1294996D01*
X33048223Y-1273223D01*
X33069996Y-1258674D01*
X33084206Y-1244465D01*
X33105010Y-1235278D01*
X33129329Y-1219030D01*
X33152043Y-1214511D01*
X33169591Y-1206764D01*
X33220952Y-1200805D01*
X33225000Y-1200000D01*
X33725000Y-1200000D01*
X33729047Y-1200805D01*
G37*
G36*
X48779047Y-1200805D02*
G01*
X48830408Y-1206764D01*
X48847954Y-1214511D01*
X48870671Y-1219030D01*
X48894991Y-1235280D01*
X48915793Y-1244465D01*
X48930000Y-1258672D01*
X48951777Y-1273223D01*
X48966327Y-1294999D01*
X48980534Y-1309206D01*
X48989718Y-1330006D01*
X49005970Y-1354329D01*
X49010489Y-1377048D01*
X49018235Y-1394591D01*
X49024192Y-1445940D01*
X49025000Y-1450000D01*
X49025000Y-3750000D01*
X49024192Y-3754059D01*
X49018235Y-3805408D01*
X49010489Y-3822950D01*
X49005970Y-3845671D01*
X48989716Y-3869995D01*
X48980534Y-3890793D01*
X48966329Y-3904997D01*
X48951777Y-3926777D01*
X48929997Y-3941329D01*
X48915793Y-3955534D01*
X48894995Y-3964716D01*
X48870671Y-3980970D01*
X48847950Y-3985489D01*
X48830408Y-3993235D01*
X48779061Y-3999192D01*
X48775000Y-4000000D01*
X48275000Y-4000000D01*
X48270941Y-3999192D01*
X48219591Y-3993235D01*
X48202048Y-3985489D01*
X48179329Y-3980970D01*
X48155006Y-3964718D01*
X48134206Y-3955534D01*
X48119999Y-3941327D01*
X48098223Y-3926777D01*
X48083672Y-3905000D01*
X48069465Y-3890793D01*
X48060280Y-3869991D01*
X48044030Y-3845671D01*
X48039511Y-3822954D01*
X48031764Y-3805408D01*
X48025805Y-3754049D01*
X48025000Y-3750000D01*
X48025000Y-1450000D01*
X48025804Y-1445953D01*
X48031764Y-1394591D01*
X48039511Y-1377043D01*
X48044030Y-1354329D01*
X48060278Y-1330010D01*
X48069465Y-1309206D01*
X48083674Y-1294996D01*
X48098223Y-1273223D01*
X48119996Y-1258674D01*
X48134206Y-1244465D01*
X48155010Y-1235278D01*
X48179329Y-1219030D01*
X48202043Y-1214511D01*
X48219591Y-1206764D01*
X48270952Y-1200805D01*
X48275000Y-1200000D01*
X48775000Y-1200000D01*
X48779047Y-1200805D01*
G37*
G36*
X53729047Y-1200805D02*
G01*
X53780408Y-1206764D01*
X53797954Y-1214511D01*
X53820671Y-1219030D01*
X53844991Y-1235280D01*
X53865793Y-1244465D01*
X53880000Y-1258672D01*
X53901777Y-1273223D01*
X53916327Y-1294999D01*
X53930534Y-1309206D01*
X53939718Y-1330006D01*
X53955970Y-1354329D01*
X53960489Y-1377048D01*
X53968235Y-1394591D01*
X53974192Y-1445940D01*
X53975000Y-1450000D01*
X53975000Y-3750000D01*
X53974192Y-3754059D01*
X53968235Y-3805408D01*
X53960489Y-3822950D01*
X53955970Y-3845671D01*
X53939716Y-3869995D01*
X53930534Y-3890793D01*
X53916329Y-3904997D01*
X53901777Y-3926777D01*
X53879997Y-3941329D01*
X53865793Y-3955534D01*
X53844995Y-3964716D01*
X53820671Y-3980970D01*
X53797950Y-3985489D01*
X53780408Y-3993235D01*
X53729061Y-3999192D01*
X53725000Y-4000000D01*
X53225000Y-4000000D01*
X53220941Y-3999192D01*
X53169591Y-3993235D01*
X53152048Y-3985489D01*
X53129329Y-3980970D01*
X53105006Y-3964718D01*
X53084206Y-3955534D01*
X53069999Y-3941327D01*
X53048223Y-3926777D01*
X53033672Y-3905000D01*
X53019465Y-3890793D01*
X53010280Y-3869991D01*
X52994030Y-3845671D01*
X52989511Y-3822954D01*
X52981764Y-3805408D01*
X52975805Y-3754049D01*
X52975000Y-3750000D01*
X52975000Y-1450000D01*
X52975804Y-1445953D01*
X52981764Y-1394591D01*
X52989511Y-1377043D01*
X52994030Y-1354329D01*
X53010278Y-1330010D01*
X53019465Y-1309206D01*
X53033674Y-1294996D01*
X53048223Y-1273223D01*
X53069996Y-1258674D01*
X53084206Y-1244465D01*
X53105010Y-1235278D01*
X53129329Y-1219030D01*
X53152043Y-1214511D01*
X53169591Y-1206764D01*
X53220952Y-1200805D01*
X53225000Y-1200000D01*
X53725000Y-1200000D01*
X53729047Y-1200805D01*
G37*
G36*
X68779047Y-1200805D02*
G01*
X68830408Y-1206764D01*
X68847954Y-1214511D01*
X68870671Y-1219030D01*
X68894991Y-1235280D01*
X68915793Y-1244465D01*
X68930000Y-1258672D01*
X68951777Y-1273223D01*
X68966327Y-1294999D01*
X68980534Y-1309206D01*
X68989718Y-1330006D01*
X69005970Y-1354329D01*
X69010489Y-1377048D01*
X69018235Y-1394591D01*
X69024192Y-1445940D01*
X69025000Y-1450000D01*
X69025000Y-3750000D01*
X69024192Y-3754059D01*
X69018235Y-3805408D01*
X69010489Y-3822950D01*
X69005970Y-3845671D01*
X68989716Y-3869995D01*
X68980534Y-3890793D01*
X68966329Y-3904997D01*
X68951777Y-3926777D01*
X68929997Y-3941329D01*
X68915793Y-3955534D01*
X68894995Y-3964716D01*
X68870671Y-3980970D01*
X68847950Y-3985489D01*
X68830408Y-3993235D01*
X68779061Y-3999192D01*
X68775000Y-4000000D01*
X68275000Y-4000000D01*
X68270941Y-3999192D01*
X68219591Y-3993235D01*
X68202048Y-3985489D01*
X68179329Y-3980970D01*
X68155006Y-3964718D01*
X68134206Y-3955534D01*
X68119999Y-3941327D01*
X68098223Y-3926777D01*
X68083672Y-3905000D01*
X68069465Y-3890793D01*
X68060280Y-3869991D01*
X68044030Y-3845671D01*
X68039511Y-3822954D01*
X68031764Y-3805408D01*
X68025805Y-3754049D01*
X68025000Y-3750000D01*
X68025000Y-1450000D01*
X68025804Y-1445953D01*
X68031764Y-1394591D01*
X68039511Y-1377043D01*
X68044030Y-1354329D01*
X68060278Y-1330010D01*
X68069465Y-1309206D01*
X68083674Y-1294996D01*
X68098223Y-1273223D01*
X68119996Y-1258674D01*
X68134206Y-1244465D01*
X68155010Y-1235278D01*
X68179329Y-1219030D01*
X68202043Y-1214511D01*
X68219591Y-1206764D01*
X68270952Y-1200805D01*
X68275000Y-1200000D01*
X68775000Y-1200000D01*
X68779047Y-1200805D01*
G37*
G36*
X73729047Y-1200805D02*
G01*
X73780408Y-1206764D01*
X73797954Y-1214511D01*
X73820671Y-1219030D01*
X73844991Y-1235280D01*
X73865793Y-1244465D01*
X73880000Y-1258672D01*
X73901777Y-1273223D01*
X73916327Y-1294999D01*
X73930534Y-1309206D01*
X73939718Y-1330006D01*
X73955970Y-1354329D01*
X73960489Y-1377048D01*
X73968235Y-1394591D01*
X73974192Y-1445940D01*
X73975000Y-1450000D01*
X73975000Y-3750000D01*
X73974192Y-3754059D01*
X73968235Y-3805408D01*
X73960489Y-3822950D01*
X73955970Y-3845671D01*
X73939716Y-3869995D01*
X73930534Y-3890793D01*
X73916329Y-3904997D01*
X73901777Y-3926777D01*
X73879997Y-3941329D01*
X73865793Y-3955534D01*
X73844995Y-3964716D01*
X73820671Y-3980970D01*
X73797950Y-3985489D01*
X73780408Y-3993235D01*
X73729061Y-3999192D01*
X73725000Y-4000000D01*
X73225000Y-4000000D01*
X73220941Y-3999192D01*
X73169591Y-3993235D01*
X73152048Y-3985489D01*
X73129329Y-3980970D01*
X73105006Y-3964718D01*
X73084206Y-3955534D01*
X73069999Y-3941327D01*
X73048223Y-3926777D01*
X73033672Y-3905000D01*
X73019465Y-3890793D01*
X73010280Y-3869991D01*
X72994030Y-3845671D01*
X72989511Y-3822954D01*
X72981764Y-3805408D01*
X72975805Y-3754049D01*
X72975000Y-3750000D01*
X72975000Y-1450000D01*
X72975804Y-1445953D01*
X72981764Y-1394591D01*
X72989511Y-1377043D01*
X72994030Y-1354329D01*
X73010278Y-1330010D01*
X73019465Y-1309206D01*
X73033674Y-1294996D01*
X73048223Y-1273223D01*
X73069996Y-1258674D01*
X73084206Y-1244465D01*
X73105010Y-1235278D01*
X73129329Y-1219030D01*
X73152043Y-1214511D01*
X73169591Y-1206764D01*
X73220952Y-1200805D01*
X73225000Y-1200000D01*
X73725000Y-1200000D01*
X73729047Y-1200805D01*
G37*
M02*
