%TF.GenerationSoftware,KiCad,Pcbnew,10.0.5*%
%TF.CreationDate,2026-08-18T11:50:28-04:00*%
%TF.ProjectId,hr30-carrier-b-p0.1,68723330-2d63-4617-9272-6965722d622d,rev?*%
%TF.SameCoordinates,Original*%
%TF.FileFunction,Legend,Top*%
%TF.FilePolarity,Positive*%
%FSLAX46Y46*%
G04 Gerber Fmt 4.6, Leading zero omitted, Abs format (unit mm)*
G04 Created by KiCad (PCBNEW 10.0.5) date 2026-08-18 11:50:28*
%MOMM*%
%LPD*%
G01*
G04 APERTURE LIST*
%ADD10C,0.120000*%
G04 APERTURE END LIST*
%TO.C,U202*%
D10*
X50265000Y-18890000D02*
X51735000Y-18890000D01*
X50265000Y-18915000D02*
X50265000Y-18890000D01*
X50265000Y-21110000D02*
X50265000Y-21085000D01*
X51735000Y-18890000D02*
X51735000Y-18915000D01*
X51735000Y-21085000D02*
X51735000Y-21110000D01*
X51735000Y-21110000D02*
X50265000Y-21110000D01*
X49820000Y-18910000D02*
X49680000Y-18720000D01*
X49960000Y-18720000D01*
X49820000Y-18910000D01*
G36*
X49820000Y-18910000D02*
G01*
X49680000Y-18720000D01*
X49960000Y-18720000D01*
X49820000Y-18910000D01*
G37*
%TO.C,JCB1*%
X29890000Y-38260000D02*
X29890000Y-39860000D01*
X29890000Y-39860000D02*
X31690000Y-39860000D01*
X31160000Y-35390000D02*
X50840000Y-35390000D01*
X31690000Y-39860000D02*
X31690000Y-40800000D01*
X52110000Y-38260000D02*
X52110000Y-39860000D01*
X52110000Y-39860000D02*
X50310000Y-39860000D01*
%TO.C,U105*%
X4490000Y-16140000D02*
X4725000Y-16140000D01*
X4490000Y-23860000D02*
X4490000Y-16140000D01*
X4725000Y-23860000D02*
X4490000Y-23860000D01*
X17275000Y-16140000D02*
X17510000Y-16140000D01*
X17510000Y-16140000D02*
X17510000Y-23860000D01*
X17510000Y-23860000D02*
X17275000Y-23860000D01*
X4720000Y-24650000D02*
X4250000Y-24990000D01*
X4250000Y-24310000D01*
X4720000Y-24650000D01*
G36*
X4720000Y-24650000D02*
G01*
X4250000Y-24990000D01*
X4250000Y-24310000D01*
X4720000Y-24650000D01*
G37*
%TO.C,U201*%
X30265000Y-18890000D02*
X31735000Y-18890000D01*
X30265000Y-18915000D02*
X30265000Y-18890000D01*
X30265000Y-21110000D02*
X30265000Y-21085000D01*
X31735000Y-18890000D02*
X31735000Y-18915000D01*
X31735000Y-21085000D02*
X31735000Y-21110000D01*
X31735000Y-21110000D02*
X30265000Y-21110000D01*
X29820000Y-18910000D02*
X29680000Y-18720000D01*
X29960000Y-18720000D01*
X29820000Y-18910000D01*
G36*
X29820000Y-18910000D02*
G01*
X29680000Y-18720000D01*
X29960000Y-18720000D01*
X29820000Y-18910000D01*
G37*
%TO.C,U203*%
X70265000Y-18890000D02*
X71735000Y-18890000D01*
X70265000Y-18915000D02*
X70265000Y-18890000D01*
X70265000Y-21110000D02*
X70265000Y-21085000D01*
X71735000Y-18890000D02*
X71735000Y-18915000D01*
X71735000Y-21085000D02*
X71735000Y-21110000D01*
X71735000Y-21110000D02*
X70265000Y-21110000D01*
X69820000Y-18910000D02*
X69680000Y-18720000D01*
X69960000Y-18720000D01*
X69820000Y-18910000D01*
G36*
X69820000Y-18910000D02*
G01*
X69680000Y-18720000D01*
X69960000Y-18720000D01*
X69820000Y-18910000D01*
G37*
%TD*%
M02*
