%TF.GenerationSoftware,KiCad,Pcbnew,10.0.5*%
%TF.CreationDate,2026-08-18T10:38:31-04:00*%
%TF.ProjectId,hr30-carrier-b-p0.1,68723330-2d63-4617-9272-6965722d622d,rev?*%
%TF.SameCoordinates,Original*%
%TF.FileFunction,Soldermask,Top*%
%TF.FilePolarity,Negative*%
%FSLAX46Y46*%
G04 Gerber Fmt 4.6, Leading zero omitted, Abs format (unit mm)*
G04 Created by KiCad (PCBNEW 10.0.5) date 2026-08-18 10:38:31*
%MOMM*%
%LPD*%
G01*
G04 APERTURE LIST*
G04 APERTURE END LIST*
G36*
X32457403Y-39111418D02*
G01*
X32506066Y-39143934D01*
X32538582Y-39192597D01*
X32550000Y-39250000D01*
X32550000Y-40650000D01*
X32538582Y-40707403D01*
X32506066Y-40756066D01*
X32457403Y-40788582D01*
X32400000Y-40800000D01*
X32100000Y-40800000D01*
X32042597Y-40788582D01*
X31993934Y-40756066D01*
X31961418Y-40707403D01*
X31950000Y-40650000D01*
X31950000Y-39250000D01*
X31961418Y-39192597D01*
X31993934Y-39143934D01*
X32042597Y-39111418D01*
X32100000Y-39100000D01*
X32400000Y-39100000D01*
X32457403Y-39111418D01*
G37*
G36*
X33707403Y-39111418D02*
G01*
X33756066Y-39143934D01*
X33788582Y-39192597D01*
X33800000Y-39250000D01*
X33800000Y-40650000D01*
X33788582Y-40707403D01*
X33756066Y-40756066D01*
X33707403Y-40788582D01*
X33650000Y-40800000D01*
X33350000Y-40800000D01*
X33292597Y-40788582D01*
X33243934Y-40756066D01*
X33211418Y-40707403D01*
X33200000Y-40650000D01*
X33200000Y-39250000D01*
X33211418Y-39192597D01*
X33243934Y-39143934D01*
X33292597Y-39111418D01*
X33350000Y-39100000D01*
X33650000Y-39100000D01*
X33707403Y-39111418D01*
G37*
G36*
X34957403Y-39111418D02*
G01*
X35006066Y-39143934D01*
X35038582Y-39192597D01*
X35050000Y-39250000D01*
X35050000Y-40650000D01*
X35038582Y-40707403D01*
X35006066Y-40756066D01*
X34957403Y-40788582D01*
X34900000Y-40800000D01*
X34600000Y-40800000D01*
X34542597Y-40788582D01*
X34493934Y-40756066D01*
X34461418Y-40707403D01*
X34450000Y-40650000D01*
X34450000Y-39250000D01*
X34461418Y-39192597D01*
X34493934Y-39143934D01*
X34542597Y-39111418D01*
X34600000Y-39100000D01*
X34900000Y-39100000D01*
X34957403Y-39111418D01*
G37*
G36*
X36207403Y-39111418D02*
G01*
X36256066Y-39143934D01*
X36288582Y-39192597D01*
X36300000Y-39250000D01*
X36300000Y-40650000D01*
X36288582Y-40707403D01*
X36256066Y-40756066D01*
X36207403Y-40788582D01*
X36150000Y-40800000D01*
X35850000Y-40800000D01*
X35792597Y-40788582D01*
X35743934Y-40756066D01*
X35711418Y-40707403D01*
X35700000Y-40650000D01*
X35700000Y-39250000D01*
X35711418Y-39192597D01*
X35743934Y-39143934D01*
X35792597Y-39111418D01*
X35850000Y-39100000D01*
X36150000Y-39100000D01*
X36207403Y-39111418D01*
G37*
G36*
X37457403Y-39111418D02*
G01*
X37506066Y-39143934D01*
X37538582Y-39192597D01*
X37550000Y-39250000D01*
X37550000Y-40650000D01*
X37538582Y-40707403D01*
X37506066Y-40756066D01*
X37457403Y-40788582D01*
X37400000Y-40800000D01*
X37100000Y-40800000D01*
X37042597Y-40788582D01*
X36993934Y-40756066D01*
X36961418Y-40707403D01*
X36950000Y-40650000D01*
X36950000Y-39250000D01*
X36961418Y-39192597D01*
X36993934Y-39143934D01*
X37042597Y-39111418D01*
X37100000Y-39100000D01*
X37400000Y-39100000D01*
X37457403Y-39111418D01*
G37*
G36*
X38707403Y-39111418D02*
G01*
X38756066Y-39143934D01*
X38788582Y-39192597D01*
X38800000Y-39250000D01*
X38800000Y-40650000D01*
X38788582Y-40707403D01*
X38756066Y-40756066D01*
X38707403Y-40788582D01*
X38650000Y-40800000D01*
X38350000Y-40800000D01*
X38292597Y-40788582D01*
X38243934Y-40756066D01*
X38211418Y-40707403D01*
X38200000Y-40650000D01*
X38200000Y-39250000D01*
X38211418Y-39192597D01*
X38243934Y-39143934D01*
X38292597Y-39111418D01*
X38350000Y-39100000D01*
X38650000Y-39100000D01*
X38707403Y-39111418D01*
G37*
G36*
X39957403Y-39111418D02*
G01*
X40006066Y-39143934D01*
X40038582Y-39192597D01*
X40050000Y-39250000D01*
X40050000Y-40650000D01*
X40038582Y-40707403D01*
X40006066Y-40756066D01*
X39957403Y-40788582D01*
X39900000Y-40800000D01*
X39600000Y-40800000D01*
X39542597Y-40788582D01*
X39493934Y-40756066D01*
X39461418Y-40707403D01*
X39450000Y-40650000D01*
X39450000Y-39250000D01*
X39461418Y-39192597D01*
X39493934Y-39143934D01*
X39542597Y-39111418D01*
X39600000Y-39100000D01*
X39900000Y-39100000D01*
X39957403Y-39111418D01*
G37*
G36*
X41207403Y-39111418D02*
G01*
X41256066Y-39143934D01*
X41288582Y-39192597D01*
X41300000Y-39250000D01*
X41300000Y-40650000D01*
X41288582Y-40707403D01*
X41256066Y-40756066D01*
X41207403Y-40788582D01*
X41150000Y-40800000D01*
X40850000Y-40800000D01*
X40792597Y-40788582D01*
X40743934Y-40756066D01*
X40711418Y-40707403D01*
X40700000Y-40650000D01*
X40700000Y-39250000D01*
X40711418Y-39192597D01*
X40743934Y-39143934D01*
X40792597Y-39111418D01*
X40850000Y-39100000D01*
X41150000Y-39100000D01*
X41207403Y-39111418D01*
G37*
G36*
X42457403Y-39111418D02*
G01*
X42506066Y-39143934D01*
X42538582Y-39192597D01*
X42550000Y-39250000D01*
X42550000Y-40650000D01*
X42538582Y-40707403D01*
X42506066Y-40756066D01*
X42457403Y-40788582D01*
X42400000Y-40800000D01*
X42100000Y-40800000D01*
X42042597Y-40788582D01*
X41993934Y-40756066D01*
X41961418Y-40707403D01*
X41950000Y-40650000D01*
X41950000Y-39250000D01*
X41961418Y-39192597D01*
X41993934Y-39143934D01*
X42042597Y-39111418D01*
X42100000Y-39100000D01*
X42400000Y-39100000D01*
X42457403Y-39111418D01*
G37*
G36*
X43707403Y-39111418D02*
G01*
X43756066Y-39143934D01*
X43788582Y-39192597D01*
X43800000Y-39250000D01*
X43800000Y-40650000D01*
X43788582Y-40707403D01*
X43756066Y-40756066D01*
X43707403Y-40788582D01*
X43650000Y-40800000D01*
X43350000Y-40800000D01*
X43292597Y-40788582D01*
X43243934Y-40756066D01*
X43211418Y-40707403D01*
X43200000Y-40650000D01*
X43200000Y-39250000D01*
X43211418Y-39192597D01*
X43243934Y-39143934D01*
X43292597Y-39111418D01*
X43350000Y-39100000D01*
X43650000Y-39100000D01*
X43707403Y-39111418D01*
G37*
G36*
X44957403Y-39111418D02*
G01*
X45006066Y-39143934D01*
X45038582Y-39192597D01*
X45050000Y-39250000D01*
X45050000Y-40650000D01*
X45038582Y-40707403D01*
X45006066Y-40756066D01*
X44957403Y-40788582D01*
X44900000Y-40800000D01*
X44600000Y-40800000D01*
X44542597Y-40788582D01*
X44493934Y-40756066D01*
X44461418Y-40707403D01*
X44450000Y-40650000D01*
X44450000Y-39250000D01*
X44461418Y-39192597D01*
X44493934Y-39143934D01*
X44542597Y-39111418D01*
X44600000Y-39100000D01*
X44900000Y-39100000D01*
X44957403Y-39111418D01*
G37*
G36*
X46207403Y-39111418D02*
G01*
X46256066Y-39143934D01*
X46288582Y-39192597D01*
X46300000Y-39250000D01*
X46300000Y-40650000D01*
X46288582Y-40707403D01*
X46256066Y-40756066D01*
X46207403Y-40788582D01*
X46150000Y-40800000D01*
X45850000Y-40800000D01*
X45792597Y-40788582D01*
X45743934Y-40756066D01*
X45711418Y-40707403D01*
X45700000Y-40650000D01*
X45700000Y-39250000D01*
X45711418Y-39192597D01*
X45743934Y-39143934D01*
X45792597Y-39111418D01*
X45850000Y-39100000D01*
X46150000Y-39100000D01*
X46207403Y-39111418D01*
G37*
G36*
X47457403Y-39111418D02*
G01*
X47506066Y-39143934D01*
X47538582Y-39192597D01*
X47550000Y-39250000D01*
X47550000Y-40650000D01*
X47538582Y-40707403D01*
X47506066Y-40756066D01*
X47457403Y-40788582D01*
X47400000Y-40800000D01*
X47100000Y-40800000D01*
X47042597Y-40788582D01*
X46993934Y-40756066D01*
X46961418Y-40707403D01*
X46950000Y-40650000D01*
X46950000Y-39250000D01*
X46961418Y-39192597D01*
X46993934Y-39143934D01*
X47042597Y-39111418D01*
X47100000Y-39100000D01*
X47400000Y-39100000D01*
X47457403Y-39111418D01*
G37*
G36*
X48707403Y-39111418D02*
G01*
X48756066Y-39143934D01*
X48788582Y-39192597D01*
X48800000Y-39250000D01*
X48800000Y-40650000D01*
X48788582Y-40707403D01*
X48756066Y-40756066D01*
X48707403Y-40788582D01*
X48650000Y-40800000D01*
X48350000Y-40800000D01*
X48292597Y-40788582D01*
X48243934Y-40756066D01*
X48211418Y-40707403D01*
X48200000Y-40650000D01*
X48200000Y-39250000D01*
X48211418Y-39192597D01*
X48243934Y-39143934D01*
X48292597Y-39111418D01*
X48350000Y-39100000D01*
X48650000Y-39100000D01*
X48707403Y-39111418D01*
G37*
G36*
X49957403Y-39111418D02*
G01*
X50006066Y-39143934D01*
X50038582Y-39192597D01*
X50050000Y-39250000D01*
X50050000Y-40650000D01*
X50038582Y-40707403D01*
X50006066Y-40756066D01*
X49957403Y-40788582D01*
X49900000Y-40800000D01*
X49600000Y-40800000D01*
X49542597Y-40788582D01*
X49493934Y-40756066D01*
X49461418Y-40707403D01*
X49450000Y-40650000D01*
X49450000Y-39250000D01*
X49461418Y-39192597D01*
X49493934Y-39143934D01*
X49542597Y-39111418D01*
X49600000Y-39100000D01*
X49900000Y-39100000D01*
X49957403Y-39111418D01*
G37*
G36*
X30654047Y-35200805D02*
G01*
X30705408Y-35206764D01*
X30722954Y-35214511D01*
X30745671Y-35219030D01*
X30769991Y-35235280D01*
X30790793Y-35244465D01*
X30805000Y-35258672D01*
X30826777Y-35273223D01*
X30841327Y-35294999D01*
X30855534Y-35309206D01*
X30864718Y-35330006D01*
X30880970Y-35354329D01*
X30885489Y-35377048D01*
X30893235Y-35394591D01*
X30899192Y-35445940D01*
X30900000Y-35450000D01*
X30900000Y-37750000D01*
X30899192Y-37754059D01*
X30893235Y-37805408D01*
X30885489Y-37822950D01*
X30880970Y-37845671D01*
X30864716Y-37869995D01*
X30855534Y-37890793D01*
X30841329Y-37904997D01*
X30826777Y-37926777D01*
X30804997Y-37941329D01*
X30790793Y-37955534D01*
X30769995Y-37964716D01*
X30745671Y-37980970D01*
X30722950Y-37985489D01*
X30705408Y-37993235D01*
X30654061Y-37999192D01*
X30650000Y-38000000D01*
X30150000Y-38000000D01*
X30145941Y-37999192D01*
X30094591Y-37993235D01*
X30077048Y-37985489D01*
X30054329Y-37980970D01*
X30030006Y-37964718D01*
X30009206Y-37955534D01*
X29994999Y-37941327D01*
X29973223Y-37926777D01*
X29958672Y-37905000D01*
X29944465Y-37890793D01*
X29935280Y-37869991D01*
X29919030Y-37845671D01*
X29914511Y-37822954D01*
X29906764Y-37805408D01*
X29900805Y-37754049D01*
X29900000Y-37750000D01*
X29900000Y-35450000D01*
X29900804Y-35445953D01*
X29906764Y-35394591D01*
X29914511Y-35377043D01*
X29919030Y-35354329D01*
X29935278Y-35330010D01*
X29944465Y-35309206D01*
X29958674Y-35294996D01*
X29973223Y-35273223D01*
X29994996Y-35258674D01*
X30009206Y-35244465D01*
X30030010Y-35235278D01*
X30054329Y-35219030D01*
X30077043Y-35214511D01*
X30094591Y-35206764D01*
X30145952Y-35200805D01*
X30150000Y-35200000D01*
X30650000Y-35200000D01*
X30654047Y-35200805D01*
G37*
G36*
X51854047Y-35200805D02*
G01*
X51905408Y-35206764D01*
X51922954Y-35214511D01*
X51945671Y-35219030D01*
X51969991Y-35235280D01*
X51990793Y-35244465D01*
X52005000Y-35258672D01*
X52026777Y-35273223D01*
X52041327Y-35294999D01*
X52055534Y-35309206D01*
X52064718Y-35330006D01*
X52080970Y-35354329D01*
X52085489Y-35377048D01*
X52093235Y-35394591D01*
X52099192Y-35445940D01*
X52100000Y-35450000D01*
X52100000Y-37750000D01*
X52099192Y-37754059D01*
X52093235Y-37805408D01*
X52085489Y-37822950D01*
X52080970Y-37845671D01*
X52064716Y-37869995D01*
X52055534Y-37890793D01*
X52041329Y-37904997D01*
X52026777Y-37926777D01*
X52004997Y-37941329D01*
X51990793Y-37955534D01*
X51969995Y-37964716D01*
X51945671Y-37980970D01*
X51922950Y-37985489D01*
X51905408Y-37993235D01*
X51854061Y-37999192D01*
X51850000Y-38000000D01*
X51350000Y-38000000D01*
X51345941Y-37999192D01*
X51294591Y-37993235D01*
X51277048Y-37985489D01*
X51254329Y-37980970D01*
X51230006Y-37964718D01*
X51209206Y-37955534D01*
X51194999Y-37941327D01*
X51173223Y-37926777D01*
X51158672Y-37905000D01*
X51144465Y-37890793D01*
X51135280Y-37869991D01*
X51119030Y-37845671D01*
X51114511Y-37822954D01*
X51106764Y-37805408D01*
X51100805Y-37754049D01*
X51100000Y-37750000D01*
X51100000Y-35450000D01*
X51100804Y-35445953D01*
X51106764Y-35394591D01*
X51114511Y-35377043D01*
X51119030Y-35354329D01*
X51135278Y-35330010D01*
X51144465Y-35309206D01*
X51158674Y-35294996D01*
X51173223Y-35273223D01*
X51194996Y-35258674D01*
X51209206Y-35244465D01*
X51230010Y-35235278D01*
X51254329Y-35219030D01*
X51277043Y-35214511D01*
X51294591Y-35206764D01*
X51345952Y-35200805D01*
X51350000Y-35200000D01*
X51850000Y-35200000D01*
X51854047Y-35200805D01*
G37*
G36*
X5492403Y-23636418D02*
G01*
X5541066Y-23668934D01*
X5573582Y-23717597D01*
X5585000Y-23775000D01*
X5585000Y-25525000D01*
X5573582Y-25582403D01*
X5541066Y-25631066D01*
X5492403Y-25663582D01*
X5435000Y-25675000D01*
X5135000Y-25675000D01*
X5077597Y-25663582D01*
X5028934Y-25631066D01*
X4996418Y-25582403D01*
X4985000Y-25525000D01*
X4985000Y-23775000D01*
X4996418Y-23717597D01*
X5028934Y-23668934D01*
X5077597Y-23636418D01*
X5135000Y-23625000D01*
X5435000Y-23625000D01*
X5492403Y-23636418D01*
G37*
G36*
X6762403Y-23636418D02*
G01*
X6811066Y-23668934D01*
X6843582Y-23717597D01*
X6855000Y-23775000D01*
X6855000Y-25525000D01*
X6843582Y-25582403D01*
X6811066Y-25631066D01*
X6762403Y-25663582D01*
X6705000Y-25675000D01*
X6405000Y-25675000D01*
X6347597Y-25663582D01*
X6298934Y-25631066D01*
X6266418Y-25582403D01*
X6255000Y-25525000D01*
X6255000Y-23775000D01*
X6266418Y-23717597D01*
X6298934Y-23668934D01*
X6347597Y-23636418D01*
X6405000Y-23625000D01*
X6705000Y-23625000D01*
X6762403Y-23636418D01*
G37*
G36*
X8032403Y-23636418D02*
G01*
X8081066Y-23668934D01*
X8113582Y-23717597D01*
X8125000Y-23775000D01*
X8125000Y-25525000D01*
X8113582Y-25582403D01*
X8081066Y-25631066D01*
X8032403Y-25663582D01*
X7975000Y-25675000D01*
X7675000Y-25675000D01*
X7617597Y-25663582D01*
X7568934Y-25631066D01*
X7536418Y-25582403D01*
X7525000Y-25525000D01*
X7525000Y-23775000D01*
X7536418Y-23717597D01*
X7568934Y-23668934D01*
X7617597Y-23636418D01*
X7675000Y-23625000D01*
X7975000Y-23625000D01*
X8032403Y-23636418D01*
G37*
G36*
X9302403Y-23636418D02*
G01*
X9351066Y-23668934D01*
X9383582Y-23717597D01*
X9395000Y-23775000D01*
X9395000Y-25525000D01*
X9383582Y-25582403D01*
X9351066Y-25631066D01*
X9302403Y-25663582D01*
X9245000Y-25675000D01*
X8945000Y-25675000D01*
X8887597Y-25663582D01*
X8838934Y-25631066D01*
X8806418Y-25582403D01*
X8795000Y-25525000D01*
X8795000Y-23775000D01*
X8806418Y-23717597D01*
X8838934Y-23668934D01*
X8887597Y-23636418D01*
X8945000Y-23625000D01*
X9245000Y-23625000D01*
X9302403Y-23636418D01*
G37*
G36*
X10572403Y-23636418D02*
G01*
X10621066Y-23668934D01*
X10653582Y-23717597D01*
X10665000Y-23775000D01*
X10665000Y-25525000D01*
X10653582Y-25582403D01*
X10621066Y-25631066D01*
X10572403Y-25663582D01*
X10515000Y-25675000D01*
X10215000Y-25675000D01*
X10157597Y-25663582D01*
X10108934Y-25631066D01*
X10076418Y-25582403D01*
X10065000Y-25525000D01*
X10065000Y-23775000D01*
X10076418Y-23717597D01*
X10108934Y-23668934D01*
X10157597Y-23636418D01*
X10215000Y-23625000D01*
X10515000Y-23625000D01*
X10572403Y-23636418D01*
G37*
G36*
X11842403Y-23636418D02*
G01*
X11891066Y-23668934D01*
X11923582Y-23717597D01*
X11935000Y-23775000D01*
X11935000Y-25525000D01*
X11923582Y-25582403D01*
X11891066Y-25631066D01*
X11842403Y-25663582D01*
X11785000Y-25675000D01*
X11485000Y-25675000D01*
X11427597Y-25663582D01*
X11378934Y-25631066D01*
X11346418Y-25582403D01*
X11335000Y-25525000D01*
X11335000Y-23775000D01*
X11346418Y-23717597D01*
X11378934Y-23668934D01*
X11427597Y-23636418D01*
X11485000Y-23625000D01*
X11785000Y-23625000D01*
X11842403Y-23636418D01*
G37*
G36*
X13112403Y-23636418D02*
G01*
X13161066Y-23668934D01*
X13193582Y-23717597D01*
X13205000Y-23775000D01*
X13205000Y-25525000D01*
X13193582Y-25582403D01*
X13161066Y-25631066D01*
X13112403Y-25663582D01*
X13055000Y-25675000D01*
X12755000Y-25675000D01*
X12697597Y-25663582D01*
X12648934Y-25631066D01*
X12616418Y-25582403D01*
X12605000Y-25525000D01*
X12605000Y-23775000D01*
X12616418Y-23717597D01*
X12648934Y-23668934D01*
X12697597Y-23636418D01*
X12755000Y-23625000D01*
X13055000Y-23625000D01*
X13112403Y-23636418D01*
G37*
G36*
X14382403Y-23636418D02*
G01*
X14431066Y-23668934D01*
X14463582Y-23717597D01*
X14475000Y-23775000D01*
X14475000Y-25525000D01*
X14463582Y-25582403D01*
X14431066Y-25631066D01*
X14382403Y-25663582D01*
X14325000Y-25675000D01*
X14025000Y-25675000D01*
X13967597Y-25663582D01*
X13918934Y-25631066D01*
X13886418Y-25582403D01*
X13875000Y-25525000D01*
X13875000Y-23775000D01*
X13886418Y-23717597D01*
X13918934Y-23668934D01*
X13967597Y-23636418D01*
X14025000Y-23625000D01*
X14325000Y-23625000D01*
X14382403Y-23636418D01*
G37*
G36*
X15652403Y-23636418D02*
G01*
X15701066Y-23668934D01*
X15733582Y-23717597D01*
X15745000Y-23775000D01*
X15745000Y-25525000D01*
X15733582Y-25582403D01*
X15701066Y-25631066D01*
X15652403Y-25663582D01*
X15595000Y-25675000D01*
X15295000Y-25675000D01*
X15237597Y-25663582D01*
X15188934Y-25631066D01*
X15156418Y-25582403D01*
X15145000Y-25525000D01*
X15145000Y-23775000D01*
X15156418Y-23717597D01*
X15188934Y-23668934D01*
X15237597Y-23636418D01*
X15295000Y-23625000D01*
X15595000Y-23625000D01*
X15652403Y-23636418D01*
G37*
G36*
X16922403Y-23636418D02*
G01*
X16971066Y-23668934D01*
X17003582Y-23717597D01*
X17015000Y-23775000D01*
X17015000Y-25525000D01*
X17003582Y-25582403D01*
X16971066Y-25631066D01*
X16922403Y-25663582D01*
X16865000Y-25675000D01*
X16565000Y-25675000D01*
X16507597Y-25663582D01*
X16458934Y-25631066D01*
X16426418Y-25582403D01*
X16415000Y-25525000D01*
X16415000Y-23775000D01*
X16426418Y-23717597D01*
X16458934Y-23668934D01*
X16507597Y-23636418D01*
X16565000Y-23625000D01*
X16865000Y-23625000D01*
X16922403Y-23636418D01*
G37*
G36*
X30620985Y-20481661D02*
G01*
X30649372Y-20500628D01*
X30668339Y-20529015D01*
X30675000Y-20562500D01*
X30675000Y-20737500D01*
X30668339Y-20770985D01*
X30649372Y-20799372D01*
X30620985Y-20818339D01*
X30587500Y-20825000D01*
X29737500Y-20825000D01*
X29704015Y-20818339D01*
X29675628Y-20799372D01*
X29656661Y-20770985D01*
X29650000Y-20737500D01*
X29650000Y-20562500D01*
X29656661Y-20529015D01*
X29675628Y-20500628D01*
X29704015Y-20481661D01*
X29737500Y-20475000D01*
X30587500Y-20475000D01*
X30620985Y-20481661D01*
G37*
G36*
X32295985Y-20481661D02*
G01*
X32324372Y-20500628D01*
X32343339Y-20529015D01*
X32350000Y-20562500D01*
X32350000Y-20737500D01*
X32343339Y-20770985D01*
X32324372Y-20799372D01*
X32295985Y-20818339D01*
X32262500Y-20825000D01*
X31412500Y-20825000D01*
X31379015Y-20818339D01*
X31350628Y-20799372D01*
X31331661Y-20770985D01*
X31325000Y-20737500D01*
X31325000Y-20562500D01*
X31331661Y-20529015D01*
X31350628Y-20500628D01*
X31379015Y-20481661D01*
X31412500Y-20475000D01*
X32262500Y-20475000D01*
X32295985Y-20481661D01*
G37*
G36*
X50620985Y-20481661D02*
G01*
X50649372Y-20500628D01*
X50668339Y-20529015D01*
X50675000Y-20562500D01*
X50675000Y-20737500D01*
X50668339Y-20770985D01*
X50649372Y-20799372D01*
X50620985Y-20818339D01*
X50587500Y-20825000D01*
X49737500Y-20825000D01*
X49704015Y-20818339D01*
X49675628Y-20799372D01*
X49656661Y-20770985D01*
X49650000Y-20737500D01*
X49650000Y-20562500D01*
X49656661Y-20529015D01*
X49675628Y-20500628D01*
X49704015Y-20481661D01*
X49737500Y-20475000D01*
X50587500Y-20475000D01*
X50620985Y-20481661D01*
G37*
G36*
X52295985Y-20481661D02*
G01*
X52324372Y-20500628D01*
X52343339Y-20529015D01*
X52350000Y-20562500D01*
X52350000Y-20737500D01*
X52343339Y-20770985D01*
X52324372Y-20799372D01*
X52295985Y-20818339D01*
X52262500Y-20825000D01*
X51412500Y-20825000D01*
X51379015Y-20818339D01*
X51350628Y-20799372D01*
X51331661Y-20770985D01*
X51325000Y-20737500D01*
X51325000Y-20562500D01*
X51331661Y-20529015D01*
X51350628Y-20500628D01*
X51379015Y-20481661D01*
X51412500Y-20475000D01*
X52262500Y-20475000D01*
X52295985Y-20481661D01*
G37*
G36*
X70620985Y-20481661D02*
G01*
X70649372Y-20500628D01*
X70668339Y-20529015D01*
X70675000Y-20562500D01*
X70675000Y-20737500D01*
X70668339Y-20770985D01*
X70649372Y-20799372D01*
X70620985Y-20818339D01*
X70587500Y-20825000D01*
X69737500Y-20825000D01*
X69704015Y-20818339D01*
X69675628Y-20799372D01*
X69656661Y-20770985D01*
X69650000Y-20737500D01*
X69650000Y-20562500D01*
X69656661Y-20529015D01*
X69675628Y-20500628D01*
X69704015Y-20481661D01*
X69737500Y-20475000D01*
X70587500Y-20475000D01*
X70620985Y-20481661D01*
G37*
G36*
X72295985Y-20481661D02*
G01*
X72324372Y-20500628D01*
X72343339Y-20529015D01*
X72350000Y-20562500D01*
X72350000Y-20737500D01*
X72343339Y-20770985D01*
X72324372Y-20799372D01*
X72295985Y-20818339D01*
X72262500Y-20825000D01*
X71412500Y-20825000D01*
X71379015Y-20818339D01*
X71350628Y-20799372D01*
X71331661Y-20770985D01*
X71325000Y-20737500D01*
X71325000Y-20562500D01*
X71331661Y-20529015D01*
X71350628Y-20500628D01*
X71379015Y-20481661D01*
X71412500Y-20475000D01*
X72262500Y-20475000D01*
X72295985Y-20481661D01*
G37*
G36*
X30620985Y-19831661D02*
G01*
X30649372Y-19850628D01*
X30668339Y-19879015D01*
X30675000Y-19912500D01*
X30675000Y-20087500D01*
X30668339Y-20120985D01*
X30649372Y-20149372D01*
X30620985Y-20168339D01*
X30587500Y-20175000D01*
X29737500Y-20175000D01*
X29704015Y-20168339D01*
X29675628Y-20149372D01*
X29656661Y-20120985D01*
X29650000Y-20087500D01*
X29650000Y-19912500D01*
X29656661Y-19879015D01*
X29675628Y-19850628D01*
X29704015Y-19831661D01*
X29737500Y-19825000D01*
X30587500Y-19825000D01*
X30620985Y-19831661D01*
G37*
G36*
X32295985Y-19831661D02*
G01*
X32324372Y-19850628D01*
X32343339Y-19879015D01*
X32350000Y-19912500D01*
X32350000Y-20087500D01*
X32343339Y-20120985D01*
X32324372Y-20149372D01*
X32295985Y-20168339D01*
X32262500Y-20175000D01*
X31412500Y-20175000D01*
X31379015Y-20168339D01*
X31350628Y-20149372D01*
X31331661Y-20120985D01*
X31325000Y-20087500D01*
X31325000Y-19912500D01*
X31331661Y-19879015D01*
X31350628Y-19850628D01*
X31379015Y-19831661D01*
X31412500Y-19825000D01*
X32262500Y-19825000D01*
X32295985Y-19831661D01*
G37*
G36*
X50620985Y-19831661D02*
G01*
X50649372Y-19850628D01*
X50668339Y-19879015D01*
X50675000Y-19912500D01*
X50675000Y-20087500D01*
X50668339Y-20120985D01*
X50649372Y-20149372D01*
X50620985Y-20168339D01*
X50587500Y-20175000D01*
X49737500Y-20175000D01*
X49704015Y-20168339D01*
X49675628Y-20149372D01*
X49656661Y-20120985D01*
X49650000Y-20087500D01*
X49650000Y-19912500D01*
X49656661Y-19879015D01*
X49675628Y-19850628D01*
X49704015Y-19831661D01*
X49737500Y-19825000D01*
X50587500Y-19825000D01*
X50620985Y-19831661D01*
G37*
G36*
X52295985Y-19831661D02*
G01*
X52324372Y-19850628D01*
X52343339Y-19879015D01*
X52350000Y-19912500D01*
X52350000Y-20087500D01*
X52343339Y-20120985D01*
X52324372Y-20149372D01*
X52295985Y-20168339D01*
X52262500Y-20175000D01*
X51412500Y-20175000D01*
X51379015Y-20168339D01*
X51350628Y-20149372D01*
X51331661Y-20120985D01*
X51325000Y-20087500D01*
X51325000Y-19912500D01*
X51331661Y-19879015D01*
X51350628Y-19850628D01*
X51379015Y-19831661D01*
X51412500Y-19825000D01*
X52262500Y-19825000D01*
X52295985Y-19831661D01*
G37*
G36*
X70620985Y-19831661D02*
G01*
X70649372Y-19850628D01*
X70668339Y-19879015D01*
X70675000Y-19912500D01*
X70675000Y-20087500D01*
X70668339Y-20120985D01*
X70649372Y-20149372D01*
X70620985Y-20168339D01*
X70587500Y-20175000D01*
X69737500Y-20175000D01*
X69704015Y-20168339D01*
X69675628Y-20149372D01*
X69656661Y-20120985D01*
X69650000Y-20087500D01*
X69650000Y-19912500D01*
X69656661Y-19879015D01*
X69675628Y-19850628D01*
X69704015Y-19831661D01*
X69737500Y-19825000D01*
X70587500Y-19825000D01*
X70620985Y-19831661D01*
G37*
G36*
X72295985Y-19831661D02*
G01*
X72324372Y-19850628D01*
X72343339Y-19879015D01*
X72350000Y-19912500D01*
X72350000Y-20087500D01*
X72343339Y-20120985D01*
X72324372Y-20149372D01*
X72295985Y-20168339D01*
X72262500Y-20175000D01*
X71412500Y-20175000D01*
X71379015Y-20168339D01*
X71350628Y-20149372D01*
X71331661Y-20120985D01*
X71325000Y-20087500D01*
X71325000Y-19912500D01*
X71331661Y-19879015D01*
X71350628Y-19850628D01*
X71379015Y-19831661D01*
X71412500Y-19825000D01*
X72262500Y-19825000D01*
X72295985Y-19831661D01*
G37*
G36*
X30620985Y-19181661D02*
G01*
X30649372Y-19200628D01*
X30668339Y-19229015D01*
X30675000Y-19262500D01*
X30675000Y-19437500D01*
X30668339Y-19470985D01*
X30649372Y-19499372D01*
X30620985Y-19518339D01*
X30587500Y-19525000D01*
X29737500Y-19525000D01*
X29704015Y-19518339D01*
X29675628Y-19499372D01*
X29656661Y-19470985D01*
X29650000Y-19437500D01*
X29650000Y-19262500D01*
X29656661Y-19229015D01*
X29675628Y-19200628D01*
X29704015Y-19181661D01*
X29737500Y-19175000D01*
X30587500Y-19175000D01*
X30620985Y-19181661D01*
G37*
G36*
X32295985Y-19181661D02*
G01*
X32324372Y-19200628D01*
X32343339Y-19229015D01*
X32350000Y-19262500D01*
X32350000Y-19437500D01*
X32343339Y-19470985D01*
X32324372Y-19499372D01*
X32295985Y-19518339D01*
X32262500Y-19525000D01*
X31412500Y-19525000D01*
X31379015Y-19518339D01*
X31350628Y-19499372D01*
X31331661Y-19470985D01*
X31325000Y-19437500D01*
X31325000Y-19262500D01*
X31331661Y-19229015D01*
X31350628Y-19200628D01*
X31379015Y-19181661D01*
X31412500Y-19175000D01*
X32262500Y-19175000D01*
X32295985Y-19181661D01*
G37*
G36*
X50620985Y-19181661D02*
G01*
X50649372Y-19200628D01*
X50668339Y-19229015D01*
X50675000Y-19262500D01*
X50675000Y-19437500D01*
X50668339Y-19470985D01*
X50649372Y-19499372D01*
X50620985Y-19518339D01*
X50587500Y-19525000D01*
X49737500Y-19525000D01*
X49704015Y-19518339D01*
X49675628Y-19499372D01*
X49656661Y-19470985D01*
X49650000Y-19437500D01*
X49650000Y-19262500D01*
X49656661Y-19229015D01*
X49675628Y-19200628D01*
X49704015Y-19181661D01*
X49737500Y-19175000D01*
X50587500Y-19175000D01*
X50620985Y-19181661D01*
G37*
G36*
X52295985Y-19181661D02*
G01*
X52324372Y-19200628D01*
X52343339Y-19229015D01*
X52350000Y-19262500D01*
X52350000Y-19437500D01*
X52343339Y-19470985D01*
X52324372Y-19499372D01*
X52295985Y-19518339D01*
X52262500Y-19525000D01*
X51412500Y-19525000D01*
X51379015Y-19518339D01*
X51350628Y-19499372D01*
X51331661Y-19470985D01*
X51325000Y-19437500D01*
X51325000Y-19262500D01*
X51331661Y-19229015D01*
X51350628Y-19200628D01*
X51379015Y-19181661D01*
X51412500Y-19175000D01*
X52262500Y-19175000D01*
X52295985Y-19181661D01*
G37*
G36*
X70620985Y-19181661D02*
G01*
X70649372Y-19200628D01*
X70668339Y-19229015D01*
X70675000Y-19262500D01*
X70675000Y-19437500D01*
X70668339Y-19470985D01*
X70649372Y-19499372D01*
X70620985Y-19518339D01*
X70587500Y-19525000D01*
X69737500Y-19525000D01*
X69704015Y-19518339D01*
X69675628Y-19499372D01*
X69656661Y-19470985D01*
X69650000Y-19437500D01*
X69650000Y-19262500D01*
X69656661Y-19229015D01*
X69675628Y-19200628D01*
X69704015Y-19181661D01*
X69737500Y-19175000D01*
X70587500Y-19175000D01*
X70620985Y-19181661D01*
G37*
G36*
X72295985Y-19181661D02*
G01*
X72324372Y-19200628D01*
X72343339Y-19229015D01*
X72350000Y-19262500D01*
X72350000Y-19437500D01*
X72343339Y-19470985D01*
X72324372Y-19499372D01*
X72295985Y-19518339D01*
X72262500Y-19525000D01*
X71412500Y-19525000D01*
X71379015Y-19518339D01*
X71350628Y-19499372D01*
X71331661Y-19470985D01*
X71325000Y-19437500D01*
X71325000Y-19262500D01*
X71331661Y-19229015D01*
X71350628Y-19200628D01*
X71379015Y-19181661D01*
X71412500Y-19175000D01*
X72262500Y-19175000D01*
X72295985Y-19181661D01*
G37*
G36*
X5492403Y-14336418D02*
G01*
X5541066Y-14368934D01*
X5573582Y-14417597D01*
X5585000Y-14475000D01*
X5585000Y-16225000D01*
X5573582Y-16282403D01*
X5541066Y-16331066D01*
X5492403Y-16363582D01*
X5435000Y-16375000D01*
X5135000Y-16375000D01*
X5077597Y-16363582D01*
X5028934Y-16331066D01*
X4996418Y-16282403D01*
X4985000Y-16225000D01*
X4985000Y-14475000D01*
X4996418Y-14417597D01*
X5028934Y-14368934D01*
X5077597Y-14336418D01*
X5135000Y-14325000D01*
X5435000Y-14325000D01*
X5492403Y-14336418D01*
G37*
G36*
X6762403Y-14336418D02*
G01*
X6811066Y-14368934D01*
X6843582Y-14417597D01*
X6855000Y-14475000D01*
X6855000Y-16225000D01*
X6843582Y-16282403D01*
X6811066Y-16331066D01*
X6762403Y-16363582D01*
X6705000Y-16375000D01*
X6405000Y-16375000D01*
X6347597Y-16363582D01*
X6298934Y-16331066D01*
X6266418Y-16282403D01*
X6255000Y-16225000D01*
X6255000Y-14475000D01*
X6266418Y-14417597D01*
X6298934Y-14368934D01*
X6347597Y-14336418D01*
X6405000Y-14325000D01*
X6705000Y-14325000D01*
X6762403Y-14336418D01*
G37*
G36*
X8032403Y-14336418D02*
G01*
X8081066Y-14368934D01*
X8113582Y-14417597D01*
X8125000Y-14475000D01*
X8125000Y-16225000D01*
X8113582Y-16282403D01*
X8081066Y-16331066D01*
X8032403Y-16363582D01*
X7975000Y-16375000D01*
X7675000Y-16375000D01*
X7617597Y-16363582D01*
X7568934Y-16331066D01*
X7536418Y-16282403D01*
X7525000Y-16225000D01*
X7525000Y-14475000D01*
X7536418Y-14417597D01*
X7568934Y-14368934D01*
X7617597Y-14336418D01*
X7675000Y-14325000D01*
X7975000Y-14325000D01*
X8032403Y-14336418D01*
G37*
G36*
X9302403Y-14336418D02*
G01*
X9351066Y-14368934D01*
X9383582Y-14417597D01*
X9395000Y-14475000D01*
X9395000Y-16225000D01*
X9383582Y-16282403D01*
X9351066Y-16331066D01*
X9302403Y-16363582D01*
X9245000Y-16375000D01*
X8945000Y-16375000D01*
X8887597Y-16363582D01*
X8838934Y-16331066D01*
X8806418Y-16282403D01*
X8795000Y-16225000D01*
X8795000Y-14475000D01*
X8806418Y-14417597D01*
X8838934Y-14368934D01*
X8887597Y-14336418D01*
X8945000Y-14325000D01*
X9245000Y-14325000D01*
X9302403Y-14336418D01*
G37*
G36*
X10572403Y-14336418D02*
G01*
X10621066Y-14368934D01*
X10653582Y-14417597D01*
X10665000Y-14475000D01*
X10665000Y-16225000D01*
X10653582Y-16282403D01*
X10621066Y-16331066D01*
X10572403Y-16363582D01*
X10515000Y-16375000D01*
X10215000Y-16375000D01*
X10157597Y-16363582D01*
X10108934Y-16331066D01*
X10076418Y-16282403D01*
X10065000Y-16225000D01*
X10065000Y-14475000D01*
X10076418Y-14417597D01*
X10108934Y-14368934D01*
X10157597Y-14336418D01*
X10215000Y-14325000D01*
X10515000Y-14325000D01*
X10572403Y-14336418D01*
G37*
G36*
X11842403Y-14336418D02*
G01*
X11891066Y-14368934D01*
X11923582Y-14417597D01*
X11935000Y-14475000D01*
X11935000Y-16225000D01*
X11923582Y-16282403D01*
X11891066Y-16331066D01*
X11842403Y-16363582D01*
X11785000Y-16375000D01*
X11485000Y-16375000D01*
X11427597Y-16363582D01*
X11378934Y-16331066D01*
X11346418Y-16282403D01*
X11335000Y-16225000D01*
X11335000Y-14475000D01*
X11346418Y-14417597D01*
X11378934Y-14368934D01*
X11427597Y-14336418D01*
X11485000Y-14325000D01*
X11785000Y-14325000D01*
X11842403Y-14336418D01*
G37*
G36*
X13112403Y-14336418D02*
G01*
X13161066Y-14368934D01*
X13193582Y-14417597D01*
X13205000Y-14475000D01*
X13205000Y-16225000D01*
X13193582Y-16282403D01*
X13161066Y-16331066D01*
X13112403Y-16363582D01*
X13055000Y-16375000D01*
X12755000Y-16375000D01*
X12697597Y-16363582D01*
X12648934Y-16331066D01*
X12616418Y-16282403D01*
X12605000Y-16225000D01*
X12605000Y-14475000D01*
X12616418Y-14417597D01*
X12648934Y-14368934D01*
X12697597Y-14336418D01*
X12755000Y-14325000D01*
X13055000Y-14325000D01*
X13112403Y-14336418D01*
G37*
G36*
X14382403Y-14336418D02*
G01*
X14431066Y-14368934D01*
X14463582Y-14417597D01*
X14475000Y-14475000D01*
X14475000Y-16225000D01*
X14463582Y-16282403D01*
X14431066Y-16331066D01*
X14382403Y-16363582D01*
X14325000Y-16375000D01*
X14025000Y-16375000D01*
X13967597Y-16363582D01*
X13918934Y-16331066D01*
X13886418Y-16282403D01*
X13875000Y-16225000D01*
X13875000Y-14475000D01*
X13886418Y-14417597D01*
X13918934Y-14368934D01*
X13967597Y-14336418D01*
X14025000Y-14325000D01*
X14325000Y-14325000D01*
X14382403Y-14336418D01*
G37*
G36*
X15652403Y-14336418D02*
G01*
X15701066Y-14368934D01*
X15733582Y-14417597D01*
X15745000Y-14475000D01*
X15745000Y-16225000D01*
X15733582Y-16282403D01*
X15701066Y-16331066D01*
X15652403Y-16363582D01*
X15595000Y-16375000D01*
X15295000Y-16375000D01*
X15237597Y-16363582D01*
X15188934Y-16331066D01*
X15156418Y-16282403D01*
X15145000Y-16225000D01*
X15145000Y-14475000D01*
X15156418Y-14417597D01*
X15188934Y-14368934D01*
X15237597Y-14336418D01*
X15295000Y-14325000D01*
X15595000Y-14325000D01*
X15652403Y-14336418D01*
G37*
G36*
X16922403Y-14336418D02*
G01*
X16971066Y-14368934D01*
X17003582Y-14417597D01*
X17015000Y-14475000D01*
X17015000Y-16225000D01*
X17003582Y-16282403D01*
X16971066Y-16331066D01*
X16922403Y-16363582D01*
X16865000Y-16375000D01*
X16565000Y-16375000D01*
X16507597Y-16363582D01*
X16458934Y-16331066D01*
X16426418Y-16282403D01*
X16415000Y-16225000D01*
X16415000Y-14475000D01*
X16426418Y-14417597D01*
X16458934Y-14368934D01*
X16507597Y-14336418D01*
X16565000Y-14325000D01*
X16865000Y-14325000D01*
X16922403Y-14336418D01*
G37*
G36*
X7565936Y-1729919D02*
G01*
X7575053Y-1729919D01*
X7601314Y-1736955D01*
X7666842Y-1749989D01*
X7697777Y-1762802D01*
X7720043Y-1768769D01*
X7740006Y-1780295D01*
X7770937Y-1793107D01*
X7826489Y-1830226D01*
X7850038Y-1843822D01*
X7856483Y-1850267D01*
X7864621Y-1855705D01*
X7944294Y-1935378D01*
X7949731Y-1943515D01*
X7956178Y-1949962D01*
X7969775Y-1973514D01*
X8006892Y-2029062D01*
X8019702Y-2059989D01*
X8031231Y-2079957D01*
X8037198Y-2102226D01*
X8050010Y-2133157D01*
X8063043Y-2198682D01*
X8070081Y-2224947D01*
X8070081Y-2234063D01*
X8071990Y-2243661D01*
X8071990Y-2356338D01*
X8070081Y-2365935D01*
X8070081Y-2375053D01*
X8063042Y-2401319D01*
X8050010Y-2466842D01*
X8037198Y-2497770D01*
X8031231Y-2520043D01*
X8019701Y-2540012D01*
X8006892Y-2570937D01*
X7969780Y-2626478D01*
X7956178Y-2650038D01*
X7949728Y-2656487D01*
X7944294Y-2664621D01*
X7864621Y-2744294D01*
X7856487Y-2749728D01*
X7850038Y-2756178D01*
X7826478Y-2769780D01*
X7770937Y-2806892D01*
X7740012Y-2819701D01*
X7720043Y-2831231D01*
X7697770Y-2837198D01*
X7666842Y-2850010D01*
X7601319Y-2863042D01*
X7575053Y-2870081D01*
X7565935Y-2870081D01*
X7556338Y-2871990D01*
X7443662Y-2871990D01*
X7434064Y-2870081D01*
X7424947Y-2870081D01*
X7398681Y-2863043D01*
X7333157Y-2850010D01*
X7302226Y-2837198D01*
X7279957Y-2831231D01*
X7259989Y-2819702D01*
X7229062Y-2806892D01*
X7173514Y-2769775D01*
X7149962Y-2756178D01*
X7143515Y-2749731D01*
X7135378Y-2744294D01*
X7055705Y-2664621D01*
X7050267Y-2656483D01*
X7043822Y-2650038D01*
X7030226Y-2626489D01*
X6993107Y-2570937D01*
X6980295Y-2540006D01*
X6968769Y-2520043D01*
X6962802Y-2497777D01*
X6949989Y-2466842D01*
X6936955Y-2401314D01*
X6929919Y-2375053D01*
X6929919Y-2365935D01*
X6928010Y-2356338D01*
X6928010Y-2243661D01*
X6929919Y-2234063D01*
X6929919Y-2224947D01*
X6936954Y-2198688D01*
X6949989Y-2133157D01*
X6962803Y-2102220D01*
X6968769Y-2079957D01*
X6980293Y-2059995D01*
X6993107Y-2029062D01*
X7030230Y-1973503D01*
X7043822Y-1949962D01*
X7050265Y-1943518D01*
X7055705Y-1935378D01*
X7135378Y-1855705D01*
X7143518Y-1850265D01*
X7149962Y-1843822D01*
X7173503Y-1830230D01*
X7229062Y-1793107D01*
X7259995Y-1780293D01*
X7279957Y-1768769D01*
X7302220Y-1762803D01*
X7333157Y-1749989D01*
X7398687Y-1736955D01*
X7424947Y-1729919D01*
X7434064Y-1729919D01*
X7443662Y-1728010D01*
X7556338Y-1728010D01*
X7565936Y-1729919D01*
G37*
G36*
X28565936Y-1729919D02*
G01*
X28575053Y-1729919D01*
X28601314Y-1736955D01*
X28666842Y-1749989D01*
X28697777Y-1762802D01*
X28720043Y-1768769D01*
X28740006Y-1780295D01*
X28770937Y-1793107D01*
X28826489Y-1830226D01*
X28850038Y-1843822D01*
X28856483Y-1850267D01*
X28864621Y-1855705D01*
X28944294Y-1935378D01*
X28949731Y-1943515D01*
X28956178Y-1949962D01*
X28969775Y-1973514D01*
X29006892Y-2029062D01*
X29019702Y-2059989D01*
X29031231Y-2079957D01*
X29037198Y-2102226D01*
X29050010Y-2133157D01*
X29063043Y-2198682D01*
X29070081Y-2224947D01*
X29070081Y-2234063D01*
X29071990Y-2243661D01*
X29071990Y-2356338D01*
X29070081Y-2365935D01*
X29070081Y-2375053D01*
X29063042Y-2401319D01*
X29050010Y-2466842D01*
X29037198Y-2497770D01*
X29031231Y-2520043D01*
X29019701Y-2540012D01*
X29006892Y-2570937D01*
X28969780Y-2626478D01*
X28956178Y-2650038D01*
X28949728Y-2656487D01*
X28944294Y-2664621D01*
X28864621Y-2744294D01*
X28856487Y-2749728D01*
X28850038Y-2756178D01*
X28826478Y-2769780D01*
X28770937Y-2806892D01*
X28740012Y-2819701D01*
X28720043Y-2831231D01*
X28697770Y-2837198D01*
X28666842Y-2850010D01*
X28601319Y-2863042D01*
X28575053Y-2870081D01*
X28565935Y-2870081D01*
X28556338Y-2871990D01*
X28443662Y-2871990D01*
X28434064Y-2870081D01*
X28424947Y-2870081D01*
X28398681Y-2863043D01*
X28333157Y-2850010D01*
X28302226Y-2837198D01*
X28279957Y-2831231D01*
X28259989Y-2819702D01*
X28229062Y-2806892D01*
X28173514Y-2769775D01*
X28149962Y-2756178D01*
X28143515Y-2749731D01*
X28135378Y-2744294D01*
X28055705Y-2664621D01*
X28050267Y-2656483D01*
X28043822Y-2650038D01*
X28030226Y-2626489D01*
X27993107Y-2570937D01*
X27980295Y-2540006D01*
X27968769Y-2520043D01*
X27962802Y-2497777D01*
X27949989Y-2466842D01*
X27936955Y-2401314D01*
X27929919Y-2375053D01*
X27929919Y-2365935D01*
X27928010Y-2356338D01*
X27928010Y-2243661D01*
X27929919Y-2234063D01*
X27929919Y-2224947D01*
X27936954Y-2198688D01*
X27949989Y-2133157D01*
X27962803Y-2102220D01*
X27968769Y-2079957D01*
X27980293Y-2059995D01*
X27993107Y-2029062D01*
X28030230Y-1973503D01*
X28043822Y-1949962D01*
X28050265Y-1943518D01*
X28055705Y-1935378D01*
X28135378Y-1855705D01*
X28143518Y-1850265D01*
X28149962Y-1843822D01*
X28173503Y-1830230D01*
X28229062Y-1793107D01*
X28259995Y-1780293D01*
X28279957Y-1768769D01*
X28302220Y-1762803D01*
X28333157Y-1749989D01*
X28398687Y-1736955D01*
X28424947Y-1729919D01*
X28434064Y-1729919D01*
X28443662Y-1728010D01*
X28556338Y-1728010D01*
X28565936Y-1729919D01*
G37*
G36*
X48565936Y-1729919D02*
G01*
X48575053Y-1729919D01*
X48601314Y-1736955D01*
X48666842Y-1749989D01*
X48697777Y-1762802D01*
X48720043Y-1768769D01*
X48740006Y-1780295D01*
X48770937Y-1793107D01*
X48826489Y-1830226D01*
X48850038Y-1843822D01*
X48856483Y-1850267D01*
X48864621Y-1855705D01*
X48944294Y-1935378D01*
X48949731Y-1943515D01*
X48956178Y-1949962D01*
X48969775Y-1973514D01*
X49006892Y-2029062D01*
X49019702Y-2059989D01*
X49031231Y-2079957D01*
X49037198Y-2102226D01*
X49050010Y-2133157D01*
X49063043Y-2198682D01*
X49070081Y-2224947D01*
X49070081Y-2234063D01*
X49071990Y-2243661D01*
X49071990Y-2356338D01*
X49070081Y-2365935D01*
X49070081Y-2375053D01*
X49063042Y-2401319D01*
X49050010Y-2466842D01*
X49037198Y-2497770D01*
X49031231Y-2520043D01*
X49019701Y-2540012D01*
X49006892Y-2570937D01*
X48969780Y-2626478D01*
X48956178Y-2650038D01*
X48949728Y-2656487D01*
X48944294Y-2664621D01*
X48864621Y-2744294D01*
X48856487Y-2749728D01*
X48850038Y-2756178D01*
X48826478Y-2769780D01*
X48770937Y-2806892D01*
X48740012Y-2819701D01*
X48720043Y-2831231D01*
X48697770Y-2837198D01*
X48666842Y-2850010D01*
X48601319Y-2863042D01*
X48575053Y-2870081D01*
X48565935Y-2870081D01*
X48556338Y-2871990D01*
X48443662Y-2871990D01*
X48434064Y-2870081D01*
X48424947Y-2870081D01*
X48398681Y-2863043D01*
X48333157Y-2850010D01*
X48302226Y-2837198D01*
X48279957Y-2831231D01*
X48259989Y-2819702D01*
X48229062Y-2806892D01*
X48173514Y-2769775D01*
X48149962Y-2756178D01*
X48143515Y-2749731D01*
X48135378Y-2744294D01*
X48055705Y-2664621D01*
X48050267Y-2656483D01*
X48043822Y-2650038D01*
X48030226Y-2626489D01*
X47993107Y-2570937D01*
X47980295Y-2540006D01*
X47968769Y-2520043D01*
X47962802Y-2497777D01*
X47949989Y-2466842D01*
X47936955Y-2401314D01*
X47929919Y-2375053D01*
X47929919Y-2365935D01*
X47928010Y-2356338D01*
X47928010Y-2243661D01*
X47929919Y-2234063D01*
X47929919Y-2224947D01*
X47936954Y-2198688D01*
X47949989Y-2133157D01*
X47962803Y-2102220D01*
X47968769Y-2079957D01*
X47980293Y-2059995D01*
X47993107Y-2029062D01*
X48030230Y-1973503D01*
X48043822Y-1949962D01*
X48050265Y-1943518D01*
X48055705Y-1935378D01*
X48135378Y-1855705D01*
X48143518Y-1850265D01*
X48149962Y-1843822D01*
X48173503Y-1830230D01*
X48229062Y-1793107D01*
X48259995Y-1780293D01*
X48279957Y-1768769D01*
X48302220Y-1762803D01*
X48333157Y-1749989D01*
X48398687Y-1736955D01*
X48424947Y-1729919D01*
X48434064Y-1729919D01*
X48443662Y-1728010D01*
X48556338Y-1728010D01*
X48565936Y-1729919D01*
G37*
G36*
X68565936Y-1729919D02*
G01*
X68575053Y-1729919D01*
X68601314Y-1736955D01*
X68666842Y-1749989D01*
X68697777Y-1762802D01*
X68720043Y-1768769D01*
X68740006Y-1780295D01*
X68770937Y-1793107D01*
X68826489Y-1830226D01*
X68850038Y-1843822D01*
X68856483Y-1850267D01*
X68864621Y-1855705D01*
X68944294Y-1935378D01*
X68949731Y-1943515D01*
X68956178Y-1949962D01*
X68969775Y-1973514D01*
X69006892Y-2029062D01*
X69019702Y-2059989D01*
X69031231Y-2079957D01*
X69037198Y-2102226D01*
X69050010Y-2133157D01*
X69063043Y-2198682D01*
X69070081Y-2224947D01*
X69070081Y-2234063D01*
X69071990Y-2243661D01*
X69071990Y-2356338D01*
X69070081Y-2365935D01*
X69070081Y-2375053D01*
X69063042Y-2401319D01*
X69050010Y-2466842D01*
X69037198Y-2497770D01*
X69031231Y-2520043D01*
X69019701Y-2540012D01*
X69006892Y-2570937D01*
X68969780Y-2626478D01*
X68956178Y-2650038D01*
X68949728Y-2656487D01*
X68944294Y-2664621D01*
X68864621Y-2744294D01*
X68856487Y-2749728D01*
X68850038Y-2756178D01*
X68826478Y-2769780D01*
X68770937Y-2806892D01*
X68740012Y-2819701D01*
X68720043Y-2831231D01*
X68697770Y-2837198D01*
X68666842Y-2850010D01*
X68601319Y-2863042D01*
X68575053Y-2870081D01*
X68565935Y-2870081D01*
X68556338Y-2871990D01*
X68443662Y-2871990D01*
X68434064Y-2870081D01*
X68424947Y-2870081D01*
X68398681Y-2863043D01*
X68333157Y-2850010D01*
X68302226Y-2837198D01*
X68279957Y-2831231D01*
X68259989Y-2819702D01*
X68229062Y-2806892D01*
X68173514Y-2769775D01*
X68149962Y-2756178D01*
X68143515Y-2749731D01*
X68135378Y-2744294D01*
X68055705Y-2664621D01*
X68050267Y-2656483D01*
X68043822Y-2650038D01*
X68030226Y-2626489D01*
X67993107Y-2570937D01*
X67980295Y-2540006D01*
X67968769Y-2520043D01*
X67962802Y-2497777D01*
X67949989Y-2466842D01*
X67936955Y-2401314D01*
X67929919Y-2375053D01*
X67929919Y-2365935D01*
X67928010Y-2356338D01*
X67928010Y-2243661D01*
X67929919Y-2234063D01*
X67929919Y-2224947D01*
X67936954Y-2198688D01*
X67949989Y-2133157D01*
X67962803Y-2102220D01*
X67968769Y-2079957D01*
X67980293Y-2059995D01*
X67993107Y-2029062D01*
X68030230Y-1973503D01*
X68043822Y-1949962D01*
X68050265Y-1943518D01*
X68055705Y-1935378D01*
X68135378Y-1855705D01*
X68143518Y-1850265D01*
X68149962Y-1843822D01*
X68173503Y-1830230D01*
X68229062Y-1793107D01*
X68259995Y-1780293D01*
X68279957Y-1768769D01*
X68302220Y-1762803D01*
X68333157Y-1749989D01*
X68398687Y-1736955D01*
X68424947Y-1729919D01*
X68434064Y-1729919D01*
X68443662Y-1728010D01*
X68556338Y-1728010D01*
X68565936Y-1729919D01*
G37*
M02*
