%TF.GenerationSoftware,KiCad,Pcbnew,10.0.5*%
%TF.CreationDate,2026-08-18T20:07:17-04:00*%
%TF.ProjectId,hr30-e1-diagnostic-watchdog-p0.1,68723330-2d65-4312-9d64-6961676e6f73,rev?*%
%TF.SameCoordinates,Original*%
%TF.FileFunction,Legend,Top*%
%TF.FilePolarity,Positive*%
%FSLAX46Y46*%
G04 Gerber Fmt 4.6, Leading zero omitted, Abs format (unit mm)*
G04 Created by KiCad (PCBNEW 10.0.5) date 2026-08-18 20:07:17*
%MOMM*%
%LPD*%
G01*
G04 APERTURE LIST*
%ADD10C,0.150000*%
%ADD11C,0.120000*%
G04 APERTURE END LIST*
D10*
X4071428Y-21162295D02*
X4071428Y-20362295D01*
X4071428Y-20362295D02*
X4376190Y-20362295D01*
X4376190Y-20362295D02*
X4452380Y-20400390D01*
X4452380Y-20400390D02*
X4490475Y-20438485D01*
X4490475Y-20438485D02*
X4528571Y-20514676D01*
X4528571Y-20514676D02*
X4528571Y-20628961D01*
X4528571Y-20628961D02*
X4490475Y-20705152D01*
X4490475Y-20705152D02*
X4452380Y-20743247D01*
X4452380Y-20743247D02*
X4376190Y-20781342D01*
X4376190Y-20781342D02*
X4071428Y-20781342D01*
X4871428Y-20743247D02*
X5138094Y-20743247D01*
X5252380Y-21162295D02*
X4871428Y-21162295D01*
X4871428Y-21162295D02*
X4871428Y-20362295D01*
X4871428Y-20362295D02*
X5252380Y-20362295D01*
X6052381Y-21162295D02*
X5785714Y-20781342D01*
X5595238Y-21162295D02*
X5595238Y-20362295D01*
X5595238Y-20362295D02*
X5900000Y-20362295D01*
X5900000Y-20362295D02*
X5976190Y-20400390D01*
X5976190Y-20400390D02*
X6014285Y-20438485D01*
X6014285Y-20438485D02*
X6052381Y-20514676D01*
X6052381Y-20514676D02*
X6052381Y-20628961D01*
X6052381Y-20628961D02*
X6014285Y-20705152D01*
X6014285Y-20705152D02*
X5976190Y-20743247D01*
X5976190Y-20743247D02*
X5900000Y-20781342D01*
X5900000Y-20781342D02*
X5595238Y-20781342D01*
X6395238Y-21162295D02*
X6395238Y-20362295D01*
X6395238Y-20362295D02*
X6661904Y-20933723D01*
X6661904Y-20933723D02*
X6928571Y-20362295D01*
X6928571Y-20362295D02*
X6928571Y-21162295D01*
X7309524Y-21162295D02*
X7309524Y-20362295D01*
X7576190Y-20362295D02*
X8033333Y-20362295D01*
X7804761Y-21162295D02*
X7804761Y-20362295D01*
X9290476Y-21162295D02*
X8909524Y-21162295D01*
X8909524Y-21162295D02*
X8909524Y-20362295D01*
X9709524Y-20362295D02*
X9861905Y-20362295D01*
X9861905Y-20362295D02*
X9938095Y-20400390D01*
X9938095Y-20400390D02*
X10014286Y-20476580D01*
X10014286Y-20476580D02*
X10052381Y-20628961D01*
X10052381Y-20628961D02*
X10052381Y-20895628D01*
X10052381Y-20895628D02*
X10014286Y-21048009D01*
X10014286Y-21048009D02*
X9938095Y-21124200D01*
X9938095Y-21124200D02*
X9861905Y-21162295D01*
X9861905Y-21162295D02*
X9709524Y-21162295D01*
X9709524Y-21162295D02*
X9633333Y-21124200D01*
X9633333Y-21124200D02*
X9557143Y-21048009D01*
X9557143Y-21048009D02*
X9519047Y-20895628D01*
X9519047Y-20895628D02*
X9519047Y-20628961D01*
X9519047Y-20628961D02*
X9557143Y-20476580D01*
X9557143Y-20476580D02*
X9633333Y-20400390D01*
X9633333Y-20400390D02*
X9709524Y-20362295D01*
X10319047Y-20362295D02*
X10509523Y-21162295D01*
X10509523Y-21162295D02*
X10661904Y-20590866D01*
X10661904Y-20590866D02*
X10814285Y-21162295D01*
X10814285Y-21162295D02*
X11004762Y-20362295D01*
X14933334Y-2362295D02*
X14933334Y-1562295D01*
X14933334Y-1562295D02*
X15123810Y-1562295D01*
X15123810Y-1562295D02*
X15238096Y-1600390D01*
X15238096Y-1600390D02*
X15314286Y-1676580D01*
X15314286Y-1676580D02*
X15352381Y-1752771D01*
X15352381Y-1752771D02*
X15390477Y-1905152D01*
X15390477Y-1905152D02*
X15390477Y-2019438D01*
X15390477Y-2019438D02*
X15352381Y-2171819D01*
X15352381Y-2171819D02*
X15314286Y-2248009D01*
X15314286Y-2248009D02*
X15238096Y-2324200D01*
X15238096Y-2324200D02*
X15123810Y-2362295D01*
X15123810Y-2362295D02*
X14933334Y-2362295D01*
X15733334Y-2362295D02*
X15733334Y-1562295D01*
X16076190Y-2133723D02*
X16457143Y-2133723D01*
X16000000Y-2362295D02*
X16266667Y-1562295D01*
X16266667Y-1562295D02*
X16533333Y-2362295D01*
X17219047Y-1600390D02*
X17142857Y-1562295D01*
X17142857Y-1562295D02*
X17028571Y-1562295D01*
X17028571Y-1562295D02*
X16914285Y-1600390D01*
X16914285Y-1600390D02*
X16838095Y-1676580D01*
X16838095Y-1676580D02*
X16800000Y-1752771D01*
X16800000Y-1752771D02*
X16761904Y-1905152D01*
X16761904Y-1905152D02*
X16761904Y-2019438D01*
X16761904Y-2019438D02*
X16800000Y-2171819D01*
X16800000Y-2171819D02*
X16838095Y-2248009D01*
X16838095Y-2248009D02*
X16914285Y-2324200D01*
X16914285Y-2324200D02*
X17028571Y-2362295D01*
X17028571Y-2362295D02*
X17104762Y-2362295D01*
X17104762Y-2362295D02*
X17219047Y-2324200D01*
X17219047Y-2324200D02*
X17257143Y-2286104D01*
X17257143Y-2286104D02*
X17257143Y-2019438D01*
X17257143Y-2019438D02*
X17104762Y-2019438D01*
X17600000Y-2362295D02*
X17600000Y-1562295D01*
X17600000Y-1562295D02*
X18057143Y-2362295D01*
X18057143Y-2362295D02*
X18057143Y-1562295D01*
X18590476Y-1562295D02*
X18742857Y-1562295D01*
X18742857Y-1562295D02*
X18819047Y-1600390D01*
X18819047Y-1600390D02*
X18895238Y-1676580D01*
X18895238Y-1676580D02*
X18933333Y-1828961D01*
X18933333Y-1828961D02*
X18933333Y-2095628D01*
X18933333Y-2095628D02*
X18895238Y-2248009D01*
X18895238Y-2248009D02*
X18819047Y-2324200D01*
X18819047Y-2324200D02*
X18742857Y-2362295D01*
X18742857Y-2362295D02*
X18590476Y-2362295D01*
X18590476Y-2362295D02*
X18514285Y-2324200D01*
X18514285Y-2324200D02*
X18438095Y-2248009D01*
X18438095Y-2248009D02*
X18399999Y-2095628D01*
X18399999Y-2095628D02*
X18399999Y-1828961D01*
X18399999Y-1828961D02*
X18438095Y-1676580D01*
X18438095Y-1676580D02*
X18514285Y-1600390D01*
X18514285Y-1600390D02*
X18590476Y-1562295D01*
X19238094Y-2324200D02*
X19352380Y-2362295D01*
X19352380Y-2362295D02*
X19542856Y-2362295D01*
X19542856Y-2362295D02*
X19619047Y-2324200D01*
X19619047Y-2324200D02*
X19657142Y-2286104D01*
X19657142Y-2286104D02*
X19695237Y-2209914D01*
X19695237Y-2209914D02*
X19695237Y-2133723D01*
X19695237Y-2133723D02*
X19657142Y-2057533D01*
X19657142Y-2057533D02*
X19619047Y-2019438D01*
X19619047Y-2019438D02*
X19542856Y-1981342D01*
X19542856Y-1981342D02*
X19390475Y-1943247D01*
X19390475Y-1943247D02*
X19314285Y-1905152D01*
X19314285Y-1905152D02*
X19276190Y-1867057D01*
X19276190Y-1867057D02*
X19238094Y-1790866D01*
X19238094Y-1790866D02*
X19238094Y-1714676D01*
X19238094Y-1714676D02*
X19276190Y-1638485D01*
X19276190Y-1638485D02*
X19314285Y-1600390D01*
X19314285Y-1600390D02*
X19390475Y-1562295D01*
X19390475Y-1562295D02*
X19580952Y-1562295D01*
X19580952Y-1562295D02*
X19695237Y-1600390D01*
X19923809Y-1562295D02*
X20380952Y-1562295D01*
X20152380Y-2362295D02*
X20152380Y-1562295D01*
X20647619Y-2362295D02*
X20647619Y-1562295D01*
X21485714Y-2286104D02*
X21447618Y-2324200D01*
X21447618Y-2324200D02*
X21333333Y-2362295D01*
X21333333Y-2362295D02*
X21257142Y-2362295D01*
X21257142Y-2362295D02*
X21142856Y-2324200D01*
X21142856Y-2324200D02*
X21066666Y-2248009D01*
X21066666Y-2248009D02*
X21028571Y-2171819D01*
X21028571Y-2171819D02*
X20990475Y-2019438D01*
X20990475Y-2019438D02*
X20990475Y-1905152D01*
X20990475Y-1905152D02*
X21028571Y-1752771D01*
X21028571Y-1752771D02*
X21066666Y-1676580D01*
X21066666Y-1676580D02*
X21142856Y-1600390D01*
X21142856Y-1600390D02*
X21257142Y-1562295D01*
X21257142Y-1562295D02*
X21333333Y-1562295D01*
X21333333Y-1562295D02*
X21447618Y-1600390D01*
X21447618Y-1600390D02*
X21485714Y-1638485D01*
X22590476Y-1562295D02*
X22742857Y-1562295D01*
X22742857Y-1562295D02*
X22819047Y-1600390D01*
X22819047Y-1600390D02*
X22895238Y-1676580D01*
X22895238Y-1676580D02*
X22933333Y-1828961D01*
X22933333Y-1828961D02*
X22933333Y-2095628D01*
X22933333Y-2095628D02*
X22895238Y-2248009D01*
X22895238Y-2248009D02*
X22819047Y-2324200D01*
X22819047Y-2324200D02*
X22742857Y-2362295D01*
X22742857Y-2362295D02*
X22590476Y-2362295D01*
X22590476Y-2362295D02*
X22514285Y-2324200D01*
X22514285Y-2324200D02*
X22438095Y-2248009D01*
X22438095Y-2248009D02*
X22399999Y-2095628D01*
X22399999Y-2095628D02*
X22399999Y-1828961D01*
X22399999Y-1828961D02*
X22438095Y-1676580D01*
X22438095Y-1676580D02*
X22514285Y-1600390D01*
X22514285Y-1600390D02*
X22590476Y-1562295D01*
X23276190Y-2362295D02*
X23276190Y-1562295D01*
X23276190Y-1562295D02*
X23733333Y-2362295D01*
X23733333Y-2362295D02*
X23733333Y-1562295D01*
X24495237Y-2362295D02*
X24114285Y-2362295D01*
X24114285Y-2362295D02*
X24114285Y-1562295D01*
X24914285Y-1981342D02*
X24914285Y-2362295D01*
X24647618Y-1562295D02*
X24914285Y-1981342D01*
X24914285Y-1981342D02*
X25180951Y-1562295D01*
X16628571Y-23243247D02*
X16895237Y-23243247D01*
X17009523Y-23662295D02*
X16628571Y-23662295D01*
X16628571Y-23662295D02*
X16628571Y-22862295D01*
X16628571Y-22862295D02*
X17009523Y-22862295D01*
X17771428Y-23662295D02*
X17314285Y-23662295D01*
X17542857Y-23662295D02*
X17542857Y-22862295D01*
X17542857Y-22862295D02*
X17466666Y-22976580D01*
X17466666Y-22976580D02*
X17390476Y-23052771D01*
X17390476Y-23052771D02*
X17314285Y-23090866D01*
X18647619Y-22862295D02*
X18838095Y-23662295D01*
X18838095Y-23662295D02*
X18990476Y-23090866D01*
X18990476Y-23090866D02*
X19142857Y-23662295D01*
X19142857Y-23662295D02*
X19333334Y-22862295D01*
X19638096Y-23662295D02*
X19638096Y-22862295D01*
X19638096Y-22862295D02*
X19828572Y-22862295D01*
X19828572Y-22862295D02*
X19942858Y-22900390D01*
X19942858Y-22900390D02*
X20019048Y-22976580D01*
X20019048Y-22976580D02*
X20057143Y-23052771D01*
X20057143Y-23052771D02*
X20095239Y-23205152D01*
X20095239Y-23205152D02*
X20095239Y-23319438D01*
X20095239Y-23319438D02*
X20057143Y-23471819D01*
X20057143Y-23471819D02*
X20019048Y-23548009D01*
X20019048Y-23548009D02*
X19942858Y-23624200D01*
X19942858Y-23624200D02*
X19828572Y-23662295D01*
X19828572Y-23662295D02*
X19638096Y-23662295D01*
X21047620Y-23662295D02*
X21047620Y-22862295D01*
X21047620Y-22862295D02*
X21352382Y-22862295D01*
X21352382Y-22862295D02*
X21428572Y-22900390D01*
X21428572Y-22900390D02*
X21466667Y-22938485D01*
X21466667Y-22938485D02*
X21504763Y-23014676D01*
X21504763Y-23014676D02*
X21504763Y-23128961D01*
X21504763Y-23128961D02*
X21466667Y-23205152D01*
X21466667Y-23205152D02*
X21428572Y-23243247D01*
X21428572Y-23243247D02*
X21352382Y-23281342D01*
X21352382Y-23281342D02*
X21047620Y-23281342D01*
X22000001Y-22862295D02*
X22076191Y-22862295D01*
X22076191Y-22862295D02*
X22152382Y-22900390D01*
X22152382Y-22900390D02*
X22190477Y-22938485D01*
X22190477Y-22938485D02*
X22228572Y-23014676D01*
X22228572Y-23014676D02*
X22266667Y-23167057D01*
X22266667Y-23167057D02*
X22266667Y-23357533D01*
X22266667Y-23357533D02*
X22228572Y-23509914D01*
X22228572Y-23509914D02*
X22190477Y-23586104D01*
X22190477Y-23586104D02*
X22152382Y-23624200D01*
X22152382Y-23624200D02*
X22076191Y-23662295D01*
X22076191Y-23662295D02*
X22000001Y-23662295D01*
X22000001Y-23662295D02*
X21923810Y-23624200D01*
X21923810Y-23624200D02*
X21885715Y-23586104D01*
X21885715Y-23586104D02*
X21847620Y-23509914D01*
X21847620Y-23509914D02*
X21809524Y-23357533D01*
X21809524Y-23357533D02*
X21809524Y-23167057D01*
X21809524Y-23167057D02*
X21847620Y-23014676D01*
X21847620Y-23014676D02*
X21885715Y-22938485D01*
X21885715Y-22938485D02*
X21923810Y-22900390D01*
X21923810Y-22900390D02*
X22000001Y-22862295D01*
X22609525Y-23586104D02*
X22647620Y-23624200D01*
X22647620Y-23624200D02*
X22609525Y-23662295D01*
X22609525Y-23662295D02*
X22571429Y-23624200D01*
X22571429Y-23624200D02*
X22609525Y-23586104D01*
X22609525Y-23586104D02*
X22609525Y-23662295D01*
X23409524Y-23662295D02*
X22952381Y-23662295D01*
X23180953Y-23662295D02*
X23180953Y-22862295D01*
X23180953Y-22862295D02*
X23104762Y-22976580D01*
X23104762Y-22976580D02*
X23028572Y-23052771D01*
X23028572Y-23052771D02*
X22952381Y-23090866D01*
%TO.C,R2*%
D11*
X27762742Y-14977500D02*
X28237258Y-14977500D01*
X27762742Y-16022500D02*
X28237258Y-16022500D01*
%TO.C,J1*%
X2390000Y-17965000D02*
X2390000Y-7035000D01*
X5260000Y-5765000D02*
X6860000Y-5765000D01*
X5260000Y-19235000D02*
X6860000Y-19235000D01*
X6860000Y-5765000D02*
X6860000Y-7565000D01*
X6860000Y-17435000D02*
X7800000Y-17435000D01*
X6860000Y-19235000D02*
X6860000Y-17435000D01*
%TO.C,TP1*%
X25700000Y-18000000D02*
G75*
G02*
X24300000Y-18000000I-700000J0D01*
G01*
X24300000Y-18000000D02*
G75*
G02*
X25700000Y-18000000I700000J0D01*
G01*
%TO.C,TP2*%
X33700000Y-10500000D02*
G75*
G02*
X32300000Y-10500000I-700000J0D01*
G01*
X32300000Y-10500000D02*
G75*
G02*
X33700000Y-10500000I700000J0D01*
G01*
%TO.C,U1*%
X20390000Y-10890000D02*
X23610000Y-10890000D01*
X20390000Y-11090000D02*
X20390000Y-10890000D01*
X20390000Y-14110000D02*
X20390000Y-13910000D01*
X23610000Y-10890000D02*
X23610000Y-11090000D01*
X23610000Y-13910000D02*
X23610000Y-14110000D01*
X23610000Y-14110000D02*
X20390000Y-14110000D01*
X19860000Y-11520000D02*
X19530000Y-11760000D01*
X19530000Y-11280000D01*
X19860000Y-11520000D01*
G36*
X19860000Y-11520000D02*
G01*
X19530000Y-11760000D01*
X19530000Y-11280000D01*
X19860000Y-11520000D01*
G37*
%TO.C,TP4*%
X34700000Y-7000000D02*
G75*
G02*
X33300000Y-7000000I-700000J0D01*
G01*
X33300000Y-7000000D02*
G75*
G02*
X34700000Y-7000000I700000J0D01*
G01*
%TO.C,TP3*%
X32700000Y-5500000D02*
G75*
G02*
X31300000Y-5500000I-700000J0D01*
G01*
X31300000Y-5500000D02*
G75*
G02*
X32700000Y-5500000I700000J0D01*
G01*
%TO.C,TP5*%
X34700000Y-18000000D02*
G75*
G02*
X33300000Y-18000000I-700000J0D01*
G01*
X33300000Y-18000000D02*
G75*
G02*
X34700000Y-18000000I700000J0D01*
G01*
%TO.C,R6*%
X28237258Y-6977500D02*
X27762742Y-6977500D01*
X28237258Y-8022500D02*
X27762742Y-8022500D01*
%TO.C,R1*%
X28237258Y-12302500D02*
X27762742Y-12302500D01*
X28237258Y-13347500D02*
X27762742Y-13347500D01*
%TO.C,R5*%
X28237258Y-9977500D02*
X27762742Y-9977500D01*
X28237258Y-11022500D02*
X27762742Y-11022500D01*
%TO.C,C1*%
X17859420Y-7490000D02*
X18140580Y-7490000D01*
X17859420Y-8510000D02*
X18140580Y-8510000D01*
%TD*%
M02*
