%TF.GenerationSoftware,KiCad,Pcbnew,10.0.5*%
%TF.CreationDate,2026-08-16T13:14:08-04:00*%
%TF.ProjectId,hr30-swd-adapter-p0.1,68723330-2d73-4776-942d-616461707465,rev?*%
%TF.SameCoordinates,Original*%
%TF.FileFunction,Legend,Top*%
%TF.FilePolarity,Positive*%
%FSLAX46Y46*%
G04 Gerber Fmt 4.6, Leading zero omitted, Abs format (unit mm)*
G04 Created by KiCad (PCBNEW 10.0.5) date 2026-08-16 13:14:08*
%MOMM*%
%LPD*%
G01*
G04 APERTURE LIST*
%ADD10C,0.150000*%
%ADD11C,0.120000*%
G04 APERTURE END LIST*
D10*
X2228571Y-14962295D02*
X1771428Y-14962295D01*
X2000000Y-14962295D02*
X2000000Y-14162295D01*
X2000000Y-14162295D02*
X1923809Y-14276580D01*
X1923809Y-14276580D02*
X1847619Y-14352771D01*
X1847619Y-14352771D02*
X1771428Y-14390866D01*
X13257142Y-18324200D02*
X13371428Y-18362295D01*
X13371428Y-18362295D02*
X13561904Y-18362295D01*
X13561904Y-18362295D02*
X13638095Y-18324200D01*
X13638095Y-18324200D02*
X13676190Y-18286104D01*
X13676190Y-18286104D02*
X13714285Y-18209914D01*
X13714285Y-18209914D02*
X13714285Y-18133723D01*
X13714285Y-18133723D02*
X13676190Y-18057533D01*
X13676190Y-18057533D02*
X13638095Y-18019438D01*
X13638095Y-18019438D02*
X13561904Y-17981342D01*
X13561904Y-17981342D02*
X13409523Y-17943247D01*
X13409523Y-17943247D02*
X13333333Y-17905152D01*
X13333333Y-17905152D02*
X13295238Y-17867057D01*
X13295238Y-17867057D02*
X13257142Y-17790866D01*
X13257142Y-17790866D02*
X13257142Y-17714676D01*
X13257142Y-17714676D02*
X13295238Y-17638485D01*
X13295238Y-17638485D02*
X13333333Y-17600390D01*
X13333333Y-17600390D02*
X13409523Y-17562295D01*
X13409523Y-17562295D02*
X13600000Y-17562295D01*
X13600000Y-17562295D02*
X13714285Y-17600390D01*
X13980952Y-17562295D02*
X14171428Y-18362295D01*
X14171428Y-18362295D02*
X14323809Y-17790866D01*
X14323809Y-17790866D02*
X14476190Y-18362295D01*
X14476190Y-18362295D02*
X14666667Y-17562295D01*
X14971429Y-18362295D02*
X14971429Y-17562295D01*
X14971429Y-17562295D02*
X15161905Y-17562295D01*
X15161905Y-17562295D02*
X15276191Y-17600390D01*
X15276191Y-17600390D02*
X15352381Y-17676580D01*
X15352381Y-17676580D02*
X15390476Y-17752771D01*
X15390476Y-17752771D02*
X15428572Y-17905152D01*
X15428572Y-17905152D02*
X15428572Y-18019438D01*
X15428572Y-18019438D02*
X15390476Y-18171819D01*
X15390476Y-18171819D02*
X15352381Y-18248009D01*
X15352381Y-18248009D02*
X15276191Y-18324200D01*
X15276191Y-18324200D02*
X15161905Y-18362295D01*
X15161905Y-18362295D02*
X14971429Y-18362295D01*
X16380953Y-18362295D02*
X16380953Y-17562295D01*
X16380953Y-17562295D02*
X16685715Y-17562295D01*
X16685715Y-17562295D02*
X16761905Y-17600390D01*
X16761905Y-17600390D02*
X16800000Y-17638485D01*
X16800000Y-17638485D02*
X16838096Y-17714676D01*
X16838096Y-17714676D02*
X16838096Y-17828961D01*
X16838096Y-17828961D02*
X16800000Y-17905152D01*
X16800000Y-17905152D02*
X16761905Y-17943247D01*
X16761905Y-17943247D02*
X16685715Y-17981342D01*
X16685715Y-17981342D02*
X16380953Y-17981342D01*
X17333334Y-17562295D02*
X17409524Y-17562295D01*
X17409524Y-17562295D02*
X17485715Y-17600390D01*
X17485715Y-17600390D02*
X17523810Y-17638485D01*
X17523810Y-17638485D02*
X17561905Y-17714676D01*
X17561905Y-17714676D02*
X17600000Y-17867057D01*
X17600000Y-17867057D02*
X17600000Y-18057533D01*
X17600000Y-18057533D02*
X17561905Y-18209914D01*
X17561905Y-18209914D02*
X17523810Y-18286104D01*
X17523810Y-18286104D02*
X17485715Y-18324200D01*
X17485715Y-18324200D02*
X17409524Y-18362295D01*
X17409524Y-18362295D02*
X17333334Y-18362295D01*
X17333334Y-18362295D02*
X17257143Y-18324200D01*
X17257143Y-18324200D02*
X17219048Y-18286104D01*
X17219048Y-18286104D02*
X17180953Y-18209914D01*
X17180953Y-18209914D02*
X17142857Y-18057533D01*
X17142857Y-18057533D02*
X17142857Y-17867057D01*
X17142857Y-17867057D02*
X17180953Y-17714676D01*
X17180953Y-17714676D02*
X17219048Y-17638485D01*
X17219048Y-17638485D02*
X17257143Y-17600390D01*
X17257143Y-17600390D02*
X17333334Y-17562295D01*
X17942858Y-18286104D02*
X17980953Y-18324200D01*
X17980953Y-18324200D02*
X17942858Y-18362295D01*
X17942858Y-18362295D02*
X17904762Y-18324200D01*
X17904762Y-18324200D02*
X17942858Y-18286104D01*
X17942858Y-18286104D02*
X17942858Y-18362295D01*
X18742857Y-18362295D02*
X18285714Y-18362295D01*
X18514286Y-18362295D02*
X18514286Y-17562295D01*
X18514286Y-17562295D02*
X18438095Y-17676580D01*
X18438095Y-17676580D02*
X18361905Y-17752771D01*
X18361905Y-17752771D02*
X18285714Y-17790866D01*
%TO.C,J2*%
D11*
X21390000Y-13590000D02*
X21390000Y-6410000D01*
X24260000Y-5140000D02*
X25860000Y-5140000D01*
X24260000Y-14860000D02*
X25860000Y-14860000D01*
X25860000Y-5140000D02*
X25860000Y-6940000D01*
X25860000Y-13060000D02*
X26800000Y-13060000D01*
X25860000Y-14860000D02*
X25860000Y-13060000D01*
%TO.C,J1*%
D10*
X3450000Y-8180000D02*
X3450000Y-11820000D01*
X12550000Y-8180000D02*
X12550000Y-11820000D01*
%TD*%
M02*
