<svg xmlns="http://www.w3.org/2000/svg" viewBox="0 0 820 580" role="img"><style>text{font:18px Arial,sans-serif;fill:#0b315c}.title{font-size:28px;font-weight:700}.plate{fill:#d9f2ff;stroke:#0b315c;stroke-width:4}.opening{fill:white;stroke:#9b6800;stroke-width:3}.label{font-size:18px;font-weight:700}.note{font-size:18px}</style><rect width="820" height="580" fill="#f8fcff"/><text x="34" y="46" class="title">ATB connector-fit diagnostic coupon P0.1</text><rect x="100" y="68" width="620" height="420" rx="14" class="plate"/><rect x="166.0" y="84.0" width="108.0" height="72.0" class="opening"/><text x="162" y="183" class="label">13.5 x 9.0 mm</text><rect x="166.0" y="207.0" width="108.0" height="76.0" class="opening"/><text x="162" y="308" class="label">13.5 x 9.5 mm</text><rect x="166.0" y="330.0" width="108.0" height="80.0" class="opening"/><text x="162" y="433" class="label">13.5 x 10.0 mm</text><rect x="354.0" y="84.0" width="112.0" height="72.0" class="opening"/><text x="352" y="183" class="label">14.0 x 9.0 mm</text><rect x="354.0" y="207.0" width="112.0" height="76.0" class="opening"/><text x="352" y="308" class="label">14.0 x 9.5 mm</text><rect x="354.0" y="330.0" width="112.0" height="80.0" class="opening"/><text x="352" y="433" class="label">14.0 x 10.0 mm</text><rect x="542.0" y="84.0" width="116.0" height="72.0" class="opening"/><text x="542" y="183" class="label">14.5 x 9.0 mm</text><rect x="542.0" y="207.0" width="116.0" height="76.0" class="opening"/><text x="542" y="308" class="label">14.5 x 9.5 mm</text><rect x="542.0" y="330.0" width="116.0" height="80.0" class="opening"/><text x="542" y="433" class="label">14.5 x 10.0 mm</text><text x="34" y="522" class="note">Nine rectangular gross-clearance tests only.</text><text x="34" y="548" class="note">PRELIMINARY DIAGNOSTIC COUPON — NOT A PRODUCTION CUTOUT</text><text x="34" y="574" class="note">OR A FABRICATION / CONNECTOR-FIT RELEASE.</text></svg>