%TF.GenerationSoftware,KiCad,Pcbnew,10.0.5*%
%TF.CreationDate,2026-08-09T19:31:39-04:00*%
%TF.ProjectId,project-button-v3,70726f6a-6563-4742-9d62-7574746f6e2d,PCB-P0.9 / Electrical V3-P1.14*%
%TF.SameCoordinates,Original*%
%TF.FileFunction,Copper,L2,Bot*%
%TF.FilePolarity,Positive*%
%FSLAX46Y46*%
G04 Gerber Fmt 4.6, Leading zero omitted, Abs format (unit mm)*
G04 Created by KiCad (PCBNEW 10.0.5) date 2026-08-09 19:31:39*
%MOMM*%
%LPD*%
G01*
G04 APERTURE LIST*
G04 Aperture macros list*
%AMRoundRect*
0 Rectangle with rounded corners*
0 $1 Rounding radius*
0 $2 $3 $4 $5 $6 $7 $8 $9 X,Y pos of 4 corners*
0 Add a 4 corners polygon primitive as box body*
4,1,4,$2,$3,$4,$5,$6,$7,$8,$9,$2,$3,0*
0 Add four circle primitives for the rounded corners*
1,1,$1+$1,$2,$3*
1,1,$1+$1,$4,$5*
1,1,$1+$1,$6,$7*
1,1,$1+$1,$8,$9*
0 Add four rect primitives between the rounded corners*
20,1,$1+$1,$2,$3,$4,$5,0*
20,1,$1+$1,$4,$5,$6,$7,0*
20,1,$1+$1,$6,$7,$8,$9,0*
20,1,$1+$1,$8,$9,$2,$3,0*%
G04 Aperture macros list end*
%TA.AperFunction,ComponentPad*%
%ADD10RoundRect,0.252000X-0.798000X-0.798000X0.798000X-0.798000X0.798000X0.798000X-0.798000X0.798000X0*%
%TD*%
%TA.AperFunction,ComponentPad*%
%ADD11C,2.100000*%
%TD*%
%TA.AperFunction,ComponentPad*%
%ADD12R,1.500000X2.500000*%
%TD*%
%TA.AperFunction,ComponentPad*%
%ADD13O,1.500000X2.500000*%
%TD*%
%TA.AperFunction,ViaPad*%
%ADD14C,1.000000*%
%TD*%
%TA.AperFunction,ViaPad*%
%ADD15C,0.600000*%
%TD*%
%TA.AperFunction,ViaPad*%
%ADD16C,0.800000*%
%TD*%
%TA.AperFunction,Conductor*%
%ADD17C,0.500000*%
%TD*%
%TA.AperFunction,Conductor*%
%ADD18C,0.152400*%
%TD*%
%TA.AperFunction,Conductor*%
%ADD19C,0.250000*%
%TD*%
%TA.AperFunction,Conductor*%
%ADD20C,0.200000*%
%TD*%
%TA.AperFunction,Conductor*%
%ADD21C,0.750000*%
%TD*%
G04 APERTURE END LIST*
D10*
%TO.P,JWP1,1*%
%TO.N,SAFETY_24V*%
X30000000Y-34000000D03*
D11*
%TO.P,JWP1,2*%
%TO.N,SAFETY_0V*%
X33500000Y-34000000D03*
%TO.P,JWP1,3*%
%TO.N,WD1_COIL_N*%
X37000000Y-34000000D03*
%TO.P,JWP1,4*%
%TO.N,WD2_COIL_N*%
X40500000Y-34000000D03*
%TD*%
D10*
%TO.P,JWH1,1*%
%TO.N,PI_HEARTBEAT*%
X30000000Y-108000000D03*
D11*
%TO.P,JWH1,2*%
%TO.N,COMPUTE_0V*%
X33500000Y-108000000D03*
%TD*%
D12*
%TO.P,DC1,1*%
%TO.N,SAFETY_24V*%
X50000000Y-34000000D03*
D13*
%TO.P,DC1,2*%
%TO.N,SAFETY_0V*%
X52540000Y-34000000D03*
%TO.P,DC1,3*%
%TO.N,WD_5V*%
X55080000Y-34000000D03*
%TD*%
D10*
%TO.P,JWF1,1*%
%TO.N,WD1_NC_24V*%
X150000000Y-76000000D03*
D11*
%TO.P,JWF1,2*%
%TO.N,WD2_NC_24V*%
X153500000Y-76000000D03*
%TD*%
D14*
%TO.N,WD1_NC_24V*%
X132000000Y-68000000D03*
X147000000Y-74000000D03*
X147000000Y-68000000D03*
D15*
%TO.N,FB_SENSE2*%
X105500000Y-76953000D03*
X105500000Y-80138000D03*
D14*
%TO.N,SAFETY_0V*%
X106000000Y-68500000D03*
X141500000Y-86500000D03*
X93500000Y-68000000D03*
X83500000Y-72000000D03*
D16*
X100000000Y-70500000D03*
D14*
X87000000Y-38000000D03*
D16*
X92000000Y-72550000D03*
D14*
X119000000Y-38000000D03*
X40950000Y-65500000D03*
D16*
X95000000Y-79500000D03*
D14*
X70000000Y-102500000D03*
X106000000Y-82500000D03*
X141500000Y-65500000D03*
D16*
X103200000Y-83500000D03*
D15*
X104000000Y-75047500D03*
D14*
X93500000Y-88000000D03*
X76000000Y-38500000D03*
D16*
%TO.N,UFB_OUT1*%
X86000000Y-64000000D03*
X93000000Y-75683000D03*
D14*
%TO.N,WD2_NC_24V*%
X160000000Y-84000000D03*
X132000000Y-84000000D03*
X160000000Y-82000000D03*
D16*
%TO.N,WD1_DRIVE*%
X78000000Y-48000000D03*
X84000000Y-29500000D03*
X46030000Y-85000000D03*
%TO.N,WD_3V3*%
X44000000Y-58000000D03*
X44000000Y-46000000D03*
X118000000Y-46000000D03*
X54000000Y-104000000D03*
X92000000Y-74450000D03*
%TO.N,UFB_OUT2*%
X86000000Y-92000000D03*
X86000000Y-84000000D03*
X94000000Y-76317500D03*
D15*
%TO.N,INTENTIONALLY_UNUSED_UFB1_12*%
X104500000Y-76317500D03*
%TO.N,INTENTIONALLY_UNUSED_UFB1_13*%
X105000000Y-75200000D03*
D14*
%TO.N,WD2_COIL_N*%
X128500000Y-29500000D03*
X108000000Y-24000000D03*
D16*
%TO.N,WD_5V*%
X38410000Y-65500000D03*
%TO.N,WD_HEARTBEAT*%
X53000000Y-96000000D03*
X42000000Y-84000000D03*
%TO.N,WD2_NC_DIAG*%
X60000000Y-93500000D03*
X84000000Y-88000000D03*
X84000000Y-96000000D03*
X60000000Y-96000000D03*
%TO.N,WD_SWDIO*%
X88000000Y-69460000D03*
X96000000Y-60000000D03*
%TO.N,WD2_DRIVE*%
X108000000Y-50000000D03*
X48570000Y-86500000D03*
X116000000Y-29500000D03*
%TO.N,WD1_NC_DIAG*%
X56000000Y-79000000D03*
X82000000Y-68000000D03*
%TD*%
%TO.N,WD1_NC_24V*%
D17*
X147000000Y-68000000D02*
X147000000Y-74000000D01*
X132000000Y-68000000D02*
X142000000Y-68000000D01*
X142000000Y-68000000D02*
X147000000Y-68000000D01*
%TO.N,FB_SENSE2*%
D18*
X105500000Y-76953000D02*
X105500000Y-80138000D01*
%TO.N,UFB_OUT1*%
D19*
X86000000Y-75683000D02*
X86000000Y-64000000D01*
X93000000Y-75683000D02*
X86000000Y-75683000D01*
%TO.N,WD2_NC_24V*%
D17*
X132000000Y-84000000D02*
X142000000Y-84000000D01*
X160000000Y-84000000D02*
X160000000Y-82000000D01*
X142000000Y-84000000D02*
X160000000Y-84000000D01*
%TO.N,WD1_DRIVE*%
D19*
X84000000Y-48000000D02*
X84000000Y-29500000D01*
X46030000Y-48000000D02*
X78000000Y-48000000D01*
X46030000Y-85000000D02*
X46030000Y-48000000D01*
X78000000Y-48000000D02*
X84000000Y-48000000D01*
%TO.N,WD_3V3*%
X118000000Y-100000000D02*
X118000000Y-72500000D01*
X44000000Y-58000000D02*
X44000000Y-46000000D01*
X93500000Y-72500000D02*
X93500000Y-74450000D01*
X118000000Y-46000000D02*
X118000000Y-100000000D01*
X93500000Y-74450000D02*
X92000000Y-74450000D01*
X118000000Y-100000000D02*
X54000000Y-100000000D01*
X54000000Y-100000000D02*
X54000000Y-104000000D01*
X118000000Y-72500000D02*
X93500000Y-72500000D01*
%TO.N,UFB_OUT2*%
X94000000Y-77000000D02*
X86000000Y-77000000D01*
X94000000Y-76317500D02*
X94000000Y-77000000D01*
X86000000Y-84000000D02*
X86000000Y-92000000D01*
X86000000Y-77000000D02*
X86000000Y-84000000D01*
%TO.N,INTENTIONALLY_UNUSED_UFB1_12*%
D20*
X104500000Y-76317500D02*
X104000000Y-80500000D01*
X108000000Y-88000000D02*
X112000000Y-88000000D01*
X104000000Y-80500000D02*
X108000000Y-82000000D01*
X108000000Y-82000000D02*
X108000000Y-88000000D01*
%TO.N,INTENTIONALLY_UNUSED_UFB1_13*%
X105000000Y-75200000D02*
X112000000Y-75200000D01*
%TO.N,WD2_COIL_N*%
D21*
X40500000Y-34000000D02*
X40500000Y-24000000D01*
X128500000Y-24000000D02*
X128500000Y-29500000D01*
X40500000Y-24000000D02*
X128500000Y-24000000D01*
%TO.N,WD_5V*%
D19*
X32000000Y-65500000D02*
X38410000Y-65500000D01*
X60000000Y-44000000D02*
X32000000Y-44000000D01*
X32000000Y-44000000D02*
X32000000Y-65500000D01*
X55080000Y-34000000D02*
X60000000Y-34000000D01*
X60000000Y-34000000D02*
X60000000Y-44000000D01*
%TO.N,WD_HEARTBEAT*%
X53000000Y-96000000D02*
X42000000Y-96000000D01*
X42000000Y-96000000D02*
X42000000Y-84000000D01*
%TO.N,WD2_NC_DIAG*%
X84000000Y-88000000D02*
X84000000Y-96000000D01*
X60000000Y-96000000D02*
X60000000Y-93500000D01*
%TO.N,WD_SWDIO*%
X88000000Y-69460000D02*
X96000000Y-60000000D01*
%TO.N,WD2_DRIVE*%
X108000000Y-50000000D02*
X116000000Y-50000000D01*
X48570000Y-50000000D02*
X108000000Y-50000000D01*
X48570000Y-86500000D02*
X48570000Y-50000000D01*
X116000000Y-50000000D02*
X116000000Y-29500000D01*
%TO.N,WD1_NC_DIAG*%
X56000000Y-92000000D02*
X56000000Y-79000000D01*
X82000000Y-68000000D02*
X82000000Y-92000000D01*
X82000000Y-92000000D02*
X56000000Y-92000000D01*
%TD*%
%TA.AperFunction,Conductor*%
%TO.N,SAFETY_0V*%
G36*
X177893106Y-22005023D02*
G01*
X177908104Y-22009427D01*
X177966855Y-22047172D01*
X177968042Y-22048541D01*
X177995518Y-22103402D01*
X177997163Y-22110960D01*
X178000000Y-22137331D01*
X178000000Y-102858170D01*
X177994975Y-102893114D01*
X177990570Y-102908112D01*
X177952827Y-102966855D01*
X177951458Y-102968042D01*
X177896597Y-102995518D01*
X177889039Y-102997163D01*
X177862668Y-103000000D01*
X54517330Y-103000000D01*
X54482389Y-102994975D01*
X54467390Y-102990570D01*
X54408644Y-102952827D01*
X54407457Y-102951458D01*
X54379977Y-102896583D01*
X54378332Y-102889021D01*
X54375500Y-102862668D01*
X54375500Y-100517329D01*
X54380523Y-100482393D01*
X54384927Y-100467395D01*
X54422672Y-100408644D01*
X54424041Y-100407457D01*
X54478920Y-100379977D01*
X54486479Y-100378333D01*
X54512832Y-100375500D01*
X118049432Y-100375500D01*
X118049435Y-100375500D01*
X118144938Y-100349910D01*
X118230562Y-100300475D01*
X118300475Y-100230562D01*
X118349910Y-100144938D01*
X118375500Y-100049435D01*
X118375500Y-84047471D01*
X131244237Y-84047471D01*
X131278338Y-84218899D01*
X131278344Y-84218919D01*
X131334908Y-84355481D01*
X131334913Y-84355490D01*
X131334923Y-84355507D01*
X131417049Y-84478417D01*
X131417050Y-84478418D01*
X131417055Y-84478424D01*
X131521574Y-84582943D01*
X131521580Y-84582948D01*
X131521581Y-84582949D01*
X131521584Y-84582951D01*
X131644498Y-84665080D01*
X131644511Y-84665087D01*
X131709184Y-84691875D01*
X131775472Y-84719332D01*
X131779885Y-84721419D01*
X131926076Y-84750500D01*
X131926079Y-84750500D01*
X131926082Y-84750500D01*
X132073920Y-84750500D01*
X132171462Y-84731096D01*
X132218913Y-84721658D01*
X132355495Y-84665084D01*
X132478416Y-84582951D01*
X132511945Y-84549421D01*
X132540191Y-84528277D01*
X132563285Y-84515666D01*
X132622709Y-84500500D01*
X159369941Y-84500500D01*
X159404873Y-84505521D01*
X159430117Y-84512934D01*
X159482863Y-84544230D01*
X159521580Y-84582948D01*
X159521584Y-84582951D01*
X159644498Y-84665080D01*
X159644511Y-84665087D01*
X159709184Y-84691875D01*
X159775472Y-84719332D01*
X159779885Y-84721419D01*
X159926076Y-84750500D01*
X159926079Y-84750500D01*
X159926082Y-84750500D01*
X160073920Y-84750500D01*
X160171462Y-84731096D01*
X160218913Y-84721658D01*
X160355495Y-84665084D01*
X160478416Y-84582951D01*
X160582951Y-84478416D01*
X160665084Y-84355495D01*
X160721658Y-84218913D01*
X160735641Y-84148617D01*
X160750500Y-84073920D01*
X160750500Y-83926076D01*
X160721717Y-83781382D01*
X160721571Y-83780638D01*
X160721430Y-83779910D01*
X160719338Y-83775487D01*
X160665087Y-83644511D01*
X160665080Y-83644498D01*
X160582951Y-83521584D01*
X160582948Y-83521580D01*
X160582944Y-83521575D01*
X160549426Y-83488058D01*
X160528272Y-83459799D01*
X160515666Y-83436711D01*
X160500500Y-83377288D01*
X160500500Y-82630058D01*
X160505522Y-82595125D01*
X160512934Y-82569880D01*
X160544229Y-82517137D01*
X160582948Y-82478419D01*
X160582951Y-82478416D01*
X160665084Y-82355495D01*
X160721658Y-82218913D01*
X160750500Y-82073918D01*
X160750500Y-81926082D01*
X160750500Y-81926079D01*
X160750500Y-81926076D01*
X160721419Y-81779884D01*
X160719333Y-81775474D01*
X160705337Y-81741685D01*
X160705337Y-81741684D01*
X160678486Y-81676859D01*
X160665087Y-81644511D01*
X160665080Y-81644498D01*
X160582951Y-81521584D01*
X160582948Y-81521580D01*
X160582943Y-81521574D01*
X160478424Y-81417055D01*
X160478418Y-81417050D01*
X160478417Y-81417049D01*
X160355507Y-81334923D01*
X160355506Y-81334922D01*
X160355501Y-81334919D01*
X160355488Y-81334912D01*
X160355481Y-81334908D01*
X160218919Y-81278344D01*
X160218920Y-81278344D01*
X160218917Y-81278343D01*
X160218907Y-81278340D01*
X160218905Y-81278339D01*
X160218900Y-81278338D01*
X160073922Y-81249500D01*
X160073920Y-81249500D01*
X160073918Y-81249500D01*
X159926082Y-81249500D01*
X159926080Y-81249500D01*
X159926078Y-81249500D01*
X159781096Y-81278338D01*
X159781079Y-81278344D01*
X159644517Y-81334908D01*
X159644508Y-81334913D01*
X159644491Y-81334923D01*
X159521581Y-81417049D01*
X159521580Y-81417050D01*
X159521574Y-81417055D01*
X159417055Y-81521574D01*
X159417050Y-81521580D01*
X159417049Y-81521581D01*
X159334923Y-81644491D01*
X159334913Y-81644508D01*
X159334908Y-81644517D01*
X159278344Y-81781079D01*
X159278338Y-81781098D01*
X159249500Y-81926076D01*
X159249500Y-82029551D01*
X159244237Y-82047471D01*
X159278338Y-82218899D01*
X159278344Y-82218919D01*
X159334908Y-82355481D01*
X159334912Y-82355488D01*
X159334919Y-82355501D01*
X159417048Y-82478415D01*
X159417050Y-82478418D01*
X159417055Y-82478423D01*
X159450573Y-82511940D01*
X159471721Y-82540188D01*
X159484330Y-82563280D01*
X159499500Y-82622708D01*
X159499500Y-83357670D01*
X159494475Y-83392614D01*
X159490070Y-83407612D01*
X159452327Y-83466355D01*
X159450958Y-83467542D01*
X159396097Y-83495018D01*
X159388539Y-83496663D01*
X159362168Y-83499500D01*
X132630059Y-83499500D01*
X132595123Y-83494477D01*
X132569881Y-83487065D01*
X132517135Y-83455768D01*
X132498078Y-83436711D01*
X132478419Y-83417051D01*
X132478415Y-83417048D01*
X132355501Y-83334919D01*
X132355488Y-83334912D01*
X132355481Y-83334908D01*
X132218919Y-83278344D01*
X132218920Y-83278344D01*
X132218917Y-83278343D01*
X132218907Y-83278340D01*
X132218905Y-83278339D01*
X132218900Y-83278338D01*
X132073922Y-83249500D01*
X132073920Y-83249500D01*
X132073918Y-83249500D01*
X131926082Y-83249500D01*
X131926080Y-83249500D01*
X131926078Y-83249500D01*
X131781096Y-83278338D01*
X131781079Y-83278344D01*
X131644517Y-83334908D01*
X131644508Y-83334913D01*
X131644491Y-83334923D01*
X131521581Y-83417049D01*
X131521580Y-83417050D01*
X131521574Y-83417055D01*
X131417055Y-83521574D01*
X131417050Y-83521580D01*
X131417049Y-83521581D01*
X131334923Y-83644491D01*
X131334913Y-83644508D01*
X131334908Y-83644517D01*
X131278344Y-83781079D01*
X131278338Y-83781098D01*
X131249500Y-83926076D01*
X131249500Y-84029551D01*
X131244237Y-84047471D01*
X118375500Y-84047471D01*
X118375500Y-75153941D01*
X148699500Y-75153941D01*
X148699500Y-75153948D01*
X148699500Y-75153949D01*
X148699500Y-76846057D01*
X148699659Y-76847992D01*
X148699885Y-76849640D01*
X148705933Y-76905911D01*
X148705934Y-76905913D01*
X148756427Y-77041293D01*
X148756428Y-77041295D01*
X148756429Y-77041296D01*
X148756431Y-77041299D01*
X148762522Y-77049435D01*
X148843023Y-77156973D01*
X148843024Y-77156973D01*
X148843025Y-77156975D01*
X148958700Y-77243568D01*
X148958703Y-77243570D01*
X149003830Y-77260401D01*
X149094088Y-77294065D01*
X149153941Y-77300500D01*
X150846058Y-77300499D01*
X150905912Y-77294065D01*
X151041299Y-77243569D01*
X151156975Y-77156975D01*
X151243569Y-77041299D01*
X151243570Y-77041297D01*
X151243571Y-77041296D01*
X151268817Y-76973605D01*
X151294065Y-76905912D01*
X151300500Y-76846059D01*
X151300499Y-75897642D01*
X152199500Y-75897642D01*
X152199500Y-76102356D01*
X152231318Y-76303249D01*
X152231522Y-76304534D01*
X152236447Y-76319690D01*
X152294779Y-76499219D01*
X152294781Y-76499223D01*
X152318565Y-76545900D01*
X152377700Y-76661960D01*
X152387711Y-76681608D01*
X152387713Y-76681610D01*
X152387715Y-76681613D01*
X152508028Y-76847212D01*
X152508032Y-76847217D01*
X152652786Y-76991971D01*
X152787879Y-77090120D01*
X152818390Y-77112287D01*
X152922797Y-77165485D01*
X152981066Y-77195175D01*
X152994329Y-77201933D01*
X152995927Y-77202869D01*
X152999615Y-77204655D01*
X153001640Y-77205661D01*
X153005406Y-77206723D01*
X153024350Y-77212878D01*
X153078774Y-77230561D01*
X153078775Y-77230562D01*
X153118804Y-77243568D01*
X153195465Y-77268477D01*
X153296557Y-77284488D01*
X153397648Y-77300500D01*
X153397649Y-77300500D01*
X153602351Y-77300500D01*
X153602352Y-77300500D01*
X153804534Y-77268477D01*
X153999219Y-77205220D01*
X154181610Y-77112287D01*
X154238204Y-77071168D01*
X154279323Y-77041296D01*
X154347201Y-76991980D01*
X154347270Y-76991929D01*
X154348032Y-76991152D01*
X154485750Y-76853434D01*
X154486383Y-76852886D01*
X154491606Y-76847583D01*
X154491962Y-76847223D01*
X154491966Y-76847219D01*
X154491968Y-76847215D01*
X154491972Y-76847212D01*
X154599270Y-76699526D01*
X154612287Y-76681610D01*
X154705220Y-76499219D01*
X154768477Y-76304534D01*
X154800500Y-76102352D01*
X154800500Y-75897648D01*
X154775694Y-75741033D01*
X154768477Y-75695465D01*
X154728023Y-75570963D01*
X154722946Y-75555336D01*
X154722943Y-75555329D01*
X154722940Y-75555319D01*
X154706719Y-75505395D01*
X154705659Y-75501636D01*
X154704663Y-75499632D01*
X154702868Y-75495927D01*
X154701935Y-75494332D01*
X154660231Y-75412485D01*
X154612287Y-75318390D01*
X154577988Y-75271181D01*
X154491971Y-75152786D01*
X154347213Y-75008028D01*
X154347212Y-75008027D01*
X154347211Y-75008026D01*
X154189507Y-74893450D01*
X154189168Y-74893161D01*
X154181603Y-74887707D01*
X154181239Y-74887524D01*
X154148465Y-74870825D01*
X154106613Y-74849500D01*
X154106613Y-74849499D01*
X154106611Y-74849499D01*
X153999228Y-74794783D01*
X153999221Y-74794780D01*
X153890610Y-74759490D01*
X153804534Y-74731522D01*
X153804532Y-74731521D01*
X153804530Y-74731521D01*
X153804529Y-74731520D01*
X153629995Y-74703878D01*
X153613409Y-74701251D01*
X153602354Y-74699500D01*
X153602352Y-74699500D01*
X153397648Y-74699500D01*
X153397647Y-74699500D01*
X153373327Y-74703351D01*
X153373326Y-74703350D01*
X153195468Y-74731521D01*
X153000777Y-74794780D01*
X153000764Y-74794786D01*
X152818397Y-74887708D01*
X152818385Y-74887715D01*
X152652787Y-75008027D01*
X152652784Y-75008029D01*
X152508029Y-75152784D01*
X152508027Y-75152787D01*
X152387715Y-75318385D01*
X152387708Y-75318397D01*
X152294786Y-75500764D01*
X152294780Y-75500777D01*
X152231521Y-75695468D01*
X152199500Y-75897642D01*
X151300499Y-75897642D01*
X151300499Y-75153942D01*
X151294065Y-75094088D01*
X151283108Y-75064712D01*
X151282140Y-75062117D01*
X151243572Y-74958707D01*
X151243570Y-74958705D01*
X151243570Y-74958703D01*
X151243568Y-74958700D01*
X151214248Y-74919533D01*
X151156975Y-74843025D01*
X151041299Y-74756431D01*
X151041296Y-74756429D01*
X151041293Y-74756428D01*
X151041292Y-74756427D01*
X150908008Y-74706716D01*
X150904991Y-74705529D01*
X150899299Y-74705224D01*
X150846068Y-74699501D01*
X150846059Y-74699500D01*
X150846049Y-74699500D01*
X149153937Y-74699500D01*
X149152004Y-74699659D01*
X149150358Y-74699885D01*
X149094087Y-74705933D01*
X149094085Y-74705934D01*
X148958704Y-74756428D01*
X148958701Y-74756430D01*
X148843025Y-74843025D01*
X148756430Y-74958701D01*
X148756427Y-74958705D01*
X148712867Y-75075497D01*
X148712868Y-75075498D01*
X148712867Y-75075501D01*
X148705935Y-75094088D01*
X148699500Y-75153941D01*
X118375500Y-75153941D01*
X118375500Y-68047471D01*
X131244237Y-68047471D01*
X131278338Y-68218899D01*
X131278344Y-68218919D01*
X131334908Y-68355481D01*
X131334913Y-68355490D01*
X131334923Y-68355507D01*
X131417044Y-68478409D01*
X131417050Y-68478418D01*
X131417055Y-68478424D01*
X131521574Y-68582943D01*
X131521580Y-68582948D01*
X131521584Y-68582951D01*
X131644498Y-68665080D01*
X131644511Y-68665087D01*
X131775487Y-68719338D01*
X131779910Y-68721430D01*
X131780638Y-68721571D01*
X131781382Y-68721717D01*
X131926077Y-68750500D01*
X131926079Y-68750500D01*
X131926082Y-68750500D01*
X132073920Y-68750500D01*
X132171462Y-68731096D01*
X132218913Y-68721658D01*
X132355495Y-68665084D01*
X132478416Y-68582951D01*
X132511945Y-68549421D01*
X132540191Y-68528277D01*
X132563285Y-68515666D01*
X132622709Y-68500500D01*
X146357670Y-68500500D01*
X146392606Y-68505523D01*
X146407604Y-68509927D01*
X146466355Y-68547672D01*
X146467542Y-68549041D01*
X146495018Y-68603902D01*
X146496663Y-68611460D01*
X146499500Y-68637831D01*
X146499500Y-73369940D01*
X146494476Y-73404877D01*
X146487064Y-73430118D01*
X146455769Y-73482862D01*
X146417056Y-73521574D01*
X146417048Y-73521583D01*
X146417045Y-73521588D01*
X146334923Y-73644491D01*
X146334913Y-73644508D01*
X146334908Y-73644517D01*
X146278344Y-73781079D01*
X146278338Y-73781098D01*
X146249500Y-73926076D01*
X146249500Y-74029551D01*
X146244237Y-74047471D01*
X146278338Y-74218899D01*
X146278344Y-74218919D01*
X146334908Y-74355481D01*
X146334913Y-74355490D01*
X146334923Y-74355507D01*
X146417049Y-74478417D01*
X146417050Y-74478418D01*
X146417055Y-74478424D01*
X146521574Y-74582943D01*
X146521580Y-74582948D01*
X146521584Y-74582951D01*
X146644498Y-74665080D01*
X146644511Y-74665087D01*
X146775487Y-74719338D01*
X146779910Y-74721430D01*
X146780638Y-74721571D01*
X146781382Y-74721717D01*
X146926077Y-74750500D01*
X146926079Y-74750500D01*
X146926082Y-74750500D01*
X147073920Y-74750500D01*
X147171462Y-74731096D01*
X147218913Y-74721658D01*
X147355495Y-74665084D01*
X147478416Y-74582951D01*
X147582951Y-74478416D01*
X147665084Y-74355495D01*
X147721658Y-74218913D01*
X147736984Y-74141866D01*
X147745980Y-74096641D01*
X147750500Y-74073921D01*
X147750500Y-73926076D01*
X147721717Y-73781382D01*
X147721571Y-73780638D01*
X147721430Y-73779910D01*
X147719338Y-73775487D01*
X147665087Y-73644511D01*
X147665080Y-73644498D01*
X147582951Y-73521584D01*
X147582948Y-73521580D01*
X147582944Y-73521575D01*
X147549426Y-73488058D01*
X147528272Y-73459799D01*
X147525547Y-73454809D01*
X147524238Y-73452410D01*
X147515666Y-73436711D01*
X147500500Y-73377288D01*
X147500500Y-68630058D01*
X147505522Y-68595125D01*
X147512934Y-68569880D01*
X147544229Y-68517137D01*
X147582948Y-68478419D01*
X147582951Y-68478416D01*
X147665084Y-68355495D01*
X147721658Y-68218913D01*
X147735641Y-68148617D01*
X147750500Y-68073920D01*
X147750500Y-67926076D01*
X147721717Y-67781382D01*
X147721571Y-67780638D01*
X147721430Y-67779910D01*
X147719338Y-67775487D01*
X147665087Y-67644511D01*
X147665080Y-67644498D01*
X147582951Y-67521584D01*
X147582948Y-67521580D01*
X147582943Y-67521574D01*
X147478424Y-67417055D01*
X147478418Y-67417050D01*
X147478417Y-67417049D01*
X147355507Y-67334923D01*
X147355506Y-67334922D01*
X147355501Y-67334919D01*
X147355488Y-67334912D01*
X147355481Y-67334908D01*
X147218919Y-67278344D01*
X147218920Y-67278344D01*
X147218917Y-67278343D01*
X147218907Y-67278340D01*
X147218905Y-67278339D01*
X147218900Y-67278338D01*
X147073922Y-67249500D01*
X147073920Y-67249500D01*
X147073918Y-67249500D01*
X146926082Y-67249500D01*
X146926080Y-67249500D01*
X146926078Y-67249500D01*
X146781096Y-67278338D01*
X146781079Y-67278344D01*
X146644517Y-67334908D01*
X146644508Y-67334913D01*
X146644491Y-67334923D01*
X146521588Y-67417045D01*
X146521579Y-67417051D01*
X146521571Y-67417058D01*
X146488057Y-67450574D01*
X146459805Y-67471724D01*
X146436720Y-67484330D01*
X146377291Y-67499500D01*
X132630059Y-67499500D01*
X132595123Y-67494477D01*
X132569881Y-67487065D01*
X132517135Y-67455768D01*
X132478423Y-67417055D01*
X132478422Y-67417054D01*
X132478419Y-67417051D01*
X132478415Y-67417048D01*
X132355501Y-67334919D01*
X132355488Y-67334912D01*
X132355481Y-67334908D01*
X132218919Y-67278344D01*
X132218920Y-67278344D01*
X132218917Y-67278343D01*
X132218907Y-67278340D01*
X132218905Y-67278339D01*
X132218900Y-67278338D01*
X132073922Y-67249500D01*
X132073920Y-67249500D01*
X132073918Y-67249500D01*
X131926082Y-67249500D01*
X131926080Y-67249500D01*
X131926078Y-67249500D01*
X131781096Y-67278338D01*
X131781079Y-67278344D01*
X131644517Y-67334908D01*
X131644508Y-67334913D01*
X131644491Y-67334923D01*
X131521581Y-67417049D01*
X131521580Y-67417050D01*
X131521574Y-67417055D01*
X131417055Y-67521574D01*
X131417050Y-67521580D01*
X131417049Y-67521581D01*
X131334923Y-67644491D01*
X131334913Y-67644508D01*
X131334908Y-67644517D01*
X131278344Y-67781079D01*
X131278338Y-67781098D01*
X131249500Y-67926076D01*
X131249500Y-68029551D01*
X131244237Y-68047471D01*
X118375500Y-68047471D01*
X118375500Y-46613636D01*
X118380522Y-46578703D01*
X118387934Y-46553458D01*
X118419229Y-46500715D01*
X118505276Y-46414669D01*
X118576465Y-46308127D01*
X118625501Y-46189744D01*
X118650500Y-46064069D01*
X118650500Y-45935931D01*
X118650500Y-45935928D01*
X118650500Y-45935925D01*
X118625262Y-45809055D01*
X118623176Y-45804644D01*
X118576465Y-45691875D01*
X118576465Y-45691873D01*
X118576464Y-45691872D01*
X118576463Y-45691870D01*
X118576463Y-45691869D01*
X118505274Y-45585328D01*
X118505273Y-45585327D01*
X118505268Y-45585321D01*
X118414677Y-45494730D01*
X118414671Y-45494725D01*
X118414670Y-45494724D01*
X118308127Y-45423534D01*
X118308128Y-45423534D01*
X118308118Y-45423529D01*
X118189753Y-45374502D01*
X118189733Y-45374495D01*
X118189725Y-45374493D01*
X118064074Y-45349500D01*
X118064071Y-45349500D01*
X118064069Y-45349500D01*
X117935931Y-45349500D01*
X117935929Y-45349500D01*
X117935926Y-45349500D01*
X117810273Y-45374493D01*
X117810265Y-45374495D01*
X117810245Y-45374502D01*
X117691880Y-45423529D01*
X117691870Y-45423534D01*
X117585328Y-45494724D01*
X117585327Y-45494725D01*
X117585321Y-45494730D01*
X117494730Y-45585321D01*
X117494725Y-45585327D01*
X117494724Y-45585328D01*
X117423534Y-45691870D01*
X117423529Y-45691880D01*
X117374502Y-45810245D01*
X117374495Y-45810265D01*
X117374493Y-45810273D01*
X117349500Y-45935923D01*
X117349500Y-46019702D01*
X117344237Y-46037622D01*
X117374494Y-46189726D01*
X117374495Y-46189732D01*
X117374502Y-46189753D01*
X117423529Y-46308118D01*
X117423534Y-46308128D01*
X117494721Y-46414666D01*
X117575575Y-46495520D01*
X117596726Y-46523774D01*
X117609332Y-46546860D01*
X117624500Y-46606287D01*
X117624500Y-71982670D01*
X117619475Y-72017614D01*
X117615070Y-72032612D01*
X117577327Y-72091355D01*
X117575958Y-72092542D01*
X117521097Y-72120018D01*
X117513539Y-72121663D01*
X117487168Y-72124500D01*
X93450565Y-72124500D01*
X93355060Y-72150090D01*
X93269439Y-72199523D01*
X93269433Y-72199528D01*
X93199528Y-72269433D01*
X93199523Y-72269439D01*
X93150090Y-72355060D01*
X93124500Y-72450565D01*
X93124500Y-73932670D01*
X93119475Y-73967612D01*
X93118353Y-73971431D01*
X93115070Y-73982612D01*
X93077327Y-74041355D01*
X93075958Y-74042542D01*
X93021097Y-74070018D01*
X93013539Y-74071663D01*
X92987168Y-74074500D01*
X92613638Y-74074500D01*
X92578702Y-74069477D01*
X92553460Y-74062065D01*
X92500716Y-74030770D01*
X92414672Y-73944726D01*
X92414671Y-73944725D01*
X92414670Y-73944724D01*
X92308127Y-73873534D01*
X92308128Y-73873534D01*
X92308118Y-73873529D01*
X92189753Y-73824502D01*
X92189733Y-73824495D01*
X92189725Y-73824493D01*
X92064074Y-73799500D01*
X92064071Y-73799500D01*
X92064069Y-73799500D01*
X91935931Y-73799500D01*
X91935929Y-73799500D01*
X91935926Y-73799500D01*
X91810273Y-73824493D01*
X91810265Y-73824495D01*
X91810245Y-73824502D01*
X91691880Y-73873529D01*
X91691870Y-73873534D01*
X91585328Y-73944724D01*
X91585327Y-73944725D01*
X91585321Y-73944730D01*
X91494730Y-74035321D01*
X91494725Y-74035327D01*
X91494724Y-74035328D01*
X91423537Y-74141867D01*
X91423532Y-74141875D01*
X91374502Y-74260245D01*
X91374495Y-74260265D01*
X91374493Y-74260273D01*
X91349500Y-74385923D01*
X91349500Y-74469702D01*
X91344237Y-74487622D01*
X91374494Y-74639726D01*
X91374495Y-74639732D01*
X91374502Y-74639753D01*
X91423529Y-74758118D01*
X91423534Y-74758128D01*
X91494724Y-74864670D01*
X91494725Y-74864671D01*
X91494730Y-74864677D01*
X91585321Y-74955268D01*
X91585327Y-74955273D01*
X91585331Y-74955276D01*
X91691866Y-75026461D01*
X91691871Y-75026464D01*
X91691870Y-75026464D01*
X91691880Y-75026469D01*
X91777943Y-75062117D01*
X91808292Y-75080123D01*
X91815298Y-75085768D01*
X91855147Y-75143158D01*
X91857643Y-75212983D01*
X91821993Y-75273073D01*
X91766023Y-75302995D01*
X91761036Y-75304174D01*
X91732507Y-75307500D01*
X86517330Y-75307500D01*
X86482389Y-75302475D01*
X86467390Y-75298070D01*
X86408644Y-75260327D01*
X86407457Y-75258958D01*
X86379977Y-75204083D01*
X86378332Y-75196521D01*
X86375500Y-75170168D01*
X86375500Y-69497622D01*
X87344237Y-69497622D01*
X87374494Y-69649726D01*
X87374495Y-69649732D01*
X87374502Y-69649753D01*
X87423529Y-69768118D01*
X87423534Y-69768128D01*
X87494724Y-69874670D01*
X87494725Y-69874671D01*
X87494730Y-69874677D01*
X87585321Y-69965268D01*
X87585327Y-69965273D01*
X87585328Y-69965274D01*
X87691869Y-70036463D01*
X87691872Y-70036464D01*
X87691873Y-70036465D01*
X87804651Y-70083179D01*
X87809053Y-70085261D01*
X87810252Y-70085499D01*
X87810256Y-70085501D01*
X87810259Y-70085501D01*
X87810260Y-70085501D01*
X87810261Y-70085502D01*
X87907899Y-70104924D01*
X87935927Y-70110500D01*
X88064071Y-70110500D01*
X88064073Y-70110500D01*
X88148615Y-70093682D01*
X88189744Y-70085501D01*
X88308127Y-70036465D01*
X88414669Y-69965276D01*
X88505276Y-69874669D01*
X88576465Y-69768127D01*
X88625501Y-69649744D01*
X88650500Y-69524069D01*
X88650500Y-69395931D01*
X88650500Y-69395928D01*
X88645730Y-69371954D01*
X88643840Y-69336704D01*
X88645954Y-69313083D01*
X88663001Y-69260555D01*
X88663977Y-69258921D01*
X88675744Y-69242447D01*
X95893004Y-60708039D01*
X95919389Y-60684614D01*
X95939996Y-60671018D01*
X95990417Y-60651816D01*
X95990442Y-60651812D01*
X95990576Y-60651793D01*
X96008438Y-60650500D01*
X96064073Y-60650500D01*
X96148615Y-60633682D01*
X96189744Y-60625501D01*
X96308127Y-60576465D01*
X96414669Y-60505276D01*
X96505276Y-60414669D01*
X96576465Y-60308127D01*
X96625501Y-60189744D01*
X96642252Y-60105534D01*
X96650500Y-60064071D01*
X96650500Y-59935928D01*
X96650500Y-59935925D01*
X96625262Y-59809055D01*
X96623176Y-59804644D01*
X96576465Y-59691875D01*
X96576465Y-59691873D01*
X96576464Y-59691872D01*
X96576463Y-59691870D01*
X96576463Y-59691869D01*
X96505274Y-59585328D01*
X96505273Y-59585327D01*
X96505268Y-59585321D01*
X96414677Y-59494730D01*
X96414671Y-59494725D01*
X96414670Y-59494724D01*
X96308127Y-59423534D01*
X96308128Y-59423534D01*
X96308118Y-59423529D01*
X96189753Y-59374502D01*
X96189733Y-59374495D01*
X96189725Y-59374493D01*
X96064074Y-59349500D01*
X96064071Y-59349500D01*
X96064069Y-59349500D01*
X95935931Y-59349500D01*
X95935929Y-59349500D01*
X95935926Y-59349500D01*
X95810273Y-59374493D01*
X95810265Y-59374495D01*
X95810245Y-59374502D01*
X95691880Y-59423529D01*
X95691870Y-59423534D01*
X95585328Y-59494724D01*
X95585327Y-59494725D01*
X95585321Y-59494730D01*
X95494730Y-59585321D01*
X95494725Y-59585327D01*
X95494724Y-59585328D01*
X95423534Y-59691870D01*
X95423529Y-59691880D01*
X95374502Y-59810245D01*
X95374495Y-59810265D01*
X95374493Y-59810273D01*
X95349500Y-59935923D01*
X95349500Y-60064077D01*
X95354268Y-60088046D01*
X95356157Y-60123289D01*
X95354043Y-60146913D01*
X95337005Y-60199427D01*
X95336036Y-60201050D01*
X95324251Y-60217554D01*
X88106997Y-68751957D01*
X88080603Y-68775389D01*
X88060007Y-68788978D01*
X88010456Y-68808052D01*
X88010299Y-68808076D01*
X87991561Y-68809500D01*
X87935926Y-68809500D01*
X87810273Y-68834493D01*
X87810265Y-68834495D01*
X87810245Y-68834502D01*
X87691880Y-68883529D01*
X87691870Y-68883534D01*
X87585328Y-68954724D01*
X87585327Y-68954725D01*
X87585321Y-68954730D01*
X87494730Y-69045321D01*
X87494725Y-69045327D01*
X87494724Y-69045328D01*
X87423534Y-69151870D01*
X87423529Y-69151880D01*
X87374502Y-69270245D01*
X87374495Y-69270265D01*
X87374493Y-69270273D01*
X87349500Y-69395923D01*
X87349500Y-69479702D01*
X87344237Y-69497622D01*
X86375500Y-69497622D01*
X86375500Y-64613636D01*
X86380522Y-64578703D01*
X86387934Y-64553458D01*
X86419229Y-64500715D01*
X86505276Y-64414669D01*
X86576465Y-64308127D01*
X86625501Y-64189744D01*
X86650500Y-64064069D01*
X86650500Y-63935931D01*
X86650500Y-63935928D01*
X86650500Y-63935925D01*
X86625262Y-63809055D01*
X86623176Y-63804644D01*
X86576465Y-63691875D01*
X86576465Y-63691873D01*
X86576464Y-63691872D01*
X86576463Y-63691870D01*
X86576463Y-63691869D01*
X86505274Y-63585328D01*
X86505273Y-63585327D01*
X86505268Y-63585321D01*
X86414677Y-63494730D01*
X86414671Y-63494725D01*
X86414670Y-63494724D01*
X86308127Y-63423534D01*
X86308128Y-63423534D01*
X86308118Y-63423529D01*
X86189753Y-63374502D01*
X86189733Y-63374495D01*
X86189725Y-63374493D01*
X86064074Y-63349500D01*
X86064071Y-63349500D01*
X86064069Y-63349500D01*
X85935931Y-63349500D01*
X85935929Y-63349500D01*
X85935926Y-63349500D01*
X85810273Y-63374493D01*
X85810265Y-63374495D01*
X85810245Y-63374502D01*
X85691880Y-63423529D01*
X85691870Y-63423534D01*
X85585328Y-63494724D01*
X85585327Y-63494725D01*
X85585321Y-63494730D01*
X85494730Y-63585321D01*
X85494725Y-63585327D01*
X85494724Y-63585328D01*
X85423534Y-63691870D01*
X85423529Y-63691880D01*
X85374502Y-63810245D01*
X85374495Y-63810265D01*
X85374493Y-63810273D01*
X85349500Y-63935923D01*
X85349500Y-64019702D01*
X85344237Y-64037622D01*
X85374494Y-64189726D01*
X85374495Y-64189732D01*
X85374502Y-64189753D01*
X85423529Y-64308118D01*
X85423534Y-64308128D01*
X85494721Y-64414666D01*
X85575575Y-64495520D01*
X85596726Y-64523774D01*
X85609332Y-64546860D01*
X85624500Y-64606287D01*
X85624500Y-75633565D01*
X85624500Y-75732435D01*
X85650090Y-75827938D01*
X85699525Y-75913562D01*
X85769438Y-75983475D01*
X85855062Y-76032910D01*
X85950565Y-76058500D01*
X92386362Y-76058500D01*
X92421294Y-76063521D01*
X92446538Y-76070934D01*
X92499282Y-76102228D01*
X92545032Y-76147978D01*
X92585328Y-76188274D01*
X92691869Y-76259463D01*
X92691872Y-76259464D01*
X92691873Y-76259465D01*
X92804651Y-76306179D01*
X92809055Y-76308262D01*
X92810260Y-76308501D01*
X92810261Y-76308502D01*
X92826222Y-76311677D01*
X92935926Y-76333500D01*
X93064071Y-76333500D01*
X93064072Y-76333500D01*
X93092013Y-76327941D01*
X93165471Y-76313329D01*
X93176227Y-76311677D01*
X93196403Y-76309479D01*
X93196404Y-76309480D01*
X93215682Y-76307380D01*
X93284457Y-76319690D01*
X93335659Y-76367229D01*
X93341257Y-76376634D01*
X93356321Y-76415863D01*
X93364866Y-76458819D01*
X93366756Y-76494064D01*
X93365519Y-76507888D01*
X93339937Y-76572906D01*
X93283276Y-76613769D01*
X93272893Y-76617433D01*
X93231629Y-76624500D01*
X85950565Y-76624500D01*
X85855060Y-76650090D01*
X85769439Y-76699523D01*
X85769433Y-76699528D01*
X85699528Y-76769433D01*
X85699523Y-76769439D01*
X85650090Y-76855060D01*
X85624500Y-76950565D01*
X85624500Y-83386362D01*
X85619476Y-83421301D01*
X85612064Y-83446541D01*
X85580769Y-83499283D01*
X85494730Y-83585321D01*
X85494725Y-83585327D01*
X85494724Y-83585328D01*
X85423534Y-83691870D01*
X85423529Y-83691880D01*
X85374502Y-83810245D01*
X85374495Y-83810265D01*
X85374493Y-83810273D01*
X85349500Y-83935923D01*
X85349500Y-84019702D01*
X85344237Y-84037622D01*
X85374494Y-84189726D01*
X85374495Y-84189732D01*
X85374502Y-84189753D01*
X85423529Y-84308118D01*
X85423534Y-84308128D01*
X85494721Y-84414666D01*
X85575575Y-84495520D01*
X85596726Y-84523774D01*
X85609332Y-84546860D01*
X85624500Y-84606287D01*
X85624500Y-91386362D01*
X85619476Y-91421301D01*
X85612064Y-91446541D01*
X85580769Y-91499283D01*
X85494730Y-91585321D01*
X85494725Y-91585327D01*
X85494724Y-91585328D01*
X85423534Y-91691870D01*
X85423529Y-91691880D01*
X85374502Y-91810245D01*
X85374495Y-91810265D01*
X85374493Y-91810273D01*
X85349500Y-91935923D01*
X85349500Y-92019702D01*
X85344237Y-92037622D01*
X85374494Y-92189726D01*
X85374495Y-92189732D01*
X85374502Y-92189753D01*
X85423529Y-92308118D01*
X85423534Y-92308128D01*
X85494724Y-92414670D01*
X85494725Y-92414671D01*
X85494730Y-92414677D01*
X85585321Y-92505268D01*
X85585327Y-92505273D01*
X85585328Y-92505274D01*
X85691869Y-92576463D01*
X85691872Y-92576464D01*
X85691873Y-92576465D01*
X85804651Y-92623179D01*
X85809053Y-92625261D01*
X85810252Y-92625499D01*
X85810256Y-92625501D01*
X85810259Y-92625501D01*
X85810260Y-92625501D01*
X85810261Y-92625502D01*
X85907899Y-92644924D01*
X85935927Y-92650500D01*
X86064071Y-92650500D01*
X86064073Y-92650500D01*
X86148615Y-92633682D01*
X86189744Y-92625501D01*
X86308127Y-92576465D01*
X86414669Y-92505276D01*
X86505276Y-92414669D01*
X86576465Y-92308127D01*
X86625501Y-92189744D01*
X86650500Y-92064069D01*
X86650500Y-91935931D01*
X86650500Y-91935928D01*
X86650500Y-91935925D01*
X86625262Y-91809055D01*
X86623176Y-91804644D01*
X86576465Y-91691875D01*
X86576465Y-91691873D01*
X86576464Y-91691872D01*
X86576463Y-91691870D01*
X86576463Y-91691869D01*
X86505274Y-91585328D01*
X86471957Y-91552011D01*
X86424422Y-91504476D01*
X86403272Y-91476221D01*
X86400547Y-91471231D01*
X86399238Y-91468832D01*
X86390666Y-91453133D01*
X86375500Y-91393710D01*
X86375500Y-84613636D01*
X86380522Y-84578703D01*
X86387934Y-84553458D01*
X86419229Y-84500715D01*
X86505276Y-84414669D01*
X86576465Y-84308127D01*
X86625501Y-84189744D01*
X86633682Y-84148615D01*
X86650500Y-84064071D01*
X86650500Y-83935928D01*
X86650500Y-83935925D01*
X86625262Y-83809055D01*
X86623176Y-83804644D01*
X86613420Y-83781092D01*
X86576465Y-83691873D01*
X86576464Y-83691872D01*
X86576463Y-83691870D01*
X86576463Y-83691869D01*
X86505274Y-83585328D01*
X86505267Y-83585321D01*
X86424422Y-83504476D01*
X86403272Y-83476221D01*
X86400547Y-83471231D01*
X86397885Y-83466355D01*
X86390666Y-83453133D01*
X86375500Y-83393710D01*
X86375500Y-80506639D01*
X103646496Y-80506639D01*
X103646501Y-80506769D01*
X103646524Y-80507808D01*
X103646524Y-80507817D01*
X103646525Y-80507830D01*
X103646540Y-80508505D01*
X103646552Y-80509351D01*
X103646628Y-80510904D01*
X103646668Y-80511898D01*
X103646678Y-80511994D01*
X103653085Y-80550503D01*
X103653110Y-80550656D01*
X103653171Y-80551024D01*
X103653261Y-80551562D01*
X103653507Y-80553097D01*
X103653713Y-80554431D01*
X103653903Y-80555702D01*
X103659636Y-80595568D01*
X103659648Y-80595622D01*
X103660108Y-80597321D01*
X103660272Y-80597950D01*
X103660358Y-80598238D01*
X103660854Y-80599930D01*
X103661052Y-80600621D01*
X103661385Y-80601651D01*
X103661797Y-80602965D01*
X103661825Y-80603040D01*
X103678473Y-80639666D01*
X103679003Y-80640846D01*
X103679563Y-80642113D01*
X103680102Y-80643354D01*
X103695965Y-80680394D01*
X103696896Y-80681963D01*
X103697180Y-80682508D01*
X103697241Y-80682605D01*
X103698635Y-80684896D01*
X103698697Y-80685000D01*
X103699044Y-80685495D01*
X103700007Y-80687039D01*
X103700009Y-80687042D01*
X103700011Y-80687045D01*
X103726023Y-80718663D01*
X103727731Y-80720787D01*
X103753018Y-80752941D01*
X103754308Y-80754200D01*
X103754722Y-80754651D01*
X103754823Y-80754745D01*
X103756796Y-80756629D01*
X103756869Y-80756700D01*
X103757319Y-80757077D01*
X103758641Y-80758312D01*
X103758642Y-80758312D01*
X103758644Y-80758315D01*
X103791994Y-80782152D01*
X103794117Y-80783705D01*
X103826899Y-80808246D01*
X103826904Y-80808248D01*
X103828460Y-80809122D01*
X103828966Y-80809444D01*
X103829096Y-80809513D01*
X103831494Y-80810826D01*
X103831599Y-80810885D01*
X103832139Y-80811136D01*
X103833727Y-80811982D01*
X103872042Y-80826350D01*
X103874588Y-80827337D01*
X103912573Y-80842543D01*
X103912578Y-80842545D01*
X103912583Y-80842545D01*
X103914320Y-80842989D01*
X103927197Y-80847033D01*
X107047130Y-82017008D01*
X107198895Y-82073920D01*
X107552346Y-82206464D01*
X107583289Y-82223431D01*
X107595787Y-82232821D01*
X107637561Y-82288826D01*
X107637561Y-82288827D01*
X107641757Y-82300137D01*
X107649500Y-82343268D01*
X107649500Y-88046142D01*
X107673384Y-88135282D01*
X107673388Y-88135293D01*
X107673389Y-88135294D01*
X107719521Y-88215199D01*
X107719526Y-88215205D01*
X107719529Y-88215209D01*
X107719531Y-88215212D01*
X107784788Y-88280469D01*
X107784789Y-88280469D01*
X107784869Y-88280549D01*
X107786392Y-88281459D01*
X107793036Y-88285566D01*
X107795651Y-88286741D01*
X107863935Y-88326166D01*
X107864683Y-88326606D01*
X107864711Y-88326613D01*
X107864712Y-88326614D01*
X107953856Y-88350500D01*
X107953858Y-88350500D01*
X110620500Y-88350500D01*
X110687539Y-88370185D01*
X110733294Y-88422989D01*
X110744500Y-88474500D01*
X110744500Y-88876002D01*
X110750338Y-88930312D01*
X110761543Y-88981818D01*
X110761546Y-88981827D01*
X110768779Y-89008192D01*
X110768783Y-89008203D01*
X110818105Y-89094818D01*
X110818110Y-89094825D01*
X110818112Y-89094828D01*
X110844580Y-89125374D01*
X110863863Y-89147628D01*
X110863866Y-89147631D01*
X110863867Y-89147632D01*
X110896641Y-89179257D01*
X110984976Y-89225465D01*
X110984977Y-89225465D01*
X110984977Y-89225466D01*
X111029218Y-89238456D01*
X111052015Y-89245150D01*
X111052019Y-89245150D01*
X111052021Y-89245151D01*
X111063652Y-89246823D01*
X111124000Y-89255500D01*
X112876000Y-89255500D01*
X112930313Y-89249661D01*
X112981824Y-89238455D01*
X113008198Y-89231219D01*
X113037074Y-89214775D01*
X113094818Y-89181894D01*
X113094819Y-89181892D01*
X113094828Y-89181888D01*
X113147632Y-89136133D01*
X113179257Y-89103359D01*
X113225465Y-89015024D01*
X113227470Y-89008198D01*
X113235215Y-88981818D01*
X113245150Y-88947985D01*
X113255500Y-88876000D01*
X113255500Y-87124000D01*
X113249661Y-87069687D01*
X113238455Y-87018176D01*
X113231219Y-86991802D01*
X113187301Y-86914677D01*
X113181894Y-86905181D01*
X113181890Y-86905176D01*
X113181888Y-86905172D01*
X113146097Y-86863867D01*
X113136136Y-86852371D01*
X113103359Y-86820743D01*
X113015022Y-86774534D01*
X113015022Y-86774533D01*
X112947990Y-86754851D01*
X112947978Y-86754848D01*
X112876001Y-86744500D01*
X112876000Y-86744500D01*
X111124000Y-86744500D01*
X111123997Y-86744500D01*
X111069687Y-86750338D01*
X111018181Y-86761543D01*
X111018172Y-86761546D01*
X110991807Y-86768779D01*
X110991796Y-86768783D01*
X110905181Y-86818105D01*
X110905173Y-86818111D01*
X110852371Y-86863863D01*
X110820743Y-86896640D01*
X110774534Y-86984977D01*
X110774533Y-86984977D01*
X110754851Y-87052009D01*
X110754848Y-87052021D01*
X110744500Y-87123998D01*
X110744500Y-87525500D01*
X110724815Y-87592539D01*
X110672011Y-87638294D01*
X110620500Y-87649500D01*
X108492330Y-87649500D01*
X108457389Y-87644475D01*
X108442390Y-87640070D01*
X108383644Y-87602327D01*
X108382457Y-87600958D01*
X108354977Y-87546083D01*
X108353332Y-87538521D01*
X108350500Y-87512168D01*
X108350500Y-82036295D01*
X108350500Y-82017008D01*
X108353321Y-81988008D01*
X108350500Y-81971049D01*
X108350500Y-81953856D01*
X108342957Y-81925705D01*
X108338177Y-81896970D01*
X108331064Y-81881323D01*
X108326614Y-81864712D01*
X108312044Y-81839476D01*
X108299989Y-81812955D01*
X108289065Y-81799676D01*
X108280469Y-81784788D01*
X108259868Y-81764187D01*
X108241356Y-81741685D01*
X108227367Y-81731686D01*
X108215212Y-81719531D01*
X108213689Y-81718652D01*
X108213689Y-81718651D01*
X108197803Y-81709479D01*
X108192684Y-81706356D01*
X108187628Y-81703101D01*
X108182663Y-81699731D01*
X108178824Y-81696988D01*
X108178805Y-81696975D01*
X108166275Y-81688019D01*
X108166272Y-81688017D01*
X108164548Y-81687371D01*
X108155144Y-81683395D01*
X108145922Y-81679040D01*
X108136874Y-81674302D01*
X108135288Y-81673386D01*
X108115845Y-81668175D01*
X108110088Y-81666482D01*
X108104369Y-81664648D01*
X108098696Y-81662676D01*
X105852332Y-80820289D01*
X105821389Y-80803322D01*
X105811936Y-80796220D01*
X105770161Y-80740214D01*
X105765298Y-80670514D01*
X105797777Y-80610372D01*
X105805276Y-80602706D01*
X105831924Y-80582025D01*
X105838015Y-80578509D01*
X105940509Y-80476015D01*
X106012984Y-80350485D01*
X106050500Y-80210475D01*
X106050500Y-80065525D01*
X106012984Y-79925515D01*
X105940512Y-79799991D01*
X105940511Y-79799988D01*
X105940506Y-79799982D01*
X105875625Y-79735101D01*
X105854472Y-79706843D01*
X105841866Y-79683755D01*
X105826700Y-79624332D01*
X105826700Y-77474015D01*
X105831722Y-77439082D01*
X105833666Y-77432461D01*
X105839134Y-77413837D01*
X105870432Y-77361091D01*
X105881616Y-77349908D01*
X105940509Y-77291015D01*
X106012984Y-77165485D01*
X106050500Y-77025475D01*
X106050500Y-76880525D01*
X106012984Y-76740515D01*
X106008165Y-76732169D01*
X105999015Y-76716321D01*
X105940513Y-76614991D01*
X105940508Y-76614984D01*
X105940493Y-76614968D01*
X105838030Y-76512505D01*
X105838014Y-76512490D01*
X105838006Y-76512485D01*
X105784243Y-76481445D01*
X105755808Y-76451624D01*
X105701007Y-76436939D01*
X105701007Y-76436940D01*
X105622346Y-76415863D01*
X105572475Y-76402500D01*
X105572474Y-76402500D01*
X105427525Y-76402500D01*
X105298994Y-76436939D01*
X105298993Y-76436940D01*
X105287511Y-76440017D01*
X105287506Y-76440019D01*
X105251938Y-76460555D01*
X105219175Y-76473672D01*
X105205689Y-76476944D01*
X105135898Y-76473621D01*
X105078985Y-76433096D01*
X105077973Y-76431808D01*
X105053685Y-76378608D01*
X105052735Y-76373682D01*
X105050500Y-76350243D01*
X105050500Y-76245027D01*
X105050500Y-76245025D01*
X105012984Y-76105015D01*
X105011117Y-76101781D01*
X105007097Y-76094818D01*
X105007095Y-76094816D01*
X104940513Y-75979491D01*
X104940508Y-75979484D01*
X104940493Y-75979468D01*
X104935811Y-75974786D01*
X104914662Y-75946536D01*
X104909241Y-75936608D01*
X104894388Y-75868339D01*
X104918802Y-75802874D01*
X104974732Y-75761001D01*
X104978611Y-75759554D01*
X104981947Y-75758311D01*
X105025261Y-75750500D01*
X105072472Y-75750500D01*
X105072475Y-75750500D01*
X105212485Y-75712984D01*
X105338015Y-75640509D01*
X105379099Y-75599424D01*
X105407350Y-75578275D01*
X105430442Y-75565667D01*
X105489867Y-75550500D01*
X110620500Y-75550500D01*
X110687539Y-75570185D01*
X110733294Y-75622989D01*
X110744500Y-75674500D01*
X110744500Y-76076002D01*
X110750338Y-76130312D01*
X110761543Y-76181818D01*
X110761546Y-76181827D01*
X110768779Y-76208192D01*
X110768783Y-76208203D01*
X110818105Y-76294818D01*
X110818110Y-76294825D01*
X110818112Y-76294828D01*
X110829960Y-76308501D01*
X110863863Y-76347628D01*
X110863866Y-76347631D01*
X110863867Y-76347632D01*
X110896641Y-76379257D01*
X110984976Y-76425465D01*
X110984977Y-76425465D01*
X110984977Y-76425466D01*
X111029218Y-76438456D01*
X111052015Y-76445150D01*
X111052019Y-76445150D01*
X111052021Y-76445151D01*
X111063652Y-76446823D01*
X111124000Y-76455500D01*
X112876000Y-76455500D01*
X112930313Y-76449661D01*
X112981824Y-76438455D01*
X113008198Y-76431219D01*
X113048678Y-76408168D01*
X113094818Y-76381894D01*
X113094819Y-76381892D01*
X113094828Y-76381888D01*
X113147632Y-76336133D01*
X113179257Y-76303359D01*
X113225465Y-76215024D01*
X113227470Y-76208198D01*
X113235215Y-76181818D01*
X113245150Y-76147985D01*
X113255500Y-76076000D01*
X113255500Y-74324000D01*
X113249661Y-74269687D01*
X113238455Y-74218176D01*
X113231219Y-74191802D01*
X113227332Y-74184976D01*
X113181894Y-74105181D01*
X113181890Y-74105176D01*
X113181888Y-74105172D01*
X113146097Y-74063867D01*
X113136136Y-74052371D01*
X113121430Y-74038181D01*
X113103359Y-74020743D01*
X113015024Y-73974535D01*
X113015023Y-73974534D01*
X113015022Y-73974534D01*
X113015022Y-73974533D01*
X112947990Y-73954851D01*
X112947978Y-73954848D01*
X112876001Y-73944500D01*
X112876000Y-73944500D01*
X111124000Y-73944500D01*
X111123997Y-73944500D01*
X111069687Y-73950338D01*
X111018181Y-73961543D01*
X111018172Y-73961546D01*
X110991807Y-73968779D01*
X110991796Y-73968783D01*
X110905181Y-74018105D01*
X110905173Y-74018111D01*
X110852371Y-74063863D01*
X110820743Y-74096640D01*
X110774534Y-74184977D01*
X110774533Y-74184977D01*
X110754851Y-74252009D01*
X110754848Y-74252021D01*
X110744500Y-74323998D01*
X110744500Y-74725500D01*
X110724815Y-74792539D01*
X110672011Y-74838294D01*
X110620500Y-74849500D01*
X105497216Y-74849500D01*
X105462280Y-74844477D01*
X105437038Y-74837065D01*
X105384292Y-74805768D01*
X105338030Y-74759505D01*
X105338014Y-74759490D01*
X105338011Y-74759488D01*
X105335638Y-74758118D01*
X105284240Y-74728443D01*
X105255808Y-74698624D01*
X105188402Y-74680563D01*
X105188401Y-74680562D01*
X105103537Y-74657823D01*
X105072475Y-74649500D01*
X105072474Y-74649500D01*
X104927525Y-74649500D01*
X104811597Y-74680563D01*
X104811596Y-74680562D01*
X104787512Y-74687016D01*
X104787507Y-74687018D01*
X104661992Y-74759485D01*
X104661984Y-74759490D01*
X104661968Y-74759505D01*
X104559505Y-74861968D01*
X104559490Y-74861984D01*
X104559485Y-74861992D01*
X104487017Y-74987509D01*
X104486989Y-74987578D01*
X104486748Y-74988511D01*
X104453451Y-75112780D01*
X104449500Y-75127525D01*
X104449500Y-75272475D01*
X104455371Y-75294384D01*
X104487013Y-75412477D01*
X104487016Y-75412485D01*
X104487017Y-75412488D01*
X104487018Y-75412489D01*
X104559485Y-75538006D01*
X104559490Y-75538014D01*
X104559505Y-75538030D01*
X104564188Y-75542713D01*
X104585337Y-75570963D01*
X104589329Y-75578274D01*
X104590757Y-75580888D01*
X104605611Y-75649160D01*
X104581197Y-75714625D01*
X104525265Y-75756499D01*
X104525261Y-75756501D01*
X104518073Y-75759182D01*
X104474739Y-75767000D01*
X104427525Y-75767000D01*
X104298994Y-75801439D01*
X104298993Y-75801440D01*
X104291338Y-75803491D01*
X104287510Y-75804517D01*
X104161991Y-75876985D01*
X104161984Y-75876990D01*
X104161968Y-75877005D01*
X104059505Y-75979468D01*
X104059490Y-75979484D01*
X104059485Y-75979492D01*
X103987017Y-76105009D01*
X103986989Y-76105078D01*
X103986748Y-76106011D01*
X103957539Y-76215022D01*
X103949500Y-76245025D01*
X103949500Y-76389975D01*
X103956437Y-76415863D01*
X103982328Y-76512491D01*
X103987016Y-76529986D01*
X103987018Y-76529991D01*
X104054424Y-76646741D01*
X104055869Y-76649313D01*
X104078788Y-76691285D01*
X104093816Y-76744823D01*
X104093923Y-76747073D01*
X104093186Y-76767682D01*
X103658751Y-80401729D01*
X103657768Y-80408405D01*
X103656607Y-80415033D01*
X103655794Y-80419031D01*
X103655612Y-80420140D01*
X103651715Y-80460205D01*
X103651589Y-80461431D01*
X103651436Y-80462846D01*
X103651427Y-80462928D01*
X103651427Y-80462931D01*
X103651358Y-80463575D01*
X103646500Y-80504217D01*
X103646522Y-80506039D01*
X103646496Y-80506639D01*
X86375500Y-80506639D01*
X86375500Y-77517329D01*
X86380523Y-77482393D01*
X86384927Y-77467395D01*
X86422672Y-77408644D01*
X86424041Y-77407457D01*
X86478920Y-77379977D01*
X86486479Y-77378333D01*
X86512832Y-77375500D01*
X94049432Y-77375500D01*
X94049435Y-77375500D01*
X94144938Y-77349910D01*
X94230562Y-77300475D01*
X94300475Y-77230562D01*
X94349910Y-77144938D01*
X94375500Y-77049435D01*
X94375500Y-76931136D01*
X94380522Y-76896203D01*
X94385125Y-76880527D01*
X94387934Y-76870958D01*
X94419229Y-76818215D01*
X94505276Y-76732169D01*
X94505278Y-76732167D01*
X94576461Y-76625633D01*
X94576461Y-76625632D01*
X94576465Y-76625627D01*
X94625501Y-76507244D01*
X94636955Y-76449661D01*
X94645209Y-76408170D01*
X94645209Y-76408168D01*
X94650500Y-76381571D01*
X94650500Y-76253425D01*
X94625262Y-76126555D01*
X94623176Y-76122144D01*
X94616493Y-76106011D01*
X94576465Y-76009373D01*
X94576464Y-76009372D01*
X94576463Y-76009369D01*
X94505274Y-75902828D01*
X94505273Y-75902827D01*
X94505268Y-75902821D01*
X94414677Y-75812230D01*
X94414671Y-75812225D01*
X94414670Y-75812224D01*
X94308127Y-75741034D01*
X94308123Y-75741032D01*
X94308118Y-75741029D01*
X94189753Y-75692002D01*
X94189733Y-75691995D01*
X94189725Y-75691993D01*
X94064074Y-75667000D01*
X94064071Y-75667000D01*
X94064069Y-75667000D01*
X93935931Y-75667000D01*
X93935929Y-75667000D01*
X93831869Y-75687698D01*
X93820371Y-75689429D01*
X93783616Y-75693211D01*
X93714914Y-75680492D01*
X93663996Y-75632650D01*
X93658315Y-75622974D01*
X93643627Y-75584380D01*
X93637846Y-75555317D01*
X93631631Y-75524076D01*
X93625501Y-75493256D01*
X93576465Y-75374873D01*
X93576464Y-75374872D01*
X93576463Y-75374869D01*
X93505274Y-75268328D01*
X93505273Y-75268327D01*
X93505268Y-75268321D01*
X93414677Y-75177730D01*
X93414671Y-75177725D01*
X93414670Y-75177724D01*
X93308127Y-75106534D01*
X93278071Y-75094085D01*
X93222053Y-75070882D01*
X93191699Y-75052870D01*
X93184694Y-75047225D01*
X93144848Y-74989831D01*
X93142358Y-74920005D01*
X93178014Y-74859919D01*
X93234004Y-74829998D01*
X93238992Y-74828820D01*
X93267493Y-74825500D01*
X93549432Y-74825500D01*
X93549435Y-74825500D01*
X93644938Y-74799910D01*
X93730562Y-74750475D01*
X93800475Y-74680562D01*
X93849910Y-74594938D01*
X93875500Y-74499435D01*
X93875500Y-73017329D01*
X93880523Y-72982393D01*
X93884927Y-72967395D01*
X93922672Y-72908644D01*
X93924041Y-72907457D01*
X93978920Y-72879977D01*
X93986479Y-72878333D01*
X94012832Y-72875500D01*
X117482670Y-72875500D01*
X117517606Y-72880523D01*
X117532604Y-72884927D01*
X117591355Y-72922672D01*
X117592542Y-72924041D01*
X117620018Y-72978902D01*
X117621663Y-72986460D01*
X117624500Y-73012831D01*
X117624500Y-99482670D01*
X117619475Y-99517614D01*
X117615070Y-99532612D01*
X117577327Y-99591355D01*
X117575958Y-99592542D01*
X117521097Y-99620018D01*
X117513539Y-99621663D01*
X117487168Y-99624500D01*
X53950565Y-99624500D01*
X53855060Y-99650090D01*
X53769439Y-99699523D01*
X53769433Y-99699528D01*
X53699528Y-99769433D01*
X53699523Y-99769439D01*
X53650090Y-99855060D01*
X53624500Y-99950565D01*
X53624500Y-102858170D01*
X53619475Y-102893114D01*
X53615070Y-102908112D01*
X53577327Y-102966855D01*
X53575958Y-102968042D01*
X53521097Y-102995518D01*
X53513539Y-102997163D01*
X53487168Y-103000000D01*
X22141830Y-103000000D01*
X22106889Y-102994975D01*
X22091890Y-102990570D01*
X22033144Y-102952827D01*
X22031957Y-102951458D01*
X22004477Y-102896583D01*
X22002832Y-102889021D01*
X22000000Y-102862668D01*
X22000000Y-84037622D01*
X41344237Y-84037622D01*
X41374494Y-84189726D01*
X41374495Y-84189732D01*
X41374502Y-84189753D01*
X41423529Y-84308118D01*
X41423534Y-84308128D01*
X41494721Y-84414666D01*
X41575575Y-84495520D01*
X41596726Y-84523774D01*
X41609332Y-84546860D01*
X41624500Y-84606287D01*
X41624500Y-96049435D01*
X41650090Y-96144938D01*
X41699525Y-96230562D01*
X41769438Y-96300475D01*
X41855062Y-96349910D01*
X41950565Y-96375500D01*
X42049435Y-96375500D01*
X52386362Y-96375500D01*
X52421294Y-96380521D01*
X52446538Y-96387934D01*
X52499282Y-96419228D01*
X52585322Y-96505268D01*
X52585328Y-96505274D01*
X52691869Y-96576463D01*
X52691872Y-96576464D01*
X52691873Y-96576465D01*
X52804651Y-96623179D01*
X52809053Y-96625261D01*
X52810252Y-96625499D01*
X52810256Y-96625501D01*
X52810259Y-96625501D01*
X52810260Y-96625501D01*
X52810261Y-96625502D01*
X52907899Y-96644924D01*
X52935927Y-96650500D01*
X53064071Y-96650500D01*
X53064073Y-96650500D01*
X53148615Y-96633682D01*
X53189744Y-96625501D01*
X53308127Y-96576465D01*
X53414669Y-96505276D01*
X53505276Y-96414669D01*
X53576465Y-96308127D01*
X53625501Y-96189744D01*
X53650500Y-96064069D01*
X53650500Y-95935931D01*
X53650500Y-95935928D01*
X53650500Y-95935925D01*
X53625262Y-95809055D01*
X53623176Y-95804644D01*
X53576465Y-95691875D01*
X53576465Y-95691873D01*
X53576464Y-95691872D01*
X53576463Y-95691870D01*
X53576463Y-95691869D01*
X53505274Y-95585328D01*
X53505273Y-95585327D01*
X53505268Y-95585321D01*
X53414677Y-95494730D01*
X53414671Y-95494725D01*
X53414670Y-95494724D01*
X53308127Y-95423534D01*
X53308128Y-95423534D01*
X53308118Y-95423529D01*
X53189753Y-95374502D01*
X53189733Y-95374495D01*
X53189725Y-95374493D01*
X53064074Y-95349500D01*
X53064071Y-95349500D01*
X53064069Y-95349500D01*
X52935931Y-95349500D01*
X52935929Y-95349500D01*
X52935926Y-95349500D01*
X52810273Y-95374493D01*
X52810265Y-95374495D01*
X52810245Y-95374502D01*
X52691880Y-95423529D01*
X52691870Y-95423534D01*
X52585328Y-95494724D01*
X52585327Y-95494725D01*
X52585321Y-95494730D01*
X52504477Y-95575575D01*
X52476225Y-95596725D01*
X52453140Y-95609331D01*
X52393711Y-95624500D01*
X42517330Y-95624500D01*
X42482389Y-95619475D01*
X42467390Y-95615070D01*
X42408644Y-95577327D01*
X42407457Y-95575958D01*
X42379977Y-95521083D01*
X42378332Y-95513521D01*
X42375500Y-95487168D01*
X42375500Y-93537622D01*
X59344237Y-93537622D01*
X59374494Y-93689726D01*
X59374495Y-93689732D01*
X59374502Y-93689753D01*
X59423529Y-93808118D01*
X59423534Y-93808128D01*
X59494721Y-93914666D01*
X59575575Y-93995520D01*
X59596726Y-94023774D01*
X59609332Y-94046860D01*
X59624500Y-94106287D01*
X59624500Y-95386362D01*
X59619476Y-95421301D01*
X59612064Y-95446541D01*
X59580769Y-95499283D01*
X59494730Y-95585321D01*
X59494725Y-95585327D01*
X59494724Y-95585328D01*
X59423534Y-95691870D01*
X59423529Y-95691880D01*
X59374502Y-95810245D01*
X59374495Y-95810265D01*
X59374493Y-95810273D01*
X59349500Y-95935923D01*
X59349500Y-96019702D01*
X59344237Y-96037622D01*
X59374494Y-96189726D01*
X59374495Y-96189732D01*
X59374502Y-96189753D01*
X59423529Y-96308118D01*
X59423534Y-96308128D01*
X59494724Y-96414670D01*
X59494725Y-96414671D01*
X59494730Y-96414677D01*
X59585321Y-96505268D01*
X59585327Y-96505273D01*
X59585328Y-96505274D01*
X59691869Y-96576463D01*
X59691872Y-96576464D01*
X59691873Y-96576465D01*
X59804651Y-96623179D01*
X59809053Y-96625261D01*
X59810252Y-96625499D01*
X59810256Y-96625501D01*
X59810259Y-96625501D01*
X59810260Y-96625501D01*
X59810261Y-96625502D01*
X59907899Y-96644924D01*
X59935927Y-96650500D01*
X60064071Y-96650500D01*
X60064073Y-96650500D01*
X60148615Y-96633682D01*
X60189744Y-96625501D01*
X60308127Y-96576465D01*
X60414669Y-96505276D01*
X60505276Y-96414669D01*
X60576465Y-96308127D01*
X60625501Y-96189744D01*
X60650500Y-96064069D01*
X60650500Y-95935931D01*
X60650500Y-95935928D01*
X60650500Y-95935925D01*
X60625262Y-95809055D01*
X60623176Y-95804644D01*
X60576465Y-95691875D01*
X60576465Y-95691873D01*
X60576464Y-95691872D01*
X60576463Y-95691870D01*
X60576463Y-95691869D01*
X60505274Y-95585328D01*
X60471957Y-95552011D01*
X60424422Y-95504476D01*
X60403272Y-95476221D01*
X60400547Y-95471231D01*
X60399238Y-95468832D01*
X60390666Y-95453133D01*
X60375500Y-95393710D01*
X60375500Y-94113636D01*
X60380522Y-94078703D01*
X60387934Y-94053458D01*
X60419229Y-94000715D01*
X60505276Y-93914669D01*
X60576465Y-93808127D01*
X60625501Y-93689744D01*
X60650500Y-93564069D01*
X60650500Y-93435931D01*
X60650500Y-93435928D01*
X60650500Y-93435925D01*
X60625262Y-93309055D01*
X60623176Y-93304644D01*
X60576465Y-93191875D01*
X60576465Y-93191873D01*
X60576464Y-93191872D01*
X60576463Y-93191870D01*
X60576463Y-93191869D01*
X60505274Y-93085328D01*
X60505273Y-93085327D01*
X60505268Y-93085321D01*
X60414677Y-92994730D01*
X60414671Y-92994725D01*
X60414670Y-92994724D01*
X60308127Y-92923534D01*
X60308128Y-92923534D01*
X60308118Y-92923529D01*
X60189753Y-92874502D01*
X60189733Y-92874495D01*
X60189725Y-92874493D01*
X60064074Y-92849500D01*
X60064071Y-92849500D01*
X60064069Y-92849500D01*
X59935931Y-92849500D01*
X59935929Y-92849500D01*
X59935926Y-92849500D01*
X59810273Y-92874493D01*
X59810265Y-92874495D01*
X59810245Y-92874502D01*
X59691880Y-92923529D01*
X59691870Y-92923534D01*
X59585328Y-92994724D01*
X59585327Y-92994725D01*
X59585321Y-92994730D01*
X59494730Y-93085321D01*
X59494725Y-93085327D01*
X59494724Y-93085328D01*
X59423534Y-93191870D01*
X59423529Y-93191880D01*
X59374502Y-93310245D01*
X59374495Y-93310265D01*
X59374493Y-93310273D01*
X59349500Y-93435923D01*
X59349500Y-93519702D01*
X59344237Y-93537622D01*
X42375500Y-93537622D01*
X42375500Y-86537622D01*
X47914237Y-86537622D01*
X47944494Y-86689726D01*
X47944495Y-86689732D01*
X47944502Y-86689753D01*
X47993529Y-86808118D01*
X47993534Y-86808128D01*
X48064724Y-86914670D01*
X48064725Y-86914671D01*
X48064730Y-86914677D01*
X48155321Y-87005268D01*
X48155327Y-87005273D01*
X48155328Y-87005274D01*
X48261869Y-87076463D01*
X48261872Y-87076464D01*
X48261873Y-87076465D01*
X48374651Y-87123179D01*
X48379053Y-87125261D01*
X48380252Y-87125499D01*
X48380256Y-87125501D01*
X48380259Y-87125501D01*
X48380260Y-87125501D01*
X48380261Y-87125502D01*
X48477899Y-87144924D01*
X48505927Y-87150500D01*
X48634071Y-87150500D01*
X48634073Y-87150500D01*
X48718615Y-87133682D01*
X48759744Y-87125501D01*
X48878127Y-87076465D01*
X48984669Y-87005276D01*
X49075276Y-86914669D01*
X49146465Y-86808127D01*
X49195501Y-86689744D01*
X49220500Y-86564069D01*
X49220500Y-86435931D01*
X49220500Y-86435928D01*
X49220500Y-86435925D01*
X49195262Y-86309055D01*
X49193176Y-86304644D01*
X49146465Y-86191875D01*
X49146465Y-86191873D01*
X49146464Y-86191872D01*
X49146463Y-86191870D01*
X49146463Y-86191869D01*
X49075274Y-86085328D01*
X49075267Y-86085321D01*
X48994422Y-86004476D01*
X48973272Y-85976221D01*
X48970547Y-85971231D01*
X48969238Y-85968832D01*
X48960666Y-85953133D01*
X48945500Y-85893710D01*
X48945500Y-79037622D01*
X55344237Y-79037622D01*
X55374494Y-79189726D01*
X55374495Y-79189732D01*
X55374502Y-79189753D01*
X55423529Y-79308118D01*
X55423534Y-79308128D01*
X55494721Y-79414666D01*
X55575575Y-79495520D01*
X55596726Y-79523774D01*
X55609332Y-79546860D01*
X55624500Y-79606287D01*
X55624500Y-91950565D01*
X55624500Y-92049435D01*
X55650090Y-92144938D01*
X55699525Y-92230562D01*
X55769438Y-92300475D01*
X55855062Y-92349910D01*
X55950565Y-92375500D01*
X55950567Y-92375500D01*
X82049432Y-92375500D01*
X82049435Y-92375500D01*
X82144938Y-92349910D01*
X82230562Y-92300475D01*
X82300475Y-92230562D01*
X82349910Y-92144938D01*
X82375500Y-92049435D01*
X82375500Y-88037622D01*
X83344237Y-88037622D01*
X83374494Y-88189726D01*
X83374495Y-88189732D01*
X83374502Y-88189753D01*
X83423529Y-88308118D01*
X83423534Y-88308128D01*
X83494721Y-88414666D01*
X83575575Y-88495520D01*
X83596726Y-88523774D01*
X83609332Y-88546860D01*
X83624500Y-88606287D01*
X83624500Y-95386362D01*
X83619476Y-95421301D01*
X83612064Y-95446541D01*
X83580769Y-95499283D01*
X83494730Y-95585321D01*
X83494725Y-95585327D01*
X83494724Y-95585328D01*
X83423534Y-95691870D01*
X83423529Y-95691880D01*
X83374502Y-95810245D01*
X83374495Y-95810265D01*
X83374493Y-95810273D01*
X83349500Y-95935923D01*
X83349500Y-96019702D01*
X83344237Y-96037622D01*
X83374494Y-96189726D01*
X83374495Y-96189732D01*
X83374502Y-96189753D01*
X83423529Y-96308118D01*
X83423534Y-96308128D01*
X83494724Y-96414670D01*
X83494725Y-96414671D01*
X83494730Y-96414677D01*
X83585321Y-96505268D01*
X83585327Y-96505273D01*
X83585328Y-96505274D01*
X83691869Y-96576463D01*
X83691872Y-96576464D01*
X83691873Y-96576465D01*
X83804651Y-96623179D01*
X83809053Y-96625261D01*
X83810252Y-96625499D01*
X83810256Y-96625501D01*
X83810259Y-96625501D01*
X83810260Y-96625501D01*
X83810261Y-96625502D01*
X83907899Y-96644924D01*
X83935927Y-96650500D01*
X84064071Y-96650500D01*
X84064073Y-96650500D01*
X84148615Y-96633682D01*
X84189744Y-96625501D01*
X84308127Y-96576465D01*
X84414669Y-96505276D01*
X84505276Y-96414669D01*
X84576465Y-96308127D01*
X84625501Y-96189744D01*
X84650500Y-96064069D01*
X84650500Y-95935931D01*
X84650500Y-95935928D01*
X84650500Y-95935925D01*
X84625262Y-95809055D01*
X84623176Y-95804644D01*
X84576465Y-95691875D01*
X84576465Y-95691873D01*
X84576464Y-95691872D01*
X84576463Y-95691870D01*
X84576463Y-95691869D01*
X84505274Y-95585328D01*
X84471957Y-95552011D01*
X84424422Y-95504476D01*
X84403272Y-95476221D01*
X84400547Y-95471231D01*
X84399238Y-95468832D01*
X84390666Y-95453133D01*
X84375500Y-95393710D01*
X84375500Y-88613636D01*
X84380522Y-88578703D01*
X84387934Y-88553458D01*
X84419229Y-88500715D01*
X84505276Y-88414669D01*
X84576465Y-88308127D01*
X84625501Y-88189744D01*
X84636333Y-88135290D01*
X84650500Y-88064071D01*
X84650500Y-87935925D01*
X84625262Y-87809055D01*
X84623176Y-87804644D01*
X84576465Y-87691875D01*
X84576465Y-87691873D01*
X84576464Y-87691872D01*
X84576463Y-87691870D01*
X84576463Y-87691869D01*
X84505274Y-87585328D01*
X84505273Y-87585327D01*
X84505268Y-87585321D01*
X84414677Y-87494730D01*
X84414671Y-87494725D01*
X84414670Y-87494724D01*
X84308127Y-87423534D01*
X84308128Y-87423534D01*
X84308118Y-87423529D01*
X84189753Y-87374502D01*
X84189733Y-87374495D01*
X84189725Y-87374493D01*
X84064074Y-87349500D01*
X84064071Y-87349500D01*
X84064069Y-87349500D01*
X83935931Y-87349500D01*
X83935929Y-87349500D01*
X83935926Y-87349500D01*
X83810273Y-87374493D01*
X83810265Y-87374495D01*
X83810245Y-87374502D01*
X83691880Y-87423529D01*
X83691870Y-87423534D01*
X83585328Y-87494724D01*
X83585327Y-87494725D01*
X83585321Y-87494730D01*
X83494730Y-87585321D01*
X83494725Y-87585327D01*
X83494724Y-87585328D01*
X83423534Y-87691870D01*
X83423529Y-87691880D01*
X83374502Y-87810245D01*
X83374495Y-87810265D01*
X83374493Y-87810273D01*
X83349500Y-87935923D01*
X83349500Y-88019702D01*
X83344237Y-88037622D01*
X82375500Y-88037622D01*
X82375500Y-68613636D01*
X82380522Y-68578703D01*
X82382200Y-68572989D01*
X82387934Y-68553458D01*
X82419229Y-68500715D01*
X82505276Y-68414669D01*
X82576465Y-68308127D01*
X82625501Y-68189744D01*
X82633682Y-68148615D01*
X82650500Y-68064071D01*
X82650500Y-67935928D01*
X82650500Y-67935925D01*
X82625262Y-67809055D01*
X82623176Y-67804644D01*
X82613420Y-67781092D01*
X82576465Y-67691873D01*
X82576464Y-67691872D01*
X82576463Y-67691870D01*
X82576463Y-67691869D01*
X82505274Y-67585328D01*
X82505273Y-67585327D01*
X82505268Y-67585321D01*
X82414677Y-67494730D01*
X82414671Y-67494725D01*
X82414670Y-67494724D01*
X82308127Y-67423534D01*
X82308128Y-67423534D01*
X82308118Y-67423529D01*
X82189753Y-67374502D01*
X82189733Y-67374495D01*
X82189725Y-67374493D01*
X82064074Y-67349500D01*
X82064071Y-67349500D01*
X82064069Y-67349500D01*
X81935931Y-67349500D01*
X81935929Y-67349500D01*
X81935926Y-67349500D01*
X81810273Y-67374493D01*
X81810265Y-67374495D01*
X81810245Y-67374502D01*
X81691880Y-67423529D01*
X81691870Y-67423534D01*
X81585328Y-67494724D01*
X81585327Y-67494725D01*
X81585321Y-67494730D01*
X81494730Y-67585321D01*
X81494725Y-67585327D01*
X81494724Y-67585328D01*
X81423534Y-67691870D01*
X81423529Y-67691880D01*
X81374502Y-67810245D01*
X81374495Y-67810265D01*
X81374493Y-67810273D01*
X81349500Y-67935923D01*
X81349500Y-68019702D01*
X81344237Y-68037622D01*
X81374494Y-68189726D01*
X81374495Y-68189732D01*
X81374502Y-68189753D01*
X81423529Y-68308118D01*
X81423534Y-68308128D01*
X81494721Y-68414666D01*
X81575575Y-68495520D01*
X81596726Y-68523774D01*
X81609332Y-68546860D01*
X81624500Y-68606287D01*
X81624500Y-91482670D01*
X81619475Y-91517614D01*
X81615070Y-91532612D01*
X81577327Y-91591355D01*
X81575958Y-91592542D01*
X81521097Y-91620018D01*
X81513539Y-91621663D01*
X81487168Y-91624500D01*
X56517330Y-91624500D01*
X56482389Y-91619475D01*
X56467390Y-91615070D01*
X56408644Y-91577327D01*
X56407457Y-91575958D01*
X56379977Y-91521083D01*
X56378332Y-91513521D01*
X56375500Y-91487168D01*
X56375500Y-79613636D01*
X56380522Y-79578703D01*
X56387934Y-79553458D01*
X56419229Y-79500715D01*
X56505276Y-79414669D01*
X56576465Y-79308127D01*
X56625501Y-79189744D01*
X56650500Y-79064069D01*
X56650500Y-78935931D01*
X56650500Y-78935928D01*
X56650500Y-78935925D01*
X56625262Y-78809055D01*
X56623176Y-78804644D01*
X56576465Y-78691875D01*
X56576465Y-78691873D01*
X56576464Y-78691872D01*
X56576463Y-78691870D01*
X56576463Y-78691869D01*
X56505274Y-78585328D01*
X56505273Y-78585327D01*
X56505268Y-78585321D01*
X56414677Y-78494730D01*
X56414671Y-78494725D01*
X56414670Y-78494724D01*
X56308127Y-78423534D01*
X56308128Y-78423534D01*
X56308118Y-78423529D01*
X56189753Y-78374502D01*
X56189733Y-78374495D01*
X56189725Y-78374493D01*
X56064074Y-78349500D01*
X56064071Y-78349500D01*
X56064069Y-78349500D01*
X55935931Y-78349500D01*
X55935929Y-78349500D01*
X55935926Y-78349500D01*
X55810273Y-78374493D01*
X55810265Y-78374495D01*
X55810245Y-78374502D01*
X55691880Y-78423529D01*
X55691870Y-78423534D01*
X55585328Y-78494724D01*
X55585327Y-78494725D01*
X55585321Y-78494730D01*
X55494730Y-78585321D01*
X55494725Y-78585327D01*
X55494724Y-78585328D01*
X55423534Y-78691870D01*
X55423529Y-78691880D01*
X55374502Y-78810245D01*
X55374495Y-78810265D01*
X55374493Y-78810273D01*
X55349500Y-78935923D01*
X55349500Y-79019702D01*
X55344237Y-79037622D01*
X48945500Y-79037622D01*
X48945500Y-50517329D01*
X48950523Y-50482393D01*
X48954927Y-50467395D01*
X48992672Y-50408644D01*
X48994041Y-50407457D01*
X49048920Y-50379977D01*
X49056479Y-50378333D01*
X49082832Y-50375500D01*
X107386362Y-50375500D01*
X107421294Y-50380521D01*
X107446538Y-50387934D01*
X107499282Y-50419228D01*
X107547449Y-50467395D01*
X107585328Y-50505274D01*
X107691869Y-50576463D01*
X107691872Y-50576464D01*
X107691873Y-50576465D01*
X107804651Y-50623179D01*
X107809053Y-50625261D01*
X107810252Y-50625499D01*
X107810256Y-50625501D01*
X107810259Y-50625501D01*
X107810260Y-50625501D01*
X107810261Y-50625502D01*
X107907899Y-50644924D01*
X107935927Y-50650500D01*
X108064071Y-50650500D01*
X108064073Y-50650500D01*
X108148615Y-50633682D01*
X108189744Y-50625501D01*
X108308127Y-50576465D01*
X108414669Y-50505276D01*
X108420441Y-50499503D01*
X108420445Y-50499501D01*
X108495521Y-50424425D01*
X108523774Y-50403274D01*
X108546864Y-50390667D01*
X108606289Y-50375500D01*
X116049432Y-50375500D01*
X116049435Y-50375500D01*
X116144938Y-50349910D01*
X116230562Y-50300475D01*
X116300475Y-50230562D01*
X116349910Y-50144938D01*
X116375500Y-50049435D01*
X116375500Y-30113636D01*
X116380522Y-30078703D01*
X116387934Y-30053458D01*
X116419229Y-30000715D01*
X116505276Y-29914669D01*
X116576465Y-29808127D01*
X116625501Y-29689744D01*
X116633682Y-29648615D01*
X116650500Y-29564071D01*
X116650500Y-29435928D01*
X116650500Y-29435925D01*
X116625262Y-29309055D01*
X116623176Y-29304644D01*
X116613420Y-29281092D01*
X116576465Y-29191873D01*
X116576464Y-29191872D01*
X116576463Y-29191870D01*
X116576463Y-29191869D01*
X116505274Y-29085328D01*
X116505273Y-29085327D01*
X116505268Y-29085321D01*
X116414677Y-28994730D01*
X116414671Y-28994725D01*
X116414670Y-28994724D01*
X116308127Y-28923534D01*
X116308128Y-28923534D01*
X116308118Y-28923529D01*
X116189753Y-28874502D01*
X116189733Y-28874495D01*
X116189725Y-28874493D01*
X116064074Y-28849500D01*
X116064071Y-28849500D01*
X116064069Y-28849500D01*
X115935931Y-28849500D01*
X115935929Y-28849500D01*
X115935926Y-28849500D01*
X115810273Y-28874493D01*
X115810265Y-28874495D01*
X115810245Y-28874502D01*
X115691880Y-28923529D01*
X115691870Y-28923534D01*
X115585328Y-28994724D01*
X115585327Y-28994725D01*
X115585321Y-28994730D01*
X115494730Y-29085321D01*
X115494725Y-29085327D01*
X115494724Y-29085328D01*
X115423534Y-29191870D01*
X115423529Y-29191880D01*
X115374502Y-29310245D01*
X115374495Y-29310265D01*
X115374493Y-29310273D01*
X115349500Y-29435923D01*
X115349500Y-29519702D01*
X115344237Y-29537622D01*
X115374494Y-29689726D01*
X115374495Y-29689732D01*
X115374502Y-29689753D01*
X115423529Y-29808118D01*
X115423534Y-29808128D01*
X115494721Y-29914666D01*
X115575575Y-29995520D01*
X115596726Y-30023774D01*
X115609332Y-30046860D01*
X115624500Y-30106287D01*
X115624500Y-49482670D01*
X115619475Y-49517614D01*
X115615070Y-49532612D01*
X115577327Y-49591355D01*
X115575958Y-49592542D01*
X115521097Y-49620018D01*
X115513539Y-49621663D01*
X115487168Y-49624500D01*
X108613638Y-49624500D01*
X108578702Y-49619477D01*
X108553460Y-49612065D01*
X108500716Y-49580770D01*
X108414672Y-49494726D01*
X108414671Y-49494725D01*
X108414670Y-49494724D01*
X108308127Y-49423534D01*
X108308128Y-49423534D01*
X108308118Y-49423529D01*
X108189753Y-49374502D01*
X108189733Y-49374495D01*
X108189725Y-49374493D01*
X108064074Y-49349500D01*
X108064071Y-49349500D01*
X108064069Y-49349500D01*
X107935931Y-49349500D01*
X107935929Y-49349500D01*
X107935926Y-49349500D01*
X107810273Y-49374493D01*
X107810265Y-49374495D01*
X107810245Y-49374502D01*
X107691880Y-49423529D01*
X107691870Y-49423534D01*
X107585328Y-49494724D01*
X107585327Y-49494725D01*
X107585321Y-49494730D01*
X107504477Y-49575575D01*
X107476225Y-49596725D01*
X107453140Y-49609331D01*
X107393711Y-49624500D01*
X48520565Y-49624500D01*
X48425060Y-49650090D01*
X48339439Y-49699523D01*
X48339433Y-49699528D01*
X48269528Y-49769433D01*
X48269523Y-49769439D01*
X48220090Y-49855060D01*
X48194500Y-49950565D01*
X48194500Y-85886362D01*
X48189476Y-85921301D01*
X48182064Y-85946541D01*
X48150769Y-85999283D01*
X48064730Y-86085321D01*
X48064725Y-86085327D01*
X48064724Y-86085328D01*
X47993534Y-86191870D01*
X47993529Y-86191880D01*
X47944502Y-86310245D01*
X47944495Y-86310265D01*
X47944493Y-86310273D01*
X47919500Y-86435923D01*
X47919500Y-86519702D01*
X47914237Y-86537622D01*
X42375500Y-86537622D01*
X42375500Y-85037622D01*
X45374237Y-85037622D01*
X45404494Y-85189726D01*
X45404495Y-85189732D01*
X45404502Y-85189753D01*
X45453529Y-85308118D01*
X45453534Y-85308128D01*
X45524724Y-85414670D01*
X45524725Y-85414671D01*
X45524730Y-85414677D01*
X45615321Y-85505268D01*
X45615327Y-85505273D01*
X45615328Y-85505274D01*
X45721869Y-85576463D01*
X45721872Y-85576464D01*
X45721873Y-85576465D01*
X45834651Y-85623179D01*
X45839053Y-85625261D01*
X45840252Y-85625499D01*
X45840256Y-85625501D01*
X45840259Y-85625501D01*
X45840260Y-85625501D01*
X45840261Y-85625502D01*
X45937899Y-85644924D01*
X45965927Y-85650500D01*
X46094071Y-85650500D01*
X46094073Y-85650500D01*
X46178615Y-85633682D01*
X46219744Y-85625501D01*
X46338127Y-85576465D01*
X46444669Y-85505276D01*
X46535276Y-85414669D01*
X46606465Y-85308127D01*
X46655501Y-85189744D01*
X46680500Y-85064069D01*
X46680500Y-84935931D01*
X46680500Y-84935928D01*
X46680500Y-84935925D01*
X46655262Y-84809055D01*
X46653176Y-84804644D01*
X46622711Y-84731096D01*
X46606465Y-84691873D01*
X46606464Y-84691872D01*
X46606463Y-84691870D01*
X46606463Y-84691869D01*
X46535274Y-84585328D01*
X46496806Y-84546860D01*
X46454422Y-84504476D01*
X46433272Y-84476221D01*
X46430547Y-84471231D01*
X46429238Y-84468832D01*
X46420666Y-84453133D01*
X46405500Y-84393710D01*
X46405500Y-48517329D01*
X46410523Y-48482393D01*
X46414927Y-48467395D01*
X46452672Y-48408644D01*
X46454041Y-48407457D01*
X46508920Y-48379977D01*
X46516479Y-48378333D01*
X46542832Y-48375500D01*
X77386362Y-48375500D01*
X77421294Y-48380521D01*
X77446538Y-48387934D01*
X77499282Y-48419228D01*
X77547449Y-48467395D01*
X77585328Y-48505274D01*
X77691869Y-48576463D01*
X77691872Y-48576464D01*
X77691873Y-48576465D01*
X77804651Y-48623179D01*
X77809053Y-48625261D01*
X77810252Y-48625499D01*
X77810256Y-48625501D01*
X77810259Y-48625501D01*
X77810260Y-48625501D01*
X77810261Y-48625502D01*
X77907899Y-48644924D01*
X77935927Y-48650500D01*
X78064071Y-48650500D01*
X78064073Y-48650500D01*
X78148615Y-48633682D01*
X78189744Y-48625501D01*
X78308127Y-48576465D01*
X78414669Y-48505276D01*
X78420441Y-48499503D01*
X78420445Y-48499501D01*
X78495521Y-48424425D01*
X78523774Y-48403274D01*
X78546864Y-48390667D01*
X78606289Y-48375500D01*
X84049432Y-48375500D01*
X84049435Y-48375500D01*
X84144938Y-48349910D01*
X84230562Y-48300475D01*
X84300475Y-48230562D01*
X84349910Y-48144938D01*
X84375500Y-48049435D01*
X84375500Y-30113636D01*
X84380522Y-30078703D01*
X84387934Y-30053458D01*
X84419229Y-30000715D01*
X84505276Y-29914669D01*
X84576465Y-29808127D01*
X84625501Y-29689744D01*
X84633682Y-29648615D01*
X84650500Y-29564071D01*
X84650500Y-29435928D01*
X84650500Y-29435925D01*
X84625262Y-29309055D01*
X84623176Y-29304644D01*
X84613420Y-29281092D01*
X84576465Y-29191873D01*
X84576464Y-29191872D01*
X84576463Y-29191870D01*
X84576463Y-29191869D01*
X84505274Y-29085328D01*
X84505273Y-29085327D01*
X84505268Y-29085321D01*
X84414677Y-28994730D01*
X84414671Y-28994725D01*
X84414670Y-28994724D01*
X84308127Y-28923534D01*
X84308128Y-28923534D01*
X84308118Y-28923529D01*
X84189753Y-28874502D01*
X84189733Y-28874495D01*
X84189725Y-28874493D01*
X84064074Y-28849500D01*
X84064071Y-28849500D01*
X84064069Y-28849500D01*
X83935931Y-28849500D01*
X83935929Y-28849500D01*
X83935926Y-28849500D01*
X83810273Y-28874493D01*
X83810265Y-28874495D01*
X83810245Y-28874502D01*
X83691880Y-28923529D01*
X83691870Y-28923534D01*
X83585328Y-28994724D01*
X83585327Y-28994725D01*
X83585321Y-28994730D01*
X83494730Y-29085321D01*
X83494725Y-29085327D01*
X83494724Y-29085328D01*
X83423534Y-29191870D01*
X83423529Y-29191880D01*
X83374502Y-29310245D01*
X83374495Y-29310265D01*
X83374493Y-29310273D01*
X83349500Y-29435923D01*
X83349500Y-29519702D01*
X83344237Y-29537622D01*
X83374494Y-29689726D01*
X83374495Y-29689732D01*
X83374502Y-29689753D01*
X83423529Y-29808118D01*
X83423534Y-29808128D01*
X83494721Y-29914666D01*
X83575575Y-29995520D01*
X83596726Y-30023774D01*
X83609332Y-30046860D01*
X83624500Y-30106287D01*
X83624500Y-47482670D01*
X83619475Y-47517614D01*
X83615070Y-47532612D01*
X83577327Y-47591355D01*
X83575958Y-47592542D01*
X83521097Y-47620018D01*
X83513539Y-47621663D01*
X83487168Y-47624500D01*
X78613638Y-47624500D01*
X78578702Y-47619477D01*
X78553460Y-47612065D01*
X78500716Y-47580770D01*
X78414672Y-47494726D01*
X78414671Y-47494725D01*
X78414670Y-47494724D01*
X78308127Y-47423534D01*
X78308128Y-47423534D01*
X78308118Y-47423529D01*
X78189753Y-47374502D01*
X78189733Y-47374495D01*
X78189725Y-47374493D01*
X78064074Y-47349500D01*
X78064071Y-47349500D01*
X78064069Y-47349500D01*
X77935931Y-47349500D01*
X77935929Y-47349500D01*
X77935926Y-47349500D01*
X77810273Y-47374493D01*
X77810265Y-47374495D01*
X77810245Y-47374502D01*
X77691880Y-47423529D01*
X77691870Y-47423534D01*
X77585328Y-47494724D01*
X77585327Y-47494725D01*
X77585321Y-47494730D01*
X77504477Y-47575575D01*
X77476225Y-47596725D01*
X77453140Y-47609331D01*
X77393711Y-47624500D01*
X45980565Y-47624500D01*
X45885060Y-47650090D01*
X45799439Y-47699523D01*
X45799433Y-47699528D01*
X45729528Y-47769433D01*
X45729523Y-47769439D01*
X45680090Y-47855060D01*
X45654500Y-47950565D01*
X45654500Y-84386362D01*
X45649476Y-84421301D01*
X45642064Y-84446541D01*
X45610769Y-84499283D01*
X45524730Y-84585321D01*
X45524725Y-84585327D01*
X45524724Y-84585328D01*
X45453534Y-84691870D01*
X45453529Y-84691880D01*
X45404502Y-84810245D01*
X45404495Y-84810265D01*
X45404493Y-84810273D01*
X45379500Y-84935923D01*
X45379500Y-85019702D01*
X45374237Y-85037622D01*
X42375500Y-85037622D01*
X42375500Y-84613636D01*
X42380522Y-84578703D01*
X42387934Y-84553458D01*
X42419229Y-84500715D01*
X42505276Y-84414669D01*
X42576465Y-84308127D01*
X42625501Y-84189744D01*
X42633682Y-84148615D01*
X42650500Y-84064071D01*
X42650500Y-83935928D01*
X42650500Y-83935925D01*
X42625262Y-83809055D01*
X42623176Y-83804644D01*
X42613420Y-83781092D01*
X42576465Y-83691873D01*
X42576464Y-83691872D01*
X42576463Y-83691870D01*
X42576463Y-83691869D01*
X42505274Y-83585328D01*
X42505273Y-83585327D01*
X42505268Y-83585321D01*
X42414677Y-83494730D01*
X42414671Y-83494725D01*
X42414670Y-83494724D01*
X42308127Y-83423534D01*
X42308128Y-83423534D01*
X42308118Y-83423529D01*
X42189753Y-83374502D01*
X42189733Y-83374495D01*
X42189725Y-83374493D01*
X42064074Y-83349500D01*
X42064071Y-83349500D01*
X42064069Y-83349500D01*
X41935931Y-83349500D01*
X41935929Y-83349500D01*
X41935926Y-83349500D01*
X41810273Y-83374493D01*
X41810265Y-83374495D01*
X41810245Y-83374502D01*
X41691880Y-83423529D01*
X41691870Y-83423534D01*
X41585328Y-83494724D01*
X41585327Y-83494725D01*
X41585321Y-83494730D01*
X41494730Y-83585321D01*
X41494725Y-83585327D01*
X41494724Y-83585328D01*
X41423534Y-83691870D01*
X41423529Y-83691880D01*
X41374502Y-83810245D01*
X41374495Y-83810265D01*
X41374493Y-83810273D01*
X41349500Y-83935923D01*
X41349500Y-84019702D01*
X41344237Y-84037622D01*
X22000000Y-84037622D01*
X22000000Y-43950565D01*
X31624500Y-43950565D01*
X31624500Y-65549435D01*
X31650090Y-65644938D01*
X31699525Y-65730562D01*
X31769438Y-65800475D01*
X31855062Y-65849910D01*
X31950565Y-65875500D01*
X32049435Y-65875500D01*
X37796362Y-65875500D01*
X37831294Y-65880521D01*
X37856538Y-65887934D01*
X37909282Y-65919228D01*
X37995327Y-66005273D01*
X37995328Y-66005274D01*
X38101869Y-66076463D01*
X38101872Y-66076464D01*
X38101873Y-66076465D01*
X38214651Y-66123179D01*
X38219053Y-66125261D01*
X38220252Y-66125499D01*
X38220256Y-66125501D01*
X38220259Y-66125501D01*
X38220260Y-66125501D01*
X38220261Y-66125502D01*
X38317899Y-66144924D01*
X38345927Y-66150500D01*
X38474071Y-66150500D01*
X38474073Y-66150500D01*
X38558615Y-66133682D01*
X38599744Y-66125501D01*
X38718127Y-66076465D01*
X38824669Y-66005276D01*
X38915276Y-65914669D01*
X38986465Y-65808127D01*
X39035501Y-65689744D01*
X39060500Y-65564069D01*
X39060500Y-65435931D01*
X39060500Y-65435928D01*
X39060500Y-65435925D01*
X39035262Y-65309055D01*
X39033176Y-65304644D01*
X38986463Y-65191869D01*
X38915274Y-65085328D01*
X38915273Y-65085327D01*
X38915268Y-65085321D01*
X38824677Y-64994730D01*
X38824671Y-64994725D01*
X38824670Y-64994724D01*
X38718127Y-64923534D01*
X38718128Y-64923534D01*
X38718118Y-64923529D01*
X38599753Y-64874502D01*
X38599733Y-64874495D01*
X38599725Y-64874493D01*
X38474074Y-64849500D01*
X38474071Y-64849500D01*
X38474069Y-64849500D01*
X38345931Y-64849500D01*
X38345929Y-64849500D01*
X38345926Y-64849500D01*
X38220273Y-64874493D01*
X38220265Y-64874495D01*
X38220245Y-64874502D01*
X38101880Y-64923529D01*
X38101870Y-64923534D01*
X37995328Y-64994724D01*
X37995327Y-64994725D01*
X37995321Y-64994730D01*
X37914477Y-65075575D01*
X37886225Y-65096725D01*
X37863140Y-65109331D01*
X37803711Y-65124500D01*
X32517330Y-65124500D01*
X32482389Y-65119475D01*
X32467390Y-65115070D01*
X32408644Y-65077327D01*
X32407457Y-65075958D01*
X32379977Y-65021083D01*
X32378332Y-65013521D01*
X32375500Y-64987168D01*
X32375500Y-46037622D01*
X43344237Y-46037622D01*
X43374494Y-46189726D01*
X43374495Y-46189732D01*
X43374502Y-46189753D01*
X43423529Y-46308118D01*
X43423534Y-46308128D01*
X43494721Y-46414666D01*
X43575575Y-46495520D01*
X43596726Y-46523774D01*
X43609332Y-46546860D01*
X43624500Y-46606287D01*
X43624500Y-57386362D01*
X43619476Y-57421301D01*
X43612064Y-57446541D01*
X43580769Y-57499283D01*
X43494730Y-57585321D01*
X43494725Y-57585327D01*
X43494724Y-57585328D01*
X43423534Y-57691870D01*
X43423529Y-57691880D01*
X43374502Y-57810245D01*
X43374495Y-57810265D01*
X43374493Y-57810273D01*
X43349500Y-57935923D01*
X43349500Y-58019702D01*
X43344237Y-58037622D01*
X43374494Y-58189726D01*
X43374495Y-58189732D01*
X43374502Y-58189753D01*
X43423529Y-58308118D01*
X43423534Y-58308128D01*
X43494724Y-58414670D01*
X43494725Y-58414671D01*
X43494730Y-58414677D01*
X43585321Y-58505268D01*
X43585327Y-58505273D01*
X43585328Y-58505274D01*
X43691869Y-58576463D01*
X43691872Y-58576464D01*
X43691873Y-58576465D01*
X43804651Y-58623179D01*
X43809053Y-58625261D01*
X43810252Y-58625499D01*
X43810256Y-58625501D01*
X43810259Y-58625501D01*
X43810260Y-58625501D01*
X43810261Y-58625502D01*
X43907899Y-58644924D01*
X43935927Y-58650500D01*
X44064071Y-58650500D01*
X44064073Y-58650500D01*
X44148615Y-58633682D01*
X44189744Y-58625501D01*
X44308127Y-58576465D01*
X44414669Y-58505276D01*
X44505276Y-58414669D01*
X44576465Y-58308127D01*
X44625501Y-58189744D01*
X44650500Y-58064069D01*
X44650500Y-57935931D01*
X44650500Y-57935928D01*
X44650500Y-57935925D01*
X44625262Y-57809055D01*
X44623176Y-57804644D01*
X44576465Y-57691875D01*
X44576465Y-57691873D01*
X44576464Y-57691872D01*
X44576463Y-57691870D01*
X44576463Y-57691869D01*
X44505274Y-57585328D01*
X44505267Y-57585321D01*
X44424422Y-57504476D01*
X44403272Y-57476221D01*
X44400547Y-57471231D01*
X44399238Y-57468832D01*
X44390666Y-57453133D01*
X44375500Y-57393710D01*
X44375500Y-46613636D01*
X44380522Y-46578703D01*
X44387934Y-46553458D01*
X44419229Y-46500715D01*
X44505276Y-46414669D01*
X44576465Y-46308127D01*
X44625501Y-46189744D01*
X44650500Y-46064069D01*
X44650500Y-45935931D01*
X44650500Y-45935928D01*
X44650500Y-45935925D01*
X44625262Y-45809055D01*
X44623176Y-45804644D01*
X44576465Y-45691875D01*
X44576465Y-45691873D01*
X44576464Y-45691872D01*
X44576463Y-45691870D01*
X44576463Y-45691869D01*
X44505274Y-45585328D01*
X44505273Y-45585327D01*
X44505268Y-45585321D01*
X44414677Y-45494730D01*
X44414671Y-45494725D01*
X44414670Y-45494724D01*
X44308127Y-45423534D01*
X44308128Y-45423534D01*
X44308118Y-45423529D01*
X44189753Y-45374502D01*
X44189733Y-45374495D01*
X44189725Y-45374493D01*
X44064074Y-45349500D01*
X44064071Y-45349500D01*
X44064069Y-45349500D01*
X43935931Y-45349500D01*
X43935929Y-45349500D01*
X43935926Y-45349500D01*
X43810273Y-45374493D01*
X43810265Y-45374495D01*
X43810245Y-45374502D01*
X43691880Y-45423529D01*
X43691870Y-45423534D01*
X43585328Y-45494724D01*
X43585327Y-45494725D01*
X43585321Y-45494730D01*
X43494730Y-45585321D01*
X43494725Y-45585327D01*
X43494724Y-45585328D01*
X43423534Y-45691870D01*
X43423529Y-45691880D01*
X43374502Y-45810245D01*
X43374495Y-45810265D01*
X43374493Y-45810273D01*
X43349500Y-45935923D01*
X43349500Y-46019702D01*
X43344237Y-46037622D01*
X32375500Y-46037622D01*
X32375500Y-44517329D01*
X32380523Y-44482393D01*
X32384927Y-44467395D01*
X32422672Y-44408644D01*
X32424041Y-44407457D01*
X32478920Y-44379977D01*
X32486479Y-44378333D01*
X32512832Y-44375500D01*
X60049432Y-44375500D01*
X60049435Y-44375500D01*
X60144938Y-44349910D01*
X60230562Y-44300475D01*
X60300475Y-44230562D01*
X60349910Y-44144938D01*
X60375500Y-44049435D01*
X60375500Y-33950565D01*
X60349910Y-33855062D01*
X60300475Y-33769438D01*
X60230562Y-33699525D01*
X60144938Y-33650090D01*
X60049435Y-33624500D01*
X60049433Y-33624500D01*
X56222330Y-33624500D01*
X56187389Y-33619475D01*
X56172390Y-33615070D01*
X56113644Y-33577327D01*
X56112457Y-33575958D01*
X56084977Y-33521083D01*
X56083332Y-33513521D01*
X56080500Y-33487168D01*
X56080500Y-33401453D01*
X56041812Y-33206963D01*
X56039726Y-33202552D01*
X56019589Y-33153936D01*
X55966640Y-33026105D01*
X55966637Y-33026098D01*
X55966635Y-33026092D01*
X55966628Y-33026079D01*
X55857139Y-32862218D01*
X55857136Y-32862214D01*
X55857131Y-32862208D01*
X55717790Y-32722867D01*
X55717784Y-32722862D01*
X55717783Y-32722861D01*
X55553926Y-32613375D01*
X55553925Y-32613374D01*
X55553920Y-32613371D01*
X55553907Y-32613364D01*
X55553900Y-32613360D01*
X55371861Y-32537958D01*
X55371847Y-32537953D01*
X55371839Y-32537950D01*
X55371829Y-32537947D01*
X55371826Y-32537946D01*
X55371822Y-32537945D01*
X55178546Y-32499500D01*
X55178543Y-32499500D01*
X55178541Y-32499500D01*
X54981459Y-32499500D01*
X54981457Y-32499500D01*
X54981453Y-32499500D01*
X54788176Y-32537945D01*
X54788170Y-32537947D01*
X54788160Y-32537950D01*
X54788155Y-32537951D01*
X54788137Y-32537958D01*
X54606098Y-32613360D01*
X54606089Y-32613365D01*
X54606072Y-32613375D01*
X54442215Y-32722861D01*
X54442214Y-32722862D01*
X54442208Y-32722867D01*
X54302867Y-32862208D01*
X54302862Y-32862214D01*
X54302861Y-32862215D01*
X54193375Y-33026072D01*
X54193365Y-33026089D01*
X54193360Y-33026098D01*
X54117958Y-33208137D01*
X54117945Y-33208176D01*
X54079500Y-33401451D01*
X54079500Y-34554174D01*
X54074237Y-34572094D01*
X54117945Y-34791822D01*
X54117946Y-34791826D01*
X54117947Y-34791829D01*
X54117950Y-34791839D01*
X54117953Y-34791847D01*
X54117958Y-34791861D01*
X54193360Y-34973900D01*
X54193365Y-34973909D01*
X54193375Y-34973926D01*
X54302861Y-35137783D01*
X54302862Y-35137784D01*
X54302867Y-35137790D01*
X54442208Y-35277131D01*
X54442214Y-35277136D01*
X54442218Y-35277139D01*
X54606079Y-35386628D01*
X54606092Y-35386635D01*
X54782573Y-35459735D01*
X54786992Y-35461825D01*
X54787728Y-35461967D01*
X54788469Y-35462112D01*
X54981453Y-35500500D01*
X55178543Y-35500500D01*
X55178544Y-35500500D01*
X55200216Y-35496188D01*
X55308582Y-35474632D01*
X55308583Y-35474632D01*
X55321301Y-35472102D01*
X55371835Y-35462051D01*
X55553914Y-35386632D01*
X55717782Y-35277139D01*
X55857139Y-35137782D01*
X55966632Y-34973914D01*
X56042051Y-34791835D01*
X56063976Y-34681613D01*
X56063978Y-34681601D01*
X56080500Y-34598545D01*
X56080500Y-34517329D01*
X56085523Y-34482393D01*
X56089927Y-34467395D01*
X56127672Y-34408644D01*
X56129041Y-34407457D01*
X56183920Y-34379977D01*
X56191479Y-34378333D01*
X56217832Y-34375500D01*
X59482670Y-34375500D01*
X59517606Y-34380523D01*
X59532604Y-34384927D01*
X59591355Y-34422672D01*
X59592542Y-34424041D01*
X59620018Y-34478902D01*
X59621663Y-34486460D01*
X59624500Y-34512831D01*
X59624500Y-43482670D01*
X59619475Y-43517614D01*
X59615070Y-43532612D01*
X59577327Y-43591355D01*
X59575958Y-43592542D01*
X59521097Y-43620018D01*
X59513539Y-43621663D01*
X59487168Y-43624500D01*
X31950565Y-43624500D01*
X31855060Y-43650090D01*
X31769439Y-43699523D01*
X31769433Y-43699528D01*
X31699528Y-43769433D01*
X31699523Y-43769439D01*
X31650090Y-43855060D01*
X31624500Y-43950565D01*
X22000000Y-43950565D01*
X22000000Y-33153941D01*
X28699500Y-33153941D01*
X28699500Y-33153948D01*
X28699500Y-33153949D01*
X28699500Y-34846062D01*
X28699659Y-34847992D01*
X28699885Y-34849640D01*
X28705933Y-34905911D01*
X28705934Y-34905913D01*
X28756427Y-35041293D01*
X28756430Y-35041297D01*
X28843023Y-35156973D01*
X28843024Y-35156973D01*
X28843025Y-35156975D01*
X28958700Y-35243568D01*
X28958703Y-35243570D01*
X28998610Y-35258454D01*
X29094088Y-35294065D01*
X29153941Y-35300500D01*
X30846058Y-35300499D01*
X30905912Y-35294065D01*
X31041299Y-35243569D01*
X31156975Y-35156975D01*
X31243569Y-35041299D01*
X31243570Y-35041297D01*
X31243571Y-35041296D01*
X31268817Y-34973605D01*
X31294065Y-34905912D01*
X31300500Y-34846059D01*
X31300499Y-33878000D01*
X31950000Y-33878000D01*
X31950000Y-34121998D01*
X31984166Y-34337708D01*
X31988165Y-34362959D01*
X32063560Y-34594998D01*
X32174323Y-34812380D01*
X32174325Y-34812383D01*
X32241537Y-34904895D01*
X32241543Y-34904901D01*
X32241544Y-34904902D01*
X32853695Y-34292750D01*
X32915016Y-34259267D01*
X32984707Y-34264251D01*
X33040641Y-34306122D01*
X33048761Y-34318432D01*
X33059887Y-34337704D01*
X33059890Y-34337708D01*
X33162292Y-34440110D01*
X33162293Y-34440111D01*
X33162295Y-34440112D01*
X33181563Y-34451236D01*
X33229780Y-34501802D01*
X33243004Y-34570409D01*
X33217037Y-34635274D01*
X33207246Y-34646305D01*
X32595095Y-35258453D01*
X32595095Y-35258454D01*
X32595097Y-35258456D01*
X32687619Y-35325676D01*
X32905001Y-35436439D01*
X33137040Y-35511834D01*
X33378007Y-35550000D01*
X33621992Y-35550000D01*
X33621993Y-35550000D01*
X33862959Y-35511834D01*
X34094998Y-35436439D01*
X34312377Y-35325678D01*
X34372305Y-35282136D01*
X34399044Y-35272595D01*
X34404902Y-35258453D01*
X33792753Y-34646305D01*
X33759268Y-34584982D01*
X33764252Y-34515291D01*
X33806123Y-34459357D01*
X33818433Y-34451238D01*
X33837708Y-34440110D01*
X33940110Y-34337708D01*
X33951235Y-34318437D01*
X34001800Y-34270220D01*
X34070407Y-34256995D01*
X34135272Y-34282961D01*
X34146305Y-34292753D01*
X34758453Y-34904902D01*
X34758453Y-34904901D01*
X34758454Y-34904902D01*
X34758454Y-34904901D01*
X34771922Y-34899322D01*
X34778139Y-34878152D01*
X34782127Y-34872317D01*
X34825678Y-34812377D01*
X34936439Y-34594998D01*
X35011834Y-34362959D01*
X35050000Y-34121993D01*
X35050000Y-33897642D01*
X35699500Y-33897642D01*
X35699500Y-34102356D01*
X35726087Y-34270220D01*
X35731522Y-34304534D01*
X35750504Y-34362953D01*
X35794780Y-34499221D01*
X35794786Y-34499234D01*
X35887708Y-34681601D01*
X35887709Y-34681602D01*
X35887715Y-34681613D01*
X36008028Y-34847213D01*
X36152786Y-34991971D01*
X36307748Y-35104555D01*
X36307749Y-35104557D01*
X36314626Y-35109552D01*
X36318390Y-35112287D01*
X36402500Y-35155143D01*
X36406095Y-35156975D01*
X36494329Y-35201933D01*
X36495923Y-35202866D01*
X36499610Y-35204652D01*
X36501638Y-35205660D01*
X36505406Y-35206723D01*
X36547956Y-35220547D01*
X36605135Y-35239126D01*
X36605136Y-35239127D01*
X36648612Y-35253253D01*
X36695465Y-35268477D01*
X36796557Y-35284488D01*
X36897648Y-35300500D01*
X36897649Y-35300500D01*
X37102351Y-35300500D01*
X37102352Y-35300500D01*
X37304534Y-35268477D01*
X37499219Y-35205220D01*
X37681610Y-35112287D01*
X37738204Y-35071168D01*
X37779323Y-35041296D01*
X37847201Y-34991980D01*
X37847270Y-34991929D01*
X37848032Y-34991152D01*
X37991153Y-34848031D01*
X37991928Y-34847271D01*
X37991981Y-34847199D01*
X37992812Y-34846056D01*
X38031576Y-34792699D01*
X38044730Y-34774593D01*
X38044732Y-34774591D01*
X38112284Y-34681614D01*
X38112283Y-34681614D01*
X38112287Y-34681610D01*
X38205220Y-34499219D01*
X38268477Y-34304534D01*
X38300500Y-34102352D01*
X38300500Y-33897648D01*
X38300499Y-33897642D01*
X39199500Y-33897642D01*
X39199500Y-34102356D01*
X39226087Y-34270220D01*
X39231522Y-34304534D01*
X39250504Y-34362953D01*
X39294780Y-34499221D01*
X39294786Y-34499234D01*
X39387708Y-34681601D01*
X39387709Y-34681602D01*
X39387715Y-34681613D01*
X39508028Y-34847213D01*
X39652786Y-34991971D01*
X39807748Y-35104555D01*
X39807749Y-35104557D01*
X39814626Y-35109552D01*
X39818390Y-35112287D01*
X39902500Y-35155143D01*
X39906095Y-35156975D01*
X39994329Y-35201933D01*
X39995923Y-35202866D01*
X39999610Y-35204652D01*
X40001638Y-35205660D01*
X40005406Y-35206723D01*
X40047956Y-35220547D01*
X40105135Y-35239126D01*
X40105136Y-35239127D01*
X40148612Y-35253253D01*
X40195465Y-35268477D01*
X40296557Y-35284488D01*
X40397648Y-35300500D01*
X40397649Y-35300500D01*
X40602351Y-35300500D01*
X40602352Y-35300500D01*
X40765370Y-35274680D01*
X48999499Y-35274680D01*
X49014028Y-35347717D01*
X49014032Y-35347735D01*
X49014033Y-35347739D01*
X49017480Y-35353826D01*
X49020816Y-35357891D01*
X49069398Y-35430600D01*
X49069401Y-35430603D01*
X49078136Y-35436439D01*
X49116470Y-35462052D01*
X49116560Y-35462112D01*
X49152258Y-35485965D01*
X49152260Y-35485966D01*
X49152264Y-35485967D01*
X49152280Y-35485970D01*
X49152288Y-35485972D01*
X49197021Y-35494869D01*
X49217681Y-35498979D01*
X49220415Y-35499703D01*
X49225323Y-35500500D01*
X50774676Y-35500500D01*
X50778796Y-35500500D01*
X50786648Y-35498117D01*
X50847740Y-35485966D01*
X50930601Y-35430601D01*
X50985966Y-35347740D01*
X51000500Y-35274674D01*
X51000500Y-33401617D01*
X51290000Y-33401617D01*
X51290000Y-33750000D01*
X51927750Y-33750000D01*
X51994789Y-33769685D01*
X52040544Y-33822489D01*
X52050488Y-33891647D01*
X52047524Y-33906095D01*
X52040000Y-33934171D01*
X52040000Y-34065828D01*
X52047524Y-34093905D01*
X52045863Y-34163755D01*
X52006701Y-34221618D01*
X51942473Y-34249123D01*
X51927750Y-34250000D01*
X51290000Y-34250000D01*
X51290000Y-34598382D01*
X51320778Y-34792705D01*
X51381581Y-34979835D01*
X51381582Y-34979838D01*
X51381583Y-34979839D01*
X51387765Y-34991971D01*
X51470904Y-35155143D01*
X51586555Y-35314321D01*
X51725678Y-35453444D01*
X51884856Y-35569095D01*
X52060162Y-35658418D01*
X52247283Y-35719218D01*
X52279320Y-35724292D01*
X52289999Y-35725984D01*
X52289999Y-35725983D01*
X52290000Y-35725984D01*
X52290000Y-34612250D01*
X52309685Y-34545211D01*
X52362489Y-34499456D01*
X52431647Y-34489512D01*
X52446093Y-34492475D01*
X52474174Y-34500000D01*
X52605825Y-34500000D01*
X52605826Y-34500000D01*
X52633905Y-34492476D01*
X52703755Y-34494137D01*
X52761618Y-34533299D01*
X52789123Y-34597527D01*
X52790000Y-34612250D01*
X52790000Y-35725981D01*
X52790000Y-35725983D01*
X52832716Y-35719218D01*
X53019837Y-35658418D01*
X53195143Y-35569095D01*
X53354321Y-35453444D01*
X53493444Y-35314321D01*
X53609095Y-35155143D01*
X53698418Y-34979835D01*
X53759221Y-34792705D01*
X53790000Y-34598382D01*
X53790000Y-34250000D01*
X53152250Y-34250000D01*
X53085211Y-34230315D01*
X53039456Y-34177511D01*
X53029512Y-34108353D01*
X53032476Y-34093905D01*
X53039999Y-34065828D01*
X53040000Y-34065825D01*
X53040000Y-33934175D01*
X53039999Y-33934171D01*
X53032476Y-33906095D01*
X53034137Y-33836245D01*
X53073299Y-33778382D01*
X53137527Y-33750877D01*
X53152250Y-33750000D01*
X53790000Y-33750000D01*
X53790000Y-33401618D01*
X53759222Y-33207300D01*
X53759221Y-33207299D01*
X53759221Y-33207294D01*
X53698418Y-33020164D01*
X53609095Y-32844856D01*
X53493444Y-32685678D01*
X53354321Y-32546555D01*
X53195143Y-32430904D01*
X53019835Y-32341581D01*
X52832705Y-32280778D01*
X52832699Y-32280777D01*
X52790000Y-32274013D01*
X52790000Y-33387749D01*
X52770315Y-33454788D01*
X52717511Y-33500543D01*
X52648353Y-33510487D01*
X52633908Y-33507524D01*
X52605828Y-33500000D01*
X52605826Y-33500000D01*
X52474174Y-33500000D01*
X52474171Y-33500000D01*
X52446092Y-33507524D01*
X52376242Y-33505861D01*
X52318380Y-33466698D01*
X52290877Y-33402469D01*
X52290000Y-33387749D01*
X52290000Y-32274014D01*
X52289999Y-32274014D01*
X52277113Y-32276054D01*
X52247298Y-32280777D01*
X52247295Y-32280777D01*
X52247294Y-32280778D01*
X52060164Y-32341581D01*
X52060161Y-32341582D01*
X52060159Y-32341583D01*
X51884855Y-32430904D01*
X51725676Y-32546556D01*
X51586556Y-32685676D01*
X51470904Y-32844855D01*
X51381583Y-33020159D01*
X51381582Y-33020161D01*
X51381581Y-33020164D01*
X51320778Y-33207294D01*
X51320777Y-33207297D01*
X51320777Y-33207299D01*
X51290025Y-33401459D01*
X51290000Y-33401617D01*
X51000500Y-33401617D01*
X51000500Y-32725326D01*
X51000500Y-32725323D01*
X51000500Y-32725139D01*
X51000064Y-32723134D01*
X50985972Y-32652289D01*
X50985967Y-32652266D01*
X50985967Y-32652264D01*
X50985966Y-32652260D01*
X50985965Y-32652258D01*
X50985964Y-32652256D01*
X50930601Y-32569399D01*
X50857891Y-32520816D01*
X50853826Y-32517480D01*
X50847739Y-32514033D01*
X50847735Y-32514032D01*
X50847709Y-32514026D01*
X50774680Y-32499500D01*
X50774677Y-32499500D01*
X50774674Y-32499500D01*
X49225326Y-32499500D01*
X49225323Y-32499500D01*
X49225319Y-32499500D01*
X49152285Y-32514027D01*
X49152262Y-32514032D01*
X49152258Y-32514033D01*
X49069399Y-32569399D01*
X49014033Y-32652258D01*
X49014032Y-32652266D01*
X49014028Y-32652281D01*
X48999500Y-32725318D01*
X48999500Y-32725321D01*
X48999500Y-35274678D01*
X48999500Y-35274680D01*
X48999499Y-35274680D01*
X40765370Y-35274680D01*
X40804534Y-35268477D01*
X40999219Y-35205220D01*
X41181610Y-35112287D01*
X41238204Y-35071168D01*
X41279323Y-35041296D01*
X41347201Y-34991980D01*
X41347270Y-34991929D01*
X41348032Y-34991152D01*
X41491153Y-34848031D01*
X41491928Y-34847271D01*
X41491981Y-34847199D01*
X41492812Y-34846056D01*
X41531576Y-34792699D01*
X41544730Y-34774593D01*
X41544732Y-34774591D01*
X41612284Y-34681614D01*
X41612283Y-34681614D01*
X41612287Y-34681610D01*
X41705220Y-34499219D01*
X41768477Y-34304534D01*
X41800500Y-34102352D01*
X41800500Y-33897648D01*
X41780193Y-33769436D01*
X41768477Y-33695465D01*
X41724426Y-33559890D01*
X41706721Y-33505401D01*
X41705659Y-33501636D01*
X41704653Y-33499612D01*
X41702864Y-33495920D01*
X41701932Y-33494327D01*
X41671503Y-33434606D01*
X41671503Y-33434607D01*
X41612287Y-33318390D01*
X41604556Y-33307749D01*
X41491971Y-33152786D01*
X41347213Y-33008028D01*
X41347212Y-33008027D01*
X41347209Y-33008024D01*
X41196053Y-32898204D01*
X41191295Y-32892034D01*
X41185380Y-32887504D01*
X41183737Y-32886301D01*
X41183550Y-32886102D01*
X41176978Y-32881069D01*
X41169244Y-32872519D01*
X41170066Y-32871774D01*
X41158756Y-32859756D01*
X41157799Y-32860489D01*
X41151611Y-32852405D01*
X41153485Y-32850970D01*
X41127396Y-32796882D01*
X41126994Y-32794279D01*
X41126758Y-32792635D01*
X41125500Y-32775015D01*
X41125500Y-24767329D01*
X41130523Y-24732393D01*
X41133746Y-24721419D01*
X41134927Y-24717394D01*
X41172672Y-24658644D01*
X41174041Y-24657457D01*
X41228920Y-24629977D01*
X41236479Y-24628333D01*
X41262832Y-24625500D01*
X107529819Y-24625500D01*
X107564751Y-24630521D01*
X107596565Y-24639863D01*
X107630523Y-24655741D01*
X107644500Y-24665081D01*
X107644509Y-24665086D01*
X107723945Y-24697989D01*
X107770795Y-24717395D01*
X107775472Y-24719332D01*
X107779884Y-24721419D01*
X107926076Y-24750500D01*
X107926079Y-24750500D01*
X107926082Y-24750500D01*
X108073920Y-24750500D01*
X108171462Y-24731096D01*
X108218913Y-24721658D01*
X108355495Y-24665084D01*
X108368640Y-24656300D01*
X108400473Y-24641069D01*
X108432111Y-24631163D01*
X108469159Y-24625500D01*
X127732670Y-24625500D01*
X127767606Y-24630523D01*
X127782604Y-24634927D01*
X127841355Y-24672672D01*
X127842542Y-24674041D01*
X127870018Y-24728902D01*
X127871663Y-24736460D01*
X127874500Y-24762831D01*
X127874500Y-29029818D01*
X127869476Y-29064755D01*
X127860136Y-29096562D01*
X127844260Y-29130519D01*
X127834914Y-29144505D01*
X127834911Y-29144509D01*
X127778351Y-29281059D01*
X127778338Y-29281098D01*
X127749500Y-29426076D01*
X127749500Y-29529551D01*
X127744237Y-29547471D01*
X127778338Y-29718899D01*
X127778344Y-29718919D01*
X127834908Y-29855481D01*
X127834913Y-29855490D01*
X127834923Y-29855507D01*
X127917049Y-29978417D01*
X127917050Y-29978418D01*
X127917055Y-29978424D01*
X128021574Y-30082943D01*
X128021580Y-30082948D01*
X128021584Y-30082951D01*
X128144498Y-30165080D01*
X128144511Y-30165087D01*
X128275487Y-30219338D01*
X128279910Y-30221430D01*
X128280638Y-30221571D01*
X128281382Y-30221717D01*
X128426077Y-30250500D01*
X128426079Y-30250500D01*
X128426082Y-30250500D01*
X128573920Y-30250500D01*
X128671462Y-30231096D01*
X128718913Y-30221658D01*
X128855495Y-30165084D01*
X128978416Y-30082951D01*
X129082951Y-29978416D01*
X129165084Y-29855495D01*
X129221658Y-29718913D01*
X129235641Y-29648617D01*
X129250500Y-29573920D01*
X129250500Y-29426076D01*
X129221717Y-29281382D01*
X129221571Y-29280638D01*
X129221431Y-29279911D01*
X129219342Y-29275495D01*
X129165086Y-29144508D01*
X129165083Y-29144503D01*
X129165082Y-29144501D01*
X129156304Y-29131365D01*
X129141070Y-29099526D01*
X129131163Y-29067885D01*
X129125500Y-29030839D01*
X129125500Y-24878710D01*
X173149500Y-24878710D01*
X173149500Y-25121288D01*
X173181160Y-25361781D01*
X173243947Y-25596104D01*
X173336772Y-25820203D01*
X173336773Y-25820207D01*
X173336780Y-25820220D01*
X173458060Y-26030283D01*
X173458062Y-26030286D01*
X173458281Y-26030615D01*
X173459284Y-26031879D01*
X173605726Y-26222728D01*
X173605730Y-26222733D01*
X173605733Y-26222736D01*
X173605739Y-26222743D01*
X173605747Y-26222751D01*
X173777242Y-26394247D01*
X173777256Y-26394260D01*
X173777262Y-26394265D01*
X173969711Y-26541936D01*
X174179788Y-26663224D01*
X174403900Y-26756054D01*
X174638211Y-26818838D01*
X174818586Y-26842584D01*
X174878710Y-26850500D01*
X174878711Y-26850500D01*
X174878712Y-26850500D01*
X175121283Y-26850500D01*
X175121289Y-26850500D01*
X175169388Y-26844167D01*
X175361789Y-26818838D01*
X175596100Y-26756054D01*
X175820212Y-26663224D01*
X176030289Y-26541936D01*
X176222738Y-26394265D01*
X176394265Y-26222738D01*
X176541936Y-26030289D01*
X176663224Y-25820212D01*
X176756054Y-25596100D01*
X176818838Y-25361789D01*
X176850500Y-25121288D01*
X176850500Y-24878712D01*
X176818838Y-24638211D01*
X176756054Y-24403900D01*
X176663224Y-24179788D01*
X176541936Y-23969711D01*
X176425183Y-23817555D01*
X176425158Y-23817522D01*
X176394272Y-23777270D01*
X176394268Y-23777266D01*
X176394266Y-23777263D01*
X176394260Y-23777256D01*
X176222743Y-23605739D01*
X176222736Y-23605733D01*
X176222733Y-23605730D01*
X176222728Y-23605726D01*
X176031879Y-23459284D01*
X176030609Y-23458276D01*
X176030294Y-23458067D01*
X176008851Y-23445687D01*
X175858661Y-23358974D01*
X175858661Y-23358973D01*
X175820221Y-23336780D01*
X175820208Y-23336774D01*
X175596104Y-23243947D01*
X175361781Y-23181160D01*
X175121290Y-23149500D01*
X175121289Y-23149500D01*
X175121288Y-23149500D01*
X174878712Y-23149500D01*
X174878711Y-23149500D01*
X174878710Y-23149500D01*
X174638217Y-23181160D01*
X174403894Y-23243947D01*
X174179790Y-23336774D01*
X174179782Y-23336778D01*
X173969706Y-23458067D01*
X173969697Y-23458073D01*
X173777270Y-23605726D01*
X173777255Y-23605740D01*
X173777247Y-23605747D01*
X173605747Y-23777247D01*
X173605740Y-23777255D01*
X173605726Y-23777270D01*
X173458073Y-23969697D01*
X173458067Y-23969706D01*
X173336778Y-24179782D01*
X173336774Y-24179790D01*
X173243947Y-24403894D01*
X173181160Y-24638217D01*
X173149500Y-24878710D01*
X129125500Y-24878710D01*
X129125500Y-23938391D01*
X129125409Y-23937653D01*
X129124908Y-23935418D01*
X129102125Y-23820878D01*
X129101710Y-23818451D01*
X129101464Y-23817555D01*
X129101463Y-23817548D01*
X129054311Y-23703714D01*
X129054310Y-23703713D01*
X129054309Y-23703710D01*
X128985856Y-23601264D01*
X128985855Y-23601263D01*
X128985850Y-23601257D01*
X128898738Y-23514145D01*
X128796299Y-23445696D01*
X128796294Y-23445693D01*
X128796292Y-23445692D01*
X128796283Y-23445687D01*
X128796276Y-23445684D01*
X128796274Y-23445683D01*
X128773120Y-23436092D01*
X128757603Y-23423587D01*
X128682454Y-23398538D01*
X128682455Y-23398538D01*
X128682452Y-23398537D01*
X128682448Y-23398536D01*
X128682444Y-23398535D01*
X128682442Y-23398534D01*
X128682418Y-23398529D01*
X128561614Y-23374500D01*
X128561610Y-23374500D01*
X128561606Y-23374500D01*
X108470181Y-23374500D01*
X108435245Y-23369477D01*
X108403437Y-23360137D01*
X108369482Y-23344262D01*
X108355494Y-23334915D01*
X108355490Y-23334913D01*
X108273066Y-23300772D01*
X108218917Y-23278343D01*
X108218913Y-23278341D01*
X108218911Y-23278341D01*
X108218900Y-23278338D01*
X108073922Y-23249500D01*
X108073920Y-23249500D01*
X108073918Y-23249500D01*
X107926082Y-23249500D01*
X107926080Y-23249500D01*
X107926078Y-23249500D01*
X107781096Y-23278338D01*
X107781087Y-23278341D01*
X107781072Y-23278347D01*
X107644504Y-23334915D01*
X107644497Y-23334919D01*
X107644259Y-23335037D01*
X107642667Y-23336143D01*
X107631367Y-23343694D01*
X107599527Y-23358928D01*
X107567892Y-23368834D01*
X107530838Y-23374500D01*
X40438384Y-23374500D01*
X40317561Y-23398533D01*
X40317555Y-23398535D01*
X40317545Y-23398538D01*
X40317540Y-23398539D01*
X40317522Y-23398546D01*
X40203726Y-23445681D01*
X40203699Y-23445696D01*
X40101260Y-23514145D01*
X40014145Y-23601260D01*
X39945696Y-23703699D01*
X39945681Y-23703726D01*
X39898546Y-23817522D01*
X39898539Y-23817540D01*
X39898538Y-23817545D01*
X39898535Y-23817555D01*
X39898534Y-23817555D01*
X39874500Y-23938384D01*
X39874500Y-32766055D01*
X39869476Y-32800994D01*
X39863929Y-32819883D01*
X39831692Y-32873558D01*
X39820397Y-32884614D01*
X39806543Y-32896319D01*
X39652783Y-33008030D01*
X39508029Y-33152784D01*
X39508027Y-33152787D01*
X39387715Y-33318385D01*
X39387708Y-33318397D01*
X39294786Y-33500764D01*
X39294780Y-33500777D01*
X39231521Y-33695468D01*
X39199500Y-33897642D01*
X38300499Y-33897642D01*
X38280193Y-33769436D01*
X38268477Y-33695465D01*
X38224426Y-33559890D01*
X38206721Y-33505401D01*
X38205659Y-33501636D01*
X38204653Y-33499612D01*
X38202864Y-33495920D01*
X38201932Y-33494327D01*
X38171503Y-33434606D01*
X38171503Y-33434607D01*
X38112287Y-33318390D01*
X38104556Y-33307749D01*
X37991971Y-33152786D01*
X37847213Y-33008028D01*
X37847212Y-33008027D01*
X37847211Y-33008026D01*
X37689507Y-32893450D01*
X37689168Y-32893161D01*
X37681603Y-32887707D01*
X37681229Y-32887519D01*
X37673549Y-32883606D01*
X37583635Y-32837792D01*
X37583635Y-32837791D01*
X37583633Y-32837791D01*
X37499228Y-32794783D01*
X37499221Y-32794780D01*
X37394316Y-32760694D01*
X37304534Y-32731522D01*
X37304532Y-32731521D01*
X37304530Y-32731521D01*
X37304529Y-32731520D01*
X37129995Y-32703878D01*
X37113409Y-32701251D01*
X37102354Y-32699500D01*
X37102352Y-32699500D01*
X36897648Y-32699500D01*
X36897647Y-32699500D01*
X36873327Y-32703351D01*
X36873326Y-32703350D01*
X36695468Y-32731521D01*
X36500777Y-32794780D01*
X36500764Y-32794786D01*
X36318397Y-32887708D01*
X36318385Y-32887715D01*
X36152787Y-33008027D01*
X36152784Y-33008029D01*
X36008029Y-33152784D01*
X36008027Y-33152787D01*
X35887715Y-33318385D01*
X35887708Y-33318397D01*
X35794786Y-33500764D01*
X35794780Y-33500777D01*
X35731521Y-33695468D01*
X35699500Y-33897642D01*
X35050000Y-33897642D01*
X35050000Y-33878006D01*
X35011834Y-33637040D01*
X34936439Y-33405001D01*
X34825676Y-33187619D01*
X34758456Y-33095097D01*
X34758454Y-33095096D01*
X34758453Y-33095095D01*
X34758452Y-33095096D01*
X34146305Y-33707245D01*
X34084982Y-33740730D01*
X34015291Y-33735746D01*
X33959357Y-33693875D01*
X33951237Y-33681564D01*
X33940112Y-33662295D01*
X33940108Y-33662290D01*
X33837707Y-33559889D01*
X33818433Y-33548762D01*
X33770217Y-33498195D01*
X33756993Y-33429588D01*
X33782961Y-33364723D01*
X33792741Y-33353703D01*
X34404902Y-32741544D01*
X34404901Y-32741543D01*
X34404895Y-32741537D01*
X34312383Y-32674325D01*
X34312382Y-32674324D01*
X34312380Y-32674323D01*
X34094998Y-32563560D01*
X33862959Y-32488165D01*
X33862953Y-32488164D01*
X33621998Y-32450000D01*
X33621993Y-32450000D01*
X33378007Y-32450000D01*
X33378002Y-32450000D01*
X33137045Y-32488164D01*
X33137043Y-32488164D01*
X33137040Y-32488165D01*
X32905001Y-32563560D01*
X32807264Y-32613360D01*
X32687629Y-32674317D01*
X32687626Y-32674318D01*
X32687626Y-32674319D01*
X32595097Y-32741544D01*
X32958927Y-33105374D01*
X33207247Y-33353693D01*
X33240732Y-33415016D01*
X33235748Y-33484707D01*
X33193877Y-33540641D01*
X33181568Y-33548760D01*
X33162295Y-33559887D01*
X33162290Y-33559891D01*
X33059891Y-33662290D01*
X33059887Y-33662295D01*
X33048759Y-33681569D01*
X32998190Y-33729783D01*
X32929582Y-33743003D01*
X32864719Y-33717033D01*
X32853693Y-33707246D01*
X32241544Y-33095097D01*
X32174324Y-33187620D01*
X32174317Y-33187629D01*
X32163851Y-33208170D01*
X32063560Y-33405001D01*
X31988165Y-33637040D01*
X31988164Y-33637043D01*
X31988164Y-33637045D01*
X31950000Y-33878000D01*
X31300499Y-33878000D01*
X31300499Y-33153942D01*
X31300498Y-33153937D01*
X31295278Y-33105374D01*
X31295278Y-33105372D01*
X31294671Y-33099730D01*
X31294065Y-33094087D01*
X31243570Y-32958703D01*
X31243568Y-32958700D01*
X31156975Y-32843025D01*
X31156973Y-32843024D01*
X31156973Y-32843023D01*
X31092531Y-32794783D01*
X31041299Y-32756431D01*
X31041296Y-32756429D01*
X31041293Y-32756428D01*
X31041292Y-32756427D01*
X30908008Y-32706716D01*
X30904991Y-32705529D01*
X30899299Y-32705224D01*
X30846068Y-32699501D01*
X30846059Y-32699500D01*
X30846049Y-32699500D01*
X29153937Y-32699500D01*
X29152004Y-32699659D01*
X29150358Y-32699885D01*
X29094087Y-32705933D01*
X29094085Y-32705934D01*
X28958704Y-32756428D01*
X28958701Y-32756430D01*
X28843025Y-32843025D01*
X28756430Y-32958701D01*
X28756427Y-32958705D01*
X28705937Y-33094078D01*
X28705936Y-33094083D01*
X28705936Y-33094084D01*
X28705935Y-33094088D01*
X28699500Y-33153941D01*
X22000000Y-33153941D01*
X22000000Y-24878710D01*
X23149500Y-24878710D01*
X23149500Y-25121288D01*
X23181160Y-25361781D01*
X23243947Y-25596104D01*
X23336772Y-25820203D01*
X23336773Y-25820207D01*
X23336780Y-25820220D01*
X23458060Y-26030283D01*
X23458062Y-26030286D01*
X23458281Y-26030615D01*
X23459284Y-26031879D01*
X23605726Y-26222728D01*
X23605730Y-26222733D01*
X23605733Y-26222736D01*
X23605739Y-26222743D01*
X23605747Y-26222751D01*
X23777242Y-26394247D01*
X23777256Y-26394260D01*
X23777262Y-26394265D01*
X23969711Y-26541936D01*
X24179788Y-26663224D01*
X24403900Y-26756054D01*
X24638211Y-26818838D01*
X24818586Y-26842584D01*
X24878710Y-26850500D01*
X24878711Y-26850500D01*
X24878712Y-26850500D01*
X25121283Y-26850500D01*
X25121289Y-26850500D01*
X25169388Y-26844167D01*
X25361789Y-26818838D01*
X25596100Y-26756054D01*
X25820212Y-26663224D01*
X26030289Y-26541936D01*
X26222738Y-26394265D01*
X26394265Y-26222738D01*
X26541936Y-26030289D01*
X26663224Y-25820212D01*
X26756054Y-25596100D01*
X26818838Y-25361789D01*
X26850500Y-25121288D01*
X26850500Y-24878712D01*
X26818838Y-24638211D01*
X26756054Y-24403900D01*
X26663224Y-24179788D01*
X26541936Y-23969711D01*
X26425183Y-23817555D01*
X26425158Y-23817522D01*
X26394272Y-23777270D01*
X26394268Y-23777266D01*
X26394266Y-23777263D01*
X26394260Y-23777256D01*
X26222743Y-23605739D01*
X26222736Y-23605733D01*
X26222733Y-23605730D01*
X26222728Y-23605726D01*
X26031879Y-23459284D01*
X26030609Y-23458276D01*
X26030294Y-23458067D01*
X26008851Y-23445687D01*
X25858661Y-23358974D01*
X25858661Y-23358973D01*
X25820221Y-23336780D01*
X25820208Y-23336774D01*
X25596104Y-23243947D01*
X25361781Y-23181160D01*
X25121290Y-23149500D01*
X25121289Y-23149500D01*
X25121288Y-23149500D01*
X24878712Y-23149500D01*
X24878711Y-23149500D01*
X24878710Y-23149500D01*
X24638217Y-23181160D01*
X24403894Y-23243947D01*
X24179790Y-23336774D01*
X24179782Y-23336778D01*
X23969706Y-23458067D01*
X23969697Y-23458073D01*
X23777270Y-23605726D01*
X23777255Y-23605740D01*
X23777247Y-23605747D01*
X23605747Y-23777247D01*
X23605740Y-23777255D01*
X23605726Y-23777270D01*
X23458073Y-23969697D01*
X23458067Y-23969706D01*
X23336778Y-24179782D01*
X23336774Y-24179790D01*
X23243947Y-24403894D01*
X23181160Y-24638217D01*
X23149500Y-24878710D01*
X22000000Y-24878710D01*
X22000000Y-22141829D01*
X22005023Y-22106893D01*
X22009427Y-22091895D01*
X22047172Y-22033144D01*
X22048541Y-22031957D01*
X22103420Y-22004477D01*
X22110979Y-22002833D01*
X22137332Y-22000000D01*
X177858170Y-22000000D01*
X177893106Y-22005023D01*
G37*
%TD.AperFunction*%
%TD*%
%TA.AperFunction,Conductor*%
%TO.N,INTENTIONALLY_UNUSED_UFB1_12*%
G36*
X112943039Y-87019685D02*
G01*
X112988794Y-87072489D01*
X113000000Y-87124000D01*
X113000000Y-88876000D01*
X112980315Y-88943039D01*
X112927511Y-88988794D01*
X112876000Y-89000000D01*
X111124000Y-89000000D01*
X111056961Y-88980315D01*
X111011206Y-88927511D01*
X111000000Y-88876000D01*
X111000000Y-87124000D01*
X111019685Y-87056961D01*
X111072489Y-87011206D01*
X111124000Y-87000000D01*
X112876000Y-87000000D01*
X112943039Y-87019685D01*
G37*
%TD.AperFunction*%
%TD*%
%TA.AperFunction,Conductor*%
%TO.N,INTENTIONALLY_UNUSED_UFB1_13*%
G36*
X112943039Y-74219685D02*
G01*
X112988794Y-74272489D01*
X113000000Y-74324000D01*
X113000000Y-76076000D01*
X112980315Y-76143039D01*
X112927511Y-76188794D01*
X112876000Y-76200000D01*
X111124000Y-76200000D01*
X111056961Y-76180315D01*
X111011206Y-76127511D01*
X111000000Y-76076000D01*
X111000000Y-74324000D01*
X111019685Y-74256961D01*
X111072489Y-74211206D01*
X111124000Y-74200000D01*
X112876000Y-74200000D01*
X112943039Y-74219685D01*
G37*
%TD.AperFunction*%
%TD*%
M02*
