%TF.GenerationSoftware,KiCad,Pcbnew,10.0.5*%
%TF.CreationDate,2026-08-09T14:34:18-04:00*%
%TF.ProjectId,hr-v0-dxl-protection-carrier,68722d76-302d-4647-986c-2d70726f7465,rev?*%
%TF.SameCoordinates,Original*%
%TF.FileFunction,Soldermask,Bot*%
%TF.FilePolarity,Negative*%
%FSLAX46Y46*%
G04 Gerber Fmt 4.6, Leading zero omitted, Abs format (unit mm)*
G04 Created by KiCad (PCBNEW 10.0.5) date 2026-08-09 14:34:18*
%MOMM*%
%LPD*%
G01*
G04 APERTURE LIST*
G04 APERTURE END LIST*
G36*
X5373513Y-53444208D02*
G01*
X5612293Y-53521793D01*
X5835998Y-53635776D01*
X6039117Y-53783350D01*
X6216650Y-53960883D01*
X6364224Y-54164002D01*
X6478207Y-54387707D01*
X6555792Y-54626487D01*
X6595068Y-54874465D01*
X6595068Y-55125535D01*
X6555792Y-55373513D01*
X6478207Y-55612293D01*
X6364224Y-55835998D01*
X6216650Y-56039117D01*
X6039117Y-56216650D01*
X5835998Y-56364224D01*
X5612293Y-56478207D01*
X5373513Y-56555792D01*
X5125535Y-56595068D01*
X4874465Y-56595068D01*
X4626487Y-56555792D01*
X4387707Y-56478207D01*
X4164002Y-56364224D01*
X3960883Y-56216650D01*
X3783350Y-56039117D01*
X3635776Y-55835998D01*
X3521793Y-55612293D01*
X3444208Y-55373513D01*
X3404932Y-55125535D01*
X3404932Y-54874465D01*
X3444208Y-54626487D01*
X3521793Y-54387707D01*
X3635776Y-54164002D01*
X3783350Y-53960883D01*
X3960883Y-53783350D01*
X4164002Y-53635776D01*
X4387707Y-53521793D01*
X4626487Y-53444208D01*
X4874465Y-53404932D01*
X5125535Y-53404932D01*
X5373513Y-53444208D01*
G37*
G36*
X95373513Y-53444208D02*
G01*
X95612293Y-53521793D01*
X95835998Y-53635776D01*
X96039117Y-53783350D01*
X96216650Y-53960883D01*
X96364224Y-54164002D01*
X96478207Y-54387707D01*
X96555792Y-54626487D01*
X96595068Y-54874465D01*
X96595068Y-55125535D01*
X96555792Y-55373513D01*
X96478207Y-55612293D01*
X96364224Y-55835998D01*
X96216650Y-56039117D01*
X96039117Y-56216650D01*
X95835998Y-56364224D01*
X95612293Y-56478207D01*
X95373513Y-56555792D01*
X95125535Y-56595068D01*
X94874465Y-56595068D01*
X94626487Y-56555792D01*
X94387707Y-56478207D01*
X94164002Y-56364224D01*
X93960883Y-56216650D01*
X93783350Y-56039117D01*
X93635776Y-55835998D01*
X93521793Y-55612293D01*
X93444208Y-55373513D01*
X93404932Y-55125535D01*
X93404932Y-54874465D01*
X93444208Y-54626487D01*
X93521793Y-54387707D01*
X93635776Y-54164002D01*
X93783350Y-53960883D01*
X93960883Y-53783350D01*
X94164002Y-53635776D01*
X94387707Y-53521793D01*
X94626487Y-53444208D01*
X94874465Y-53404932D01*
X95125535Y-53404932D01*
X95373513Y-53444208D01*
G37*
G36*
X50326824Y-50638682D02*
G01*
X50535757Y-50706569D01*
X50731498Y-50806304D01*
X50909227Y-50935432D01*
X51064568Y-51090773D01*
X51193696Y-51268502D01*
X51293431Y-51464243D01*
X51361318Y-51673176D01*
X51395684Y-51890157D01*
X51395684Y-52109843D01*
X51361318Y-52326824D01*
X51293431Y-52535757D01*
X51193696Y-52731498D01*
X51064568Y-52909227D01*
X50909227Y-53064568D01*
X50731498Y-53193696D01*
X50535757Y-53293431D01*
X50326824Y-53361318D01*
X50109843Y-53395684D01*
X49890157Y-53395684D01*
X49673176Y-53361318D01*
X49464243Y-53293431D01*
X49268502Y-53193696D01*
X49090773Y-53064568D01*
X48935432Y-52909227D01*
X48806304Y-52731498D01*
X48706569Y-52535757D01*
X48638682Y-52326824D01*
X48604316Y-52109843D01*
X48604316Y-51890157D01*
X48638682Y-51673176D01*
X48706569Y-51464243D01*
X48806304Y-51268502D01*
X48935432Y-51090773D01*
X49090773Y-50935432D01*
X49268502Y-50806304D01*
X49464243Y-50706569D01*
X49673176Y-50638682D01*
X49890157Y-50604316D01*
X50109843Y-50604316D01*
X50326824Y-50638682D01*
G37*
G36*
X70326824Y-40638682D02*
G01*
X70535757Y-40706569D01*
X70731498Y-40806304D01*
X70909227Y-40935432D01*
X71064568Y-41090773D01*
X71193696Y-41268502D01*
X71293431Y-41464243D01*
X71361318Y-41673176D01*
X71395684Y-41890157D01*
X71395684Y-42109843D01*
X71361318Y-42326824D01*
X71293431Y-42535757D01*
X71193696Y-42731498D01*
X71064568Y-42909227D01*
X70909227Y-43064568D01*
X70731498Y-43193696D01*
X70535757Y-43293431D01*
X70326824Y-43361318D01*
X70109843Y-43395684D01*
X69890157Y-43395684D01*
X69673176Y-43361318D01*
X69464243Y-43293431D01*
X69268502Y-43193696D01*
X69090773Y-43064568D01*
X68935432Y-42909227D01*
X68806304Y-42731498D01*
X68706569Y-42535757D01*
X68638682Y-42326824D01*
X68604316Y-42109843D01*
X68604316Y-41890157D01*
X68638682Y-41673176D01*
X68706569Y-41464243D01*
X68806304Y-41268502D01*
X68935432Y-41090773D01*
X69090773Y-40935432D01*
X69268502Y-40806304D01*
X69464243Y-40706569D01*
X69673176Y-40638682D01*
X69890157Y-40604316D01*
X70109843Y-40604316D01*
X70326824Y-40638682D01*
G37*
G36*
X20326824Y-36638682D02*
G01*
X20535757Y-36706569D01*
X20731498Y-36806304D01*
X20909227Y-36935432D01*
X21064568Y-37090773D01*
X21193696Y-37268502D01*
X21293431Y-37464243D01*
X21361318Y-37673176D01*
X21395684Y-37890157D01*
X21395684Y-38109843D01*
X21361318Y-38326824D01*
X21293431Y-38535757D01*
X21193696Y-38731498D01*
X21064568Y-38909227D01*
X20909227Y-39064568D01*
X20731498Y-39193696D01*
X20535757Y-39293431D01*
X20326824Y-39361318D01*
X20109843Y-39395684D01*
X19890157Y-39395684D01*
X19673176Y-39361318D01*
X19464243Y-39293431D01*
X19268502Y-39193696D01*
X19090773Y-39064568D01*
X18935432Y-38909227D01*
X18806304Y-38731498D01*
X18706569Y-38535757D01*
X18638682Y-38326824D01*
X18604316Y-38109843D01*
X18604316Y-37890157D01*
X18638682Y-37673176D01*
X18706569Y-37464243D01*
X18806304Y-37268502D01*
X18935432Y-37090773D01*
X19090773Y-36935432D01*
X19268502Y-36806304D01*
X19464243Y-36706569D01*
X19673176Y-36638682D01*
X19890157Y-36604316D01*
X20109843Y-36604316D01*
X20326824Y-36638682D01*
G37*
G36*
X8315151Y-32647301D02*
G01*
X8516623Y-32712763D01*
X8705373Y-32808936D01*
X8876755Y-32933452D01*
X9026548Y-33083245D01*
X9151064Y-33254627D01*
X9247237Y-33443377D01*
X9312699Y-33644849D01*
X9345838Y-33854080D01*
X9345838Y-34065920D01*
X9312699Y-34275151D01*
X9247237Y-34476623D01*
X9151064Y-34665373D01*
X9026548Y-34836755D01*
X8876755Y-34986548D01*
X8705373Y-35111064D01*
X8516623Y-35207237D01*
X8315151Y-35272699D01*
X8105920Y-35305838D01*
X7894080Y-35305838D01*
X7684849Y-35272699D01*
X7483377Y-35207237D01*
X7294627Y-35111064D01*
X7123245Y-34986548D01*
X6973452Y-34836755D01*
X6848936Y-34665373D01*
X6752763Y-34476623D01*
X6687301Y-34275151D01*
X6654162Y-34065920D01*
X6654162Y-33854080D01*
X6687301Y-33644849D01*
X6752763Y-33443377D01*
X6848936Y-33254627D01*
X6973452Y-33083245D01*
X7123245Y-32933452D01*
X7294627Y-32808936D01*
X7483377Y-32712763D01*
X7684849Y-32647301D01*
X7894080Y-32614162D01*
X8105920Y-32614162D01*
X8315151Y-32647301D01*
G37*
G36*
X9195670Y-28669030D02*
G01*
X9276776Y-28723224D01*
X9330970Y-28804330D01*
X9349999Y-28900002D01*
X9349999Y-28902458D01*
X9350000Y-28902464D01*
X9350000Y-31097535D01*
X9350000Y-31099999D01*
X9330970Y-31195670D01*
X9276776Y-31276776D01*
X9195670Y-31330970D01*
X9099998Y-31349999D01*
X9097540Y-31349999D01*
X9097535Y-31350000D01*
X6902465Y-31350000D01*
X6902464Y-31349999D01*
X6900001Y-31350000D01*
X6804330Y-31330970D01*
X6723224Y-31276776D01*
X6669030Y-31195670D01*
X6650001Y-31099998D01*
X6650000Y-31097540D01*
X6650000Y-31097535D01*
X6650000Y-28902464D01*
X6650000Y-28902463D01*
X6650000Y-28900001D01*
X6669030Y-28804330D01*
X6723224Y-28723224D01*
X6804330Y-28669030D01*
X6900002Y-28650001D01*
X6902459Y-28650000D01*
X6902465Y-28650000D01*
X9097535Y-28650000D01*
X9099999Y-28650000D01*
X9195670Y-28669030D01*
G37*
G36*
X93195670Y-28669030D02*
G01*
X93276776Y-28723224D01*
X93330970Y-28804330D01*
X93349999Y-28900002D01*
X93349999Y-28902458D01*
X93350000Y-28902464D01*
X93350000Y-31097535D01*
X93350000Y-31099999D01*
X93330970Y-31195670D01*
X93276776Y-31276776D01*
X93195670Y-31330970D01*
X93099998Y-31349999D01*
X93097540Y-31349999D01*
X93097535Y-31350000D01*
X90902465Y-31350000D01*
X90902464Y-31349999D01*
X90900001Y-31350000D01*
X90804330Y-31330970D01*
X90723224Y-31276776D01*
X90669030Y-31195670D01*
X90650001Y-31099998D01*
X90650000Y-31097540D01*
X90650000Y-31097535D01*
X90650000Y-28902464D01*
X90650000Y-28902463D01*
X90650000Y-28900001D01*
X90669030Y-28804330D01*
X90723224Y-28723224D01*
X90804330Y-28669030D01*
X90900002Y-28650001D01*
X90902459Y-28650000D01*
X90902465Y-28650000D01*
X93097535Y-28650000D01*
X93099999Y-28650000D01*
X93195670Y-28669030D01*
G37*
G36*
X92315151Y-24727301D02*
G01*
X92516623Y-24792763D01*
X92705373Y-24888936D01*
X92876755Y-25013452D01*
X93026548Y-25163245D01*
X93151064Y-25334627D01*
X93247237Y-25523377D01*
X93312699Y-25724849D01*
X93345838Y-25934080D01*
X93345838Y-26145920D01*
X93312699Y-26355151D01*
X93247237Y-26556623D01*
X93151064Y-26745373D01*
X93026548Y-26916755D01*
X92876755Y-27066548D01*
X92705373Y-27191064D01*
X92516623Y-27287237D01*
X92315151Y-27352699D01*
X92105920Y-27385838D01*
X91894080Y-27385838D01*
X91684849Y-27352699D01*
X91483377Y-27287237D01*
X91294627Y-27191064D01*
X91123245Y-27066548D01*
X90973452Y-26916755D01*
X90848936Y-26745373D01*
X90752763Y-26556623D01*
X90687301Y-26355151D01*
X90654162Y-26145920D01*
X90654162Y-25934080D01*
X90687301Y-25724849D01*
X90752763Y-25523377D01*
X90848936Y-25334627D01*
X90973452Y-25163245D01*
X91123245Y-25013452D01*
X91294627Y-24888936D01*
X91483377Y-24792763D01*
X91684849Y-24727301D01*
X91894080Y-24694162D01*
X92105920Y-24694162D01*
X92315151Y-24727301D01*
G37*
G36*
X20326824Y-20638682D02*
G01*
X20535757Y-20706569D01*
X20731498Y-20806304D01*
X20909227Y-20935432D01*
X21064568Y-21090773D01*
X21193696Y-21268502D01*
X21293431Y-21464243D01*
X21361318Y-21673176D01*
X21395684Y-21890157D01*
X21395684Y-22109843D01*
X21361318Y-22326824D01*
X21293431Y-22535757D01*
X21193696Y-22731498D01*
X21064568Y-22909227D01*
X20909227Y-23064568D01*
X20731498Y-23193696D01*
X20535757Y-23293431D01*
X20326824Y-23361318D01*
X20109843Y-23395684D01*
X19890157Y-23395684D01*
X19673176Y-23361318D01*
X19464243Y-23293431D01*
X19268502Y-23193696D01*
X19090773Y-23064568D01*
X18935432Y-22909227D01*
X18806304Y-22731498D01*
X18706569Y-22535757D01*
X18638682Y-22326824D01*
X18604316Y-22109843D01*
X18604316Y-21890157D01*
X18638682Y-21673176D01*
X18706569Y-21464243D01*
X18806304Y-21268502D01*
X18935432Y-21090773D01*
X19090773Y-20935432D01*
X19268502Y-20806304D01*
X19464243Y-20706569D01*
X19673176Y-20638682D01*
X19890157Y-20604316D01*
X20109843Y-20604316D01*
X20326824Y-20638682D01*
G37*
G36*
X16326824Y-10638682D02*
G01*
X16535757Y-10706569D01*
X16731498Y-10806304D01*
X16909227Y-10935432D01*
X17064568Y-11090773D01*
X17193696Y-11268502D01*
X17293431Y-11464243D01*
X17361318Y-11673176D01*
X17395684Y-11890157D01*
X17395684Y-12109843D01*
X17361318Y-12326824D01*
X17293431Y-12535757D01*
X17193696Y-12731498D01*
X17064568Y-12909227D01*
X16909227Y-13064568D01*
X16731498Y-13193696D01*
X16535757Y-13293431D01*
X16326824Y-13361318D01*
X16109843Y-13395684D01*
X15890157Y-13395684D01*
X15673176Y-13361318D01*
X15464243Y-13293431D01*
X15268502Y-13193696D01*
X15090773Y-13064568D01*
X14935432Y-12909227D01*
X14806304Y-12731498D01*
X14706569Y-12535757D01*
X14638682Y-12326824D01*
X14604316Y-12109843D01*
X14604316Y-11890157D01*
X14638682Y-11673176D01*
X14706569Y-11464243D01*
X14806304Y-11268502D01*
X14935432Y-11090773D01*
X15090773Y-10935432D01*
X15268502Y-10806304D01*
X15464243Y-10706569D01*
X15673176Y-10638682D01*
X15890157Y-10604316D01*
X16109843Y-10604316D01*
X16326824Y-10638682D01*
G37*
G36*
X84326824Y-10638682D02*
G01*
X84535757Y-10706569D01*
X84731498Y-10806304D01*
X84909227Y-10935432D01*
X85064568Y-11090773D01*
X85193696Y-11268502D01*
X85293431Y-11464243D01*
X85361318Y-11673176D01*
X85395684Y-11890157D01*
X85395684Y-12109843D01*
X85361318Y-12326824D01*
X85293431Y-12535757D01*
X85193696Y-12731498D01*
X85064568Y-12909227D01*
X84909227Y-13064568D01*
X84731498Y-13193696D01*
X84535757Y-13293431D01*
X84326824Y-13361318D01*
X84109843Y-13395684D01*
X83890157Y-13395684D01*
X83673176Y-13361318D01*
X83464243Y-13293431D01*
X83268502Y-13193696D01*
X83090773Y-13064568D01*
X82935432Y-12909227D01*
X82806304Y-12731498D01*
X82706569Y-12535757D01*
X82638682Y-12326824D01*
X82604316Y-12109843D01*
X82604316Y-11890157D01*
X82638682Y-11673176D01*
X82706569Y-11464243D01*
X82806304Y-11268502D01*
X82935432Y-11090773D01*
X83090773Y-10935432D01*
X83268502Y-10806304D01*
X83464243Y-10706569D01*
X83673176Y-10638682D01*
X83890157Y-10604316D01*
X84109843Y-10604316D01*
X84326824Y-10638682D01*
G37*
G36*
X5373513Y-3444208D02*
G01*
X5612293Y-3521793D01*
X5835998Y-3635776D01*
X6039117Y-3783350D01*
X6216650Y-3960883D01*
X6364224Y-4164002D01*
X6478207Y-4387707D01*
X6555792Y-4626487D01*
X6595068Y-4874465D01*
X6595068Y-5125535D01*
X6555792Y-5373513D01*
X6478207Y-5612293D01*
X6364224Y-5835998D01*
X6216650Y-6039117D01*
X6039117Y-6216650D01*
X5835998Y-6364224D01*
X5612293Y-6478207D01*
X5373513Y-6555792D01*
X5125535Y-6595068D01*
X4874465Y-6595068D01*
X4626487Y-6555792D01*
X4387707Y-6478207D01*
X4164002Y-6364224D01*
X3960883Y-6216650D01*
X3783350Y-6039117D01*
X3635776Y-5835998D01*
X3521793Y-5612293D01*
X3444208Y-5373513D01*
X3404932Y-5125535D01*
X3404932Y-4874465D01*
X3444208Y-4626487D01*
X3521793Y-4387707D01*
X3635776Y-4164002D01*
X3783350Y-3960883D01*
X3960883Y-3783350D01*
X4164002Y-3635776D01*
X4387707Y-3521793D01*
X4626487Y-3444208D01*
X4874465Y-3404932D01*
X5125535Y-3404932D01*
X5373513Y-3444208D01*
G37*
G36*
X95373513Y-3444208D02*
G01*
X95612293Y-3521793D01*
X95835998Y-3635776D01*
X96039117Y-3783350D01*
X96216650Y-3960883D01*
X96364224Y-4164002D01*
X96478207Y-4387707D01*
X96555792Y-4626487D01*
X96595068Y-4874465D01*
X96595068Y-5125535D01*
X96555792Y-5373513D01*
X96478207Y-5612293D01*
X96364224Y-5835998D01*
X96216650Y-6039117D01*
X96039117Y-6216650D01*
X95835998Y-6364224D01*
X95612293Y-6478207D01*
X95373513Y-6555792D01*
X95125535Y-6595068D01*
X94874465Y-6595068D01*
X94626487Y-6555792D01*
X94387707Y-6478207D01*
X94164002Y-6364224D01*
X93960883Y-6216650D01*
X93783350Y-6039117D01*
X93635776Y-5835998D01*
X93521793Y-5612293D01*
X93444208Y-5373513D01*
X93404932Y-5125535D01*
X93404932Y-4874465D01*
X93444208Y-4626487D01*
X93521793Y-4387707D01*
X93635776Y-4164002D01*
X93783350Y-3960883D01*
X93960883Y-3783350D01*
X94164002Y-3635776D01*
X94387707Y-3521793D01*
X94626487Y-3444208D01*
X94874465Y-3404932D01*
X95125535Y-3404932D01*
X95373513Y-3444208D01*
G37*
M02*
