%TF.GenerationSoftware,KiCad,Pcbnew,10.0.5*%
%TF.CreationDate,2026-08-09T14:34:18-04:00*%
%TF.ProjectId,hr-v0-dxl-protection-carrier,68722d76-302d-4647-986c-2d70726f7465,rev?*%
%TF.SameCoordinates,Original*%
%TF.FileFunction,Copper,L2,Inr*%
%TF.FilePolarity,Positive*%
%FSLAX46Y46*%
G04 Gerber Fmt 4.6, Leading zero omitted, Abs format (unit mm)*
G04 Created by KiCad (PCBNEW 10.0.5) date 2026-08-09 14:34:18*
%MOMM*%
%LPD*%
G01*
G04 APERTURE LIST*
G04 Aperture macros list*
%AMRoundRect*
0 Rectangle with rounded corners*
0 $1 Rounding radius*
0 $2 $3 $4 $5 $6 $7 $8 $9 X,Y pos of 4 corners*
0 Add a 4 corners polygon primitive as box body*
4,1,4,$2,$3,$4,$5,$6,$7,$8,$9,$2,$3,0*
0 Add four circle primitives for the rounded corners*
1,1,$1+$1,$2,$3*
1,1,$1+$1,$4,$5*
1,1,$1+$1,$6,$7*
1,1,$1+$1,$8,$9*
0 Add four rect primitives between the rounded corners*
20,1,$1+$1,$2,$3,$4,$5,0*
20,1,$1+$1,$4,$5,$6,$7,0*
20,1,$1+$1,$6,$7,$8,$9,0*
20,1,$1+$1,$8,$9,$2,$3,0*%
G04 Aperture macros list end*
%TA.AperFunction,ComponentPad*%
%ADD10RoundRect,0.250001X-1.099999X1.099999X-1.099999X-1.099999X1.099999X-1.099999X1.099999X1.099999X0*%
%TD*%
%TA.AperFunction,ComponentPad*%
%ADD11C,2.700000*%
%TD*%
%TA.AperFunction,ComponentPad*%
%ADD12C,2.800000*%
%TD*%
%TA.AperFunction,ComponentPad*%
%ADD13RoundRect,0.250001X1.099999X-1.099999X1.099999X1.099999X-1.099999X1.099999X-1.099999X-1.099999X0*%
%TD*%
%TA.AperFunction,ViaPad*%
%ADD14C,0.600000*%
%TD*%
G04 APERTURE END LIST*
D10*
%TO.N,BRANCH_FUSED_IN*%
%TO.C,JIN1*%
X8000000Y-30000000D03*
D11*
%TO.N,ACT_0V_PE_BONDED*%
X8000000Y-33960000D03*
%TD*%
D12*
%TO.N,ACT_0V_PE_BONDED*%
%TO.C,TPGND1*%
X50000000Y-52000000D03*
%TD*%
D13*
%TO.N,BRANCH_LIMITED_OUT*%
%TO.C,JOUT1*%
X92000000Y-30000000D03*
D11*
%TO.N,ACT_0V_PE_BONDED*%
X92000000Y-26040000D03*
%TD*%
D12*
%TO.N,SPLYGD_DIAG*%
%TO.C,TPSPLY1*%
X20000000Y-22000000D03*
%TD*%
%TO.N,ILM_SET*%
%TO.C,TPILM1*%
X70000000Y-42000000D03*
%TD*%
%TO.N,FLT_DIAG*%
%TO.C,TPFLT1*%
X20000000Y-38000000D03*
%TD*%
%TO.N,BRANCH_FUSED_IN*%
%TO.C,TPVIN1*%
X16000000Y-12000000D03*
%TD*%
%TO.N,BRANCH_LIMITED_OUT*%
%TO.C,TPOUT1*%
X84000000Y-12000000D03*
%TD*%
D14*
%TO.N,ACT_0V_PE_BONDED*%
X35000000Y-38000000D03*
X71000000Y-29000000D03*
X54000000Y-29750000D03*
X47000000Y-43000000D03*
X71000000Y-24000000D03*
X35000000Y-30000000D03*
X80000000Y-18000000D03*
X63000000Y-44000000D03*
X63000000Y-16000000D03*
X47000000Y-17000000D03*
%TO.N,ILM_SET*%
X55000000Y-30500000D03*
X58000000Y-42000000D03*
%TO.N,SPLYGD_DIAG*%
X45000000Y-29000000D03*
%TO.N,UVLO_SET*%
X42000000Y-18000000D03*
X43225000Y-20000000D03*
X45000000Y-32000000D03*
%TO.N,FLT_DIAG*%
X45000000Y-27500000D03*
%TO.N,OVLO_SET*%
X47000000Y-30500000D03*
X43225000Y-40000000D03*
X42000000Y-42000000D03*
%TO.N,DVDT_SET*%
X55000000Y-27500000D03*
X58000000Y-18000000D03*
%TD*%
%TA.AperFunction,Conductor*%
%TO.N,ACT_0V_PE_BONDED*%
G36*
X99142121Y-820002D02*
G01*
X99188614Y-873658D01*
X99200000Y-926000D01*
X99200000Y-59074000D01*
X99179998Y-59142121D01*
X99126342Y-59188614D01*
X99074000Y-59200000D01*
X926000Y-59200000D01*
X857879Y-59179998D01*
X811386Y-59126342D01*
X800000Y-59074000D01*
X800000Y-54888540D01*
X3299500Y-54888540D01*
X3299500Y-55111459D01*
X3328594Y-55332456D01*
X3328596Y-55332463D01*
X3386290Y-55547781D01*
X3471595Y-55753726D01*
X3471596Y-55753727D01*
X3471601Y-55753737D01*
X3583049Y-55946770D01*
X3718753Y-56123624D01*
X3718762Y-56123634D01*
X3876365Y-56281237D01*
X3876375Y-56281246D01*
X3876376Y-56281247D01*
X4053226Y-56416948D01*
X4246274Y-56528405D01*
X4452219Y-56613710D01*
X4667537Y-56671404D01*
X4667541Y-56671404D01*
X4667543Y-56671405D01*
X4724501Y-56678903D01*
X4888543Y-56700500D01*
X4888550Y-56700500D01*
X5111450Y-56700500D01*
X5111457Y-56700500D01*
X5311191Y-56674204D01*
X5332456Y-56671405D01*
X5332456Y-56671404D01*
X5332463Y-56671404D01*
X5547781Y-56613710D01*
X5753726Y-56528405D01*
X5946774Y-56416948D01*
X6123624Y-56281247D01*
X6281247Y-56123624D01*
X6416948Y-55946774D01*
X6528405Y-55753726D01*
X6613710Y-55547781D01*
X6671404Y-55332463D01*
X6700500Y-55111457D01*
X6700500Y-54888543D01*
X6700500Y-54888540D01*
X93299500Y-54888540D01*
X93299500Y-55111459D01*
X93328594Y-55332456D01*
X93328596Y-55332463D01*
X93386290Y-55547781D01*
X93471595Y-55753726D01*
X93471596Y-55753727D01*
X93471601Y-55753737D01*
X93583049Y-55946770D01*
X93718753Y-56123624D01*
X93718762Y-56123634D01*
X93876365Y-56281237D01*
X93876375Y-56281246D01*
X93876376Y-56281247D01*
X94053226Y-56416948D01*
X94246274Y-56528405D01*
X94452219Y-56613710D01*
X94667537Y-56671404D01*
X94667541Y-56671404D01*
X94667543Y-56671405D01*
X94724501Y-56678903D01*
X94888543Y-56700500D01*
X94888550Y-56700500D01*
X95111450Y-56700500D01*
X95111457Y-56700500D01*
X95311191Y-56674204D01*
X95332456Y-56671405D01*
X95332456Y-56671404D01*
X95332463Y-56671404D01*
X95547781Y-56613710D01*
X95753726Y-56528405D01*
X95946774Y-56416948D01*
X96123624Y-56281247D01*
X96281247Y-56123624D01*
X96416948Y-55946774D01*
X96528405Y-55753726D01*
X96613710Y-55547781D01*
X96671404Y-55332463D01*
X96700500Y-55111457D01*
X96700500Y-54888543D01*
X96671404Y-54667537D01*
X96613710Y-54452219D01*
X96528405Y-54246274D01*
X96416948Y-54053226D01*
X96281247Y-53876376D01*
X96281246Y-53876375D01*
X96281237Y-53876365D01*
X96123634Y-53718762D01*
X96123624Y-53718753D01*
X95946770Y-53583049D01*
X95753737Y-53471601D01*
X95753729Y-53471597D01*
X95753726Y-53471595D01*
X95547781Y-53386290D01*
X95332463Y-53328596D01*
X95332456Y-53328594D01*
X95111459Y-53299500D01*
X95111457Y-53299500D01*
X94888543Y-53299500D01*
X94888540Y-53299500D01*
X94667543Y-53328594D01*
X94452219Y-53386290D01*
X94246272Y-53471596D01*
X94246262Y-53471601D01*
X94053229Y-53583049D01*
X93876375Y-53718753D01*
X93876365Y-53718762D01*
X93718762Y-53876365D01*
X93718753Y-53876375D01*
X93583049Y-54053229D01*
X93471601Y-54246262D01*
X93471596Y-54246272D01*
X93386290Y-54452219D01*
X93328594Y-54667543D01*
X93299500Y-54888540D01*
X6700500Y-54888540D01*
X6671404Y-54667537D01*
X6613710Y-54452219D01*
X6528405Y-54246274D01*
X6416948Y-54053226D01*
X6281247Y-53876376D01*
X6281246Y-53876375D01*
X6281237Y-53876365D01*
X6123634Y-53718762D01*
X6123624Y-53718753D01*
X5946770Y-53583049D01*
X5922420Y-53568991D01*
X5817817Y-53508598D01*
X5753730Y-53471597D01*
X5753728Y-53471596D01*
X5753726Y-53471595D01*
X5547781Y-53386290D01*
X5332463Y-53328596D01*
X5332456Y-53328594D01*
X5111459Y-53299500D01*
X5111457Y-53299500D01*
X4888543Y-53299500D01*
X4888540Y-53299500D01*
X4667543Y-53328594D01*
X4452219Y-53386290D01*
X4246272Y-53471596D01*
X4246262Y-53471601D01*
X4053229Y-53583049D01*
X3876375Y-53718753D01*
X3876365Y-53718762D01*
X3718762Y-53876365D01*
X3718753Y-53876375D01*
X3583049Y-54053229D01*
X3471601Y-54246262D01*
X3471596Y-54246272D01*
X3386290Y-54452219D01*
X3328594Y-54667543D01*
X3299500Y-54888540D01*
X800000Y-54888540D01*
X800000Y-51875464D01*
X48100000Y-51875464D01*
X48100000Y-52124535D01*
X48132507Y-52371460D01*
X48196971Y-52612040D01*
X48196972Y-52612044D01*
X48292286Y-52842153D01*
X48292291Y-52842163D01*
X48416815Y-53057845D01*
X48416820Y-53057851D01*
X48491399Y-53155045D01*
X48491400Y-53155045D01*
X49284152Y-52362292D01*
X49291049Y-52378942D01*
X49378599Y-52509970D01*
X49490030Y-52621401D01*
X49621058Y-52708951D01*
X49637705Y-52715846D01*
X48844953Y-53508598D01*
X48844953Y-53508599D01*
X48942148Y-53583180D01*
X48942154Y-53583184D01*
X49157836Y-53707708D01*
X49157846Y-53707713D01*
X49387955Y-53803027D01*
X49387959Y-53803028D01*
X49628539Y-53867492D01*
X49875464Y-53899999D01*
X49875474Y-53900000D01*
X50124526Y-53900000D01*
X50124535Y-53899999D01*
X50371460Y-53867492D01*
X50612040Y-53803028D01*
X50612044Y-53803027D01*
X50842153Y-53707713D01*
X50842164Y-53707708D01*
X51057841Y-53583187D01*
X51155045Y-53508598D01*
X50362293Y-52715846D01*
X50378942Y-52708951D01*
X50509970Y-52621401D01*
X50621401Y-52509970D01*
X50708951Y-52378942D01*
X50715846Y-52362293D01*
X51508598Y-53155045D01*
X51583187Y-53057841D01*
X51707708Y-52842164D01*
X51707713Y-52842153D01*
X51803027Y-52612044D01*
X51803028Y-52612040D01*
X51867492Y-52371460D01*
X51899999Y-52124535D01*
X51900000Y-52124526D01*
X51900000Y-51875474D01*
X51899999Y-51875464D01*
X51867492Y-51628539D01*
X51803028Y-51387959D01*
X51803027Y-51387955D01*
X51707713Y-51157846D01*
X51707708Y-51157836D01*
X51583184Y-50942154D01*
X51583180Y-50942148D01*
X51508599Y-50844953D01*
X51508598Y-50844953D01*
X50715846Y-51637705D01*
X50708951Y-51621058D01*
X50621401Y-51490030D01*
X50509970Y-51378599D01*
X50378942Y-51291049D01*
X50362293Y-51284152D01*
X51155045Y-50491400D01*
X51155045Y-50491399D01*
X51057851Y-50416820D01*
X51057845Y-50416815D01*
X50842163Y-50292291D01*
X50842153Y-50292286D01*
X50612044Y-50196972D01*
X50612040Y-50196971D01*
X50371460Y-50132507D01*
X50124535Y-50100000D01*
X49875464Y-50100000D01*
X49628539Y-50132507D01*
X49387959Y-50196971D01*
X49387955Y-50196972D01*
X49157846Y-50292286D01*
X49157836Y-50292291D01*
X48942154Y-50416815D01*
X48942148Y-50416820D01*
X48844954Y-50491399D01*
X48844953Y-50491400D01*
X49637706Y-51284153D01*
X49621058Y-51291049D01*
X49490030Y-51378599D01*
X49378599Y-51490030D01*
X49291049Y-51621058D01*
X49284153Y-51637706D01*
X48491400Y-50844953D01*
X48491399Y-50844954D01*
X48416820Y-50942148D01*
X48416815Y-50942154D01*
X48292291Y-51157836D01*
X48292286Y-51157846D01*
X48196972Y-51387955D01*
X48196971Y-51387959D01*
X48132507Y-51628539D01*
X48100000Y-51875464D01*
X800000Y-51875464D01*
X800000Y-42072473D01*
X41449499Y-42072473D01*
X41487016Y-42212485D01*
X41559488Y-42338011D01*
X41559496Y-42338021D01*
X41661978Y-42440503D01*
X41661983Y-42440507D01*
X41661985Y-42440509D01*
X41787515Y-42512984D01*
X41927525Y-42550500D01*
X41927527Y-42550500D01*
X42072473Y-42550500D01*
X42072475Y-42550500D01*
X42212485Y-42512984D01*
X42338015Y-42440509D01*
X42440509Y-42338015D01*
X42512984Y-42212485D01*
X42550500Y-42072475D01*
X42550500Y-42072473D01*
X57449499Y-42072473D01*
X57487016Y-42212485D01*
X57559488Y-42338011D01*
X57559496Y-42338021D01*
X57661978Y-42440503D01*
X57661983Y-42440507D01*
X57661985Y-42440509D01*
X57787515Y-42512984D01*
X57927525Y-42550500D01*
X57927527Y-42550500D01*
X58072473Y-42550500D01*
X58072475Y-42550500D01*
X58212485Y-42512984D01*
X58338015Y-42440509D01*
X58440509Y-42338015D01*
X58512984Y-42212485D01*
X58550500Y-42072475D01*
X58550500Y-41927525D01*
X58535114Y-41870103D01*
X68349500Y-41870103D01*
X68349500Y-42129897D01*
X68382462Y-42338015D01*
X68390141Y-42386497D01*
X68470419Y-42633568D01*
X68470420Y-42633571D01*
X68470421Y-42633572D01*
X68588366Y-42865051D01*
X68741069Y-43075229D01*
X68741071Y-43075231D01*
X68741073Y-43075234D01*
X68924765Y-43258926D01*
X68924768Y-43258928D01*
X68924771Y-43258931D01*
X69134949Y-43411634D01*
X69366428Y-43529579D01*
X69613507Y-43609860D01*
X69870103Y-43650500D01*
X69870105Y-43650500D01*
X70129895Y-43650500D01*
X70129897Y-43650500D01*
X70386493Y-43609860D01*
X70633572Y-43529579D01*
X70865051Y-43411634D01*
X71075229Y-43258931D01*
X71258931Y-43075229D01*
X71411634Y-42865051D01*
X71529579Y-42633572D01*
X71609860Y-42386493D01*
X71650500Y-42129897D01*
X71650500Y-41870103D01*
X71609860Y-41613507D01*
X71529579Y-41366428D01*
X71411634Y-41134949D01*
X71258931Y-40924771D01*
X71258928Y-40924768D01*
X71258926Y-40924765D01*
X71075234Y-40741073D01*
X71075231Y-40741071D01*
X71075229Y-40741069D01*
X70865051Y-40588366D01*
X70633572Y-40470421D01*
X70633571Y-40470420D01*
X70633568Y-40470419D01*
X70386497Y-40390141D01*
X70386495Y-40390140D01*
X70386493Y-40390140D01*
X70129897Y-40349500D01*
X69870103Y-40349500D01*
X69613507Y-40390140D01*
X69613505Y-40390140D01*
X69613502Y-40390141D01*
X69366431Y-40470419D01*
X69134945Y-40588368D01*
X68924768Y-40741071D01*
X68924765Y-40741073D01*
X68741073Y-40924765D01*
X68741071Y-40924768D01*
X68588368Y-41134945D01*
X68470419Y-41366431D01*
X68390141Y-41613502D01*
X68390140Y-41613505D01*
X68390140Y-41613507D01*
X68349500Y-41870103D01*
X58535114Y-41870103D01*
X58512984Y-41787515D01*
X58440509Y-41661985D01*
X58440507Y-41661983D01*
X58440503Y-41661978D01*
X58338021Y-41559496D01*
X58338011Y-41559488D01*
X58212485Y-41487016D01*
X58072475Y-41449500D01*
X57927525Y-41449500D01*
X57834185Y-41474510D01*
X57787514Y-41487016D01*
X57661988Y-41559488D01*
X57661978Y-41559496D01*
X57559496Y-41661978D01*
X57559488Y-41661988D01*
X57487016Y-41787514D01*
X57449500Y-41927526D01*
X57449500Y-42072473D01*
X57449499Y-42072473D01*
X42550500Y-42072473D01*
X42550500Y-41927525D01*
X42512984Y-41787515D01*
X42440509Y-41661985D01*
X42440507Y-41661983D01*
X42440503Y-41661978D01*
X42338021Y-41559496D01*
X42338011Y-41559488D01*
X42212485Y-41487016D01*
X42072475Y-41449500D01*
X41927525Y-41449500D01*
X41834185Y-41474510D01*
X41787514Y-41487016D01*
X41661988Y-41559488D01*
X41661978Y-41559496D01*
X41559496Y-41661978D01*
X41559488Y-41661988D01*
X41487016Y-41787514D01*
X41449500Y-41927526D01*
X41449500Y-42072473D01*
X41449499Y-42072473D01*
X800000Y-42072473D01*
X800000Y-40072473D01*
X42674499Y-40072473D01*
X42712016Y-40212485D01*
X42784488Y-40338011D01*
X42784496Y-40338021D01*
X42886978Y-40440503D01*
X42886983Y-40440507D01*
X42886985Y-40440509D01*
X43012515Y-40512984D01*
X43152525Y-40550500D01*
X43152527Y-40550500D01*
X43297473Y-40550500D01*
X43297475Y-40550500D01*
X43437485Y-40512984D01*
X43563015Y-40440509D01*
X43665509Y-40338015D01*
X43737984Y-40212485D01*
X43775500Y-40072475D01*
X43775500Y-39927525D01*
X43737984Y-39787515D01*
X43665509Y-39661985D01*
X43665507Y-39661983D01*
X43665503Y-39661978D01*
X43563021Y-39559496D01*
X43563011Y-39559488D01*
X43437485Y-39487016D01*
X43297475Y-39449500D01*
X43152525Y-39449500D01*
X43059185Y-39474510D01*
X43012514Y-39487016D01*
X42886988Y-39559488D01*
X42886978Y-39559496D01*
X42784496Y-39661978D01*
X42784488Y-39661988D01*
X42712016Y-39787514D01*
X42674500Y-39927526D01*
X42674500Y-40072473D01*
X42674499Y-40072473D01*
X800000Y-40072473D01*
X800000Y-37870105D01*
X18349500Y-37870105D01*
X18349500Y-38129894D01*
X18390141Y-38386497D01*
X18470419Y-38633568D01*
X18470420Y-38633571D01*
X18470421Y-38633572D01*
X18588366Y-38865051D01*
X18741069Y-39075229D01*
X18741071Y-39075231D01*
X18741073Y-39075234D01*
X18924765Y-39258926D01*
X18924768Y-39258928D01*
X18924771Y-39258931D01*
X19134949Y-39411634D01*
X19366428Y-39529579D01*
X19613507Y-39609860D01*
X19870103Y-39650500D01*
X19870105Y-39650500D01*
X20129895Y-39650500D01*
X20129897Y-39650500D01*
X20386493Y-39609860D01*
X20633572Y-39529579D01*
X20865051Y-39411634D01*
X21075229Y-39258931D01*
X21258931Y-39075229D01*
X21411634Y-38865051D01*
X21529579Y-38633572D01*
X21609860Y-38386493D01*
X21650500Y-38129897D01*
X21650500Y-37870103D01*
X21609860Y-37613507D01*
X21529579Y-37366428D01*
X21411634Y-37134949D01*
X21258931Y-36924771D01*
X21258928Y-36924768D01*
X21258926Y-36924765D01*
X21075234Y-36741073D01*
X21075231Y-36741071D01*
X21075229Y-36741069D01*
X20865051Y-36588366D01*
X20633572Y-36470421D01*
X20633571Y-36470420D01*
X20633568Y-36470419D01*
X20386497Y-36390141D01*
X20386495Y-36390140D01*
X20386493Y-36390140D01*
X20129897Y-36349500D01*
X19870103Y-36349500D01*
X19613507Y-36390140D01*
X19613505Y-36390140D01*
X19613502Y-36390141D01*
X19366431Y-36470419D01*
X19134945Y-36588368D01*
X18924768Y-36741071D01*
X18924765Y-36741073D01*
X18741073Y-36924765D01*
X18741071Y-36924768D01*
X18588368Y-37134945D01*
X18470419Y-37366431D01*
X18390141Y-37613502D01*
X18349500Y-37870105D01*
X800000Y-37870105D01*
X800000Y-33838742D01*
X6150000Y-33838742D01*
X6150000Y-34081257D01*
X6181652Y-34321683D01*
X6244419Y-34555934D01*
X6244421Y-34555938D01*
X6337227Y-34779991D01*
X6337232Y-34780002D01*
X6458478Y-34990006D01*
X6458482Y-34990012D01*
X6527060Y-35079384D01*
X6527061Y-35079385D01*
X7245884Y-34360561D01*
X7246740Y-34362626D01*
X7339762Y-34501844D01*
X7458156Y-34620238D01*
X7597374Y-34713260D01*
X7599436Y-34714114D01*
X6880613Y-35432937D01*
X6880614Y-35432938D01*
X6969987Y-35501517D01*
X6969993Y-35501521D01*
X7179997Y-35622767D01*
X7180008Y-35622772D01*
X7404061Y-35715578D01*
X7404065Y-35715580D01*
X7638316Y-35778347D01*
X7878742Y-35809999D01*
X7878752Y-35810000D01*
X8121248Y-35810000D01*
X8121257Y-35809999D01*
X8361683Y-35778347D01*
X8595934Y-35715580D01*
X8595938Y-35715578D01*
X8819991Y-35622772D01*
X8820002Y-35622767D01*
X9030006Y-35501521D01*
X9030012Y-35501517D01*
X9119385Y-35432938D01*
X9119385Y-35432937D01*
X8400562Y-34714114D01*
X8402626Y-34713260D01*
X8541844Y-34620238D01*
X8660238Y-34501844D01*
X8753260Y-34362626D01*
X8754114Y-34360562D01*
X9472937Y-35079385D01*
X9472938Y-35079385D01*
X9541517Y-34990012D01*
X9541521Y-34990006D01*
X9662767Y-34780002D01*
X9662772Y-34779991D01*
X9755578Y-34555938D01*
X9755580Y-34555934D01*
X9818347Y-34321683D01*
X9849999Y-34081257D01*
X9850000Y-34081248D01*
X9850000Y-33838752D01*
X9849999Y-33838742D01*
X9818347Y-33598316D01*
X9755580Y-33364065D01*
X9755578Y-33364061D01*
X9662772Y-33140008D01*
X9662767Y-33139997D01*
X9541521Y-32929993D01*
X9541517Y-32929987D01*
X9472938Y-32840614D01*
X9472937Y-32840613D01*
X8754114Y-33559436D01*
X8753260Y-33557374D01*
X8660238Y-33418156D01*
X8541844Y-33299762D01*
X8402626Y-33206740D01*
X8400561Y-33205884D01*
X9119385Y-32487061D01*
X9119384Y-32487060D01*
X9030012Y-32418482D01*
X9030006Y-32418478D01*
X8820002Y-32297232D01*
X8819991Y-32297227D01*
X8595938Y-32204421D01*
X8595934Y-32204419D01*
X8361683Y-32141652D01*
X8121257Y-32110000D01*
X7878742Y-32110000D01*
X7638316Y-32141652D01*
X7404065Y-32204419D01*
X7404061Y-32204421D01*
X7180008Y-32297227D01*
X7179997Y-32297232D01*
X6969993Y-32418478D01*
X6880613Y-32487061D01*
X7599437Y-33205885D01*
X7597374Y-33206740D01*
X7458156Y-33299762D01*
X7339762Y-33418156D01*
X7246740Y-33557374D01*
X7245885Y-33559437D01*
X6527061Y-32840613D01*
X6458478Y-32929993D01*
X6337232Y-33139997D01*
X6337227Y-33140008D01*
X6244421Y-33364061D01*
X6244419Y-33364065D01*
X6181652Y-33598316D01*
X6150000Y-33838742D01*
X800000Y-33838742D01*
X800000Y-32072473D01*
X44449499Y-32072473D01*
X44487016Y-32212485D01*
X44559488Y-32338011D01*
X44559496Y-32338021D01*
X44661978Y-32440503D01*
X44661983Y-32440507D01*
X44661985Y-32440509D01*
X44787515Y-32512984D01*
X44927525Y-32550500D01*
X44927527Y-32550500D01*
X45072473Y-32550500D01*
X45072475Y-32550500D01*
X45212485Y-32512984D01*
X45338015Y-32440509D01*
X45440509Y-32338015D01*
X45512984Y-32212485D01*
X45550500Y-32072475D01*
X45550500Y-31927525D01*
X45512984Y-31787515D01*
X45440509Y-31661985D01*
X45440507Y-31661983D01*
X45440503Y-31661978D01*
X45338021Y-31559496D01*
X45338011Y-31559488D01*
X45212485Y-31487016D01*
X45072475Y-31449500D01*
X44927525Y-31449500D01*
X44834185Y-31474510D01*
X44787514Y-31487016D01*
X44661988Y-31559488D01*
X44661978Y-31559496D01*
X44559496Y-31661978D01*
X44559488Y-31661988D01*
X44487016Y-31787514D01*
X44449500Y-31927526D01*
X44449500Y-32072473D01*
X44449499Y-32072473D01*
X800000Y-32072473D01*
X800000Y-28852122D01*
X6399500Y-28852122D01*
X6399500Y-31147877D01*
X6405909Y-31207483D01*
X6456203Y-31342329D01*
X6542453Y-31457546D01*
X6657670Y-31543796D01*
X6792515Y-31594090D01*
X6792518Y-31594091D01*
X6852128Y-31600500D01*
X6852133Y-31600500D01*
X9147867Y-31600500D01*
X9147872Y-31600500D01*
X9207482Y-31594091D01*
X9342330Y-31543796D01*
X9457546Y-31457546D01*
X9543796Y-31342330D01*
X9594091Y-31207482D01*
X9600500Y-31147872D01*
X9600500Y-30572473D01*
X46449499Y-30572473D01*
X46487016Y-30712485D01*
X46559488Y-30838011D01*
X46559496Y-30838021D01*
X46661978Y-30940503D01*
X46661983Y-30940507D01*
X46661985Y-30940509D01*
X46787515Y-31012984D01*
X46927525Y-31050500D01*
X46927527Y-31050500D01*
X47072473Y-31050500D01*
X47072475Y-31050500D01*
X47212485Y-31012984D01*
X47338015Y-30940509D01*
X47440509Y-30838015D01*
X47512984Y-30712485D01*
X47550500Y-30572475D01*
X47550500Y-30572473D01*
X54449499Y-30572473D01*
X54487016Y-30712485D01*
X54559488Y-30838011D01*
X54559496Y-30838021D01*
X54661978Y-30940503D01*
X54661983Y-30940507D01*
X54661985Y-30940509D01*
X54787515Y-31012984D01*
X54927525Y-31050500D01*
X54927527Y-31050500D01*
X55072473Y-31050500D01*
X55072475Y-31050500D01*
X55212485Y-31012984D01*
X55338015Y-30940509D01*
X55440509Y-30838015D01*
X55512984Y-30712485D01*
X55550500Y-30572475D01*
X55550500Y-30427525D01*
X55512984Y-30287515D01*
X55440509Y-30161985D01*
X55440507Y-30161983D01*
X55440503Y-30161978D01*
X55338021Y-30059496D01*
X55338011Y-30059488D01*
X55212485Y-29987016D01*
X55072475Y-29949500D01*
X54927525Y-29949500D01*
X54834185Y-29974510D01*
X54787514Y-29987016D01*
X54661988Y-30059488D01*
X54661978Y-30059496D01*
X54559496Y-30161978D01*
X54559488Y-30161988D01*
X54487016Y-30287514D01*
X54449500Y-30427526D01*
X54449500Y-30572473D01*
X54449499Y-30572473D01*
X47550500Y-30572473D01*
X47550500Y-30427525D01*
X47512984Y-30287515D01*
X47440509Y-30161985D01*
X47440507Y-30161983D01*
X47440503Y-30161978D01*
X47338021Y-30059496D01*
X47338011Y-30059488D01*
X47212485Y-29987016D01*
X47072475Y-29949500D01*
X46927525Y-29949500D01*
X46834185Y-29974510D01*
X46787514Y-29987016D01*
X46661988Y-30059488D01*
X46661978Y-30059496D01*
X46559496Y-30161978D01*
X46559488Y-30161988D01*
X46487016Y-30287514D01*
X46449500Y-30427526D01*
X46449500Y-30572473D01*
X46449499Y-30572473D01*
X9600500Y-30572473D01*
X9600500Y-29072473D01*
X44449499Y-29072473D01*
X44487016Y-29212485D01*
X44559488Y-29338011D01*
X44559496Y-29338021D01*
X44661978Y-29440503D01*
X44661983Y-29440507D01*
X44661985Y-29440509D01*
X44787515Y-29512984D01*
X44927525Y-29550500D01*
X44927527Y-29550500D01*
X45072473Y-29550500D01*
X45072475Y-29550500D01*
X45212485Y-29512984D01*
X45338015Y-29440509D01*
X45440509Y-29338015D01*
X45512984Y-29212485D01*
X45550500Y-29072475D01*
X45550500Y-28927525D01*
X45538131Y-28881363D01*
X45538131Y-28881361D01*
X45530296Y-28852122D01*
X90399500Y-28852122D01*
X90399500Y-31147877D01*
X90405909Y-31207483D01*
X90456203Y-31342329D01*
X90542453Y-31457546D01*
X90657670Y-31543796D01*
X90792515Y-31594090D01*
X90792518Y-31594091D01*
X90852128Y-31600500D01*
X90852133Y-31600500D01*
X93147867Y-31600500D01*
X93147872Y-31600500D01*
X93207482Y-31594091D01*
X93342330Y-31543796D01*
X93457546Y-31457546D01*
X93543796Y-31342330D01*
X93594091Y-31207482D01*
X93600500Y-31147872D01*
X93600500Y-28852128D01*
X93594091Y-28792518D01*
X93543796Y-28657670D01*
X93470298Y-28559488D01*
X93457546Y-28542453D01*
X93342329Y-28456203D01*
X93207482Y-28405909D01*
X93207485Y-28405909D01*
X93147877Y-28399500D01*
X93147872Y-28399500D01*
X90852128Y-28399500D01*
X90852122Y-28399500D01*
X90792516Y-28405909D01*
X90657670Y-28456203D01*
X90542453Y-28542453D01*
X90456203Y-28657670D01*
X90405909Y-28792516D01*
X90399500Y-28852122D01*
X45530296Y-28852122D01*
X45512985Y-28787517D01*
X45440511Y-28661988D01*
X45440503Y-28661978D01*
X45338021Y-28559496D01*
X45338011Y-28559488D01*
X45212485Y-28487016D01*
X45072475Y-28449500D01*
X44927525Y-28449500D01*
X44834185Y-28474510D01*
X44787514Y-28487016D01*
X44661988Y-28559488D01*
X44661978Y-28559496D01*
X44559496Y-28661978D01*
X44559488Y-28661988D01*
X44487016Y-28787514D01*
X44449500Y-28927526D01*
X44449500Y-29072473D01*
X44449499Y-29072473D01*
X9600500Y-29072473D01*
X9600500Y-28852128D01*
X9594091Y-28792518D01*
X9543796Y-28657670D01*
X9470298Y-28559488D01*
X9457546Y-28542453D01*
X9342329Y-28456203D01*
X9207482Y-28405909D01*
X9207485Y-28405909D01*
X9147877Y-28399500D01*
X9147872Y-28399500D01*
X6852128Y-28399500D01*
X6852122Y-28399500D01*
X6792516Y-28405909D01*
X6657670Y-28456203D01*
X6542453Y-28542453D01*
X6456203Y-28657670D01*
X6405909Y-28792516D01*
X6399500Y-28852122D01*
X800000Y-28852122D01*
X800000Y-27572473D01*
X44449499Y-27572473D01*
X44487016Y-27712485D01*
X44559488Y-27838011D01*
X44559496Y-27838021D01*
X44661978Y-27940503D01*
X44661983Y-27940507D01*
X44661985Y-27940509D01*
X44787515Y-28012984D01*
X44927525Y-28050500D01*
X44927527Y-28050500D01*
X45072473Y-28050500D01*
X45072475Y-28050500D01*
X45212485Y-28012984D01*
X45338015Y-27940509D01*
X45440509Y-27838015D01*
X45512984Y-27712485D01*
X45550500Y-27572475D01*
X45550500Y-27572473D01*
X54449499Y-27572473D01*
X54487016Y-27712485D01*
X54559488Y-27838011D01*
X54559496Y-27838021D01*
X54661978Y-27940503D01*
X54661983Y-27940507D01*
X54661985Y-27940509D01*
X54787515Y-28012984D01*
X54927525Y-28050500D01*
X54927527Y-28050500D01*
X55072473Y-28050500D01*
X55072475Y-28050500D01*
X55212485Y-28012984D01*
X55338015Y-27940509D01*
X55440509Y-27838015D01*
X55512984Y-27712485D01*
X55550500Y-27572475D01*
X55550500Y-27427525D01*
X55512984Y-27287515D01*
X55440509Y-27161985D01*
X55440507Y-27161983D01*
X55440503Y-27161978D01*
X55338021Y-27059496D01*
X55338011Y-27059488D01*
X55212485Y-26987016D01*
X55072475Y-26949500D01*
X54927525Y-26949500D01*
X54834185Y-26974510D01*
X54787514Y-26987016D01*
X54661988Y-27059488D01*
X54661978Y-27059496D01*
X54559496Y-27161978D01*
X54559488Y-27161988D01*
X54487016Y-27287514D01*
X54449500Y-27427526D01*
X54449500Y-27572473D01*
X54449499Y-27572473D01*
X45550500Y-27572473D01*
X45550500Y-27427525D01*
X45512984Y-27287515D01*
X45440509Y-27161985D01*
X45440507Y-27161983D01*
X45440503Y-27161978D01*
X45338021Y-27059496D01*
X45338011Y-27059488D01*
X45212485Y-26987016D01*
X45072475Y-26949500D01*
X44927525Y-26949500D01*
X44834185Y-26974510D01*
X44787514Y-26987016D01*
X44661988Y-27059488D01*
X44661978Y-27059496D01*
X44559496Y-27161978D01*
X44559488Y-27161988D01*
X44487016Y-27287514D01*
X44449500Y-27427526D01*
X44449500Y-27572473D01*
X44449499Y-27572473D01*
X800000Y-27572473D01*
X800000Y-25918742D01*
X90150000Y-25918742D01*
X90150000Y-26161257D01*
X90181652Y-26401683D01*
X90244419Y-26635934D01*
X90244421Y-26635938D01*
X90337227Y-26859991D01*
X90337232Y-26860002D01*
X90458478Y-27070006D01*
X90458482Y-27070012D01*
X90527060Y-27159384D01*
X90527061Y-27159385D01*
X91245884Y-26440561D01*
X91246740Y-26442626D01*
X91339762Y-26581844D01*
X91458156Y-26700238D01*
X91597374Y-26793260D01*
X91599436Y-26794114D01*
X90880613Y-27512937D01*
X90880614Y-27512938D01*
X90969987Y-27581517D01*
X90969993Y-27581521D01*
X91179997Y-27702767D01*
X91180008Y-27702772D01*
X91404061Y-27795578D01*
X91404065Y-27795580D01*
X91638316Y-27858347D01*
X91878742Y-27889999D01*
X91878752Y-27890000D01*
X92121248Y-27890000D01*
X92121257Y-27889999D01*
X92361683Y-27858347D01*
X92595934Y-27795580D01*
X92595938Y-27795578D01*
X92819991Y-27702772D01*
X92820002Y-27702767D01*
X93030006Y-27581521D01*
X93030012Y-27581517D01*
X93119385Y-27512938D01*
X93119385Y-27512937D01*
X92400562Y-26794114D01*
X92402626Y-26793260D01*
X92541844Y-26700238D01*
X92660238Y-26581844D01*
X92753260Y-26442626D01*
X92754114Y-26440562D01*
X93472937Y-27159385D01*
X93472938Y-27159385D01*
X93541517Y-27070012D01*
X93541521Y-27070006D01*
X93662767Y-26860002D01*
X93662772Y-26859991D01*
X93755578Y-26635938D01*
X93755580Y-26635934D01*
X93818347Y-26401683D01*
X93849999Y-26161257D01*
X93850000Y-26161248D01*
X93850000Y-25918752D01*
X93849999Y-25918742D01*
X93818347Y-25678316D01*
X93755580Y-25444065D01*
X93755578Y-25444061D01*
X93662772Y-25220008D01*
X93662767Y-25219997D01*
X93541521Y-25009993D01*
X93541517Y-25009987D01*
X93472938Y-24920614D01*
X93472937Y-24920613D01*
X92754114Y-25639436D01*
X92753260Y-25637374D01*
X92660238Y-25498156D01*
X92541844Y-25379762D01*
X92402626Y-25286740D01*
X92400561Y-25285884D01*
X93119385Y-24567061D01*
X93119384Y-24567060D01*
X93030012Y-24498482D01*
X93030006Y-24498478D01*
X92820002Y-24377232D01*
X92819991Y-24377227D01*
X92595938Y-24284421D01*
X92595934Y-24284419D01*
X92361683Y-24221652D01*
X92121257Y-24190000D01*
X91878742Y-24190000D01*
X91638316Y-24221652D01*
X91404065Y-24284419D01*
X91404061Y-24284421D01*
X91180008Y-24377227D01*
X91179997Y-24377232D01*
X90969993Y-24498478D01*
X90880613Y-24567061D01*
X91599437Y-25285885D01*
X91597374Y-25286740D01*
X91458156Y-25379762D01*
X91339762Y-25498156D01*
X91246740Y-25637374D01*
X91245885Y-25639437D01*
X90527061Y-24920613D01*
X90458478Y-25009993D01*
X90337232Y-25219997D01*
X90337227Y-25220008D01*
X90244421Y-25444061D01*
X90244419Y-25444065D01*
X90181652Y-25678316D01*
X90150000Y-25918742D01*
X800000Y-25918742D01*
X800000Y-21870105D01*
X18349500Y-21870105D01*
X18349500Y-22129894D01*
X18390141Y-22386497D01*
X18470419Y-22633568D01*
X18470420Y-22633571D01*
X18470421Y-22633572D01*
X18588366Y-22865051D01*
X18741069Y-23075229D01*
X18741071Y-23075231D01*
X18741073Y-23075234D01*
X18924765Y-23258926D01*
X18924768Y-23258928D01*
X18924771Y-23258931D01*
X19134949Y-23411634D01*
X19366428Y-23529579D01*
X19613507Y-23609860D01*
X19870103Y-23650500D01*
X19870105Y-23650500D01*
X20129895Y-23650500D01*
X20129897Y-23650500D01*
X20386493Y-23609860D01*
X20633572Y-23529579D01*
X20865051Y-23411634D01*
X21075229Y-23258931D01*
X21258931Y-23075229D01*
X21411634Y-22865051D01*
X21529579Y-22633572D01*
X21609860Y-22386493D01*
X21650500Y-22129897D01*
X21650500Y-21870103D01*
X21609860Y-21613507D01*
X21529579Y-21366428D01*
X21411634Y-21134949D01*
X21258931Y-20924771D01*
X21258928Y-20924768D01*
X21258926Y-20924765D01*
X21075234Y-20741073D01*
X21075231Y-20741071D01*
X21075229Y-20741069D01*
X20865051Y-20588366D01*
X20633572Y-20470421D01*
X20633571Y-20470420D01*
X20633568Y-20470419D01*
X20386497Y-20390141D01*
X20386495Y-20390140D01*
X20386493Y-20390140D01*
X20129897Y-20349500D01*
X19870103Y-20349500D01*
X19613507Y-20390140D01*
X19613505Y-20390140D01*
X19613502Y-20390141D01*
X19366431Y-20470419D01*
X19134945Y-20588368D01*
X18924768Y-20741071D01*
X18924765Y-20741073D01*
X18741073Y-20924765D01*
X18741071Y-20924768D01*
X18588368Y-21134945D01*
X18470419Y-21366431D01*
X18390141Y-21613502D01*
X18349500Y-21870105D01*
X800000Y-21870105D01*
X800000Y-20072473D01*
X42674499Y-20072473D01*
X42712016Y-20212485D01*
X42784488Y-20338011D01*
X42784496Y-20338021D01*
X42886978Y-20440503D01*
X42886983Y-20440507D01*
X42886985Y-20440509D01*
X43012515Y-20512984D01*
X43152525Y-20550500D01*
X43152527Y-20550500D01*
X43297473Y-20550500D01*
X43297475Y-20550500D01*
X43437485Y-20512984D01*
X43563015Y-20440509D01*
X43665509Y-20338015D01*
X43737984Y-20212485D01*
X43775500Y-20072475D01*
X43775500Y-19927525D01*
X43737984Y-19787515D01*
X43665509Y-19661985D01*
X43665507Y-19661983D01*
X43665503Y-19661978D01*
X43563021Y-19559496D01*
X43563011Y-19559488D01*
X43437485Y-19487016D01*
X43297475Y-19449500D01*
X43152525Y-19449500D01*
X43059185Y-19474510D01*
X43012514Y-19487016D01*
X42886988Y-19559488D01*
X42886978Y-19559496D01*
X42784496Y-19661978D01*
X42784488Y-19661988D01*
X42712016Y-19787514D01*
X42674500Y-19927526D01*
X42674500Y-20072473D01*
X42674499Y-20072473D01*
X800000Y-20072473D01*
X800000Y-18072473D01*
X41449499Y-18072473D01*
X41487016Y-18212485D01*
X41559488Y-18338011D01*
X41559496Y-18338021D01*
X41661978Y-18440503D01*
X41661983Y-18440507D01*
X41661985Y-18440509D01*
X41787515Y-18512984D01*
X41927525Y-18550500D01*
X41927527Y-18550500D01*
X42072473Y-18550500D01*
X42072475Y-18550500D01*
X42212485Y-18512984D01*
X42338015Y-18440509D01*
X42440509Y-18338015D01*
X42512984Y-18212485D01*
X42550500Y-18072475D01*
X42550500Y-18072473D01*
X57449499Y-18072473D01*
X57487016Y-18212485D01*
X57559488Y-18338011D01*
X57559496Y-18338021D01*
X57661978Y-18440503D01*
X57661983Y-18440507D01*
X57661985Y-18440509D01*
X57787515Y-18512984D01*
X57927525Y-18550500D01*
X57927527Y-18550500D01*
X58072473Y-18550500D01*
X58072475Y-18550500D01*
X58212485Y-18512984D01*
X58338015Y-18440509D01*
X58440509Y-18338015D01*
X58512984Y-18212485D01*
X58550500Y-18072475D01*
X58550500Y-17927525D01*
X58512984Y-17787515D01*
X58440509Y-17661985D01*
X58440507Y-17661983D01*
X58440503Y-17661978D01*
X58338021Y-17559496D01*
X58338011Y-17559488D01*
X58212485Y-17487016D01*
X58072475Y-17449500D01*
X57927525Y-17449500D01*
X57834185Y-17474510D01*
X57787514Y-17487016D01*
X57661988Y-17559488D01*
X57661978Y-17559496D01*
X57559496Y-17661978D01*
X57559488Y-17661988D01*
X57487016Y-17787514D01*
X57449500Y-17927526D01*
X57449500Y-18072473D01*
X57449499Y-18072473D01*
X42550500Y-18072473D01*
X42550500Y-17927525D01*
X42512984Y-17787515D01*
X42440509Y-17661985D01*
X42440507Y-17661983D01*
X42440503Y-17661978D01*
X42338021Y-17559496D01*
X42338011Y-17559488D01*
X42212485Y-17487016D01*
X42072475Y-17449500D01*
X41927525Y-17449500D01*
X41834185Y-17474510D01*
X41787514Y-17487016D01*
X41661988Y-17559488D01*
X41661978Y-17559496D01*
X41559496Y-17661978D01*
X41559488Y-17661988D01*
X41487016Y-17787514D01*
X41449500Y-17927526D01*
X41449500Y-18072473D01*
X41449499Y-18072473D01*
X800000Y-18072473D01*
X800000Y-11870105D01*
X14349500Y-11870105D01*
X14349500Y-12129894D01*
X14390141Y-12386497D01*
X14470419Y-12633568D01*
X14470420Y-12633571D01*
X14470421Y-12633572D01*
X14588366Y-12865051D01*
X14741069Y-13075229D01*
X14741071Y-13075231D01*
X14741073Y-13075234D01*
X14924765Y-13258926D01*
X14924768Y-13258928D01*
X14924771Y-13258931D01*
X15134949Y-13411634D01*
X15366428Y-13529579D01*
X15613507Y-13609860D01*
X15870103Y-13650500D01*
X15870105Y-13650500D01*
X16129895Y-13650500D01*
X16129897Y-13650500D01*
X16386493Y-13609860D01*
X16633572Y-13529579D01*
X16865051Y-13411634D01*
X17075229Y-13258931D01*
X17258931Y-13075229D01*
X17411634Y-12865051D01*
X17529579Y-12633572D01*
X17609860Y-12386493D01*
X17650500Y-12129897D01*
X17650500Y-11870105D01*
X82349500Y-11870105D01*
X82349500Y-12129894D01*
X82390141Y-12386497D01*
X82470419Y-12633568D01*
X82470420Y-12633571D01*
X82470421Y-12633572D01*
X82588366Y-12865051D01*
X82741069Y-13075229D01*
X82741071Y-13075231D01*
X82741073Y-13075234D01*
X82924765Y-13258926D01*
X82924768Y-13258928D01*
X82924771Y-13258931D01*
X83134949Y-13411634D01*
X83366428Y-13529579D01*
X83613507Y-13609860D01*
X83870103Y-13650500D01*
X83870105Y-13650500D01*
X84129895Y-13650500D01*
X84129897Y-13650500D01*
X84386493Y-13609860D01*
X84633572Y-13529579D01*
X84865051Y-13411634D01*
X85075229Y-13258931D01*
X85258931Y-13075229D01*
X85411634Y-12865051D01*
X85529579Y-12633572D01*
X85609860Y-12386493D01*
X85650500Y-12129897D01*
X85650500Y-11870103D01*
X85609860Y-11613507D01*
X85529579Y-11366428D01*
X85411634Y-11134949D01*
X85258931Y-10924771D01*
X85258928Y-10924768D01*
X85258926Y-10924765D01*
X85075234Y-10741073D01*
X85075231Y-10741071D01*
X85075229Y-10741069D01*
X84865051Y-10588366D01*
X84633572Y-10470421D01*
X84633571Y-10470420D01*
X84633568Y-10470419D01*
X84386497Y-10390141D01*
X84386495Y-10390140D01*
X84386493Y-10390140D01*
X84129897Y-10349500D01*
X83870103Y-10349500D01*
X83613507Y-10390140D01*
X83613505Y-10390140D01*
X83613502Y-10390141D01*
X83366431Y-10470419D01*
X83134945Y-10588368D01*
X82924768Y-10741071D01*
X82924765Y-10741073D01*
X82741073Y-10924765D01*
X82741071Y-10924768D01*
X82588368Y-11134945D01*
X82470419Y-11366431D01*
X82390141Y-11613502D01*
X82349500Y-11870105D01*
X17650500Y-11870105D01*
X17650500Y-11870103D01*
X17609860Y-11613507D01*
X17529579Y-11366428D01*
X17411634Y-11134949D01*
X17258931Y-10924771D01*
X17258928Y-10924768D01*
X17258926Y-10924765D01*
X17075234Y-10741073D01*
X17075231Y-10741071D01*
X17075229Y-10741069D01*
X16865051Y-10588366D01*
X16633572Y-10470421D01*
X16633571Y-10470420D01*
X16633568Y-10470419D01*
X16386497Y-10390141D01*
X16386495Y-10390140D01*
X16386493Y-10390140D01*
X16129897Y-10349500D01*
X15870103Y-10349500D01*
X15613507Y-10390140D01*
X15613505Y-10390140D01*
X15613502Y-10390141D01*
X15366431Y-10470419D01*
X15134945Y-10588368D01*
X14924768Y-10741071D01*
X14924765Y-10741073D01*
X14741073Y-10924765D01*
X14741071Y-10924768D01*
X14588368Y-11134945D01*
X14470419Y-11366431D01*
X14390141Y-11613502D01*
X14349500Y-11870105D01*
X800000Y-11870105D01*
X800000Y-4888540D01*
X3299500Y-4888540D01*
X3299500Y-5111459D01*
X3328594Y-5332456D01*
X3328596Y-5332463D01*
X3386290Y-5547781D01*
X3471595Y-5753726D01*
X3471596Y-5753727D01*
X3471601Y-5753737D01*
X3583049Y-5946770D01*
X3718753Y-6123624D01*
X3718762Y-6123634D01*
X3876365Y-6281237D01*
X3876375Y-6281246D01*
X3876376Y-6281247D01*
X4053226Y-6416948D01*
X4246274Y-6528405D01*
X4452219Y-6613710D01*
X4667537Y-6671404D01*
X4667541Y-6671404D01*
X4667543Y-6671405D01*
X4724501Y-6678903D01*
X4888543Y-6700500D01*
X4888550Y-6700500D01*
X5111450Y-6700500D01*
X5111457Y-6700500D01*
X5311191Y-6674204D01*
X5332456Y-6671405D01*
X5332456Y-6671404D01*
X5332463Y-6671404D01*
X5547781Y-6613710D01*
X5753726Y-6528405D01*
X5946774Y-6416948D01*
X6123624Y-6281247D01*
X6281247Y-6123624D01*
X6416948Y-5946774D01*
X6528405Y-5753726D01*
X6613710Y-5547781D01*
X6671404Y-5332463D01*
X6700500Y-5111457D01*
X6700500Y-4888543D01*
X6700500Y-4888540D01*
X93299500Y-4888540D01*
X93299500Y-5111459D01*
X93328594Y-5332456D01*
X93328596Y-5332463D01*
X93386290Y-5547781D01*
X93471595Y-5753726D01*
X93471596Y-5753727D01*
X93471601Y-5753737D01*
X93583049Y-5946770D01*
X93718753Y-6123624D01*
X93718762Y-6123634D01*
X93876365Y-6281237D01*
X93876375Y-6281246D01*
X93876376Y-6281247D01*
X94053226Y-6416948D01*
X94246274Y-6528405D01*
X94452219Y-6613710D01*
X94667537Y-6671404D01*
X94667541Y-6671404D01*
X94667543Y-6671405D01*
X94724501Y-6678903D01*
X94888543Y-6700500D01*
X94888550Y-6700500D01*
X95111450Y-6700500D01*
X95111457Y-6700500D01*
X95311191Y-6674204D01*
X95332456Y-6671405D01*
X95332456Y-6671404D01*
X95332463Y-6671404D01*
X95547781Y-6613710D01*
X95753726Y-6528405D01*
X95946774Y-6416948D01*
X96123624Y-6281247D01*
X96281247Y-6123624D01*
X96416948Y-5946774D01*
X96528405Y-5753726D01*
X96613710Y-5547781D01*
X96671404Y-5332463D01*
X96700500Y-5111457D01*
X96700500Y-4888543D01*
X96671404Y-4667537D01*
X96613710Y-4452219D01*
X96528405Y-4246274D01*
X96416948Y-4053226D01*
X96281247Y-3876376D01*
X96281246Y-3876375D01*
X96281237Y-3876365D01*
X96123634Y-3718762D01*
X96123624Y-3718753D01*
X95946770Y-3583049D01*
X95753737Y-3471601D01*
X95753732Y-3471598D01*
X95753726Y-3471595D01*
X95547781Y-3386290D01*
X95332463Y-3328596D01*
X95332456Y-3328594D01*
X95111459Y-3299500D01*
X95111457Y-3299500D01*
X94888543Y-3299500D01*
X94888540Y-3299500D01*
X94667543Y-3328594D01*
X94452219Y-3386290D01*
X94246272Y-3471596D01*
X94246262Y-3471601D01*
X94053229Y-3583049D01*
X93876375Y-3718753D01*
X93876365Y-3718762D01*
X93718762Y-3876365D01*
X93718753Y-3876375D01*
X93583049Y-4053229D01*
X93471601Y-4246262D01*
X93471596Y-4246272D01*
X93386290Y-4452219D01*
X93328594Y-4667543D01*
X93299500Y-4888540D01*
X6700500Y-4888540D01*
X6671404Y-4667537D01*
X6613710Y-4452219D01*
X6528405Y-4246274D01*
X6416948Y-4053226D01*
X6281247Y-3876376D01*
X6281246Y-3876375D01*
X6281237Y-3876365D01*
X6123634Y-3718762D01*
X6123624Y-3718753D01*
X5946770Y-3583049D01*
X5753737Y-3471601D01*
X5753732Y-3471598D01*
X5753726Y-3471595D01*
X5547781Y-3386290D01*
X5332463Y-3328596D01*
X5332456Y-3328594D01*
X5111459Y-3299500D01*
X5111457Y-3299500D01*
X4888543Y-3299500D01*
X4888540Y-3299500D01*
X4667543Y-3328594D01*
X4452219Y-3386290D01*
X4246272Y-3471596D01*
X4246262Y-3471601D01*
X4053229Y-3583049D01*
X3876375Y-3718753D01*
X3876365Y-3718762D01*
X3718762Y-3876365D01*
X3718753Y-3876375D01*
X3583049Y-4053229D01*
X3471601Y-4246262D01*
X3471596Y-4246272D01*
X3386290Y-4452219D01*
X3328594Y-4667543D01*
X3299500Y-4888540D01*
X800000Y-4888540D01*
X800000Y-926000D01*
X820002Y-857879D01*
X873658Y-811386D01*
X926000Y-800000D01*
X99074000Y-800000D01*
X99142121Y-820002D01*
G37*
%TD.AperFunction*%
%TD*%
M02*
