%TF.GenerationSoftware,KiCad,Pcbnew,10.0.5*%
%TF.CreationDate,2026-08-09T14:34:18-04:00*%
%TF.ProjectId,hr-v0-dxl-protection-carrier,68722d76-302d-4647-986c-2d70726f7465,rev?*%
%TF.SameCoordinates,Original*%
%TF.FileFunction,Copper,L1,Top*%
%TF.FilePolarity,Positive*%
%FSLAX46Y46*%
G04 Gerber Fmt 4.6, Leading zero omitted, Abs format (unit mm)*
G04 Created by KiCad (PCBNEW 10.0.5) date 2026-08-09 14:34:18*
%MOMM*%
%LPD*%
G01*
G04 APERTURE LIST*
G04 Aperture macros list*
%AMRoundRect*
0 Rectangle with rounded corners*
0 $1 Rounding radius*
0 $2 $3 $4 $5 $6 $7 $8 $9 X,Y pos of 4 corners*
0 Add a 4 corners polygon primitive as box body*
4,1,4,$2,$3,$4,$5,$6,$7,$8,$9,$2,$3,0*
0 Add four circle primitives for the rounded corners*
1,1,$1+$1,$2,$3*
1,1,$1+$1,$4,$5*
1,1,$1+$1,$6,$7*
1,1,$1+$1,$8,$9*
0 Add four rect primitives between the rounded corners*
20,1,$1+$1,$2,$3,$4,$5,0*
20,1,$1+$1,$4,$5,$6,$7,0*
20,1,$1+$1,$6,$7,$8,$9,0*
20,1,$1+$1,$8,$9,$2,$3,0*%
G04 Aperture macros list end*
%TA.AperFunction,ComponentPad*%
%ADD10RoundRect,0.250001X-1.099999X1.099999X-1.099999X-1.099999X1.099999X-1.099999X1.099999X1.099999X0*%
%TD*%
%TA.AperFunction,ComponentPad*%
%ADD11C,2.700000*%
%TD*%
%TA.AperFunction,ComponentPad*%
%ADD12C,2.800000*%
%TD*%
%TA.AperFunction,SMDPad,CuDef*%
%ADD13RoundRect,0.225000X-0.225000X-0.250000X0.225000X-0.250000X0.225000X0.250000X-0.225000X0.250000X0*%
%TD*%
%TA.AperFunction,SMDPad,CuDef*%
%ADD14RoundRect,0.200000X-0.200000X-0.275000X0.200000X-0.275000X0.200000X0.275000X-0.200000X0.275000X0*%
%TD*%
%TA.AperFunction,ComponentPad*%
%ADD15RoundRect,0.250001X1.099999X-1.099999X1.099999X1.099999X-1.099999X1.099999X-1.099999X-1.099999X0*%
%TD*%
%TA.AperFunction,SMDPad,CuDef*%
%ADD16R,0.600000X0.250000*%
%TD*%
%TA.AperFunction,SMDPad,CuDef*%
%ADD17R,0.200000X0.420000*%
%TD*%
%TA.AperFunction,SMDPad,CuDef*%
%ADD18R,0.300000X1.800000*%
%TD*%
%TA.AperFunction,SMDPad,CuDef*%
%ADD19RoundRect,0.250000X0.650000X-1.000000X0.650000X1.000000X-0.650000X1.000000X-0.650000X-1.000000X0*%
%TD*%
%TA.AperFunction,ViaPad*%
%ADD20C,0.600000*%
%TD*%
%TA.AperFunction,Conductor*%
%ADD21C,0.500000*%
%TD*%
%TA.AperFunction,Conductor*%
%ADD22C,3.000000*%
%TD*%
%TA.AperFunction,Conductor*%
%ADD23C,0.300000*%
%TD*%
%TA.AperFunction,Conductor*%
%ADD24C,0.180000*%
%TD*%
G04 APERTURE END LIST*
D10*
%TO.P,JIN1,1*%
%TO.N,BRANCH_FUSED_IN*%
X8000000Y-30000000D03*
D11*
%TO.P,JIN1,2*%
%TO.N,ACT_0V_PE_BONDED*%
X8000000Y-33960000D03*
%TD*%
D12*
%TO.P,TPGND1,1*%
%TO.N,ACT_0V_PE_BONDED*%
X50000000Y-52000000D03*
%TD*%
D13*
%TO.P,CINHF1,1*%
%TO.N,BRANCH_FUSED_IN*%
X31225000Y-28000000D03*
%TO.P,CINHF1,2*%
%TO.N,ACT_0V_PE_BONDED*%
X32775000Y-28000000D03*
%TD*%
D14*
%TO.P,RILM1,1*%
%TO.N,ILM_SET*%
X59175000Y-42000000D03*
%TO.P,RILM1,2*%
%TO.N,ACT_0V_PE_BONDED*%
X60825000Y-42000000D03*
%TD*%
D13*
%TO.P,CINBULK1,1*%
%TO.N,BRANCH_FUSED_IN*%
X31225000Y-36000000D03*
%TO.P,CINBULK1,2*%
%TO.N,ACT_0V_PE_BONDED*%
X32775000Y-36000000D03*
%TD*%
D15*
%TO.P,JOUT1,1*%
%TO.N,BRANCH_LIMITED_OUT*%
X92000000Y-30000000D03*
D11*
%TO.P,JOUT1,2*%
%TO.N,ACT_0V_PE_BONDED*%
X92000000Y-26040000D03*
%TD*%
D13*
%TO.P,COUTA1,1*%
%TO.N,BRANCH_LIMITED_OUT*%
X67225000Y-26000000D03*
%TO.P,COUTA1,2*%
%TO.N,ACT_0V_PE_BONDED*%
X68775000Y-26000000D03*
%TD*%
D12*
%TO.P,TPSPLY1,1*%
%TO.N,SPLYGD_DIAG*%
X20000000Y-22000000D03*
%TD*%
%TO.P,TPILM1,1*%
%TO.N,ILM_SET*%
X70000000Y-42000000D03*
%TD*%
D14*
%TO.P,RUVT1,1*%
%TO.N,BRANCH_FUSED_IN*%
X39175000Y-18000000D03*
%TO.P,RUVT1,2*%
%TO.N,UVLO_SET*%
X40825000Y-18000000D03*
%TD*%
D12*
%TO.P,TPFLT1,1*%
%TO.N,FLT_DIAG*%
X20000000Y-38000000D03*
%TD*%
%TO.P,TPVIN1,1*%
%TO.N,BRANCH_FUSED_IN*%
X16000000Y-12000000D03*
%TD*%
D13*
%TO.P,COUTB1,1*%
%TO.N,BRANCH_LIMITED_OUT*%
X67225000Y-31000000D03*
%TO.P,COUTB1,2*%
%TO.N,ACT_0V_PE_BONDED*%
X68775000Y-31000000D03*
%TD*%
D16*
%TO.P,U1,1*%
%TO.N,UVLO_SET*%
X49100000Y-30712500D03*
D17*
X49380000Y-30670000D03*
D16*
%TO.P,U1,2*%
%TO.N,OVLO_SET*%
X49100000Y-30237500D03*
%TO.P,U1,3*%
%TO.N,SPLYGD_DIAG*%
X49100000Y-29762500D03*
%TO.P,U1,4*%
%TO.N,FLT_DIAG*%
X49100000Y-29287500D03*
D17*
X49380000Y-29330000D03*
D18*
%TO.P,U1,5*%
%TO.N,BRANCH_FUSED_IN*%
X49750000Y-30000000D03*
%TO.P,U1,6*%
%TO.N,BRANCH_LIMITED_OUT*%
X50250000Y-30000000D03*
D17*
%TO.P,U1,7*%
%TO.N,DVDT_SET*%
X50620000Y-29330000D03*
D16*
X50900000Y-29287500D03*
%TO.P,U1,8*%
%TO.N,ACT_0V_PE_BONDED*%
X50900000Y-29762500D03*
%TO.P,U1,9*%
%TO.N,ILM_SET*%
X50900000Y-30237500D03*
D17*
%TO.P,U1,10*%
%TO.N,N/C*%
X50620000Y-30670000D03*
D16*
X50900000Y-30712500D03*
%TD*%
D14*
%TO.P,ROVB1,1*%
%TO.N,OVLO_SET*%
X43175000Y-42000000D03*
%TO.P,ROVB1,2*%
%TO.N,ACT_0V_PE_BONDED*%
X44825000Y-42000000D03*
%TD*%
D13*
%TO.P,CDV1,1*%
%TO.N,DVDT_SET*%
X59225000Y-18000000D03*
%TO.P,CDV1,2*%
%TO.N,ACT_0V_PE_BONDED*%
X60775000Y-18000000D03*
%TD*%
D19*
%TO.P,DCLAMP1,1*%
%TO.N,BRANCH_LIMITED_OUT*%
X78000000Y-22000000D03*
%TO.P,DCLAMP1,2*%
%TO.N,ACT_0V_PE_BONDED*%
X78000000Y-18000000D03*
%TD*%
D12*
%TO.P,TPOUT1,1*%
%TO.N,BRANCH_LIMITED_OUT*%
X84000000Y-12000000D03*
%TD*%
D14*
%TO.P,ROVT1,1*%
%TO.N,BRANCH_FUSED_IN*%
X39175000Y-42000000D03*
%TO.P,ROVT1,2*%
%TO.N,OVLO_SET*%
X40825000Y-42000000D03*
%TD*%
%TO.P,RUVB1,1*%
%TO.N,UVLO_SET*%
X43175000Y-18000000D03*
%TO.P,RUVB1,2*%
%TO.N,ACT_0V_PE_BONDED*%
X44825000Y-18000000D03*
%TD*%
D20*
%TO.N,ACT_0V_PE_BONDED*%
X35000000Y-38000000D03*
X71000000Y-29000000D03*
X54000000Y-29750000D03*
X47000000Y-43000000D03*
X71000000Y-24000000D03*
X35000000Y-30000000D03*
X80000000Y-18000000D03*
X63000000Y-44000000D03*
X63000000Y-16000000D03*
X47000000Y-17000000D03*
%TO.N,ILM_SET*%
X55000000Y-30500000D03*
X58000000Y-42000000D03*
%TO.N,SPLYGD_DIAG*%
X45000000Y-29000000D03*
%TO.N,UVLO_SET*%
X42000000Y-18000000D03*
X43225000Y-20000000D03*
X45000000Y-32000000D03*
%TO.N,FLT_DIAG*%
X45000000Y-27500000D03*
%TO.N,OVLO_SET*%
X47000000Y-30500000D03*
X43225000Y-40000000D03*
X42000000Y-42000000D03*
%TO.N,DVDT_SET*%
X55000000Y-27500000D03*
X58000000Y-18000000D03*
%TD*%
%TO.N,BRANCH_FUSED_IN*%
D21*
X16000000Y-12000000D02*
X16000000Y-24000000D01*
X36000000Y-18000000D02*
X36000000Y-24000000D01*
X37000000Y-42000000D02*
X37000000Y-24000000D01*
X31225000Y-36000000D02*
X29000000Y-36000000D01*
D22*
X8000000Y-30000000D02*
X24000000Y-30000000D01*
D21*
X39175000Y-42000000D02*
X37000000Y-42000000D01*
D23*
X49750000Y-24000000D02*
X49750000Y-29100000D01*
D22*
X24000000Y-30000000D02*
X24000000Y-24000000D01*
D23*
X43000000Y-24000000D02*
X49750000Y-24000000D01*
D21*
X31225000Y-28000000D02*
X31225000Y-24000000D01*
D22*
X24000000Y-24000000D02*
X43000000Y-24000000D01*
D21*
X16000000Y-24000000D02*
X24000000Y-24000000D01*
X29000000Y-36000000D02*
X29000000Y-24000000D01*
D23*
X49750000Y-29100000D02*
X49750000Y-30000000D01*
D21*
X39175000Y-18000000D02*
X36000000Y-18000000D01*
%TO.N,ACT_0V_PE_BONDED*%
D24*
X60775000Y-18000000D02*
X63000000Y-16000000D01*
X32775000Y-28000000D02*
X35000000Y-30000000D01*
X68775000Y-26000000D02*
X71000000Y-24000000D01*
X50900000Y-29762500D02*
X54000000Y-29750000D01*
X68775000Y-31000000D02*
X71000000Y-29000000D01*
X44825000Y-18000000D02*
X47000000Y-17000000D01*
X44825000Y-42000000D02*
X47000000Y-43000000D01*
X78000000Y-18000000D02*
X80000000Y-18000000D01*
X32775000Y-36000000D02*
X35000000Y-38000000D01*
X60825000Y-42000000D02*
X63000000Y-44000000D01*
%TO.N,ILM_SET*%
X59225000Y-42000000D02*
X58000000Y-42000000D01*
X50900000Y-30237500D02*
X55000000Y-30500000D01*
%TO.N,BRANCH_LIMITED_OUT*%
D21*
X67225000Y-26000000D02*
X65000000Y-26000000D01*
X65000000Y-26000000D02*
X65000000Y-35800000D01*
X78000000Y-22000000D02*
X82000000Y-17000000D01*
D23*
X50250000Y-35800000D02*
X57000000Y-35800000D01*
D22*
X85000000Y-35800000D02*
X85000000Y-30000000D01*
D23*
X50250000Y-30000000D02*
X50250000Y-35800000D01*
D22*
X57000000Y-35800000D02*
X85000000Y-35800000D01*
D21*
X84000000Y-12000000D02*
X84000000Y-35800000D01*
D22*
X85000000Y-30000000D02*
X92000000Y-30000000D01*
D21*
X67225000Y-31000000D02*
X67225000Y-35800000D01*
X82000000Y-17000000D02*
X82000000Y-35800000D01*
%TO.N,SPLYGD_DIAG*%
D24*
X49100000Y-29762500D02*
X45000000Y-29000000D01*
%TO.N,UVLO_SET*%
X49100000Y-30712500D02*
X45000000Y-32000000D01*
X43225000Y-18000000D02*
X43225000Y-20000000D01*
X40775000Y-18000000D02*
X42000000Y-18000000D01*
%TO.N,FLT_DIAG*%
X49100000Y-29287500D02*
X45000000Y-27500000D01*
%TO.N,OVLO_SET*%
X43225000Y-42000000D02*
X43225000Y-40000000D01*
X49100000Y-30237500D02*
X47000000Y-30500000D01*
X40775000Y-42000000D02*
X42000000Y-42000000D01*
%TO.N,DVDT_SET*%
X59225000Y-18000000D02*
X58000000Y-18000000D01*
X50900000Y-29287500D02*
X55000000Y-27500000D01*
%TD*%
M02*
