%TF.GenerationSoftware,KiCad,Pcbnew,10.0.5*%
%TF.CreationDate,2026-08-09T14:34:18-04:00*%
%TF.ProjectId,hr-v0-dxl-protection-carrier,68722d76-302d-4647-986c-2d70726f7465,rev?*%
%TF.SameCoordinates,Original*%
%TF.FileFunction,Legend,Top*%
%TF.FilePolarity,Positive*%
%FSLAX46Y46*%
G04 Gerber Fmt 4.6, Leading zero omitted, Abs format (unit mm)*
G04 Created by KiCad (PCBNEW 10.0.5) date 2026-08-09 14:34:18*
%MOMM*%
%LPD*%
G01*
G04 APERTURE LIST*
%ADD10C,0.180000*%
%ADD11C,0.120000*%
G04 APERTURE END LIST*
D10*
X10219049Y-5360735D02*
X10219049Y-4560735D01*
X10219049Y-4560735D02*
X10523811Y-4560735D01*
X10523811Y-4560735D02*
X10600001Y-4598830D01*
X10600001Y-4598830D02*
X10638096Y-4636925D01*
X10638096Y-4636925D02*
X10676192Y-4713116D01*
X10676192Y-4713116D02*
X10676192Y-4827401D01*
X10676192Y-4827401D02*
X10638096Y-4903592D01*
X10638096Y-4903592D02*
X10600001Y-4941687D01*
X10600001Y-4941687D02*
X10523811Y-4979782D01*
X10523811Y-4979782D02*
X10219049Y-4979782D01*
X11476192Y-5360735D02*
X11209525Y-4979782D01*
X11019049Y-5360735D02*
X11019049Y-4560735D01*
X11019049Y-4560735D02*
X11323811Y-4560735D01*
X11323811Y-4560735D02*
X11400001Y-4598830D01*
X11400001Y-4598830D02*
X11438096Y-4636925D01*
X11438096Y-4636925D02*
X11476192Y-4713116D01*
X11476192Y-4713116D02*
X11476192Y-4827401D01*
X11476192Y-4827401D02*
X11438096Y-4903592D01*
X11438096Y-4903592D02*
X11400001Y-4941687D01*
X11400001Y-4941687D02*
X11323811Y-4979782D01*
X11323811Y-4979782D02*
X11019049Y-4979782D01*
X11819049Y-4941687D02*
X12085715Y-4941687D01*
X12200001Y-5360735D02*
X11819049Y-5360735D01*
X11819049Y-5360735D02*
X11819049Y-4560735D01*
X11819049Y-4560735D02*
X12200001Y-4560735D01*
X12923811Y-5360735D02*
X12542859Y-5360735D01*
X12542859Y-5360735D02*
X12542859Y-4560735D01*
X13190478Y-5360735D02*
X13190478Y-4560735D01*
X13571430Y-5360735D02*
X13571430Y-4560735D01*
X13571430Y-4560735D02*
X13838096Y-5132163D01*
X13838096Y-5132163D02*
X14104763Y-4560735D01*
X14104763Y-4560735D02*
X14104763Y-5360735D01*
X14485716Y-5360735D02*
X14485716Y-4560735D01*
X14866668Y-5360735D02*
X14866668Y-4560735D01*
X14866668Y-4560735D02*
X15323811Y-5360735D01*
X15323811Y-5360735D02*
X15323811Y-4560735D01*
X15666667Y-5132163D02*
X16047620Y-5132163D01*
X15590477Y-5360735D02*
X15857144Y-4560735D01*
X15857144Y-4560735D02*
X16123810Y-5360735D01*
X16847620Y-5360735D02*
X16580953Y-4979782D01*
X16390477Y-5360735D02*
X16390477Y-4560735D01*
X16390477Y-4560735D02*
X16695239Y-4560735D01*
X16695239Y-4560735D02*
X16771429Y-4598830D01*
X16771429Y-4598830D02*
X16809524Y-4636925D01*
X16809524Y-4636925D02*
X16847620Y-4713116D01*
X16847620Y-4713116D02*
X16847620Y-4827401D01*
X16847620Y-4827401D02*
X16809524Y-4903592D01*
X16809524Y-4903592D02*
X16771429Y-4941687D01*
X16771429Y-4941687D02*
X16695239Y-4979782D01*
X16695239Y-4979782D02*
X16390477Y-4979782D01*
X17342858Y-4979782D02*
X17342858Y-5360735D01*
X17076191Y-4560735D02*
X17342858Y-4979782D01*
X17342858Y-4979782D02*
X17609524Y-4560735D01*
X18485715Y-5055973D02*
X19095239Y-5055973D01*
X20085715Y-5360735D02*
X20085715Y-4560735D01*
X20085715Y-4560735D02*
X20542858Y-5360735D01*
X20542858Y-5360735D02*
X20542858Y-4560735D01*
X21076191Y-4560735D02*
X21228572Y-4560735D01*
X21228572Y-4560735D02*
X21304762Y-4598830D01*
X21304762Y-4598830D02*
X21380953Y-4675020D01*
X21380953Y-4675020D02*
X21419048Y-4827401D01*
X21419048Y-4827401D02*
X21419048Y-5094068D01*
X21419048Y-5094068D02*
X21380953Y-5246449D01*
X21380953Y-5246449D02*
X21304762Y-5322640D01*
X21304762Y-5322640D02*
X21228572Y-5360735D01*
X21228572Y-5360735D02*
X21076191Y-5360735D01*
X21076191Y-5360735D02*
X21000000Y-5322640D01*
X21000000Y-5322640D02*
X20923810Y-5246449D01*
X20923810Y-5246449D02*
X20885714Y-5094068D01*
X20885714Y-5094068D02*
X20885714Y-4827401D01*
X20885714Y-4827401D02*
X20923810Y-4675020D01*
X20923810Y-4675020D02*
X21000000Y-4598830D01*
X21000000Y-4598830D02*
X21076191Y-4560735D01*
X21647619Y-4560735D02*
X22104762Y-4560735D01*
X21876190Y-5360735D02*
X21876190Y-4560735D01*
X22942857Y-5132163D02*
X23323810Y-5132163D01*
X22866667Y-5360735D02*
X23133334Y-4560735D01*
X23133334Y-4560735D02*
X23400000Y-5360735D01*
X23666667Y-5360735D02*
X23666667Y-4560735D01*
X23666667Y-4560735D02*
X23971429Y-4560735D01*
X23971429Y-4560735D02*
X24047619Y-4598830D01*
X24047619Y-4598830D02*
X24085714Y-4636925D01*
X24085714Y-4636925D02*
X24123810Y-4713116D01*
X24123810Y-4713116D02*
X24123810Y-4827401D01*
X24123810Y-4827401D02*
X24085714Y-4903592D01*
X24085714Y-4903592D02*
X24047619Y-4941687D01*
X24047619Y-4941687D02*
X23971429Y-4979782D01*
X23971429Y-4979782D02*
X23666667Y-4979782D01*
X24466667Y-5360735D02*
X24466667Y-4560735D01*
X24466667Y-4560735D02*
X24771429Y-4560735D01*
X24771429Y-4560735D02*
X24847619Y-4598830D01*
X24847619Y-4598830D02*
X24885714Y-4636925D01*
X24885714Y-4636925D02*
X24923810Y-4713116D01*
X24923810Y-4713116D02*
X24923810Y-4827401D01*
X24923810Y-4827401D02*
X24885714Y-4903592D01*
X24885714Y-4903592D02*
X24847619Y-4941687D01*
X24847619Y-4941687D02*
X24771429Y-4979782D01*
X24771429Y-4979782D02*
X24466667Y-4979782D01*
X25723810Y-5360735D02*
X25457143Y-4979782D01*
X25266667Y-5360735D02*
X25266667Y-4560735D01*
X25266667Y-4560735D02*
X25571429Y-4560735D01*
X25571429Y-4560735D02*
X25647619Y-4598830D01*
X25647619Y-4598830D02*
X25685714Y-4636925D01*
X25685714Y-4636925D02*
X25723810Y-4713116D01*
X25723810Y-4713116D02*
X25723810Y-4827401D01*
X25723810Y-4827401D02*
X25685714Y-4903592D01*
X25685714Y-4903592D02*
X25647619Y-4941687D01*
X25647619Y-4941687D02*
X25571429Y-4979782D01*
X25571429Y-4979782D02*
X25266667Y-4979782D01*
X26219048Y-4560735D02*
X26371429Y-4560735D01*
X26371429Y-4560735D02*
X26447619Y-4598830D01*
X26447619Y-4598830D02*
X26523810Y-4675020D01*
X26523810Y-4675020D02*
X26561905Y-4827401D01*
X26561905Y-4827401D02*
X26561905Y-5094068D01*
X26561905Y-5094068D02*
X26523810Y-5246449D01*
X26523810Y-5246449D02*
X26447619Y-5322640D01*
X26447619Y-5322640D02*
X26371429Y-5360735D01*
X26371429Y-5360735D02*
X26219048Y-5360735D01*
X26219048Y-5360735D02*
X26142857Y-5322640D01*
X26142857Y-5322640D02*
X26066667Y-5246449D01*
X26066667Y-5246449D02*
X26028571Y-5094068D01*
X26028571Y-5094068D02*
X26028571Y-4827401D01*
X26028571Y-4827401D02*
X26066667Y-4675020D01*
X26066667Y-4675020D02*
X26142857Y-4598830D01*
X26142857Y-4598830D02*
X26219048Y-4560735D01*
X26790476Y-4560735D02*
X27057143Y-5360735D01*
X27057143Y-5360735D02*
X27323809Y-4560735D01*
X27590476Y-4941687D02*
X27857142Y-4941687D01*
X27971428Y-5360735D02*
X27590476Y-5360735D01*
X27590476Y-5360735D02*
X27590476Y-4560735D01*
X27590476Y-4560735D02*
X27971428Y-4560735D01*
X28314286Y-5360735D02*
X28314286Y-4560735D01*
X28314286Y-4560735D02*
X28504762Y-4560735D01*
X28504762Y-4560735D02*
X28619048Y-4598830D01*
X28619048Y-4598830D02*
X28695238Y-4675020D01*
X28695238Y-4675020D02*
X28733333Y-4751211D01*
X28733333Y-4751211D02*
X28771429Y-4903592D01*
X28771429Y-4903592D02*
X28771429Y-5017878D01*
X28771429Y-5017878D02*
X28733333Y-5170259D01*
X28733333Y-5170259D02*
X28695238Y-5246449D01*
X28695238Y-5246449D02*
X28619048Y-5322640D01*
X28619048Y-5322640D02*
X28504762Y-5360735D01*
X28504762Y-5360735D02*
X28314286Y-5360735D01*
X29990476Y-4941687D02*
X29723810Y-4941687D01*
X29723810Y-5360735D02*
X29723810Y-4560735D01*
X29723810Y-4560735D02*
X30104762Y-4560735D01*
X30561905Y-4560735D02*
X30714286Y-4560735D01*
X30714286Y-4560735D02*
X30790476Y-4598830D01*
X30790476Y-4598830D02*
X30866667Y-4675020D01*
X30866667Y-4675020D02*
X30904762Y-4827401D01*
X30904762Y-4827401D02*
X30904762Y-5094068D01*
X30904762Y-5094068D02*
X30866667Y-5246449D01*
X30866667Y-5246449D02*
X30790476Y-5322640D01*
X30790476Y-5322640D02*
X30714286Y-5360735D01*
X30714286Y-5360735D02*
X30561905Y-5360735D01*
X30561905Y-5360735D02*
X30485714Y-5322640D01*
X30485714Y-5322640D02*
X30409524Y-5246449D01*
X30409524Y-5246449D02*
X30371428Y-5094068D01*
X30371428Y-5094068D02*
X30371428Y-4827401D01*
X30371428Y-4827401D02*
X30409524Y-4675020D01*
X30409524Y-4675020D02*
X30485714Y-4598830D01*
X30485714Y-4598830D02*
X30561905Y-4560735D01*
X31704762Y-5360735D02*
X31438095Y-4979782D01*
X31247619Y-5360735D02*
X31247619Y-4560735D01*
X31247619Y-4560735D02*
X31552381Y-4560735D01*
X31552381Y-4560735D02*
X31628571Y-4598830D01*
X31628571Y-4598830D02*
X31666666Y-4636925D01*
X31666666Y-4636925D02*
X31704762Y-4713116D01*
X31704762Y-4713116D02*
X31704762Y-4827401D01*
X31704762Y-4827401D02*
X31666666Y-4903592D01*
X31666666Y-4903592D02*
X31628571Y-4941687D01*
X31628571Y-4941687D02*
X31552381Y-4979782D01*
X31552381Y-4979782D02*
X31247619Y-4979782D01*
X32923809Y-4941687D02*
X32657143Y-4941687D01*
X32657143Y-5360735D02*
X32657143Y-4560735D01*
X32657143Y-4560735D02*
X33038095Y-4560735D01*
X33304761Y-5132163D02*
X33685714Y-5132163D01*
X33228571Y-5360735D02*
X33495238Y-4560735D01*
X33495238Y-4560735D02*
X33761904Y-5360735D01*
X34295237Y-4941687D02*
X34409523Y-4979782D01*
X34409523Y-4979782D02*
X34447618Y-5017878D01*
X34447618Y-5017878D02*
X34485714Y-5094068D01*
X34485714Y-5094068D02*
X34485714Y-5208354D01*
X34485714Y-5208354D02*
X34447618Y-5284544D01*
X34447618Y-5284544D02*
X34409523Y-5322640D01*
X34409523Y-5322640D02*
X34333333Y-5360735D01*
X34333333Y-5360735D02*
X34028571Y-5360735D01*
X34028571Y-5360735D02*
X34028571Y-4560735D01*
X34028571Y-4560735D02*
X34295237Y-4560735D01*
X34295237Y-4560735D02*
X34371428Y-4598830D01*
X34371428Y-4598830D02*
X34409523Y-4636925D01*
X34409523Y-4636925D02*
X34447618Y-4713116D01*
X34447618Y-4713116D02*
X34447618Y-4789306D01*
X34447618Y-4789306D02*
X34409523Y-4865497D01*
X34409523Y-4865497D02*
X34371428Y-4903592D01*
X34371428Y-4903592D02*
X34295237Y-4941687D01*
X34295237Y-4941687D02*
X34028571Y-4941687D01*
X35285714Y-5360735D02*
X35019047Y-4979782D01*
X34828571Y-5360735D02*
X34828571Y-4560735D01*
X34828571Y-4560735D02*
X35133333Y-4560735D01*
X35133333Y-4560735D02*
X35209523Y-4598830D01*
X35209523Y-4598830D02*
X35247618Y-4636925D01*
X35247618Y-4636925D02*
X35285714Y-4713116D01*
X35285714Y-4713116D02*
X35285714Y-4827401D01*
X35285714Y-4827401D02*
X35247618Y-4903592D01*
X35247618Y-4903592D02*
X35209523Y-4941687D01*
X35209523Y-4941687D02*
X35133333Y-4979782D01*
X35133333Y-4979782D02*
X34828571Y-4979782D01*
X35628571Y-5360735D02*
X35628571Y-4560735D01*
X36466666Y-5284544D02*
X36428570Y-5322640D01*
X36428570Y-5322640D02*
X36314285Y-5360735D01*
X36314285Y-5360735D02*
X36238094Y-5360735D01*
X36238094Y-5360735D02*
X36123808Y-5322640D01*
X36123808Y-5322640D02*
X36047618Y-5246449D01*
X36047618Y-5246449D02*
X36009523Y-5170259D01*
X36009523Y-5170259D02*
X35971427Y-5017878D01*
X35971427Y-5017878D02*
X35971427Y-4903592D01*
X35971427Y-4903592D02*
X36009523Y-4751211D01*
X36009523Y-4751211D02*
X36047618Y-4675020D01*
X36047618Y-4675020D02*
X36123808Y-4598830D01*
X36123808Y-4598830D02*
X36238094Y-4560735D01*
X36238094Y-4560735D02*
X36314285Y-4560735D01*
X36314285Y-4560735D02*
X36428570Y-4598830D01*
X36428570Y-4598830D02*
X36466666Y-4636925D01*
X36771427Y-5132163D02*
X37152380Y-5132163D01*
X36695237Y-5360735D02*
X36961904Y-4560735D01*
X36961904Y-4560735D02*
X37228570Y-5360735D01*
X37380951Y-4560735D02*
X37838094Y-4560735D01*
X37609522Y-5360735D02*
X37609522Y-4560735D01*
X38104761Y-5360735D02*
X38104761Y-4560735D01*
X38638094Y-4560735D02*
X38790475Y-4560735D01*
X38790475Y-4560735D02*
X38866665Y-4598830D01*
X38866665Y-4598830D02*
X38942856Y-4675020D01*
X38942856Y-4675020D02*
X38980951Y-4827401D01*
X38980951Y-4827401D02*
X38980951Y-5094068D01*
X38980951Y-5094068D02*
X38942856Y-5246449D01*
X38942856Y-5246449D02*
X38866665Y-5322640D01*
X38866665Y-5322640D02*
X38790475Y-5360735D01*
X38790475Y-5360735D02*
X38638094Y-5360735D01*
X38638094Y-5360735D02*
X38561903Y-5322640D01*
X38561903Y-5322640D02*
X38485713Y-5246449D01*
X38485713Y-5246449D02*
X38447617Y-5094068D01*
X38447617Y-5094068D02*
X38447617Y-4827401D01*
X38447617Y-4827401D02*
X38485713Y-4675020D01*
X38485713Y-4675020D02*
X38561903Y-4598830D01*
X38561903Y-4598830D02*
X38638094Y-4560735D01*
X39323808Y-5360735D02*
X39323808Y-4560735D01*
X39323808Y-4560735D02*
X39780951Y-5360735D01*
X39780951Y-5360735D02*
X39780951Y-4560735D01*
X16838096Y-8360735D02*
X16838096Y-7560735D01*
X16838096Y-7560735D02*
X17295239Y-8360735D01*
X17295239Y-8360735D02*
X17295239Y-7560735D01*
X17828572Y-7560735D02*
X17980953Y-7560735D01*
X17980953Y-7560735D02*
X18057143Y-7598830D01*
X18057143Y-7598830D02*
X18133334Y-7675020D01*
X18133334Y-7675020D02*
X18171429Y-7827401D01*
X18171429Y-7827401D02*
X18171429Y-8094068D01*
X18171429Y-8094068D02*
X18133334Y-8246449D01*
X18133334Y-8246449D02*
X18057143Y-8322640D01*
X18057143Y-8322640D02*
X17980953Y-8360735D01*
X17980953Y-8360735D02*
X17828572Y-8360735D01*
X17828572Y-8360735D02*
X17752381Y-8322640D01*
X17752381Y-8322640D02*
X17676191Y-8246449D01*
X17676191Y-8246449D02*
X17638095Y-8094068D01*
X17638095Y-8094068D02*
X17638095Y-7827401D01*
X17638095Y-7827401D02*
X17676191Y-7675020D01*
X17676191Y-7675020D02*
X17752381Y-7598830D01*
X17752381Y-7598830D02*
X17828572Y-7560735D01*
X19580953Y-8284544D02*
X19542857Y-8322640D01*
X19542857Y-8322640D02*
X19428572Y-8360735D01*
X19428572Y-8360735D02*
X19352381Y-8360735D01*
X19352381Y-8360735D02*
X19238095Y-8322640D01*
X19238095Y-8322640D02*
X19161905Y-8246449D01*
X19161905Y-8246449D02*
X19123810Y-8170259D01*
X19123810Y-8170259D02*
X19085714Y-8017878D01*
X19085714Y-8017878D02*
X19085714Y-7903592D01*
X19085714Y-7903592D02*
X19123810Y-7751211D01*
X19123810Y-7751211D02*
X19161905Y-7675020D01*
X19161905Y-7675020D02*
X19238095Y-7598830D01*
X19238095Y-7598830D02*
X19352381Y-7560735D01*
X19352381Y-7560735D02*
X19428572Y-7560735D01*
X19428572Y-7560735D02*
X19542857Y-7598830D01*
X19542857Y-7598830D02*
X19580953Y-7636925D01*
X20076191Y-7560735D02*
X20228572Y-7560735D01*
X20228572Y-7560735D02*
X20304762Y-7598830D01*
X20304762Y-7598830D02*
X20380953Y-7675020D01*
X20380953Y-7675020D02*
X20419048Y-7827401D01*
X20419048Y-7827401D02*
X20419048Y-8094068D01*
X20419048Y-8094068D02*
X20380953Y-8246449D01*
X20380953Y-8246449D02*
X20304762Y-8322640D01*
X20304762Y-8322640D02*
X20228572Y-8360735D01*
X20228572Y-8360735D02*
X20076191Y-8360735D01*
X20076191Y-8360735D02*
X20000000Y-8322640D01*
X20000000Y-8322640D02*
X19923810Y-8246449D01*
X19923810Y-8246449D02*
X19885714Y-8094068D01*
X19885714Y-8094068D02*
X19885714Y-7827401D01*
X19885714Y-7827401D02*
X19923810Y-7675020D01*
X19923810Y-7675020D02*
X20000000Y-7598830D01*
X20000000Y-7598830D02*
X20076191Y-7560735D01*
X20761905Y-8360735D02*
X20761905Y-7560735D01*
X20761905Y-7560735D02*
X21219048Y-8360735D01*
X21219048Y-8360735D02*
X21219048Y-7560735D01*
X21600000Y-8360735D02*
X21600000Y-7560735D01*
X21600000Y-7560735D02*
X22057143Y-8360735D01*
X22057143Y-8360735D02*
X22057143Y-7560735D01*
X22438095Y-7941687D02*
X22704761Y-7941687D01*
X22819047Y-8360735D02*
X22438095Y-8360735D01*
X22438095Y-8360735D02*
X22438095Y-7560735D01*
X22438095Y-7560735D02*
X22819047Y-7560735D01*
X23619048Y-8284544D02*
X23580952Y-8322640D01*
X23580952Y-8322640D02*
X23466667Y-8360735D01*
X23466667Y-8360735D02*
X23390476Y-8360735D01*
X23390476Y-8360735D02*
X23276190Y-8322640D01*
X23276190Y-8322640D02*
X23200000Y-8246449D01*
X23200000Y-8246449D02*
X23161905Y-8170259D01*
X23161905Y-8170259D02*
X23123809Y-8017878D01*
X23123809Y-8017878D02*
X23123809Y-7903592D01*
X23123809Y-7903592D02*
X23161905Y-7751211D01*
X23161905Y-7751211D02*
X23200000Y-7675020D01*
X23200000Y-7675020D02*
X23276190Y-7598830D01*
X23276190Y-7598830D02*
X23390476Y-7560735D01*
X23390476Y-7560735D02*
X23466667Y-7560735D01*
X23466667Y-7560735D02*
X23580952Y-7598830D01*
X23580952Y-7598830D02*
X23619048Y-7636925D01*
X23847619Y-7560735D02*
X24304762Y-7560735D01*
X24076190Y-8360735D02*
X24076190Y-7560735D01*
X24571429Y-8360735D02*
X24571429Y-7560735D01*
X25104762Y-7560735D02*
X25257143Y-7560735D01*
X25257143Y-7560735D02*
X25333333Y-7598830D01*
X25333333Y-7598830D02*
X25409524Y-7675020D01*
X25409524Y-7675020D02*
X25447619Y-7827401D01*
X25447619Y-7827401D02*
X25447619Y-8094068D01*
X25447619Y-8094068D02*
X25409524Y-8246449D01*
X25409524Y-8246449D02*
X25333333Y-8322640D01*
X25333333Y-8322640D02*
X25257143Y-8360735D01*
X25257143Y-8360735D02*
X25104762Y-8360735D01*
X25104762Y-8360735D02*
X25028571Y-8322640D01*
X25028571Y-8322640D02*
X24952381Y-8246449D01*
X24952381Y-8246449D02*
X24914285Y-8094068D01*
X24914285Y-8094068D02*
X24914285Y-7827401D01*
X24914285Y-7827401D02*
X24952381Y-7675020D01*
X24952381Y-7675020D02*
X25028571Y-7598830D01*
X25028571Y-7598830D02*
X25104762Y-7560735D01*
X25790476Y-8360735D02*
X25790476Y-7560735D01*
X25790476Y-7560735D02*
X26247619Y-8360735D01*
X26247619Y-8360735D02*
X26247619Y-7560735D01*
X27809523Y-7522640D02*
X27123809Y-8551211D01*
X28685714Y-8360735D02*
X28685714Y-7560735D01*
X28685714Y-7560735D02*
X28952380Y-8132163D01*
X28952380Y-8132163D02*
X29219047Y-7560735D01*
X29219047Y-7560735D02*
X29219047Y-8360735D01*
X29752381Y-7560735D02*
X29904762Y-7560735D01*
X29904762Y-7560735D02*
X29980952Y-7598830D01*
X29980952Y-7598830D02*
X30057143Y-7675020D01*
X30057143Y-7675020D02*
X30095238Y-7827401D01*
X30095238Y-7827401D02*
X30095238Y-8094068D01*
X30095238Y-8094068D02*
X30057143Y-8246449D01*
X30057143Y-8246449D02*
X29980952Y-8322640D01*
X29980952Y-8322640D02*
X29904762Y-8360735D01*
X29904762Y-8360735D02*
X29752381Y-8360735D01*
X29752381Y-8360735D02*
X29676190Y-8322640D01*
X29676190Y-8322640D02*
X29600000Y-8246449D01*
X29600000Y-8246449D02*
X29561904Y-8094068D01*
X29561904Y-8094068D02*
X29561904Y-7827401D01*
X29561904Y-7827401D02*
X29600000Y-7675020D01*
X29600000Y-7675020D02*
X29676190Y-7598830D01*
X29676190Y-7598830D02*
X29752381Y-7560735D01*
X30323809Y-7560735D02*
X30780952Y-7560735D01*
X30552380Y-8360735D02*
X30552380Y-7560735D01*
X31047619Y-8360735D02*
X31047619Y-7560735D01*
X31580952Y-7560735D02*
X31733333Y-7560735D01*
X31733333Y-7560735D02*
X31809523Y-7598830D01*
X31809523Y-7598830D02*
X31885714Y-7675020D01*
X31885714Y-7675020D02*
X31923809Y-7827401D01*
X31923809Y-7827401D02*
X31923809Y-8094068D01*
X31923809Y-8094068D02*
X31885714Y-8246449D01*
X31885714Y-8246449D02*
X31809523Y-8322640D01*
X31809523Y-8322640D02*
X31733333Y-8360735D01*
X31733333Y-8360735D02*
X31580952Y-8360735D01*
X31580952Y-8360735D02*
X31504761Y-8322640D01*
X31504761Y-8322640D02*
X31428571Y-8246449D01*
X31428571Y-8246449D02*
X31390475Y-8094068D01*
X31390475Y-8094068D02*
X31390475Y-7827401D01*
X31390475Y-7827401D02*
X31428571Y-7675020D01*
X31428571Y-7675020D02*
X31504761Y-7598830D01*
X31504761Y-7598830D02*
X31580952Y-7560735D01*
X32266666Y-8360735D02*
X32266666Y-7560735D01*
X32266666Y-7560735D02*
X32723809Y-8360735D01*
X32723809Y-8360735D02*
X32723809Y-7560735D01*
X34285713Y-7522640D02*
X33599999Y-8551211D01*
X35161904Y-7941687D02*
X35428570Y-7941687D01*
X35542856Y-8360735D02*
X35161904Y-8360735D01*
X35161904Y-8360735D02*
X35161904Y-7560735D01*
X35161904Y-7560735D02*
X35542856Y-7560735D01*
X35885714Y-8360735D02*
X35885714Y-7560735D01*
X35885714Y-7560735D02*
X36342857Y-8360735D01*
X36342857Y-8360735D02*
X36342857Y-7560735D01*
X36723809Y-7941687D02*
X36990475Y-7941687D01*
X37104761Y-8360735D02*
X36723809Y-8360735D01*
X36723809Y-8360735D02*
X36723809Y-7560735D01*
X36723809Y-7560735D02*
X37104761Y-7560735D01*
X37904762Y-8360735D02*
X37638095Y-7979782D01*
X37447619Y-8360735D02*
X37447619Y-7560735D01*
X37447619Y-7560735D02*
X37752381Y-7560735D01*
X37752381Y-7560735D02*
X37828571Y-7598830D01*
X37828571Y-7598830D02*
X37866666Y-7636925D01*
X37866666Y-7636925D02*
X37904762Y-7713116D01*
X37904762Y-7713116D02*
X37904762Y-7827401D01*
X37904762Y-7827401D02*
X37866666Y-7903592D01*
X37866666Y-7903592D02*
X37828571Y-7941687D01*
X37828571Y-7941687D02*
X37752381Y-7979782D01*
X37752381Y-7979782D02*
X37447619Y-7979782D01*
X38666666Y-7598830D02*
X38590476Y-7560735D01*
X38590476Y-7560735D02*
X38476190Y-7560735D01*
X38476190Y-7560735D02*
X38361904Y-7598830D01*
X38361904Y-7598830D02*
X38285714Y-7675020D01*
X38285714Y-7675020D02*
X38247619Y-7751211D01*
X38247619Y-7751211D02*
X38209523Y-7903592D01*
X38209523Y-7903592D02*
X38209523Y-8017878D01*
X38209523Y-8017878D02*
X38247619Y-8170259D01*
X38247619Y-8170259D02*
X38285714Y-8246449D01*
X38285714Y-8246449D02*
X38361904Y-8322640D01*
X38361904Y-8322640D02*
X38476190Y-8360735D01*
X38476190Y-8360735D02*
X38552381Y-8360735D01*
X38552381Y-8360735D02*
X38666666Y-8322640D01*
X38666666Y-8322640D02*
X38704762Y-8284544D01*
X38704762Y-8284544D02*
X38704762Y-8017878D01*
X38704762Y-8017878D02*
X38552381Y-8017878D01*
X39047619Y-8360735D02*
X39047619Y-7560735D01*
X39352380Y-7560735D02*
X39885714Y-7560735D01*
X39885714Y-7560735D02*
X39352380Y-8360735D01*
X39352380Y-8360735D02*
X39885714Y-8360735D01*
X40152380Y-8132163D02*
X40533333Y-8132163D01*
X40076190Y-8360735D02*
X40342857Y-7560735D01*
X40342857Y-7560735D02*
X40609523Y-8360735D01*
X40761904Y-7560735D02*
X41219047Y-7560735D01*
X40990475Y-8360735D02*
X40990475Y-7560735D01*
X41485714Y-8360735D02*
X41485714Y-7560735D01*
X42019047Y-7560735D02*
X42171428Y-7560735D01*
X42171428Y-7560735D02*
X42247618Y-7598830D01*
X42247618Y-7598830D02*
X42323809Y-7675020D01*
X42323809Y-7675020D02*
X42361904Y-7827401D01*
X42361904Y-7827401D02*
X42361904Y-8094068D01*
X42361904Y-8094068D02*
X42323809Y-8246449D01*
X42323809Y-8246449D02*
X42247618Y-8322640D01*
X42247618Y-8322640D02*
X42171428Y-8360735D01*
X42171428Y-8360735D02*
X42019047Y-8360735D01*
X42019047Y-8360735D02*
X41942856Y-8322640D01*
X41942856Y-8322640D02*
X41866666Y-8246449D01*
X41866666Y-8246449D02*
X41828570Y-8094068D01*
X41828570Y-8094068D02*
X41828570Y-7827401D01*
X41828570Y-7827401D02*
X41866666Y-7675020D01*
X41866666Y-7675020D02*
X41942856Y-7598830D01*
X41942856Y-7598830D02*
X42019047Y-7560735D01*
X42704761Y-8360735D02*
X42704761Y-7560735D01*
X42704761Y-7560735D02*
X43161904Y-8360735D01*
X43161904Y-8360735D02*
X43161904Y-7560735D01*
X4904762Y-22453259D02*
X5238095Y-23453259D01*
X5238095Y-23453259D02*
X5571428Y-22453259D01*
X5904762Y-23453259D02*
X5904762Y-22453259D01*
X6380952Y-23453259D02*
X6380952Y-22453259D01*
X6380952Y-22453259D02*
X6952380Y-23453259D01*
X6952380Y-23453259D02*
X6952380Y-22453259D01*
X9880951Y-56453259D02*
X9547618Y-55977068D01*
X9309523Y-56453259D02*
X9309523Y-55453259D01*
X9309523Y-55453259D02*
X9690475Y-55453259D01*
X9690475Y-55453259D02*
X9785713Y-55500878D01*
X9785713Y-55500878D02*
X9833332Y-55548497D01*
X9833332Y-55548497D02*
X9880951Y-55643735D01*
X9880951Y-55643735D02*
X9880951Y-55786592D01*
X9880951Y-55786592D02*
X9833332Y-55881830D01*
X9833332Y-55881830D02*
X9785713Y-55929449D01*
X9785713Y-55929449D02*
X9690475Y-55977068D01*
X9690475Y-55977068D02*
X9309523Y-55977068D01*
X10833332Y-56453259D02*
X10261904Y-56453259D01*
X10547618Y-56453259D02*
X10547618Y-55453259D01*
X10547618Y-55453259D02*
X10452380Y-55596116D01*
X10452380Y-55596116D02*
X10357142Y-55691354D01*
X10357142Y-55691354D02*
X10261904Y-55738973D01*
X11738094Y-55453259D02*
X11261904Y-55453259D01*
X11261904Y-55453259D02*
X11214285Y-55929449D01*
X11214285Y-55929449D02*
X11261904Y-55881830D01*
X11261904Y-55881830D02*
X11357142Y-55834211D01*
X11357142Y-55834211D02*
X11595237Y-55834211D01*
X11595237Y-55834211D02*
X11690475Y-55881830D01*
X11690475Y-55881830D02*
X11738094Y-55929449D01*
X11738094Y-55929449D02*
X11785713Y-56024687D01*
X11785713Y-56024687D02*
X11785713Y-56262782D01*
X11785713Y-56262782D02*
X11738094Y-56358020D01*
X11738094Y-56358020D02*
X11690475Y-56405640D01*
X11690475Y-56405640D02*
X11595237Y-56453259D01*
X11595237Y-56453259D02*
X11357142Y-56453259D01*
X11357142Y-56453259D02*
X11261904Y-56405640D01*
X11261904Y-56405640D02*
X11214285Y-56358020D01*
X12642856Y-55453259D02*
X12452380Y-55453259D01*
X12452380Y-55453259D02*
X12357142Y-55500878D01*
X12357142Y-55500878D02*
X12309523Y-55548497D01*
X12309523Y-55548497D02*
X12214285Y-55691354D01*
X12214285Y-55691354D02*
X12166666Y-55881830D01*
X12166666Y-55881830D02*
X12166666Y-56262782D01*
X12166666Y-56262782D02*
X12214285Y-56358020D01*
X12214285Y-56358020D02*
X12261904Y-56405640D01*
X12261904Y-56405640D02*
X12357142Y-56453259D01*
X12357142Y-56453259D02*
X12547618Y-56453259D01*
X12547618Y-56453259D02*
X12642856Y-56405640D01*
X12642856Y-56405640D02*
X12690475Y-56358020D01*
X12690475Y-56358020D02*
X12738094Y-56262782D01*
X12738094Y-56262782D02*
X12738094Y-56024687D01*
X12738094Y-56024687D02*
X12690475Y-55929449D01*
X12690475Y-55929449D02*
X12642856Y-55881830D01*
X12642856Y-55881830D02*
X12547618Y-55834211D01*
X12547618Y-55834211D02*
X12357142Y-55834211D01*
X12357142Y-55834211D02*
X12261904Y-55881830D01*
X12261904Y-55881830D02*
X12214285Y-55929449D01*
X12214285Y-55929449D02*
X12166666Y-56024687D01*
X13928571Y-55929449D02*
X14261904Y-55929449D01*
X14404761Y-56453259D02*
X13928571Y-56453259D01*
X13928571Y-56453259D02*
X13928571Y-55453259D01*
X13928571Y-55453259D02*
X14404761Y-55453259D01*
X14690476Y-55453259D02*
X15023809Y-56453259D01*
X15023809Y-56453259D02*
X15357142Y-55453259D01*
X15642857Y-56167544D02*
X16119047Y-56167544D01*
X15547619Y-56453259D02*
X15880952Y-55453259D01*
X15880952Y-55453259D02*
X16214285Y-56453259D01*
X17023809Y-56453259D02*
X16547619Y-56453259D01*
X16547619Y-56453259D02*
X16547619Y-55453259D01*
X17357143Y-55453259D02*
X17357143Y-56262782D01*
X17357143Y-56262782D02*
X17404762Y-56358020D01*
X17404762Y-56358020D02*
X17452381Y-56405640D01*
X17452381Y-56405640D02*
X17547619Y-56453259D01*
X17547619Y-56453259D02*
X17738095Y-56453259D01*
X17738095Y-56453259D02*
X17833333Y-56405640D01*
X17833333Y-56405640D02*
X17880952Y-56358020D01*
X17880952Y-56358020D02*
X17928571Y-56262782D01*
X17928571Y-56262782D02*
X17928571Y-55453259D01*
X18357143Y-56167544D02*
X18833333Y-56167544D01*
X18261905Y-56453259D02*
X18595238Y-55453259D01*
X18595238Y-55453259D02*
X18928571Y-56453259D01*
X19119048Y-55453259D02*
X19690476Y-55453259D01*
X19404762Y-56453259D02*
X19404762Y-55453259D01*
X20023810Y-56453259D02*
X20023810Y-55453259D01*
X20690476Y-55453259D02*
X20880952Y-55453259D01*
X20880952Y-55453259D02*
X20976190Y-55500878D01*
X20976190Y-55500878D02*
X21071428Y-55596116D01*
X21071428Y-55596116D02*
X21119047Y-55786592D01*
X21119047Y-55786592D02*
X21119047Y-56119925D01*
X21119047Y-56119925D02*
X21071428Y-56310401D01*
X21071428Y-56310401D02*
X20976190Y-56405640D01*
X20976190Y-56405640D02*
X20880952Y-56453259D01*
X20880952Y-56453259D02*
X20690476Y-56453259D01*
X20690476Y-56453259D02*
X20595238Y-56405640D01*
X20595238Y-56405640D02*
X20500000Y-56310401D01*
X20500000Y-56310401D02*
X20452381Y-56119925D01*
X20452381Y-56119925D02*
X20452381Y-55786592D01*
X20452381Y-55786592D02*
X20500000Y-55596116D01*
X20500000Y-55596116D02*
X20595238Y-55500878D01*
X20595238Y-55500878D02*
X20690476Y-55453259D01*
X21547619Y-56453259D02*
X21547619Y-55453259D01*
X21547619Y-55453259D02*
X22119047Y-56453259D01*
X22119047Y-56453259D02*
X22119047Y-55453259D01*
X23928571Y-56358020D02*
X23880952Y-56405640D01*
X23880952Y-56405640D02*
X23738095Y-56453259D01*
X23738095Y-56453259D02*
X23642857Y-56453259D01*
X23642857Y-56453259D02*
X23500000Y-56405640D01*
X23500000Y-56405640D02*
X23404762Y-56310401D01*
X23404762Y-56310401D02*
X23357143Y-56215163D01*
X23357143Y-56215163D02*
X23309524Y-56024687D01*
X23309524Y-56024687D02*
X23309524Y-55881830D01*
X23309524Y-55881830D02*
X23357143Y-55691354D01*
X23357143Y-55691354D02*
X23404762Y-55596116D01*
X23404762Y-55596116D02*
X23500000Y-55500878D01*
X23500000Y-55500878D02*
X23642857Y-55453259D01*
X23642857Y-55453259D02*
X23738095Y-55453259D01*
X23738095Y-55453259D02*
X23880952Y-55500878D01*
X23880952Y-55500878D02*
X23928571Y-55548497D01*
X24309524Y-56167544D02*
X24785714Y-56167544D01*
X24214286Y-56453259D02*
X24547619Y-55453259D01*
X24547619Y-55453259D02*
X24880952Y-56453259D01*
X25785714Y-56453259D02*
X25452381Y-55977068D01*
X25214286Y-56453259D02*
X25214286Y-55453259D01*
X25214286Y-55453259D02*
X25595238Y-55453259D01*
X25595238Y-55453259D02*
X25690476Y-55500878D01*
X25690476Y-55500878D02*
X25738095Y-55548497D01*
X25738095Y-55548497D02*
X25785714Y-55643735D01*
X25785714Y-55643735D02*
X25785714Y-55786592D01*
X25785714Y-55786592D02*
X25738095Y-55881830D01*
X25738095Y-55881830D02*
X25690476Y-55929449D01*
X25690476Y-55929449D02*
X25595238Y-55977068D01*
X25595238Y-55977068D02*
X25214286Y-55977068D01*
X26785714Y-56453259D02*
X26452381Y-55977068D01*
X26214286Y-56453259D02*
X26214286Y-55453259D01*
X26214286Y-55453259D02*
X26595238Y-55453259D01*
X26595238Y-55453259D02*
X26690476Y-55500878D01*
X26690476Y-55500878D02*
X26738095Y-55548497D01*
X26738095Y-55548497D02*
X26785714Y-55643735D01*
X26785714Y-55643735D02*
X26785714Y-55786592D01*
X26785714Y-55786592D02*
X26738095Y-55881830D01*
X26738095Y-55881830D02*
X26690476Y-55929449D01*
X26690476Y-55929449D02*
X26595238Y-55977068D01*
X26595238Y-55977068D02*
X26214286Y-55977068D01*
X27214286Y-56453259D02*
X27214286Y-55453259D01*
X27690476Y-55929449D02*
X28023809Y-55929449D01*
X28166666Y-56453259D02*
X27690476Y-56453259D01*
X27690476Y-56453259D02*
X27690476Y-55453259D01*
X27690476Y-55453259D02*
X28166666Y-55453259D01*
X29166666Y-56453259D02*
X28833333Y-55977068D01*
X28595238Y-56453259D02*
X28595238Y-55453259D01*
X28595238Y-55453259D02*
X28976190Y-55453259D01*
X28976190Y-55453259D02*
X29071428Y-55500878D01*
X29071428Y-55500878D02*
X29119047Y-55548497D01*
X29119047Y-55548497D02*
X29166666Y-55643735D01*
X29166666Y-55643735D02*
X29166666Y-55786592D01*
X29166666Y-55786592D02*
X29119047Y-55881830D01*
X29119047Y-55881830D02*
X29071428Y-55929449D01*
X29071428Y-55929449D02*
X28976190Y-55977068D01*
X28976190Y-55977068D02*
X28595238Y-55977068D01*
X30357143Y-56072306D02*
X31119048Y-56072306D01*
X32357143Y-56453259D02*
X32357143Y-55453259D01*
X32357143Y-55453259D02*
X32928571Y-56453259D01*
X32928571Y-56453259D02*
X32928571Y-55453259D01*
X33595238Y-55453259D02*
X33785714Y-55453259D01*
X33785714Y-55453259D02*
X33880952Y-55500878D01*
X33880952Y-55500878D02*
X33976190Y-55596116D01*
X33976190Y-55596116D02*
X34023809Y-55786592D01*
X34023809Y-55786592D02*
X34023809Y-56119925D01*
X34023809Y-56119925D02*
X33976190Y-56310401D01*
X33976190Y-56310401D02*
X33880952Y-56405640D01*
X33880952Y-56405640D02*
X33785714Y-56453259D01*
X33785714Y-56453259D02*
X33595238Y-56453259D01*
X33595238Y-56453259D02*
X33500000Y-56405640D01*
X33500000Y-56405640D02*
X33404762Y-56310401D01*
X33404762Y-56310401D02*
X33357143Y-56119925D01*
X33357143Y-56119925D02*
X33357143Y-55786592D01*
X33357143Y-55786592D02*
X33404762Y-55596116D01*
X33404762Y-55596116D02*
X33500000Y-55500878D01*
X33500000Y-55500878D02*
X33595238Y-55453259D01*
X35785714Y-56453259D02*
X35452381Y-55977068D01*
X35214286Y-56453259D02*
X35214286Y-55453259D01*
X35214286Y-55453259D02*
X35595238Y-55453259D01*
X35595238Y-55453259D02*
X35690476Y-55500878D01*
X35690476Y-55500878D02*
X35738095Y-55548497D01*
X35738095Y-55548497D02*
X35785714Y-55643735D01*
X35785714Y-55643735D02*
X35785714Y-55786592D01*
X35785714Y-55786592D02*
X35738095Y-55881830D01*
X35738095Y-55881830D02*
X35690476Y-55929449D01*
X35690476Y-55929449D02*
X35595238Y-55977068D01*
X35595238Y-55977068D02*
X35214286Y-55977068D01*
X36404762Y-55453259D02*
X36595238Y-55453259D01*
X36595238Y-55453259D02*
X36690476Y-55500878D01*
X36690476Y-55500878D02*
X36785714Y-55596116D01*
X36785714Y-55596116D02*
X36833333Y-55786592D01*
X36833333Y-55786592D02*
X36833333Y-56119925D01*
X36833333Y-56119925D02*
X36785714Y-56310401D01*
X36785714Y-56310401D02*
X36690476Y-56405640D01*
X36690476Y-56405640D02*
X36595238Y-56453259D01*
X36595238Y-56453259D02*
X36404762Y-56453259D01*
X36404762Y-56453259D02*
X36309524Y-56405640D01*
X36309524Y-56405640D02*
X36214286Y-56310401D01*
X36214286Y-56310401D02*
X36166667Y-56119925D01*
X36166667Y-56119925D02*
X36166667Y-55786592D01*
X36166667Y-55786592D02*
X36214286Y-55596116D01*
X36214286Y-55596116D02*
X36309524Y-55500878D01*
X36309524Y-55500878D02*
X36404762Y-55453259D01*
X37595238Y-55929449D02*
X37738095Y-55977068D01*
X37738095Y-55977068D02*
X37785714Y-56024687D01*
X37785714Y-56024687D02*
X37833333Y-56119925D01*
X37833333Y-56119925D02*
X37833333Y-56262782D01*
X37833333Y-56262782D02*
X37785714Y-56358020D01*
X37785714Y-56358020D02*
X37738095Y-56405640D01*
X37738095Y-56405640D02*
X37642857Y-56453259D01*
X37642857Y-56453259D02*
X37261905Y-56453259D01*
X37261905Y-56453259D02*
X37261905Y-55453259D01*
X37261905Y-55453259D02*
X37595238Y-55453259D01*
X37595238Y-55453259D02*
X37690476Y-55500878D01*
X37690476Y-55500878D02*
X37738095Y-55548497D01*
X37738095Y-55548497D02*
X37785714Y-55643735D01*
X37785714Y-55643735D02*
X37785714Y-55738973D01*
X37785714Y-55738973D02*
X37738095Y-55834211D01*
X37738095Y-55834211D02*
X37690476Y-55881830D01*
X37690476Y-55881830D02*
X37595238Y-55929449D01*
X37595238Y-55929449D02*
X37261905Y-55929449D01*
X38452381Y-55453259D02*
X38642857Y-55453259D01*
X38642857Y-55453259D02*
X38738095Y-55500878D01*
X38738095Y-55500878D02*
X38833333Y-55596116D01*
X38833333Y-55596116D02*
X38880952Y-55786592D01*
X38880952Y-55786592D02*
X38880952Y-56119925D01*
X38880952Y-56119925D02*
X38833333Y-56310401D01*
X38833333Y-56310401D02*
X38738095Y-56405640D01*
X38738095Y-56405640D02*
X38642857Y-56453259D01*
X38642857Y-56453259D02*
X38452381Y-56453259D01*
X38452381Y-56453259D02*
X38357143Y-56405640D01*
X38357143Y-56405640D02*
X38261905Y-56310401D01*
X38261905Y-56310401D02*
X38214286Y-56119925D01*
X38214286Y-56119925D02*
X38214286Y-55786592D01*
X38214286Y-55786592D02*
X38261905Y-55596116D01*
X38261905Y-55596116D02*
X38357143Y-55500878D01*
X38357143Y-55500878D02*
X38452381Y-55453259D01*
X39166667Y-55453259D02*
X39738095Y-55453259D01*
X39452381Y-56453259D02*
X39452381Y-55453259D01*
X41404762Y-56453259D02*
X41071429Y-55977068D01*
X40833334Y-56453259D02*
X40833334Y-55453259D01*
X40833334Y-55453259D02*
X41214286Y-55453259D01*
X41214286Y-55453259D02*
X41309524Y-55500878D01*
X41309524Y-55500878D02*
X41357143Y-55548497D01*
X41357143Y-55548497D02*
X41404762Y-55643735D01*
X41404762Y-55643735D02*
X41404762Y-55786592D01*
X41404762Y-55786592D02*
X41357143Y-55881830D01*
X41357143Y-55881830D02*
X41309524Y-55929449D01*
X41309524Y-55929449D02*
X41214286Y-55977068D01*
X41214286Y-55977068D02*
X40833334Y-55977068D01*
X41833334Y-55929449D02*
X42166667Y-55929449D01*
X42309524Y-56453259D02*
X41833334Y-56453259D01*
X41833334Y-56453259D02*
X41833334Y-55453259D01*
X41833334Y-55453259D02*
X42309524Y-55453259D01*
X43214286Y-56453259D02*
X42738096Y-56453259D01*
X42738096Y-56453259D02*
X42738096Y-55453259D01*
X43547620Y-55929449D02*
X43880953Y-55929449D01*
X44023810Y-56453259D02*
X43547620Y-56453259D01*
X43547620Y-56453259D02*
X43547620Y-55453259D01*
X43547620Y-55453259D02*
X44023810Y-55453259D01*
X44404763Y-56167544D02*
X44880953Y-56167544D01*
X44309525Y-56453259D02*
X44642858Y-55453259D01*
X44642858Y-55453259D02*
X44976191Y-56453259D01*
X45261906Y-56405640D02*
X45404763Y-56453259D01*
X45404763Y-56453259D02*
X45642858Y-56453259D01*
X45642858Y-56453259D02*
X45738096Y-56405640D01*
X45738096Y-56405640D02*
X45785715Y-56358020D01*
X45785715Y-56358020D02*
X45833334Y-56262782D01*
X45833334Y-56262782D02*
X45833334Y-56167544D01*
X45833334Y-56167544D02*
X45785715Y-56072306D01*
X45785715Y-56072306D02*
X45738096Y-56024687D01*
X45738096Y-56024687D02*
X45642858Y-55977068D01*
X45642858Y-55977068D02*
X45452382Y-55929449D01*
X45452382Y-55929449D02*
X45357144Y-55881830D01*
X45357144Y-55881830D02*
X45309525Y-55834211D01*
X45309525Y-55834211D02*
X45261906Y-55738973D01*
X45261906Y-55738973D02*
X45261906Y-55643735D01*
X45261906Y-55643735D02*
X45309525Y-55548497D01*
X45309525Y-55548497D02*
X45357144Y-55500878D01*
X45357144Y-55500878D02*
X45452382Y-55453259D01*
X45452382Y-55453259D02*
X45690477Y-55453259D01*
X45690477Y-55453259D02*
X45833334Y-55500878D01*
X46261906Y-55929449D02*
X46595239Y-55929449D01*
X46738096Y-56453259D02*
X46261906Y-56453259D01*
X46261906Y-56453259D02*
X46261906Y-55453259D01*
X46261906Y-55453259D02*
X46738096Y-55453259D01*
X88238095Y-22453259D02*
X88571428Y-23453259D01*
X88571428Y-23453259D02*
X88904761Y-22453259D01*
X89428571Y-22453259D02*
X89619047Y-22453259D01*
X89619047Y-22453259D02*
X89714285Y-22500878D01*
X89714285Y-22500878D02*
X89809523Y-22596116D01*
X89809523Y-22596116D02*
X89857142Y-22786592D01*
X89857142Y-22786592D02*
X89857142Y-23119925D01*
X89857142Y-23119925D02*
X89809523Y-23310401D01*
X89809523Y-23310401D02*
X89714285Y-23405640D01*
X89714285Y-23405640D02*
X89619047Y-23453259D01*
X89619047Y-23453259D02*
X89428571Y-23453259D01*
X89428571Y-23453259D02*
X89333333Y-23405640D01*
X89333333Y-23405640D02*
X89238095Y-23310401D01*
X89238095Y-23310401D02*
X89190476Y-23119925D01*
X89190476Y-23119925D02*
X89190476Y-22786592D01*
X89190476Y-22786592D02*
X89238095Y-22596116D01*
X89238095Y-22596116D02*
X89333333Y-22500878D01*
X89333333Y-22500878D02*
X89428571Y-22453259D01*
X90285714Y-22453259D02*
X90285714Y-23262782D01*
X90285714Y-23262782D02*
X90333333Y-23358020D01*
X90333333Y-23358020D02*
X90380952Y-23405640D01*
X90380952Y-23405640D02*
X90476190Y-23453259D01*
X90476190Y-23453259D02*
X90666666Y-23453259D01*
X90666666Y-23453259D02*
X90761904Y-23405640D01*
X90761904Y-23405640D02*
X90809523Y-23358020D01*
X90809523Y-23358020D02*
X90857142Y-23262782D01*
X90857142Y-23262782D02*
X90857142Y-22453259D01*
X91190476Y-22453259D02*
X91761904Y-22453259D01*
X91476190Y-23453259D02*
X91476190Y-22453259D01*
%TO.C,JIN1*%
D11*
X3090000Y-27940000D02*
X10110000Y-27940000D01*
X3090000Y-36020000D02*
X3090000Y-27940000D01*
X7700000Y-27140000D02*
X8300000Y-27140000D01*
X8000000Y-27740000D02*
X7700000Y-27140000D01*
X8300000Y-27140000D02*
X8000000Y-27740000D01*
X10110000Y-27940000D02*
X10110000Y-29140000D01*
X10110000Y-29140000D02*
X11810000Y-29140000D01*
X10110000Y-34820000D02*
X10110000Y-36020000D01*
X10110000Y-36020000D02*
X3090000Y-36020000D01*
X11810000Y-29140000D02*
X11810000Y-34820000D01*
X11810000Y-34820000D02*
X10110000Y-34820000D01*
%TO.C,TPGND1*%
X51750000Y-52000000D02*
G75*
G02*
X48250000Y-52000000I-1750000J0D01*
G01*
X48250000Y-52000000D02*
G75*
G02*
X51750000Y-52000000I1750000J0D01*
G01*
%TO.C,CINHF1*%
X31859420Y-27490000D02*
X32140580Y-27490000D01*
X31859420Y-28510000D02*
X32140580Y-28510000D01*
%TO.C,RILM1*%
X59762742Y-41477500D02*
X60237258Y-41477500D01*
X59762742Y-42522500D02*
X60237258Y-42522500D01*
%TO.C,CINBULK1*%
X31859420Y-35490000D02*
X32140580Y-35490000D01*
X31859420Y-36510000D02*
X32140580Y-36510000D01*
%TO.C,JOUT1*%
X88190000Y-25180000D02*
X89890000Y-25180000D01*
X88190000Y-30860000D02*
X88190000Y-25180000D01*
X89890000Y-23980000D02*
X96910000Y-23980000D01*
X89890000Y-25180000D02*
X89890000Y-23980000D01*
X89890000Y-30860000D02*
X88190000Y-30860000D01*
X89890000Y-32060000D02*
X89890000Y-30860000D01*
X91700000Y-32860000D02*
X92000000Y-32260000D01*
X92000000Y-32260000D02*
X92300000Y-32860000D01*
X92300000Y-32860000D02*
X91700000Y-32860000D01*
X96910000Y-23980000D02*
X96910000Y-32060000D01*
X96910000Y-32060000D02*
X89890000Y-32060000D01*
%TO.C,COUTA1*%
X67859420Y-25490000D02*
X68140580Y-25490000D01*
X67859420Y-26510000D02*
X68140580Y-26510000D01*
%TO.C,TPSPLY1*%
X21750000Y-22000000D02*
G75*
G02*
X18250000Y-22000000I-1750000J0D01*
G01*
X18250000Y-22000000D02*
G75*
G02*
X21750000Y-22000000I1750000J0D01*
G01*
%TO.C,TPILM1*%
X71750000Y-42000000D02*
G75*
G02*
X68250000Y-42000000I-1750000J0D01*
G01*
X68250000Y-42000000D02*
G75*
G02*
X71750000Y-42000000I1750000J0D01*
G01*
%TO.C,RUVT1*%
X39762742Y-17477500D02*
X40237258Y-17477500D01*
X39762742Y-18522500D02*
X40237258Y-18522500D01*
%TO.C,TPFLT1*%
X21750000Y-38000000D02*
G75*
G02*
X18250000Y-38000000I-1750000J0D01*
G01*
X18250000Y-38000000D02*
G75*
G02*
X21750000Y-38000000I1750000J0D01*
G01*
%TO.C,TPVIN1*%
X17750000Y-12000000D02*
G75*
G02*
X14250000Y-12000000I-1750000J0D01*
G01*
X14250000Y-12000000D02*
G75*
G02*
X17750000Y-12000000I1750000J0D01*
G01*
%TO.C,COUTB1*%
X67859420Y-30490000D02*
X68140580Y-30490000D01*
X67859420Y-31510000D02*
X68140580Y-31510000D01*
%TO.C,ROVB1*%
X43762742Y-41477500D02*
X44237258Y-41477500D01*
X43762742Y-42522500D02*
X44237258Y-42522500D01*
%TO.C,CDV1*%
X59859420Y-17490000D02*
X60140580Y-17490000D01*
X59859420Y-18510000D02*
X60140580Y-18510000D01*
%TO.C,DCLAMP1*%
X76350000Y-23510000D02*
X76350000Y-18000000D01*
X76350000Y-23510000D02*
X79650000Y-23510000D01*
X79650000Y-23510000D02*
X79650000Y-18000000D01*
%TO.C,TPOUT1*%
X85750000Y-12000000D02*
G75*
G02*
X82250000Y-12000000I-1750000J0D01*
G01*
X82250000Y-12000000D02*
G75*
G02*
X85750000Y-12000000I1750000J0D01*
G01*
%TO.C,ROVT1*%
X39762742Y-41477500D02*
X40237258Y-41477500D01*
X39762742Y-42522500D02*
X40237258Y-42522500D01*
%TO.C,RUVB1*%
X43762742Y-17477500D02*
X44237258Y-17477500D01*
X43762742Y-18522500D02*
X44237258Y-18522500D01*
%TD*%
M02*
