<svg xmlns="http://www.w3.org/2000/svg" width="1600" height="850" viewBox="0 0 1600 850">
<rect width="1600" height="850" fill="#f7fbff"/>
<style>text{font-family:system-ui,Segoe UI,sans-serif;fill:#0b1d35}.h{font-size:34px;font-weight:900}.t{font-size:17px;font-weight:800}.s{font-size:13px}.box{fill:#fff;stroke:#082d67;stroke-width:3}.pod{fill:#e4f6ff;stroke:#145ca8;stroke-width:3}.wire{stroke:#145ca8;stroke-width:4}.r{fill:#ffc83d;stroke:#6e4d00;stroke-width:2}.warn{fill:#ffc83d;stroke:#6e4d00;stroke-width:3}</style>
<text class="h" x="50" y="52">Eight source-local diagnostic pickoff pods</text>
<rect class="warn" x="50" y="72" width="1500" height="50" rx="8"/><text class="t" x="70" y="104">UNBUILT — SOURCE TAPS OPEN — ZERO SAFETY CREDIT — NO CONNECTION OR ENERGIZATION AUTHORITY</text>
<rect class="box" x="50" y="135" width="315" height="58" rx="12"/><text class="t" x="68" y="160">DP-01 · ACT_MAIN_SOURCE_12V</text><text class="s" x="68" y="182">PS1:+V / PS1:-V</text>
<line class="wire" x1="365" y1="152" x2="475" y2="152"/><line class="wire" x1="365" y1="172" x2="475" y2="172"/>
<rect class="pod" x="475" y="128" width="520" height="66" rx="13"/><text class="t" x="495" y="152">DP-01 · 74 × 34 mm PCB</text>
<rect class="r" x="730" y="138" width="65" height="18"/><rect class="r" x="805" y="138" width="65" height="18"/><rect class="r" x="730" y="168" width="65" height="18"/><rect class="r" x="805" y="168" width="65" height="18"/><text class="s" x="735" y="152">100 kΩ</text><text class="s" x="810" y="152">100 kΩ</text><text class="s" x="735" y="182">100 kΩ</text><text class="s" x="810" y="182">100 kΩ</text><text class="s" x="890" y="167">1551KFLBK</text>
<line class="wire" x1="995" y1="152" x2="1210" y2="152"/><line class="wire" x1="995" y1="172" x2="1210" y2="172"/><rect class="box" x="1210" y="135" width="330" height="58" rx="12"/><text class="t" x="1230" y="160">3.0 m to panel J1I</text><text class="s" x="1230" y="182">separate floating 22 AWG pair</text>
<rect class="box" x="50" y="213" width="315" height="58" rx="12"/><text class="t" x="68" y="238">DP-02 · ACT_MAIN_SAFE_12V</text><text class="s" x="68" y="260">XT1A:P1 / XT1A:P2</text>
<line class="wire" x1="365" y1="230" x2="475" y2="230"/><line class="wire" x1="365" y1="250" x2="475" y2="250"/>
<rect class="pod" x="475" y="206" width="520" height="66" rx="13"/><text class="t" x="495" y="230">DP-02 · 74 × 34 mm PCB</text>
<rect class="r" x="730" y="216" width="65" height="18"/><rect class="r" x="805" y="216" width="65" height="18"/><rect class="r" x="730" y="246" width="65" height="18"/><rect class="r" x="805" y="246" width="65" height="18"/><text class="s" x="735" y="230">100 kΩ</text><text class="s" x="810" y="230">100 kΩ</text><text class="s" x="735" y="260">100 kΩ</text><text class="s" x="810" y="260">100 kΩ</text><text class="s" x="890" y="245">1551KFLBK</text>
<line class="wire" x1="995" y1="230" x2="1210" y2="230"/><line class="wire" x1="995" y1="250" x2="1210" y2="250"/><rect class="box" x="1210" y="213" width="330" height="58" rx="12"/><text class="t" x="1230" y="238">3.0 m to panel J2I</text><text class="s" x="1230" y="260">separate floating 22 AWG pair</text>
<rect class="box" x="50" y="291" width="315" height="58" rx="12"/><text class="t" x="68" y="316">DP-03 · TTL_LDIST_SAFE_9V</text><text class="s" x="68" y="338">REG_TTL_L:LOG-OUT / REG_TTL_L:LOG-RET-OUT</text>
<line class="wire" x1="365" y1="308" x2="475" y2="308"/><line class="wire" x1="365" y1="328" x2="475" y2="328"/>
<rect class="pod" x="475" y="284" width="520" height="66" rx="13"/><text class="t" x="495" y="308">DP-03 · 74 × 34 mm PCB</text>
<rect class="r" x="730" y="294" width="65" height="18"/><rect class="r" x="805" y="294" width="65" height="18"/><rect class="r" x="730" y="324" width="65" height="18"/><rect class="r" x="805" y="324" width="65" height="18"/><text class="s" x="735" y="308">100 kΩ</text><text class="s" x="810" y="308">100 kΩ</text><text class="s" x="735" y="338">100 kΩ</text><text class="s" x="810" y="338">100 kΩ</text><text class="s" x="890" y="323">1551KFLBK</text>
<line class="wire" x1="995" y1="308" x2="1210" y2="308"/><line class="wire" x1="995" y1="328" x2="1210" y2="328"/><rect class="box" x="1210" y="291" width="330" height="58" rx="12"/><text class="t" x="1230" y="316">3.0 m to panel J3I</text><text class="s" x="1230" y="338">separate floating 22 AWG pair</text>
<rect class="box" x="50" y="369" width="315" height="58" rx="12"/><text class="t" x="68" y="394">DP-04 · CTRL_5V</text><text class="s" x="68" y="416">REG1:LOG-5V / REG1:LOG-GND</text>
<line class="wire" x1="365" y1="386" x2="475" y2="386"/><line class="wire" x1="365" y1="406" x2="475" y2="406"/>
<rect class="pod" x="475" y="362" width="520" height="66" rx="13"/><text class="t" x="495" y="386">DP-04 · 74 × 34 mm PCB</text>
<rect class="r" x="730" y="372" width="65" height="18"/><rect class="r" x="805" y="372" width="65" height="18"/><rect class="r" x="730" y="402" width="65" height="18"/><rect class="r" x="805" y="402" width="65" height="18"/><text class="s" x="735" y="386">100 kΩ</text><text class="s" x="810" y="386">100 kΩ</text><text class="s" x="735" y="416">100 kΩ</text><text class="s" x="810" y="416">100 kΩ</text><text class="s" x="890" y="401">1551KFLBK</text>
<line class="wire" x1="995" y1="386" x2="1210" y2="386"/><line class="wire" x1="995" y1="406" x2="1210" y2="406"/><rect class="box" x="1210" y="369" width="330" height="58" rx="12"/><text class="t" x="1230" y="394">3.0 m to panel J4I</text><text class="s" x="1230" y="416">separate floating 22 AWG pair</text>
<rect class="box" x="50" y="447" width="315" height="58" rx="12"/><text class="t" x="68" y="472">DP-05 · ESTOP_CH_A_24V</text><text class="s" x="68" y="494">SR1:S12 / SR1:A2</text>
<line class="wire" x1="365" y1="464" x2="475" y2="464"/><line class="wire" x1="365" y1="484" x2="475" y2="484"/>
<rect class="pod" x="475" y="440" width="520" height="66" rx="13"/><text class="t" x="495" y="464">DP-05 · 74 × 34 mm PCB</text>
<rect class="r" x="730" y="450" width="65" height="18"/><rect class="r" x="805" y="450" width="65" height="18"/><rect class="r" x="730" y="480" width="65" height="18"/><rect class="r" x="805" y="480" width="65" height="18"/><text class="s" x="735" y="464">100 kΩ</text><text class="s" x="810" y="464">100 kΩ</text><text class="s" x="735" y="494">100 kΩ</text><text class="s" x="810" y="494">100 kΩ</text><text class="s" x="890" y="479">1551KFLBK</text>
<line class="wire" x1="995" y1="464" x2="1210" y2="464"/><line class="wire" x1="995" y1="484" x2="1210" y2="484"/><rect class="box" x="1210" y="447" width="330" height="58" rx="12"/><text class="t" x="1230" y="472">3.0 m to panel J5I</text><text class="s" x="1230" y="494">separate floating 22 AWG pair</text>
<rect class="box" x="50" y="525" width="315" height="58" rx="12"/><text class="t" x="68" y="550">DP-06 · HARDWIRED_PERMIT_24V</text><text class="s" x="68" y="572">SR1:34 / SR1:A2</text>
<line class="wire" x1="365" y1="542" x2="475" y2="542"/><line class="wire" x1="365" y1="562" x2="475" y2="562"/>
<rect class="pod" x="475" y="518" width="520" height="66" rx="13"/><text class="t" x="495" y="542">DP-06 · 74 × 34 mm PCB</text>
<rect class="r" x="730" y="528" width="65" height="18"/><rect class="r" x="805" y="528" width="65" height="18"/><rect class="r" x="730" y="558" width="65" height="18"/><rect class="r" x="805" y="558" width="65" height="18"/><text class="s" x="735" y="542">100 kΩ</text><text class="s" x="810" y="542">100 kΩ</text><text class="s" x="735" y="572">100 kΩ</text><text class="s" x="810" y="572">100 kΩ</text><text class="s" x="890" y="557">1551KFLBK</text>
<line class="wire" x1="995" y1="542" x2="1210" y2="542"/><line class="wire" x1="995" y1="562" x2="1210" y2="562"/><rect class="box" x="1210" y="525" width="330" height="58" rx="12"/><text class="t" x="1230" y="550">3.0 m to panel J6I</text><text class="s" x="1230" y="572">separate floating 22 AWG pair</text>
<rect class="box" x="50" y="603" width="315" height="58" rx="12"/><text class="t" x="68" y="628">DP-07 · K1_COIL_24V</text><text class="s" x="68" y="650">K1:A1 / K1:A2</text>
<line class="wire" x1="365" y1="620" x2="475" y2="620"/><line class="wire" x1="365" y1="640" x2="475" y2="640"/>
<rect class="pod" x="475" y="596" width="520" height="66" rx="13"/><text class="t" x="495" y="620">DP-07 · 74 × 34 mm PCB</text>
<rect class="r" x="730" y="606" width="65" height="18"/><rect class="r" x="805" y="606" width="65" height="18"/><rect class="r" x="730" y="636" width="65" height="18"/><rect class="r" x="805" y="636" width="65" height="18"/><text class="s" x="735" y="620">100 kΩ</text><text class="s" x="810" y="620">100 kΩ</text><text class="s" x="735" y="650">100 kΩ</text><text class="s" x="810" y="650">100 kΩ</text><text class="s" x="890" y="635">1551KFLBK</text>
<line class="wire" x1="995" y1="620" x2="1210" y2="620"/><line class="wire" x1="995" y1="640" x2="1210" y2="640"/><rect class="box" x="1210" y="603" width="330" height="58" rx="12"/><text class="t" x="1230" y="628">3.0 m to panel J7I</text><text class="s" x="1230" y="650">separate floating 22 AWG pair</text>
<rect class="box" x="50" y="681" width="315" height="58" rx="12"/><text class="t" x="68" y="706">DP-08 · K2_COIL_24V</text><text class="s" x="68" y="728">K2:A1 / K2:A2</text>
<line class="wire" x1="365" y1="698" x2="475" y2="698"/><line class="wire" x1="365" y1="718" x2="475" y2="718"/>
<rect class="pod" x="475" y="674" width="520" height="66" rx="13"/><text class="t" x="495" y="698">DP-08 · 74 × 34 mm PCB</text>
<rect class="r" x="730" y="684" width="65" height="18"/><rect class="r" x="805" y="684" width="65" height="18"/><rect class="r" x="730" y="714" width="65" height="18"/><rect class="r" x="805" y="714" width="65" height="18"/><text class="s" x="735" y="698">100 kΩ</text><text class="s" x="810" y="698">100 kΩ</text><text class="s" x="735" y="728">100 kΩ</text><text class="s" x="810" y="728">100 kΩ</text><text class="s" x="890" y="713">1551KFLBK</text>
<line class="wire" x1="995" y1="698" x2="1210" y2="698"/><line class="wire" x1="995" y1="718" x2="1210" y2="718"/><rect class="box" x="1210" y="681" width="330" height="58" rx="12"/><text class="t" x="1230" y="706">3.0 m to panel J8I</text><text class="s" x="1230" y="728">separate floating 22 AWG pair</text>
</svg>
