0
SECTION
2
HEADER
9
$ACADVER
1
AC1009
0
ENDSEC
0
SECTION
2
ENTITIES
0
LINE
8
FINISHED_PROFILE_BEFORE_R2_FILLETS
10
-52.0
20
-20.0
30
0
11
52.0
21
-20.0
31
0
0
LINE
8
FINISHED_PROFILE_BEFORE_R2_FILLETS
10
52.0
20
-20.0
30
0
11
52.0
21
22.0
31
0
0
LINE
8
FINISHED_PROFILE_BEFORE_R2_FILLETS
10
52.0
20
22.0
30
0
11
34.0
21
22.0
31
0
0
LINE
8
FINISHED_PROFILE_BEFORE_R2_FILLETS
10
34.0
20
22.0
30
0
11
34.0
21
-10.0
31
0
0
LINE
8
FINISHED_PROFILE_BEFORE_R2_FILLETS
10
34.0
20
-10.0
30
0
11
24.0
21
-10.0
31
0
0
LINE
8
FINISHED_PROFILE_BEFORE_R2_FILLETS
10
24.0
20
-10.0
30
0
11
24.0
21
20.0
31
0
0
LINE
8
FINISHED_PROFILE_BEFORE_R2_FILLETS
10
24.0
20
20.0
30
0
11
-24.0
21
20.0
31
0
0
LINE
8
FINISHED_PROFILE_BEFORE_R2_FILLETS
10
-24.0
20
20.0
30
0
11
-24.0
21
-10.0
31
0
0
LINE
8
FINISHED_PROFILE_BEFORE_R2_FILLETS
10
-24.0
20
-10.0
30
0
11
-34.0
21
-10.0
31
0
0
LINE
8
FINISHED_PROFILE_BEFORE_R2_FILLETS
10
-34.0
20
-10.0
30
0
11
-34.0
21
22.0
31
0
0
LINE
8
FINISHED_PROFILE_BEFORE_R2_FILLETS
10
-34.0
20
22.0
30
0
11
-52.0
21
22.0
31
0
0
LINE
8
FINISHED_PROFILE_BEFORE_R2_FILLETS
10
-52.0
20
22.0
30
0
11
-52.0
21
-20.0
31
0
0
CIRCLE
8
M2_5_CLEARANCE
10
-16.0
20
-8.0
30
0
40
1.35
0
CIRCLE
8
M2_5_CLEARANCE
10
-16.0
20
8.0
30
0
40
1.35
0
CIRCLE
8
M2_5_CLEARANCE
10
16.0
20
-8.0
30
0
40
1.35
0
CIRCLE
8
M2_5_CLEARANCE
10
16.0
20
8.0
30
0
40
1.35
0
CIRCLE
8
M5_CLEARANCE
10
0.0
20
-10.0
30
0
40
2.75
0
CIRCLE
8
M5_COUNTERSINK_NOMINAL
10
0.0
20
-10.0
30
0
40
5.65
0
CIRCLE
8
M5_CLEARANCE
10
0.0
20
10.0
30
0
40
2.75
0
CIRCLE
8
M5_COUNTERSINK_NOMINAL
10
0.0
20
10.0
30
0
40
5.65
0
LINE
8
FACE_MILL_RECESS_BOUNDARY
10
-52.0
20
-20.0
30
0
11
-34.0
21
-20.0
31
0
0
LINE
8
FACE_MILL_RECESS_BOUNDARY
10
-34.0
20
-20.0
30
0
11
-34.0
21
22.0
31
0
0
LINE
8
FACE_MILL_RECESS_BOUNDARY
10
-34.0
20
22.0
30
0
11
-52.0
21
22.0
31
0
0
LINE
8
FACE_MILL_RECESS_BOUNDARY
10
-52.0
20
22.0
30
0
11
-52.0
21
-20.0
31
0
0
LINE
8
FACE_MILL_RECESS_BOUNDARY
10
34.0
20
-20.0
30
0
11
52.0
21
-20.0
31
0
0
LINE
8
FACE_MILL_RECESS_BOUNDARY
10
52.0
20
-20.0
30
0
11
52.0
21
22.0
31
0
0
LINE
8
FACE_MILL_RECESS_BOUNDARY
10
52.0
20
22.0
30
0
11
34.0
21
22.0
31
0
0
LINE
8
FACE_MILL_RECESS_BOUNDARY
10
34.0
20
22.0
30
0
11
34.0
21
-20.0
31
0
0
ENDSEC
0
EOF
