%TF.GenerationSoftware,KiCad,Pcbnew,10.0.5*%
%TF.CreationDate,2026-08-08T05:59:10-04:00*%
%TF.ProjectId,project-button-v3,70726f6a-6563-4742-9d62-7574746f6e2d,PCB-P0.5 / Electrical V3-P1.1*%
%TF.SameCoordinates,Original*%
%TF.FileFunction,Soldermask,Top*%
%TF.FilePolarity,Negative*%
%FSLAX46Y46*%
G04 Gerber Fmt 4.6, Leading zero omitted, Abs format (unit mm)*
G04 Created by KiCad (PCBNEW 10.0.5) date 2026-08-08 05:59:10*
%MOMM*%
%LPD*%
G01*
G04 APERTURE LIST*
G04 Aperture macros list*
%AMRoundRect*
0 Rectangle with rounded corners*
0 $1 Rounding radius*
0 $2 $3 $4 $5 $6 $7 $8 $9 X,Y pos of 4 corners*
0 Add a 4 corners polygon primitive as box body*
4,1,4,$2,$3,$4,$5,$6,$7,$8,$9,$2,$3,0*
0 Add four circle primitives for the rounded corners*
1,1,$1+$1,$2,$3*
1,1,$1+$1,$4,$5*
1,1,$1+$1,$6,$7*
1,1,$1+$1,$8,$9*
0 Add four rect primitives between the rounded corners*
20,1,$1+$1,$2,$3,$4,$5,0*
20,1,$1+$1,$4,$5,$6,$7,0*
20,1,$1+$1,$6,$7,$8,$9,0*
20,1,$1+$1,$8,$9,$2,$3,0*%
%AMFreePoly0*
4,1,37,0.800000,0.796148,0.878414,0.796148,1.032228,0.765552,1.177117,0.705537,1.307515,0.618408,1.418408,0.507515,1.505537,0.377117,1.565552,0.232228,1.596148,0.078414,1.596148,-0.078414,1.565552,-0.232228,1.505537,-0.377117,1.418408,-0.507515,1.307515,-0.618408,1.177117,-0.705537,1.032228,-0.765552,0.878414,-0.796148,0.800000,-0.796148,0.800000,-0.800000,-1.400000,-0.800000,
-1.403843,-0.796157,-1.439018,-0.796157,-1.511114,-0.766294,-1.566294,-0.711114,-1.596157,-0.639018,-1.596157,-0.603843,-1.600000,-0.600000,-1.600000,0.600000,-1.596157,0.603843,-1.596157,0.639018,-1.566294,0.711114,-1.511114,0.766294,-1.439018,0.796157,-1.403843,0.796157,-1.400000,0.800000,0.800000,0.800000,0.800000,0.796148,0.800000,0.796148,$1*%
%AMFreePoly1*
4,1,37,1.403843,0.796157,1.439018,0.796157,1.511114,0.766294,1.566294,0.711114,1.596157,0.639018,1.596157,0.603843,1.600000,0.600000,1.600000,-0.600000,1.596157,-0.603843,1.596157,-0.639018,1.566294,-0.711114,1.511114,-0.766294,1.439018,-0.796157,1.403843,-0.796157,1.400000,-0.800000,-0.800000,-0.800000,-0.800000,-0.796148,-0.878414,-0.796148,-1.032228,-0.765552,-1.177117,-0.705537,
-1.307515,-0.618408,-1.418408,-0.507515,-1.505537,-0.377117,-1.565552,-0.232228,-1.596148,-0.078414,-1.596148,0.078414,-1.565552,0.232228,-1.505537,0.377117,-1.418408,0.507515,-1.307515,0.618408,-1.177117,0.705537,-1.032228,0.765552,-0.878414,0.796148,-0.800000,0.796148,-0.800000,0.800000,1.400000,0.800000,1.403843,0.796157,1.403843,0.796157,$1*%
%AMFreePoly2*
4,1,37,1.600000,0.796148,1.678414,0.796148,1.832228,0.765552,1.977117,0.705537,2.107515,0.618408,2.218408,0.507515,2.305537,0.377117,2.365552,0.232228,2.396148,0.078414,2.396148,-0.078414,2.365552,-0.232228,2.305537,-0.377117,2.218408,-0.507515,2.107515,-0.618408,1.977117,-0.705537,1.832228,-0.765552,1.678414,-0.796148,1.600000,-0.796148,1.600000,-0.800000,-0.600000,-0.800000,
-0.603843,-0.796157,-0.639018,-0.796157,-0.711114,-0.766294,-0.766294,-0.711114,-0.796157,-0.639018,-0.796157,-0.603843,-0.800000,-0.600000,-0.800000,0.600000,-0.796157,0.603843,-0.796157,0.639018,-0.766294,0.711114,-0.711114,0.766294,-0.639018,0.796157,-0.603843,0.796157,-0.600000,0.800000,1.600000,0.800000,1.600000,0.796148,1.600000,0.796148,$1*%
G04 Aperture macros list end*
%ADD10RoundRect,0.222000X-1.503000X-0.703000X1.503000X-0.703000X1.503000X0.703000X-1.503000X0.703000X0*%
%ADD11RoundRect,0.250000X-0.350000X-0.450000X0.350000X-0.450000X0.350000X0.450000X-0.350000X0.450000X0*%
%ADD12RoundRect,0.240000X-0.760000X-0.560000X0.760000X-0.560000X0.760000X0.560000X-0.760000X0.560000X0*%
%ADD13C,3.200000*%
%ADD14RoundRect,0.252000X-0.798000X-0.798000X0.798000X-0.798000X0.798000X0.798000X-0.798000X0.798000X0*%
%ADD15C,2.100000*%
%ADD16RoundRect,0.100000X-0.637500X-0.100000X0.637500X-0.100000X0.637500X0.100000X-0.637500X0.100000X0*%
%ADD17R,1.500000X2.500000*%
%ADD18O,1.500000X2.500000*%
%ADD19RoundRect,0.237500X-0.237500X0.300000X-0.237500X-0.300000X0.237500X-0.300000X0.237500X0.300000X0*%
%ADD20O,1.800000X1.100000*%
%ADD21O,1.450000X1.050000*%
%ADD22FreePoly0,90.000000*%
%ADD23RoundRect,0.800000X0.000010X-0.800000X0.000010X0.800000X-0.000010X0.800000X-0.000010X-0.800000X0*%
%ADD24FreePoly1,90.000000*%
%ADD25RoundRect,0.800000X0.800000X0.000010X-0.800000X0.000010X-0.800000X-0.000010X0.800000X-0.000010X0*%
%ADD26FreePoly2,0.000000*%
%ADD27RoundRect,0.300000X0.450000X-0.450000X0.450000X0.450000X-0.450000X0.450000X-0.450000X-0.450000X0*%
%ADD28RoundRect,0.250000X-0.450000X0.350000X-0.450000X-0.350000X0.450000X-0.350000X0.450000X0.350000X0*%
%ADD29RoundRect,0.250000X-0.400000X-1.075000X0.400000X-1.075000X0.400000X1.075000X-0.400000X1.075000X0*%
%ADD30R,1.500000X1.800000*%
%ADD31RoundRect,0.250000X0.337500X0.475000X-0.337500X0.475000X-0.337500X-0.475000X0.337500X-0.475000X0*%
%ADD32RoundRect,0.100000X-0.725000X-0.100000X0.725000X-0.100000X0.725000X0.100000X-0.725000X0.100000X0*%
%ADD33RoundRect,0.250000X0.475000X-0.250000X0.475000X0.250000X-0.475000X0.250000X-0.475000X-0.250000X0*%
%ADD34RoundRect,0.237500X0.237500X-0.300000X0.237500X0.300000X-0.237500X0.300000X-0.237500X-0.300000X0*%
G04 APERTURE END LIST*
D10*
%TO.C,TP8*%
X108000000Y-54000000D03*
%TD*%
D11*
%TO.C,RPD2*%
X90000000Y-88000000D03*
X92000000Y-88000000D03*
%TD*%
D12*
%TO.C,ISO1*%
X57600000Y-106730000D03*
X57600000Y-109270000D03*
X66400000Y-109270000D03*
X66400000Y-106730000D03*
%TD*%
D13*
%TO.C,MH1*%
X25000000Y-25000000D03*
%TD*%
D14*
%TO.C,JWH1*%
X30000000Y-108000000D03*
D15*
X33500000Y-108000000D03*
%TD*%
D16*
%TO.C,UDRV1*%
X89137500Y-31725000D03*
X89137500Y-32375000D03*
X89137500Y-33025000D03*
X89137500Y-33675000D03*
X89137500Y-34325000D03*
X89137500Y-34975000D03*
X89137500Y-35625000D03*
X89137500Y-36275000D03*
X94862500Y-36275000D03*
X94862500Y-35625000D03*
X94862500Y-34975000D03*
X94862500Y-34325000D03*
X94862500Y-33675000D03*
X94862500Y-33025000D03*
X94862500Y-32375000D03*
X94862500Y-31725000D03*
%TD*%
D17*
%TO.C,DC1*%
X50000000Y-34000000D03*
D18*
X52540000Y-34000000D03*
X55080000Y-34000000D03*
%TD*%
D19*
%TO.C,CFI2*%
X104000000Y-80137500D03*
X104000000Y-81862500D03*
%TD*%
D11*
%TO.C,RPD1*%
X90000000Y-68000000D03*
X92000000Y-68000000D03*
%TD*%
D10*
%TO.C,TP9*%
X74000000Y-24000000D03*
%TD*%
D20*
%TO.C,WDCTRL1*%
X36000000Y-74725000D03*
D21*
X39030000Y-74425000D03*
X39030000Y-69575000D03*
D20*
X36000000Y-69275000D03*
D22*
X35870000Y-81690000D03*
D23*
X38410000Y-81690000D03*
D24*
X40950000Y-81690000D03*
D23*
X43490000Y-81690000D03*
X46030000Y-81690000D03*
X48570000Y-81690000D03*
X51110000Y-81690000D03*
D24*
X53650000Y-81690000D03*
D23*
X56190000Y-81690000D03*
X58730000Y-81690000D03*
X61270000Y-81690000D03*
X63810000Y-81690000D03*
D24*
X66350000Y-81690000D03*
D23*
X68890000Y-81690000D03*
X71430000Y-81690000D03*
X73970000Y-81690000D03*
X76510000Y-81690000D03*
D24*
X79050000Y-81690000D03*
D23*
X81590000Y-81690000D03*
X84130000Y-81690000D03*
X84130000Y-62310000D03*
X81590000Y-62310000D03*
D22*
X79050000Y-62310000D03*
D23*
X76510000Y-62310000D03*
X73970000Y-62310000D03*
X71430000Y-62310000D03*
X68890000Y-62310000D03*
D22*
X66350000Y-62310000D03*
D23*
X63810000Y-62310000D03*
X61270000Y-62310000D03*
X58730000Y-62310000D03*
X56190000Y-62310000D03*
D22*
X53650000Y-62310000D03*
D23*
X51110000Y-62310000D03*
X48570000Y-62310000D03*
X46030000Y-62310000D03*
X43490000Y-62310000D03*
D22*
X40950000Y-62310000D03*
D23*
X38410000Y-62310000D03*
X35870000Y-62310000D03*
D25*
X84700000Y-74540000D03*
D26*
X83900000Y-72000000D03*
D25*
X84700000Y-69460000D03*
D27*
X39000000Y-72000000D03*
X35700000Y-71000000D03*
X35700000Y-73000000D03*
X42500000Y-74500000D03*
X45000000Y-74500000D03*
X47500000Y-74500000D03*
%TD*%
D10*
%TO.C,TP15*%
X96000000Y-58000000D03*
%TD*%
D28*
%TO.C,RSN2*%
X109000000Y-77500000D03*
X109000000Y-79500000D03*
%TD*%
D29*
%TO.C,RW2*%
X134450000Y-82000000D03*
X137550000Y-82000000D03*
%TD*%
D28*
%TO.C,RSN1*%
X109000000Y-72500000D03*
X109000000Y-74500000D03*
%TD*%
D11*
%TO.C,RSO1*%
X90000000Y-64000000D03*
X92000000Y-64000000D03*
%TD*%
D30*
%TO.C,RTH1*%
X126500000Y-70000000D03*
X123500000Y-70000000D03*
%TD*%
D10*
%TO.C,TP5*%
X38000000Y-105000000D03*
%TD*%
%TO.C,TP7*%
X78000000Y-52000000D03*
%TD*%
%TO.C,TP13*%
X90000000Y-58000000D03*
%TD*%
D31*
%TO.C,CDRV2*%
X125037500Y-39000000D03*
X122962500Y-39000000D03*
%TD*%
D10*
%TO.C,TP1*%
X72000000Y-40000000D03*
%TD*%
D30*
%TO.C,RTH2*%
X126500000Y-82000000D03*
X123500000Y-82000000D03*
%TD*%
D32*
%TO.C,UFB1*%
X97375000Y-73777500D03*
X97375000Y-74412500D03*
X97375000Y-75047500D03*
X97375000Y-75682500D03*
X97375000Y-76317500D03*
X97375000Y-76952500D03*
X97375000Y-77587500D03*
X97375000Y-78222500D03*
X102625000Y-78222500D03*
X102625000Y-77587500D03*
X102625000Y-76952500D03*
X102625000Y-76317500D03*
X102625000Y-75682500D03*
X102625000Y-75047500D03*
X102625000Y-74412500D03*
X102625000Y-73777500D03*
%TD*%
D14*
%TO.C,JWF1*%
X150000000Y-76000000D03*
D15*
X153500000Y-76000000D03*
%TD*%
D10*
%TO.C,TP6*%
X50000000Y-92000000D03*
%TD*%
D13*
%TO.C,MH3*%
X25000000Y-115000000D03*
%TD*%
D10*
%TO.C,TP14*%
X86000000Y-90000000D03*
%TD*%
%TO.C,TP12*%
X166000000Y-88000000D03*
%TD*%
D33*
%TO.C,CDEC1*%
X94000000Y-74450000D03*
X94000000Y-72550000D03*
%TD*%
D34*
%TO.C,CFI1*%
X104000000Y-70862500D03*
X104000000Y-69137500D03*
%TD*%
D29*
%TO.C,RW1*%
X134450000Y-70000000D03*
X137550000Y-70000000D03*
%TD*%
D11*
%TO.C,RHB1*%
X47000000Y-108000000D03*
X49000000Y-108000000D03*
%TD*%
D14*
%TO.C,JWP1*%
X30000000Y-34000000D03*
D15*
X33500000Y-34000000D03*
X37000000Y-34000000D03*
X40500000Y-34000000D03*
%TD*%
D16*
%TO.C,UDRV2*%
X121137500Y-31725000D03*
X121137500Y-32375000D03*
X121137500Y-33025000D03*
X121137500Y-33675000D03*
X121137500Y-34325000D03*
X121137500Y-34975000D03*
X121137500Y-35625000D03*
X121137500Y-36275000D03*
X126862500Y-36275000D03*
X126862500Y-35625000D03*
X126862500Y-34975000D03*
X126862500Y-34325000D03*
X126862500Y-33675000D03*
X126862500Y-33025000D03*
X126862500Y-32375000D03*
X126862500Y-31725000D03*
%TD*%
D10*
%TO.C,TP11*%
X154000000Y-66000000D03*
%TD*%
D11*
%TO.C,RSO2*%
X90000000Y-84000000D03*
X92000000Y-84000000D03*
%TD*%
D10*
%TO.C,TP2*%
X76000000Y-36000000D03*
%TD*%
%TO.C,TP16*%
X90000000Y-78000000D03*
%TD*%
D13*
%TO.C,MH2*%
X175000000Y-25000000D03*
%TD*%
%TO.C,MH4*%
X175000000Y-115000000D03*
%TD*%
D10*
%TO.C,TP4*%
X70000000Y-46000000D03*
%TD*%
%TO.C,TP3*%
X62000000Y-32000000D03*
%TD*%
%TO.C,TP10*%
X108000000Y-21500000D03*
%TD*%
D31*
%TO.C,CDRV1*%
X93037500Y-39000000D03*
X90962500Y-39000000D03*
%TD*%
D11*
%TO.C,RHP1*%
X49000000Y-98000000D03*
X51000000Y-98000000D03*
%TD*%
M02*
