M48
; DRILL file KiCad 10.0.5 date 2026-08-16T04:26:44
; FORMAT={-:-/ absolute / metric / decimal}
; #@! TF.CreationDate,2026-08-16T04:26:44-04:00
; #@! TF.GenerationSoftware,Kicad,Pcbnew,10.0.5
; #@! TF.FileFunction,Plated,1,6,PTH
FMAT,2
METRIC
; #@! TA.AperFunction,Plated,PTH,ViaDrill
T1C0.150
%
G90
G05
T1
X4.625Y-15.35
X4.625Y-24.65
X4.975Y-8.455
X5.025Y-30.155
X6.5Y-26.5
X6.555Y-13.965
X6.555Y-26.035
X6.575Y-30.155
X6.625Y-8.455
X7.825Y-13.965
X7.825Y-26.035
X8.5Y-26.0
X8.75Y-8.61
X9.095Y-13.965
X9.095Y-26.035
X10.0Y-8.0
X10.05Y-8.61
X10.225Y-10.045
X10.225Y-30.035
X10.365Y-13.965
X10.365Y-26.035
X10.5Y-26.5
X11.0Y-6.75
X11.55Y-9.55
X11.635Y-13.965
X11.635Y-26.035
X11.775Y-10.045
X11.775Y-30.035
X12.25Y-6.75
X12.515Y-12.54
X12.905Y-12.865
X13.485Y-13.2
X14.175Y-13.965
X14.862Y-8.16
X14.915Y-13.2
X15.225Y-10.165
X15.425Y-30.155
X15.445Y-12.865
X15.445Y-26.035
X15.885Y-13.2
X16.738Y-7.21
X16.738Y-9.11
X16.775Y-10.165
X16.975Y-30.155
X17.0Y-11.0
X17.375Y-15.35
X17.375Y-24.65
X26.175Y-17.955
X27.0Y-10.5
X27.175Y-9.955
X27.225Y-23.955
X27.825Y-17.955
X28.0Y-17.5
X28.775Y-23.955
X28.825Y-9.955
X29.29Y-19.35
X29.29Y-20.0
X29.29Y-20.65
X29.5Y-21.5
X30.175Y-13.165
X30.375Y-6.75
X31.625Y-6.75
X31.825Y-13.165
X32.0Y-20.0
X32.25Y-39.15
X32.5Y-25.0
X32.71Y-19.35
X32.71Y-20.0
X32.71Y-20.65
X33.225Y-23.835
X33.3Y-9.83
X33.5Y-39.15
X34.7Y-9.83
X34.75Y-39.15
X34.775Y-23.835
X36.0Y-39.15
X37.25Y-39.15
X38.5Y-39.15
X39.75Y-39.15
X41.0Y-39.15
X42.25Y-39.15
X43.5Y-39.15
X44.75Y-39.15
X46.0Y-39.15
X46.175Y-17.835
X47.0Y-11.0
X47.175Y-9.835
X47.225Y-23.835
X47.5Y-17.5
X47.825Y-17.835
X48.775Y-23.835
X48.825Y-9.835
X49.29Y-19.35
X49.29Y-20.0
X49.29Y-20.65
X49.5Y-21.5
X50.175Y-13.045
X50.375Y-6.75
X51.625Y-6.75
X51.825Y-13.045
X52.71Y-19.35
X52.71Y-20.0
X52.71Y-20.65
X53.225Y-23.955
X53.3Y-9.71
X54.7Y-9.71
X54.775Y-23.955
X66.175Y-17.955
X67.175Y-9.955
X67.225Y-23.955
X67.825Y-17.955
X68.0Y-20.5
X68.5Y-18.0
X68.775Y-23.955
X68.825Y-9.955
X69.0Y-10.5
X69.0Y-24.5
X69.29Y-19.35
X69.29Y-20.0
X69.29Y-20.65
X70.0Y-12.5
X70.175Y-13.165
X70.375Y-6.75
X71.625Y-6.75
X71.825Y-13.165
X72.71Y-19.35
X72.71Y-20.0
X72.71Y-20.65
X73.225Y-23.835
X73.3Y-9.83
X74.7Y-9.83
X74.775Y-23.835
M30
