M48
; DRILL file KiCad 10.0.5 date 2026-08-09T19:31:40
; FORMAT={-:-/ absolute / metric / decimal}
; #@! TF.CreationDate,2026-08-09T19:31:40-04:00
; #@! TF.GenerationSoftware,Kicad,Pcbnew,10.0.5
; #@! TF.FileFunction,Plated,1,2,PTH
FMAT,2
METRIC
; #@! TA.AperFunction,Plated,PTH,ViaDrill
T1C0.300
; #@! TA.AperFunction,Plated,PTH,ViaDrill
T2C0.400
; #@! TA.AperFunction,Plated,PTH,ViaDrill
T3C0.500
; #@! TA.AperFunction,Plated,PTH,ComponentDrill
T4C1.000
; #@! TA.AperFunction,Plated,PTH,ComponentDrill
T5C1.100
%
G90
G05
T1
X104.0Y-75.047
X104.5Y-76.317
X105.0Y-75.2
X105.5Y-76.953
X105.5Y-80.138
T2
X38.41Y-65.5
X42.0Y-84.0
X44.0Y-46.0
X44.0Y-58.0
X46.03Y-85.0
X48.57Y-86.5
X53.0Y-96.0
X54.0Y-104.0
X56.0Y-79.0
X60.0Y-93.5
X60.0Y-96.0
X78.0Y-48.0
X82.0Y-68.0
X84.0Y-29.5
X84.0Y-88.0
X84.0Y-96.0
X86.0Y-64.0
X86.0Y-84.0
X86.0Y-92.0
X88.0Y-69.46
X92.0Y-72.55
X92.0Y-74.45
X93.0Y-75.683
X94.0Y-76.317
X95.0Y-79.5
X96.0Y-60.0
X100.0Y-70.5
X103.2Y-83.5
X108.0Y-50.0
X116.0Y-29.5
X118.0Y-46.0
T3
X40.95Y-65.5
X70.0Y-102.5
X76.0Y-38.5
X83.5Y-72.0
X87.0Y-38.0
X93.5Y-68.0
X93.5Y-88.0
X106.0Y-68.5
X106.0Y-82.5
X108.0Y-24.0
X119.0Y-38.0
X128.5Y-29.5
X132.0Y-68.0
X132.0Y-84.0
X141.5Y-65.5
X141.5Y-86.5
X147.0Y-68.0
X147.0Y-74.0
X160.0Y-82.0
X160.0Y-84.0
T4
X50.0Y-34.0
X52.54Y-34.0
X55.08Y-34.0
T5
X30.0Y-34.0
X30.0Y-108.0
X33.5Y-34.0
X33.5Y-108.0
X37.0Y-34.0
X40.5Y-34.0
X150.0Y-76.0
X153.5Y-76.0
M30
