DBRep_DrawableShape

CASCADE Topology V1, (c) Matra-Datavision
Locations 0
Curve2ds 296
1 0 0.52000000000000002 1 0 
1 3.1415926535900001 0 0 1 
1 0 0 1 0 
1 4.7123889803849996 0 0 1 
1 4.7123889803849996 0 0 1 
1 0 0 1 0 
7 0 0  1 2 2  6.2831853071800001 0  6.2831853071800001 0.53000000000000003 
 0 2 0.53000000000000003 2
1 0 0.52000000000000002 1 0 
7 0 0  1 2 2  0 0  0 0.53000000000000003 
 0 2 0.53000000000000003 2
1 0 0.52000000000000002 1 0 
1 0 0 1 0 
1 1.570796326795 0 0 1 
1 1.570796326795 0 0 1 
1 0 0.52000000000000002 1 0 
1 0 0 1 0 
1 3.1415926535900001 0 0 1 
1 6.2831853071795862 0 -0 1 
1 0 0 0 1 
1 -1.570796326795 0 1 0 
1 -3.1415926535900001 0 1 0 
1 0 9.5250000000000004 1 0 
1 0 9.5250000000000004 1 0 
1 0 9.5250000000000004 1 0 
1 0 9.5250000000000004 1 0 
1 0 9.5250000000000004 1 0 
1 0 9.5250000000000004 1 0 
7 0 0  1 2 2  0.722734247813 -5.9999999990619997e-07  0.722734247813 1.1000000000000001 
 -5.9999999990619997e-07 2 1.1000000000000001 2
1 0 1 1 0 
1 -4.1389114358025836e-13 1 1 -0 
1 -4.1389114358025836e-13 1 1 -0 
1 0 1 1 0 
1 0 1 1 0 
1 0 1 1 0 
1 1.570796326795 0 0 1 
1 0 9.5250000000000004 1 0 
1 6.2831853071795862 9.5250000000000004 -1 0 
1 -1.570796326795 9.5250000000000004 1 0 
1 -3.1415926535900001 9.5250000000000004 1 0 
1 6.2831853071795862 4.7123889803849996 -1 0 
1 1.570796326795 0 0 1 
1 1.570796326795 0 0 1 
1 1.570796326795 0 0 1 
1 1.570796326795 0 0 1 
1 1.570796326795 0 0 1 
1 0 15.875 1 0 
1 0 15.875 1 0 
1 1.570796326795 0 0 1 
1 0 15.875 1 0 
1 0 15.875 1 0 
1 1.570796326795 0 0 1 
1 1.570796326795 0 0 1 
1 -1.570796326795 9.5250000000000004 1 0 
1 -3.1415926535900001 9.5250000000000004 1 0 
1 1.570796326795 0 0 1 
1 1.570796326795 0 0 1 
1 0 15.875 1 0 
1 0 15.875 1 0 
1 1.570796326795 0 0 1 
1 0 15.875 1 0 
1 0 15.875 1 0 
1 1.570796326795 0 0 1 
1 1.570796326795 0 0 1 
1 1.570796326795 0 0 1 
1 1.570796326795 0 0 1 
1 1.570796326795 0 0 1 
1 6.2831853071795862 4.7123889803849996 -1 0 
1 -1.570796326795 9.5250000000000004 1 0 
1 -3.1415926535900001 9.5250000000000004 1 0 
1 0 0 1 0 
1 0 0 1 0 
1 6.2831853071795862 0 -1 0 
1 0 0 1 0 
1 6.2831853071795862 0 -1 0 
1 0 0 1 0 
1 4.7123889803845866 0 -0 1 
1 -4.1389114358025836e-13 1 1 -0 
1 0 1 1 0 
1 0 1 1 0 
1 -4.1389114358025836e-13 1 1 -0 
1 -4.1389114358025836e-13 1 1 -0 
1 0 1 1 0 
1 0 0.52000000000000002 1 0 
1 0 0.52000000000000002 1 0 
1 0 0.52000000000000002 1 0 
1 0 0.52000000000000002 1 0 
7 0 0  1 2 2  0.84806207898099994 -5.9999999990619997e-07  0.84806207898099994 1.1000000000000001 
 -5.9999999990619997e-07 2 1.1000000000000001 2
1 0 0 0 1 
1 1.570796326795 0 0 1 
1 1.570796326795 0 0 1 
1 0 0 0 1 
1 6.2831853071800001 -0 0 1 
1 0 -0 0 1 
1 6.2831853071800001 -0 0 1 
1 0 -0 0 1 
1 6.2831853071795862 0 0 1 
1 4.1389114358025836e-13 0 0 1 
1 0 2.8999999999999999 1 0 
1 6.2831853071795862 -4.1012193308819755 -1 0 
1 6.2831853071800001 -0 0 1 
1 0 -0 0 1 
1 6.2831853071795862 0 0 1 
1 4.1389114358025836e-13 0 0 1 
1 0 2.8999999999999999 1 0 
1 6.2831853071795862 -4.1012193308819755 -1 0 
1 6.2831853071800001 -0 0 1 
1 0 -0 0 1 
1 0 0 0 1 
1 4.7123889803845866 0 -0 1 
1 1.570796326795 0 0 1 
1 6.2831853071795862 9.5250000000000004 -1 0 
1 6.2831853071795862 0 -0 1 
1 0 0 0 1 
1 4.7123889803845866 0 -0 1 
1 1.570796326795 0 0 1 
1 10.995574287564587 9.5250000000000004 -1 0 
1 6.2831853071795862 0 -0 1 
1 1.570796326795 0 0 1 
1 0 0 0 1 
1 1.570796326795 0 0 1 
1 0 0 0 1 
1 4.7123889803845866 0 -0 1 
1 6.2831853071795862 4.7123889803849996 -1 0 
7 0 0  1 2 2  0 0  1.570796326795 0 
 3.1415926535900001 2 4.7123889803849996 2
7 0 0  1 2 2  4.7123889803845866 3.1415926535900001  4.7123889803845866 4.7123889803849996 
 3.1415926535900001 2 4.7123889803849996 2
1 6.2831853071795862 3.1415926535900001 -1 0 
1 6.2831853071795862 2 -1 0 
7 0 0  1 2 2  0 18  1.570796326795 18 
 0 2 1.570796326795 2
7 0 0  1 2 2  6.2831853071795862 3.1415926535900001  6.2831853071795862 4.7123889803849996 
 0 2 1.570796326795 2
7 0 0  1 2 2  0 1  1.570796326795 1 
 0 2 1.570796326795 2
7 0 0  1 2 2  6.2831853071795862 0  6.2831853071795862 1.570796326795 
 0 2 1.570796326795 2
1 0 0 0 1 
7 0 0  1 2 2  0 0  1.570796326795 0 
 0 2 1.570796326795 2
7 0 0  1 2 2  4.7123889803845866 0  4.7123889803845866 1.570796326795 
 0 2 1.570796326795 2
7 0 0  1 2 2  0 16  1.570796326795 16 
 0 2 1.570796326795 2
7 0 0  1 2 2  6.2831853071795862 0  6.2831853071795862 1.570796326795 
 0 2 1.570796326795 2
1 0 0 0 1 
7 0 0  1 2 2  0 0  1.570796326795 0 
 0 2 1.570796326795 2
7 0 0  1 2 2  4.7123889803845866 0  4.7123889803845866 1.570796326795 
 0 2 1.570796326795 2
7 0 0  1 2 2  0 38  1.570796326795 38 
 0 2 1.570796326795 2
7 0 0  1 2 2  6.2831853071795862 0  6.2831853071795862 1.570796326795 
 0 2 1.570796326795 2
1 0 0 0 1 
7 0 0  1 2 2  0 0  1.570796326795 0 
 0 2 1.570796326795 2
7 0 0  1 2 2  4.7123889803845866 0  4.7123889803845866 1.570796326795 
 0 2 1.570796326795 2
7 0 0  1 2 2  0 38  1.570796326795 38 
 0 2 1.570796326795 2
7 0 0  1 2 2  6.2831853071795862 0  6.2831853071795862 1.570796326795 
 0 2 1.570796326795 2
1 0 0 0 1 
1 0 0 0 1 
7 0 0  1 2 2  0 0  1.570796326795 0 
 0 2 1.570796326795 2
7 0 0  1 2 2  4.7123889803845866 0  4.7123889803845866 1.570796326795 
 0 2 1.570796326795 2
7 0 0  6 22 5  1.570796326795 11.661324772584001  1.5127570560800001 11.521582630235001  1.461637554822 11.374664103245999  1.4170680487280001 11.222156531503  1.378960336472 11.065286907448  1.3473412471249999 10.904972420411999  1.303700700347 10.620838599687  1.2887225793170001 10.498180782207999  1.2774315909589999 10.374397179145999  1.2698808495230001 10.249873228223001  1.266103672779 10.124964778452  1.266103672779 9.8752909808970006  1.2698654083959999 9.7506377904590007  1.2773853049920001 9.6263667850129995  1.2886303155679999 9.5028317386029997  1.3035477066329999 9.3804157327589994  1.3471007140139999 9.0962485454379998  1.378728393864 8.9356677119449994  1.4168651356940001 8.7785372068720005  1.4614829979899999 8.6257801963059997  1.5126692418600001 8.4786288015609994  1.570796326795 8.3386752274159992 
 0 7 0.28687114079800002 5 0.50000264214199996 5 0.71269793758300004 5 1 7
7 0 0  6 22 5  0.87763641921799995 15.875  0.94750749039299997 15.875  1.0161002786419999 15.8669161941  1.0835700702610001 15.854358070521  1.1501238431030001 15.839978139329  1.2159874305730001 15.825884165302  1.330010952366 15.804417913577  1.378389704078 15.796245146434  1.426597670589 15.789675642245999  1.474691182693 15.785144467326001  1.522732950467 15.782878402833999  1.618761334142 15.782878402833999  1.6667049245729999 15.785135204381  1.714699927471 15.789647866558999  1.762808630196 15.796191459260999  1.811086994594 15.804334414871001  1.925103673962 15.825776865785  1.9910638167520001 15.839890558443001  2.0577155911760001 15.854301021643  2.1252849582770001 15.866891733118001  2.1939794472990002 15.875  2.2639562343719999 15.875 
 0 7 0.28687114079800002 5 0.50000264214199996 5 0.71269793758300004 5 1 7
7 0 0  6 22 5  1.570796326795 27.661324772583999  1.5127570560800001 27.521582630234999  1.461637554822 27.374664103247  1.4170680487280001 27.222156531502002  1.378960336472 27.065286907449  1.3473412471249999 26.904972420412001  1.303700700347 26.620838599687001  1.2887225793170001 26.498180782207999  1.2774315909589999 26.374397179146001  1.2698808495230001 26.249873228222999  1.266103672779 26.124964778452  1.266103672779 25.875290980896999  1.2698654083959999 25.750637790458999  1.2773853049920001 25.626366785013001  1.2886303155679999 25.502831738603  1.3035477066329999 25.380415732759001  1.3471007140139999 25.096248545438002  1.378728393864 24.935667711945001  1.4168651356940001 24.778537206871999  1.4614829979899999 24.625780196306  1.5126692418600001 24.478628801561001  1.570796326795 24.338675227416001 
 0 7 0.28687114079800002 5 0.50000264214099999 5 0.71269793758300004 5 1 7
7 0 0  6 22 5  0.87763641921799995 15.875  0.94750749039299997 15.875  1.0161002786419999 15.8669161941  1.0835700702610001 15.85435807052  1.150123843102 15.839978139329  1.2159874305730001 15.825884165302  1.330010952366 15.804417913577  1.378389704078 15.796245146434  1.426597670589 15.789675642245999  1.474691182693 15.785144467326001  1.522732950467 15.782878402833999  1.618761334142 15.782878402833999  1.6667049245729999 15.785135204381  1.714699927471 15.789647866558999  1.762808630196 15.796191459260999  1.811086994594 15.804334414871001  1.925103673962 15.825776865785  1.9910638167520001 15.839890558443001  2.0577155911760001 15.854301021643  2.1252849582770001 15.866891733118001  2.1939794472990002 15.875  2.2639562343719999 15.875 
 0 7 0.28687114079800002 5 0.50000264214099999 5 0.71269793758300004 5 1 7
7 0 0  1 2 2  0 33  1.570796326795 33 
 0 2 1.570796326795 2
7 0 0  1 2 2  6.2831853071795862 0  6.2831853071795862 1.570796326795 
 0 2 1.570796326795 2
1 6.2831853071795862 0 0 1 
1 4.1389114358025836e-13 0 0 1 
1 0 0 1 0 
1 6.2831853071795862 0 0 1 
1 4.1389114358025836e-13 0 0 1 
1 0 0 1 0 
7 0 0  1 2 2  0 0  1.570796326795 0 
 0 2 1.570796326795 2
7 0 0  1 2 2  4.7123889803845866 0  4.7123889803845866 1.570796326795 
 0 2 1.570796326795 2
1 1.570796326795 0 0 1 
1 0 0 0 1 
1 6.2831853071795862 0 -0 1 
7 0 0  1 2 2  0 0  1.570796326795 0 
 3.1415926535900001 2 4.7123889803849996 2
7 0 0  1 2 2  4.7123889803845866 3.1415926535900001  4.7123889803845866 4.7123889803849996 
 3.1415926535900001 2 4.7123889803849996 2
1 1.570796326795 0 0 1 
7 0 0  1 2 2  0 18  1.570796326795 18 
 0 2 1.570796326795 2
7 0 0  1 2 2  6.2831853071795862 0  6.2831853071795862 1.570796326795 
 0 2 1.570796326795 2
1 0 0 0 1 
1 0 0 0 1 
7 0 0  1 2 2  0 0  1.570796326795 0 
 0 2 1.570796326795 2
7 0 0  1 2 2  4.7123889803845866 0  4.7123889803845866 1.570796326795 
 0 2 1.570796326795 2
7 0 0  6 22 5  1.570796326795 8.6613247725840008  1.5127570560800001 8.5215826302350006  1.461637554822 8.3746641032459994  1.4170680487280001 8.2221565315019998  1.378960336472 8.0652869074489999  1.3473412471249999 7.9049724204120002  1.303700700347 7.6208385996869996  1.2887225793170001 7.4981807822080002  1.2774315909589999 7.3743971791460003  1.2698808495230001 7.2498732282229996  1.266103672779 7.124964778452  1.266103672779 6.8752909808969997  1.2698654083959999 6.7506377904589998  1.2773853049920001 6.6263667850130004  1.2886303155679999 6.5028317386029997  1.3035477066329999 6.3804157327590003  1.3471007140139999 6.0962485454379998  1.378728393864 5.9356677119450003  1.4168651356940001 5.7785372068719996  1.4614829979899999 5.6257801963059997  1.5126692418600001 5.4786288015610003  1.570796326795 5.3386752274160001 
 0 7 0.28687114079800002 5 0.50000264214099999 5 0.71269793758199995 5 1 7
7 0 0  6 22 5  4.0192290728079998 15.875  4.0891001439819998 15.875  4.157692932232 15.8669161941  4.2251627238509997 15.85435807052  4.2917164966919996 15.839978139329  4.3575800841629997 15.825884165302  4.471603605956 15.804417913577  4.5199823576679998 15.796245146434  4.5681903241789996 15.789675642245999  4.6162838362820002 15.785144467326001  4.6643256040569998 15.782878402833999  4.7603539877319996 15.782878402833999  4.8082975781629997 15.785135204381  4.8562925810599999 15.789647866558999  4.904401283786 15.796191459260999  4.9526796481839996 15.804334414871001  5.0666963275520001 15.825776865785  5.1326564703419999 15.839890558443001  5.1993082447659997 15.854301021643  5.2668776118659997 15.866891733118001  5.3355721008890002 15.875  5.4055488879610003 15.875 
 0 7 0.28687114079800002 5 0.50000264214099999 5 0.71269793758199995 5 1 7
7 0 0  6 22 5  1.570796326795 24.661324772583999  1.5127570560800001 24.521582630234999  1.461637554822 24.374664103246001  1.4170680487280001 24.222156531502002  1.378960336472 24.065286907449  1.3473412471249999 23.904972420412001  1.303700700347 23.620838599687001  1.2887225793170001 23.498180782207999  1.2774315909589999 23.374397179146001  1.2698808495230001 23.249873228222999  1.266103672779 23.124964778452  1.266103672779 22.875290980896999  1.2698654083959999 22.750637790458999  1.2773853049920001 22.626366785013001  1.2886303155679999 22.502831738603  1.3035477066329999 22.380415732759001  1.3471007140139999 22.096248545438002  1.378728393864 21.935667711945001  1.4168651356940001 21.778537206871999  1.4614829979899999 21.625780196306  1.5126692418600001 21.478628801561001  1.570796326795 21.338675227416001 
 0 7 0.28687114079800002 5 0.50000264214199996 5 0.71269793758300004 5 1 7
7 0 0  6 22 5  4.0192290728079998 15.875  4.0891001439819998 15.875  4.157692932232 15.8669161941  4.2251627238509997 15.85435807052  4.2917164966919996 15.839978139329  4.3575800841629997 15.825884165302  4.471603605956 15.804417913577  4.5199823576679998 15.796245146434  4.5681903241789996 15.789675642245999  4.6162838362820002 15.785144467326001  4.6643256040569998 15.782878402833999  4.7603539877319996 15.782878402833999  4.8082975781629997 15.785135204381  4.8562925810599999 15.789647866558999  4.904401283786 15.796191459260999  4.9526796481839996 15.804334414871001  5.0666963275520001 15.825776865785  5.1326564703419999 15.839890558443001  5.1993082447659997 15.854301021643  5.2668776118659997 15.866891733118001  5.3355721008890002 15.875  5.4055488879610003 15.875 
 0 7 0.28687114079800002 5 0.50000264214199996 5 0.71269793758300004 5 1 7
7 0 0  1 2 2  0 33  1.570796326795 33 
 0 2 1.570796326795 2
7 0 0  1 2 2  6.2831853071795862 0  6.2831853071795862 1.570796326795 
 0 2 1.570796326795 2
1 6.2831853071795862 0 0 1 
1 4.1389114358025836e-13 0 0 1 
1 0 0 1 0 
1 6.2831853071795862 0 0 1 
1 4.1389114358025836e-13 0 0 1 
1 0 0 1 0 
7 0 0  1 2 2  0 0  1.570796326795 0 
 0 2 1.570796326795 2
7 0 0  1 2 2  4.7123889803845866 0  4.7123889803845866 1.570796326795 
 0 2 1.570796326795 2
7 0 0  1 2 2  0 38  1.570796326795 38 
 0 2 1.570796326795 2
7 0 0  1 2 2  6.2831853071795862 0  6.2831853071795862 1.570796326795 
 0 2 1.570796326795 2
1 0 0 0 1 
7 0 0  1 2 2  0 0  1.570796326795 0 
 0 2 1.570796326795 2
7 0 0  1 2 2  4.7123889803845866 0  4.7123889803845866 1.570796326795 
 0 2 1.570796326795 2
7 0 0  1 2 2  0 38  1.570796326795 38 
 0 2 1.570796326795 2
7 0 0  1 2 2  6.2831853071795862 0  6.2831853071795862 1.570796326795 
 0 2 1.570796326795 2
1 0 0 0 1 
7 0 0  1 2 2  0 0  1.570796326795 0 
 0 2 1.570796326795 2
7 0 0  1 2 2  4.7123889803845866 0  4.7123889803845866 1.570796326795 
 0 2 1.570796326795 2
7 0 0  1 2 2  0 16  1.570796326795 16 
 0 2 1.570796326795 2
7 0 0  1 2 2  6.2831853071795862 0  6.2831853071795862 1.570796326795 
 0 2 1.570796326795 2
1 0 0 0 1 
7 0 0  1 2 2  0 0  1.570796326795 0 
 0 2 1.570796326795 2
7 0 0  1 2 2  4.7123889803845866 0  4.7123889803845866 1.570796326795 
 0 2 1.570796326795 2
7 0 0  1 2 2  0 1  1.570796326795 1 
 0 2 1.570796326795 2
7 0 0  1 2 2  6.2831853071795862 3.1415926535900001  6.2831853071795862 4.7123889803849996 
 0 2 1.570796326795 2
1 0 0 0 1 
1 6.2831853071795862 4.7123889803849996 -1 0 
1 6.2831853071795862 3.1415926535900001 -1 0 
1 6.2831853071795862 2 -1 0 
1 -4.1389114358025836e-13 0 -0 -1 
1 6.2831853071795862 0 -0 -1 
1 -4.1389114358025836e-13 0 -0 -1 
1 6.2831853071795862 0 -0 -1 
1 10.995574287564587 9.5250000000000004 -1 0 
1 4.7123889803845866 0 -0 1 
1 6.2831853071795862 0 -0 1 
1 6.2831853071795862 9.5250000000000004 -1 0 
1 3.1415926535900001 0 0 1 
1 0 0 1 0 
1 4.7123889803849996 0 0 1 
1 4.7123889803849996 0 0 1 
1 0 0 1 0 
7 0 0  1 2 2  6.2831853071800001 0  6.2831853071800001 0.53000000000000003 
 0 2 0.53000000000000003 2
7 0 0  1 2 2  0 0  0 0.53000000000000003 
 0 2 0.53000000000000003 2
1 0 0 1 0 
1 1.570796326795 0 0 1 
1 1.570796326795 0 0 1 
1 0 0 1 0 
1 3.1415926535900001 0 0 1 
1 6.2831853071795862 15.875 -1 0 
1 4.7123889803845866 0 -0 1 
1 6.2831853071795862 0 -0 1 
1 0 0 0 1 
1 6.2831853071795862 1.5707963267948966 -1 0 
1 0 2 1 0 
1 6.2831853071795862 0 -1 0 
1 1.570796326795 0 0 1 
1 0 0 0 1 
1 6.2831853071795862 1.5707963267948966 -1 0 
1 0 2 1 0 
1 6.2831853071795862 0 -1 0 
1 1.570796326795 0 0 1 
1 0 0 0 1 
1 6.2831853071795862 1.5707963267948966 -1 0 
1 0 2 1 0 
1 6.2831853071795862 0 -1 0 
1 1.570796326795 0 0 1 
1 0 0 0 1 
1 6.2831853071795862 1.5707963267948966 -1 0 
1 0 2 1 0 
1 6.2831853071795862 0 -1 0 
1 1.570796326795 0 0 1 
1 4.7123889803845866 0 -0 1 
1 6.2831853071795862 1.5707963267948966 -1 0 
1 6.2831853071795862 0 -1 0 
1 4.7123889803845866 2 1 -0 
1 -1.570796326795 15.875 1 0 
1 -3.1415926535900001 15.875 1 0 
1 -4.7123889803849996 15.875 1 0 
1 0 15.875 1 0 
1 9.4247779607695854 15.875 -1 0 
1 6.2831853071795862 0 -0 1 
1 4.7123889803845866 0 -0 1 
1 0 0 0 1 
1 6.2831853071795862 1.5707963267948966 -1 0 
1 0 2 1 0 
1 6.2831853071795862 0 -1 0 
1 1.570796326795 0 0 1 
1 4.7123889803845866 0 -0 1 
1 6.2831853071795862 1.5707963267948966 -1 0 
1 6.2831853071795862 0 -1 0 
1 4.7123889803845866 2 1 -0 
1 0 15.875 1 0 
1 -1.570796326795 15.875 1 0 
1 -3.1415926535900001 15.875 1 0 
1 10.995574287564587 15.875 -1 0 
1 -3.1415926535900001 15.875 1 0 
1 6.2831853071795862 15.875 -1 0 
1 6.2831853071795862 0 -0 1 
1 0 0 0 1 
1 6.2831853071795862 1.5707963267948966 -1 0 
1 0 2 1 0 
1 6.2831853071795862 0 -1 0 
1 1.570796326795 0 0 1 
1 0 0 0 1 
1 6.2831853071795862 1.5707963267948966 -1 0 
1 0 2 1 0 
1 6.2831853071795862 0 -1 0 
1 1.570796326795 0 0 1 
1 0 0 0 1 
1 6.2831853071795862 1.5707963267948966 -1 0 
1 0 2 1 0 
1 6.2831853071795862 0 -1 0 
1 1.570796326795 0 0 1 
1 6.2831853071795862 0 -0 1 
Curves 360
2 39.799999999999997 8.5250000000000004 -17.199999999999999 0 1 0 0 -0 1 1 0 -0 2
1 39.799999999999997 8.0050000000000008 -19.199999999999999 -0 1 0 
2 39.799999999999997 8.0050000000000008 -17.199999999999999 0 1 0 0 -0 1 1 0 -0 2
1 37.799999999999997 8.0050000000000008 -17.199999999999999 -0 1 0 
1 37.799999999999997 8.0050000000000008 19.199999999999999 -0 1 0 
1 37.799999999999997 8.0050000000000008 -17.199999999999999 0 0 1 
1 37.799999999999997 8.5250000000000004 -18.600000000000001 -0 0 -1 
2 39.799999999999997 8.0050000000000008 19.199999999999999 0 1 0 0 -0 1 1 0 -0 2
1 39.799999999999997 8.0050000000000008 21.199999999999999 -0 1 0 
2 39.799999999999997 8.5250000000000004 19.199999999999999 0 1 0 0 -0 1 1 0 -0 2
1 39.799999999999997 8.0050000000000008 21.199999999999999 1 0 -0 
1 48.200000000000003 8.0050000000000008 21.199999999999999 -0 1 0 
1 31.649999999999999 8.5250000000000004 21.199999999999999 1 0 -0 
2 48.200000000000003 8.5250000000000004 19.199999999999999 0 1 0 0 -0 1 1 0 -0 2
2 48.200000000000003 8.0050000000000008 19.199999999999999 0 1 0 0 -0 1 1 0 -0 2
1 50.200000000000003 8.0050000000000008 19.199999999999999 -0 1 0 
1 50.200000000000003 8.0050000000000008 -17.199999999999999 0 0 1 
1 50.200000000000003 8.0050000000000008 -17.199999999999999 -0 1 0 
1 50.200000000000003 8.5250000000000004 -18.600000000000001 -0 0 -1 
2 48.200000000000003 8.5250000000000004 -17.199999999999999 0 1 0 0 -0 1 1 0 -0 2
2 48.200000000000003 8.0050000000000008 -17.199999999999999 0 1 0 0 -0 1 1 0 -0 2
1 48.200000000000003 8.0050000000000008 -19.199999999999999 -0 1 0 
1 39.799999999999997 8.0050000000000008 -19.199999999999999 1 0 -0 
1 31.649999999999999 8.5250000000000004 -19.199999999999999 1 0 -0 
1 39.799999999999997 8.0050000000000008 -19.199999999999999 0 0 1 
1 37.799999999999997 8.0050000000000008 -17.199999999999999 1 0 -0 
2 39.799999999999997 8.0050000000000008 -17.199999999999999 0 1 0 0 -0 1 1 0 -0 2
2 39.799999999999997 8.0050000000000008 19.199999999999999 0 1 0 0 -0 1 1 0 -0 2
1 39.799999999999997 8.0050000000000008 -19.199999999999999 0 0 1 
1 37.799999999999997 8.0050000000000008 19.199999999999999 1 0 -0 
1 39.799999999999997 8.0050000000000008 -19.199999999999999 0 0 1 
2 48.200000000000003 8.0050000000000008 19.199999999999999 0 1 0 0 -0 1 1 0 -0 2
1 37.799999999999997 8.0050000000000008 19.199999999999999 1 0 -0 
2 39.799999999999997 8.0050000000000008 19.199999999999999 0 1 0 0 -0 1 1 0 -0 2
1 48.200000000000003 8.0050000000000008 -19.199999999999999 0 0 1 
1 37.799999999999997 8.0050000000000008 19.199999999999999 1 0 -0 
2 48.200000000000003 8.0050000000000008 19.199999999999999 0 1 0 0 -0 1 1 0 -0 2
2 48.200000000000003 8.0050000000000008 -17.199999999999999 0 1 0 0 -0 1 1 0 -0 2
1 48.200000000000003 8.0050000000000008 -19.199999999999999 0 0 1 
1 37.799999999999997 8.0050000000000008 -17.199999999999999 1 0 -0 
1 48.200000000000003 8.0050000000000008 -19.199999999999999 0 0 1 
2 48.200000000000003 8.0050000000000008 -17.199999999999999 0 1 0 0 -0 1 1 0 -0 2
2 39.799999999999997 8.0050000000000008 -17.199999999999999 0 1 0 0 -0 1 1 0 -0 2
1 37.799999999999997 8.0050000000000008 -17.199999999999999 1 0 -0 
1 37.799999999999997 8.0050000000000008 -17.199999999999999 1 0 -0 
1 39.799999999999997 8.0050000000000008 -19.199999999999999 0 0 1 
1 39.799999999999997 8.0050000000000008 -19.199999999999999 0 0 1 
1 37.799999999999997 8.0050000000000008 19.199999999999999 1 0 -0 
1 37.799999999999997 8.0050000000000008 19.199999999999999 1 0 -0 
1 48.200000000000003 8.0050000000000008 -19.199999999999999 0 0 1 
1 48.200000000000003 8.0050000000000008 -19.199999999999999 0 0 1 
1 37.799999999999997 8.0050000000000008 -17.199999999999999 1 0 -0 
1 -54 9.5250000000000004 -20 1 0 0 
1 -23.5 8.5250000000000004 -20 -0 1 0 
1 -54 8.5250000000000004 -20 1 0 -0 
1 -52 9.5250000000000004 -20 0 -1 0 
1 -54 0 -20 1 0 0 
1 52 9.5250000000000004 -20 0 -1 0 
1 23.5 8.5250000000000004 -20 1 0 -0 
1 23.5 8.5250000000000004 -20 -0 1 0 
1 -23.5 9.5250000000000004 -20 0 0 1 
1 23.5 9.5250000000000004 -20 0 0 1 
2 22 9.5250000000000004 18 0 -1 0 0 -0 -1 1 0 0 2
1 24 9.5250000000000004 20 -1 0 0 
2 -22 9.5250000000000004 18 0 -1 0 0 -0 -1 1 0 0 2
2 -16 9.5250000000000004 8 0 1 0 0 -0 1 1 0 -0 1.3500000000000001
2 -16 9.5250000000000004 -8 0 1 0 0 -0 1 1 0 -0 1.3500000000000001
2 0 9.5250000000000004 10 0 1 0 0 -0 1 1 0 -0 2.75
2 16 9.5250000000000004 8 0 1 0 0 -0 1 1 0 -0 1.3500000000000001
2 0 9.5250000000000004 -10 0 1 0 0 -0 1 1 0 -0 2.75
2 16 9.5250000000000004 -8 0 1 0 0 -0 1 1 0 -0 1.3500000000000001
1 23.5 8.5250000000000004 -20 0 0 1 
1 23.5 9.5250000000000004 19.322875655531998 0 -1 0 
2 22 8.5250000000000004 18 0 -1 0 1 0 0 -0 0 1 2
1 24 8.5250000000000004 -15 0 0 -1 
2 26 8.5250000000000004 -8 0 -1 0 -0 -0 -1 1 0 -0 2
1 28.75 8.5250000000000004 -10 1 0 -0 
2 32 8.5250000000000004 -8 0 -1 0 1 0 0 -0 0 1 2
1 34 8.5250000000000004 1 0 -0 1 
2 36 8.5250000000000004 20 0 -1 0 -0 0 1 -1 -0 0 2
1 23.5 8.5250000000000004 22 1 0 -0 
2 52 8.5250000000000004 20 0 -1 0 1 0 0 -0 0 1 2
1 54 8.5250000000000004 -20 0 0 1 
2 52 8.5250000000000004 -18 0 -1 0 0 -0 -1 1 0 0 2
1 54 9.5250000000000004 -18 0 -1 0 
2 52 0 -18 0 -1 0 0 -0 -1 1 0 0 2
2 -52 0 -18 -0 1 0 0 0 -1 -1 0 -0 2
1 54 0 -20 0 0 1 
2 52 0 20 0 -1 0 0 -0 -1 1 0 0 2
1 54 0 22 -1 0 0 
2 36 0 20 0 -1 0 0 -0 -1 1 0 0 2
1 34 0 22 0 0 -1 
2 32 0 19 -0 1 0 1 0 0 0 0 -1 4
1 36 4.4408920985009999e-16 20 0 0 -1 
1 52 4.4408920985009999e-16 20 -1 0 0 
1 52 4.4408920985009999e-16 -18 0 0 1 
1 14 4.4408920985009999e-16 -18 1 0 0 
1 14 4.4408920985009999e-16 15 0 0 -1 
2 16 0 -8 0 1 0 0 -0 1 1 0 -0 2.6000000000000001
2 16 0 -8 0 1 0 0 -0 1 1 0 -0 2.6000000000000001
1 14 4.4408920985009999e-16 15 0 0 -1 
2 16 0 8 0 1 0 0 -0 1 1 0 -0 2.6000000000000001
2 16 0 8 0 1 0 0 -0 1 1 0 -0 2.6000000000000001
1 14 4.4408920985009999e-16 15 0 0 -1 
1 32 4.4408920985009999e-16 15 -1 0 0 
1 24 0 -10 0 0 1 
2 22 0 18 0 -1 0 0 -0 -1 1 0 0 2
1 24 0 20 -1 0 0 
2 -22 0 18 0 -1 0 0 -0 -1 1 0 0 2
1 -24 0 20 0 0 -1 
1 -14 4.4408920985009999e-16 15 -1 0 0 
1 -14 4.4408920985009999e-16 -18 0 0 1 
2 -16 0 8 0 1 0 0 -0 1 1 0 -0 2.6000000000000001
2 -16 0 8 0 1 0 0 -0 1 1 0 -0 2.6000000000000001
1 -14 4.4408920985009999e-16 -18 0 0 1 
2 -16 0 -8 0 1 0 0 -0 1 1 0 -0 2.6000000000000001
2 -16 0 -8 0 1 0 0 -0 1 1 0 -0 2.6000000000000001
1 -14 4.4408920985009999e-16 -18 0 0 1 
1 -52 4.4408920985009999e-16 -18 1 0 0 
1 -52 4.4408920985009999e-16 20 0 0 -1 
1 -36 4.4408920985009999e-16 20 -1 0 0 
1 -36 4.4408920985009999e-16 19 0 0 1 
2 -32 0 19 0 1 0 0 0 -1 -1 0 0 4
1 -34 0 -10 0 0 1 
2 -36 0 20 0 -1 0 0 -0 -1 1 0 0 2
1 -34 0 22 -1 0 0 
2 -52 0 20 0 -1 0 0 -0 -1 1 0 0 2
1 -54 0 22 0 0 -1 
2 -16 0 8 0 1 0 0 -0 1 1 0 -0 1.3500000000000001
2 -16 0 -8 0 1 0 0 -0 1 1 0 -0 1.3500000000000001
2 0 0 10 0 1 0 0 -0 1 1 0 -0 5.6500000000000004
2 16 0 8 0 1 0 0 -0 1 1 0 -0 1.3500000000000001
2 0 0 -10 0 1 0 0 -0 1 1 0 -0 5.6500000000000004
2 16 0 -8 0 1 0 0 -0 1 1 0 -0 1.3500000000000001
1 -54 9.5250000000000004 -18 0 -1 0 
2 -52 8.5250000000000004 -18 0 -1 0 0 -0 -1 1 0 0 2
1 -54 8.5250000000000004 -20 0 0 1 
2 -52 8.5250000000000004 20 0 -1 0 -0 0 1 -1 -0 0 2
1 -54 8.5250000000000004 22 1 0 -0 
2 -36 8.5250000000000004 20 0 -1 0 1 0 0 -0 0 1 2
1 -34 8.5250000000000004 -15 0 0 -1 
2 -32 8.5250000000000004 -8 0 -1 0 -0 -0 -1 1 0 -0 2
1 -39 8.5250000000000004 -10 1 0 -0 
2 -26 8.5250000000000004 -8 0 -1 0 1 0 0 -0 0 1 2
1 -24 8.5250000000000004 0 0 -0 1 
2 -22 8.5250000000000004 18 0 -1 0 -0 0 1 -1 -0 0 2
1 -23.5 8.5250000000000004 -20 0 0 1 
2 -48.200000000000003 8.5250000000000004 -17.199999999999999 0 1 0 0 -0 1 1 0 -0 2
1 -51.100000000000001 8.5250000000000004 -19.199999999999999 1 0 -0 
2 -39.799999999999997 8.5250000000000004 -17.199999999999999 0 1 0 0 -0 1 1 0 -0 2
1 -37.799999999999997 8.5250000000000004 -18.600000000000001 -0 0 -1 
2 -39.799999999999997 8.5250000000000004 19.199999999999999 0 1 0 0 -0 1 1 0 -0 2
1 -51.100000000000001 8.5250000000000004 21.199999999999999 1 0 -0 
2 -48.200000000000003 8.5250000000000004 19.199999999999999 0 1 0 0 -0 1 1 0 -0 2
1 -50.200000000000003 8.5250000000000004 -18.600000000000001 -0 0 -1 
1 -23.5 9.5250000000000004 19.322875655531998 0 -1 0 
1 -22 9.5250000000000004 20 0 -1 0 
1 -24 9.5250000000000004 18 0 -1 0 
1 22 9.5250000000000004 20 0 -1 0 
1 24 9.5250000000000004 18 0 -1 0 
1 -16 0 9.3499999999999996 0 1 0 
1 -16 0 -6.6500000000000004 0 1 0 
1 -6.7355573953100003e-16 0 12.75 0 1 0 
2 0 2.8999999999999999 10 0 1 0 0 -0 1 1 0 -0 2.75
1 16 0 9.3499999999999996 0 1 0 
1 -6.7355573953100003e-16 0 -7.25 0 1 0 
2 0 2.8999999999999999 -10 0 1 0 0 -0 1 1 0 -0 2.75
1 16 0 -6.6500000000000004 0 1 0 
1 54 9.5250000000000004 20 0 -1 0 
1 24 9.5250000000000004 -8 0 -1 0 
1 24 0 -10 0 0 1 
1 52 9.5250000000000004 22 0 -1 0 
2 26 0 -8 -0 1 0 0 0 -1 -1 0 -0 2
1 26 9.5250000000000004 -10 0 -1 0 
1 36 9.5250000000000004 22 0 -1 0 
1 32 9.5250000000000004 -10 0 -1 0 
1 34 0 -10 -1 0 0 
1 34 9.5250000000000004 20 0 -1 0 
2 32 0 -8 -0 1 0 0 0 -1 -1 0 -0 2
1 34 9.5250000000000004 -8 0 -1 0 
1 34 0 22 0 0 -1 
1 -54 9.5250000000000004 20 0 -1 0 
1 -52 9.5250000000000004 22 0 -1 0 
1 -36 9.5250000000000004 22 0 -1 0 
1 -34 9.5250000000000004 20 0 -1 0 
1 -34 9.5250000000000004 -8 0 -1 0 
1 -34 0 -10 0 0 1 
2 -32 0 19 0 1 0 0 0 -1 -1 0 0 4
2 -36 -2 19 -6.1232339957370002e-17 -0 1 -1 0 -6.1232339957370002e-17 0 -1 -0 2
2 -32 -2 19 0 1 0 0 0 -1 -1 0 0 2
2 -32 -2 15 -1 0 0 0 0 1 0 1 -0 2
2 -36 -2 20 0 0 1 1 0 -0 -0 1 0 2
1 -34 -2 19 0 0 1 
2 -36 -2 20 -1 -0 6.1232339957370002e-17 6.1232339957370002e-17 0 1 -0 1 0 2
2 -52 -2 20 -1 0 0 0 0 1 0 1 -0 2
1 -36 -2 22 -1 0 0 
2 -52 -2 20 -6.1232339957370002e-17 0 -1 -1 0 6.1232339957370002e-17 0 1 0 2
2 -52 -2 -18 0 0 -1 -1 -0 -0 -0 1 0 2
1 -54 -2 20 0 0 -1 
2 -52 -2 -18 1 0 -6.1232339957370002e-17 -6.1232339957370002e-17 -0 -1 -0 1 0 2
2 -14 -2 -18 1 0 0 0 0 -1 -0 1 0 2
1 -52 -2 -20 1 0 0 
1 -12 -2 -18 0 0 1 
2 -14 -2 -18 6.1232339957370002e-17 0 1 1 0 -6.1232339957370002e-17 -0 1 0 2
7 0 0  6 22 5  -14 2.22044604925e-16 -6.3386752274160001  -13.883921458570001 2.22044604925e-16 -6.4784173697650003  -13.78168340152 -0.0080838059001709997 -6.6253358967539997  -13.693243249629999 -0.020641929479499999 -6.7778434684970001  -13.61831580488 -0.035021860671209999 -6.9347130925520002  -13.556650658780001 -0.049115834697699999 -7.0950275795879998  -13.472050485440001 -0.070582086422899995 -7.3791614003130004  -13.44321949359 -0.078754853566220001 -7.5018192177919998  -13.421610569089999 -0.085324357754479996 -7.6256028208539997  -13.40720731145 -0.089855532673719998 -7.7501267717770004  -13.4 -0.09212159716611 -7.875035221548  -13.4 -0.09212159716611 -8.1247090191029994  -13.407177841379999 -0.089864795618869994 -8.2493622095409993  -13.421522281030001 -0.085352133440949995 -8.3736332149870005  -13.44304292718 -0.07880854073851 -8.4971682613970003  -13.471755989249999 -0.070665585129289998 -8.6195842672410006  -13.5561815725 -0.04922313421525 -8.9037514545620002  -13.617859778570001 -0.035109441557289997 -9.0643322880550006  -13.69284057614 -0.020698978357010001 -9.2214627931279995  -13.78137429599 -0.008108266881933 -9.3742198036940003  -13.88374583013 2.22044604925e-16 -9.5213711984390006  -14 2.22044604925e-16 -9.6613247725840008 
 0 7 0.28687114079800002 5 0.50000264214199996 5 0.71269793758300004 5 1 7
7 0 0  6 22 5  -14 2.22044604925e-16 9.6613247725840008  -13.883921458570001 2.22044604925e-16 9.5215826302350006  -13.78168340152 -0.0080838059001279994 9.3746641032469995  -13.693243249629999 -0.020641929479599998 9.2221565315019998  -13.61831580488 -0.035021860671149999 9.0652869074489999  -13.556650658780001 -0.049115834697699999 8.9049724204119993  -13.472050485440001 -0.070582086422899995 8.6208385996869996  -13.44321949359 -0.078754853566220001 8.4981807822079993  -13.421610569089999 -0.085324357754479996 8.3743971791459995  -13.40720731145 -0.089855532673719998 8.2498732282230005  -13.4 -0.09212159716611 8.124964778452  -13.4 -0.09212159716611 7.8752909808969997  -13.407177841379999 -0.089864795618869994 7.7506377904589998  -13.421522281030001 -0.085352133440949995 7.6263667850130004  -13.44304292718 -0.07880854073851 7.5028317386029997  -13.471755989249999 -0.070665585129289998 7.3804157327590003  -13.5561815725 -0.04922313421525 7.0962485454379998  -13.617859778570001 -0.035109441557300003 6.9356677119450003  -13.69284057614 -0.020698978357010001 6.7785372068719996  -13.78137429599 -0.0081082668819339992 6.6257801963059997  -13.88374583013 2.22044604925e-16 6.4786288015610003  -14 2.22044604925e-16 6.3386752274160001 
 0 7 0.28687114079800002 5 0.50000264214099999 5 0.71269793758300004 5 1 7
2 -14 -2 15 0 0 1 1 0 -0 -0 1 0 2
1 -16 -15.875 -5.4000000000000004 0 1 0 
2 -16 -15.875 -8 0 1 0 0 -0 1 1 0 -0 2.6000000000000001
1 -16 -15.875 10.6 0 1 0 
2 -16 -15.875 8 0 1 0 0 -0 1 1 0 -0 2.6000000000000001
2 -14 -2 15 -1 0 0 0 0 1 0 1 -0 2
1 -14 4.4408920985009999e-16 15 -1 0 0 
1 -14 -2 17 -1 0 0 
1 -24 0 20 0 0 -1 
1 -24 9.5250000000000004 -8 0 -1 0 
2 32 -2 15 -1 0 -6.1232339957370002e-17 6.1232339957370002e-17 0 -1 0 -1 -0 2
1 32 4.4408920985009999e-16 15 -1 0 0 
2 14 -2 15 -1 0 0 0 0 1 0 1 -0 2
1 32 -2 17 -1 0 0 
1 12 -2 15 0 0 -1 
2 14 -2 15 -6.1232339957370002e-17 0 -1 -1 0 6.1232339957370002e-17 0 1 0 2
7 0 0  6 22 5  14 2.22044604925e-16 6.3386752274160001  13.883921458571001 2.22044604925e-16 6.4784173697650003  13.781683401526999 -0.0080838059001489999 6.6253358967539997  13.693243249635 -0.02064192947955 6.7778434684980002  13.618315804888001 -0.035021860671170003 6.9347130925510001  13.556650658789 -0.049115834697699999 7.0950275795879998  13.472050485446999 -0.070582086422899995 7.3791614003130004  13.443219493592 -0.078754853566220001 7.5018192177919998  13.421610569089999 -0.085324357754479996 7.6256028208539997  13.407207311454 -0.089855532673719998 7.7501267717770004  13.4 -0.09212159716611 7.875035221548  13.4 -0.09212159716611 8.1247090191029994  13.407177841379999 -0.089864795618869994 8.2493622095409993  13.421522281035999 -0.085352133440949995 8.3736332149870005  13.443042927185999 -0.07880854073851 8.4971682613970003  13.471755989259 -0.070665585129289998 8.6195842672410006  13.556181572507001 -0.049223134215230002 8.9037514545620002  13.617859778576999 -0.035109441557300003 9.0643322880550006  13.692840576143 -0.02069897835702 9.2214627931279995  13.781374295991 -0.0081082668819289997 9.3742198036940003  13.883745830131 2.22044604925e-16 9.5213711984390006  14 2.22044604925e-16 9.6613247725840008 
 0 7 0.28687114079800002 5 0.50000264214099999 5 0.71269793758199995 5 1 7
7 0 0  6 22 5  14 2.22044604925e-16 -9.6613247725840008  13.883921458571001 2.22044604925e-16 -9.5215826302350006  13.781683401526999 -0.0080838059001460006 -9.3746641032459994  13.693243249635 -0.020641929479559999 -9.2221565315019998  13.618315804888001 -0.035021860671170003 -9.0652869074489999  13.556650658789 -0.049115834697699999 -8.9049724204119993  13.472050485446999 -0.070582086422899995 -8.6208385996869996  13.443219493592 -0.078754853566220001 -8.4981807822079993  13.421610569089999 -0.085324357754479996 -8.3743971791459995  13.407207311454 -0.089855532673719998 -8.2498732282230005  13.4 -0.09212159716611 -8.124964778452  13.4 -0.09212159716611 -7.8752909808969997  13.407177841379999 -0.089864795618869994 -7.7506377904589998  13.421522281035999 -0.085352133440949995 -7.6263667850130004  13.443042927185999 -0.07880854073851 -7.5028317386029997  13.471755989259 -0.070665585129289998 -7.3804157327590003  13.556181572506 -0.049223134215240001 -7.0962485454379998  13.617859778576999 -0.035109441557300003 -6.9356677119450003  13.692840576143 -0.020698978356999999 -6.7785372068719996  13.781374295991 -0.0081082668819370003 -6.6257801963059997  13.883745830131 2.22044604925e-16 -6.4786288015610003  14 2.22044604925e-16 -6.3386752274160001 
 0 7 0.28687114079800002 5 0.50000264214199996 5 0.71269793758300004 5 1 7
2 14 -2 -18 0 0 -1 -1 -0 -0 -0 1 0 2
1 16 -15.875 10.6 0 1 0 
2 16 -15.875 8 0 1 0 0 -0 1 1 0 -0 2.6000000000000001
1 16 -15.875 -5.4000000000000004 0 1 0 
2 16 -15.875 -8 0 1 0 0 -0 1 1 0 -0 2.6000000000000001
2 14 -2 -18 1 0 0 0 0 -1 -0 1 0 2
2 52 -2 -18 1 0 0 0 0 -1 -0 1 0 2
1 14 -2 -20 1 0 0 
2 52 -2 -18 6.1232339957370002e-17 0 1 1 0 -6.1232339957370002e-17 -0 1 0 2
2 52 -2 20 0 0 1 1 0 -0 -0 1 0 2
1 54 -2 -18 0 0 1 
2 52 -2 20 -1 -0 6.1232339957370002e-17 6.1232339957370002e-17 0 1 -0 1 0 2
2 36 -2 20 -1 0 0 0 0 1 0 1 -0 2
1 52 -2 22 -1 0 0 
2 36 -2 20 -6.1232339957370002e-17 0 -1 -1 0 6.1232339957370002e-17 0 1 0 2
2 36 -2 19 0 0 -1 -1 -0 -0 -0 1 0 2
1 34 -2 20 0 0 -1 
2 32 0 19 -0 1 0 1 0 0 0 0 -1 4
2 32 -2 19 -0 1 0 1 0 0 0 0 -1 2
1 -1.3838508830369999e-15 0 15.65 1.7319121124698918e-16 0.70710678118654757 -0.70710678118654757 
1 -1.3838508830369999e-15 0 -4.3499999999999996 1.7319121124698918e-16 0.70710678118654757 -0.70710678118654757 
2 -26 0 -8 -0 1 0 0 0 -1 -1 0 -0 2
1 -26 9.5250000000000004 -10 0 -1 0 
1 -24 0 -10 -1 0 0 
1 -32 9.5250000000000004 -10 0 -1 0 
2 -32 0 -8 -0 1 0 0 0 -1 -1 0 -0 2
1 -48.200000000000003 8.0050000000000008 -19.199999999999999 -0 1 0 
2 -48.200000000000003 8.0050000000000008 -17.199999999999999 0 1 0 0 -0 1 1 0 -0 2
1 -50.200000000000003 8.0050000000000008 -17.199999999999999 -0 1 0 
1 -50.200000000000003 8.0050000000000008 19.199999999999999 -0 1 0 
1 -50.200000000000003 8.0050000000000008 -17.199999999999999 0 0 1 
2 -48.200000000000003 8.0050000000000008 19.199999999999999 0 1 0 0 -0 1 1 0 -0 2
1 -48.200000000000003 8.0050000000000008 21.199999999999999 -0 1 0 
1 -48.200000000000003 8.0050000000000008 21.199999999999999 1 0 -0 
1 -39.799999999999997 8.0050000000000008 21.199999999999999 -0 1 0 
2 -39.799999999999997 8.0050000000000008 19.199999999999999 0 1 0 0 -0 1 1 0 -0 2
1 -37.799999999999997 8.0050000000000008 19.199999999999999 -0 1 0 
1 -37.799999999999997 8.0050000000000008 -17.199999999999999 0 0 1 
1 -37.799999999999997 8.0050000000000008 -17.199999999999999 -0 1 0 
2 -39.799999999999997 8.0050000000000008 -17.199999999999999 0 1 0 0 -0 1 1 0 -0 2
1 -39.799999999999997 8.0050000000000008 -19.199999999999999 -0 1 0 
1 -48.200000000000003 8.0050000000000008 -19.199999999999999 1 0 -0 
2 -32 -15.875 19 -0 1 0 0 0 -1 -1 0 -0 2
1 -34 0 19 0 -1 0 
1 -32 0 17 0 -1 0 
1 -34 -15.875 17 0 0 1 
1 -34 0 20 0 -1 0 
2 -36 -2 20 0 -1 -0 1 0 0 0 -0 1 2
1 -36 0 22 0 -1 0 
1 -34 -15.875 22 -1 0 0 
1 -52 0 22 0 -1 0 
2 -52 -2 20 0 -1 0 0 0 1 -1 0 0 2
1 -54 0 20 0 -1 0 
1 -54 -15.875 22 0 0 -1 
1 -54 0 -18 0 -1 0 
2 -52 -2 -18 0 -1 -0 -1 -0 0 -0 0 -1 2
1 -52 0 -20 0 -1 0 
1 -54 -15.875 -20 1 0 0 
1 -14 0 -20 0 -1 0 
2 -14 -2 -18 0 -1 0 0 0 -1 1 0 0 2
1 -12 0 -18 0 -1 0 
1 -12 -15.875 -20 0 0 1 
1 -12 0 15 0 -1 0 
2 -14 -2 15 0 -1 -0 1 0 0 0 -0 1 2
1 -12 -15.875 17 -1 0 0 
2 -36 -15.875 20 0 -1 0 0 -0 -1 1 0 0 2
2 -52 -15.875 20 0 -1 0 0 -0 -1 1 0 0 2
2 -52 -15.875 -18 0 -1 0 0 -0 -1 1 0 0 2
2 -14 -15.875 -18 0 -1 0 0 -0 -1 1 0 0 2
2 -14 -15.875 15 -0 1 0 0 0 -1 -1 0 -0 2
1 -14 0 17 0 -1 0 
1 32 0 17 0 -1 0 
1 34 -15.875 17 -1 0 0 
1 14 0 17 0 -1 0 
2 14 -2 15 0 -1 0 0 0 1 -1 0 0 2
1 12 0 15 0 -1 0 
1 12 -15.875 17 0 0 -1 
1 12 0 -18 0 -1 0 
2 14 -2 -18 0 -1 -0 -1 -0 0 -0 0 -1 2
1 12 -15.875 -20 1 0 0 
2 52 -15.875 -18 0 -1 0 0 -0 -1 1 0 0 2
1 54 -15.875 -20 0 0 1 
2 52 -15.875 20 0 -1 0 0 -0 -1 1 0 0 2
1 54 -15.875 22 -1 0 0 
2 36 -15.875 20 0 -1 0 0 -0 -1 1 0 0 2
1 34 -15.875 22 0 0 -1 
2 32 -15.875 19 -0 1 0 0 0 -1 -1 0 -0 2
2 14 -15.875 15 0 -1 0 0 -0 -1 1 0 0 2
2 14 -15.875 -18 -0 1 0 0 0 -1 -1 0 -0 2
1 14 0 -20 0 -1 0 
1 52 0 -20 0 -1 0 
2 52 -2 -18 0 -1 0 0 0 -1 1 0 0 2
1 54 0 -18 0 -1 0 
1 54 0 20 0 -1 0 
2 52 -2 20 0 -1 -0 1 0 0 0 -0 1 2
1 52 0 22 0 -1 0 
1 36 0 22 0 -1 0 
2 36 -2 20 0 -1 0 0 0 1 -1 0 0 2
1 34 0 20 0 -1 0 
1 34 0 19 0 -1 0 
1 -48.200000000000003 8.0050000000000008 -19.199999999999999 0 0 1 
1 -50.200000000000003 8.0050000000000008 -17.199999999999999 1 0 -0 
2 -48.200000000000003 8.0050000000000008 -17.199999999999999 0 1 0 0 -0 1 1 0 -0 2
2 -48.200000000000003 8.0050000000000008 19.199999999999999 0 1 0 0 -0 1 1 0 -0 2
1 -48.200000000000003 8.0050000000000008 -19.199999999999999 0 0 1 
1 -50.200000000000003 8.0050000000000008 19.199999999999999 1 0 -0 
1 -48.200000000000003 8.0050000000000008 -19.199999999999999 0 0 1 
2 -39.799999999999997 8.0050000000000008 19.199999999999999 0 1 0 0 -0 1 1 0 -0 2
1 -50.200000000000003 8.0050000000000008 19.199999999999999 1 0 -0 
2 -48.200000000000003 8.0050000000000008 19.199999999999999 0 1 0 0 -0 1 1 0 -0 2
1 -39.799999999999997 8.0050000000000008 -19.199999999999999 0 0 1 
1 -50.200000000000003 8.0050000000000008 19.199999999999999 1 0 -0 
2 -39.799999999999997 8.0050000000000008 19.199999999999999 0 1 0 0 -0 1 1 0 -0 2
2 -39.799999999999997 8.0050000000000008 -17.199999999999999 0 1 0 0 -0 1 1 0 -0 2
1 -39.799999999999997 8.0050000000000008 -19.199999999999999 0 0 1 
1 -50.200000000000003 8.0050000000000008 -17.199999999999999 1 0 -0 
1 -39.799999999999997 8.0050000000000008 -19.199999999999999 0 0 1 
2 -39.799999999999997 8.0050000000000008 -17.199999999999999 0 1 0 0 -0 1 1 0 -0 2
2 -48.200000000000003 8.0050000000000008 -17.199999999999999 0 1 0 0 -0 1 1 0 -0 2
1 -50.200000000000003 8.0050000000000008 -17.199999999999999 1 0 -0 
2 48.200000000000003 8.0050000000000008 -17.199999999999999 0 1 0 0 -0 1 1 0 -0 2
2 39.799999999999997 8.0050000000000008 -17.199999999999999 0 1 0 0 -0 1 1 0 -0 2
2 39.799999999999997 8.0050000000000008 19.199999999999999 0 1 0 0 -0 1 1 0 -0 2
2 48.200000000000003 8.0050000000000008 19.199999999999999 0 1 0 0 -0 1 1 0 -0 2
1 -50.200000000000003 8.0050000000000008 -17.199999999999999 1 0 -0 
1 -48.200000000000003 8.0050000000000008 -19.199999999999999 0 0 1 
2 -39.799999999999997 8.0050000000000008 -17.199999999999999 0 1 0 0 -0 1 1 0 -0 2
2 -48.200000000000003 8.0050000000000008 -17.199999999999999 0 1 0 0 -0 1 1 0 -0 2
2 -48.200000000000003 8.0050000000000008 19.199999999999999 0 1 0 0 -0 1 1 0 -0 2
2 -39.799999999999997 8.0050000000000008 19.199999999999999 0 1 0 0 -0 1 1 0 -0 2
1 -48.200000000000003 8.0050000000000008 -19.199999999999999 0 0 1 
1 -50.200000000000003 8.0050000000000008 19.199999999999999 1 0 -0 
1 -50.200000000000003 8.0050000000000008 19.199999999999999 1 0 -0 
1 -39.799999999999997 8.0050000000000008 -19.199999999999999 0 0 1 
1 -39.799999999999997 8.0050000000000008 -19.199999999999999 0 0 1 
1 -50.200000000000003 8.0050000000000008 -17.199999999999999 1 0 -0 
Polygon3D 0
PolygonOnTriangulations 0
Surfaces 152
2 39.799999999999997 8.0050000000000008 -17.199999999999999 0 1 0 0 -0 1 1 0 -0 2
1 23.5 8.5250000000000004 -20 -0 1 0 0 0 1 1 0 -0 
1 39.799999999999997 8.0050000000000008 -19.199999999999999 0 0 1 1 0 -0 -0 1 0 
1 39.799999999999997 8.0050000000000008 -17.199999999999999 0 1 0 0 -0 1 1 0 -0 
1 37.799999999999997 8.0050000000000008 -17.199999999999999 1 0 -0 0 0 1 0 -1 0 
2 39.799999999999997 8.0050000000000008 19.199999999999999 0 1 0 0 -0 1 1 0 -0 2
1 37.799999999999997 8.0050000000000008 -17.199999999999999 -0 1 0 0 0 1 1 0 -0 
1 39.799999999999997 8.0050000000000008 19.199999999999999 0 1 0 0 -0 1 1 0 -0 
1 39.799999999999997 8.0050000000000008 21.199999999999999 0 0 1 1 0 -0 -0 1 0 
1 39.799999999999997 8.0050000000000008 -19.199999999999999 -0 1 0 0 0 1 1 0 -0 
2 48.200000000000003 8.0050000000000008 19.199999999999999 0 1 0 0 -0 1 1 0 -0 2
1 48.200000000000003 8.0050000000000008 19.199999999999999 0 1 0 0 -0 1 1 0 -0 
1 50.200000000000003 8.0050000000000008 -17.199999999999999 1 0 -0 0 0 1 0 -1 0 
1 37.799999999999997 8.0050000000000008 -17.199999999999999 -0 1 0 0 0 1 1 0 -0 
2 48.200000000000003 8.0050000000000008 -17.199999999999999 0 1 0 0 -0 1 1 0 -0 2
1 48.200000000000003 8.0050000000000008 -17.199999999999999 0 1 0 0 -0 1 1 0 -0 
1 39.799999999999997 8.0050000000000008 -19.199999999999999 -0 1 0 0 0 1 1 0 -0 
1 39.799999999999997 8.0050000000000008 -19.199999999999999 -0 1 0 0 0 1 1 0 -0 
1 37.799999999999997 8.0050000000000008 -17.199999999999999 -0 1 0 0 0 1 1 0 -0 
1 37.799999999999997 8.0050000000000008 -17.199999999999999 -0 1 0 0 0 1 1 0 -0 
1 39.799999999999997 8.0050000000000008 -19.199999999999999 -0 1 0 0 0 1 1 0 -0 
1 39.799999999999997 8.0050000000000008 -19.199999999999999 -0 1 0 0 0 1 1 0 -0 
1 39.799999999999997 8.0050000000000008 -19.199999999999999 -0 1 0 0 0 1 1 0 -0 
1 37.799999999999997 8.0050000000000008 -17.199999999999999 -0 1 0 0 0 1 1 0 -0 
1 37.799999999999997 8.0050000000000008 -17.199999999999999 -0 1 0 0 0 1 1 0 -0 
1 39.799999999999997 8.0050000000000008 -19.199999999999999 -0 1 0 0 0 1 1 0 -0 
1 39.799999999999997 8.0050000000000008 -19.199999999999999 -0 1 0 0 0 1 1 0 -0 
1 39.799999999999997 8.0050000000000008 -19.199999999999999 -0 1 0 0 0 1 1 0 -0 
1 39.799999999999997 8.0050000000000008 -19.199999999999999 -0 1 0 0 0 1 1 0 -0 
1 39.799999999999997 8.0050000000000008 -19.199999999999999 -0 1 0 0 0 1 1 0 -0 
1 -54 9.5250000000000004 -20 -0 0 1 1 0 0 0 1 -0 
1 0 9.5250000000000004 0.58490566037699998 -0 -1 -0 0 0 -1 1 -0 0 
1 -23.5 8.5250000000000004 -20 1 0 -0 0 0 1 0 -1 0 
1 -54 8.5250000000000004 -20 -0 1 0 0 0 1 1 0 -0 
2 -52 9.5250000000000004 -18 0 -1 0 0 -0 -1 1 0 0 2
1 0 0 0.58490566037699998 -0 -1 -0 0 0 -1 1 -0 0 
2 52 9.5250000000000004 -18 0 -1 0 0 -0 -1 1 0 0 2
1 23.5 8.5250000000000004 -20 1 0 -0 0 0 1 0 -1 0 
2 22 9.5250000000000004 18 0 -1 0 1 0 0 -0 0 1 2
1 24 9.5250000000000004 20 -0 -0 -1 -1 0 0 0 1 -0 
2 -22 9.5250000000000004 18 0 -1 0 -0 0 1 -1 -0 0 2
2 -16 0 8 0 1 0 0 -0 1 1 0 -0 1.3500000000000001
2 -16 0 -8 0 1 0 0 -0 1 1 0 -0 1.3500000000000001
2 0 0 10 0 1 0 0 -0 1 1 0 -0 2.75
2 16 0 8 0 1 0 0 -0 1 1 0 -0 1.3500000000000001
2 0 0 -10 0 1 0 0 -0 1 1 0 -0 2.75
2 16 0 -8 0 1 0 0 -0 1 1 0 -0 1.3500000000000001
1 24 9.5250000000000004 -10 -1 0 0 0 0 1 0 1 -0 
2 26 9.5250000000000004 -8 0 -1 0 -0 -0 -1 1 0 -0 2
1 34 9.5250000000000004 -10 -0 -0 -1 -1 0 0 0 1 -0 
2 32 9.5250000000000004 -8 0 -1 0 1 0 0 -0 0 1 2
1 34 9.5250000000000004 22 1 0 0 0 0 -1 -0 1 0 
2 36 9.5250000000000004 20 0 -1 0 -0 0 1 -1 -0 0 2
1 54 9.5250000000000004 22 -0 -0 -1 -1 0 0 0 1 -0 
2 52 9.5250000000000004 20 0 -1 0 1 0 0 -0 0 1 2
1 54 9.5250000000000004 -20 -1 0 0 0 0 1 0 1 -0 
5 32 -2 19 0 -1 -0 1 0 0 0 -0 1 4 2
2 36 -2 20 0 0 -1 -1 -0 -0 -0 1 0 2
2 52 -2 20 -1 0 0 0 0 1 0 1 -0 2
2 52 -2 -18 0 0 1 1 0 -0 -0 1 0 2
2 14 -2 -18 1 0 0 0 0 -1 -0 1 0 2
2 14 -2 15 0 0 -1 -1 -0 -0 -0 1 0 2
2 16 -15.875 -8 0 1 0 0 -0 1 1 0 -0 2.6000000000000001
2 16 -15.875 8 0 1 0 0 -0 1 1 0 -0 2.6000000000000001
2 32 -2 15 -1 0 0 0 0 1 0 1 -0 2
1 -24 9.5250000000000004 20 1 0 0 0 0 -1 -0 1 0 
2 -14 -2 15 -1 0 0 0 0 1 0 1 -0 2
2 -14 -2 -18 0 0 1 1 0 -0 -0 1 0 2
2 -16 -15.875 8 0 1 0 0 -0 1 1 0 -0 2.6000000000000001
2 -16 -15.875 -8 0 1 0 0 -0 1 1 0 -0 2.6000000000000001
2 -52 -2 -18 1 0 0 0 0 -1 -0 1 0 2
2 -52 -2 20 0 0 -1 -1 -0 -0 -0 1 0 2
2 -36 -2 20 -1 0 0 0 0 1 0 1 -0 2
2 -36 -2 19 0 0 1 1 0 -0 -0 1 0 2
5 -32 -2 19 0 -1 -0 0 0 -1 1 0 0 4 2
1 -34 9.5250000000000004 -10 -1 0 0 0 0 1 0 1 -0 
2 -36 9.5250000000000004 20 0 -1 0 1 0 0 -0 0 1 2
1 -34 9.5250000000000004 22 -0 -0 -1 -1 0 0 0 1 -0 
2 -52 9.5250000000000004 20 0 -1 0 -0 0 1 -1 -0 0 2
1 -54 9.5250000000000004 22 1 0 0 0 0 -1 -0 1 0 
3 0 0 10 -0 -1 -0 0 -0 1 -1 0 0 5.6500000000000004
0.78539816339699997
3 0 0 -10 -0 -1 -0 0 -0 1 -1 0 0 5.6500000000000004
0.78539816339699997
2 -32 9.5250000000000004 -8 0 -1 0 -0 -0 -1 1 0 -0 2
1 -24 9.5250000000000004 -10 -0 -0 -1 -1 0 0 0 1 -0 
2 -26 9.5250000000000004 -8 0 -1 0 1 0 0 -0 0 1 2
2 -48.200000000000003 8.0050000000000008 -17.199999999999999 0 1 0 0 -0 1 1 0 -0 2
1 -48.200000000000003 8.0050000000000008 -19.199999999999999 0 0 1 1 0 -0 -0 1 0 
2 -39.799999999999997 8.0050000000000008 -17.199999999999999 0 1 0 0 -0 1 1 0 -0 2
1 -37.799999999999997 8.0050000000000008 -17.199999999999999 1 0 -0 0 0 1 0 -1 0 
2 -39.799999999999997 8.0050000000000008 19.199999999999999 0 1 0 0 -0 1 1 0 -0 2
1 -48.200000000000003 8.0050000000000008 21.199999999999999 0 0 1 1 0 -0 -0 1 0 
2 -48.200000000000003 8.0050000000000008 19.199999999999999 0 1 0 0 -0 1 1 0 -0 2
1 -50.200000000000003 8.0050000000000008 -17.199999999999999 1 0 -0 0 0 1 0 -1 0 
1 33.654761904761997 0 0.34523809523799998 -0 -1 -0 0 0 -1 1 -0 0 
1 -33.654761904760001 0 0.34523809523799998 -0 -1 -0 0 0 -1 1 -0 0 
2 -32 0 19 0 -1 0 -0 -0 -1 1 0 -0 2
4 -36 -2 20 -0 1 0 1 0 0 0 0 -1 2
1 -34 0 17 -1 0 0 0 0 1 0 1 -0 
4 -52 -2 20 -0 1 0 0 0 1 1 0 -0 2
1 -34 0 22 -0 -0 -1 -1 0 0 0 1 -0 
4 -52 -2 -18 -0 1 0 -1 -0 0 0 0 1 2
1 -54 0 22 1 0 0 0 0 -1 -0 1 0 
4 -14 -2 -18 -0 1 0 0 0 -1 -1 0 -0 2
1 -54 0 -20 -0 0 1 1 0 0 0 1 -0 
1 -12 0 -20 -1 0 0 0 0 1 0 1 -0 
4 -14 -2 15 -0 1 0 1 0 0 0 0 -1 2
1 -33.654761904760001 -15.875 0.34523809523799998 -0 -1 -0 0 0 -1 1 -0 0 
1 -12 0 17 -0 -0 -1 -1 0 0 0 1 -0 
4 14 -2 15 -0 1 0 0 0 1 1 0 -0 2
1 34 0 17 -0 -0 -1 -1 0 0 0 1 -0 
1 12 0 17 1 0 0 0 0 -1 -0 1 0 
4 14 -2 -18 -0 1 0 -1 -0 0 0 0 1 2
1 33.654761904761997 -15.875 0.34523809523799998 -0 -1 -0 0 0 -1 1 -0 0 
4 52 -2 -18 -0 1 0 0 0 -1 -1 0 -0 2
1 12 0 -20 -0 0 1 1 0 0 0 1 -0 
4 52 -2 20 -0 1 0 1 0 0 0 0 -1 2
1 54 0 -20 -1 0 0 0 0 1 0 1 -0 
4 36 -2 20 -0 1 0 0 0 1 1 0 -0 2
1 54 0 22 -0 -0 -1 -1 0 0 0 1 -0 
1 34 0 22 1 0 0 0 0 -1 -0 1 0 
2 32 0 19 0 -1 0 1 0 0 -0 0 1 2
1 -48.200000000000003 8.0050000000000008 -17.199999999999999 0 1 0 0 -0 1 1 0 -0 
1 -50.200000000000003 8.0050000000000008 -17.199999999999999 -0 1 0 0 0 1 1 0 -0 
1 -48.200000000000003 8.0050000000000008 19.199999999999999 0 1 0 0 -0 1 1 0 -0 
1 -48.200000000000003 8.0050000000000008 -19.199999999999999 -0 1 0 0 0 1 1 0 -0 
1 -39.799999999999997 8.0050000000000008 19.199999999999999 0 1 0 0 -0 1 1 0 -0 
1 -50.200000000000003 8.0050000000000008 -17.199999999999999 -0 1 0 0 0 1 1 0 -0 
1 -39.799999999999997 8.0050000000000008 -17.199999999999999 0 1 0 0 -0 1 1 0 -0 
1 -48.200000000000003 8.0050000000000008 -19.199999999999999 -0 1 0 0 0 1 1 0 -0 
2 -36 0 20 0 -1 0 1 0 0 -0 0 1 2
2 -52 0 20 0 -1 0 -0 0 1 -1 -0 0 2
2 -52 0 -18 0 -1 0 -1 0 0 -0 -0 -1 2
2 -14 0 -18 0 -1 0 0 -0 -1 1 0 0 2
2 -14 0 15 0 -1 0 -0 0 1 -1 -0 0 2
2 14 0 15 0 -1 0 -0 0 1 -1 -0 0 2
2 14 0 -18 0 -1 0 0 -0 -1 1 0 0 2
2 52 0 -18 0 -1 0 0 -0 -1 1 0 0 2
2 52 0 20 0 -1 0 1 0 0 -0 0 1 2
2 36 0 20 0 -1 0 -0 0 1 -1 -0 0 2
1 -48.200000000000003 8.0050000000000008 -19.199999999999999 -0 1 0 0 0 1 1 0 -0 
1 -50.200000000000003 8.0050000000000008 -17.199999999999999 -0 1 0 0 0 1 1 0 -0 
1 -50.200000000000003 8.0050000000000008 -17.199999999999999 -0 1 0 0 0 1 1 0 -0 
1 -48.200000000000003 8.0050000000000008 -19.199999999999999 -0 1 0 0 0 1 1 0 -0 
1 -48.200000000000003 8.0050000000000008 -19.199999999999999 -0 1 0 0 0 1 1 0 -0 
1 -48.200000000000003 8.0050000000000008 -19.199999999999999 -0 1 0 0 0 1 1 0 -0 
1 -50.200000000000003 8.0050000000000008 -17.199999999999999 -0 1 0 0 0 1 1 0 -0 
1 -50.200000000000003 8.0050000000000008 -17.199999999999999 -0 1 0 0 0 1 1 0 -0 
1 -48.200000000000003 8.0050000000000008 -19.199999999999999 -0 1 0 0 0 1 1 0 -0 
1 -48.200000000000003 8.0050000000000008 -19.199999999999999 -0 1 0 0 0 1 1 0 -0 
1 -48.200000000000003 8.0050000000000008 -19.199999999999999 -0 1 0 0 0 1 1 0 -0 
1 -48.200000000000003 8.0050000000000008 -19.199999999999999 -0 1 0 0 0 1 1 0 -0 
1 -48.200000000000003 8.0050000000000008 -19.199999999999999 -0 1 0 0 0 1 1 0 -0 
Triangulations 0

TShapes 627
Ve
1e-07
39.8 8.525 -19.2
0 0

0101101
*
Ve
1e-07
37.8 8.525 -17.2
0 0

0101101
*
Ed
 1e-07 1 1 0
1  1 0 3.14159265358979 4.71238898038469
2  1 1 0 3.14159265358979 4.71238898038469
4 C0 2 0 1 0
0

0101000
+627 0 -626 0 *
Ve
1e-07
39.8 8.005 -19.2
0 0

0101101
*
Ed
 1e-07 1 1 0
1  2 0 0 0.52
2  2 1 0 0 0.52
4 G1 1 0 3 0
0

0101000
+624 0 -627 0 *
Ve
1e-07
37.8 8.005 -17.2
0 0

0101101
*
Ed
 1e-07 1 1 0
1  3 0 3.14159265358979 4.71238898038469
2  3 1 0 3.14159265358979 4.71238898038469
4 C0 1 0 4 0
0

0101000
+624 0 -622 0 *
Ed
 1e-07 1 1 0
1  4 0 0 0.52
2  4 1 0 0 0.52
4 G1 1 0 5 0
0

0101000
+622 0 -626 0 *
Wi

0101100
-625 0 -623 0 +621 0 +620 0 *
Fa
0  1e-07 1 0

0111000
+619 0 *
Ve
1e-07
37.8 8.005 19.2
0 0

0101101
*
Ve
1e-07
37.8 8.525 19.2
0 0

0101101
*
Ed
 1e-07 1 1 0
1  5 0 0 0.52
2  5 6 0 0 0.52
4 G1 5 0 6 0
0

0101000
+617 0 -616 0 *
Ed
 1e-07 1 1 0
1  6 0 0 36.4
4 C0 5 0 7 0
0

0101000
+622 0 -617 0 *
Ed
 1e-07 1 1 0
1  7 0 -37.8 -1.4
4 C0 2 0 5 0
0

0101000
+616 0 -626 0 *
Wi

0101100
-615 0 -614 0 +620 0 -613 0 *
Fa
0  1e-07 5 0

0111000
+612 0 *
Ve
1e-07
39.8 8.005 21.2
0 0

0101101
*
Ed
 1e-07 1 1 0
1  8 0 4.71238898038469 6.28318530717959
2  6 6 0 4.71238898038469 6.28318530717959
4 C0 6 0 8 0
0

0101000
+617 0 -610 0 *
Ve
1e-07
39.8 8.525 21.2
0 0

0101101
*
Ed
 1e-07 1 1 0
1  9 0 0 0.52
2  7 6 0 0 0.52
4 G1 6 0 9 0
0

0101000
+610 0 -608 0 *
Ed
 1e-07 1 1 0
1  10 0 4.71238898038469 6.28318530717959
2  8 6 0 4.71238898038469 6.28318530717959
4 C0 2 0 6 0
0

0101000
+616 0 -608 0 *
Wi

0101100
+609 0 +607 0 -606 0 -615 0 *
Fa
0  1e-07 6 0

0111000
+605 0 *
Ve
1e-07
48.2 8.005 21.2
0 0

0101101
*
Ed
 1e-07 1 1 0
1  11 0 0 8.40000000000001
4 C0 9 0 10 0
0

0101000
+610 0 -603 0 *
Ve
1e-07
48.2 8.525 21.2
0 0

0101101
*
Ed
 1e-07 1 1 0
1  12 0 0 0.52
2  9 11 0 0 0.52
4 G1 9 0 11 0
0

0101000
+603 0 -601 0 *
Ed
 1e-07 1 1 0
1  13 0 8.15 16.55
4 C0 2 0 9 0
0

0101000
+608 0 -601 0 *
Wi

0101100
-607 0 +602 0 +600 0 -599 0 *
Fa
0  1e-07 9 0

0111000
+598 0 *
Ve
1e-07
50.2 8.525 19.2
0 0

0101101
*
Ed
 1e-07 1 1 0
1  14 0 0 1.5707963267949
2  10 11 0 0 1.5707963267949
4 C0 2 0 11 0
0

0101000
+601 0 -596 0 *
Ve
1e-07
50.2 8.005 19.2
0 0

0101101
*
Ed
 1e-07 1 1 0
1  15 0 0 1.5707963267949
2  11 11 0 0 1.5707963267949
4 C0 11 0 12 0
0

0101000
+603 0 -594 0 *
Ed
 1e-07 1 1 0
1  16 0 0 0.52
2  12 11 0 0 0.52
4 G1 11 0 13 0
0

0101000
+594 0 -596 0 *
Wi

0101100
-595 0 -600 0 +593 0 +592 0 *
Fa
0  1e-07 11 0

0111000
+591 0 *
Ve
1e-07
50.2 8.005 -17.2
0 0

0101101
*
Ed
 1e-07 1 1 0
1  17 0 0 36.4
4 C0 13 0 14 0
0

0101000
+589 0 -594 0 *
Ve
1e-07
50.2 8.525 -17.2
0 0

0101101
*
Ed
 1e-07 1 1 0
1  18 0 0 0.52
2  13 15 0 0 0.52
4 G1 13 0 15 0
0

0101000
+589 0 -587 0 *
Ed
 1e-07 1 1 0
1  19 0 -37.8 -1.4
4 C0 2 0 13 0
0

0101000
+596 0 -587 0 *
Wi

0101100
-592 0 -588 0 +586 0 -585 0 *
Fa
0  1e-07 13 0

0111000
+584 0 *
Ve
1e-07
48.2 8.525 -19.2
0 0

0101101
*
Ed
 1e-07 1 1 0
1  20 0 1.5707963267949 3.14159265358979
2  14 15 0 1.5707963267949 3.14159265358979
4 C0 2 0 15 0
0

0101000
+587 0 -582 0 *
Ve
1e-07
48.2 8.005 -19.2
0 0

0101101
*
Ed
 1e-07 1 1 0
1  21 0 1.5707963267949 3.14159265358979
2  15 15 0 1.5707963267949 3.14159265358979
4 C0 15 0 16 0
0

0101000
+589 0 -580 0 *
Ed
 1e-07 1 1 0
1  22 0 0 0.52
2  16 15 0 0 0.52
4 G1 15 0 3 0
0

0101000
+580 0 -582 0 *
Wi

0101100
-581 0 -586 0 +579 0 +578 0 *
Fa
0  1e-07 15 0

0111000
+577 0 *
Ed
 1e-07 1 1 0
1  23 0 0 8.40000000000001
4 C0 3 0 17 0
0

0101000
+624 0 -580 0 *
Ed
 1e-07 1 1 0
1  24 0 8.15 16.55
4 C0 2 0 3 0
0

0101000
+627 0 -582 0 *
Wi

0101100
-623 0 +575 0 +578 0 -574 0 *
Fa
0  1e-07 3 0

0111000
+573 0 *
Ve
1e-07
39.8 8.005 -17.2
0 0

0101101
*
Ed
 1e-07 1 1 0
1  25 0 0 2
4 CN 4 0 18 0
0

0101000
+624 0 -571 0 *
Ed
 1e-07 1 1 0
1  26 0 0 2
4 CN 4 0 19 0
0

0101000
+622 0 -571 0 *
Wi

0101100
-570 0 +621 0 +569 0 *
Fa
0  1e-07 4 0

0111000
+568 0 *
Ve
1e-07
39.8 8.005 -15.2
0 0

0101101
*
Ed
 1e-07 1 1 0
1  27 0 4.71238898038469 6.28318530717959
4 CN 7 0 19 0
0

0101000
+622 0 -566 0 *
Ve
1e-07
39.8 8.005 17.2
0 0

0101101
*
Ed
 1e-07 1 1 0
1  28 0 3.14159265358979 4.71238898038469
4 CN 7 0 20 0
0

0101000
+564 0 -617 0 *
Ed
 1e-07 1 1 0
1  29 0 4 36.4
4 CN 7 0 21 0
0

0101000
+566 0 -564 0 *
Wi

0101100
-565 0 +614 0 -563 0 -562 0 *
Fa
0  1e-07 7 0

0111000
+561 0 *
Ve
1e-07
39.8 8.005 19.2
0 0

0101101
*
Ed
 1e-07 1 1 0
1  30 0 0 2
4 CN 8 0 20 0
0

0101000
+617 0 -559 0 *
Ed
 1e-07 1 1 0
1  31 0 38.4 40.4
4 CN 8 0 22 0
0

0101000
+559 0 -610 0 *
Wi

0101100
-558 0 +609 0 -557 0 *
Fa
0  1e-07 8 0

0111000
+556 0 *
Ve
1e-07
46.2 8.005 19.2
0 0

0101101
*
Ed
 1e-07 1 1 0
1  32 0 4.71238898038469 6.28318530717959
4 CN 10 0 23 0
0

0101000
+554 0 -603 0 *
Ve
1e-07
41.8 8.005 19.2
0 0

0101101
*
Ed
 1e-07 1 1 0
1  33 0 4 8.40000000000001
4 CN 10 0 21 0
0

0101000
+552 0 -554 0 *
Ed
 1e-07 1 1 0
1  34 0 0 1.5707963267949
4 CN 10 0 22 0
0

0101000
+610 0 -552 0 *
Wi

0101100
+602 0 -553 0 -551 0 -550 0 *
Fa
0  1e-07 10 0

0111000
+549 0 *
Ve
1e-07
48.2 8.005 19.2
0 0

0101101
*
Ed
 1e-07 1 1 0
1  35 0 38.4 40.4
4 CN 12 0 23 0
0

0101000
+547 0 -603 0 *
Ed
 1e-07 1 1 0
1  36 0 10.4 12.4
4 CN 12 0 24 0
0

0101000
+547 0 -594 0 *
Wi

0101100
+546 0 +593 0 -545 0 *
Fa
0  1e-07 12 0

0111000
+544 0 *
Ve
1e-07
48.2 8.005 17.2
0 0

0101101
*
Ed
 1e-07 1 1 0
1  37 0 1.5707963267949 3.14159265358979
4 CN 14 0 24 0
0

0101000
+594 0 -542 0 *
Ve
1e-07
48.2 8.005 -15.2
0 0

0101101
*
Ed
 1e-07 1 1 0
1  38 0 0 1.5707963267949
4 CN 14 0 25 0
0

0101000
+540 0 -589 0 *
Ed
 1e-07 1 1 0
1  39 0 4 36.4
4 CN 14 0 21 0
0

0101000
+540 0 -542 0 *
Wi

0101100
-541 0 -588 0 -539 0 +538 0 *
Fa
0  1e-07 14 0

0111000
+537 0 *
Ve
1e-07
48.2 8.005 -17.2
0 0

0101101
*
Ed
 1e-07 1 1 0
1  40 0 10.4 12.4
4 CN 16 0 25 0
0

0101000
+535 0 -589 0 *
Ed
 1e-07 1 1 0
1  41 0 0 2
4 CN 16 0 26 0
0

0101000
+580 0 -535 0 *
Wi

0101100
+534 0 +579 0 +533 0 *
Fa
0  1e-07 16 0

0111000
+532 0 *
Ve
1e-07
46.2 8.005 -17.2
0 0

0101101
*
Ed
 1e-07 1 1 0
1  42 0 3.14159265358979 4.71238898038469
4 CN 17 0 26 0
0

0101000
+580 0 -530 0 *
Ve
1e-07
41.8 8.005 -17.2
0 0

0101101
*
Ed
 1e-07 1 1 0
1  43 0 1.5707963267949 3.14159265358979
4 CN 17 0 18 0
0

0101000
+528 0 -624 0 *
Ed
 1e-07 1 1 0
1  44 0 4 8.40000000000001
4 CN 17 0 21 0
0

0101000
+528 0 -530 0 *
Wi

0101100
-529 0 -575 0 -527 0 +526 0 *
Fa
0  1e-07 17 0

0111000
+525 0 *
Ed
 1e-07 1 1 0
1  45 0 2 4
4 CN 18 0 27 0
0

0101000
+571 0 -528 0 *
Wi

0101100
+527 0 +570 0 +523 0 *
Fa
0  1e-07 18 0

0111000
+522 0 *
Ed
 1e-07 1 1 0
1  46 0 2 4
4 CN 19 0 27 0
0

0101000
+571 0 -566 0 *
Wi

0101100
-569 0 +565 0 -520 0 *
Fa
0  1e-07 19 0

0111000
+519 0 *
Ed
 1e-07 1 1 0
1  47 0 36.4 38.4
4 CN 20 0 28 0
0

0101000
+564 0 -559 0 *
Wi

0101100
+563 0 +558 0 -517 0 *
Fa
0  1e-07 20 0

0111000
+516 0 *
Ed
 1e-07 1 1 0
1  48 0 2 4
4 CN 22 0 28 0
0

0101000
+559 0 -552 0 *
Wi

0101100
+550 0 -514 0 +557 0 *
Fa
0  1e-07 22 0

0111000
+513 0 *
Ed
 1e-07 1 1 0
1  49 0 8.40000000000001 10.4
4 CN 23 0 29 0
0

0101000
+554 0 -547 0 *
Wi

0101100
-546 0 -511 0 +553 0 *
Fa
0  1e-07 23 0

0111000
+510 0 *
Ed
 1e-07 1 1 0
1  50 0 36.4 38.4
4 CN 24 0 29 0
0

0101000
+542 0 -547 0 *
Wi

0101100
+545 0 +541 0 +508 0 *
Fa
0  1e-07 24 0

0111000
+507 0 *
Ed
 1e-07 1 1 0
1  51 0 2 4
4 CN 25 0 30 0
0

0101000
+535 0 -540 0 *
Wi

0101100
-534 0 +505 0 +539 0 *
Fa
0  1e-07 25 0

0111000
+504 0 *
Ed
 1e-07 1 1 0
1  52 0 8.40000000000001 10.4
4 CN 26 0 30 0
0

0101000
+530 0 -535 0 *
Wi

0101100
-533 0 +529 0 +502 0 *
Fa
0  1e-07 26 0

0111000
+501 0 *
Ve
1e-07
-23.5 9.525 -20
0 0

0101101
*
Ve
1e-07
23.5 9.525 -20
0 0

0101101
*
Ed
 1e-07 1 1 0
1  53 0 30.5 77.5
4 C0 31 0 32 0
0

0101000
+499 0 -498 0 *
Ve
1e-07
-23.5 8.525 -20
0 0

0101101
*
Ed
 1e-07 1 1 0
1  54 0 0 1
4 C0 31 0 33 0
0

0101000
+496 0 -499 0 *
Ve
1e-07
-52 8.525 -20
0 0

0101101
*
Ed
 1e-07 1 1 0
1  55 0 2 30.5
4 C0 31 0 34 0
0

0101000
+494 0 -496 0 *
Ve
1e-07
-52 0 -20
0 0

0101101
*
Ed
 1e-07 1 1 0
1  56 0 1 9.525
2  17 35 0 1 9.525
4 G1 31 0 35 0
0

0101000
+494 0 -492 0 *
Ve
1e-07
52 0 -20
0 0

0101101
*
Ed
 1e-07 1 1 0
1  57 0 2 106
4 C0 31 0 36 0
0

0101000
+492 0 -490 0 *
Ve
1e-07
52 8.525 -20
0 0

0101101
*
Ed
 1e-07 1 1 0
1  58 0 1 9.525
2  18 37 0 1 9.525
4 G1 31 0 37 0
0

0101000
+488 0 -490 0 *
Ve
1e-07
23.5 8.525 -20
0 0

0101101
*
Ed
 1e-07 1 1 0
1  59 0 0 28.5
4 C0 31 0 2 0
0

0101000
+486 0 -488 0 *
Ed
 1e-07 1 1 0
1  60 0 0 1
4 C0 31 0 38 0
0

0101000
+486 0 -498 0 *
Ve
1e-07
-23.5 9.525 19.322875655532
0 0

0101101
*
Ed
 1e-07 1 1 0
1  61 0 0 39.322875655532
4 C0 32 0 33 0
0

0101000
+499 0 -483 0 *
Ve
1e-07
23.5 9.525 19.322875655532
0 0

0101101
*
Ed
 1e-07 1 1 0
1  62 0 0 39.322875655532
4 C0 32 0 38 0
0

0101000
+498 0 -481 0 *
Ve
1e-07
22 9.525 20
0 0

0101101
*
Ed
 1e-07 1 1 0
1  63 0 2.2935305746082 3.14159265358979
2  19 39 0 2.2935305746082 3.14159265358979
4 C0 32 0 39 0
0

0101000
+481 0 -479 0 *
Ve
1e-07
-22 9.525 20
0 0

0101101
*
Ed
 1e-07 1 1 0
1  64 0 2 46
4 C0 32 0 40 0
0

0101000
+479 0 -477 0 *
Ed
 1e-07 1 1 0
1  65 0 3.14159265358979 3.98965473257139
2  20 41 0 3.14159265358979 3.98965473257139
4 C0 32 0 41 0
0

0101000
+477 0 -483 0 *
Ve
1e-07
-16 9.525 9.35
0 0

0101101
*
Ed
 1e-07 1 1 0
1  66 0 0 6.28318530717959
2  21 42 0 0 6.28318530717959
4 C0 32 0 42 0
0

0101000
+474 0 -474 0 *
Ve
1e-07
-16 9.525 -6.65
0 0

0101101
*
Ed
 1e-07 1 1 0
1  67 0 0 6.28318530717959
2  22 43 0 0 6.28318530717959
4 C0 32 0 43 0
0

0101000
+472 0 -472 0 *
Ve
1e-07
-6.73555739531e-16 9.525 12.75
0 0

0101101
*
Ed
 1e-07 1 1 0
1  68 0 0 6.28318530717959
2  23 44 0 0 6.28318530717959
4 C0 32 0 44 0
0

0101000
+470 0 -470 0 *
Ve
1e-07
16 9.525 9.35
0 0

0101101
*
Ed
 1e-07 1 1 0
1  69 0 0 6.28318530717959
2  24 45 0 0 6.28318530717959
4 C0 32 0 45 0
0

0101000
+468 0 -468 0 *
Ve
1e-07
-6.73555739531e-16 9.525 -7.25
0 0

0101101
*
Ed
 1e-07 1 1 0
1  70 0 0 6.28318530717959
2  25 46 0 0 6.28318530717959
4 C0 32 0 46 0
0

0101000
+466 0 -466 0 *
Ve
1e-07
16 9.525 -6.65
0 0

0101101
*
Ed
 1e-07 1 1 0
1  71 0 0 6.28318530717959
2  26 47 0 0 6.28318530717959
4 C0 32 0 47 0
0

0101000
+464 0 -464 0 *
Ve
1e-07
23.5 8.525 19.322875655532
0 0

0101101
*
Ed
 1e-07 1 1 0
1  72 0 0 39.322875655532
4 C0 38 0 2 0
0

0101000
+486 0 -462 0 *
Ed
 1e-07 1 1 0
1  73 0 0 1
2  27 39 0 0 1
4 C0 38 0 39 0
0

0101000
+481 0 -462 0 *
Ve
1e-07
24 8.525 18
0 0

0101101
*
Ed
 1e-07 1 1 0
1  74 0 0 0.722734247813304
2  28 39 0 0 0.722734247813304
4 C0 2 0 39 0
0

0101000
+459 0 -462 0 *
Ve
1e-07
24 8.525 -8
0 0

0101101
*
Ed
 1e-07 1 1 0
1  75 0 -33 -7
4 C0 2 0 48 0
0

0101000
+459 0 -457 0 *
Ve
1e-07
26 8.525 -10
0 0

0101101
*
Ed
 1e-07 1 1 0
1  76 0 4.71238898038469 6.28318530717959
2  29 49 0 4.71238898038469 6.28318530717959
4 C0 2 0 49 0
0

0101000
+457 0 -455 0 *
Ve
1e-07
32 8.525 -10
0 0

0101101
*
Ed
 1e-07 1 1 0
1  77 0 -2.75 3.25
4 C0 2 0 50 0
0

0101000
+455 0 -453 0 *
Ve
1e-07
34 8.525 -8
0 0

0101101
*
Ed
 1e-07 1 1 0
1  78 0 4.71238898038469 6.28318530717959
2  30 51 0 4.71238898038469 6.28318530717959
4 C0 2 0 51 0
0

0101000
+453 0 -451 0 *
Ve
1e-07
34 8.525 20
0 0

0101101
*
Ed
 1e-07 1 1 0
1  79 0 -9 19
4 C0 2 0 52 0
0

0101000
+451 0 -449 0 *
Ve
1e-07
36 8.525 22
0 0

0101101
*
Ed
 1e-07 1 1 0
1  80 0 0 1.5707963267949
2  31 53 0 0 1.5707963267949
4 C0 2 0 53 0
0

0101000
+447 0 -449 0 *
Ve
1e-07
52 8.525 22
0 0

0101101
*
Ed
 1e-07 1 1 0
1  81 0 12.5 28.5
4 C0 2 0 54 0
0

0101000
+447 0 -445 0 *
Ve
1e-07
54 8.525 20
0 0

0101101
*
Ed
 1e-07 1 1 0
1  82 0 0 1.5707963267949
2  32 55 0 0 1.5707963267949
4 C0 2 0 55 0
0

0101000
+443 0 -445 0 *
Ve
1e-07
54 8.525 -18
0 0

0101101
*
Ed
 1e-07 1 1 0
1  83 0 2 40
4 C0 2 0 56 0
0

0101000
+441 0 -443 0 *
Ed
 1e-07 1 1 0
1  84 0 0 1.5707963267949
2  33 37 0 0 1.5707963267949
4 C0 2 0 37 0
0

0101000
+488 0 -441 0 *
Ve
1e-07
54 0 -18
0 0

0101101
*
Ed
 1e-07 1 1 0
1  85 0 1 9.525
2  34 37 0 1 9.525
4 G1 37 0 56 0
0

0101000
+441 0 -438 0 *
Ed
 1e-07 1 1 0
1  86 0 0 1.5707963267949
2  35 37 0 0 1.5707963267949
4 C0 37 0 36 0
0

0101000
+490 0 -438 0 *
Ve
1e-07
-54 0 -18
0 0

0101101
*
Ed
 1e-07 1 1 0
1  87 0 0 1.5707963267949
2  36 35 0 0 1.5707963267949
4 C0 36 0 35 0
0

0101000
+492 0 -435 0 *
Ve
1e-07
54 0 20
0 0

0101101
*
Ed
 1e-07 1 1 0
1  88 0 2 40
4 C0 36 0 56 0
0

0101000
+438 0 -433 0 *
Ve
1e-07
52 0 22
0 0

0101101
*
Ed
 1e-07 1 1 0
1  89 0 1.5707963267949 3.14159265358979
2  37 55 0 1.5707963267949 3.14159265358979
4 C0 36 0 55 0
0

0101000
+433 0 -431 0 *
Ve
1e-07
36 0 22
0 0

0101101
*
Ed
 1e-07 1 1 0
1  90 0 2 18
4 C0 36 0 54 0
0

0101000
+431 0 -429 0 *
Ve
1e-07
34 0 20
0 0

0101101
*
Ed
 1e-07 1 1 0
1  91 0 3.14159265358979 4.71238898038469
2  38 53 0 3.14159265358979 4.71238898038469
4 C0 36 0 53 0
0

0101000
+429 0 -427 0 *
Ve
1e-07
34 0 15.535898384862
0 0

0101101
*
Ed
 1e-07 1 1 0
1  92 0 2 6.464101615138
4 C0 36 0 52 0
0

0101000
+427 0 -425 0 *
Ve
1e-07
36 4.440892098501e-16 19
0 0

0101101
*
Ed
 1e-07 1 1 0
1  93 0 0 1.04719755119663
2  39 57 0 0 1.04719755119663
4 C0 36 0 57 0
0

0101000
+423 0 -425 0 *
Ve
1e-07
36 4.440892098501e-16 20
0 0

0101101
*
Ed
 1e-07 1 1 0
1  94 0 0 1
2  40 58 0 0 1
4 C0 36 0 58 0
0

0101000
+421 0 -423 0 *
Ve
1e-07
52 4.440892098501e-16 20
0 0

0101101
*
Ed
 1e-07 1 1 0
1  95 0 0 16
2  41 59 0 0 16
4 C0 36 0 59 0
0

0101000
+419 0 -421 0 *
Ve
1e-07
52 4.440892098501e-16 -18
0 0

0101101
*
Ed
 1e-07 1 1 0
1  96 0 0 38
2  42 60 0 0 38
4 C0 36 0 60 0
0

0101000
+417 0 -419 0 *
Ve
1e-07
14 4.440892098501e-16 -18
0 0

0101101
*
Ed
 1e-07 1 1 0
1  97 0 0 38
2  43 61 0 0 38
4 C0 36 0 61 0
0

0101000
+415 0 -417 0 *
Ve
1.01496117428437e-07
14 2.22044604925e-16 -9.661324772583
0 0

0101101
*
Ed
 1e-07 1 1 0
1  98 0 24.661324772583 33
2  44 62 0 24.661324772583 33
4 C0 36 0 62 0
0

0101000
+413 0 -415 0 *
Ve
1e-07
16 0 -5.4
0 0

0101101
*
Ed
 1e-07 1 1 0
1  99 0 0 4.01922907280812
2  45 63 0 0 4.01922907280812
4 C0 36 0 63 0
0

0101000
+411 0 -413 0 *
Ve
1.01496117428437e-07
14 2.22044604925e-16 -6.338675227416
0 0

0101101
*
Ed
 1e-07 1 1 0
1  100 0 5.40554888796156 6.28318530717959
2  46 63 0 5.40554888796156 6.28318530717959
4 C0 36 0 63 0
0

0101000
+409 0 -411 0 *
Ve
1.01496119148891e-07
14 2.22044604925e-16 6.338675227417
0 0

0101101
*
Ed
 1e-07 1 1 0
1  101 0 8.661324772583 21.338675227416
2  47 62 0 8.661324772583 21.338675227416
4 C0 36 0 62 0
0

0101000
+407 0 -409 0 *
Ve
1e-07
16 0 10.6
0 0

0101101
*
Ed
 1e-07 1 1 0
1  102 0 0 4.01922907280812
2  48 64 0 0 4.01922907280812
4 C0 36 0 64 0
0

0101000
+405 0 -407 0 *
Ve
1.01496119148891e-07
14 2.22044604925e-16 9.661324772584
0 0

0101101
*
Ed
 1e-07 1 1 0
1  103 0 5.40554888796156 6.28318530717959
2  49 64 0 5.40554888796156 6.28318530717959
4 C0 36 0 64 0
0

0101000
+403 0 -405 0 *
Ve
1e-07
14 4.440892098501e-16 15
0 0

0101101
*
Ed
 1e-07 1 1 0
1  104 0 0 5.338675227416
2  50 62 0 0 5.338675227416
4 C0 36 0 62 0
0

0101000
+401 0 -403 0 *
Ve
1e-07
24 2.22044604925e-16 15
0 0

0101101
*
Ed
 1e-07 1 1 0
1  105 0 8 18
2  51 65 0 8 18
4 C0 36 0 65 0
0

0101000
+399 0 -401 0 *
Ve
1e-07
24 0 18
0 0

0101101
*
Ed
 1e-07 1 1 0
1  106 0 25 28
4 C0 36 0 48 0
0

0101000
+399 0 -397 0 *
Ve
1e-07
22 0 20
0 0

0101101
*
Ed
 1e-07 1 1 0
1  107 0 1.5707963267949 3.14159265358979
2  52 39 0 1.5707963267949 3.14159265358979
4 C0 36 0 39 0
0

0101000
+397 0 -395 0 *
Ve
1e-07
-22 0 20
0 0

0101101
*
Ed
 1e-07 1 1 0
1  108 0 2 46
4 C0 36 0 40 0
0

0101000
+395 0 -393 0 *
Ve
1e-07
-24 0 18
0 0

0101101
*
Ed
 1e-07 1 1 0
1  109 0 3.14159265358979 4.71238898038469
2  53 41 0 3.14159265358979 4.71238898038469
4 C0 36 0 41 0
0

0101000
+393 0 -391 0 *
Ve
1e-07
-24 2.22044604925e-16 15
0 0

0101101
*
Ed
 1e-07 1 1 0
1  110 0 2 5
4 C0 36 0 66 0
0

0101000
+391 0 -389 0 *
Ve
1e-07
-14 4.440892098501e-16 15
0 0

0101101
*
Ed
 1e-07 1 1 0
1  111 0 0 10
2  54 67 0 0 10
4 C0 36 0 67 0
0

0101000
+387 0 -389 0 *
Ve
1.01495052113452e-07
-14 2.22044604925e-16 9.661324772584
0 0

0101101
*
Ed
 1e-07 1 1 0
1  112 0 27.661324772584 33
2  55 68 0 27.661324772584 33
4 C0 36 0 68 0
0

0101000
+385 0 -387 0 *
Ve
1e-07
-16 0 10.6
0 0

0101101
*
Ed
 1e-07 1 1 0
1  113 0 0 0.877636419218029
2  56 69 0 0 0.877636419218029
4 C0 36 0 69 0
0

0101000
+383 0 -385 0 *
Ve
1.01495052113452e-07
-14 2.22044604925e-16 6.338675227417
0 0

0101101
*
Ed
 1e-07 1 1 0
1  114 0 2.26395623437147 6.28318530717959
2  57 69 0 2.26395623437147 6.28318530717959
4 C0 36 0 69 0
0

0101000
+381 0 -383 0 *
Ve
1.01495050392999e-07
-14 2.22044604925e-16 -6.338675227416
0 0

0101101
*
Ed
 1e-07 1 1 0
1  115 0 11.661324772584 24.338675227417
2  58 68 0 11.661324772584 24.338675227417
4 C0 36 0 68 0
0

0101000
+379 0 -381 0 *
Ve
1e-07
-16 0 -5.4
0 0

0101101
*
Ed
 1e-07 1 1 0
1  116 0 0 0.877636419218029
2  59 70 0 0 0.877636419218029
4 C0 36 0 70 0
0

0101000
+377 0 -379 0 *
Ve
1.01495050392999e-07
-14 2.22044604925e-16 -9.661324772583
0 0

0101101
*
Ed
 1e-07 1 1 0
1  117 0 2.26395623437147 6.28318530717959
2  60 70 0 2.26395623437147 6.28318530717959
4 C0 36 0 70 0
0

0101000
+375 0 -377 0 *
Ve
1e-07
-14 4.440892098501e-16 -18
0 0

0101101
*
Ed
 1e-07 1 1 0
1  118 0 0 8.338675227417
2  61 68 0 0 8.338675227417
4 C0 36 0 68 0
0

0101000
+373 0 -375 0 *
Ve
1e-07
-52 4.440892098501e-16 -18
0 0

0101101
*
Ed
 1e-07 1 1 0
1  119 0 0 38
2  62 71 0 0 38
4 C0 36 0 71 0
0

0101000
+371 0 -373 0 *
Ve
1e-07
-52 4.440892098501e-16 20
0 0

0101101
*
Ed
 1e-07 1 1 0
1  120 0 0 38
2  63 72 0 0 38
4 C0 36 0 72 0
0

0101000
+369 0 -371 0 *
Ve
1e-07
-36 4.440892098501e-16 20
0 0

0101101
*
Ed
 1e-07 1 1 0
1  121 0 0 16
2  64 73 0 0 16
4 C0 36 0 73 0
0

0101000
+367 0 -369 0 *
Ve
1e-07
-36 0 19
0 0

0101101
*
Ed
 1e-07 1 1 0
1  122 0 0 1
2  65 74 0 0 1
4 C0 36 0 74 0
0

0101000
+365 0 -367 0 *
Ve
1e-07
-34 0 15.535898384862
0 0

0101101
*
Ed
 1e-07 1 1 0
1  123 0 0.523598775598268 1.5707963267949
2  66 75 0 0.523598775598268 1.5707963267949
4 C0 36 0 75 0
0

0101000
+363 0 -365 0 *
Ve
1e-07
-34 0 20
0 0

0101101
*
Ed
 1e-07 1 1 0
1  124 0 25.535898384862 30
4 C0 36 0 76 0
0

0101000
+363 0 -361 0 *
Ve
1e-07
-36 0 22
0 0

0101101
*
Ed
 1e-07 1 1 0
1  125 0 1.5707963267949 3.14159265358979
2  67 77 0 1.5707963267949 3.14159265358979
4 C0 36 0 77 0
0

0101000
+361 0 -359 0 *
Ve
1e-07
-52 0 22
0 0

0101101
*
Ed
 1e-07 1 1 0
1  126 0 2 18
4 C0 36 0 78 0
0

0101000
+359 0 -357 0 *
Ve
1e-07
-54 0 20
0 0

0101101
*
Ed
 1e-07 1 1 0
1  127 0 3.14159265358979 4.71238898038469
2  68 79 0 3.14159265358979 4.71238898038469
4 C0 36 0 79 0
0

0101000
+357 0 -355 0 *
Ed
 1e-07 1 1 0
1  128 0 2 40
4 C0 36 0 80 0
0

0101000
+355 0 -435 0 *
Ve
1e-07
-16 0 9.35
0 0

0101101
*
Ed
 1e-07 1 1 0
1  129 0 0 6.28318530717959
2  69 42 0 0 6.28318530717959
4 C0 36 0 42 0
0

0101000
+352 0 -352 0 *
Ve
1e-07
-16 0 -6.65
0 0

0101101
*
Ed
 1e-07 1 1 0
1  130 0 0 6.28318530717959
2  70 43 0 0 6.28318530717959
4 C0 36 0 43 0
0

0101000
+350 0 -350 0 *
Ve
1e-07
-1.383850883037e-15 0 15.65
0 0

0101101
*
Ed
 1e-07 1 1 0
1  131 0 0 6.28318530717959
2  71 81 0 0 6.28318530717959
4 C0 36 0 81 0
0

0101000
+348 0 -348 0 *
Ve
1e-07
16 0 9.35
0 0

0101101
*
Ed
 1e-07 1 1 0
1  132 0 0 6.28318530717959
2  72 45 0 0 6.28318530717959
4 C0 36 0 45 0
0

0101000
+346 0 -346 0 *
Ve
1e-07
-1.383850883037e-15 0 -4.35
0 0

0101101
*
Ed
 1e-07 1 1 0
1  133 0 0 6.28318530717959
2  73 82 0 0 6.28318530717959
4 C0 36 0 82 0
0

0101000
+344 0 -344 0 *
Ve
1e-07
16 0 -6.65
0 0

0101101
*
Ed
 1e-07 1 1 0
1  134 0 0 6.28318530717959
2  74 47 0 0 6.28318530717959
4 C0 36 0 47 0
0

0101000
+342 0 -342 0 *
Ve
1e-07
-54 8.525 -18
0 0

0101101
*
Ed
 1e-07 1 1 0
1  135 0 1 9.525
2  75 35 0 1 9.525
4 G1 35 0 80 0
0

0101000
+340 0 -435 0 *
Ed
 1e-07 1 1 0
1  136 0 4.71238898038469 6.28318530717959
2  76 35 0 4.71238898038469 6.28318530717959
4 C0 35 0 34 0
0

0101000
+340 0 -494 0 *
Ve
1e-07
-54 8.525 20
0 0

0101101
*
Ed
 1e-07 1 1 0
1  137 0 2 40
4 C0 34 0 80 0
0

0101000
+340 0 -337 0 *
Ve
1e-07
-52 8.525 22
0 0

0101101
*
Ed
 1e-07 1 1 0
1  138 0 0 1.5707963267949
2  77 79 0 0 1.5707963267949
4 C0 34 0 79 0
0

0101000
+335 0 -337 0 *
Ve
1e-07
-36 8.525 22
0 0

0101101
*
Ed
 1e-07 1 1 0
1  139 0 2 18
4 C0 34 0 78 0
0

0101000
+335 0 -333 0 *
Ve
1e-07
-34 8.525 20
0 0

0101101
*
Ed
 1e-07 1 1 0
1  140 0 0 1.5707963267949
2  78 77 0 0 1.5707963267949
4 C0 34 0 77 0
0

0101000
+331 0 -333 0 *
Ve
1e-07
-34 8.525 -8
0 0

0101101
*
Ed
 1e-07 1 1 0
1  141 0 -35 -7
4 C0 34 0 76 0
0

0101000
+331 0 -329 0 *
Ve
1e-07
-32 8.525 -10
0 0

0101101
*
Ed
 1e-07 1 1 0
1  142 0 4.71238898038469 6.28318530717959
2  79 83 0 4.71238898038469 6.28318530717959
4 C0 34 0 83 0
0

0101000
+329 0 -327 0 *
Ve
1e-07
-26 8.525 -10
0 0

0101101
*
Ed
 1e-07 1 1 0
1  143 0 7 13
4 C0 34 0 84 0
0

0101000
+327 0 -325 0 *
Ve
1e-07
-24 8.525 -8
0 0

0101101
*
Ed
 1e-07 1 1 0
1  144 0 4.71238898038469 6.28318530717959
2  80 85 0 4.71238898038469 6.28318530717959
4 C0 34 0 85 0
0

0101000
+325 0 -323 0 *
Ve
1e-07
-24 8.525 18
0 0

0101101
*
Ed
 1e-07 1 1 0
1  145 0 -8 18
4 C0 34 0 66 0
0

0101000
+323 0 -321 0 *
Ve
1e-07
-23.5 8.525 19.322875655532
0 0

0101101
*
Ed
 1e-07 1 1 0
1  146 0 0.848062078981592 1.5707963267949
2  81 41 0 0.848062078981592 1.5707963267949
4 C0 34 0 41 0
0

0101000
+319 0 -321 0 *
Ed
 1e-07 1 1 0
1  147 0 0 39.322875655532
4 C0 34 0 33 0
0

0101000
+496 0 -319 0 *
Ve
1e-07
-48.2 8.525 -19.2
0 0

0101101
*
Ve
1e-07
-50.2 8.525 -17.2
0 0

0101101
*
Ed
 1e-07 1 1 0
1  148 0 3.14159265358979 4.71238898038469
2  82 86 0 3.14159265358979 4.71238898038469
4 C0 34 0 86 0
0

0101000
+316 0 -315 0 *
Ve
1e-07
-39.8 8.525 -19.2
0 0

0101101
*
Ed
 1e-07 1 1 0
1  149 0 2.9 11.3
4 C0 34 0 87 0
0

0101000
+316 0 -313 0 *
Ve
1e-07
-37.8 8.525 -17.2
0 0

0101101
*
Ed
 1e-07 1 1 0
1  150 0 1.5707963267949 3.14159265358979
2  83 88 0 1.5707963267949 3.14159265358979
4 C0 34 0 88 0
0

0101000
+311 0 -313 0 *
Ve
1e-07
-37.8 8.525 19.2
0 0

0101101
*
Ed
 1e-07 1 1 0
1  151 0 -37.8 -1.4
4 C0 34 0 89 0
0

0101000
+309 0 -311 0 *
Ve
1e-07
-39.8 8.525 21.2
0 0

0101101
*
Ed
 1e-07 1 1 0
1  152 0 0 1.5707963267949
2  84 90 0 0 1.5707963267949
4 C0 34 0 90 0
0

0101000
+307 0 -309 0 *
Ve
1e-07
-48.2 8.525 21.2
0 0

0101101
*
Ed
 1e-07 1 1 0
1  153 0 2.9 11.3
4 C0 34 0 91 0
0

0101000
+305 0 -307 0 *
Ve
1e-07
-50.2 8.525 19.2
0 0

0101101
*
Ed
 1e-07 1 1 0
1  154 0 4.71238898038469 6.28318530717959
2  85 92 0 4.71238898038469 6.28318530717959
4 C0 34 0 92 0
0

0101000
+303 0 -305 0 *
Ed
 1e-07 1 1 0
1  155 0 -37.8 -1.4
4 C0 34 0 93 0
0

0101000
+303 0 -315 0 *
Ed
 1e-07 1 1 0
1  156 0 0 1
2  86 41 0 0 1
4 C0 33 0 41 0
0

0101000
+483 0 -319 0 *
Ed
 1e-07 1 1 0
1  157 0 0 9.525
2  87 41 0 0 9.525
4 G1 41 0 40 0
0

0101000
+477 0 -393 0 *
Ed
 1e-07 1 1 0
1  158 0 1 9.525
2  88 41 0 1 9.525
4 G1 41 0 66 0
0

0101000
+321 0 -391 0 *
Ed
 1e-07 1 1 0
1  159 0 0 9.525
2  89 39 0 0 9.525
4 G1 40 0 39 0
0

0101000
+479 0 -395 0 *
Ed
 1e-07 1 1 0
1  160 0 1 9.525
2  90 39 0 1 9.525
4 G1 39 0 48 0
0

0101000
+459 0 -397 0 *
Ed
 1e-07 1 1 0
1  161 0 0 9.525
3  91 92CN 42 0 0 9.525
0

0101000
+352 0 -474 0 *
Ed
 1e-07 1 1 0
1  162 0 0 9.525
3  93 94CN 43 0 0 9.525
0

0101000
+350 0 -472 0 *
Ve
1e-07
-6.73555739531e-16 2.9 12.75
0 0

0101101
*
Ed
 1e-07 1 1 0
1  163 0 2.9 9.525
3  95 96CN 44 0 2.9 9.525
0

0101000
+293 0 -470 0 *
Ed
 1e-07 1 1 0
1  164 0 0 6.28318530717959
2  97 44 0 0 6.28318530717959
2  98 81 0 0 6.28318530717959
4 C0 44 0 81 0
0

0101000
+293 0 -293 0 *
Ed
 1e-07 1 1 0
1  165 0 0 9.525
3  99 100CN 45 0 0 9.525
0

0101000
+346 0 -468 0 *
Ve
1e-07
-6.73555739531e-16 2.9 -7.25
0 0

0101101
*
Ed
 1e-07 1 1 0
1  166 0 2.9 9.525
3  101 102CN 46 0 2.9 9.525
0

0101000
+289 0 -466 0 *
Ed
 1e-07 1 1 0
1  167 0 0 6.28318530717959
2  103 46 0 0 6.28318530717959
2  104 82 0 0 6.28318530717959
4 C0 46 0 82 0
0

0101000
+289 0 -289 0 *
Ed
 1e-07 1 1 0
1  168 0 0 9.525
3  105 106CN 47 0 0 9.525
0

0101000
+342 0 -464 0 *
Ed
 1e-07 1 1 0
1  169 0 1 9.525
2  107 55 0 1 9.525
4 G1 56 0 55 0
0

0101000
+443 0 -433 0 *
Ve
1e-07
24 0 -8
0 0

0101101
*
Ed
 1e-07 1 1 0
1  170 0 1 9.525
2  108 49 0 1 9.525
4 G1 48 0 49 0
0

0101000
+457 0 -284 0 *
Ed
 1e-07 1 1 0
1  171 0 2 25
4 C0 48 0 94 0
0

0101000
+284 0 -399 0 *
Ed
 1e-07 1 1 0
1  172 0 1 9.525
2  109 55 0 1 9.525
4 G1 55 0 54 0
0

0101000
+445 0 -431 0 *
Ve
1e-07
26 0 -10
0 0

0101101
*
Ed
 1e-07 1 1 0
1  173 0 0 1.5707963267949
2  110 49 0 0 1.5707963267949
4 C0 49 0 94 0
0

0101000
+280 0 -284 0 *
Ed
 1e-07 1 1 0
1  174 0 1 9.525
2  111 49 0 1 9.525
4 G1 49 0 50 0
0

0101000
+455 0 -280 0 *
Ed
 1e-07 1 1 0
1  175 0 1 9.525
2  112 53 0 1 9.525
4 G1 54 0 53 0
0

0101000
+447 0 -429 0 *
Ve
1e-07
32 0 -10
0 0

0101101
*
Ed
 1e-07 1 1 0
1  176 0 1 9.525
2  113 51 0 1 9.525
4 G1 50 0 51 0
0

0101000
+453 0 -276 0 *
Ed
 1e-07 1 1 0
1  177 0 2 8
4 C0 50 0 94 0
0

0101000
+276 0 -280 0 *
Ed
 1e-07 1 1 0
1  178 0 1 9.525
2  114 53 0 1 9.525
4 G1 53 0 52 0
0

0101000
+449 0 -427 0 *
Ve
1e-07
34 0 -8
0 0

0101101
*
Ed
 1e-07 1 1 0
1  179 0 4.71238898038469 6.28318530717959
2  115 51 0 4.71238898038469 6.28318530717959
4 C0 51 0 94 0
0

0101000
+272 0 -276 0 *
Ed
 1e-07 1 1 0
1  180 0 1 9.525
2  116 51 0 1 9.525
4 G1 51 0 52 0
0

0101000
+451 0 -272 0 *
Ed
 1e-07 1 1 0
1  181 0 6.464101615138 30
4 C0 52 0 94 0
0

0101000
+425 0 -272 0 *
Ed
 1e-07 1 1 0
1  182 0 1 9.525
2  117 79 0 1 9.525
4 G1 80 0 79 0
0

0101000
+337 0 -355 0 *
Ed
 1e-07 1 1 0
1  183 0 1 9.525
2  118 79 0 1 9.525
4 G1 79 0 78 0
0

0101000
+335 0 -357 0 *
Ed
 1e-07 1 1 0
1  184 0 1 9.525
2  119 77 0 1 9.525
4 G1 78 0 77 0
0

0101000
+333 0 -359 0 *
Ed
 1e-07 1 1 0
1  185 0 1 9.525
2  120 77 0 1 9.525
4 G1 77 0 76 0
0

0101000
+331 0 -361 0 *
Ve
1e-07
-34 0 -8
0 0

0101101
*
Ed
 1e-07 1 1 0
1  186 0 1 9.525
2  121 83 0 1 9.525
4 G1 76 0 83 0
0

0101000
+329 0 -264 0 *
Ed
 1e-07 1 1 0
1  187 0 2 25.535898384862
4 C0 76 0 95 0
0

0101000
+264 0 -363 0 *
Ve
1e-07
-32 4.440892098501e-16 15
0 0

0101101
*
Ed
 1e-07 1 1 0
1  188 0 0 0.523598775598268
2  122 75 0 0 0.523598775598268
4 G1 75 0 95 0
0

0101000
+261 0 -363 0 *
Ve
1e-07
-34 -2 19
0 0

0101101
*
Ed
 1e-07 1 1 0
1  189 0 3.14159265358979 4.71238898038469
2  123 74 0 3.14159265358979 4.71238898038469
2  124 75 0 3.14159265358979 4.71238898038469
4 G1 75 0 74 0
0

0101000
+259 0 -365 0 *
Ve
1e-07
-32 -2 17
0 0

0101101
*
Ed
 1e-07 1 1 0
1  190 0 0 1.5707963267949
2  125 75 0 0 1.5707963267949
2  126 96 0 0 1.5707963267949
4 G1 75 0 96 0
0

0101000
+257 0 -259 0 *
Ed
 1e-07 1 1 0
1  191 0 0 1.5707963267949
2  127 67 0 0 1.5707963267949
2  128 75 0 0 1.5707963267949
4 G1 75 0 67 0
0

0101000
+257 0 -261 0 *
Ve
1e-07
-34 -2 20
0 0

0101101
*
Ed
 1e-07 1 1 0
1  192 0 0 1.5707963267949
2  129 74 0 0 1.5707963267949
2  130 97 0 0 1.5707963267949
4 G1 74 0 97 0
0

0101000
+254 0 -367 0 *
Ed
 1e-07 1 1 0
1  193 0 0 1
2  131 74 0 0 1
4 G1 74 0 98 0
0

0101000
+259 0 -254 0 *
Ve
1e-07
-36 -2 22
0 0

0101101
*
Ed
 1e-07 1 1 0
1  194 0 0 1.5707963267949
2  132 73 0 0 1.5707963267949
2  133 97 0 0 1.5707963267949
4 G1 73 0 97 0
0

0101000
+251 0 -367 0 *
Ve
1e-07
-52 -2 22
0 0

0101101
*
Ed
 1e-07 1 1 0
1  195 0 0 1.5707963267949
2  134 73 0 0 1.5707963267949
2  135 99 0 0 1.5707963267949
4 G1 73 0 99 0
0

0101000
+249 0 -369 0 *
Ed
 1e-07 1 1 0
1  196 0 0 16
2  136 73 0 0 16
4 G1 73 0 100 0
0

0101000
+251 0 -249 0 *
Ve
1e-07
-54 -2 20
0 0

0101101
*
Ed
 1e-07 1 1 0
1  197 0 0 1.5707963267949
2  137 72 0 0 1.5707963267949
2  138 99 0 0 1.5707963267949
4 G1 72 0 99 0
0

0101000
+246 0 -369 0 *
Ve
1e-07
-54 -2 -18
0 0

0101101
*
Ed
 1e-07 1 1 0
1  198 0 0 1.5707963267949
2  139 72 0 0 1.5707963267949
2  140 101 0 0 1.5707963267949
4 G1 72 0 101 0
0

0101000
+244 0 -371 0 *
Ed
 1e-07 1 1 0
1  199 0 0 38
2  141 72 0 0 38
4 G1 72 0 102 0
0

0101000
+246 0 -244 0 *
Ve
1e-07
-52 -2 -20
0 0

0101101
*
Ed
 1e-07 1 1 0
1  200 0 0 1.5707963267949
2  142 71 0 0 1.5707963267949
2  143 101 0 0 1.5707963267949
4 G1 71 0 101 0
0

0101000
+241 0 -371 0 *
Ve
1e-07
-14 -2 -20
0 0

0101101
*
Ed
 1e-07 1 1 0
1  201 0 0 1.5707963267949
2  144 71 0 0 1.5707963267949
2  145 103 0 0 1.5707963267949
4 G1 71 0 103 0
0

0101000
+239 0 -373 0 *
Ed
 1e-07 1 1 0
1  202 0 0 38
2  146 71 0 0 38
4 G1 71 0 104 0
0

0101000
+241 0 -239 0 *
Ve
1e-07
-12 -2 -18
0 0

0101101
*
Ve
1e-07
-12 -2 15
0 0

0101101
*
Ed
 1e-07 1 1 0
1  203 0 0 33
2  147 68 0 0 33
4 G1 68 0 105 0
0

0101000
+236 0 -235 0 *
Ed
 1e-07 1 1 0
1  204 0 0 1.5707963267949
2  148 68 0 0 1.5707963267949
2  149 103 0 0 1.5707963267949
4 G1 68 0 103 0
0

0101000
+236 0 -373 0 *
Ed
 1.01495050392999e-07 1 1 0
1  205 0 0 1
2  150 68 0 0 1
2  151 70 0 0 1
4 C0 68 0 70 0
0

0101000
+379 0 -375 0 *
Ed
 1.01495052113452e-07 1 1 0
1  206 0 0 1
2  152 68 0 0 1
2  153 69 0 0 1
4 C0 68 0 69 0
0

0101000
+385 0 -381 0 *
Ed
 1e-07 1 1 0
1  207 0 0 1.5707963267949
2  154 68 0 0 1.5707963267949
2  155 106 0 0 1.5707963267949
4 G1 68 0 106 0
0

0101000
+235 0 -387 0 *
Ve
1e-07
-16 -15.875 -5.4
0 0

0101101
*
Ed
 1e-07 1 1 0
1  208 0 0 15.875
3  156 157CN 70 0 0 15.875
0

0101000
+229 0 -377 0 *
Ed
 1e-07 1 1 0
1  209 0 0 6.28318530717959
2  158 70 0 0 6.28318530717959
4 C0 70 0 107 0
0

0101000
+229 0 -229 0 *
Ve
1e-07
-16 -15.875 10.6
0 0

0101101
*
Ed
 1e-07 1 1 0
1  210 0 0 15.875
3  159 160CN 69 0 0 15.875
0

0101000
+226 0 -383 0 *
Ed
 1e-07 1 1 0
1  211 0 0 6.28318530717959
2  161 69 0 0 6.28318530717959
4 C0 69 0 107 0
0

0101000
+226 0 -226 0 *
Ve
1e-07
-14 -2 17
0 0

0101101
*
Ed
 1e-07 1 1 0
1  212 0 0 1.5707963267949
2  162 67 0 0 1.5707963267949
2  163 106 0 0 1.5707963267949
4 G1 67 0 106 0
0

0101000
+223 0 -387 0 *
Ed
 1e-07 1 1 0
1  213 0 10 18
2  164 67 0 10 18
4 G1 67 0 95 0
0

0101000
+389 0 -261 0 *
Ed
 1e-07 1 1 0
1  214 0 0 18
2  165 67 0 0 18
4 G1 67 0 108 0
0

0101000
+223 0 -257 0 *
Ve
1e-07
-24 0 -8
0 0

0101101
*
Ed
 1e-07 1 1 0
1  215 0 5 28
4 C0 66 0 95 0
0

0101000
+389 0 -219 0 *
Ed
 1e-07 1 1 0
1  216 0 1 9.525
2  166 85 0 1 9.525
4 G1 66 0 85 0
0

0101000
+323 0 -219 0 *
Ve
1e-07
32 -2 17
0 0

0101101
*
Ve
1e-07
32 0 15
0 0

0101101
*
Ed
 1e-07 1 1 0
1  217 0 3.14159265358979 4.71238898038469
2  167 65 0 3.14159265358979 4.71238898038469
2  168 57 0 3.14159265358979 4.71238898038469
4 G1 65 0 57 0
0

0101000
+216 0 -215 0 *
Ed
 1e-07 1 1 0
1  218 0 0 8
2  169 65 0 0 8
4 G1 65 0 94 0
0

0101000
+215 0 -399 0 *
Ve
1e-07
14 -2 17
0 0

0101101
*
Ed
 1e-07 1 1 0
1  219 0 0 1.5707963267949
2  170 65 0 0 1.5707963267949
2  171 109 0 0 1.5707963267949
4 G1 65 0 109 0
0

0101000
+212 0 -401 0 *
Ed
 1e-07 1 1 0
1  220 0 0 18
2  172 65 0 0 18
4 G1 65 0 110 0
0

0101000
+216 0 -212 0 *
Ve
1e-07
12 -2 15
0 0

0101101
*
Ve
1e-07
12 -2 -18
0 0

0101101
*
Ed
 1e-07 1 1 0
1  221 0 0 33
2  173 62 0 0 33
4 G1 62 0 111 0
0

0101000
+209 0 -208 0 *
Ed
 1e-07 1 1 0
1  222 0 0 1.5707963267949
2  174 62 0 0 1.5707963267949
2  175 109 0 0 1.5707963267949
4 G1 62 0 109 0
0

0101000
+209 0 -401 0 *
Ed
 1.01496119148891e-07 1 1 0
1  223 0 0 1
2  176 62 0 0 1
2  177 64 0 0 1
4 C0 62 0 64 0
0

0101000
+407 0 -403 0 *
Ed
 1.01496117428437e-07 1 1 0
1  224 0 0 1
2  178 62 0 0 1
2  179 63 0 0 1
4 C0 62 0 63 0
0

0101000
+413 0 -409 0 *
Ed
 1e-07 1 1 0
1  225 0 0 1.5707963267949
2  180 62 0 0 1.5707963267949
2  181 112 0 0 1.5707963267949
4 G1 62 0 112 0
0

0101000
+208 0 -415 0 *
Ve
1e-07
16 -15.875 10.6
0 0

0101101
*
Ed
 1e-07 1 1 0
1  226 0 0 15.875
3  182 183CN 64 0 0 15.875
0

0101000
+202 0 -405 0 *
Ed
 1e-07 1 1 0
1  227 0 0 6.28318530717959
2  184 64 0 0 6.28318530717959
4 C0 64 0 113 0
0

0101000
+202 0 -202 0 *
Ve
1e-07
16 -15.875 -5.4
0 0

0101101
*
Ed
 1e-07 1 1 0
1  228 0 0 15.875
3  185 186CN 63 0 0 15.875
0

0101000
+199 0 -411 0 *
Ed
 1e-07 1 1 0
1  229 0 0 6.28318530717959
2  187 63 0 0 6.28318530717959
4 C0 63 0 113 0
0

0101000
+199 0 -199 0 *
Ve
1e-07
14 -2 -20
0 0

0101101
*
Ed
 1e-07 1 1 0
1  230 0 0 1.5707963267949
2  188 61 0 0 1.5707963267949
2  189 112 0 0 1.5707963267949
4 G1 61 0 112 0
0

0101000
+196 0 -415 0 *
Ve
1e-07
52 -2 -20
0 0

0101101
*
Ed
 1e-07 1 1 0
1  231 0 0 1.5707963267949
2  190 61 0 0 1.5707963267949
2  191 114 0 0 1.5707963267949
4 G1 61 0 114 0
0

0101000
+194 0 -417 0 *
Ed
 1e-07 1 1 0
1  232 0 0 38
2  192 61 0 0 38
4 G1 61 0 115 0
0

0101000
+196 0 -194 0 *
Ve
1e-07
54 -2 -18
0 0

0101101
*
Ed
 1e-07 1 1 0
1  233 0 0 1.5707963267949
2  193 60 0 0 1.5707963267949
2  194 114 0 0 1.5707963267949
4 G1 60 0 114 0
0

0101000
+191 0 -417 0 *
Ve
1e-07
54 -2 20
0 0

0101101
*
Ed
 1e-07 1 1 0
1  234 0 0 1.5707963267949
2  195 60 0 0 1.5707963267949
2  196 116 0 0 1.5707963267949
4 G1 60 0 116 0
0

0101000
+189 0 -419 0 *
Ed
 1e-07 1 1 0
1  235 0 0 38
2  197 60 0 0 38
4 G1 60 0 117 0
0

0101000
+191 0 -189 0 *
Ve
1e-07
52 -2 22
0 0

0101101
*
Ed
 1e-07 1 1 0
1  236 0 0 1.5707963267949
2  198 59 0 0 1.5707963267949
2  199 116 0 0 1.5707963267949
4 G1 59 0 116 0
0

0101000
+186 0 -419 0 *
Ve
1e-07
36 -2 22
0 0

0101101
*
Ed
 1e-07 1 1 0
1  237 0 0 1.5707963267949
2  200 59 0 0 1.5707963267949
2  201 118 0 0 1.5707963267949
4 G1 59 0 118 0
0

0101000
+184 0 -421 0 *
Ed
 1e-07 1 1 0
1  238 0 0 16
2  202 59 0 0 16
4 G1 59 0 119 0
0

0101000
+186 0 -184 0 *
Ve
1e-07
34 -2 20
0 0

0101101
*
Ed
 1e-07 1 1 0
1  239 0 0 1.5707963267949
2  203 58 0 0 1.5707963267949
2  204 118 0 0 1.5707963267949
4 G1 58 0 118 0
0

0101000
+181 0 -421 0 *
Ve
1e-07
34 -2 19
0 0

0101101
*
Ed
 1e-07 1 1 0
1  240 0 0 1.5707963267949
2  205 58 0 0 1.5707963267949
2  206 57 0 0 1.5707963267949
4 G1 58 0 57 0
0

0101000
+179 0 -423 0 *
Ed
 1e-07 1 1 0
1  241 0 0 1
2  207 58 0 0 1
4 G1 58 0 120 0
0

0101000
+181 0 -179 0 *
Ed
 1e-07 1 1 0
1  242 0 1.04719755119663 1.5707963267949
2  208 57 0 1.04719755119663 1.5707963267949
4 G1 57 0 94 0
0

0101000
+425 0 -215 0 *
Ed
 1e-07 1 1 0
1  243 0 0 1.5707963267949
2  209 57 0 0 1.5707963267949
2  210 121 0 0 1.5707963267949
4 G1 57 0 121 0
0

0101000
+179 0 -216 0 *
Ed
 1e-07 1 1 0
1  244 0 0 4.10121933088198
3  211 212CN 81 0 0 4.10121933088198
0

0101000
+348 0 -293 0 *
Ed
 1e-07 1 1 0
1  245 0 0 4.10121933088198
3  213 214CN 82 0 0 4.10121933088198
0

0101000
+344 0 -289 0 *
Ve
1e-07
-26 0 -10
0 0

0101101
*
Ed
 1e-07 1 1 0
1  246 0 4.71238898038469 6.28318530717959
2  215 85 0 4.71238898038469 6.28318530717959
4 C0 85 0 95 0
0

0101000
+219 0 -172 0 *
Ed
 1e-07 1 1 0
1  247 0 1 9.525
2  216 85 0 1 9.525
4 G1 85 0 84 0
0

0101000
+325 0 -172 0 *
Ve
1e-07
-32 0 -10
0 0

0101101
*
Ed
 1e-07 1 1 0
1  248 0 2 8
4 C0 84 0 95 0
0

0101000
+172 0 -169 0 *
Ed
 1e-07 1 1 0
1  249 0 1 9.525
2  217 83 0 1 9.525
4 G1 84 0 83 0
0

0101000
+327 0 -169 0 *
Ed
 1e-07 1 1 0
1  250 0 0 1.5707963267949
2  218 83 0 0 1.5707963267949
4 C0 83 0 95 0
0

0101000
+169 0 -264 0 *
Ve
1e-07
-48.2 8.005 -19.2
0 0

0101101
*
Ed
 1e-07 1 1 0
1  251 0 0 0.52
2  219 86 0 0 0.52
4 G1 86 0 87 0
0

0101000
+165 0 -316 0 *
Ve
1e-07
-50.2 8.005 -17.2
0 0

0101101
*
Ed
 1e-07 1 1 0
1  252 0 3.14159265358979 4.71238898038469
2  220 86 0 3.14159265358979 4.71238898038469
4 C0 86 0 122 0
0

0101000
+165 0 -163 0 *
Ed
 1e-07 1 1 0
1  253 0 0 0.52
2  221 86 0 0 0.52
4 G1 86 0 93 0
0

0101000
+163 0 -315 0 *
Ve
1e-07
-50.2 8.005 19.2
0 0

0101101
*
Ed
 1e-07 1 1 0
1  254 0 0 0.52
2  222 92 0 0 0.52
4 G1 93 0 92 0
0

0101000
+160 0 -303 0 *
Ed
 1e-07 1 1 0
1  255 0 0 36.4
4 C0 93 0 123 0
0

0101000
+163 0 -160 0 *
Ve
1e-07
-48.2 8.005 21.2
0 0

0101101
*
Ed
 1e-07 1 1 0
1  256 0 4.71238898038469 6.28318530717959
2  223 92 0 4.71238898038469 6.28318530717959
4 C0 92 0 124 0
0

0101000
+160 0 -157 0 *
Ed
 1e-07 1 1 0
1  257 0 0 0.52
2  224 92 0 0 0.52
4 G1 92 0 91 0
0

0101000
+157 0 -305 0 *
Ve
1e-07
-39.8 8.005 21.2
0 0

0101101
*
Ed
 1e-07 1 1 0
1  258 0 0 8.40000000000001
4 C0 91 0 125 0
0

0101000
+157 0 -154 0 *
Ed
 1e-07 1 1 0
1  259 0 0 0.52
2  225 90 0 0 0.52
4 G1 91 0 90 0
0

0101000
+154 0 -307 0 *
Ve
1e-07
-37.8 8.005 19.2
0 0

0101101
*
Ed
 1e-07 1 1 0
1  260 0 0 1.5707963267949
2  226 90 0 0 1.5707963267949
4 C0 90 0 126 0
0

0101000
+154 0 -151 0 *
Ed
 1e-07 1 1 0
1  261 0 0 0.52
2  227 90 0 0 0.52
4 G1 90 0 89 0
0

0101000
+151 0 -309 0 *
Ve
1e-07
-37.8 8.005 -17.2
0 0

0101101
*
Ed
 1e-07 1 1 0
1  262 0 0 36.4
4 C0 89 0 127 0
0

0101000
+148 0 -151 0 *
Ed
 1e-07 1 1 0
1  263 0 0 0.52
2  228 88 0 0 0.52
4 G1 89 0 88 0
0

0101000
+148 0 -311 0 *
Ve
1e-07
-39.8 8.005 -19.2
0 0

0101101
*
Ed
 1e-07 1 1 0
1  264 0 1.5707963267949 3.14159265358979
2  229 88 0 1.5707963267949 3.14159265358979
4 C0 88 0 128 0
0

0101000
+148 0 -145 0 *
Ed
 1e-07 1 1 0
1  265 0 0 0.52
2  230 88 0 0 0.52
4 G1 88 0 87 0
0

0101000
+145 0 -313 0 *
Ed
 1e-07 1 1 0
1  266 0 0 8.40000000000001
4 C0 87 0 129 0
0

0101000
+165 0 -145 0 *
Ve
1e-07
-32 -15.875 17
0 0

0101101
*
Ve
1e-07
-34 -15.875 19
0 0

0101101
*
Ed
 1e-07 1 1 0
1  267 0 0 1.5707963267949
2  231 96 0 0 1.5707963267949
4 C0 96 0 107 0
0

0101000
+141 0 -140 0 *
Ed
 1e-07 1 1 0
1  268 0 2 15.875
2  232 96 0 2 15.875
4 G1 96 0 98 0
0

0101000
+259 0 -140 0 *
Ed
 1e-07 1 1 0
1  269 0 2 15.875
2  233 96 0 2 15.875
4 G1 96 0 108 0
0

0101000
+257 0 -141 0 *
Ve
1e-07
-34 -15.875 20
0 0

0101101
*
Ed
 1e-07 1 1 0
1  270 0 2 3
4 C0 98 0 107 0
0

0101000
+140 0 -136 0 *
Ed
 1e-07 1 1 0
1  271 0 2 15.875
2  234 130 0 2 15.875
4 G1 98 0 130 0
0

0101000
+254 0 -136 0 *
Ed
 1e-07 1 1 1
2  235 97 0 0 1.570796326795
0

0101000
+367 0 -367 0 *
Ed
 1e-07 1 1 0
1  272 0 0 1.5707963267949
2  236 130 0 0 1.5707963267949
2  237 97 0 0 1.5707963267949
4 G1 97 0 130 0
0

0101000
+254 0 -251 0 *
Ve
1e-07
-36 -15.875 22
0 0

0101101
*
Ed
 1e-07 1 1 0
1  273 0 2 15.875
2  238 130 0 2 15.875
4 G1 100 0 130 0
0

0101000
+251 0 -131 0 *
Ve
1e-07
-52 -15.875 22
0 0

0101101
*
Ed
 1e-07 1 1 0
1  274 0 2 18
4 C0 100 0 107 0
0

0101000
+131 0 -129 0 *
Ed
 1e-07 1 1 0
1  275 0 2 15.875
2  239 131 0 2 15.875
4 G1 100 0 131 0
0

0101000
+249 0 -129 0 *
Ed
 1e-07 1 1 1
2  240 99 0 0 1.570796326795
0

0101000
+369 0 -369 0 *
Ed
 1e-07 1 1 0
1  276 0 0 1.5707963267949
2  241 131 0 0 1.5707963267949
2  242 99 0 0 1.5707963267949
4 G1 99 0 131 0
0

0101000
+249 0 -246 0 *
Ve
1e-07
-54 -15.875 20
0 0

0101101
*
Ed
 1e-07 1 1 0
1  277 0 2 15.875
2  243 131 0 2 15.875
4 G1 102 0 131 0
0

0101000
+246 0 -124 0 *
Ve
1e-07
-54 -15.875 -18
0 0

0101101
*
Ed
 1e-07 1 1 0
1  278 0 2 40
4 C0 102 0 107 0
0

0101000
+124 0 -122 0 *
Ed
 1e-07 1 1 0
1  279 0 2 15.875
2  244 132 0 2 15.875
4 G1 102 0 132 0
0

0101000
+244 0 -122 0 *
Ed
 1e-07 1 1 1
2  245 101 0 0 1.570796326795
0

0101000
+371 0 -371 0 *
Ed
 1e-07 1 1 0
1  280 0 0 1.5707963267949
2  246 132 0 0 1.5707963267949
2  247 101 0 0 1.5707963267949
4 G1 101 0 132 0
0

0101000
+244 0 -241 0 *
Ve
1e-07
-52 -15.875 -20
0 0

0101101
*
Ed
 1e-07 1 1 0
1  281 0 2 15.875
2  248 132 0 2 15.875
4 G1 104 0 132 0
0

0101000
+241 0 -117 0 *
Ve
1e-07
-14 -15.875 -20
0 0

0101101
*
Ed
 1e-07 1 1 0
1  282 0 2 40
4 C0 104 0 107 0
0

0101000
+117 0 -115 0 *
Ed
 1e-07 1 1 0
1  283 0 2 15.875
2  249 133 0 2 15.875
4 G1 104 0 133 0
0

0101000
+239 0 -115 0 *
Ed
 1e-07 1 1 1
2  250 103 0 0 1.570796326795
0

0101000
+373 0 -373 0 *
Ed
 1e-07 1 1 0
1  284 0 0 1.5707963267949
2  251 133 0 0 1.5707963267949
2  252 103 0 0 1.5707963267949
4 G1 103 0 133 0
0

0101000
+239 0 -236 0 *
Ve
1e-07
-12 -15.875 -18
0 0

0101101
*
Ed
 1e-07 1 1 0
1  285 0 2 15.875
2  253 133 0 2 15.875
4 G1 105 0 133 0
0

0101000
+236 0 -110 0 *
Ve
1e-07
-12 -15.875 15
0 0

0101101
*
Ed
 1e-07 1 1 0
1  286 0 2 35
4 C0 105 0 107 0
0

0101000
+110 0 -108 0 *
Ed
 1e-07 1 1 0
1  287 0 2 15.875
2  254 134 0 2 15.875
4 G1 105 0 134 0
0

0101000
+235 0 -108 0 *
Ed
 1e-07 1 1 1
2  255 106 0 0 1.570796326795
0

0101000
+387 0 -387 0 *
Ed
 1e-07 1 1 0
1  288 0 0 1.5707963267949
2  256 106 0 0 1.5707963267949
2  257 134 0 0 1.5707963267949
4 G1 106 0 134 0
0

0101000
+235 0 -223 0 *
Ve
1e-07
-14 -15.875 17
0 0

0101101
*
Ed
 1e-07 1 1 0
1  289 0 2 20
4 C0 107 0 108 0
0

0101000
+103 0 -141 0 *
Ed
 1e-07 1 1 0
1  290 0 1.5707963267949 3.14159265358979
2  258 130 0 1.5707963267949 3.14159265358979
4 C0 107 0 130 0
0

0101000
+136 0 -131 0 *
Ed
 1e-07 1 1 0
1  291 0 3.14159265358979 4.71238898038469
2  259 131 0 3.14159265358979 4.71238898038469
4 C0 107 0 131 0
0

0101000
+129 0 -124 0 *
Ed
 1e-07 1 1 0
1  292 0 4.71238898038469 6.28318530717959
2  260 132 0 4.71238898038469 6.28318530717959
4 C0 107 0 132 0
0

0101000
+122 0 -117 0 *
Ed
 1e-07 1 1 0
1  293 0 0 1.5707963267949
2  261 133 0 0 1.5707963267949
4 C0 107 0 133 0
0

0101000
+115 0 -110 0 *
Ed
 1e-07 1 1 0
1  294 0 3.14159265358979 4.71238898038469
2  262 134 0 3.14159265358979 4.71238898038469
4 C0 107 0 134 0
0

0101000
+103 0 -108 0 *
Ed
 1e-07 1 1 0
1  295 0 2 15.875
2  263 134 0 2 15.875
4 G1 108 0 134 0
0

0101000
+223 0 -103 0 *
Ve
1e-07
32 -15.875 17
0 0

0101101
*
Ed
 1e-07 1 1 0
1  296 0 2 15.875
2  264 121 0 2 15.875
4 G1 110 0 121 0
0

0101000
+216 0 -95 0 *
Ve
1e-07
14 -15.875 17
0 0

0101101
*
Ed
 1e-07 1 1 0
1  297 0 2 20
4 C0 110 0 113 0
0

0101000
+95 0 -93 0 *
Ed
 1e-07 1 1 0
1  298 0 2 15.875
2  265 135 0 2 15.875
4 G1 110 0 135 0
0

0101000
+212 0 -93 0 *
Ed
 1e-07 1 1 1
2  266 109 0 0 1.570796326795
0

0101000
+401 0 -401 0 *
Ed
 1e-07 1 1 0
1  299 0 0 1.5707963267949
2  267 135 0 0 1.5707963267949
2  268 109 0 0 1.5707963267949
4 G1 109 0 135 0
0

0101000
+212 0 -209 0 *
Ve
1e-07
12 -15.875 15
0 0

0101101
*
Ed
 1e-07 1 1 0
1  300 0 2 15.875
2  269 135 0 2 15.875
4 G1 111 0 135 0
0

0101000
+209 0 -88 0 *
Ve
1e-07
12 -15.875 -18
0 0

0101101
*
Ed
 1e-07 1 1 0
1  301 0 2 35
4 C0 111 0 113 0
0

0101000
+88 0 -86 0 *
Ed
 1e-07 1 1 0
1  302 0 2 15.875
2  270 136 0 2 15.875
4 G1 111 0 136 0
0

0101000
+208 0 -86 0 *
Ed
 1e-07 1 1 1
2  271 112 0 0 1.570796326795
0

0101000
+415 0 -415 0 *
Ed
 1e-07 1 1 0
1  303 0 0 1.5707963267949
2  272 112 0 0 1.5707963267949
2  273 136 0 0 1.5707963267949
4 G1 112 0 136 0
0

0101000
+208 0 -196 0 *
Ve
1e-07
14 -15.875 -20
0 0

0101101
*
Ve
1e-07
52 -15.875 -20
0 0

0101101
*
Ed
 1e-07 1 1 0
1  304 0 2 40
4 C0 113 0 115 0
0

0101000
+81 0 -80 0 *
Ve
1e-07
54 -15.875 -18
0 0

0101101
*
Ed
 1e-07 1 1 0
1  305 0 0 1.5707963267949
2  274 137 0 0 1.5707963267949
4 C0 113 0 137 0
0

0101000
+80 0 -78 0 *
Ve
1e-07
54 -15.875 20
0 0

0101101
*
Ed
 1e-07 1 1 0
1  306 0 2 40
4 C0 113 0 117 0
0

0101000
+78 0 -76 0 *
Ve
1e-07
52 -15.875 22
0 0

0101101
*
Ed
 1e-07 1 1 0
1  307 0 1.5707963267949 3.14159265358979
2  275 138 0 1.5707963267949 3.14159265358979
4 C0 113 0 138 0
0

0101000
+76 0 -74 0 *
Ve
1e-07
36 -15.875 22
0 0

0101101
*
Ed
 1e-07 1 1 0
1  308 0 2 18
4 C0 113 0 119 0
0

0101000
+74 0 -72 0 *
Ve
1e-07
34 -15.875 20
0 0

0101101
*
Ed
 1e-07 1 1 0
1  309 0 3.14159265358979 4.71238898038469
2  276 139 0 3.14159265358979 4.71238898038469
4 C0 113 0 139 0
0

0101000
+72 0 -70 0 *
Ve
1e-07
34 -15.875 19
0 0

0101101
*
Ed
 1e-07 1 1 0
1  310 0 2 3
4 C0 113 0 120 0
0

0101000
+70 0 -68 0 *
Ed
 1e-07 1 1 0
1  311 0 4.71238898038469 6.28318530717959
2  277 121 0 4.71238898038469 6.28318530717959
4 C0 113 0 121 0
0

0101000
+68 0 -95 0 *
Ed
 1e-07 1 1 0
1  312 0 3.14159265358979 4.71238898038469
2  278 135 0 3.14159265358979 4.71238898038469
4 C0 113 0 135 0
0

0101000
+93 0 -88 0 *
Ed
 1e-07 1 1 0
1  313 0 0 1.5707963267949
2  279 136 0 0 1.5707963267949
4 C0 113 0 136 0
0

0101000
+81 0 -86 0 *
Ed
 1e-07 1 1 0
1  314 0 2 15.875
2  280 136 0 2 15.875
4 G1 115 0 136 0
0

0101000
+196 0 -81 0 *
Ed
 1e-07 1 1 0
1  315 0 2 15.875
2  281 137 0 2 15.875
4 G1 115 0 137 0
0

0101000
+194 0 -80 0 *
Ed
 1e-07 1 1 1
2  282 114 0 0 1.570796326795
0

0101000
+417 0 -417 0 *
Ed
 1e-07 1 1 0
1  316 0 0 1.5707963267949
2  283 137 0 0 1.5707963267949
2  284 114 0 0 1.5707963267949
4 G1 114 0 137 0
0

0101000
+194 0 -191 0 *
Ed
 1e-07 1 1 0
1  317 0 2 15.875
2  285 137 0 2 15.875
4 G1 117 0 137 0
0

0101000
+191 0 -78 0 *
Ed
 1e-07 1 1 0
1  318 0 2 15.875
2  286 138 0 2 15.875
4 G1 117 0 138 0
0

0101000
+189 0 -76 0 *
Ed
 1e-07 1 1 1
2  287 116 0 0 1.570796326795
0

0101000
+419 0 -419 0 *
Ed
 1e-07 1 1 0
1  319 0 0 1.5707963267949
2  288 138 0 0 1.5707963267949
2  289 116 0 0 1.5707963267949
4 G1 116 0 138 0
0

0101000
+189 0 -186 0 *
Ed
 1e-07 1 1 0
1  320 0 2 15.875
2  290 138 0 2 15.875
4 G1 119 0 138 0
0

0101000
+186 0 -74 0 *
Ed
 1e-07 1 1 0
1  321 0 2 15.875
2  291 139 0 2 15.875
4 G1 119 0 139 0
0

0101000
+184 0 -72 0 *
Ed
 1e-07 1 1 1
2  292 118 0 0 1.570796326795
0

0101000
+421 0 -421 0 *
Ed
 1e-07 1 1 0
1  322 0 0 1.5707963267949
2  293 139 0 0 1.5707963267949
2  294 118 0 0 1.5707963267949
4 G1 118 0 139 0
0

0101000
+184 0 -181 0 *
Ed
 1e-07 1 1 0
1  323 0 2 15.875
2  295 139 0 2 15.875
4 G1 120 0 139 0
0

0101000
+181 0 -70 0 *
Ed
 1e-07 1 1 0
1  324 0 2 15.875
2  296 121 0 2 15.875
4 G1 120 0 121 0
0

0101000
+179 0 -68 0 *
Ve
1e-07
-48.2 8.005 -17.2
0 0

0101101
*
Ed
 1e-07 1 1 0
1  325 0 0 2
4 CN 122 0 140 0
0

0101000
+165 0 -49 0 *
Ed
 1e-07 1 1 0
1  326 0 0 2
4 CN 122 0 141 0
0

0101000
+163 0 -49 0 *
Ve
1e-07
-48.2 8.005 -15.2
0 0

0101101
*
Ed
 1e-07 1 1 0
1  327 0 4.71238898038469 6.28318530717959
4 CN 123 0 141 0
0

0101000
+163 0 -46 0 *
Ve
1e-07
-48.2 8.005 17.2
0 0

0101101
*
Ed
 1e-07 1 1 0
1  328 0 3.14159265358979 4.71238898038469
4 CN 123 0 142 0
0

0101000
+44 0 -160 0 *
Ed
 1e-07 1 1 0
1  329 0 4 36.4
4 CN 123 0 143 0
0

0101000
+46 0 -44 0 *
Ve
1e-07
-48.2 8.005 19.2
0 0

0101101
*
Ed
 1e-07 1 1 0
1  330 0 0 2
4 CN 124 0 142 0
0

0101000
+160 0 -41 0 *
Ed
 1e-07 1 1 0
1  331 0 38.4 40.4
4 CN 124 0 144 0
0

0101000
+41 0 -157 0 *
Ve
1e-07
-41.8 8.005 19.2
0 0

0101101
*
Ed
 1e-07 1 1 0
1  332 0 4.71238898038469 6.28318530717959
4 CN 125 0 145 0
0

0101000
+38 0 -154 0 *
Ve
1e-07
-46.2 8.005 19.2
0 0

0101101
*
Ed
 1e-07 1 1 0
1  333 0 4 8.40000000000001
4 CN 125 0 143 0
0

0101000
+36 0 -38 0 *
Ed
 1e-07 1 1 0
1  334 0 0 1.5707963267949
4 CN 125 0 144 0
0

0101000
+157 0 -36 0 *
Ve
1e-07
-39.8 8.005 19.2
0 0

0101101
*
Ed
 1e-07 1 1 0
1  335 0 38.4 40.4
4 CN 126 0 145 0
0

0101000
+33 0 -154 0 *
Ed
 1e-07 1 1 0
1  336 0 10.4 12.4
4 CN 126 0 146 0
0

0101000
+33 0 -151 0 *
Ve
1e-07
-39.8 8.005 17.2
0 0

0101101
*
Ed
 1e-07 1 1 0
1  337 0 1.5707963267949 3.14159265358979
4 CN 127 0 146 0
0

0101000
+151 0 -30 0 *
Ve
1e-07
-39.8 8.005 -15.2
0 0

0101101
*
Ed
 1e-07 1 1 0
1  338 0 0 1.5707963267949
4 CN 127 0 147 0
0

0101000
+28 0 -148 0 *
Ed
 1e-07 1 1 0
1  339 0 4 36.4
4 CN 127 0 143 0
0

0101000
+28 0 -30 0 *
Ve
1e-07
-39.8 8.005 -17.2
0 0

0101101
*
Ed
 1e-07 1 1 0
1  340 0 10.4 12.4
4 CN 128 0 147 0
0

0101000
+25 0 -148 0 *
Ed
 1e-07 1 1 0
1  341 0 0 2
4 CN 128 0 148 0
0

0101000
+145 0 -25 0 *
Ve
1e-07
-41.8 8.005 -17.2
0 0

0101101
*
Ed
 1e-07 1 1 0
1  342 0 3.14159265358979 4.71238898038469
4 CN 129 0 148 0
0

0101000
+145 0 -22 0 *
Ve
1e-07
-46.2 8.005 -17.2
0 0

0101101
*
Ed
 1e-07 1 1 0
1  343 0 1.5707963267949 3.14159265358979
4 CN 129 0 140 0
0

0101000
+20 0 -165 0 *
Ed
 1e-07 1 1 0
1  344 0 4 8.40000000000001
4 CN 129 0 143 0
0

0101000
+20 0 -22 0 *
Ed
 1e-07 1 1 0
1  345 0 4.71238898038469 6.28318530717959
4 CN 21 0 30 0
0

0101000
+530 0 -540 0 *
Ed
 1e-07 1 1 0
1  346 0 0 1.5707963267949
4 CN 21 0 27 0
0

0101000
+566 0 -528 0 *
Ed
 1e-07 1 1 0
1  347 0 1.5707963267949 3.14159265358979
4 CN 21 0 28 0
0

0101000
+552 0 -564 0 *
Ed
 1e-07 1 1 0
1  348 0 3.14159265358979 4.71238898038469
4 CN 21 0 29 0
0

0101000
+542 0 -554 0 *
Ed
 1e-07 1 1 0
1  349 0 2 4
4 CN 140 0 149 0
0

0101000
+49 0 -20 0 *
Ed
 1e-07 1 1 0
1  350 0 2 4
4 CN 141 0 149 0
0

0101000
+49 0 -46 0 *
Ed
 1e-07 1 1 0
1  351 0 4.71238898038469 6.28318530717959
4 CN 143 0 150 0
0

0101000
+22 0 -28 0 *
Ed
 1e-07 1 1 0
1  352 0 0 1.5707963267949
4 CN 143 0 149 0
0

0101000
+46 0 -20 0 *
Ed
 1e-07 1 1 0
1  353 0 1.5707963267949 3.14159265358979
4 CN 143 0 151 0
0

0101000
+36 0 -44 0 *
Ed
 1e-07 1 1 0
1  354 0 3.14159265358979 4.71238898038469
4 CN 143 0 152 0
0

0101000
+30 0 -38 0 *
Ed
 1e-07 1 1 0
1  355 0 36.4 38.4
4 CN 142 0 151 0
0

0101000
+44 0 -41 0 *
Ed
 1e-07 1 1 0
1  356 0 2 4
4 CN 144 0 151 0
0

0101000
+41 0 -36 0 *
Ed
 1e-07 1 1 0
1  357 0 8.40000000000001 10.4
4 CN 145 0 152 0
0

0101000
+38 0 -33 0 *
Ed
 1e-07 1 1 0
1  358 0 36.4 38.4
4 CN 146 0 152 0
0

0101000
+30 0 -33 0 *
Ed
 1e-07 1 1 0
1  359 0 2 4
4 CN 147 0 150 0
0

0101000
+25 0 -28 0 *
Ed
 1e-07 1 1 0
1  360 0 8.40000000000001 10.4
4 CN 148 0 150 0
0

0101000
+22 0 -25 0 *
Co

1100000
-618 0 +611 0 -604 0 -597 0 -590 0 -583 0 -576 0 +572 0 +567 0 +560 0 
+555 0 +548 0 +543 0 +536 0 +531 0 +524 0 +521 0 +518 0 +515 0 +512 0 
+509 0 +506 0 +503 0 +500 0 +497 0 +495 0 +493 0 -491 0 -489 0 +487 0 
+485 0 -484 0 +482 0 -480 0 -478 0 -476 0 -475 0 -473 0 -471 0 -469 0 
-467 0 -465 0 -463 0 -461 0 +460 0 -458 0 +456 0 +454 0 +452 0 +450 0 
+448 0 -446 0 +444 0 -442 0 -440 0 -439 0 +437 0 -436 0 -434 0 +432 0 
+430 0 +428 0 +426 0 +424 0 -422 0 -420 0 -418 0 -416 0 -414 0 -412 0 
-410 0 -408 0 -406 0 -404 0 -402 0 -400 0 -398 0 +396 0 +394 0 +392 0 
+390 0 +388 0 -386 0 -384 0 -382 0 -380 0 -378 0 -376 0 -374 0 -372 0 
-370 0 -368 0 -366 0 -364 0 -362 0 +360 0 +358 0 +356 0 +354 0 +353 0 
+351 0 +349 0 +347 0 +345 0 +343 0 +341 0 -339 0 +338 0 +336 0 -334 0 
+332 0 -330 0 +328 0 +326 0 +324 0 +322 0 +320 0 -318 0 -317 0 -314 0 
+312 0 -310 0 -308 0 -306 0 -304 0 -302 0 +301 0 -300 0 -299 0 +298 0 
-297 0 -296 0 +295 0 +294 0 -292 0 -291 0 +290 0 -288 0 -287 0 +286 0 
+285 0 -283 0 -282 0 +281 0 -279 0 -278 0 +277 0 -275 0 -274 0 +273 0 
-271 0 -270 0 -269 0 -268 0 -267 0 -266 0 -265 0 -263 0 -262 0 +260 0 
-258 0 -256 0 +255 0 -253 0 -252 0 +250 0 -248 0 -247 0 +245 0 -243 0 
-242 0 +240 0 -238 0 -237 0 -234 0 +233 0 -232 0 -231 0 -230 0 -228 0 
-227 0 -225 0 -224 0 +222 0 +221 0 -220 0 -218 0 +217 0 +214 0 +213 0 
-211 0 -210 0 -207 0 +206 0 -205 0 -204 0 -203 0 -201 0 -200 0 -198 0 
-197 0 +195 0 -193 0 -192 0 +190 0 -188 0 -187 0 +185 0 -183 0 -182 0 
+180 0 -178 0 -177 0 +176 0 -175 0 +174 0 +173 0 -171 0 +170 0 -168 0 
+167 0 -166 0 +164 0 -162 0 -161 0 -159 0 -158 0 -156 0 -155 0 -153 0 
-152 0 -150 0 -149 0 +147 0 -146 0 -144 0 -143 0 +142 0 -139 0 +138 0 
-137 0 -135 0 +134 0 +133 0 -132 0 -130 0 -128 0 +127 0 +126 0 -125 0 
-123 0 -121 0 +120 0 +119 0 -118 0 -116 0 -114 0 +113 0 +112 0 -111 0 
-109 0 -107 0 +106 0 +105 0 -104 0 +102 0 +101 0 +100 0 +99 0 +98 0 
-97 0 -96 0 -94 0 -92 0 +91 0 +90 0 -89 0 -87 0 -85 0 +84 0 
+83 0 -82 0 +79 0 +77 0 +75 0 +73 0 +71 0 +69 0 +67 0 +66 0 
+65 0 -64 0 -63 0 +62 0 +61 0 -60 0 -59 0 +58 0 +57 0 -56 0 
-55 0 +54 0 +53 0 -52 0 -51 0 +50 0 -48 0 +47 0 -45 0 -43 0 
-42 0 -40 0 -39 0 -37 0 -35 0 -34 0 +32 0 -31 0 -29 0 -27 0 
+26 0 +24 0 +23 0 -21 0 -19 0 +18 0 -17 0 -16 0 -15 0 -14 0 
+13 0 -12 0 -11 0 -10 0 -9 0 -8 0 -7 0 -6 0 -5 0 +4 0 
+3 0 +2 0 *

+1 0 