%TF.GenerationSoftware,KiCad,Pcbnew,10.0.5*%
%TF.CreationDate,2026-08-15T02:07:49-04:00*%
%TF.ProjectId,hr30-carrier-b-p0.1,68723330-2d63-4617-9272-6965722d622d,rev?*%
%TF.SameCoordinates,Original*%
%TF.FileFunction,Legend,Top*%
%TF.FilePolarity,Positive*%
%FSLAX46Y46*%
G04 Gerber Fmt 4.6, Leading zero omitted, Abs format (unit mm)*
G04 Created by KiCad (PCBNEW 10.0.5) date 2026-08-15 02:07:49*
%MOMM*%
%LPD*%
G01*
G04 APERTURE LIST*
%ADD10C,0.120000*%
G04 APERTURE END LIST*
%TO.C,J201*%
D10*
X28015000Y-4260000D02*
X28015000Y-5860000D01*
X28015000Y-5860000D02*
X29815000Y-5860000D01*
X29285000Y-1390000D02*
X32715000Y-1390000D01*
X29815000Y-5860000D02*
X29815000Y-6800000D01*
X33985000Y-4260000D02*
X33985000Y-5860000D01*
X33985000Y-5860000D02*
X32185000Y-5860000D01*
%TO.C,JCB1*%
X29890000Y-38260000D02*
X29890000Y-39860000D01*
X29890000Y-39860000D02*
X31690000Y-39860000D01*
X31160000Y-35390000D02*
X50840000Y-35390000D01*
X31690000Y-39860000D02*
X31690000Y-40800000D01*
X52110000Y-38260000D02*
X52110000Y-39860000D01*
X52110000Y-39860000D02*
X50310000Y-39860000D01*
%TO.C,U203*%
X70265000Y-18890000D02*
X71735000Y-18890000D01*
X70265000Y-18915000D02*
X70265000Y-18890000D01*
X70265000Y-21110000D02*
X70265000Y-21085000D01*
X71735000Y-18890000D02*
X71735000Y-18915000D01*
X71735000Y-21085000D02*
X71735000Y-21110000D01*
X71735000Y-21110000D02*
X70265000Y-21110000D01*
X69820000Y-18910000D02*
X69680000Y-18720000D01*
X69960000Y-18720000D01*
X69820000Y-18910000D01*
G36*
X69820000Y-18910000D02*
G01*
X69680000Y-18720000D01*
X69960000Y-18720000D01*
X69820000Y-18910000D01*
G37*
%TO.C,U202*%
X50265000Y-18890000D02*
X51735000Y-18890000D01*
X50265000Y-18915000D02*
X50265000Y-18890000D01*
X50265000Y-21110000D02*
X50265000Y-21085000D01*
X51735000Y-18890000D02*
X51735000Y-18915000D01*
X51735000Y-21085000D02*
X51735000Y-21110000D01*
X51735000Y-21110000D02*
X50265000Y-21110000D01*
X49820000Y-18910000D02*
X49680000Y-18720000D01*
X49960000Y-18720000D01*
X49820000Y-18910000D01*
G36*
X49820000Y-18910000D02*
G01*
X49680000Y-18720000D01*
X49960000Y-18720000D01*
X49820000Y-18910000D01*
G37*
%TO.C,U105*%
X4490000Y-16140000D02*
X4725000Y-16140000D01*
X4490000Y-23860000D02*
X4490000Y-16140000D01*
X4725000Y-23860000D02*
X4490000Y-23860000D01*
X17275000Y-16140000D02*
X17510000Y-16140000D01*
X17510000Y-16140000D02*
X17510000Y-23860000D01*
X17510000Y-23860000D02*
X17275000Y-23860000D01*
X4720000Y-24650000D02*
X4250000Y-24990000D01*
X4250000Y-24310000D01*
X4720000Y-24650000D01*
G36*
X4720000Y-24650000D02*
G01*
X4250000Y-24990000D01*
X4250000Y-24310000D01*
X4720000Y-24650000D01*
G37*
%TO.C,J202*%
X48015000Y-4260000D02*
X48015000Y-5860000D01*
X48015000Y-5860000D02*
X49815000Y-5860000D01*
X49285000Y-1390000D02*
X52715000Y-1390000D01*
X49815000Y-5860000D02*
X49815000Y-6800000D01*
X53985000Y-4260000D02*
X53985000Y-5860000D01*
X53985000Y-5860000D02*
X52185000Y-5860000D01*
%TO.C,J105*%
X7390000Y-4260000D02*
X7390000Y-5860000D01*
X7390000Y-5860000D02*
X9190000Y-5860000D01*
X8660000Y-1390000D02*
X13340000Y-1390000D01*
X9190000Y-5860000D02*
X9190000Y-6800000D01*
X14610000Y-4260000D02*
X14610000Y-5860000D01*
X14610000Y-5860000D02*
X12810000Y-5860000D01*
%TO.C,U201*%
X30265000Y-18890000D02*
X31735000Y-18890000D01*
X30265000Y-18915000D02*
X30265000Y-18890000D01*
X30265000Y-21110000D02*
X30265000Y-21085000D01*
X31735000Y-18890000D02*
X31735000Y-18915000D01*
X31735000Y-21085000D02*
X31735000Y-21110000D01*
X31735000Y-21110000D02*
X30265000Y-21110000D01*
X29820000Y-18910000D02*
X29680000Y-18720000D01*
X29960000Y-18720000D01*
X29820000Y-18910000D01*
G36*
X29820000Y-18910000D02*
G01*
X29680000Y-18720000D01*
X29960000Y-18720000D01*
X29820000Y-18910000D01*
G37*
%TO.C,J203*%
X68015000Y-4260000D02*
X68015000Y-5860000D01*
X68015000Y-5860000D02*
X69815000Y-5860000D01*
X69285000Y-1390000D02*
X72715000Y-1390000D01*
X69815000Y-5860000D02*
X69815000Y-6800000D01*
X73985000Y-4260000D02*
X73985000Y-5860000D01*
X73985000Y-5860000D02*
X72185000Y-5860000D01*
%TD*%
M02*
