%TF.GenerationSoftware,KiCad,Pcbnew,10.0.5*%
%TF.CreationDate,2026-08-19T00:22:04-04:00*%
%TF.ProjectId,hr30-measurement-boundary-panel-p0.1,68723330-2d6d-4656-9173-7572656d656e,rev?*%
%TF.SameCoordinates,Original*%
%TF.FileFunction,Copper,L1,Top*%
%TF.FilePolarity,Positive*%
%FSLAX46Y46*%
G04 Gerber Fmt 4.6, Leading zero omitted, Abs format (unit mm)*
G04 Created by KiCad (PCBNEW 10.0.5) date 2026-08-19 00:22:04*
%MOMM*%
%LPD*%
G01*
G04 APERTURE LIST*
G04 Aperture macros list*
%AMRoundRect*
0 Rectangle with rounded corners*
0 $1 Rounding radius*
0 $2 $3 $4 $5 $6 $7 $8 $9 X,Y pos of 4 corners*
0 Add a 4 corners polygon primitive as box body*
4,1,4,$2,$3,$4,$5,$6,$7,$8,$9,$2,$3,0*
0 Add four circle primitives for the rounded corners*
1,1,$1+$1,$2,$3*
1,1,$1+$1,$4,$5*
1,1,$1+$1,$6,$7*
1,1,$1+$1,$8,$9*
0 Add four rect primitives between the rounded corners*
20,1,$1+$1,$2,$3,$4,$5,0*
20,1,$1+$1,$4,$5,$6,$7,0*
20,1,$1+$1,$6,$7,$8,$9,0*
20,1,$1+$1,$8,$9,$2,$3,0*%
G04 Aperture macros list end*
%TA.AperFunction,SMDPad,CuDef*%
%ADD10RoundRect,0.250000X-0.312500X-0.625000X0.312500X-0.625000X0.312500X0.625000X-0.312500X0.625000X0*%
%TD*%
%TA.AperFunction,ComponentPad*%
%ADD11R,1.800000X1.800000*%
%TD*%
%TA.AperFunction,ComponentPad*%
%ADD12C,1.800000*%
%TD*%
%TA.AperFunction,ComponentPad*%
%ADD13RoundRect,0.249999X1.550001X-0.790001X1.550001X0.790001X-1.550001X0.790001X-1.550001X-0.790001X0*%
%TD*%
%TA.AperFunction,ComponentPad*%
%ADD14O,3.600000X2.080000*%
%TD*%
%TA.AperFunction,ComponentPad*%
%ADD15C,1.700000*%
%TD*%
%TA.AperFunction,ViaPad*%
%ADD16C,0.800000*%
%TD*%
%TA.AperFunction,Conductor*%
%ADD17C,0.340000*%
%TD*%
%TA.AperFunction,Conductor*%
%ADD18C,0.350000*%
%TD*%
G04 APERTURE END LIST*
D10*
%TO.P,RSL1,1*%
%TO.N,SLATE_LED_RET*%
X88537500Y-128000000D03*
%TO.P,RSL1,2*%
%TO.N,SLATE_BAT_RET*%
X91462500Y-128000000D03*
%TD*%
%TO.P,R7C,1*%
%TO.N,CH7_LO_IN*%
X53537500Y-85920000D03*
%TO.P,R7C,2*%
%TO.N,CH7_LO_MID*%
X56462500Y-85920000D03*
%TD*%
%TO.P,R2C,1*%
%TO.N,CH2_LO_IN*%
X53537500Y-18420000D03*
%TO.P,R2C,2*%
%TO.N,CH2_LO_MID*%
X56462500Y-18420000D03*
%TD*%
%TO.P,R5C,1*%
%TO.N,CH5_LO_IN*%
X53537500Y-58920000D03*
%TO.P,R5C,2*%
%TO.N,CH5_LO_MID*%
X56462500Y-58920000D03*
%TD*%
%TO.P,R5A,1*%
%TO.N,CH5_HI_IN*%
X53537500Y-64000000D03*
%TO.P,R5A,2*%
%TO.N,CH5_HI_MID*%
X56462500Y-64000000D03*
%TD*%
D11*
%TO.P,D1,1*%
%TO.N,SLATE_LED_RET*%
X72000000Y-122000000D03*
D12*
%TO.P,D1,2*%
%TO.N,SLATE_ACTIVE*%
X74540000Y-122000000D03*
%TD*%
D13*
%TO.P,J3I,1*%
%TO.N,CH3_HI_IN*%
X12000000Y-37000000D03*
D14*
%TO.P,J3I,2*%
%TO.N,CH3_LO_IN*%
X12000000Y-31920000D03*
%TD*%
D10*
%TO.P,R4C,1*%
%TO.N,CH4_LO_IN*%
X53537500Y-45420000D03*
%TO.P,R4C,2*%
%TO.N,CH4_LO_MID*%
X56462500Y-45420000D03*
%TD*%
%TO.P,R7B,1*%
%TO.N,CH7_HI_MID*%
X108537500Y-91000000D03*
%TO.P,R7B,2*%
%TO.N,CH7_HI_OUT*%
X111462500Y-91000000D03*
%TD*%
D13*
%TO.P,J2I,1*%
%TO.N,CH2_HI_IN*%
X12000000Y-23500000D03*
D14*
%TO.P,J2I,2*%
%TO.N,CH2_LO_IN*%
X12000000Y-18420000D03*
%TD*%
D10*
%TO.P,R2B,1*%
%TO.N,CH2_HI_MID*%
X108537500Y-23500000D03*
%TO.P,R2B,2*%
%TO.N,CH2_HI_OUT*%
X111462500Y-23500000D03*
%TD*%
%TO.P,R6D,1*%
%TO.N,CH6_LO_MID*%
X108537500Y-72420000D03*
%TO.P,R6D,2*%
%TO.N,CH6_LO_OUT*%
X111462500Y-72420000D03*
%TD*%
%TO.P,R5D,1*%
%TO.N,CH5_LO_MID*%
X108537500Y-58920000D03*
%TO.P,R5D,2*%
%TO.N,CH5_LO_OUT*%
X111462500Y-58920000D03*
%TD*%
%TO.P,R8B,1*%
%TO.N,CH8_HI_MID*%
X108537500Y-104500000D03*
%TO.P,R8B,2*%
%TO.N,CH8_HI_OUT*%
X111462500Y-104500000D03*
%TD*%
%TO.P,R3A,1*%
%TO.N,CH3_HI_IN*%
X53537500Y-37000000D03*
%TO.P,R3A,2*%
%TO.N,CH3_HI_MID*%
X56462500Y-37000000D03*
%TD*%
D13*
%TO.P,J2O,1*%
%TO.N,CH2_HI_OUT*%
X184000000Y-23500000D03*
D14*
%TO.P,J2O,2*%
%TO.N,CH2_LO_OUT*%
X184000000Y-18420000D03*
%TD*%
D10*
%TO.P,R7A,1*%
%TO.N,CH7_HI_IN*%
X53537500Y-91000000D03*
%TO.P,R7A,2*%
%TO.N,CH7_HI_MID*%
X56462500Y-91000000D03*
%TD*%
%TO.P,R3B,1*%
%TO.N,CH3_HI_MID*%
X108537500Y-37000000D03*
%TO.P,R3B,2*%
%TO.N,CH3_HI_OUT*%
X111462500Y-37000000D03*
%TD*%
%TO.P,R3D,1*%
%TO.N,CH3_LO_MID*%
X108537500Y-31920000D03*
%TO.P,R3D,2*%
%TO.N,CH3_LO_OUT*%
X111462500Y-31920000D03*
%TD*%
D13*
%TO.P,JTTL,1*%
%TO.N,SLATE_OUT*%
X184000000Y-124000000D03*
D14*
%TO.P,JTTL,2*%
%TO.N,SLATE_BAT_RET*%
X184000000Y-118920000D03*
%TD*%
D10*
%TO.P,R3C,1*%
%TO.N,CH3_LO_IN*%
X53537500Y-31920000D03*
%TO.P,R3C,2*%
%TO.N,CH3_LO_MID*%
X56462500Y-31920000D03*
%TD*%
D13*
%TO.P,J5O,1*%
%TO.N,CH5_HI_OUT*%
X184000000Y-64000000D03*
D14*
%TO.P,J5O,2*%
%TO.N,CH5_LO_OUT*%
X184000000Y-58920000D03*
%TD*%
D13*
%TO.P,J6I,1*%
%TO.N,CH6_HI_IN*%
X12000000Y-77500000D03*
D14*
%TO.P,J6I,2*%
%TO.N,CH6_LO_IN*%
X12000000Y-72420000D03*
%TD*%
D10*
%TO.P,R4D,1*%
%TO.N,CH4_LO_MID*%
X108537500Y-45420000D03*
%TO.P,R4D,2*%
%TO.N,CH4_LO_OUT*%
X111462500Y-45420000D03*
%TD*%
%TO.P,R6B,1*%
%TO.N,CH6_HI_MID*%
X108537500Y-77500000D03*
%TO.P,R6B,2*%
%TO.N,CH6_HI_OUT*%
X111462500Y-77500000D03*
%TD*%
%TO.P,R1B,1*%
%TO.N,CH1_HI_MID*%
X108537500Y-10000000D03*
%TO.P,R1B,2*%
%TO.N,CH1_HI_OUT*%
X111462500Y-10000000D03*
%TD*%
%TO.P,R4A,1*%
%TO.N,CH4_HI_IN*%
X53537500Y-50500000D03*
%TO.P,R4A,2*%
%TO.N,CH4_HI_MID*%
X56462500Y-50500000D03*
%TD*%
%TO.P,R1D,1*%
%TO.N,CH1_LO_MID*%
X108537500Y-4920000D03*
%TO.P,R1D,2*%
%TO.N,CH1_LO_OUT*%
X111462500Y-4920000D03*
%TD*%
%TO.P,R6C,1*%
%TO.N,CH6_LO_IN*%
X53537500Y-72420000D03*
%TO.P,R6C,2*%
%TO.N,CH6_LO_MID*%
X56462500Y-72420000D03*
%TD*%
%TO.P,R5B,1*%
%TO.N,CH5_HI_MID*%
X108537500Y-64000000D03*
%TO.P,R5B,2*%
%TO.N,CH5_HI_OUT*%
X111462500Y-64000000D03*
%TD*%
D13*
%TO.P,J8I,1*%
%TO.N,CH8_HI_IN*%
X12000000Y-104500000D03*
D14*
%TO.P,J8I,2*%
%TO.N,CH8_LO_IN*%
X12000000Y-99420000D03*
%TD*%
D13*
%TO.P,J3O,1*%
%TO.N,CH3_HI_OUT*%
X184000000Y-37000000D03*
D14*
%TO.P,J3O,2*%
%TO.N,CH3_LO_OUT*%
X184000000Y-31920000D03*
%TD*%
D13*
%TO.P,J8O,1*%
%TO.N,CH8_HI_OUT*%
X184000000Y-104500000D03*
D14*
%TO.P,J8O,2*%
%TO.N,CH8_LO_OUT*%
X184000000Y-99420000D03*
%TD*%
D10*
%TO.P,R8C,1*%
%TO.N,CH8_LO_IN*%
X53537500Y-99420000D03*
%TO.P,R8C,2*%
%TO.N,CH8_LO_MID*%
X56462500Y-99420000D03*
%TD*%
D13*
%TO.P,J1I,1*%
%TO.N,CH1_HI_IN*%
X12000000Y-10000000D03*
D14*
%TO.P,J1I,2*%
%TO.N,CH1_LO_IN*%
X12000000Y-4920000D03*
%TD*%
D10*
%TO.P,R6A,1*%
%TO.N,CH6_HI_IN*%
X53537500Y-77500000D03*
%TO.P,R6A,2*%
%TO.N,CH6_HI_MID*%
X56462500Y-77500000D03*
%TD*%
%TO.P,R4B,1*%
%TO.N,CH4_HI_MID*%
X108537500Y-50500000D03*
%TO.P,R4B,2*%
%TO.N,CH4_HI_OUT*%
X111462500Y-50500000D03*
%TD*%
D13*
%TO.P,J1O,1*%
%TO.N,CH1_HI_OUT*%
X184000000Y-10000000D03*
D14*
%TO.P,J1O,2*%
%TO.N,CH1_LO_OUT*%
X184000000Y-4920000D03*
%TD*%
D13*
%TO.P,J4O,1*%
%TO.N,CH4_HI_OUT*%
X184000000Y-50500000D03*
D14*
%TO.P,J4O,2*%
%TO.N,CH4_LO_OUT*%
X184000000Y-45420000D03*
%TD*%
D10*
%TO.P,R2D,1*%
%TO.N,CH2_LO_MID*%
X108537500Y-18420000D03*
%TO.P,R2D,2*%
%TO.N,CH2_LO_OUT*%
X111462500Y-18420000D03*
%TD*%
%TO.P,RSL2,1*%
%TO.N,SLATE_ACTIVE*%
X120537500Y-118000000D03*
%TO.P,RSL2,2*%
%TO.N,SLATE_OUT*%
X123462500Y-118000000D03*
%TD*%
%TO.P,R7D,1*%
%TO.N,CH7_LO_MID*%
X108537500Y-85920000D03*
%TO.P,R7D,2*%
%TO.N,CH7_LO_OUT*%
X111462500Y-85920000D03*
%TD*%
%TO.P,R8A,1*%
%TO.N,CH8_HI_IN*%
X53537500Y-104500000D03*
%TO.P,R8A,2*%
%TO.N,CH8_HI_MID*%
X56462500Y-104500000D03*
%TD*%
%TO.P,R8D,1*%
%TO.N,CH8_LO_MID*%
X108537500Y-99420000D03*
%TO.P,R8D,2*%
%TO.N,CH8_LO_OUT*%
X111462500Y-99420000D03*
%TD*%
%TO.P,RSL3,1*%
%TO.N,SLATE_OUT*%
X148537500Y-128000000D03*
%TO.P,RSL3,2*%
%TO.N,SLATE_BAT_RET*%
X151462500Y-128000000D03*
%TD*%
D13*
%TO.P,JBT1,1*%
%TO.N,SLATE_BAT_POS*%
X12000000Y-124000000D03*
D14*
%TO.P,JBT1,2*%
%TO.N,SLATE_BAT_RET*%
X12000000Y-118920000D03*
%TD*%
D15*
%TO.P,SW1,1*%
%TO.N,SLATE_BAT_POS*%
X42000000Y-119000000D03*
X48500000Y-119000000D03*
%TO.P,SW1,2*%
%TO.N,SLATE_ACTIVE*%
X42000000Y-123500000D03*
X48500000Y-123500000D03*
%TD*%
D13*
%TO.P,J7I,1*%
%TO.N,CH7_HI_IN*%
X12000000Y-91000000D03*
D14*
%TO.P,J7I,2*%
%TO.N,CH7_LO_IN*%
X12000000Y-85920000D03*
%TD*%
D13*
%TO.P,J7O,1*%
%TO.N,CH7_HI_OUT*%
X184000000Y-91000000D03*
D14*
%TO.P,J7O,2*%
%TO.N,CH7_LO_OUT*%
X184000000Y-85920000D03*
%TD*%
D13*
%TO.P,J5I,1*%
%TO.N,CH5_HI_IN*%
X12000000Y-64000000D03*
D14*
%TO.P,J5I,2*%
%TO.N,CH5_LO_IN*%
X12000000Y-58920000D03*
%TD*%
D13*
%TO.P,J4I,1*%
%TO.N,CH4_HI_IN*%
X12000000Y-50500000D03*
D14*
%TO.P,J4I,2*%
%TO.N,CH4_LO_IN*%
X12000000Y-45420000D03*
%TD*%
D10*
%TO.P,R2A,1*%
%TO.N,CH2_HI_IN*%
X53537500Y-23500000D03*
%TO.P,R2A,2*%
%TO.N,CH2_HI_MID*%
X56462500Y-23500000D03*
%TD*%
D13*
%TO.P,J6O,1*%
%TO.N,CH6_HI_OUT*%
X184000000Y-77500000D03*
D14*
%TO.P,J6O,2*%
%TO.N,CH6_LO_OUT*%
X184000000Y-72420000D03*
%TD*%
D10*
%TO.P,R1A,1*%
%TO.N,CH1_HI_IN*%
X53537500Y-10000000D03*
%TO.P,R1A,2*%
%TO.N,CH1_HI_MID*%
X56462500Y-10000000D03*
%TD*%
%TO.P,R1C,1*%
%TO.N,CH1_LO_IN*%
X53537500Y-4920000D03*
%TO.P,R1C,2*%
%TO.N,CH1_LO_MID*%
X56462500Y-4920000D03*
%TD*%
D16*
%TO.N,SLATE_BAT_RET*%
X91462500Y-131000000D03*
X151462500Y-131000000D03*
%TD*%
%TO.N,CH1_HI_IN*%
D17*
X12000000Y-10000000D02*
X53537500Y-10000000D01*
%TO.N,CH1_HI_MID*%
X56462500Y-10000000D02*
X108537500Y-10000000D01*
%TO.N,CH1_HI_OUT*%
X111462500Y-10000000D02*
X184000000Y-10000000D01*
%TO.N,CH1_LO_IN*%
X12000000Y-4920000D02*
X53537500Y-4920000D01*
%TO.N,CH1_LO_MID*%
X56462500Y-4920000D02*
X108537500Y-4920000D01*
%TO.N,CH1_LO_OUT*%
X111462500Y-4920000D02*
X184000000Y-4920000D01*
%TO.N,CH2_HI_IN*%
X12000000Y-23500000D02*
X53537500Y-23500000D01*
%TO.N,CH2_HI_MID*%
X56462500Y-23500000D02*
X108537500Y-23500000D01*
%TO.N,CH2_HI_OUT*%
X111462500Y-23500000D02*
X184000000Y-23500000D01*
%TO.N,CH2_LO_IN*%
X12000000Y-18420000D02*
X53537500Y-18420000D01*
%TO.N,CH2_LO_MID*%
X56462500Y-18420000D02*
X108537500Y-18420000D01*
%TO.N,CH2_LO_OUT*%
X111462500Y-18420000D02*
X184000000Y-18420000D01*
%TO.N,CH3_HI_IN*%
X12000000Y-37000000D02*
X53537500Y-37000000D01*
%TO.N,CH3_HI_MID*%
X56462500Y-37000000D02*
X108537500Y-37000000D01*
%TO.N,CH3_HI_OUT*%
X111462500Y-37000000D02*
X184000000Y-37000000D01*
%TO.N,CH3_LO_IN*%
X12000000Y-31920000D02*
X53537500Y-31920000D01*
%TO.N,CH3_LO_MID*%
X56462500Y-31920000D02*
X108537500Y-31920000D01*
%TO.N,CH3_LO_OUT*%
X111462500Y-31920000D02*
X184000000Y-31920000D01*
%TO.N,CH4_HI_IN*%
X12000000Y-50500000D02*
X53537500Y-50500000D01*
%TO.N,CH4_HI_MID*%
X56462500Y-50500000D02*
X108537500Y-50500000D01*
%TO.N,CH4_HI_OUT*%
X111462500Y-50500000D02*
X184000000Y-50500000D01*
%TO.N,CH4_LO_IN*%
X12000000Y-45420000D02*
X53537500Y-45420000D01*
%TO.N,CH4_LO_MID*%
X56462500Y-45420000D02*
X108537500Y-45420000D01*
%TO.N,CH4_LO_OUT*%
X111462500Y-45420000D02*
X184000000Y-45420000D01*
%TO.N,CH5_HI_IN*%
X12000000Y-64000000D02*
X53537500Y-64000000D01*
%TO.N,CH5_HI_MID*%
X56462500Y-64000000D02*
X108537500Y-64000000D01*
%TO.N,CH5_HI_OUT*%
X111462500Y-64000000D02*
X184000000Y-64000000D01*
%TO.N,CH5_LO_IN*%
X12000000Y-58920000D02*
X53537500Y-58920000D01*
%TO.N,CH5_LO_MID*%
X56462500Y-58920000D02*
X108537500Y-58920000D01*
%TO.N,CH5_LO_OUT*%
X111462500Y-58920000D02*
X184000000Y-58920000D01*
%TO.N,CH6_HI_IN*%
X12000000Y-77500000D02*
X53537500Y-77500000D01*
%TO.N,CH6_HI_MID*%
X56462500Y-77500000D02*
X108537500Y-77500000D01*
%TO.N,CH6_HI_OUT*%
X111462500Y-77500000D02*
X184000000Y-77500000D01*
%TO.N,CH6_LO_IN*%
X12000000Y-72420000D02*
X53537500Y-72420000D01*
%TO.N,CH6_LO_MID*%
X56462500Y-72420000D02*
X108537500Y-72420000D01*
%TO.N,CH6_LO_OUT*%
X111462500Y-72420000D02*
X184000000Y-72420000D01*
%TO.N,CH7_HI_IN*%
X12000000Y-91000000D02*
X53537500Y-91000000D01*
%TO.N,CH7_HI_MID*%
X56462500Y-91000000D02*
X108537500Y-91000000D01*
%TO.N,CH7_HI_OUT*%
X111462500Y-91000000D02*
X184000000Y-91000000D01*
%TO.N,CH7_LO_IN*%
X12000000Y-85920000D02*
X53537500Y-85920000D01*
%TO.N,CH7_LO_MID*%
X56462500Y-85920000D02*
X108537500Y-85920000D01*
%TO.N,CH7_LO_OUT*%
X111462500Y-85920000D02*
X184000000Y-85920000D01*
%TO.N,CH8_HI_IN*%
X12000000Y-104500000D02*
X53537500Y-104500000D01*
%TO.N,CH8_HI_MID*%
X56462500Y-104500000D02*
X108537500Y-104500000D01*
%TO.N,CH8_HI_OUT*%
X111462500Y-104500000D02*
X184000000Y-104500000D01*
%TO.N,CH8_LO_IN*%
X12000000Y-99420000D02*
X53537500Y-99420000D01*
%TO.N,CH8_LO_MID*%
X56462500Y-99420000D02*
X108537500Y-99420000D01*
%TO.N,CH8_LO_OUT*%
X111462500Y-99420000D02*
X184000000Y-99420000D01*
%TO.N,SLATE_ACTIVE*%
D18*
X114000000Y-115000000D02*
X120537500Y-118000000D01*
X61000000Y-115000000D02*
X114000000Y-115000000D01*
X61000000Y-115000000D02*
X80000000Y-115000000D01*
X42000000Y-123500000D02*
X61000000Y-115000000D01*
X80000000Y-115000000D02*
X80000000Y-122000000D01*
X80000000Y-122000000D02*
X74540000Y-122000000D01*
X42000000Y-123500000D02*
X48500000Y-123500000D01*
%TO.N,SLATE_BAT_POS*%
X12000000Y-124000000D02*
X28000000Y-116000000D01*
X42000000Y-119000000D02*
X48500000Y-119000000D01*
X28000000Y-116000000D02*
X42000000Y-119000000D01*
%TO.N,SLATE_BAT_RET*%
X151462500Y-128000000D02*
X151462500Y-131000000D01*
X91462500Y-128000000D02*
X91462500Y-131000000D01*
%TO.N,SLATE_LED_RET*%
X72000000Y-122000000D02*
X72000000Y-125000000D01*
X72000000Y-125000000D02*
X82000000Y-125000000D01*
X82000000Y-125000000D02*
X88537500Y-128000000D01*
%TO.N,SLATE_OUT*%
X138000000Y-118000000D02*
X148537500Y-128000000D01*
X123462500Y-118000000D02*
X138000000Y-118000000D01*
X138000000Y-118000000D02*
X180000000Y-116000000D01*
X180000000Y-116000000D02*
X184000000Y-124000000D01*
%TD*%
M02*
