%TF.GenerationSoftware,KiCad,Pcbnew,10.0.5*%
%TF.CreationDate,2026-08-19T00:22:04-04:00*%
%TF.ProjectId,hr30-measurement-boundary-panel-p0.1,68723330-2d6d-4656-9173-7572656d656e,rev?*%
%TF.SameCoordinates,Original*%
%TF.FileFunction,Legend,Top*%
%TF.FilePolarity,Positive*%
%FSLAX46Y46*%
G04 Gerber Fmt 4.6, Leading zero omitted, Abs format (unit mm)*
G04 Created by KiCad (PCBNEW 10.0.5) date 2026-08-19 00:22:04*
%MOMM*%
%LPD*%
G01*
G04 APERTURE LIST*
%ADD10C,0.500000*%
%ADD11C,0.150000*%
%ADD12C,0.120000*%
G04 APERTURE END LIST*
D10*
X24000000Y-111000000D02*
X186000000Y-111000000D01*
D11*
X28447619Y-8386104D02*
X28409523Y-8424200D01*
X28409523Y-8424200D02*
X28295238Y-8462295D01*
X28295238Y-8462295D02*
X28219047Y-8462295D01*
X28219047Y-8462295D02*
X28104761Y-8424200D01*
X28104761Y-8424200D02*
X28028571Y-8348009D01*
X28028571Y-8348009D02*
X27990476Y-8271819D01*
X27990476Y-8271819D02*
X27952380Y-8119438D01*
X27952380Y-8119438D02*
X27952380Y-8005152D01*
X27952380Y-8005152D02*
X27990476Y-7852771D01*
X27990476Y-7852771D02*
X28028571Y-7776580D01*
X28028571Y-7776580D02*
X28104761Y-7700390D01*
X28104761Y-7700390D02*
X28219047Y-7662295D01*
X28219047Y-7662295D02*
X28295238Y-7662295D01*
X28295238Y-7662295D02*
X28409523Y-7700390D01*
X28409523Y-7700390D02*
X28447619Y-7738485D01*
X28790476Y-8462295D02*
X28790476Y-7662295D01*
X28790476Y-8043247D02*
X29247619Y-8043247D01*
X29247619Y-8462295D02*
X29247619Y-7662295D01*
X30047618Y-8462295D02*
X29590475Y-8462295D01*
X29819047Y-8462295D02*
X29819047Y-7662295D01*
X29819047Y-7662295D02*
X29742856Y-7776580D01*
X29742856Y-7776580D02*
X29666666Y-7852771D01*
X29666666Y-7852771D02*
X29590475Y-7890866D01*
X28447619Y-21886104D02*
X28409523Y-21924200D01*
X28409523Y-21924200D02*
X28295238Y-21962295D01*
X28295238Y-21962295D02*
X28219047Y-21962295D01*
X28219047Y-21962295D02*
X28104761Y-21924200D01*
X28104761Y-21924200D02*
X28028571Y-21848009D01*
X28028571Y-21848009D02*
X27990476Y-21771819D01*
X27990476Y-21771819D02*
X27952380Y-21619438D01*
X27952380Y-21619438D02*
X27952380Y-21505152D01*
X27952380Y-21505152D02*
X27990476Y-21352771D01*
X27990476Y-21352771D02*
X28028571Y-21276580D01*
X28028571Y-21276580D02*
X28104761Y-21200390D01*
X28104761Y-21200390D02*
X28219047Y-21162295D01*
X28219047Y-21162295D02*
X28295238Y-21162295D01*
X28295238Y-21162295D02*
X28409523Y-21200390D01*
X28409523Y-21200390D02*
X28447619Y-21238485D01*
X28790476Y-21962295D02*
X28790476Y-21162295D01*
X28790476Y-21543247D02*
X29247619Y-21543247D01*
X29247619Y-21962295D02*
X29247619Y-21162295D01*
X29590475Y-21238485D02*
X29628571Y-21200390D01*
X29628571Y-21200390D02*
X29704761Y-21162295D01*
X29704761Y-21162295D02*
X29895237Y-21162295D01*
X29895237Y-21162295D02*
X29971428Y-21200390D01*
X29971428Y-21200390D02*
X30009523Y-21238485D01*
X30009523Y-21238485D02*
X30047618Y-21314676D01*
X30047618Y-21314676D02*
X30047618Y-21390866D01*
X30047618Y-21390866D02*
X30009523Y-21505152D01*
X30009523Y-21505152D02*
X29552380Y-21962295D01*
X29552380Y-21962295D02*
X30047618Y-21962295D01*
X28447619Y-35386104D02*
X28409523Y-35424200D01*
X28409523Y-35424200D02*
X28295238Y-35462295D01*
X28295238Y-35462295D02*
X28219047Y-35462295D01*
X28219047Y-35462295D02*
X28104761Y-35424200D01*
X28104761Y-35424200D02*
X28028571Y-35348009D01*
X28028571Y-35348009D02*
X27990476Y-35271819D01*
X27990476Y-35271819D02*
X27952380Y-35119438D01*
X27952380Y-35119438D02*
X27952380Y-35005152D01*
X27952380Y-35005152D02*
X27990476Y-34852771D01*
X27990476Y-34852771D02*
X28028571Y-34776580D01*
X28028571Y-34776580D02*
X28104761Y-34700390D01*
X28104761Y-34700390D02*
X28219047Y-34662295D01*
X28219047Y-34662295D02*
X28295238Y-34662295D01*
X28295238Y-34662295D02*
X28409523Y-34700390D01*
X28409523Y-34700390D02*
X28447619Y-34738485D01*
X28790476Y-35462295D02*
X28790476Y-34662295D01*
X28790476Y-35043247D02*
X29247619Y-35043247D01*
X29247619Y-35462295D02*
X29247619Y-34662295D01*
X29552380Y-34662295D02*
X30047618Y-34662295D01*
X30047618Y-34662295D02*
X29780952Y-34967057D01*
X29780952Y-34967057D02*
X29895237Y-34967057D01*
X29895237Y-34967057D02*
X29971428Y-35005152D01*
X29971428Y-35005152D02*
X30009523Y-35043247D01*
X30009523Y-35043247D02*
X30047618Y-35119438D01*
X30047618Y-35119438D02*
X30047618Y-35309914D01*
X30047618Y-35309914D02*
X30009523Y-35386104D01*
X30009523Y-35386104D02*
X29971428Y-35424200D01*
X29971428Y-35424200D02*
X29895237Y-35462295D01*
X29895237Y-35462295D02*
X29666666Y-35462295D01*
X29666666Y-35462295D02*
X29590475Y-35424200D01*
X29590475Y-35424200D02*
X29552380Y-35386104D01*
X28447619Y-48886104D02*
X28409523Y-48924200D01*
X28409523Y-48924200D02*
X28295238Y-48962295D01*
X28295238Y-48962295D02*
X28219047Y-48962295D01*
X28219047Y-48962295D02*
X28104761Y-48924200D01*
X28104761Y-48924200D02*
X28028571Y-48848009D01*
X28028571Y-48848009D02*
X27990476Y-48771819D01*
X27990476Y-48771819D02*
X27952380Y-48619438D01*
X27952380Y-48619438D02*
X27952380Y-48505152D01*
X27952380Y-48505152D02*
X27990476Y-48352771D01*
X27990476Y-48352771D02*
X28028571Y-48276580D01*
X28028571Y-48276580D02*
X28104761Y-48200390D01*
X28104761Y-48200390D02*
X28219047Y-48162295D01*
X28219047Y-48162295D02*
X28295238Y-48162295D01*
X28295238Y-48162295D02*
X28409523Y-48200390D01*
X28409523Y-48200390D02*
X28447619Y-48238485D01*
X28790476Y-48962295D02*
X28790476Y-48162295D01*
X28790476Y-48543247D02*
X29247619Y-48543247D01*
X29247619Y-48962295D02*
X29247619Y-48162295D01*
X29971428Y-48428961D02*
X29971428Y-48962295D01*
X29780952Y-48124200D02*
X29590475Y-48695628D01*
X29590475Y-48695628D02*
X30085714Y-48695628D01*
X28447619Y-62386104D02*
X28409523Y-62424200D01*
X28409523Y-62424200D02*
X28295238Y-62462295D01*
X28295238Y-62462295D02*
X28219047Y-62462295D01*
X28219047Y-62462295D02*
X28104761Y-62424200D01*
X28104761Y-62424200D02*
X28028571Y-62348009D01*
X28028571Y-62348009D02*
X27990476Y-62271819D01*
X27990476Y-62271819D02*
X27952380Y-62119438D01*
X27952380Y-62119438D02*
X27952380Y-62005152D01*
X27952380Y-62005152D02*
X27990476Y-61852771D01*
X27990476Y-61852771D02*
X28028571Y-61776580D01*
X28028571Y-61776580D02*
X28104761Y-61700390D01*
X28104761Y-61700390D02*
X28219047Y-61662295D01*
X28219047Y-61662295D02*
X28295238Y-61662295D01*
X28295238Y-61662295D02*
X28409523Y-61700390D01*
X28409523Y-61700390D02*
X28447619Y-61738485D01*
X28790476Y-62462295D02*
X28790476Y-61662295D01*
X28790476Y-62043247D02*
X29247619Y-62043247D01*
X29247619Y-62462295D02*
X29247619Y-61662295D01*
X30009523Y-61662295D02*
X29628571Y-61662295D01*
X29628571Y-61662295D02*
X29590475Y-62043247D01*
X29590475Y-62043247D02*
X29628571Y-62005152D01*
X29628571Y-62005152D02*
X29704761Y-61967057D01*
X29704761Y-61967057D02*
X29895237Y-61967057D01*
X29895237Y-61967057D02*
X29971428Y-62005152D01*
X29971428Y-62005152D02*
X30009523Y-62043247D01*
X30009523Y-62043247D02*
X30047618Y-62119438D01*
X30047618Y-62119438D02*
X30047618Y-62309914D01*
X30047618Y-62309914D02*
X30009523Y-62386104D01*
X30009523Y-62386104D02*
X29971428Y-62424200D01*
X29971428Y-62424200D02*
X29895237Y-62462295D01*
X29895237Y-62462295D02*
X29704761Y-62462295D01*
X29704761Y-62462295D02*
X29628571Y-62424200D01*
X29628571Y-62424200D02*
X29590475Y-62386104D01*
X28447619Y-75886104D02*
X28409523Y-75924200D01*
X28409523Y-75924200D02*
X28295238Y-75962295D01*
X28295238Y-75962295D02*
X28219047Y-75962295D01*
X28219047Y-75962295D02*
X28104761Y-75924200D01*
X28104761Y-75924200D02*
X28028571Y-75848009D01*
X28028571Y-75848009D02*
X27990476Y-75771819D01*
X27990476Y-75771819D02*
X27952380Y-75619438D01*
X27952380Y-75619438D02*
X27952380Y-75505152D01*
X27952380Y-75505152D02*
X27990476Y-75352771D01*
X27990476Y-75352771D02*
X28028571Y-75276580D01*
X28028571Y-75276580D02*
X28104761Y-75200390D01*
X28104761Y-75200390D02*
X28219047Y-75162295D01*
X28219047Y-75162295D02*
X28295238Y-75162295D01*
X28295238Y-75162295D02*
X28409523Y-75200390D01*
X28409523Y-75200390D02*
X28447619Y-75238485D01*
X28790476Y-75962295D02*
X28790476Y-75162295D01*
X28790476Y-75543247D02*
X29247619Y-75543247D01*
X29247619Y-75962295D02*
X29247619Y-75162295D01*
X29971428Y-75162295D02*
X29819047Y-75162295D01*
X29819047Y-75162295D02*
X29742856Y-75200390D01*
X29742856Y-75200390D02*
X29704761Y-75238485D01*
X29704761Y-75238485D02*
X29628571Y-75352771D01*
X29628571Y-75352771D02*
X29590475Y-75505152D01*
X29590475Y-75505152D02*
X29590475Y-75809914D01*
X29590475Y-75809914D02*
X29628571Y-75886104D01*
X29628571Y-75886104D02*
X29666666Y-75924200D01*
X29666666Y-75924200D02*
X29742856Y-75962295D01*
X29742856Y-75962295D02*
X29895237Y-75962295D01*
X29895237Y-75962295D02*
X29971428Y-75924200D01*
X29971428Y-75924200D02*
X30009523Y-75886104D01*
X30009523Y-75886104D02*
X30047618Y-75809914D01*
X30047618Y-75809914D02*
X30047618Y-75619438D01*
X30047618Y-75619438D02*
X30009523Y-75543247D01*
X30009523Y-75543247D02*
X29971428Y-75505152D01*
X29971428Y-75505152D02*
X29895237Y-75467057D01*
X29895237Y-75467057D02*
X29742856Y-75467057D01*
X29742856Y-75467057D02*
X29666666Y-75505152D01*
X29666666Y-75505152D02*
X29628571Y-75543247D01*
X29628571Y-75543247D02*
X29590475Y-75619438D01*
X28447619Y-89386104D02*
X28409523Y-89424200D01*
X28409523Y-89424200D02*
X28295238Y-89462295D01*
X28295238Y-89462295D02*
X28219047Y-89462295D01*
X28219047Y-89462295D02*
X28104761Y-89424200D01*
X28104761Y-89424200D02*
X28028571Y-89348009D01*
X28028571Y-89348009D02*
X27990476Y-89271819D01*
X27990476Y-89271819D02*
X27952380Y-89119438D01*
X27952380Y-89119438D02*
X27952380Y-89005152D01*
X27952380Y-89005152D02*
X27990476Y-88852771D01*
X27990476Y-88852771D02*
X28028571Y-88776580D01*
X28028571Y-88776580D02*
X28104761Y-88700390D01*
X28104761Y-88700390D02*
X28219047Y-88662295D01*
X28219047Y-88662295D02*
X28295238Y-88662295D01*
X28295238Y-88662295D02*
X28409523Y-88700390D01*
X28409523Y-88700390D02*
X28447619Y-88738485D01*
X28790476Y-89462295D02*
X28790476Y-88662295D01*
X28790476Y-89043247D02*
X29247619Y-89043247D01*
X29247619Y-89462295D02*
X29247619Y-88662295D01*
X29552380Y-88662295D02*
X30085714Y-88662295D01*
X30085714Y-88662295D02*
X29742856Y-89462295D01*
X28447619Y-102886104D02*
X28409523Y-102924200D01*
X28409523Y-102924200D02*
X28295238Y-102962295D01*
X28295238Y-102962295D02*
X28219047Y-102962295D01*
X28219047Y-102962295D02*
X28104761Y-102924200D01*
X28104761Y-102924200D02*
X28028571Y-102848009D01*
X28028571Y-102848009D02*
X27990476Y-102771819D01*
X27990476Y-102771819D02*
X27952380Y-102619438D01*
X27952380Y-102619438D02*
X27952380Y-102505152D01*
X27952380Y-102505152D02*
X27990476Y-102352771D01*
X27990476Y-102352771D02*
X28028571Y-102276580D01*
X28028571Y-102276580D02*
X28104761Y-102200390D01*
X28104761Y-102200390D02*
X28219047Y-102162295D01*
X28219047Y-102162295D02*
X28295238Y-102162295D01*
X28295238Y-102162295D02*
X28409523Y-102200390D01*
X28409523Y-102200390D02*
X28447619Y-102238485D01*
X28790476Y-102962295D02*
X28790476Y-102162295D01*
X28790476Y-102543247D02*
X29247619Y-102543247D01*
X29247619Y-102962295D02*
X29247619Y-102162295D01*
X29742856Y-102505152D02*
X29666666Y-102467057D01*
X29666666Y-102467057D02*
X29628571Y-102428961D01*
X29628571Y-102428961D02*
X29590475Y-102352771D01*
X29590475Y-102352771D02*
X29590475Y-102314676D01*
X29590475Y-102314676D02*
X29628571Y-102238485D01*
X29628571Y-102238485D02*
X29666666Y-102200390D01*
X29666666Y-102200390D02*
X29742856Y-102162295D01*
X29742856Y-102162295D02*
X29895237Y-102162295D01*
X29895237Y-102162295D02*
X29971428Y-102200390D01*
X29971428Y-102200390D02*
X30009523Y-102238485D01*
X30009523Y-102238485D02*
X30047618Y-102314676D01*
X30047618Y-102314676D02*
X30047618Y-102352771D01*
X30047618Y-102352771D02*
X30009523Y-102428961D01*
X30009523Y-102428961D02*
X29971428Y-102467057D01*
X29971428Y-102467057D02*
X29895237Y-102505152D01*
X29895237Y-102505152D02*
X29742856Y-102505152D01*
X29742856Y-102505152D02*
X29666666Y-102543247D01*
X29666666Y-102543247D02*
X29628571Y-102581342D01*
X29628571Y-102581342D02*
X29590475Y-102657533D01*
X29590475Y-102657533D02*
X29590475Y-102809914D01*
X29590475Y-102809914D02*
X29628571Y-102886104D01*
X29628571Y-102886104D02*
X29666666Y-102924200D01*
X29666666Y-102924200D02*
X29742856Y-102962295D01*
X29742856Y-102962295D02*
X29895237Y-102962295D01*
X29895237Y-102962295D02*
X29971428Y-102924200D01*
X29971428Y-102924200D02*
X30009523Y-102886104D01*
X30009523Y-102886104D02*
X30047618Y-102809914D01*
X30047618Y-102809914D02*
X30047618Y-102657533D01*
X30047618Y-102657533D02*
X30009523Y-102581342D01*
X30009523Y-102581342D02*
X29971428Y-102543247D01*
X29971428Y-102543247D02*
X29895237Y-102505152D01*
X89121429Y-132237128D02*
X89250001Y-132279985D01*
X89250001Y-132279985D02*
X89292858Y-132322842D01*
X89292858Y-132322842D02*
X89335715Y-132408557D01*
X89335715Y-132408557D02*
X89335715Y-132537128D01*
X89335715Y-132537128D02*
X89292858Y-132622842D01*
X89292858Y-132622842D02*
X89250001Y-132665700D01*
X89250001Y-132665700D02*
X89164286Y-132708557D01*
X89164286Y-132708557D02*
X88821429Y-132708557D01*
X88821429Y-132708557D02*
X88821429Y-131808557D01*
X88821429Y-131808557D02*
X89121429Y-131808557D01*
X89121429Y-131808557D02*
X89207144Y-131851414D01*
X89207144Y-131851414D02*
X89250001Y-131894271D01*
X89250001Y-131894271D02*
X89292858Y-131979985D01*
X89292858Y-131979985D02*
X89292858Y-132065700D01*
X89292858Y-132065700D02*
X89250001Y-132151414D01*
X89250001Y-132151414D02*
X89207144Y-132194271D01*
X89207144Y-132194271D02*
X89121429Y-132237128D01*
X89121429Y-132237128D02*
X88821429Y-132237128D01*
X89678572Y-132451414D02*
X90107144Y-132451414D01*
X89592858Y-132708557D02*
X89892858Y-131808557D01*
X89892858Y-131808557D02*
X90192858Y-132708557D01*
X90364287Y-131808557D02*
X90878573Y-131808557D01*
X90621430Y-132708557D02*
X90621430Y-131808557D01*
X91050001Y-131808557D02*
X91564287Y-131808557D01*
X91307144Y-132708557D02*
X91307144Y-131808557D01*
X91864286Y-132237128D02*
X92164286Y-132237128D01*
X92292858Y-132708557D02*
X91864286Y-132708557D01*
X91864286Y-132708557D02*
X91864286Y-131808557D01*
X91864286Y-131808557D02*
X92292858Y-131808557D01*
X93192858Y-132708557D02*
X92892858Y-132279985D01*
X92678572Y-132708557D02*
X92678572Y-131808557D01*
X92678572Y-131808557D02*
X93021429Y-131808557D01*
X93021429Y-131808557D02*
X93107144Y-131851414D01*
X93107144Y-131851414D02*
X93150001Y-131894271D01*
X93150001Y-131894271D02*
X93192858Y-131979985D01*
X93192858Y-131979985D02*
X93192858Y-132108557D01*
X93192858Y-132108557D02*
X93150001Y-132194271D01*
X93150001Y-132194271D02*
X93107144Y-132237128D01*
X93107144Y-132237128D02*
X93021429Y-132279985D01*
X93021429Y-132279985D02*
X92678572Y-132279985D01*
X93750001Y-132279985D02*
X93750001Y-132708557D01*
X93450001Y-131808557D02*
X93750001Y-132279985D01*
X93750001Y-132279985D02*
X94050001Y-131808557D01*
X94992858Y-132665700D02*
X95121430Y-132708557D01*
X95121430Y-132708557D02*
X95335715Y-132708557D01*
X95335715Y-132708557D02*
X95421430Y-132665700D01*
X95421430Y-132665700D02*
X95464287Y-132622842D01*
X95464287Y-132622842D02*
X95507144Y-132537128D01*
X95507144Y-132537128D02*
X95507144Y-132451414D01*
X95507144Y-132451414D02*
X95464287Y-132365700D01*
X95464287Y-132365700D02*
X95421430Y-132322842D01*
X95421430Y-132322842D02*
X95335715Y-132279985D01*
X95335715Y-132279985D02*
X95164287Y-132237128D01*
X95164287Y-132237128D02*
X95078572Y-132194271D01*
X95078572Y-132194271D02*
X95035715Y-132151414D01*
X95035715Y-132151414D02*
X94992858Y-132065700D01*
X94992858Y-132065700D02*
X94992858Y-131979985D01*
X94992858Y-131979985D02*
X95035715Y-131894271D01*
X95035715Y-131894271D02*
X95078572Y-131851414D01*
X95078572Y-131851414D02*
X95164287Y-131808557D01*
X95164287Y-131808557D02*
X95378572Y-131808557D01*
X95378572Y-131808557D02*
X95507144Y-131851414D01*
X96064287Y-132279985D02*
X96064287Y-132708557D01*
X95764287Y-131808557D02*
X96064287Y-132279985D01*
X96064287Y-132279985D02*
X96364287Y-131808557D01*
X96664287Y-132708557D02*
X96664287Y-131808557D01*
X96664287Y-131808557D02*
X97178573Y-132708557D01*
X97178573Y-132708557D02*
X97178573Y-131808557D01*
X98121430Y-132622842D02*
X98078573Y-132665700D01*
X98078573Y-132665700D02*
X97950001Y-132708557D01*
X97950001Y-132708557D02*
X97864287Y-132708557D01*
X97864287Y-132708557D02*
X97735716Y-132665700D01*
X97735716Y-132665700D02*
X97650001Y-132579985D01*
X97650001Y-132579985D02*
X97607144Y-132494271D01*
X97607144Y-132494271D02*
X97564287Y-132322842D01*
X97564287Y-132322842D02*
X97564287Y-132194271D01*
X97564287Y-132194271D02*
X97607144Y-132022842D01*
X97607144Y-132022842D02*
X97650001Y-131937128D01*
X97650001Y-131937128D02*
X97735716Y-131851414D01*
X97735716Y-131851414D02*
X97864287Y-131808557D01*
X97864287Y-131808557D02*
X97950001Y-131808557D01*
X97950001Y-131808557D02*
X98078573Y-131851414D01*
X98078573Y-131851414D02*
X98121430Y-131894271D01*
X99150001Y-132665700D02*
X99278573Y-132708557D01*
X99278573Y-132708557D02*
X99492858Y-132708557D01*
X99492858Y-132708557D02*
X99578573Y-132665700D01*
X99578573Y-132665700D02*
X99621430Y-132622842D01*
X99621430Y-132622842D02*
X99664287Y-132537128D01*
X99664287Y-132537128D02*
X99664287Y-132451414D01*
X99664287Y-132451414D02*
X99621430Y-132365700D01*
X99621430Y-132365700D02*
X99578573Y-132322842D01*
X99578573Y-132322842D02*
X99492858Y-132279985D01*
X99492858Y-132279985D02*
X99321430Y-132237128D01*
X99321430Y-132237128D02*
X99235715Y-132194271D01*
X99235715Y-132194271D02*
X99192858Y-132151414D01*
X99192858Y-132151414D02*
X99150001Y-132065700D01*
X99150001Y-132065700D02*
X99150001Y-131979985D01*
X99150001Y-131979985D02*
X99192858Y-131894271D01*
X99192858Y-131894271D02*
X99235715Y-131851414D01*
X99235715Y-131851414D02*
X99321430Y-131808557D01*
X99321430Y-131808557D02*
X99535715Y-131808557D01*
X99535715Y-131808557D02*
X99664287Y-131851414D01*
X100478573Y-132708557D02*
X100050001Y-132708557D01*
X100050001Y-132708557D02*
X100050001Y-131808557D01*
X100735715Y-132451414D02*
X101164287Y-132451414D01*
X100650001Y-132708557D02*
X100950001Y-131808557D01*
X100950001Y-131808557D02*
X101250001Y-132708557D01*
X101421430Y-131808557D02*
X101935716Y-131808557D01*
X101678573Y-132708557D02*
X101678573Y-131808557D01*
X102235715Y-132237128D02*
X102535715Y-132237128D01*
X102664287Y-132708557D02*
X102235715Y-132708557D01*
X102235715Y-132708557D02*
X102235715Y-131808557D01*
X102235715Y-131808557D02*
X102664287Y-131808557D01*
X103735715Y-132365700D02*
X104421430Y-132365700D01*
X105535715Y-132708557D02*
X105535715Y-131808557D01*
X105535715Y-131808557D02*
X106050001Y-132708557D01*
X106050001Y-132708557D02*
X106050001Y-131808557D01*
X106650001Y-131808557D02*
X106821429Y-131808557D01*
X106821429Y-131808557D02*
X106907144Y-131851414D01*
X106907144Y-131851414D02*
X106992858Y-131937128D01*
X106992858Y-131937128D02*
X107035715Y-132108557D01*
X107035715Y-132108557D02*
X107035715Y-132408557D01*
X107035715Y-132408557D02*
X106992858Y-132579985D01*
X106992858Y-132579985D02*
X106907144Y-132665700D01*
X106907144Y-132665700D02*
X106821429Y-132708557D01*
X106821429Y-132708557D02*
X106650001Y-132708557D01*
X106650001Y-132708557D02*
X106564287Y-132665700D01*
X106564287Y-132665700D02*
X106478572Y-132579985D01*
X106478572Y-132579985D02*
X106435715Y-132408557D01*
X106435715Y-132408557D02*
X106435715Y-132108557D01*
X106435715Y-132108557D02*
X106478572Y-131937128D01*
X106478572Y-131937128D02*
X106564287Y-131851414D01*
X106564287Y-131851414D02*
X106650001Y-131808557D01*
X108621429Y-132708557D02*
X108321429Y-132279985D01*
X108107143Y-132708557D02*
X108107143Y-131808557D01*
X108107143Y-131808557D02*
X108450000Y-131808557D01*
X108450000Y-131808557D02*
X108535715Y-131851414D01*
X108535715Y-131851414D02*
X108578572Y-131894271D01*
X108578572Y-131894271D02*
X108621429Y-131979985D01*
X108621429Y-131979985D02*
X108621429Y-132108557D01*
X108621429Y-132108557D02*
X108578572Y-132194271D01*
X108578572Y-132194271D02*
X108535715Y-132237128D01*
X108535715Y-132237128D02*
X108450000Y-132279985D01*
X108450000Y-132279985D02*
X108107143Y-132279985D01*
X109178572Y-131808557D02*
X109350000Y-131808557D01*
X109350000Y-131808557D02*
X109435715Y-131851414D01*
X109435715Y-131851414D02*
X109521429Y-131937128D01*
X109521429Y-131937128D02*
X109564286Y-132108557D01*
X109564286Y-132108557D02*
X109564286Y-132408557D01*
X109564286Y-132408557D02*
X109521429Y-132579985D01*
X109521429Y-132579985D02*
X109435715Y-132665700D01*
X109435715Y-132665700D02*
X109350000Y-132708557D01*
X109350000Y-132708557D02*
X109178572Y-132708557D01*
X109178572Y-132708557D02*
X109092858Y-132665700D01*
X109092858Y-132665700D02*
X109007143Y-132579985D01*
X109007143Y-132579985D02*
X108964286Y-132408557D01*
X108964286Y-132408557D02*
X108964286Y-132108557D01*
X108964286Y-132108557D02*
X109007143Y-131937128D01*
X109007143Y-131937128D02*
X109092858Y-131851414D01*
X109092858Y-131851414D02*
X109178572Y-131808557D01*
X110250000Y-132237128D02*
X110378572Y-132279985D01*
X110378572Y-132279985D02*
X110421429Y-132322842D01*
X110421429Y-132322842D02*
X110464286Y-132408557D01*
X110464286Y-132408557D02*
X110464286Y-132537128D01*
X110464286Y-132537128D02*
X110421429Y-132622842D01*
X110421429Y-132622842D02*
X110378572Y-132665700D01*
X110378572Y-132665700D02*
X110292857Y-132708557D01*
X110292857Y-132708557D02*
X109950000Y-132708557D01*
X109950000Y-132708557D02*
X109950000Y-131808557D01*
X109950000Y-131808557D02*
X110250000Y-131808557D01*
X110250000Y-131808557D02*
X110335715Y-131851414D01*
X110335715Y-131851414D02*
X110378572Y-131894271D01*
X110378572Y-131894271D02*
X110421429Y-131979985D01*
X110421429Y-131979985D02*
X110421429Y-132065700D01*
X110421429Y-132065700D02*
X110378572Y-132151414D01*
X110378572Y-132151414D02*
X110335715Y-132194271D01*
X110335715Y-132194271D02*
X110250000Y-132237128D01*
X110250000Y-132237128D02*
X109950000Y-132237128D01*
X111021429Y-131808557D02*
X111192857Y-131808557D01*
X111192857Y-131808557D02*
X111278572Y-131851414D01*
X111278572Y-131851414D02*
X111364286Y-131937128D01*
X111364286Y-131937128D02*
X111407143Y-132108557D01*
X111407143Y-132108557D02*
X111407143Y-132408557D01*
X111407143Y-132408557D02*
X111364286Y-132579985D01*
X111364286Y-132579985D02*
X111278572Y-132665700D01*
X111278572Y-132665700D02*
X111192857Y-132708557D01*
X111192857Y-132708557D02*
X111021429Y-132708557D01*
X111021429Y-132708557D02*
X110935715Y-132665700D01*
X110935715Y-132665700D02*
X110850000Y-132579985D01*
X110850000Y-132579985D02*
X110807143Y-132408557D01*
X110807143Y-132408557D02*
X110807143Y-132108557D01*
X110807143Y-132108557D02*
X110850000Y-131937128D01*
X110850000Y-131937128D02*
X110935715Y-131851414D01*
X110935715Y-131851414D02*
X111021429Y-131808557D01*
X111664286Y-131808557D02*
X112178572Y-131808557D01*
X111921429Y-132708557D02*
X111921429Y-131808557D01*
X113678571Y-132622842D02*
X113635714Y-132665700D01*
X113635714Y-132665700D02*
X113507142Y-132708557D01*
X113507142Y-132708557D02*
X113421428Y-132708557D01*
X113421428Y-132708557D02*
X113292857Y-132665700D01*
X113292857Y-132665700D02*
X113207142Y-132579985D01*
X113207142Y-132579985D02*
X113164285Y-132494271D01*
X113164285Y-132494271D02*
X113121428Y-132322842D01*
X113121428Y-132322842D02*
X113121428Y-132194271D01*
X113121428Y-132194271D02*
X113164285Y-132022842D01*
X113164285Y-132022842D02*
X113207142Y-131937128D01*
X113207142Y-131937128D02*
X113292857Y-131851414D01*
X113292857Y-131851414D02*
X113421428Y-131808557D01*
X113421428Y-131808557D02*
X113507142Y-131808557D01*
X113507142Y-131808557D02*
X113635714Y-131851414D01*
X113635714Y-131851414D02*
X113678571Y-131894271D01*
X114235714Y-131808557D02*
X114407142Y-131808557D01*
X114407142Y-131808557D02*
X114492857Y-131851414D01*
X114492857Y-131851414D02*
X114578571Y-131937128D01*
X114578571Y-131937128D02*
X114621428Y-132108557D01*
X114621428Y-132108557D02*
X114621428Y-132408557D01*
X114621428Y-132408557D02*
X114578571Y-132579985D01*
X114578571Y-132579985D02*
X114492857Y-132665700D01*
X114492857Y-132665700D02*
X114407142Y-132708557D01*
X114407142Y-132708557D02*
X114235714Y-132708557D01*
X114235714Y-132708557D02*
X114150000Y-132665700D01*
X114150000Y-132665700D02*
X114064285Y-132579985D01*
X114064285Y-132579985D02*
X114021428Y-132408557D01*
X114021428Y-132408557D02*
X114021428Y-132108557D01*
X114021428Y-132108557D02*
X114064285Y-131937128D01*
X114064285Y-131937128D02*
X114150000Y-131851414D01*
X114150000Y-131851414D02*
X114235714Y-131808557D01*
X115007142Y-132708557D02*
X115007142Y-131808557D01*
X115007142Y-131808557D02*
X115521428Y-132708557D01*
X115521428Y-132708557D02*
X115521428Y-131808557D01*
X115949999Y-132708557D02*
X115949999Y-131808557D01*
X115949999Y-131808557D02*
X116464285Y-132708557D01*
X116464285Y-132708557D02*
X116464285Y-131808557D01*
X116892856Y-132237128D02*
X117192856Y-132237128D01*
X117321428Y-132708557D02*
X116892856Y-132708557D01*
X116892856Y-132708557D02*
X116892856Y-131808557D01*
X116892856Y-131808557D02*
X117321428Y-131808557D01*
X118221428Y-132622842D02*
X118178571Y-132665700D01*
X118178571Y-132665700D02*
X118049999Y-132708557D01*
X118049999Y-132708557D02*
X117964285Y-132708557D01*
X117964285Y-132708557D02*
X117835714Y-132665700D01*
X117835714Y-132665700D02*
X117749999Y-132579985D01*
X117749999Y-132579985D02*
X117707142Y-132494271D01*
X117707142Y-132494271D02*
X117664285Y-132322842D01*
X117664285Y-132322842D02*
X117664285Y-132194271D01*
X117664285Y-132194271D02*
X117707142Y-132022842D01*
X117707142Y-132022842D02*
X117749999Y-131937128D01*
X117749999Y-131937128D02*
X117835714Y-131851414D01*
X117835714Y-131851414D02*
X117964285Y-131808557D01*
X117964285Y-131808557D02*
X118049999Y-131808557D01*
X118049999Y-131808557D02*
X118178571Y-131851414D01*
X118178571Y-131851414D02*
X118221428Y-131894271D01*
X118478571Y-131808557D02*
X118992857Y-131808557D01*
X118735714Y-132708557D02*
X118735714Y-131808557D01*
X119292856Y-132708557D02*
X119292856Y-131808557D01*
X119892856Y-131808557D02*
X120064284Y-131808557D01*
X120064284Y-131808557D02*
X120149999Y-131851414D01*
X120149999Y-131851414D02*
X120235713Y-131937128D01*
X120235713Y-131937128D02*
X120278570Y-132108557D01*
X120278570Y-132108557D02*
X120278570Y-132408557D01*
X120278570Y-132408557D02*
X120235713Y-132579985D01*
X120235713Y-132579985D02*
X120149999Y-132665700D01*
X120149999Y-132665700D02*
X120064284Y-132708557D01*
X120064284Y-132708557D02*
X119892856Y-132708557D01*
X119892856Y-132708557D02*
X119807142Y-132665700D01*
X119807142Y-132665700D02*
X119721427Y-132579985D01*
X119721427Y-132579985D02*
X119678570Y-132408557D01*
X119678570Y-132408557D02*
X119678570Y-132108557D01*
X119678570Y-132108557D02*
X119721427Y-131937128D01*
X119721427Y-131937128D02*
X119807142Y-131851414D01*
X119807142Y-131851414D02*
X119892856Y-131808557D01*
X120664284Y-132708557D02*
X120664284Y-131808557D01*
X120664284Y-131808557D02*
X121178570Y-132708557D01*
X121178570Y-132708557D02*
X121178570Y-131808557D01*
X84750000Y-2127950D02*
X85100000Y-2127950D01*
X85250000Y-2677950D02*
X84750000Y-2677950D01*
X84750000Y-2677950D02*
X84750000Y-1627950D01*
X84750000Y-1627950D02*
X85250000Y-1627950D01*
X85700000Y-2677950D02*
X85700000Y-1627950D01*
X86750000Y-1677950D02*
X86650000Y-1627950D01*
X86650000Y-1627950D02*
X86500000Y-1627950D01*
X86500000Y-1627950D02*
X86350000Y-1677950D01*
X86350000Y-1677950D02*
X86250000Y-1777950D01*
X86250000Y-1777950D02*
X86200000Y-1877950D01*
X86200000Y-1877950D02*
X86150000Y-2077950D01*
X86150000Y-2077950D02*
X86150000Y-2227950D01*
X86150000Y-2227950D02*
X86200000Y-2427950D01*
X86200000Y-2427950D02*
X86250000Y-2527950D01*
X86250000Y-2527950D02*
X86350000Y-2627950D01*
X86350000Y-2627950D02*
X86500000Y-2677950D01*
X86500000Y-2677950D02*
X86600000Y-2677950D01*
X86600000Y-2677950D02*
X86750000Y-2627950D01*
X86750000Y-2627950D02*
X86800000Y-2577950D01*
X86800000Y-2577950D02*
X86800000Y-2227950D01*
X86800000Y-2227950D02*
X86600000Y-2227950D01*
X87250000Y-2677950D02*
X87250000Y-1627950D01*
X87250000Y-2127950D02*
X87850000Y-2127950D01*
X87850000Y-2677950D02*
X87850000Y-1627950D01*
X88200000Y-1627950D02*
X88800000Y-1627950D01*
X88500000Y-2677950D02*
X88500000Y-1627950D01*
X89950000Y-2677950D02*
X89950000Y-1627950D01*
X89950000Y-1627950D02*
X90300000Y-2377950D01*
X90300000Y-2377950D02*
X90650000Y-1627950D01*
X90650000Y-1627950D02*
X90650000Y-2677950D01*
X91150000Y-1627950D02*
X91150000Y-2477950D01*
X91150000Y-2477950D02*
X91200000Y-2577950D01*
X91200000Y-2577950D02*
X91250000Y-2627950D01*
X91250000Y-2627950D02*
X91350000Y-2677950D01*
X91350000Y-2677950D02*
X91550000Y-2677950D01*
X91550000Y-2677950D02*
X91650000Y-2627950D01*
X91650000Y-2627950D02*
X91700000Y-2577950D01*
X91700000Y-2577950D02*
X91750000Y-2477950D01*
X91750000Y-2477950D02*
X91750000Y-1627950D01*
X92100000Y-1627950D02*
X92700000Y-1627950D01*
X92400000Y-2677950D02*
X92400000Y-1627950D01*
X93050000Y-1627950D02*
X93050000Y-2477950D01*
X93050000Y-2477950D02*
X93100000Y-2577950D01*
X93100000Y-2577950D02*
X93150000Y-2627950D01*
X93150000Y-2627950D02*
X93250000Y-2677950D01*
X93250000Y-2677950D02*
X93450000Y-2677950D01*
X93450000Y-2677950D02*
X93550000Y-2627950D01*
X93550000Y-2627950D02*
X93600000Y-2577950D01*
X93600000Y-2577950D02*
X93650000Y-2477950D01*
X93650000Y-2477950D02*
X93650000Y-1627950D01*
X94100000Y-2377950D02*
X94600000Y-2377950D01*
X94000000Y-2677950D02*
X94350000Y-1627950D01*
X94350000Y-1627950D02*
X94700000Y-2677950D01*
X95550000Y-2677950D02*
X95050000Y-2677950D01*
X95050000Y-2677950D02*
X95050000Y-1627950D01*
X96400000Y-2677950D02*
X95900000Y-2677950D01*
X95900000Y-2677950D02*
X95900000Y-1627950D01*
X96950000Y-2177950D02*
X96950000Y-2677950D01*
X96600000Y-1627950D02*
X96950000Y-2177950D01*
X96950000Y-2177950D02*
X97300000Y-1627950D01*
X98800000Y-2127950D02*
X98450000Y-2127950D01*
X98450000Y-2677950D02*
X98450000Y-1627950D01*
X98450000Y-1627950D02*
X98950000Y-1627950D01*
X99850000Y-2677950D02*
X99350000Y-2677950D01*
X99350000Y-2677950D02*
X99350000Y-1627950D01*
X100400000Y-1627950D02*
X100600000Y-1627950D01*
X100600000Y-1627950D02*
X100700000Y-1677950D01*
X100700000Y-1677950D02*
X100800000Y-1777950D01*
X100800000Y-1777950D02*
X100850000Y-1977950D01*
X100850000Y-1977950D02*
X100850000Y-2327950D01*
X100850000Y-2327950D02*
X100800000Y-2527950D01*
X100800000Y-2527950D02*
X100700000Y-2627950D01*
X100700000Y-2627950D02*
X100600000Y-2677950D01*
X100600000Y-2677950D02*
X100400000Y-2677950D01*
X100400000Y-2677950D02*
X100300000Y-2627950D01*
X100300000Y-2627950D02*
X100200000Y-2527950D01*
X100200000Y-2527950D02*
X100150000Y-2327950D01*
X100150000Y-2327950D02*
X100150000Y-1977950D01*
X100150000Y-1977950D02*
X100200000Y-1777950D01*
X100200000Y-1777950D02*
X100300000Y-1677950D01*
X100300000Y-1677950D02*
X100400000Y-1627950D01*
X101250000Y-2377950D02*
X101750000Y-2377950D01*
X101150000Y-2677950D02*
X101500000Y-1627950D01*
X101500000Y-1627950D02*
X101850000Y-2677950D01*
X102050000Y-1627950D02*
X102650000Y-1627950D01*
X102350000Y-2677950D02*
X102350000Y-1627950D01*
X103000000Y-2677950D02*
X103000000Y-1627950D01*
X103500000Y-2677950D02*
X103500000Y-1627950D01*
X103500000Y-1627950D02*
X104100000Y-2677950D01*
X104100000Y-2677950D02*
X104100000Y-1627950D01*
X105150000Y-1677950D02*
X105050000Y-1627950D01*
X105050000Y-1627950D02*
X104900000Y-1627950D01*
X104900000Y-1627950D02*
X104750000Y-1677950D01*
X104750000Y-1677950D02*
X104650000Y-1777950D01*
X104650000Y-1777950D02*
X104600000Y-1877950D01*
X104600000Y-1877950D02*
X104550000Y-2077950D01*
X104550000Y-2077950D02*
X104550000Y-2227950D01*
X104550000Y-2227950D02*
X104600000Y-2427950D01*
X104600000Y-2427950D02*
X104650000Y-2527950D01*
X104650000Y-2527950D02*
X104750000Y-2627950D01*
X104750000Y-2627950D02*
X104900000Y-2677950D01*
X104900000Y-2677950D02*
X105000000Y-2677950D01*
X105000000Y-2677950D02*
X105150000Y-2627950D01*
X105150000Y-2627950D02*
X105200000Y-2577950D01*
X105200000Y-2577950D02*
X105200000Y-2227950D01*
X105200000Y-2227950D02*
X105000000Y-2227950D01*
X106450000Y-2677950D02*
X106450000Y-1627950D01*
X106450000Y-1627950D02*
X106700000Y-1627950D01*
X106700000Y-1627950D02*
X106850000Y-1677950D01*
X106850000Y-1677950D02*
X106950000Y-1777950D01*
X106950000Y-1777950D02*
X107000000Y-1877950D01*
X107000000Y-1877950D02*
X107050000Y-2077950D01*
X107050000Y-2077950D02*
X107050000Y-2227950D01*
X107050000Y-2227950D02*
X107000000Y-2427950D01*
X107000000Y-2427950D02*
X106950000Y-2527950D01*
X106950000Y-2527950D02*
X106850000Y-2627950D01*
X106850000Y-2627950D02*
X106700000Y-2677950D01*
X106700000Y-2677950D02*
X106450000Y-2677950D01*
X107500000Y-2677950D02*
X107500000Y-1627950D01*
X108350000Y-2127950D02*
X108000000Y-2127950D01*
X108000000Y-2677950D02*
X108000000Y-1627950D01*
X108000000Y-1627950D02*
X108500000Y-1627950D01*
X109250000Y-2127950D02*
X108900000Y-2127950D01*
X108900000Y-2677950D02*
X108900000Y-1627950D01*
X108900000Y-1627950D02*
X109400000Y-1627950D01*
X109800000Y-2127950D02*
X110150000Y-2127950D01*
X110300000Y-2677950D02*
X109800000Y-2677950D01*
X109800000Y-2677950D02*
X109800000Y-1627950D01*
X109800000Y-1627950D02*
X110300000Y-1627950D01*
X111350000Y-2677950D02*
X111000000Y-2177950D01*
X110750000Y-2677950D02*
X110750000Y-1627950D01*
X110750000Y-1627950D02*
X111150000Y-1627950D01*
X111150000Y-1627950D02*
X111250000Y-1677950D01*
X111250000Y-1677950D02*
X111300000Y-1727950D01*
X111300000Y-1727950D02*
X111350000Y-1827950D01*
X111350000Y-1827950D02*
X111350000Y-1977950D01*
X111350000Y-1977950D02*
X111300000Y-2077950D01*
X111300000Y-2077950D02*
X111250000Y-2127950D01*
X111250000Y-2127950D02*
X111150000Y-2177950D01*
X111150000Y-2177950D02*
X110750000Y-2177950D01*
X111800000Y-2127950D02*
X112150000Y-2127950D01*
X112300000Y-2677950D02*
X111800000Y-2677950D01*
X111800000Y-2677950D02*
X111800000Y-1627950D01*
X111800000Y-1627950D02*
X112300000Y-1627950D01*
X112750000Y-2677950D02*
X112750000Y-1627950D01*
X112750000Y-1627950D02*
X113350000Y-2677950D01*
X113350000Y-2677950D02*
X113350000Y-1627950D01*
X113700000Y-1627950D02*
X114300000Y-1627950D01*
X114000000Y-2677950D02*
X114000000Y-1627950D01*
X114650000Y-2677950D02*
X114650000Y-1627950D01*
X115100000Y-2377950D02*
X115600000Y-2377950D01*
X115000000Y-2677950D02*
X115350000Y-1627950D01*
X115350000Y-1627950D02*
X115700000Y-2677950D01*
X116550000Y-2677950D02*
X116050000Y-2677950D01*
X116050000Y-2677950D02*
X116050000Y-1627950D01*
X118300000Y-2577950D02*
X118250000Y-2627950D01*
X118250000Y-2627950D02*
X118100000Y-2677950D01*
X118100000Y-2677950D02*
X118000000Y-2677950D01*
X118000000Y-2677950D02*
X117850000Y-2627950D01*
X117850000Y-2627950D02*
X117750000Y-2527950D01*
X117750000Y-2527950D02*
X117700000Y-2427950D01*
X117700000Y-2427950D02*
X117650000Y-2227950D01*
X117650000Y-2227950D02*
X117650000Y-2077950D01*
X117650000Y-2077950D02*
X117700000Y-1877950D01*
X117700000Y-1877950D02*
X117750000Y-1777950D01*
X117750000Y-1777950D02*
X117850000Y-1677950D01*
X117850000Y-1677950D02*
X118000000Y-1627950D01*
X118000000Y-1627950D02*
X118100000Y-1627950D01*
X118100000Y-1627950D02*
X118250000Y-1677950D01*
X118250000Y-1677950D02*
X118300000Y-1727950D01*
X118750000Y-2677950D02*
X118750000Y-1627950D01*
X118750000Y-2127950D02*
X119350000Y-2127950D01*
X119350000Y-2677950D02*
X119350000Y-1627950D01*
X119800000Y-2377950D02*
X120300000Y-2377950D01*
X119700000Y-2677950D02*
X120050000Y-1627950D01*
X120050000Y-1627950D02*
X120400000Y-2677950D01*
X120750000Y-2677950D02*
X120750000Y-1627950D01*
X120750000Y-1627950D02*
X121350000Y-2677950D01*
X121350000Y-2677950D02*
X121350000Y-1627950D01*
X121850000Y-2677950D02*
X121850000Y-1627950D01*
X121850000Y-1627950D02*
X122450000Y-2677950D01*
X122450000Y-2677950D02*
X122450000Y-1627950D01*
X122950000Y-2127950D02*
X123300000Y-2127950D01*
X123450000Y-2677950D02*
X122950000Y-2677950D01*
X122950000Y-2677950D02*
X122950000Y-1627950D01*
X122950000Y-1627950D02*
X123450000Y-1627950D01*
X124400000Y-2677950D02*
X123900000Y-2677950D01*
X123900000Y-2677950D02*
X123900000Y-1627950D01*
X124700000Y-2627950D02*
X124850000Y-2677950D01*
X124850000Y-2677950D02*
X125100000Y-2677950D01*
X125100000Y-2677950D02*
X125200000Y-2627950D01*
X125200000Y-2627950D02*
X125250000Y-2577950D01*
X125250000Y-2577950D02*
X125300000Y-2477950D01*
X125300000Y-2477950D02*
X125300000Y-2377950D01*
X125300000Y-2377950D02*
X125250000Y-2277950D01*
X125250000Y-2277950D02*
X125200000Y-2227950D01*
X125200000Y-2227950D02*
X125100000Y-2177950D01*
X125100000Y-2177950D02*
X124900000Y-2127950D01*
X124900000Y-2127950D02*
X124800000Y-2077950D01*
X124800000Y-2077950D02*
X124750000Y-2027950D01*
X124750000Y-2027950D02*
X124700000Y-1927950D01*
X124700000Y-1927950D02*
X124700000Y-1827950D01*
X124700000Y-1827950D02*
X124750000Y-1727950D01*
X124750000Y-1727950D02*
X124800000Y-1677950D01*
X124800000Y-1677950D02*
X124900000Y-1627950D01*
X124900000Y-1627950D02*
X125150000Y-1627950D01*
X125150000Y-1627950D02*
X125300000Y-1677950D01*
%TO.C,RSL1*%
D12*
X89272936Y-127090000D02*
X90727064Y-127090000D01*
X89272936Y-128910000D02*
X90727064Y-128910000D01*
%TO.C,R7C*%
X54272936Y-85010000D02*
X55727064Y-85010000D01*
X54272936Y-86830000D02*
X55727064Y-86830000D01*
%TO.C,R2C*%
X54272936Y-17510000D02*
X55727064Y-17510000D01*
X54272936Y-19330000D02*
X55727064Y-19330000D01*
%TO.C,R5C*%
X54272936Y-58010000D02*
X55727064Y-58010000D01*
X54272936Y-59830000D02*
X55727064Y-59830000D01*
%TO.C,R5A*%
X54272936Y-63090000D02*
X55727064Y-63090000D01*
X54272936Y-64910000D02*
X55727064Y-64910000D01*
%TO.C,D1*%
X70710000Y-120455000D02*
X70710000Y-123545000D01*
X70710000Y-120455170D02*
G75*
G02*
X76260000Y-122000000I2560000J-1544830D01*
G01*
X76260000Y-122000000D02*
G75*
G02*
X70710000Y-123544830I-2990000J0D01*
G01*
X75770000Y-122000000D02*
G75*
G02*
X70770000Y-122000000I-2500000J0D01*
G01*
X70770000Y-122000000D02*
G75*
G02*
X75770000Y-122000000I2500000J0D01*
G01*
%TO.C,J3I*%
X9090000Y-36700000D02*
X9690000Y-37000000D01*
X9090000Y-37300000D02*
X9090000Y-36700000D01*
X9690000Y-37000000D02*
X9090000Y-37300000D01*
X20610000Y-31170000D02*
X20610000Y-32670000D01*
X20610000Y-32670000D02*
X22110000Y-32920000D01*
X20610000Y-36250000D02*
X20610000Y-37750000D01*
X20610000Y-37750000D02*
X22110000Y-38000000D01*
X22110000Y-30920000D02*
X20610000Y-31170000D01*
X22110000Y-32920000D02*
X22110000Y-30920000D01*
X22110000Y-36000000D02*
X20610000Y-36250000D01*
X22110000Y-38000000D02*
X22110000Y-36000000D01*
X9890000Y-28270000D02*
X22110000Y-28270000D01*
X22110000Y-40650000D01*
X9890000Y-40650000D01*
X9890000Y-28270000D01*
X18810000Y-28270000D02*
X20610000Y-28270000D01*
X20610000Y-40650000D01*
X18810000Y-40650000D01*
X18810000Y-28270000D01*
%TO.C,R4C*%
X54272936Y-44510000D02*
X55727064Y-44510000D01*
X54272936Y-46330000D02*
X55727064Y-46330000D01*
%TO.C,R7B*%
X109272936Y-90090000D02*
X110727064Y-90090000D01*
X109272936Y-91910000D02*
X110727064Y-91910000D01*
%TO.C,J2I*%
X9090000Y-23200000D02*
X9690000Y-23500000D01*
X9090000Y-23800000D02*
X9090000Y-23200000D01*
X9690000Y-23500000D02*
X9090000Y-23800000D01*
X20610000Y-17670000D02*
X20610000Y-19170000D01*
X20610000Y-19170000D02*
X22110000Y-19420000D01*
X20610000Y-22750000D02*
X20610000Y-24250000D01*
X20610000Y-24250000D02*
X22110000Y-24500000D01*
X22110000Y-17420000D02*
X20610000Y-17670000D01*
X22110000Y-19420000D02*
X22110000Y-17420000D01*
X22110000Y-22500000D02*
X20610000Y-22750000D01*
X22110000Y-24500000D02*
X22110000Y-22500000D01*
X9890000Y-14770000D02*
X22110000Y-14770000D01*
X22110000Y-27150000D01*
X9890000Y-27150000D01*
X9890000Y-14770000D01*
X18810000Y-14770000D02*
X20610000Y-14770000D01*
X20610000Y-27150000D01*
X18810000Y-27150000D01*
X18810000Y-14770000D01*
%TO.C,R2B*%
X109272936Y-22590000D02*
X110727064Y-22590000D01*
X109272936Y-24410000D02*
X110727064Y-24410000D01*
%TO.C,R6D*%
X109272936Y-71510000D02*
X110727064Y-71510000D01*
X109272936Y-73330000D02*
X110727064Y-73330000D01*
%TO.C,R5D*%
X109272936Y-58010000D02*
X110727064Y-58010000D01*
X109272936Y-59830000D02*
X110727064Y-59830000D01*
%TO.C,R8B*%
X109272936Y-103590000D02*
X110727064Y-103590000D01*
X109272936Y-105410000D02*
X110727064Y-105410000D01*
%TO.C,R3A*%
X54272936Y-36090000D02*
X55727064Y-36090000D01*
X54272936Y-37910000D02*
X55727064Y-37910000D01*
%TO.C,J2O*%
X181090000Y-23200000D02*
X181690000Y-23500000D01*
X181090000Y-23800000D02*
X181090000Y-23200000D01*
X181690000Y-23500000D02*
X181090000Y-23800000D01*
X192610000Y-17670000D02*
X192610000Y-19170000D01*
X192610000Y-19170000D02*
X194110000Y-19420000D01*
X192610000Y-22750000D02*
X192610000Y-24250000D01*
X192610000Y-24250000D02*
X194110000Y-24500000D01*
X194110000Y-17420000D02*
X192610000Y-17670000D01*
X194110000Y-19420000D02*
X194110000Y-17420000D01*
X194110000Y-22500000D02*
X192610000Y-22750000D01*
X194110000Y-24500000D02*
X194110000Y-22500000D01*
X181890000Y-14770000D02*
X194110000Y-14770000D01*
X194110000Y-27150000D01*
X181890000Y-27150000D01*
X181890000Y-14770000D01*
X190810000Y-14770000D02*
X192610000Y-14770000D01*
X192610000Y-27150000D01*
X190810000Y-27150000D01*
X190810000Y-14770000D01*
%TO.C,R7A*%
X54272936Y-90090000D02*
X55727064Y-90090000D01*
X54272936Y-91910000D02*
X55727064Y-91910000D01*
%TO.C,R3B*%
X109272936Y-36090000D02*
X110727064Y-36090000D01*
X109272936Y-37910000D02*
X110727064Y-37910000D01*
%TO.C,R3D*%
X109272936Y-31010000D02*
X110727064Y-31010000D01*
X109272936Y-32830000D02*
X110727064Y-32830000D01*
%TO.C,JTTL*%
X181090000Y-123700000D02*
X181690000Y-124000000D01*
X181090000Y-124300000D02*
X181090000Y-123700000D01*
X181690000Y-124000000D02*
X181090000Y-124300000D01*
X192610000Y-118170000D02*
X192610000Y-119670000D01*
X192610000Y-119670000D02*
X194110000Y-119920000D01*
X192610000Y-123250000D02*
X192610000Y-124750000D01*
X192610000Y-124750000D02*
X194110000Y-125000000D01*
X194110000Y-117920000D02*
X192610000Y-118170000D01*
X194110000Y-119920000D02*
X194110000Y-117920000D01*
X194110000Y-123000000D02*
X192610000Y-123250000D01*
X194110000Y-125000000D02*
X194110000Y-123000000D01*
X181890000Y-115270000D02*
X194110000Y-115270000D01*
X194110000Y-127650000D01*
X181890000Y-127650000D01*
X181890000Y-115270000D01*
X190810000Y-115270000D02*
X192610000Y-115270000D01*
X192610000Y-127650000D01*
X190810000Y-127650000D01*
X190810000Y-115270000D01*
%TO.C,R3C*%
X54272936Y-31010000D02*
X55727064Y-31010000D01*
X54272936Y-32830000D02*
X55727064Y-32830000D01*
%TO.C,J5O*%
X181090000Y-63700000D02*
X181690000Y-64000000D01*
X181090000Y-64300000D02*
X181090000Y-63700000D01*
X181690000Y-64000000D02*
X181090000Y-64300000D01*
X192610000Y-58170000D02*
X192610000Y-59670000D01*
X192610000Y-59670000D02*
X194110000Y-59920000D01*
X192610000Y-63250000D02*
X192610000Y-64750000D01*
X192610000Y-64750000D02*
X194110000Y-65000000D01*
X194110000Y-57920000D02*
X192610000Y-58170000D01*
X194110000Y-59920000D02*
X194110000Y-57920000D01*
X194110000Y-63000000D02*
X192610000Y-63250000D01*
X194110000Y-65000000D02*
X194110000Y-63000000D01*
X181890000Y-55270000D02*
X194110000Y-55270000D01*
X194110000Y-67650000D01*
X181890000Y-67650000D01*
X181890000Y-55270000D01*
X190810000Y-55270000D02*
X192610000Y-55270000D01*
X192610000Y-67650000D01*
X190810000Y-67650000D01*
X190810000Y-55270000D01*
%TO.C,J6I*%
X9090000Y-77200000D02*
X9690000Y-77500000D01*
X9090000Y-77800000D02*
X9090000Y-77200000D01*
X9690000Y-77500000D02*
X9090000Y-77800000D01*
X20610000Y-71670000D02*
X20610000Y-73170000D01*
X20610000Y-73170000D02*
X22110000Y-73420000D01*
X20610000Y-76750000D02*
X20610000Y-78250000D01*
X20610000Y-78250000D02*
X22110000Y-78500000D01*
X22110000Y-71420000D02*
X20610000Y-71670000D01*
X22110000Y-73420000D02*
X22110000Y-71420000D01*
X22110000Y-76500000D02*
X20610000Y-76750000D01*
X22110000Y-78500000D02*
X22110000Y-76500000D01*
X9890000Y-68770000D02*
X22110000Y-68770000D01*
X22110000Y-81150000D01*
X9890000Y-81150000D01*
X9890000Y-68770000D01*
X18810000Y-68770000D02*
X20610000Y-68770000D01*
X20610000Y-81150000D01*
X18810000Y-81150000D01*
X18810000Y-68770000D01*
%TO.C,R4D*%
X109272936Y-44510000D02*
X110727064Y-44510000D01*
X109272936Y-46330000D02*
X110727064Y-46330000D01*
%TO.C,R6B*%
X109272936Y-76590000D02*
X110727064Y-76590000D01*
X109272936Y-78410000D02*
X110727064Y-78410000D01*
%TO.C,R1B*%
X109272936Y-9090000D02*
X110727064Y-9090000D01*
X109272936Y-10910000D02*
X110727064Y-10910000D01*
%TO.C,R4A*%
X54272936Y-49590000D02*
X55727064Y-49590000D01*
X54272936Y-51410000D02*
X55727064Y-51410000D01*
%TO.C,R1D*%
X109272936Y-4010000D02*
X110727064Y-4010000D01*
X109272936Y-5830000D02*
X110727064Y-5830000D01*
%TO.C,R6C*%
X54272936Y-71510000D02*
X55727064Y-71510000D01*
X54272936Y-73330000D02*
X55727064Y-73330000D01*
%TO.C,R5B*%
X109272936Y-63090000D02*
X110727064Y-63090000D01*
X109272936Y-64910000D02*
X110727064Y-64910000D01*
%TO.C,J8I*%
X9090000Y-104200000D02*
X9690000Y-104500000D01*
X9090000Y-104800000D02*
X9090000Y-104200000D01*
X9690000Y-104500000D02*
X9090000Y-104800000D01*
X20610000Y-98670000D02*
X20610000Y-100170000D01*
X20610000Y-100170000D02*
X22110000Y-100420000D01*
X20610000Y-103750000D02*
X20610000Y-105250000D01*
X20610000Y-105250000D02*
X22110000Y-105500000D01*
X22110000Y-98420000D02*
X20610000Y-98670000D01*
X22110000Y-100420000D02*
X22110000Y-98420000D01*
X22110000Y-103500000D02*
X20610000Y-103750000D01*
X22110000Y-105500000D02*
X22110000Y-103500000D01*
X9890000Y-95770000D02*
X22110000Y-95770000D01*
X22110000Y-108150000D01*
X9890000Y-108150000D01*
X9890000Y-95770000D01*
X18810000Y-95770000D02*
X20610000Y-95770000D01*
X20610000Y-108150000D01*
X18810000Y-108150000D01*
X18810000Y-95770000D01*
%TO.C,J3O*%
X181090000Y-36700000D02*
X181690000Y-37000000D01*
X181090000Y-37300000D02*
X181090000Y-36700000D01*
X181690000Y-37000000D02*
X181090000Y-37300000D01*
X192610000Y-31170000D02*
X192610000Y-32670000D01*
X192610000Y-32670000D02*
X194110000Y-32920000D01*
X192610000Y-36250000D02*
X192610000Y-37750000D01*
X192610000Y-37750000D02*
X194110000Y-38000000D01*
X194110000Y-30920000D02*
X192610000Y-31170000D01*
X194110000Y-32920000D02*
X194110000Y-30920000D01*
X194110000Y-36000000D02*
X192610000Y-36250000D01*
X194110000Y-38000000D02*
X194110000Y-36000000D01*
X181890000Y-28270000D02*
X194110000Y-28270000D01*
X194110000Y-40650000D01*
X181890000Y-40650000D01*
X181890000Y-28270000D01*
X190810000Y-28270000D02*
X192610000Y-28270000D01*
X192610000Y-40650000D01*
X190810000Y-40650000D01*
X190810000Y-28270000D01*
%TO.C,J8O*%
X181090000Y-104200000D02*
X181690000Y-104500000D01*
X181090000Y-104800000D02*
X181090000Y-104200000D01*
X181690000Y-104500000D02*
X181090000Y-104800000D01*
X192610000Y-98670000D02*
X192610000Y-100170000D01*
X192610000Y-100170000D02*
X194110000Y-100420000D01*
X192610000Y-103750000D02*
X192610000Y-105250000D01*
X192610000Y-105250000D02*
X194110000Y-105500000D01*
X194110000Y-98420000D02*
X192610000Y-98670000D01*
X194110000Y-100420000D02*
X194110000Y-98420000D01*
X194110000Y-103500000D02*
X192610000Y-103750000D01*
X194110000Y-105500000D02*
X194110000Y-103500000D01*
X181890000Y-95770000D02*
X194110000Y-95770000D01*
X194110000Y-108150000D01*
X181890000Y-108150000D01*
X181890000Y-95770000D01*
X190810000Y-95770000D02*
X192610000Y-95770000D01*
X192610000Y-108150000D01*
X190810000Y-108150000D01*
X190810000Y-95770000D01*
%TO.C,R8C*%
X54272936Y-98510000D02*
X55727064Y-98510000D01*
X54272936Y-100330000D02*
X55727064Y-100330000D01*
%TO.C,J1I*%
X9090000Y-9700000D02*
X9690000Y-10000000D01*
X9090000Y-10300000D02*
X9090000Y-9700000D01*
X9690000Y-10000000D02*
X9090000Y-10300000D01*
X20610000Y-4170000D02*
X20610000Y-5670000D01*
X20610000Y-5670000D02*
X22110000Y-5920000D01*
X20610000Y-9250000D02*
X20610000Y-10750000D01*
X20610000Y-10750000D02*
X22110000Y-11000000D01*
X22110000Y-3920000D02*
X20610000Y-4170000D01*
X22110000Y-5920000D02*
X22110000Y-3920000D01*
X22110000Y-9000000D02*
X20610000Y-9250000D01*
X22110000Y-11000000D02*
X22110000Y-9000000D01*
X9890000Y-1270000D02*
X22110000Y-1270000D01*
X22110000Y-13650000D01*
X9890000Y-13650000D01*
X9890000Y-1270000D01*
X18810000Y-1270000D02*
X20610000Y-1270000D01*
X20610000Y-13650000D01*
X18810000Y-13650000D01*
X18810000Y-1270000D01*
%TO.C,R6A*%
X54272936Y-76590000D02*
X55727064Y-76590000D01*
X54272936Y-78410000D02*
X55727064Y-78410000D01*
%TO.C,R4B*%
X109272936Y-49590000D02*
X110727064Y-49590000D01*
X109272936Y-51410000D02*
X110727064Y-51410000D01*
%TO.C,J1O*%
X181090000Y-9700000D02*
X181690000Y-10000000D01*
X181090000Y-10300000D02*
X181090000Y-9700000D01*
X181690000Y-10000000D02*
X181090000Y-10300000D01*
X192610000Y-4170000D02*
X192610000Y-5670000D01*
X192610000Y-5670000D02*
X194110000Y-5920000D01*
X192610000Y-9250000D02*
X192610000Y-10750000D01*
X192610000Y-10750000D02*
X194110000Y-11000000D01*
X194110000Y-3920000D02*
X192610000Y-4170000D01*
X194110000Y-5920000D02*
X194110000Y-3920000D01*
X194110000Y-9000000D02*
X192610000Y-9250000D01*
X194110000Y-11000000D02*
X194110000Y-9000000D01*
X181890000Y-1270000D02*
X194110000Y-1270000D01*
X194110000Y-13650000D01*
X181890000Y-13650000D01*
X181890000Y-1270000D01*
X190810000Y-1270000D02*
X192610000Y-1270000D01*
X192610000Y-13650000D01*
X190810000Y-13650000D01*
X190810000Y-1270000D01*
%TO.C,J4O*%
X181090000Y-50200000D02*
X181690000Y-50500000D01*
X181090000Y-50800000D02*
X181090000Y-50200000D01*
X181690000Y-50500000D02*
X181090000Y-50800000D01*
X192610000Y-44670000D02*
X192610000Y-46170000D01*
X192610000Y-46170000D02*
X194110000Y-46420000D01*
X192610000Y-49750000D02*
X192610000Y-51250000D01*
X192610000Y-51250000D02*
X194110000Y-51500000D01*
X194110000Y-44420000D02*
X192610000Y-44670000D01*
X194110000Y-46420000D02*
X194110000Y-44420000D01*
X194110000Y-49500000D02*
X192610000Y-49750000D01*
X194110000Y-51500000D02*
X194110000Y-49500000D01*
X181890000Y-41770000D02*
X194110000Y-41770000D01*
X194110000Y-54150000D01*
X181890000Y-54150000D01*
X181890000Y-41770000D01*
X190810000Y-41770000D02*
X192610000Y-41770000D01*
X192610000Y-54150000D01*
X190810000Y-54150000D01*
X190810000Y-41770000D01*
%TO.C,R2D*%
X109272936Y-17510000D02*
X110727064Y-17510000D01*
X109272936Y-19330000D02*
X110727064Y-19330000D01*
%TO.C,RSL2*%
X121272936Y-117090000D02*
X122727064Y-117090000D01*
X121272936Y-118910000D02*
X122727064Y-118910000D01*
%TO.C,R7D*%
X109272936Y-85010000D02*
X110727064Y-85010000D01*
X109272936Y-86830000D02*
X110727064Y-86830000D01*
%TO.C,R8A*%
X54272936Y-103590000D02*
X55727064Y-103590000D01*
X54272936Y-105410000D02*
X55727064Y-105410000D01*
%TO.C,R8D*%
X109272936Y-98510000D02*
X110727064Y-98510000D01*
X109272936Y-100330000D02*
X110727064Y-100330000D01*
%TO.C,RSL3*%
X149272936Y-127090000D02*
X150727064Y-127090000D01*
X149272936Y-128910000D02*
X150727064Y-128910000D01*
%TO.C,JBT1*%
X9090000Y-123700000D02*
X9690000Y-124000000D01*
X9090000Y-124300000D02*
X9090000Y-123700000D01*
X9690000Y-124000000D02*
X9090000Y-124300000D01*
X20610000Y-118170000D02*
X20610000Y-119670000D01*
X20610000Y-119670000D02*
X22110000Y-119920000D01*
X20610000Y-123250000D02*
X20610000Y-124750000D01*
X20610000Y-124750000D02*
X22110000Y-125000000D01*
X22110000Y-117920000D02*
X20610000Y-118170000D01*
X22110000Y-119920000D02*
X22110000Y-117920000D01*
X22110000Y-123000000D02*
X20610000Y-123250000D01*
X22110000Y-125000000D02*
X22110000Y-123000000D01*
X9890000Y-115270000D02*
X22110000Y-115270000D01*
X22110000Y-127650000D01*
X9890000Y-127650000D01*
X9890000Y-115270000D01*
X18810000Y-115270000D02*
X20610000Y-115270000D01*
X20610000Y-127650000D01*
X18810000Y-127650000D01*
X18810000Y-115270000D01*
%TO.C,SW1*%
X42130000Y-122350000D02*
X42130000Y-120150000D01*
X42750000Y-118130000D02*
X47750000Y-118130000D01*
X42750000Y-124370000D02*
X47750000Y-124370000D01*
X48370000Y-120150000D02*
X48370000Y-122350000D01*
X47000000Y-121250000D02*
G75*
G02*
X43500000Y-121250000I-1750000J0D01*
G01*
X43500000Y-121250000D02*
G75*
G02*
X47000000Y-121250000I1750000J0D01*
G01*
%TO.C,J7I*%
X9090000Y-90700000D02*
X9690000Y-91000000D01*
X9090000Y-91300000D02*
X9090000Y-90700000D01*
X9690000Y-91000000D02*
X9090000Y-91300000D01*
X20610000Y-85170000D02*
X20610000Y-86670000D01*
X20610000Y-86670000D02*
X22110000Y-86920000D01*
X20610000Y-90250000D02*
X20610000Y-91750000D01*
X20610000Y-91750000D02*
X22110000Y-92000000D01*
X22110000Y-84920000D02*
X20610000Y-85170000D01*
X22110000Y-86920000D02*
X22110000Y-84920000D01*
X22110000Y-90000000D02*
X20610000Y-90250000D01*
X22110000Y-92000000D02*
X22110000Y-90000000D01*
X9890000Y-82270000D02*
X22110000Y-82270000D01*
X22110000Y-94650000D01*
X9890000Y-94650000D01*
X9890000Y-82270000D01*
X18810000Y-82270000D02*
X20610000Y-82270000D01*
X20610000Y-94650000D01*
X18810000Y-94650000D01*
X18810000Y-82270000D01*
%TO.C,J7O*%
X181090000Y-90700000D02*
X181690000Y-91000000D01*
X181090000Y-91300000D02*
X181090000Y-90700000D01*
X181690000Y-91000000D02*
X181090000Y-91300000D01*
X192610000Y-85170000D02*
X192610000Y-86670000D01*
X192610000Y-86670000D02*
X194110000Y-86920000D01*
X192610000Y-90250000D02*
X192610000Y-91750000D01*
X192610000Y-91750000D02*
X194110000Y-92000000D01*
X194110000Y-84920000D02*
X192610000Y-85170000D01*
X194110000Y-86920000D02*
X194110000Y-84920000D01*
X194110000Y-90000000D02*
X192610000Y-90250000D01*
X194110000Y-92000000D02*
X194110000Y-90000000D01*
X181890000Y-82270000D02*
X194110000Y-82270000D01*
X194110000Y-94650000D01*
X181890000Y-94650000D01*
X181890000Y-82270000D01*
X190810000Y-82270000D02*
X192610000Y-82270000D01*
X192610000Y-94650000D01*
X190810000Y-94650000D01*
X190810000Y-82270000D01*
%TO.C,J5I*%
X9090000Y-63700000D02*
X9690000Y-64000000D01*
X9090000Y-64300000D02*
X9090000Y-63700000D01*
X9690000Y-64000000D02*
X9090000Y-64300000D01*
X20610000Y-58170000D02*
X20610000Y-59670000D01*
X20610000Y-59670000D02*
X22110000Y-59920000D01*
X20610000Y-63250000D02*
X20610000Y-64750000D01*
X20610000Y-64750000D02*
X22110000Y-65000000D01*
X22110000Y-57920000D02*
X20610000Y-58170000D01*
X22110000Y-59920000D02*
X22110000Y-57920000D01*
X22110000Y-63000000D02*
X20610000Y-63250000D01*
X22110000Y-65000000D02*
X22110000Y-63000000D01*
X9890000Y-55270000D02*
X22110000Y-55270000D01*
X22110000Y-67650000D01*
X9890000Y-67650000D01*
X9890000Y-55270000D01*
X18810000Y-55270000D02*
X20610000Y-55270000D01*
X20610000Y-67650000D01*
X18810000Y-67650000D01*
X18810000Y-55270000D01*
%TO.C,J4I*%
X9090000Y-50200000D02*
X9690000Y-50500000D01*
X9090000Y-50800000D02*
X9090000Y-50200000D01*
X9690000Y-50500000D02*
X9090000Y-50800000D01*
X20610000Y-44670000D02*
X20610000Y-46170000D01*
X20610000Y-46170000D02*
X22110000Y-46420000D01*
X20610000Y-49750000D02*
X20610000Y-51250000D01*
X20610000Y-51250000D02*
X22110000Y-51500000D01*
X22110000Y-44420000D02*
X20610000Y-44670000D01*
X22110000Y-46420000D02*
X22110000Y-44420000D01*
X22110000Y-49500000D02*
X20610000Y-49750000D01*
X22110000Y-51500000D02*
X22110000Y-49500000D01*
X9890000Y-41770000D02*
X22110000Y-41770000D01*
X22110000Y-54150000D01*
X9890000Y-54150000D01*
X9890000Y-41770000D01*
X18810000Y-41770000D02*
X20610000Y-41770000D01*
X20610000Y-54150000D01*
X18810000Y-54150000D01*
X18810000Y-41770000D01*
%TO.C,R2A*%
X54272936Y-22590000D02*
X55727064Y-22590000D01*
X54272936Y-24410000D02*
X55727064Y-24410000D01*
%TO.C,J6O*%
X181090000Y-77200000D02*
X181690000Y-77500000D01*
X181090000Y-77800000D02*
X181090000Y-77200000D01*
X181690000Y-77500000D02*
X181090000Y-77800000D01*
X192610000Y-71670000D02*
X192610000Y-73170000D01*
X192610000Y-73170000D02*
X194110000Y-73420000D01*
X192610000Y-76750000D02*
X192610000Y-78250000D01*
X192610000Y-78250000D02*
X194110000Y-78500000D01*
X194110000Y-71420000D02*
X192610000Y-71670000D01*
X194110000Y-73420000D02*
X194110000Y-71420000D01*
X194110000Y-76500000D02*
X192610000Y-76750000D01*
X194110000Y-78500000D02*
X194110000Y-76500000D01*
X181890000Y-68770000D02*
X194110000Y-68770000D01*
X194110000Y-81150000D01*
X181890000Y-81150000D01*
X181890000Y-68770000D01*
X190810000Y-68770000D02*
X192610000Y-68770000D01*
X192610000Y-81150000D01*
X190810000Y-81150000D01*
X190810000Y-68770000D01*
%TO.C,R1A*%
X54272936Y-9090000D02*
X55727064Y-9090000D01*
X54272936Y-10910000D02*
X55727064Y-10910000D01*
%TO.C,R1C*%
X54272936Y-4010000D02*
X55727064Y-4010000D01*
X54272936Y-5830000D02*
X55727064Y-5830000D01*
%TD*%
M02*
