M48
; DRILL file KiCad 10.0.5 date 2026-08-09T15:42:56
; FORMAT={-:-/ absolute / metric / decimal}
; #@! TF.CreationDate,2026-08-09T15:42:56-04:00
; #@! TF.GenerationSoftware,Kicad,Pcbnew,10.0.5
; #@! TF.FileFunction,Plated,1,4,PTH
FMAT,2
METRIC
; #@! TA.AperFunction,Plated,PTH,ViaDrill
T1C0.300
; #@! TA.AperFunction,Plated,PTH,ComponentDrill
T2C1.600
; #@! TA.AperFunction,Plated,PTH,ComponentDrill
T3C1.700
%
G90
G05
T1
X35.0Y-30.0
X35.0Y-38.0
X42.0Y-18.0
X42.0Y-42.0
X43.225Y-20.0
X43.225Y-40.0
X45.0Y-27.5
X45.0Y-29.0
X45.0Y-32.0
X47.0Y-17.0
X47.0Y-30.5
X47.0Y-43.0
X54.0Y-29.75
X55.0Y-27.5
X55.0Y-30.5
X58.0Y-18.0
X58.0Y-42.0
X63.0Y-16.0
X63.0Y-44.0
X71.0Y-24.0
X71.0Y-29.0
X80.0Y-18.0
T2
X16.0Y-12.0
X20.0Y-22.0
X20.0Y-38.0
X50.0Y-52.0
X70.0Y-42.0
X84.0Y-12.0
T3
X8.0Y-30.0
X8.0Y-33.96
X92.0Y-26.04
X92.0Y-30.0
M30
