<?xml version="1.0" encoding="UTF-8" standalone="no"?>
<svg
   xmlns:svg="http://www.w3.org/2000/svg"
   xmlns="http://www.w3.org/2000/svg"
   width="1000.0"
   height="760.0"

>
    <g transform="scale(6.983027255554543, -6.983027255554543)   translate(26.638497659434883,13.762678880244664)" stroke-width="0.65"  fill="none">
       <!-- hidden lines -->
       <g  stroke="rgb(140,170,195)" fill="none" stroke-dasharray="0.65,0.65" >

       </g>

       <!-- solid lines -->
       <g  stroke="rgb(8,43,85)" fill="none">
			<path d="M32.44739668126187,-65.21394127808966 L6.5113434625544535,-53.062348278963775 " />
			<path d="M32.44739668126187,-65.21394127808965 L32.50471582893008,-65.23950959279571 L32.56464367221763,-65.26372938513943 L32.62703583970097,-65.28654230751961 L32.69174202318375,-65.30789340160808 L32.75860633980234,-65.32773123074907 L32.8274677075614,-65.34600800387454 L32.97051361281483,-65.3777061274834 L33.119502128679585,-65.40268250217638 L33.27299841430249,-65.42069659181166 L33.4295242165434,-65.43157491085859 L33.58757210636101,-65.43521269515804 L33.745619996178625,-65.43157491085859 L33.902145798419525,-65.42069659181166 L34.05564208404244,-65.40268250217638 L34.2046305999072,-65.3777061274834 L34.34767650516062,-65.34600800387454 L34.416537872919676,-65.32773123074907 L34.483402189538275,-65.30789340160808 L34.548108373021044,-65.28654230751961 L34.61050054050439,-65.26372938513943 L34.670428383791936,-65.23950959279571 L34.72774753146014,-65.21394127808965 " />
			<path d="M73.39172281152541,-47.09904587092206 L34.72774753146016,-65.21394127808965 " />
			<path d="M76.02278355275453,-48.331753832067584 L76.09520921247328,-48.36799379374494 L76.1623980930697,-48.40638424679675 L76.2240600304234,-48.44675939694364 L76.27992872925375,-48.488944878727764 L76.32976291315148,-48.53275850853321 L76.37334736656294,-48.578011071370234 L76.41049386422715,-48.624507138025336 L76.44104198405155,-48.67204590904832 L76.46485979991623,-48.72042208193146 L76.48184445141442,-48.769426737735664 L76.49192258806877,-48.818848243334735 L76.49505068610526,-48.868473165381175 L76.49121523641631,-48.91808719204649 L76.48043280290173,-48.96747605855534 L76.46274995093525,-49.016426472516486 L76.4382430462658,-49.064727035054325 " />
			<path d="M76.4382430462658,-49.06472703505433 L76.40745613966838,-49.11157278561646 L76.37025014420803,-49.15738454942991 L76.3267816844068,-49.201969474629735 L76.2772337476208,-49.24513987392214 L76.22181491372599,-49.28671401468387 L76.16075847706821,-49.32651688399438 L76.09432146437372,-49.36438092538045 L76.02278355275453,-49.40014674417162 " />
			<path d="M76.02278355275452,-48.331753832067584 L47.455669592818,-34.94745287179618 " />
			<path d="M45.17531874261973,-34.94745287179618 L45.23263789028794,-34.92188455709012 L45.292565733575486,-34.89766476474641 L45.35495790105883,-34.874851842366226 L45.4196640845416,-34.853500748277746 L45.4865284011602,-34.83366291913677 L45.555389768919255,-34.81538614601129 L45.69843567417268,-34.78368802240242 L45.84742419003744,-34.75871164770946 L46.00092047566035,-34.74069755807417 L46.15744627790126,-34.72981923902724 L46.31549416771887,-34.726181454727794 L46.47354205753648,-34.72981923902724 L46.630067859777384,-34.74069755807417 L46.7835641454003,-34.75871164770946 L46.932552661265056,-34.78368802240242 L47.07559856651848,-34.81538614601129 L47.144459934277535,-34.83366291913677 L47.21132425089613,-34.853500748277746 L47.2760304343789,-34.874851842366226 L47.33842260186225,-34.89766476474641 L47.398350445149795,-34.92188455709012 L47.455669592818,-34.94745287179618 " />
			<path d="M45.17531874261973,-34.94745287179618 L3.880282721325351,-54.2950562401093 " />
			<path d="M3.880282721325346,-54.2950562401093 L3.807857062082662,-54.33129620153217 L3.740668181888901,-54.369686654301304 L3.6790062448587593,-54.410061804140796 L3.6231375462678432,-54.4522472855965 L3.573303362521107,-54.49606091505642 L3.5297189091686043,-54.54131347753486 L3.4925724114685215,-54.587809543822544 L3.4620242915113604,-54.635348314473596 L3.4382064754158113,-54.683724486984694 L3.4212218235882603,-54.7327291424212 L3.4111436865064473,-54.78215064766139 L3.40801558794567,-54.83177556936222 L3.411851037015577,-54.88138959569961 L3.4226334698192744,-54.930778461902555 L3.4403163209867236,-54.979728875584044 L3.464823224773477,-55.02802943787256 " />
			<path d="M3.4648232247734807,-55.02802943787257 L3.4956101311239633,-55.07487518917809 L3.5328161265283935,-55.12068695372525 L3.5762845864606234,-55.16527187964069 L3.625832523558935,-55.20844227962243 L3.681251357940295,-55.2500164210393 L3.7423077952503867,-55.28981929096316 L3.8087448087531186,-55.32768333291358 L3.8802827213253446,-55.363449152213335 " />
			<path d="M32.44739668126187,-68.74775011248475 L3.8802827213253437,-55.36344915221334 " />
			<path d="M32.44739668126187,-68.74775011248474 L32.50471582893008,-68.7733184271908 L32.56464367221763,-68.79753821953452 L32.62703583970097,-68.8203511419147 L32.69174202318374,-68.84170223600317 L32.75860633980234,-68.86154006514415 L32.8274677075614,-68.87981683826963 L32.97051361281482,-68.9115149618785 L33.119502128679585,-68.93649133657146 L33.27299841430249,-68.95450542620675 L33.42952421654339,-68.96538374525369 L33.58757210636101,-68.96902152955313 L33.745619996178625,-68.96538374525369 L33.902145798419525,-68.95450542620675 L34.05564208404243,-68.93649133657146 L34.2046305999072,-68.9115149618785 L34.34767650516062,-68.87981683826963 L34.416537872919676,-68.86154006514415 L34.483402189538275,-68.84170223600317 L34.548108373021044,-68.8203511419147 L34.61050054050439,-68.79753821953452 L34.670428383791936,-68.7733184271908 L34.72774753146014,-68.74775011248474 " />
			<path d="M76.02278355275453,-49.40014674417162 L34.72774753146016,-68.74775011248474 " />
			<path d="M93.65317087613253,-46.922355429202305 L93.65100269730185,-46.88097477945338 L93.6445033841425,-46.83969381931422 L93.63368859406914,-46.798611998233575 L93.61858438085835,-46.75782828591679 L93.59922713188271,-46.71744093389905 L93.57566348045052,-46.67754723884888 L93.54795019346197,-46.63824330817194 L93.51615403465286,-46.59962382847984 L93.48035160375474,-46.56178183748184 L93.44062915195957,-46.52480849984881 L93.39708237413302,-46.48879288758958 L93.34981617827712,-46.4538217654687 L93.2989444327977,-46.41997938198246 L93.24458969218547,-46.3873472663969 L93.18688290177147,-46.356004032336735 L93.12596308226833,-46.326025188398134 " />
			<path d="M93.65317087613253,-47.27573631264181 L93.65100269730185,-47.23435566289289 L93.6445033841425,-47.19307470275373 L93.63368859406914,-47.15199288167308 L93.61858438085835,-47.11120916935629 L93.59922713188271,-47.070821817338555 L93.57566348045052,-47.03092812228839 L93.54795019346197,-46.99162419161144 L93.51615403465286,-46.95300471191935 L93.48035160375474,-46.915162720921344 L93.44062915195957,-46.878189383288316 L93.39708237413302,-46.84217377102909 L93.34981617827712,-46.80720264890821 L93.2989444327977,-46.77336026542196 L93.24458969218547,-46.74072814983641 L93.18688290177147,-46.70938491577624 L93.12596308226833,-46.67940607183764 " />
			<path d="M93.12596308226831,-46.326025188398134 L93.12596308226831,-46.67940607183765 " />
			<path d="M91.85317087613254,-48.8659502881196 L91.90434727651264,-48.88864156634522 L91.95544090748888,-48.908724235810915 L92.0063691335233,-48.92616581610447 L92.05704958659315,-48.940938098340695 L92.10740029940776,-48.95301719078463 L92.15733983797696,-48.96238355749247 L92.2067874333173,-48.969022049907814 L92.2556631120825,-48.97292193136189 L92.3038878259072,-48.97407689443836 L92.3513835792547,-48.97248507117457 L92.39807355556185,-48.96814903608262 L92.44388224147728,-48.961075801985565 L92.48873554899171,-48.95127680867528 L92.53256093526322,-48.938767904410504 L92.57528751994326,-48.92356932028489 L92.616846199814,-48.90570563750655 " />
			<path d="M91.85317087613252,-48.865950288119606 L33.587572106361,-76.16462353382167 " />
			<path d="M34.35124743004248,-76.20437888320862 L34.30968875017173,-76.22224256598697 L34.2669621654917,-76.23744115011257 L34.22313677922019,-76.24995005437735 L34.178283471705754,-76.25974904768765 L34.13247478579033,-76.2668222817847 L34.085784809483165,-76.27115831687664 L34.038289056135675,-76.27275014014043 L33.99006434231097,-76.27159517706396 L33.94118866354577,-76.2676952956099 L33.891741068205434,-76.26105680319455 L33.84180152963623,-76.2516904364867 L33.79145081682162,-76.23961134404277 L33.74077036375176,-76.22483906180655 L33.68984213771735,-76.20739748151298 L33.63874850674111,-76.18731481204729 L33.587572106361016,-76.16462353382168 " />
			<path d="M92.616846199814,-45.29238610433757 L92.67454368283906,-45.322756017333866 L92.72948303524386,-45.35849730868844 L92.78147977330931,-45.39948996085351 L92.83035929447466,-45.44559632246268 L92.87595746364444,-45.496661570557734 L92.91812116434632,-45.552514230476675 L92.95670881288895,-45.61296675165746 L92.99159083379315,-45.67781613742382 L93.02265009490021,-45.74684462663839 L93.04978230069608,-45.8198204249342 L93.07289634253073,-45.896498483069095 L93.09191460455659,-45.976621319789345 L93.10677322435895,-46.05991988643942 L93.11742230740278,-46.146114470414474 L93.12382609457632,-46.23491563442195 L93.12596308226833,-46.32602518839812 " />
			<path d="M91.85317087613254,-48.8659502881196 L91.91562382958968,-48.83477426769562 L91.97792632841173,-48.79984238828232 L92.03992828042193,-48.761238803836875 L92.10148031748719,-48.71905651377549 L92.16243415535888,-48.67339713892966 L92.22264295090265,-48.62437067673266 L92.28196165585638,-48.572095236226154 L92.34024736626411,-48.5166967535251 L92.39735966674426,-48.45830868842667 L92.4531609687625,-48.39707170289386 L92.50751684209469,-48.33313332218855 L92.56029633868093,-48.26664757947021 L92.61137230809102,-48.1977746447165 L92.6606217038409,-48.1266804388598 L92.70792587982251,-48.05353623406914 L92.75317087613254,-47.97851824114054 L92.79624769361187,-47.90180718498976 L92.83705255643412,-47.82358786927015 L92.87548716211067,-47.744048731164504 L92.91145891830996,-47.66338138742331 L92.94488116592056,-47.581780172743265 L92.97567338782054,-47.499441671597964 L93.00376140285026,-47.41656424464866 L93.02907754452127,-47.333347550876084 L93.05156082403089,-47.249992066584454 L93.07115707718945,-47.166698602436504 L93.08781909490668,-47.083667819683015 L93.10150673692247,-47.001099746752274 L93.1121870285083,-46.91919329736409 L93.11983423990628,-46.83814579132918 L93.12442994831432,-46.758152479188524 L93.12596308226833,-46.679406071837654 " />
			<path d="M93.12596308226831,-46.32602518839813 L47.58828637385466,-24.990654350737774 " />
			<path d="M93.12596308226831,-46.67940607183764 L47.58828637385466,-25.344035234177287 " />
			<path d="M47.58828637385465,-24.990654350737778 L47.58828637385465,-25.344035234177287 " />
			<path d="M91.85317087613254,-48.8659502881196 L46.31549416771888,-27.530579450459246 " />
			<path d="M33.587572106361016,-76.16462353382168 L-11.950104602052647,-54.82925269616132 " />
			<path d="M46.31549416771887,-27.530579450459246 L-11.950104602052662,-54.82925269616132 " />
			<path d="M32.82389678267954,-76.20437888320862 L32.86545546255029,-76.22224256598697 L32.90818204723032,-76.23744115011257 L32.95200743350183,-76.24995005437735 L32.99686074101626,-76.25974904768765 L33.04266942693169,-76.2668222817847 L33.08935940323885,-76.27115831687664 L33.13685515658634,-76.27275014014043 L33.185079870411045,-76.27159517706396 L33.233955549176244,-76.2676952956099 L33.28340314451658,-76.26105680319455 L33.33334268308579,-76.2516904364867 L33.383693395900394,-76.23961134404277 L33.43437384897026,-76.22483906180655 L33.48530207500466,-76.20739748151298 L33.53639570598091,-76.18731481204729 L33.587572106361,-76.16462353382168 " />
			<path d="M47.079169491400336,-23.957015266677214 L47.136866974425395,-23.98738517967351 L47.19180632683019,-24.02312647102809 L47.24380306489565,-24.06411912319315 L47.29268258606099,-24.11022548480232 L47.33828075523076,-24.161290732897378 L47.380444455932654,-24.217143392816322 L47.419032104475285,-24.277595913997107 L47.453914125379484,-24.342445299763465 L47.484973386486544,-24.411473788978036 L47.51210559228242,-24.484449587273847 L47.535219634117055,-24.56112764540874 L47.55423789614292,-24.64125048212899 L47.569096515945276,-24.724549048779057 L47.57974559898911,-24.810743632754118 L47.58614938616264,-24.899544796761592 L47.58828637385465,-24.990654350737763 " />
			<path d="M46.31549416771887,-27.530579450459246 L46.377947121176014,-27.499403430035265 L46.44024961999805,-27.464471550621965 L46.502251572008255,-27.42586796617652 L46.56380360907352,-27.383685676115135 L46.62475744694521,-27.3380263012693 L46.68496624248899,-27.288999839072307 L46.744284947442715,-27.2367243985658 L46.802570657850445,-27.18132591586475 L46.85968295833059,-27.122937850766313 L46.91548426034884,-27.061700865233504 L46.96984013368102,-26.9977624845282 L47.02261963026726,-26.931276741809853 L47.07369559967734,-26.862403807056143 L47.12294499542724,-26.791309601199448 L47.17024917140885,-26.71816539640879 L47.215494167718866,-26.64314740348018 L47.2585709851982,-26.566436347329397 L47.299375848020446,-26.488217031609793 L47.337810453696996,-26.408677893504144 L47.37378220989629,-26.32801054976295 L47.40720445750689,-26.246409335082912 L47.43799667940687,-26.164070833937608 L47.46608469443658,-26.08119340698831 L47.49140083610761,-25.99797671321573 L47.51388411561722,-25.9146212289241 L47.533480368775784,-25.83132776477615 L47.550142386493015,-25.748296982022662 L47.563830028508804,-25.66572890909192 L47.57451032009464,-25.58382245970373 L47.58215753149261,-25.502774953668826 L47.586753239900645,-25.422781641528164 L47.58828637385465,-25.344035234177298 " />
			<path d="M45.042701961583084,-24.990654350737778 L45.042701961583084,-25.344035234177287 " />
			<path d="M45.042701961583084,-24.990654350737778 L45.106688048994236,-24.962112118581636 L45.173586256224304,-24.935075258945222 L45.24323541963249,-24.909608905991544 L45.31546774828358,-24.885774410395463 L45.39010922817107,-24.86362919154452 L45.46698004143207,-24.84322659921062 L45.54589499954436,-24.824615785025756 L45.626663989461704,-24.807841584071408 L45.70909243161287,-24.792944406866923 L45.792981748660836,-24.77996014201703 L45.87812984389299,-24.76892006975303 L45.964331588089834,-24.759850786576013 L46.051379313699215,-24.752774141183522 L46.13906331512566,-24.74770718183415 L46.22717235392952,-24.744662115276785 L46.31549416771887,-24.743646277343476 L46.40381598150822,-24.744662115276785 L46.491925020312074,-24.74770718183415 L46.57960902173852,-24.752774141183522 L46.6666567473479,-24.759850786576013 L46.75285849154474,-24.76892006975303 L46.8380065867769,-24.77996014201703 L46.92189590382486,-24.792944406866923 L47.00432434597603,-24.807841584071408 L47.085093335893376,-24.824615785025756 L47.16400829400566,-24.84322659921062 L47.240879107266665,-24.86362919154452 L47.315520587154154,-24.885774410395463 L47.387752915805244,-24.909608905991544 L47.45740207921343,-24.935075258945222 L47.5243002864435,-24.962112118581636 L47.58828637385464,-24.99065435073777 " />
			<path d="M45.042701961583084,-25.344035234177284 L45.106688048994236,-25.315493002021142 L45.173586256224304,-25.288456142384728 L45.24323541963249,-25.26298978943105 L45.31546774828358,-25.23915529383497 L45.39010922817107,-25.217010074984024 L45.46698004143207,-25.196607482650126 L45.54589499954436,-25.177996668465262 L45.626663989461704,-25.161222467510914 L45.70909243161287,-25.14632529030643 L45.792981748660836,-25.133341025456534 L45.87812984389299,-25.122300953192536 L45.964331588089834,-25.11323167001552 L46.051379313699215,-25.10615502462303 L46.13906331512566,-25.101088065273657 L46.22717235392952,-25.09804299871629 L46.31549416771887,-25.097027160782982 L46.40381598150822,-25.09804299871629 L46.491925020312074,-25.101088065273657 L46.57960902173852,-25.10615502462303 L46.6666567473479,-25.11323167001552 L46.75285849154474,-25.122300953192536 L46.8380065867769,-25.133341025456534 L46.92189590382486,-25.14632529030643 L47.00432434597603,-25.161222467510914 L47.085093335893376,-25.177996668465262 L47.16400829400566,-25.196607482650126 L47.240879107266665,-25.217010074984024 L47.315520587154154,-25.23915529383497 L47.387752915805244,-25.26298978943105 L47.45740207921343,-25.288456142384728 L47.5243002864435,-25.315493002021142 L47.58828637385464,-25.344035234177277 " />
			<path d="M45.5518188440374,-23.957015266677214 L45.49412136101234,-23.98738517967351 L45.439182008607546,-24.02312647102809 L45.38718527054208,-24.06411912319315 L45.338305749376744,-24.11022548480232 L45.29270758020697,-24.161290732897378 L45.25054387950508,-24.217143392816322 L45.21195623096245,-24.277595913997107 L45.17707421005825,-24.342445299763465 L45.14601494895119,-24.411473788978036 L45.11888274315532,-24.484449587273847 L45.09576870132068,-24.56112764540874 L45.07675043929481,-24.64125048212899 L45.06189181949246,-24.724549048779057 L45.05124273644862,-24.810743632754118 L45.044838949275096,-24.899544796761592 L45.042701961583084,-24.990654350737763 " />
			<path d="M45.042701961583084,-24.990654350737778 L-13.222896808188445,-52.28932759643985 " />
			<path d="M-12.713779925734128,-51.25568851237928 L-12.771477408759186,-51.28605842537558 L-12.82641676116398,-51.321799716730155 L-12.878413499229442,-51.36279236889522 L-12.927293020394783,-51.40889873050439 L-12.972891189564555,-51.45996397859945 L-13.015054890266445,-51.51581663851839 L-13.053642538809076,-51.57626915969918 L-13.088524559713274,-51.64111854546554 L-13.119583820820335,-51.710147034680105 L-13.146716026616208,-51.78312283297591 L-13.16983006845085,-51.85980089111081 L-13.188848330476715,-51.93992372783106 L-13.203706950279065,-52.02322229448113 L-13.214356033322902,-52.10941687845619 L-13.22075982049643,-52.198218042463665 L-13.222896808188445,-52.28932759643983 " />
			<path d="M32.44739668126187,-65.21394127808966 L32.416737455175586,-65.31144011452359 L32.38995755927401,-65.4091876689466 L32.367145723471644,-65.50686007407478 L32.34837753029684,-65.60413371161667 L32.33371516446389,-65.7006862845187 L32.32320720683631,-65.79619788483306 L32.31688847346361,-65.89035205366976 L32.314779900225226,-65.98283682972082 " />
			<path d="M32.314779900225226,-65.98283682972081 L5.624479448252163,-53.47786294715543 " />
			<path d="M34.727747531460146,-65.21394127808966 L34.75840675754643,-65.31144011452359 L34.785186653448015,-65.4091876689466 L34.80799848925037,-65.50686007407478 L34.82676668242519,-65.60413371161667 L34.84142904825813,-65.7006862845187 L34.851937005885716,-65.79619788483306 L34.85825573925842,-65.89035205366976 L34.8603643124968,-65.98283682972082 " />
			<path d="M34.8603643124968,-65.98283682972082 L34.79637822508565,-66.01137906187697 L34.72948001785557,-66.03841592151339 L34.65983085444739,-66.06388227446706 L34.587598525796295,-66.08771677006314 L34.51295704590881,-66.10986198891409 L34.43608623264781,-66.13026458124799 L34.35717127453552,-66.14887539543285 L34.27640228461817,-66.1656495963872 L34.19397384246701,-66.18054677359169 L34.11008452541904,-66.19353103844158 L34.024936430186884,-66.20457111070557 L33.93873468599004,-66.2136403938826 L33.85168696038066,-66.22071703927509 L33.76400295895422,-66.22578399862446 L33.675893920150365,-66.22882906518183 L33.58757210636101,-66.22984490311514 L33.49925029257166,-66.22882906518183 L33.4111412537678,-66.22578399862446 L33.323457252341356,-66.22071703927509 L33.23640952673198,-66.2136403938826 L33.150207782535134,-66.20457111070557 L33.06505968730298,-66.19353103844158 L32.981170370255015,-66.18054677359169 L32.898741928103846,-66.1656495963872 L32.8179729381865,-66.14887539543285 L32.739057980074215,-66.13026458124799 L32.66218716681321,-66.10986198891409 L32.58754568692572,-66.08771677006315 L32.51531335827463,-66.06388227446706 L32.445664194866445,-66.03841592151339 L32.37876598763638,-66.01137906187697 L32.314779900225226,-65.98283682972084 " />
			<path d="M74.27858682582772,-47.514560539113724 L34.86036431249679,-65.98283682972082 " />
			<path d="M-12.71377992573413,-54.869008045548256 L-12.672221245863383,-54.886871728326604 L-12.629494661183346,-54.90207031245222 L-12.58566927491184,-54.914579216716994 L-12.540815967397402,-54.92437821002728 L-12.495007281481975,-54.931451444124335 L-12.448317305174816,-54.93578747921628 L-12.400821551827322,-54.937379302480075 L-12.35259683800262,-54.9362243394036 L-12.303721159237423,-54.932324457949534 L-12.254273563897085,-54.925685965534186 L-12.204334025327878,-54.91631959882634 L-12.153983312513274,-54.90424050638241 L-12.103302859443408,-54.889468224146185 L-12.052374633409002,-54.87202664385263 L-12.00128100243276,-54.851943974386934 L-11.950104602052663,-54.82925269616132 " />
			<path d="M46.31549416771887,-27.530579450459246 L46.25304121426172,-27.499403430035265 L46.190738715439686,-27.464471550621965 L46.12873676342948,-27.42586796617652 L46.06718472636422,-27.383685676115135 L46.006230888492524,-27.3380263012693 L45.946022092948745,-27.288999839072307 L45.88670338799502,-27.2367243985658 L45.82841767758729,-27.18132591586475 L45.77130537710715,-27.122937850766313 L45.715504075088894,-27.061700865233504 L45.66114820175672,-26.9977624845282 L45.60836870517048,-26.931276741809853 L45.55729273576039,-26.862403807056143 L45.508043340010495,-26.791309601199448 L45.46073916402889,-26.71816539640879 L45.41549416771887,-26.64314740348018 L45.37241735023954,-26.566436347329397 L45.33161248741729,-26.488217031609793 L45.29317788174074,-26.408677893504144 L45.257206125541444,-26.32801054976295 L45.22378387793084,-26.246409335082912 L45.19299165603086,-26.164070833937608 L45.16490364100115,-26.08119340698831 L45.139587499330126,-25.99797671321573 L45.11710421982051,-25.9146212289241 L45.09750796666195,-25.83132776477615 L45.08084594894472,-25.748296982022662 L45.06715830692893,-25.66572890909192 L45.056478015343096,-25.58382245970373 L45.04883080394512,-25.502774953668826 L45.04423509553709,-25.422781641528164 L45.042701961583084,-25.344035234177298 " />
			<path d="M45.042701961583084,-25.344035234177284 L-13.222896808188445,-52.64270847987935 " />
			<path d="M-13.222896808188445,-52.64270847987935 L-13.221363674234437,-52.72145488723024 L-13.216767965826403,-52.801448199370896 L-13.20912075442843,-52.8824957054058 L-13.19844046284259,-52.96440215479399 L-13.184752820826802,-53.04697022772473 L-13.168090803109575,-53.13000101047822 L-13.14849454995101,-53.21329447462617 L-13.126011270441397,-53.2966499589178 L-13.100695128770376,-53.379866652690374 L-13.072607113740663,-53.46274407963968 L-13.041814891840685,-53.54508258078498 L-13.008392644230081,-53.62668379546502 L-12.972420888030786,-53.70735113920621 L-12.93398628235424,-53.78689027731186 L-12.89318141953199,-53.86510959303146 L-12.850104602052658,-53.941820649182254 L-12.804859605742637,-54.016838642110855 L-12.75755542976103,-54.08998284690151 L-12.708306034011136,-54.161077052758216 L-12.65723006460105,-54.22994998751192 L-12.60445056801481,-54.296435730230264 L-12.550094694682631,-54.360374110935574 L-12.49429339266438,-54.42161109646838 L-12.437181092184236,-54.479999161566816 L-12.378895381776504,-54.53539764426787 L-12.31957667682278,-54.58767308477437 L-12.259367881279005,-54.636699546971364 L-12.198414043407308,-54.682358921817205 L-12.136862006342048,-54.72454121187859 L-12.07486005433184,-54.763144796324035 L-12.012557555509805,-54.798076675737335 L-11.950104602052669,-54.82925269616131 " />
			<path d="M76.02278355275453,-49.40014674417163 L76.0534427788408,-49.33137690778462 L76.08022267474239,-49.25872325587723 L76.10303451054476,-49.18242651202608 L76.12180270371957,-49.10273947047597 L76.1364650695525,-49.019926158555855 L76.1469730271801,-48.93426096187629 L76.15329176055279,-48.84602771520671 L76.15540033379118,-48.755518762044765 " />
			<path d="M76.15540033379118,-48.755518762044765 L76.22304364549447,-48.72204477379535 L76.2866821357015,-48.68688913895456 L76.34612567158592,-48.65015689207293 L76.40119665359357,-48.61195777814747 " />
			<path d="M3.747665940288699,-54.71882117008648 L3.680022628585408,-54.685347181837066 L3.6163841383783697,-54.650191546996275 L3.556940602493952,-54.61345930011464 L3.5018696204863007,-54.575260186189176 " />
			<path d="M3.747665940288699,-54.71882117008648 L3.749774513527079,-54.80933012324842 L3.7560932468997823,-54.897563369918004 L3.766601204527368,-54.98322856659757 L3.7812635703603092,-55.06604187851768 L3.8000317635351193,-55.145728920067796 L3.8228435993374816,-55.22202566391894 L3.8496234952390624,-55.294679315826336 L3.880282721325343,-55.363449152213335 " />
			<path d="M32.314779900225226,-68.10312213035787 L3.747665940288698,-54.71882117008648 " />
			<path d="M32.314779900225226,-68.10312213035787 L32.31688847346361,-68.19363108351983 L32.32320720683631,-68.2818643301894 L32.33371516446389,-68.36752952686896 L32.34837753029684,-68.45034283878908 L32.367145723471644,-68.5300298803392 L32.38995755927401,-68.60632662419034 L32.416737455175586,-68.67898027609773 L32.447396681261864,-68.74775011248474 " />
			<path d="M32.314779900225226,-68.10312213035789 L32.37876598763638,-68.13166436251402 L32.445664194866445,-68.15870122215044 L32.515313358274625,-68.18416757510411 L32.58754568692572,-68.2080020707002 L32.66218716681321,-68.23014728955114 L32.739057980074215,-68.25054988188504 L32.8179729381865,-68.2691606960699 L32.898741928103846,-68.28593489702425 L32.981170370255015,-68.30083207422874 L33.06505968730298,-68.31381633907863 L33.150207782535134,-68.32485641134262 L33.236409526731975,-68.33392569451965 L33.323457252341356,-68.34100233991214 L33.4111412537678,-68.34606929926152 L33.49925029257165,-68.34911436581888 L33.58757210636101,-68.35013020375219 L33.67589392015036,-68.34911436581888 L33.764002958954215,-68.34606929926152 L33.85168696038066,-68.34100233991214 L33.938734685990035,-68.33392569451965 L34.024936430186884,-68.32485641134262 L34.11008452541904,-68.31381633907863 L34.193973842467,-68.30083207422874 L34.27640228461817,-68.28593489702425 L34.35717127453552,-68.2691606960699 L34.4360862326478,-68.25054988188504 L34.512957045908806,-68.23014728955114 L34.587598525796295,-68.2080020707002 L34.659830854447385,-68.18416757510411 L34.72948001785557,-68.15870122215044 L34.79637822508564,-68.13166436251403 L34.860364312496785,-68.10312213035789 " />
			<path d="M34.86036431249679,-68.10312213035789 L34.85825573925841,-68.19363108351983 L34.85193700588571,-68.2818643301894 L34.84142904825813,-68.36752952686896 L34.82676668242518,-68.45034283878908 L34.80799848925037,-68.5300298803392 L34.78518665344801,-68.60632662419034 L34.75840675754643,-68.67898027609773 L34.72774753146015,-68.74775011248474 " />
			<path d="M76.15540033379116,-48.755518762044765 L34.86036431249679,-68.10312213035789 " />
			<path d="M-13.222896808188441,-52.28932759643985 L-13.222896808188441,-52.64270847987936 " />
			<path d="M-13.222896808188443,-52.28932759643985 L-13.283816627691586,-52.31930644037845 L-13.341523418105584,-52.350649674438614 L-13.395878158717819,-52.383281790024164 L-13.44674990419724,-52.417124173510416 L-13.494016100053148,-52.452095295631295 L-13.537562877879697,-52.48811090789052 L-13.577285329674856,-52.52508424552355 L-13.613087760572974,-52.562926236521555 L-13.644883919382096,-52.60154571621365 L-13.672597206370634,-52.640849646890594 L-13.696160857802838,-52.680743341940754 L-13.715518106778472,-52.7211306939585 L-13.730622319989264,-52.761914406275295 L-13.741437110062613,-52.80299622735593 L-13.747936423221969,-52.844277187495095 L-13.750104602052659,-52.88565783724401 " />
			<path d="M-13.750104602052659,-53.239038720683524 L-13.747936423221969,-53.1976580709346 L-13.741437110062613,-53.15637711079544 L-13.730622319989264,-53.115295289714794 L-13.715518106778473,-53.074511577398006 L-13.696160857802838,-53.03412422538027 L-13.672597206370634,-52.9942305303301 L-13.644883919382096,-52.954926599653156 L-13.613087760572974,-52.91630711996106 L-13.577285329674856,-52.87846512896306 L-13.537562877879697,-52.84149179133003 L-13.494016100053148,-52.8054761790708 L-13.44674990419724,-52.77050505694992 L-13.395878158717819,-52.73666267346367 L-13.341523418105584,-52.70403055787812 L-13.283816627691584,-52.672687323817954 L-13.22289680818845,-52.64270847987935 " />
			<path d="M76.15540033379118,-48.40213787860525 L76.15540033379118,-48.75551876204476 " />
			<path d="M3.7476659402887016,-54.36544028664696 L3.7476659402887016,-54.71882117008647 " />
			<path d="M32.31477990022523,-65.98283682972082 L32.31477990022523,-68.10312213035787 " />
			<path d="M34.8603643124968,-65.98283682972082 L34.8603643124968,-68.10312213035787 " />
			<path d="M93.65317087613253,-46.922355429202305 L93.65317087613253,-47.27573631264182 " />
			<path d="M92.61684619981399,-48.90570563750655 L34.35124743004247,-76.20437888320862 " />
			<path d="M93.65317087613253,-46.922355429202305 L93.64917719496079,-46.80251677630184 L93.63721387310032,-46.68320989825886 L93.61733399687698,-46.56496421022059 L93.58962578172118,-46.44830441838476 L93.55421218071866,-46.333748191655985 L93.5112503390156,-46.22180386452959 L93.46093089649901,-46.11296818139617 L93.40347714184684,-46.00772409227633 L93.3391440217015,-45.90653860976689 L93.26821700936375,-45.809860736708266 L93.19101083802661,-45.718119473768624 L93.10786810417099,-45.63172191578627 L93.01915774731998,-45.551051445317434 L92.92527341289788,-45.476466031405465 L92.82663170545882,-45.40829664112062 L92.72367034003587,-45.34684577091898 L92.616846199814,-45.29238610433757 " />
			<path d="M92.616846199814,-48.90570563750655 L92.72367034003587,-48.85124597092513 L92.82663170545884,-48.78979510072349 L92.9252734128979,-48.721625710438644 L93.01915774731998,-48.647040296526676 L93.107868104171,-48.56636982605784 L93.19101083802661,-48.479972268075485 L93.26821700936375,-48.38823100513584 L93.3391440217015,-48.29155313207722 L93.40347714184684,-48.19036764956778 L93.46093089649902,-48.08512356044794 L93.51125033901562,-47.97628787731452 L93.55421218071868,-47.864343550188124 L93.58962578172118,-47.74978732345935 L93.61733399687698,-47.633127531623515 L93.63721387310032,-47.51488184358524 L93.64917719496079,-47.39557496554227 L93.65317087613253,-47.275736312641804 " />
			<path d="M32.82389678267954,-76.20437888320862 L32.92734988159113,-76.2489562474272 L33.033388786710084,-76.28697513321123 L33.14159818929826,-76.31828663695342 L33.25155427971335,-76.34276812497424 L33.36282640728887,-76.36032371382521 L33.47497876700736,-76.37088464582303 L33.58757210636101,-76.37440955834388 L33.70016544571466,-76.37088464582303 L33.812317805433146,-76.36032371382521 L33.923589933008664,-76.34276812497426 L34.03354602342376,-76.31828663695342 L34.141755426011926,-76.28697513321123 L34.24779433113089,-76.2489562474272 L34.35124743004248,-76.20437888320862 " />
			<path d="M92.616846199814,-45.29238610433757 L47.07916949140035,-23.957015266677214 " />
			<path d="M45.55181884403739,-23.957015266677214 L-12.713779925734137,-51.25568851237928 " />
			<path d="M32.82389678267955,-76.20437888320863 L-12.713779925734116,-54.86900804554827 " />
			<path d="M-13.750104602052659,-52.88565783724402 L-13.750104602052659,-53.23903872068353 " />
			<path d="M47.079169491400336,-23.957015266677214 L46.97571639248875,-23.91243790245863 L46.86967748736979,-23.874419016674615 L46.76146808478162,-23.84310751293242 L46.65151199436652,-23.818626024911588 L46.540239866791005,-23.801070436060623 L46.42808750707252,-23.790509504062808 L46.31549416771887,-23.786984591541948 L46.202900828365216,-23.790509504062808 L46.09074846864673,-23.801070436060623 L45.97947634107121,-23.818626024911588 L45.869520250656116,-23.84310751293242 L45.76131084806795,-23.874419016674615 L45.655271942948985,-23.91243790245863 L45.5518188440374,-23.957015266677214 " />
			<path d="M-12.713779925734128,-51.25568851237928 L-12.82060406595599,-51.3101481789607 L-12.923565431378954,-51.37159904916234 L-13.02220713881801,-51.439768439447185 L-13.116091473240104,-51.514353853359154 L-13.204801830091125,-51.59502432382799 L-13.287944563946738,-51.681421881810344 L-13.365150735283873,-51.77316314474999 L-13.436077747621628,-51.86984101780861 L-13.500410867766954,-51.97102650031805 L-13.557864622419137,-52.07627058943789 L-13.608184064935733,-52.18510627257131 L-13.651145906638792,-52.297050599697705 L-13.686559507641302,-52.41160682642648 L-13.7142677227971,-52.528266618262315 L-13.734147599020439,-52.646512306300586 L-13.74611092088091,-52.76581918434356 L-13.750104602052659,-52.885657837244025 " />
			<path d="M-13.750104602052659,-53.239038720683524 L-13.74611092088091,-53.35887737358399 L-13.734147599020439,-53.47818425162696 L-13.7142677227971,-53.596429939665235 L-13.686559507641302,-53.71308973150107 L-13.65114590663879,-53.827645958229844 L-13.608184064935731,-53.93959028535623 L-13.557864622419135,-54.04842596848966 L-13.500410867766952,-54.1536700576095 L-13.436077747621624,-54.25485554011893 L-13.36515073528387,-54.351533413177556 L-13.287944563946734,-54.4432746761172 L-13.20480183009112,-54.52967223409955 L-13.1160914732401,-54.610342704568396 L-13.022207138818006,-54.684928118480364 L-12.923565431378949,-54.75309750876521 L-12.820604065955985,-54.81454837896684 L-12.713779925734123,-54.86900804554826 " />

       </g>
    </g>

</svg>
