0
SECTION
2
HEADER
9
$ACADVER
1
AC1009
0
ENDSEC
0
SECTION
2
ENTITIES
0
LINE
8
FINISHED_PROFILE
10
-24.0
20
-40.0
30
0
11
24.0
21
-40.0
31
0
0
LINE
8
FINISHED_PROFILE
10
24.0
20
-40.0
30
0
11
24.0
21
40.0
31
0
0
LINE
8
FINISHED_PROFILE
10
24.0
20
40.0
30
0
11
-24.0
21
40.0
31
0
0
LINE
8
FINISHED_PROFILE
10
-24.0
20
40.0
30
0
11
-24.0
21
-40.0
31
0
0
CIRCLE
8
M2_5_CLEARANCE
10
-16.0
20
-8.0
30
0
40
1.35
0
CIRCLE
8
M2_5_CLEARANCE
10
-16.0
20
8.0
30
0
40
1.35
0
CIRCLE
8
M2_5_CLEARANCE
10
16.0
20
-8.0
30
0
40
1.35
0
CIRCLE
8
M2_5_CLEARANCE
10
16.0
20
8.0
30
0
40
1.35
0
CIRCLE
8
M8_CLEARANCE
10
0.0
20
-30.0
30
0
40
4.25
0
CIRCLE
8
M8_CLEARANCE
10
0.0
20
30.0
30
0
40
4.25
0
ENDSEC
0
EOF
